<svg width="21" height="19" viewBox="0 0 21 19" xmlns="http://www.w3.org/2000/svg">
<path d="M2.30581 2.27702C4.4681 0.0309206 8.14524 0.100063 10.3494 2.30425L10.8083 2.77149L11.2671 2.31263C13.4713 0.100063 17.1485 0.0309206 19.3108 2.27702C20.3207 3.32681 20.8785 4.73085 20.8644 6.18747C20.8503 7.64409 20.2654 9.03707 19.2353 10.0671L18.6738 10.6286L11.0891 18.2134C11.0521 18.2505 11.0081 18.2799 10.9598 18.2999C10.9114 18.32 10.8596 18.3303 10.8072 18.3303C10.7549 18.3303 10.703 18.32 10.6547 18.2999C10.6063 18.2799 10.5624 18.2505 10.5254 18.2134L2.38124 10.0671C1.35122 9.03707 0.766318 7.64409 0.752214 6.18747C0.73811 4.73085 1.29593 3.32681 2.30581 2.27702Z"/>
</svg>
