<svg width="20" height="20" viewBox="0 0 20 20" fill="none" xmlns="http://www.w3.org/2000/svg">
<path d="M17.4013 10.9389C17.5463 11.1014 17.615 11.3319 17.5898 11.5486C17.0946 15.8283 13.472 19.0563 9.16329 19.0563C4.48069 19.0563 0.671875 15.2857 0.671875 10.6504C0.671875 6.38065 4.02891 2.70691 8.31468 2.28718C8.5337 2.26505 8.74433 2.33679 8.90382 2.48178C9.06332 2.62678 9.15642 2.8313 9.15642 3.0465V10.6695H16.832C17.0495 10.6695 17.2571 10.7763 17.4013 10.9389ZM19.1359 8.18928C18.7399 4.13016 15.695 1.15316 11.5122 0.760913C11.2978 0.741834 11.0879 0.81128 10.9292 0.956276C10.7705 1.10127 10.6827 1.30503 10.6827 1.52023V1.53931V8.40753C10.6827 8.82878 11.0192 9.1432 11.4405 9.1432H18.3087H18.3888C18.3934 9.1432 18.3988 9.1432 18.4041 9.1432C18.8254 9.1432 19.1672 8.81505 19.1672 8.3938C19.1672 8.31748 19.1566 8.25872 19.1359 8.18928Z" fill="#B4B4B4" fill-opacity="0.45"/>
</svg>
