<svg width="81" height="81" viewBox="0 0 81 81" xmlns="http://www.w3.org/2000/svg">
<path d="M53.7055 17.5059L54.2409 28.0432L64.6645 29.677L58.9039 38.5165L66.3764 45.9652L56.5203 49.7305L58.1875 60.1489L48.0005 57.4018L43.2255 66.8104L36.5988 58.6002L27.2055 63.4052L26.6702 52.8679L16.2466 51.2341L22.0072 42.3945L14.5346 34.9459L24.3908 31.1805L22.7236 20.7622L32.9106 23.5093L37.6855 14.1007L44.3123 22.3109L53.7055 17.5059Z"/>
<path d="M36.4783 32.6734C37.4519 32.9343 38.1427 33.4859 38.5506 34.3281C38.9616 35.1588 39.0025 36.1885 38.6733 37.4172C38.3441 38.6458 37.8081 39.5333 37.0654 40.0797C36.3373 40.6176 35.4459 40.7453 34.3911 40.4626C33.4407 40.208 32.7673 39.661 32.371 38.8219C31.9778 37.9711 31.9458 36.9314 32.275 35.7027C32.6042 34.4741 33.1313 33.5966 33.8562 33.0703C34.5842 32.5324 35.4582 32.4001 36.4783 32.6734ZM45.8552 35.3723L35.6438 45.9415L33.1227 45.266L43.3342 34.6968L45.8552 35.3723ZM35.9586 34.7517C35.7152 34.6865 35.5021 34.8095 35.3193 35.1208C35.1396 35.4205 34.9737 35.8544 34.8215 36.4223C34.6724 36.9787 34.5992 37.4374 34.6019 37.7984C34.6045 38.1594 34.7276 38.3725 34.971 38.4377C35.2144 38.5029 35.426 38.3857 35.6056 38.086C35.7884 37.7747 35.9559 37.3351 36.1081 36.7671C36.2603 36.1991 36.3335 35.7404 36.3278 35.3911C36.3251 35.0301 36.2021 34.817 35.9586 34.7517ZM44.5961 40.1409C45.5698 40.4018 46.2606 40.9534 46.6685 41.7957C47.0795 42.6263 47.1204 43.656 46.7912 44.8847C46.4619 46.1133 45.926 47.0008 45.1832 47.5472C44.4552 48.0851 43.5638 48.2128 42.509 47.9301C41.5585 47.6755 40.8852 47.1285 40.4888 46.2894C40.0956 45.4386 40.0636 44.3989 40.3929 43.1703C40.7221 41.9416 41.2492 41.0641 41.9741 40.5378C42.7021 39.9999 43.5761 39.8676 44.5961 40.1409ZM44.0765 42.2192C43.8331 42.154 43.62 42.2771 43.4372 42.5884C43.2575 42.8881 43.0916 43.3219 42.9394 43.8899C42.7903 44.4462 42.7171 44.9049 42.7198 45.2659C42.7224 45.6269 42.8455 45.84 43.0889 45.9052C43.3323 45.9704 43.5438 45.8532 43.7235 45.5535C43.9063 45.2422 44.0738 44.8026 44.226 44.2346C44.3813 43.6551 44.4561 43.1906 44.4503 42.8412C44.4445 42.4918 44.3199 42.2845 44.0765 42.2192Z" fill="white"/>
</svg>
