<svg width="13" height="8" viewBox="0 0 13 8" fill="none" xmlns="http://www.w3.org/2000/svg">
<path d="M6.49914 6.99988C6.2947 7.00027 6.09657 6.92907 5.93914 6.79863L0.689143 2.42363C0.510453 2.2751 0.398082 2.06168 0.376749 1.83031C0.355417 1.59894 0.426871 1.36856 0.575393 1.18987C0.723914 1.01119 0.937336 0.898814 1.16871 0.877482C1.40008 0.85615 1.63045 0.927603 1.80914 1.07612L6.49914 4.99613L11.1891 1.21613C11.2786 1.14344 11.3816 1.08916 11.4922 1.05641C11.6027 1.02366 11.7187 1.01308 11.8333 1.02527C11.948 1.03747 12.0591 1.07221 12.1602 1.12748C12.2614 1.18276 12.3507 1.25749 12.4229 1.34738C12.503 1.43734 12.5637 1.54289 12.6012 1.65741C12.6386 1.77192 12.652 1.89293 12.6405 2.01286C12.629 2.13279 12.5928 2.24906 12.5343 2.35437C12.4758 2.45968 12.3962 2.55177 12.3004 2.62488L7.05039 6.85113C6.88844 6.96095 6.69436 7.01332 6.49914 6.99988Z" fill="#0D4689" fill-opacity="0.43"/>
</svg>
