<svg width="71" height="70" viewBox="0 0 71 70" fill="none" xmlns="http://www.w3.org/2000/svg">
<g clip-path="url(#clip0_844_3442)">
<path d="M70.3874 44.2492C70.4389 40.8097 70.1813 38.1174 66.4842 37.3059C66.4842 36.7133 66.4971 36.1078 66.51 35.5024C66.5872 32.0114 66.6774 28.3916 64.539 26.163L64.4231 26.0858L64.5648 26.0085C64.6163 25.1969 64.6163 24.4111 64.6163 23.6124C64.6163 22.569 64.6292 21.4869 64.7323 20.4049C64.8997 18.7946 64.977 16.7335 64.0882 15.046C62.684 12.3537 59.5409 12.1347 56.4235 12.1347H54.8132C53.1901 9.54545 51.5541 6.96908 49.9052 4.40559C49.7249 4.12219 49.5188 3.7615 49.3127 3.36216C48.5913 2.04821 47.7024 0.412219 46.4658 0.0644093C46.3241 0.0257637 46.1566 0 45.9892 0C45.2807 0 44.6108 0.425101 44.0182 0.785793C43.8636 0.888848 43.7091 0.979021 43.5545 1.06919C42.0344 1.94516 40.5144 2.83401 38.9943 3.73574L38.3245 4.12219C38.2343 3.96761 38.1441 3.78727 38.041 3.60692C37.2295 2.09974 36.0959 0.0257637 34.4985 0C33.571 0 32.6564 0.631211 31.8578 1.18513C31.5872 1.36548 31.3296 1.54582 31.0848 1.68752C29.1397 2.84689 27.1816 3.99338 25.2365 5.15274C21.2946 7.49724 17.3786 9.8675 13.5398 12.2249C13.4882 12.212 13.4238 12.1862 13.3337 12.1862H12.9214C12.419 12.1862 11.9038 12.1734 11.3627 12.1605C10.8088 12.1605 10.242 12.1476 9.66232 12.1476C6.86696 12.1476 4.02007 12.431 2.07491 14.4921C0.967073 15.6643 0.258571 17.5193 0.245689 19.3357C-0.153648 23.2389 0.0266978 27.258 0.207044 31.1483C0.271453 32.5911 0.335862 34.0339 0.374508 35.4637C0.438917 38.1045 0.38739 40.784 0.335862 43.3732C0.207044 49.608 0.0782252 56.049 1.66269 62.2966C2.70612 66.4188 3.72379 67.9518 7.6914 68.8922C10.7058 69.6135 13.6815 69.7037 16.1934 69.7037C17.1982 69.7037 18.203 69.6908 19.2078 69.6651H19.401C20.4573 69.6522 21.5265 69.6393 22.5828 69.6393C26.1897 69.6393 29.8611 69.7295 33.4165 69.8197C36.9719 69.9098 40.6432 70 44.2501 70C46.8522 70 49.1839 69.9485 51.3867 69.8583C52.005 69.8325 52.6491 69.8196 53.2803 69.8068C57.1577 69.7166 61.164 69.6264 64.0238 66.7795C66.0591 64.7442 65.9947 61.1502 65.9303 57.9812C65.9045 56.8734 65.8916 55.8171 65.956 54.8896C66.0977 54.8896 66.2394 54.9025 66.394 54.9025C66.5872 54.9153 66.7676 54.9153 66.9608 54.9153C67.4117 54.9153 68.0042 54.8767 68.4809 54.5418C70.4389 53.1763 70.4132 48.0364 70.4003 45.2797C70.3874 44.8675 70.3745 44.5197 70.3874 44.2492ZM38.7238 68.4928C36.0444 68.4671 33.3134 68.3769 30.6855 68.2996C27.6454 68.1965 24.5151 68.1064 21.4235 68.0935H21.256C20.3671 68.0935 19.4912 68.1064 18.6152 68.1192C17.7392 68.1321 16.8762 68.145 16.0131 68.145C13.6557 68.145 10.8732 68.0548 8.07786 67.3979C6.1327 66.9341 4.81875 65.9293 3.96855 64.2547C4.22618 64.3191 4.48382 64.3577 4.76722 64.3577C5.25673 64.3577 5.50149 63.9713 5.51437 63.5977C5.51437 63.2113 5.25673 62.8248 4.76722 62.8119C4.31636 62.8119 3.94278 62.6702 3.62074 62.3739C3.5048 62.2709 3.37598 62.2065 3.2214 62.1807C3.04105 61.5366 2.88647 60.8539 2.74477 60.1454C2.13932 57.2598 1.80439 54.2197 1.7271 50.8576C1.67558 48.6161 1.76575 46.3489 1.85592 44.1461C1.94609 41.7759 2.04915 39.3154 1.95898 36.8807C1.90745 35.3993 1.84304 33.905 1.76575 32.3979C1.70134 31.071 1.63693 29.7442 1.5854 28.4045C1.70134 28.4689 1.80439 28.5333 1.92033 28.5977C2.03627 28.6492 2.1522 28.6879 2.28102 28.6879C2.64171 28.6879 2.98952 28.4045 3.06682 28.0309C3.14411 27.7089 3.00241 27.4126 2.68036 27.258C2.26814 27.0519 1.8688 26.8329 1.53387 26.6654C1.50811 25.2613 1.50811 24.0762 1.53387 22.9683C2.6546 24.0762 4.66417 24.643 7.48529 24.643C7.84598 24.643 8.18091 24.6301 8.50296 24.6172C11.3756 24.5271 13.7459 24.4755 16.0002 24.4755C18.4735 24.4755 20.7407 24.5399 22.9306 24.6816C24.85 24.7976 26.9369 24.862 29.2814 24.862C31.7934 24.862 34.3568 24.7976 36.8173 24.7332C39.2906 24.6688 41.8412 24.6043 44.3532 24.6043C45.3322 24.6043 46.2983 24.6172 47.2773 24.643C50.0212 24.7074 52.4301 24.8105 54.6586 24.965C55.0709 24.9908 55.5088 25.0166 55.9468 25.0294C58.3686 25.1454 61.0996 25.2742 62.9288 26.7427C65.2862 28.6492 65.1316 32.3206 65.0028 35.5668C64.977 36.1465 64.9512 36.7133 64.9512 37.2543H64.3716C62.8257 37.2543 61.2413 37.3316 59.7083 37.4089C58.4588 37.4733 57.2221 37.5248 55.9855 37.5506C53.1901 37.6021 50.9744 37.6408 49.0293 39.9853C47.0197 42.4071 46.0793 46.0011 46.7105 48.9253C47.1614 51.0379 48.3723 52.6353 50.2144 53.5499C52.9067 54.8896 56.0112 54.9926 58.9483 54.9926H59.7985L61.0094 54.9798V55.0442C61.0094 55.5337 61.3959 55.7913 61.7823 55.7913C62.1688 55.7913 62.5552 55.5337 62.5552 55.0442V54.954L64.4231 54.9282C64.3072 56.2164 64.2556 57.5304 64.217 58.7928C64.1783 59.965 64.1397 61.1888 64.0366 62.3739C63.6759 66.5863 60.7389 67.6813 56.4492 68.042C52.3914 68.3898 47.9086 68.5443 42.3565 68.5443C41.1198 68.5186 39.9218 68.5057 38.7238 68.4928ZM33.8158 2.0611C35.2199 2.0611 36.1345 3.52963 36.9332 4.8307L36.9847 4.90799C28.7919 9.75156 20.5733 14.827 12.6252 19.7479L12.5479 19.8252C10.8475 19.7736 9.14705 19.7092 7.44665 19.6191C7.20189 19.6062 5.97811 19.5418 4.81875 19.3357C10.68 15.7287 15.8843 12.5598 20.715 9.66139C23.5361 7.96099 26.3572 6.27346 29.1912 4.59882C29.5519 4.37983 29.977 4.08355 30.4279 3.7615C31.4069 3.06588 32.5147 2.26721 33.4036 2.09974C33.5582 2.07398 33.687 2.0611 33.8158 2.0611ZM59.7212 17.7383C59.7341 17.88 59.7727 18.0217 59.8114 18.1763C59.8372 18.3051 59.8758 18.4468 59.8887 18.5756C59.9402 18.975 59.9531 19.4258 59.9273 19.8896C59.8758 19.8896 59.8371 19.8767 59.7985 19.8767C59.7341 19.8767 59.6697 19.8896 59.631 19.9025C59.3348 19.4258 58.2012 17.5709 58.2012 17.5709C58.8324 17.6095 59.309 17.6481 59.7212 17.7383ZM63.1349 20.7527C63.0576 21.3581 62.9803 21.9764 62.9546 22.6077C62.9417 23.1358 62.9674 23.664 62.9932 24.1921C63.0061 24.424 63.019 24.643 63.0319 24.8749C62.6454 24.6559 62.2203 24.4626 61.8081 24.3209C61.8081 24.0891 61.8467 23.8057 61.8725 23.5094C61.9755 22.466 62.1044 21.1907 61.4345 20.4821C61.5118 19.735 61.5118 19.0523 61.4087 18.2794C61.3314 17.7125 61.2413 16.9268 60.7646 16.5145C60.3653 16.1538 59.747 16.1152 59.2446 16.0894L59.0771 16.0766C58.6391 16.0508 58.214 16.025 57.7761 16.025C57.5828 16.025 57.3767 16.025 57.2994 16.0894L55.8051 13.6805C59.2446 13.7063 63.0447 13.8351 63.3024 18.2149C63.341 19.078 63.238 19.9282 63.1349 20.7527ZM26.6277 20.0184C28.2766 19.1296 30.1574 18.1119 31.9737 17.0298C32.6178 16.6434 33.2619 16.2311 33.906 15.8318C34.4341 15.484 34.9752 15.1491 35.5162 14.8141C35.7867 14.6467 35.9928 14.5178 36.1474 14.4148C36.4179 14.2344 36.521 14.17 36.624 14.17C36.7142 14.17 36.843 14.2216 37.0491 14.2989L37.719 14.5436C39.5482 15.1877 40.8622 15.6515 42.2405 15.6515C43.2582 15.6515 44.2887 15.3938 45.4739 14.827C46.5688 16.6691 47.9086 18.3051 49.2998 19.9669H46.2983C42.9104 19.9669 39.5225 19.9798 36.1217 20.0055C33.0042 20.0313 29.874 20.0442 26.7565 20.0442H26.6277V20.0184ZM8.49008 21.2164C11.7492 21.371 15.2273 21.4612 19.4397 21.5127C21.8743 21.5385 24.2961 21.5513 26.7308 21.5513C30.1702 21.5513 33.6226 21.5256 37.062 21.5127L41.8541 21.4869C43.7864 21.4741 45.7186 21.4741 47.638 21.4741C49.4157 21.4741 51.1934 21.4741 52.9711 21.4998C54.7102 21.5127 56.4492 21.5385 58.2012 21.59C60.2623 21.6415 60.3138 22.1568 60.2751 23.8958C57.7116 23.3162 54.8776 23.2646 52.1338 23.226C51.3094 23.2131 50.4978 23.2002 49.712 23.1745C47.0197 23.0843 44.6108 23.0328 42.3436 23.0328C41.1971 23.0328 40.0377 23.0456 38.8913 23.0714C37.5129 23.0972 36.1345 23.1229 34.7562 23.1229C31.8578 23.1229 28.9207 23.0585 26.0867 23.007C23.2527 22.9555 20.3156 22.8911 17.4172 22.8911C16.5541 22.8911 15.6782 22.8911 14.8151 22.9039C13.9906 22.9168 13.0245 23.007 11.9939 23.0972C10.7058 23.2131 9.36604 23.3419 8.06498 23.3419C6.10693 23.3419 4.65128 23.0585 3.62074 22.4531C2.77053 21.9636 2.19085 21.2937 1.92033 20.4564C3.16987 21.1649 4.98621 21.2293 6.73814 21.2293H7.44665C7.8331 21.2035 8.18091 21.2035 8.49008 21.2164ZM64.0624 53.3695H64.0495C63.4054 53.3824 62.6969 53.4211 61.924 53.4597C60.8033 53.5112 59.528 53.5756 58.2527 53.5756C54.8519 53.5756 50.1371 53.1634 48.5526 49.5823C47.8184 47.9205 47.8441 46.1042 48.6428 43.8627C49.7635 40.7195 51.7216 39.1995 54.8132 39.0964C55.8824 39.0578 56.9645 39.0063 58.0466 38.9547C59.9789 38.8517 61.9884 38.7615 63.9336 38.7615C64.655 38.7615 65.3635 38.7744 66.0591 38.8001C69.4341 39.5602 69.0348 44.0302 68.7643 46.993L68.6999 47.6886L68.6612 48.2168C68.5453 49.9687 68.3521 52.6224 66.613 53.318C66.394 53.3953 66.0977 53.4468 65.6855 53.4468C65.4021 53.4468 65.0929 53.4211 64.8095 53.4082C64.5648 53.3824 64.3329 53.3695 64.0624 53.3695ZM45.3322 1.66176L45.3579 1.79058C47.0068 1.85499 48.7072 4.94663 49.8408 6.99485C50.1371 7.523 50.3947 7.98675 50.6009 8.3088C52.8938 11.9028 55.2512 15.6901 57.8018 19.8767C57.5184 19.8896 57.235 19.9153 56.9645 19.9282C56.4879 19.9669 56.0628 19.9926 55.6763 19.9926H55.6634C54.6844 19.9798 53.7054 19.9798 52.7264 19.9669L51.348 20.0184L51.2192 20.0442L51.2836 19.8896L50.7683 19.2841C49.1581 17.3776 47.638 15.587 46.44 13.4229C46.3112 13.191 46.0536 13.0364 45.7702 13.0364C45.6285 13.0364 45.4996 13.0751 45.3837 13.1395C44.0826 13.848 42.7429 14.2216 41.532 14.2216C39.9347 14.2216 38.5821 13.5904 37.5258 12.3666C37.397 12.2249 37.1908 12.1347 36.959 12.1347C36.8173 12.1347 36.6756 12.1734 36.5725 12.2506C32.8883 14.7497 28.8176 17.1586 23.7422 19.8252C23.6263 19.8767 23.549 19.954 23.5747 20.0055H22.8662C20.7922 19.9926 18.7312 19.9926 16.6572 19.954L15.3561 19.9153C23.6649 14.8013 31.394 10.1123 38.9685 5.60361L42.189 3.68421C42.4209 3.54251 42.73 3.32352 43.0779 3.06588C43.8121 2.52484 44.8169 1.79058 45.3322 1.79058V1.66176ZM5.79777 14.0927C7.09884 13.7321 8.52872 13.6805 9.63656 13.6805C10.1132 13.6805 10.5898 13.6934 11.0664 13.7063L8.6833 15.1619L7.74293 15.7545C6.89273 15.7803 4.27771 16.1152 2.47425 16.8108C3.26004 15.484 4.4967 14.4534 5.79777 14.0927ZM2.68036 18.2278C2.77053 18.0217 3.18275 17.6481 4.94757 17.4549L2.88647 18.7173C2.61595 18.4983 2.64171 18.3309 2.68036 18.2278Z" fill="#4A8FE0"/>
<path d="M56.5775 41.8145C56.4874 41.7501 56.3843 41.6986 56.2813 41.6857C56.2168 41.6599 56.1524 41.647 56.0494 41.647C56.0236 41.647 55.9979 41.647 55.9592 41.647C55.7402 41.6213 55.5341 41.6084 55.3151 41.6084C53.035 41.6084 51.0641 42.9868 50.42 45.0479C49.6085 47.65 50.7292 50.0718 53.151 50.922C53.7178 51.1281 54.2846 51.2311 54.8514 51.2311C56.8094 51.2311 58.4583 49.9945 59.257 47.9334C59.7722 46.6066 59.798 45.3184 59.3085 44.2363C58.8319 43.1542 57.8786 42.304 56.5775 41.8145ZM54.8514 49.6853C54.4392 49.6853 54.0141 49.608 53.5761 49.4534C52.1719 48.9382 51.4763 47.7659 51.734 46.3232C52.0045 44.7516 53.4086 43.1285 55.2894 43.1285C55.4826 43.1285 55.6758 43.1413 55.8433 43.18C56.8609 43.5278 57.5823 44.1332 57.9044 44.9577C58.2522 45.8079 58.1362 46.8384 57.6081 47.8561C57.0026 49.0412 56.0107 49.6853 54.8514 49.6853Z" fill="#4A8FE0"/>
<path d="M9.23561 27.9536C9.22272 27.6187 9.00373 27.2451 8.48846 27.2451L6.05379 27.3997C5.5514 27.4255 5.30664 27.8506 5.30664 28.237C5.31952 28.5719 5.53851 28.9455 6.00226 28.9455L8.48846 28.7909C9.00373 28.7652 9.24849 28.353 9.23561 27.9536Z" fill="#4A8FE0"/>
<path d="M16.1796 27.8248C16.1667 27.4255 15.8833 27.155 15.4324 27.155L12.5726 27.4126C12.0702 27.4513 11.8255 27.8892 11.8384 28.2757C11.8513 28.675 12.1347 28.9584 12.5211 28.9584L15.4582 28.7008C15.9477 28.6493 16.2053 28.2242 16.1796 27.8248Z" fill="#4A8FE0"/>
<path d="M22.1825 28.1984C22.1825 27.8119 21.9377 27.4126 21.4353 27.3997C21.1906 27.3997 20.9458 27.3868 20.7011 27.3868C20.3275 27.3868 19.941 27.3997 19.5675 27.4126C19.0651 27.4255 18.8203 27.8377 18.8203 28.2242C18.8203 28.572 19.0522 28.9584 19.5417 28.9584H19.5803C19.9539 28.9455 20.3275 28.9327 20.7139 28.9327C20.9587 28.9327 21.4611 28.9455 21.4611 28.9455C21.9248 28.9455 22.1825 28.572 22.1825 28.1984Z" fill="#4A8FE0"/>
<path d="M29.2286 28.1082C29.2157 27.7604 28.9967 27.3868 28.4814 27.3868C27.7343 27.4255 26.9871 27.4384 26.24 27.4384H26.0596C25.5701 27.4384 25.3125 27.8248 25.3125 28.2113C25.3125 28.5977 25.5701 28.9842 26.0596 28.9842H26.2271C26.9871 28.9842 27.7343 28.9713 28.4814 28.9327C28.9838 28.9198 29.2415 28.5076 29.2286 28.1082Z" fill="#4A8FE0"/>
<path d="M35.9797 28.3787C35.9925 27.9922 35.7478 27.5542 35.2454 27.5027C34.4596 27.4254 33.6738 27.3997 32.888 27.3997H32.669C32.1795 27.3997 31.9219 27.799 31.9219 28.1854C31.9219 28.559 32.1795 28.9455 32.669 28.9455H32.888C33.6609 28.9455 34.4467 28.9841 35.2196 29.0485H35.2969C35.7478 29.0614 35.9668 28.7136 35.9797 28.3787Z" fill="#4A8FE0"/>
<path d="M42.0197 28.9971H42.0584C42.5479 28.9971 42.7669 28.6106 42.7797 28.2628C42.7926 27.8764 42.535 27.4641 42.0326 27.4513C41.7878 27.4384 41.5431 27.4255 41.2983 27.3997C40.9892 27.374 40.68 27.3353 40.358 27.3353C40.0488 27.3353 39.7654 27.3611 39.5077 27.4255C39.1213 27.5157 38.9152 27.8377 38.9538 28.2242C38.9925 28.5849 39.2759 28.9456 39.7139 28.9456C39.7783 28.9456 39.8427 28.9327 39.9071 28.9198C40.0745 28.8812 40.2549 28.8554 40.461 28.8554C40.7315 28.8554 41.0149 28.894 41.2983 28.9198C41.5431 28.9584 41.7878 28.9842 42.0197 28.9971Z" fill="#4A8FE0"/>
<path d="M45.898 28.8038C46.336 28.8167 46.7868 28.8167 47.2248 28.8167C47.9076 28.8167 48.5903 28.8038 49.273 28.7781C49.7754 28.7523 50.0202 28.353 50.0202 27.9536C50.0073 27.6058 49.7883 27.2322 49.273 27.2322C48.5903 27.258 47.9204 27.2709 47.2377 27.2709C46.7997 27.2709 46.3617 27.2709 45.8851 27.258C45.3956 27.258 45.1637 27.6445 45.1509 28.0052C45.138 28.3916 45.3956 28.7909 45.898 28.8038Z" fill="#4A8FE0"/>
<path d="M53.4729 28.7909C53.7306 28.778 53.9882 28.778 54.233 28.778C54.8384 28.778 55.4567 28.8038 56.0622 28.8682H56.1524C56.5903 28.8682 56.8093 28.5332 56.8222 28.1983C56.8351 27.8119 56.5903 27.3739 56.0879 27.3224C55.4696 27.2579 54.8513 27.2322 54.233 27.2322C53.9753 27.2322 53.7177 27.2322 53.46 27.2451C52.9576 27.2708 52.7129 27.6702 52.7129 28.0566C52.7258 28.4044 52.9576 28.7909 53.4729 28.7909Z" fill="#4A8FE0"/>
<path d="M60.1326 31.0066C60.2615 31.2514 60.4933 31.3931 60.751 31.3931C61.0344 31.3931 61.3178 31.2256 61.4595 30.9808C61.6012 30.749 61.6012 30.4785 61.4595 30.2337C61.0988 29.5767 60.6479 28.9713 60.1198 28.4302C59.9781 28.2757 59.7977 28.1984 59.6045 28.1984C59.2953 28.1984 58.999 28.4045 58.8702 28.7136C58.7543 28.997 58.8058 29.2933 59.0377 29.5252C59.4628 29.9503 59.8235 30.4398 60.1326 31.0066Z" fill="#4A8FE0"/>
<path d="M60.9312 33.4928C60.7122 33.4928 60.5061 33.5701 60.3773 33.7118C60.2485 33.8535 60.184 34.0338 60.1969 34.2399L60.2871 36.4299C60.3129 36.9194 60.6993 37.177 61.0858 37.177C61.3048 37.177 61.5109 37.0997 61.6397 36.958C61.7685 36.8163 61.8329 36.636 61.8201 36.4299L61.7299 34.2399C61.7041 33.7376 61.3048 33.4928 60.9312 33.4928Z" fill="#4A8FE0"/>
<path d="M10.8725 63.8424L9.01756 63.7394C8.54093 63.7394 8.32194 64.113 8.30905 64.4608C8.29617 64.8472 8.55381 65.2594 9.0562 65.2852L10.9498 65.3883C11.4265 65.3883 11.6455 65.0147 11.6583 64.6669C11.6712 64.2804 11.4136 63.8682 10.8725 63.8424Z" fill="#4A8FE0"/>
<path d="M17.9706 63.778L14.5827 63.6621C14.0932 63.6621 13.8613 64.0486 13.8613 64.3964C13.8613 64.7828 14.1061 65.1951 14.6085 65.2079L17.9964 65.3239C18.4859 65.3239 18.7178 64.9374 18.7178 64.5896C18.7307 64.1903 18.473 63.7909 17.9706 63.778Z" fill="#4A8FE0"/>
<path d="M25.1191 63.6621H25.1062C24.591 63.7265 24.0628 63.7523 23.5475 63.7523C23.1224 63.7523 22.6973 63.7265 22.1821 63.6879C21.7441 63.6879 21.5251 64.0228 21.5122 64.3577C21.4993 64.7442 21.7441 65.1822 22.2465 65.2337C22.6845 65.2723 23.1096 65.2981 23.5475 65.2981C24.0757 65.2981 24.6038 65.2723 25.132 65.2079C25.6344 65.1435 25.8792 64.6927 25.8534 64.3062C25.8405 63.9197 25.5829 63.6621 25.1191 63.6621Z" fill="#4A8FE0"/>
<path d="M31.509 63.572L29.4093 63.6493C28.9069 63.675 28.6621 64.0744 28.6621 64.4608C28.6621 64.8086 28.894 65.1951 29.3835 65.1951L31.5219 65.1178C32.0243 65.092 32.269 64.6927 32.269 64.3062C32.2561 63.9455 32.0243 63.572 31.509 63.572Z" fill="#4A8FE0"/>
<path d="M38.5811 63.8167H36.2237C35.7342 63.8167 35.4766 64.2032 35.4766 64.5896C35.4766 64.9761 35.7342 65.3625 36.2237 65.3625H38.5811C39.0706 65.3625 39.3282 64.9761 39.3282 64.5896C39.3282 64.2032 39.0706 63.8167 38.5811 63.8167Z" fill="#4A8FE0"/>
<path d="M45.2162 63.6621C45.1518 63.6621 45.0873 63.675 45.0358 63.6879C44.3788 63.8296 43.6961 63.9069 42.9876 63.9069C42.614 63.9069 42.2533 63.8811 41.7896 63.8425C41.3645 63.8425 41.1455 64.1774 41.1326 64.4994C41.1069 64.8859 41.3645 65.3368 41.8669 65.3883C42.2405 65.4269 42.614 65.4527 43.0005 65.4527C43.812 65.4527 44.6365 65.3625 45.448 65.1822C45.8345 65.092 46.0535 64.7828 46.002 64.3964C45.9375 64.0357 45.6541 63.6621 45.2162 63.6621Z" fill="#4A8FE0"/>
<path d="M51.2701 63.7652C51.2701 63.7652 51.2572 63.7652 51.2701 63.7652C51.1026 63.778 50.948 63.7909 50.7935 63.7909C50.4199 63.7909 50.0592 63.7652 49.6985 63.7265C49.3249 63.7008 48.9514 63.6621 48.5778 63.6621C48.4103 63.6621 48.2557 63.6621 48.0883 63.6879C47.5859 63.7265 47.3411 64.1645 47.354 64.5638C47.3669 64.8988 47.5859 65.2337 48.1011 65.2337C48.1011 65.2337 48.1011 65.2337 48.114 65.2337C48.2686 65.2208 48.4232 65.2079 48.5778 65.2079C48.9514 65.2079 49.312 65.2337 49.6856 65.2723C50.0592 65.2981 50.4328 65.3368 50.8063 65.3368C50.9738 65.3368 51.1284 65.3368 51.2958 65.311C51.7982 65.2723 52.043 64.8344 52.0301 64.4479C52.0044 64.113 51.7854 63.7652 51.2701 63.7652Z" fill="#4A8FE0"/>
<path d="M56.6408 64.9633L56.7696 65.0921C57.2591 65.0921 57.491 64.7056 57.491 64.3578C57.491 63.9714 57.2462 63.5591 56.6279 63.5463C56.2157 63.5463 55.8163 63.6236 55.417 63.688C55.0434 63.7524 54.6441 63.8297 54.2576 63.8297V63.9456C54.2576 63.9456 54.2576 63.9456 54.2447 63.9456L54.1159 63.8168C53.6264 63.8168 53.3945 64.2032 53.3945 64.551C53.3945 64.9375 53.6393 65.3368 54.1417 65.3626H54.2576C54.6698 65.3626 55.0692 65.2853 55.4685 65.2209C55.8421 65.1565 56.2414 65.0792 56.6279 65.0792V64.9633H56.6408Z" fill="#4A8FE0"/>
<path d="M59.1277 64.6411H59.1922C60.3129 64.5509 61.2275 63.997 61.7685 63.0566C61.9102 62.8119 61.9231 62.5542 61.7814 62.3224C61.6397 62.0776 61.3434 61.9102 61.06 61.9102C60.8024 61.9102 60.5705 62.039 60.4288 62.2837C60.1454 62.7732 59.6945 63.0566 59.1664 63.1082C58.664 63.1468 58.4192 63.5719 58.4321 63.9584C58.4579 64.3577 58.7413 64.6411 59.1277 64.6411Z" fill="#4A8FE0"/>
<path d="M61.2786 60.2098C61.6522 60.2098 62.0644 59.965 62.1159 59.4755L62.3092 57.7107C62.3349 57.5046 62.2834 57.3114 62.1546 57.1826C62.0258 57.0409 61.8196 56.9507 61.6007 56.9507C61.2271 56.9507 60.8149 57.1954 60.7505 57.6849L60.5572 59.4498C60.5315 59.6559 60.583 59.8491 60.7118 59.9779C60.8664 60.1325 61.0596 60.2098 61.2786 60.2098Z" fill="#4A8FE0"/>
<path d="M66.0841 42.0593C66.3288 42.523 66.3932 43.1027 66.4448 43.6695C66.4705 43.9529 66.4963 44.2363 66.5478 44.4939C66.6122 44.8417 66.8699 45.0607 67.2177 45.0607C67.4753 45.0607 67.7201 44.9448 67.8746 44.7516C68.0292 44.5712 68.0808 44.3394 68.0292 44.1075C67.9777 43.837 67.9391 43.5536 67.9004 43.2702C67.7845 42.4071 67.6814 41.5053 67.0502 40.784C66.2515 39.8694 65.0664 39.7534 64.126 39.7534C63.9199 39.7534 63.7138 39.7663 63.5206 39.7663C63.0182 39.7921 62.7734 40.2043 62.7734 40.5907C62.7863 40.9385 63.0053 41.3121 63.4819 41.3121H63.6236C63.8169 41.2992 64.0359 41.2864 64.242 41.2864C64.9247 41.2864 65.7234 41.3765 66.0841 42.0593Z" fill="#4A8FE0"/>
<path d="M66.9858 46.0269C66.5993 46.0269 66.2129 46.2845 66.2129 46.8513C66.2129 47.3408 66.5993 47.5984 66.9858 47.5984C67.1919 47.5984 67.3723 47.534 67.514 47.4052C67.6814 47.2635 67.7587 47.0703 67.7587 46.774C67.7587 46.2845 67.3723 46.0269 66.9858 46.0269Z" fill="#4A8FE0"/>
<path d="M39.4569 8.82407C39.3023 8.5922 39.0834 8.46338 38.8128 8.46338C38.5166 8.46338 38.2203 8.63084 38.0786 8.88848C37.9498 9.12035 37.9755 9.37799 38.1301 9.60986C38.7484 10.5502 39.3539 11.5035 39.9464 12.4696C40.0881 12.7015 40.32 12.8303 40.5777 12.8303C40.8739 12.8303 41.1702 12.6629 41.3119 12.4052C41.4407 12.1734 41.4279 11.9157 41.2862 11.671C40.6807 10.7306 40.0753 9.77733 39.4569 8.82407Z" fill="#4A8FE0"/>
<path d="M42.1878 6.18323C41.8786 6.18323 41.5823 6.28628 41.286 6.47951L41.3633 6.58257H41.1443C40.2684 7.32971 40.2297 8.36026 41.0284 9.57116C41.4793 10.241 42.1878 11.1427 43.141 11.1427C43.3986 11.1427 43.6692 11.0783 43.9268 10.9366C44.3777 10.7048 44.6611 10.3569 44.7899 9.90608C44.9573 9.31352 44.7899 8.54061 44.3519 7.80634C44.0556 7.31683 43.2441 6.18323 42.1878 6.18323ZM42.1491 8.41179C41.943 7.98669 41.943 7.96092 42.1105 7.79346C42.1491 7.7677 42.1878 7.7677 42.2264 7.7677C42.5227 7.7677 42.8447 8.30873 43.038 8.63078C43.1539 8.81113 43.2827 9.01724 43.3214 9.22335C43.3471 9.33928 43.3342 9.44234 43.1668 9.54539C43.0895 9.54539 43.0122 9.50675 42.922 9.45522C42.6257 9.23623 42.3166 8.74672 42.1491 8.41179Z" fill="#4A8FE0"/>
<path d="M44.6873 4.56017C43.8113 5.30732 43.7727 6.33786 44.5714 7.53588C45.0222 8.20573 45.7307 9.10746 46.684 9.10746C46.9416 9.10746 47.2121 9.03017 47.4698 8.90135C47.9206 8.66948 48.204 8.32167 48.3329 7.87081C48.5003 7.27824 48.3329 6.50533 47.882 5.77106C47.5857 5.28155 46.787 4.14795 45.7178 4.14795C45.4087 4.14795 45.1124 4.251 44.8161 4.43135L44.6873 4.56017ZM45.6534 5.77106C45.6921 5.7453 45.7307 5.7453 45.7694 5.7453C46.0657 5.7453 46.3877 6.28634 46.5809 6.60838C46.6969 6.80161 46.8257 7.00772 46.8643 7.21383C46.8901 7.32977 46.8772 7.43282 46.7097 7.53588C46.6453 7.53588 46.5552 7.49723 46.4779 7.4457C46.1687 7.22671 45.8595 6.7372 45.6921 6.38939C45.4731 5.96429 45.4731 5.93853 45.6534 5.77106Z" fill="#4A8FE0"/>
</g>
<defs>
<clipPath id="clip0_844_3442">
<rect width="70.3865" height="70" fill="white"/>
</clipPath>
</defs>
</svg>
