<svg width="41" height="34" viewBox="0 0 41 34" fill="none" xmlns="http://www.w3.org/2000/svg">
<path d="M7.01465 12.6239C6.83779 12.6239 6.69434 12.4788 6.69434 12.2999V8.16329C6.69434 7.98444 6.83779 7.83936 7.01465 7.83936H24.664C24.8409 7.83936 24.9843 7.98443 24.9843 8.16329C24.9843 8.34215 24.8409 8.48723 24.664 8.48723H7.33504V12.2999C7.33504 12.3857 7.3014 12.4681 7.24123 12.529C7.18106 12.5898 7.0996 12.6238 7.01472 12.6238L7.01465 12.6239Z" fill="white"/>
<path d="M10.826 6.4144H7.75098C7.57412 6.4144 7.43066 6.26932 7.43066 6.09046V4.0173C7.43066 3.83844 7.57412 3.69336 7.75098 3.69336H10.826C10.9109 3.69336 10.9923 3.72737 11.0525 3.78823C11.1127 3.84908 11.1463 3.93145 11.1463 4.0173V6.09046C11.1463 6.1763 11.1127 6.25867 11.0525 6.31953C10.9923 6.38038 10.9109 6.4144 10.826 6.4144ZM8.07131 5.7665H10.5057V4.34123H8.07131V5.7665Z" fill="white"/>
<path d="M9.28809 8.48715C9.11123 8.48715 8.96777 8.34207 8.96777 8.16321V6.09005C8.96777 5.91119 9.11123 5.76611 9.28809 5.76611C9.46495 5.76611 9.60841 5.91119 9.60841 6.09005V8.16321C9.60841 8.24905 9.57477 8.33142 9.5146 8.39228C9.45443 8.45313 9.37297 8.48715 9.28809 8.48715Z" fill="white"/>
<path d="M22.1014 6.4144H19.0264C18.8495 6.4144 18.7061 6.26932 18.7061 6.09046V4.0173C18.7061 3.83844 18.8495 3.69336 19.0264 3.69336H22.1014C22.1863 3.69336 22.2677 3.72737 22.3279 3.78823C22.388 3.84908 22.4217 3.93145 22.4217 4.0173V6.09046C22.4217 6.1763 22.3881 6.25867 22.3279 6.31953C22.2677 6.38038 22.1863 6.4144 22.1014 6.4144ZM19.3467 5.7665H21.781V4.34123H19.3467V5.7665Z" fill="white"/>
<path d="M20.5635 8.48715C20.3866 8.48715 20.2432 8.34207 20.2432 8.16321V6.09005C20.2432 5.91119 20.3866 5.76611 20.5635 5.76611C20.7403 5.76611 20.8838 5.91119 20.8838 6.09005V8.16321C20.8838 8.24905 20.8502 8.33142 20.79 8.39228C20.7298 8.45313 20.6484 8.48715 20.5635 8.48715Z" fill="white"/>
<path d="M16.4627 6.4144H13.3877C13.2108 6.4144 13.0674 6.26932 13.0674 6.09046V4.0173C13.0674 3.83844 13.2108 3.69336 13.3877 3.69336H16.4627C16.5476 3.69336 16.629 3.72737 16.6892 3.78823C16.7494 3.84908 16.783 3.93145 16.783 4.0173V6.09046C16.783 6.1763 16.7494 6.25867 16.6892 6.31953C16.629 6.38038 16.5476 6.4144 16.4627 6.4144ZM13.708 5.7665H16.1424V4.34123H13.708V5.7665Z" fill="white"/>
<path d="M14.9248 8.48715C14.748 8.48715 14.6045 8.34207 14.6045 8.16321V6.09005C14.6045 5.91119 14.7479 5.76611 14.9248 5.76611C15.1017 5.76611 15.2451 5.91119 15.2451 6.09005V8.16321C15.2451 8.24905 15.2115 8.33142 15.1513 8.39228C15.0912 8.45313 15.0097 8.48715 14.9248 8.48715Z" fill="white"/>
<path d="M34.8502 32.3936H12.1719C11.995 32.3936 11.8516 32.2485 11.8516 32.0697C11.8516 31.8908 11.995 31.7457 12.1719 31.7457H34.5298V21.6731C34.5298 21.494 34.6732 21.3491 34.8501 21.3491C35.027 21.3491 35.1704 21.494 35.1704 21.6731V32.0697C35.1704 32.1556 35.1368 32.2379 35.0766 32.2988C35.0164 32.3597 34.935 32.3937 34.8501 32.3937L34.8502 32.3936Z" fill="white"/>
<path d="M6.11719 28.5821C5.94033 28.5821 5.79688 28.4371 5.79688 28.2582V21.6389C5.79688 21.46 5.94033 21.3149 6.11719 21.3149C6.29405 21.3149 6.43751 21.46 6.43751 21.6389V28.2582C6.43751 28.344 6.40387 28.4264 6.3437 28.4873C6.28353 28.5479 6.20207 28.5821 6.11719 28.5821Z" fill="white"/>
<path d="M34.4783 21.963C34.0237 21.963 33.5876 21.7807 33.2657 21.4559C32.9438 21.131 32.7623 20.6904 32.7614 20.2307C32.7614 20.0518 32.9049 19.9067 33.0817 19.9067C33.2586 19.9067 33.4021 20.0518 33.4021 20.2307C33.4041 20.6194 33.6109 20.9778 33.945 21.1705C34.2788 21.3633 34.689 21.3612 35.0212 21.165C35.3532 20.9688 35.5566 20.6085 35.5546 20.2196V14.383V14.3524C35.5546 14.342 35.6115 13.6107 35.1619 13.115C34.8737 12.7957 34.4225 12.6337 33.8249 12.6337H33.0772C32.9003 12.6337 32.7568 12.4886 32.7568 12.3098C32.7568 12.1309 32.9003 11.9858 33.0772 11.9858H33.8249C34.6128 11.9858 35.224 12.2205 35.6404 12.683C36.2412 13.3503 36.2048 14.2534 36.1952 14.3952V20.2195C36.1956 20.6809 36.0151 21.1236 35.6932 21.4505C35.3715 21.7772 34.9345 21.9616 34.4783 21.963L34.4783 21.963Z" fill="white"/>
<path d="M6.52412 21.963C6.06905 21.9637 5.63226 21.7816 5.30994 21.4567C4.98762 21.1319 4.80567 20.6908 4.80476 20.2307V14.3952C4.79515 14.2534 4.75854 13.3503 5.35959 12.683C5.776 12.2205 6.38711 11.9858 7.17507 11.9858H27.3869C27.5638 11.9858 27.7072 12.1309 27.7072 12.3098C27.7072 12.4886 27.5638 12.6337 27.3869 12.6337H7.17507C6.57746 12.6337 6.12693 12.7957 5.83683 13.115C5.38839 13.6106 5.44353 14.3459 5.44422 14.3538C5.4449 14.3617 5.44422 14.3739 5.44422 14.3829V20.2299H5.44399C5.4385 20.5233 5.55015 20.8063 5.75378 21.0153C5.95741 21.2242 6.23585 21.3413 6.52598 21.3399C6.8161 21.3385 7.09317 21.2189 7.29497 21.0078C7.49654 20.7971 7.60567 20.5129 7.59721 20.2195C7.59721 20.0407 7.74066 19.8956 7.91753 19.8956C8.09439 19.8956 8.23784 20.0407 8.23784 20.2195C8.2383 20.6802 8.05824 21.1226 7.73724 21.4493C7.41601 21.776 6.97967 21.9607 6.52416 21.963L6.52412 21.963Z" fill="white"/>
<path d="M9.31844 21.9629C8.86359 21.9629 8.42751 21.7806 8.1056 21.4557C7.78391 21.1309 7.60248 20.6903 7.60156 20.2306C7.60156 20.0517 7.74479 19.9066 7.92188 19.9066C8.09873 19.9066 8.24219 20.0517 8.24219 20.2306C8.2367 20.5237 8.34835 20.8069 8.55221 21.0159C8.75584 21.2246 9.03428 21.3414 9.32418 21.34C9.61429 21.3387 9.89159 21.2188 10.0932 21.0078C10.2947 20.797 10.4036 20.5126 10.3952 20.2194C10.3952 20.0406 10.5386 19.8955 10.7155 19.8955C10.8926 19.8955 11.0358 20.0406 11.0358 20.2194C11.0363 20.6808 10.8555 21.1235 10.5336 21.4504C10.2117 21.7771 9.77469 21.9615 9.31848 21.9629L9.31844 21.9629Z" fill="white"/>
<path d="M12.1143 21.9629C11.6597 21.9629 11.2234 21.7806 10.9017 21.4557C10.5798 21.1309 10.3984 20.6903 10.3975 20.2306C10.3975 20.0517 10.5409 19.9066 10.7178 19.9066C10.8946 19.9066 11.0381 20.0517 11.0381 20.2306C11.0399 20.6193 11.247 20.9777 11.5808 21.1704C11.9148 21.3632 12.3251 21.3611 12.657 21.1649C12.9893 20.9687 13.1924 20.6084 13.1906 20.2194C13.1906 20.0406 13.334 19.8955 13.5109 19.8955C13.6878 19.8955 13.8312 20.0406 13.8312 20.2194C13.8317 20.6808 13.6512 21.1235 13.3292 21.4504C13.0073 21.7771 12.5703 21.9615 12.1144 21.9629L12.1143 21.9629Z" fill="white"/>
<path d="M14.91 21.9629C14.4551 21.9632 14.0188 21.7808 13.6969 21.456C13.375 21.1311 13.1935 20.6906 13.1924 20.2306C13.1924 20.0517 13.3358 19.9066 13.5127 19.9066C13.6896 19.9066 13.833 20.0517 13.833 20.2306C13.8275 20.5237 13.9394 20.8069 14.143 21.0159C14.3467 21.2246 14.6251 21.3414 14.9152 21.34C15.2054 21.3387 15.4824 21.2188 15.684 21.0078C15.8858 20.797 15.9947 20.5126 15.9862 20.2194C15.9862 20.0406 16.1297 19.8955 16.3065 19.8955C16.4834 19.8955 16.6269 20.0406 16.6269 20.2194C16.6271 20.6808 16.4466 21.1232 16.1249 21.4501C15.803 21.7769 15.366 21.9613 14.91 21.9629L14.91 21.9629Z" fill="white"/>
<path d="M17.7052 21.9629C17.2505 21.9629 16.8145 21.7806 16.4925 21.4557C16.1706 21.1309 15.9894 20.6903 15.9883 20.2306C15.9883 20.0517 16.1317 19.9066 16.3086 19.9066C16.4857 19.9066 16.6289 20.0517 16.6289 20.2306C16.631 20.6193 16.8378 20.9777 17.1718 21.1704C17.5059 21.3632 17.9161 21.3611 18.2481 21.1649C18.5801 20.9687 18.7835 20.6084 18.7814 20.2194C18.7814 20.0406 18.9249 19.8955 19.1017 19.8955C19.2788 19.8955 19.422 20.0406 19.422 20.2194C19.4227 20.6808 19.2422 21.1235 18.9203 21.4504C18.5984 21.7771 18.1614 21.9615 17.7052 21.9629L17.7052 21.9629Z" fill="white"/>
<path d="M20.4998 21.9629C20.0449 21.9632 19.6086 21.7808 19.2867 21.456C18.9648 21.1311 18.7834 20.6906 18.7822 20.2306C18.7822 20.0517 18.9257 19.9066 19.1025 19.9066C19.2794 19.9066 19.4229 20.0517 19.4229 20.2306C19.4174 20.5237 19.5292 20.8069 19.7329 21.0159C19.9365 21.2246 20.2149 21.3414 20.5051 21.34C20.7952 21.3387 21.0723 21.2188 21.2738 21.0078C21.4756 20.797 21.5845 20.5126 21.5761 20.2194C21.5761 20.0406 21.7195 19.8955 21.8964 19.8955C22.0732 19.8955 22.2167 20.0406 22.2167 20.2194C22.2171 20.6808 22.0366 21.1235 21.7147 21.4504C21.393 21.7771 20.956 21.9615 20.4998 21.9629L20.4998 21.9629Z" fill="white"/>
<path d="M23.296 21.9629C22.8413 21.9629 22.4053 21.7806 22.0834 21.4557C21.7614 21.1309 21.58 20.6903 21.5791 20.2306C21.5791 20.0517 21.7226 19.9066 21.8994 19.9066C22.0763 19.9066 22.2197 20.0517 22.2197 20.2306C22.2142 20.5237 22.3261 20.8069 22.5297 21.0159C22.7334 21.2246 23.0118 21.3414 23.3019 21.34C23.5921 21.3387 23.8691 21.2188 24.0707 21.0078C24.2723 20.797 24.3812 20.5126 24.3729 20.2194C24.3729 20.0406 24.5164 19.8955 24.6932 19.8955C24.8701 19.8955 25.0136 20.0406 25.0136 20.2194C25.0138 20.6808 24.8333 21.1235 24.5111 21.4504C24.1892 21.7771 23.7522 21.9615 23.296 21.9629L23.296 21.9629Z" fill="white"/>
<path d="M26.0909 21.9629C25.6363 21.9629 25.2002 21.7806 24.8783 21.4557C24.5564 21.1309 24.3752 20.6903 24.374 20.2306C24.374 20.0517 24.5175 19.9066 24.6943 19.9066C24.8712 19.9066 25.0147 20.0517 25.0147 20.2306C25.0167 20.6193 25.2235 20.9777 25.5576 21.1704C25.8914 21.3632 26.3019 21.3611 26.6338 21.1649C26.9658 20.9687 27.1692 20.6084 27.1672 20.2194C27.1672 20.0406 27.3106 19.8955 27.4875 19.8955C27.6643 19.8955 27.8078 20.0406 27.8078 20.2194C27.8083 20.6808 27.628 21.1235 27.306 21.4504C26.9841 21.7771 26.5471 21.9615 26.0909 21.9629L26.0909 21.9629Z" fill="white"/>
<path d="M28.8873 21.9629C28.4326 21.9632 27.9963 21.7808 27.6742 21.456C27.3523 21.1311 27.1708 20.6906 27.1699 20.2306C27.1699 20.0517 27.3131 19.9066 27.4902 19.9066C27.6671 19.9066 27.8106 20.0517 27.8106 20.2306C27.8051 20.5237 27.9167 20.8069 28.1206 21.0159C28.3242 21.2246 28.6026 21.3414 28.8925 21.34C29.1826 21.3387 29.4599 21.2188 29.6615 21.0078C29.8631 20.797 29.972 20.5126 29.9635 20.2194C29.9635 20.0406 30.107 19.8955 30.2838 19.8955C30.4609 19.8955 30.6042 20.0406 30.6042 20.2194C30.6046 20.6808 30.4241 21.1232 30.1022 21.4501C29.7803 21.7769 29.3435 21.9613 28.8873 21.9629L28.8873 21.9629Z" fill="white"/>
<path d="M31.6827 21.9629C31.2281 21.9629 30.7918 21.7806 30.4701 21.4557C30.1482 21.1309 29.9667 20.6903 29.9658 20.2306C29.9658 20.0517 30.1093 19.9066 30.2861 19.9066C30.463 19.9066 30.6065 20.0517 30.6065 20.2306C30.6083 20.6193 30.8153 20.9777 31.1492 21.1704C31.4832 21.3632 31.8934 21.3611 32.2254 21.1649C32.5576 20.9687 32.7608 20.6084 32.759 20.2194C32.759 20.0406 32.9024 19.8955 33.0793 19.8955C33.2561 19.8955 33.3996 20.0406 33.3996 20.2194C33.4001 20.6808 33.2195 21.1235 32.8976 21.4504C32.5757 21.7771 32.1387 21.9615 31.6827 21.9629L31.6827 21.9629Z" fill="white"/>
<path d="M8.13575 27.0815C7.95889 27.0815 7.81543 26.9364 7.81543 26.7576V21.0564C7.81543 20.8775 7.95888 20.7324 8.13575 20.7324C8.31261 20.7324 8.45606 20.8775 8.45606 21.0564V26.7576C8.45606 26.8434 8.42243 26.9258 8.36225 26.9866C8.30208 27.0475 8.22063 27.0815 8.13575 27.0815Z" fill="white"/>
<path d="M32.7988 32.3942C32.622 32.3942 32.4785 32.2491 32.4785 32.0703V21.0564C32.4785 20.8775 32.622 20.7324 32.7988 20.7324C32.9757 20.7324 33.1191 20.8775 33.1191 21.0564V32.0703C33.1191 32.1561 33.0855 32.2385 33.0253 32.2993C32.9652 32.3602 32.8837 32.3942 32.7988 32.3942Z" fill="white"/>
<path d="M17.4247 28.1825H10.3779C10.2011 28.1825 10.0576 28.0374 10.0576 27.8586C10.0576 27.6797 10.2011 27.5347 10.3779 27.5347H17.4247C17.6015 27.5347 17.745 27.6797 17.745 27.8586C17.745 28.0374 17.6015 28.1825 17.4247 28.1825Z" fill="white"/>
<path d="M25.5611 28.1825H23.5752C23.3983 28.1825 23.2549 28.0374 23.2549 27.8586C23.2549 27.6797 23.3983 27.5347 23.5752 27.5347H25.5611C25.738 27.5347 25.8814 27.6797 25.8814 27.8586C25.8814 28.0374 25.738 28.1825 25.5611 28.1825Z" fill="white"/>
<path d="M32.7996 28.1825H29.7246C29.5478 28.1825 29.4043 28.0374 29.4043 27.8586C29.4043 27.6797 29.5478 27.5347 29.7246 27.5347H32.7996C32.9765 27.5347 33.12 27.6797 33.12 27.8586C33.12 28.0374 32.9765 28.1825 32.7996 28.1825Z" fill="white"/>
<path d="M23.5738 32.3942H17.4238C17.247 32.3942 17.1035 32.2491 17.1035 32.0703V21.6399C17.1035 21.461 17.247 21.3159 17.4238 21.3159C17.6007 21.3159 17.7441 21.461 17.7441 21.6399V31.7462H23.2535V21.6399C23.2535 21.461 23.3969 21.3159 23.5738 21.3159C23.7506 21.3159 23.8941 21.461 23.8941 21.6399V32.0703C23.8941 32.1561 23.8605 32.2385 23.8003 32.2993C23.7401 32.3602 23.6587 32.3942 23.5738 32.3942H23.5738Z" fill="white"/>
<path d="M22.166 26.8222C21.9892 26.8222 21.8457 26.6771 21.8457 26.4982V25.073C21.8457 24.8941 21.9892 24.749 22.166 24.749C22.3429 24.749 22.4863 24.8941 22.4863 25.073V26.4982C22.4863 26.5841 22.4527 26.6664 22.3925 26.7273C22.3324 26.7882 22.2509 26.8222 22.166 26.8222Z" fill="white"/>
<path d="M5.06049 30.3209C4.90491 30.3207 4.77197 30.2076 4.74521 30.0528C4.73949 30.0178 4.60496 29.1995 5.04882 28.6113H5.04905C5.25771 28.3385 5.55811 28.1529 5.8933 28.0897C6.12575 27.3688 6.90231 26.3405 8.61277 26.4999C10.0766 26.6346 10.7115 27.6272 10.8984 28.3068C11.1174 28.3366 11.331 28.397 11.5333 28.4861C12.1515 28.7654 12.4942 29.3017 12.4942 29.997C12.4942 30.1759 12.3508 30.321 12.1739 30.321C11.9971 30.321 11.8536 30.1759 11.8536 29.997C11.8536 29.5546 11.6614 29.2533 11.277 29.0777C11.0743 28.9896 10.857 28.9403 10.6364 28.9319C10.4739 28.9331 10.3362 28.8112 10.3161 28.648C10.309 28.5944 10.115 27.2875 8.55506 27.145C7.79978 27.0756 7.22122 27.2674 6.8357 27.7158C6.65724 27.9238 6.53003 28.1712 6.46413 28.4382C6.43645 28.5786 6.32068 28.6841 6.17974 28.6973C5.89535 28.7246 5.69149 28.8269 5.55765 29.0018C5.28607 29.3614 5.37507 29.9334 5.37644 29.9386H5.37621C5.39109 30.0233 5.37187 30.1105 5.32291 30.1809C5.27394 30.2512 5.19935 30.2991 5.11562 30.3137C5.09754 30.3176 5.07901 30.3202 5.06048 30.3209L5.06049 30.3209Z" fill="white"/>
<path d="M12.1707 32.3939H5.05957C4.88272 32.3939 4.73926 32.2488 4.73926 32.0699V29.9968C4.73926 29.8179 4.88271 29.6729 5.05957 29.6729H12.1707C12.2556 29.6729 12.3371 29.7069 12.3972 29.7677C12.4574 29.8286 12.491 29.9109 12.491 29.9968V32.0699C12.491 32.1558 12.4574 32.2381 12.3972 32.299C12.3371 32.3598 12.2556 32.3939 12.1707 32.3939ZM5.37996 31.746H11.8503V30.3207H5.37996V31.746Z" fill="white"/>
<path d="M29.6615 30.2552H25.5615C25.3847 30.2552 25.2412 30.1101 25.2412 29.9312V25.7849C25.2412 25.606 25.3847 25.4609 25.5615 25.4609H29.6615C29.7464 25.4609 29.8279 25.495 29.888 25.5558C29.9482 25.6167 29.9818 25.699 29.9818 25.7849V29.9312C29.9818 30.0171 29.9482 30.0994 29.888 30.1603C29.8279 30.2212 29.7464 30.2552 29.6615 30.2552ZM25.8819 29.6073H29.3412V26.1088H25.8819V29.6073Z" fill="white"/>
<path d="M25.5615 32.3944C25.3847 32.3944 25.2412 32.2493 25.2412 32.0704V29.6086C25.2412 29.4297 25.3847 29.2847 25.5615 29.2847C25.7384 29.2847 25.8818 29.4297 25.8818 29.6086V32.0704C25.8818 32.1563 25.8482 32.2387 25.788 32.2995C25.7279 32.3604 25.6464 32.3944 25.5615 32.3944Z" fill="white"/>
<path d="M29.6611 32.3944C29.4843 32.3944 29.3408 32.2493 29.3408 32.0704V29.6086C29.3408 29.4297 29.4843 29.2847 29.6611 29.2847C29.838 29.2847 29.9814 29.4297 29.9814 29.6086V32.0704C29.9814 32.1563 29.9478 32.2387 29.8876 32.2995C29.8275 32.3604 29.746 32.3944 29.6611 32.3944Z" fill="white"/>
<path d="M30.2544 16.1278C30.1471 16.1269 30.0462 16.0758 29.9815 15.9892L25.8847 10.7764L25.879 10.7686L25.4875 10.2369C24.6227 9.04201 24.2267 7.56556 24.3754 6.09236C24.5243 4.6194 25.2077 3.25449 26.2936 2.26138C27.3794 1.26803 28.7909 0.717161 30.2549 0.714851C31.7192 0.712537 33.1323 1.25906 34.2211 2.24888C35.3099 3.23873 35.9977 4.60157 36.151 6.07406C36.3042 7.54654 35.9126 9.02442 35.0514 10.222L35.0468 10.2278L34.6322 10.7766L34.6284 10.7824L30.5343 15.9769C30.4799 16.0581 30.3936 16.1122 30.2973 16.1252C30.2831 16.127 30.2689 16.128 30.2545 16.1277L30.2544 16.1278ZM26.3896 10.3773L30.2533 15.2939L34.1259 10.3806L34.5359 9.83775H34.5356C35.3028 8.76947 35.6515 7.45176 35.5142 6.13868C35.3767 4.82583 34.7633 3.61083 33.7921 2.72861C32.8208 1.84632 31.5608 1.35907 30.2553 1.36138C28.9499 1.36346 27.6913 1.85491 26.723 2.74039C25.7547 3.62587 25.1452 4.84294 25.012 6.15627C24.8791 7.46959 25.2319 8.78635 26.0025 9.85214L26.3896 10.3773Z" fill="white"/>
<path d="M30.2633 9.49046C29.5252 9.49069 28.8175 9.19452 28.2957 8.66676C27.7738 8.13921 27.4805 7.42357 27.4805 6.67734C27.4802 5.93112 27.7733 5.21523 28.295 4.68746C28.8169 4.15967 29.5245 3.86328 30.2624 3.86328C31.0003 3.86305 31.7082 4.15945 32.2298 4.68722C32.7517 5.215 33.0448 5.93065 33.0448 6.67687C33.0441 7.42286 32.7508 8.1378 32.2293 8.66534C31.7077 9.19265 31.0007 9.48951 30.2633 9.49046ZM30.2633 4.51094V4.51117C29.6952 4.51094 29.1505 4.73885 28.7487 5.14515C28.347 5.55122 28.1211 6.10188 28.1211 6.67645C28.1209 7.25097 28.3465 7.80188 28.748 8.20817C29.1495 8.61445 29.6943 8.84262 30.2624 8.84262C30.8305 8.84285 31.3753 8.6147 31.7768 8.2084C32.1785 7.80233 32.4041 7.25143 32.4041 6.67692C32.4034 6.10287 32.1778 5.55244 31.7765 5.14633C31.375 4.74049 30.8309 4.51188 30.2633 4.51117L30.2633 4.51094Z" fill="white"/>
<path d="M8.19981 9.52385H8.13575C7.95889 9.52385 7.81543 9.37877 7.81543 9.19991C7.81543 9.02105 7.95888 8.87598 8.13575 8.87598H8.19981C8.37667 8.87598 8.52013 9.02105 8.52013 9.19991C8.52013 9.37877 8.37667 9.52385 8.19981 9.52385Z" fill="white"/>
<path d="M8.19981 11.5966H8.13575C7.95889 11.5966 7.81543 11.4515 7.81543 11.2727C7.81543 11.0938 7.95888 10.9487 8.13575 10.9487H8.19981C8.37667 10.9487 8.52013 11.0938 8.52013 11.2727C8.52013 11.4515 8.37667 11.5966 8.19981 11.5966Z" fill="white"/>
<path d="M25.6885 10.5605H10.3135C10.1366 10.5605 9.99316 10.4154 9.99316 10.2365C9.99316 10.0577 10.1366 9.9126 10.3135 9.9126H25.6885C25.8653 9.9126 26.0088 10.0577 26.0088 10.2365C26.0088 10.4154 25.8653 10.5605 25.6885 10.5605Z" fill="white"/>
<path d="M33.3749 19.0478H33.3108C33.134 19.0478 32.9905 18.9027 32.9905 18.7238C32.9905 18.545 33.134 18.3999 33.3108 18.3999H33.3749C33.5518 18.3999 33.6952 18.545 33.6952 18.7238C33.6952 18.9027 33.5518 19.0478 33.3749 19.0478ZM32.0296 19.0478H31.9655C31.7887 19.0478 31.6452 18.9027 31.6452 18.7238C31.6452 18.545 31.7886 18.3999 31.9655 18.3999H32.0296C32.2064 18.3999 32.3499 18.545 32.3499 18.7238C32.3499 18.9027 32.2064 19.0478 32.0296 19.0478ZM30.6842 19.0478H30.6202C30.4433 19.0478 30.2999 18.9027 30.2999 18.7238C30.2999 18.545 30.4433 18.3999 30.6202 18.3999H30.6842C30.8611 18.3999 31.0046 18.545 31.0046 18.7238C31.0046 18.9027 30.8611 19.0478 30.6842 19.0478ZM29.3389 19.0478H29.2749C29.098 19.0478 28.9545 18.9027 28.9545 18.7238C28.9545 18.545 29.098 18.3999 29.2749 18.3999H29.3389C29.5158 18.3999 29.6592 18.545 29.6592 18.7238C29.6592 18.9027 29.5158 19.0478 29.3389 19.0478ZM27.9936 19.0478H27.9295C27.7527 19.0478 27.6092 18.9027 27.6092 18.7238C27.6092 18.545 27.7527 18.3999 27.9295 18.3999H27.9936C28.1705 18.3999 28.3139 18.545 28.3139 18.7238C28.3139 18.9027 28.1705 19.0478 27.9936 19.0478ZM26.6483 19.0478H26.5842C26.4073 19.0478 26.2639 18.9027 26.2639 18.7238C26.2639 18.545 26.4073 18.3999 26.5842 18.3999H26.6483C26.8251 18.3999 26.9686 18.545 26.9686 18.7238C26.9686 18.9027 26.8251 19.0478 26.6483 19.0478ZM25.3029 19.0478H25.2389C25.062 19.0478 24.9186 18.9027 24.9186 18.7238C24.9186 18.545 25.062 18.3999 25.2389 18.3999H25.3029C25.4798 18.3999 25.6233 18.545 25.6233 18.7238C25.6233 18.9027 25.4798 19.0478 25.3029 19.0478ZM23.9576 19.0478H23.8935C23.7167 19.0478 23.5732 18.9027 23.5732 18.7238C23.5732 18.545 23.7167 18.3999 23.8935 18.3999H23.9576C24.1345 18.3999 24.2779 18.545 24.2779 18.7238C24.2779 18.9027 24.1345 19.0478 23.9576 19.0478ZM22.6123 19.0478H22.5482C22.3714 19.0478 22.2279 18.9027 22.2279 18.7238C22.2279 18.545 22.3714 18.3999 22.5482 18.3999H22.6123C22.7891 18.3999 22.9326 18.545 22.9326 18.7238C22.9326 18.9027 22.7892 19.0478 22.6123 19.0478ZM21.267 19.0478H21.2029C21.026 19.0478 20.8826 18.9027 20.8826 18.7238C20.8826 18.545 21.026 18.3999 21.2029 18.3999H21.267C21.4438 18.3999 21.5873 18.545 21.5873 18.7238C21.5873 18.9027 21.4438 19.0478 21.267 19.0478ZM19.9216 19.0478H19.8576C19.6807 19.0478 19.5373 18.9027 19.5373 18.7238C19.5373 18.545 19.6807 18.3999 19.8576 18.3999H19.9216C20.0985 18.3999 20.2419 18.545 20.2419 18.7238C20.2419 18.9027 20.0985 19.0478 19.9216 19.0478ZM18.5763 19.0478H18.5122C18.3354 19.0478 18.1919 18.9027 18.1919 18.7238C18.1919 18.545 18.3354 18.3999 18.5122 18.3999H18.5763C18.7532 18.3999 18.8966 18.545 18.8966 18.7238C18.8966 18.9027 18.7532 19.0478 18.5763 19.0478ZM17.231 19.0478H17.1669C16.9901 19.0478 16.8466 18.9027 16.8466 18.7238C16.8466 18.545 16.9901 18.3999 17.1669 18.3999H17.231C17.4078 18.3999 17.5513 18.545 17.5513 18.7238C17.5513 18.9027 17.4078 19.0478 17.231 19.0478ZM15.8857 19.0478H15.8216C15.6447 19.0478 15.5013 18.9027 15.5013 18.7238C15.5013 18.545 15.6447 18.3999 15.8216 18.3999H15.8857C16.0625 18.3999 16.206 18.545 16.206 18.7238C16.206 18.9027 16.0625 19.0478 15.8857 19.0478ZM14.5403 19.0478H14.4763C14.2994 19.0478 14.1559 18.9027 14.1559 18.7238C14.1559 18.545 14.2994 18.3999 14.4763 18.3999H14.5403C14.7172 18.3999 14.8606 18.545 14.8606 18.7238C14.8606 18.9027 14.7172 19.0478 14.5403 19.0478ZM13.195 19.0478H13.1309C12.9541 19.0478 12.8106 18.9027 12.8106 18.7238C12.8106 18.545 12.9541 18.3999 13.1309 18.3999H13.195C13.3719 18.3999 13.5153 18.545 13.5153 18.7238C13.5153 18.9027 13.3719 19.0478 13.195 19.0478ZM11.8497 19.0478H11.7856C11.6088 19.0478 11.4653 18.9027 11.4653 18.7238C11.4653 18.545 11.6087 18.3999 11.7856 18.3999H11.8497C12.0265 18.3999 12.17 18.545 12.17 18.7238C12.17 18.9027 12.0265 19.0478 11.8497 19.0478ZM10.5043 19.0478H10.4403C10.2634 19.0478 10.12 18.9027 10.12 18.7238C10.12 18.545 10.2634 18.3999 10.4403 18.3999H10.5043C10.6812 18.3999 10.8247 18.545 10.8247 18.7238C10.8247 18.9027 10.6812 19.0478 10.5043 19.0478ZM9.15902 19.0478H9.09495C8.9181 19.0478 8.77464 18.9027 8.77464 18.7238C8.77464 18.545 8.91809 18.3999 9.09495 18.3999H9.15902C9.33587 18.3999 9.47933 18.545 9.47933 18.7238C9.47933 18.9027 9.33588 19.0478 9.15902 19.0478ZM7.81369 19.0478H7.74963C7.57277 19.0478 7.42931 18.9027 7.42931 18.7238C7.42931 18.545 7.57276 18.3999 7.74963 18.3999H7.81369C7.99055 18.3999 8.13401 18.545 8.13401 18.7238C8.13401 18.9027 7.99055 19.0478 7.81369 19.0478ZM6.46837 19.0478H6.4043C6.22744 19.0478 6.08398 18.9027 6.08398 18.7238C6.08398 18.545 6.22744 18.3999 6.4043 18.3999H6.46837C6.64522 18.3999 6.78868 18.545 6.78868 18.7238C6.78868 18.9027 6.64523 19.0478 6.46837 19.0478Z" fill="white"/>
<path d="M28.3146 27.5341H26.9053C26.7284 27.5341 26.585 27.389 26.585 27.2102C26.585 27.0313 26.7284 26.8862 26.9053 26.8862H28.3146C28.4915 26.8862 28.6349 27.0313 28.6349 27.2102C28.6349 27.389 28.4915 27.5341 28.3146 27.5341Z" fill="white"/>
<path d="M28.3146 28.8949H26.9053C26.7284 28.8949 26.585 28.7499 26.585 28.571C26.585 28.3921 26.7284 28.2471 26.9053 28.2471H28.3146C28.4915 28.2471 28.6349 28.3921 28.6349 28.571C28.6349 28.7499 28.4915 28.8949 28.3146 28.8949Z" fill="white"/>
<path d="M12.4989 17.0393C12.4513 17.0391 12.4046 17.0285 12.3616 17.0083C12.2847 16.9713 12.2257 16.9051 12.1971 16.8239C12.1687 16.7429 12.1733 16.6539 12.2099 16.5761C12.5904 15.7649 13.1875 15.2804 13.8902 15.2156C14.5775 15.1508 15.0761 15.5168 15.5156 15.8394C15.8064 16.0532 16.0807 16.2547 16.39 16.331V16.3313C16.6516 16.3979 16.927 16.3847 17.1812 16.2929C17.1053 16.2334 17.0334 16.1684 16.9666 16.0985C16.5616 15.6749 16.4175 15.1357 16.5713 14.62C16.7488 14.0253 17.1535 13.6237 17.6539 13.5452V13.5454C17.8662 13.5107 18.0838 13.538 18.2815 13.6238C18.4789 13.7099 18.6482 13.8508 18.7693 14.0306C19.0813 14.4925 19.0505 15.1255 18.6835 15.7662C18.6036 15.906 18.5123 16.0386 18.4105 16.1628C18.8768 16.2736 19.4662 16.282 20.1555 16.098C20.5482 15.993 20.9026 15.7968 21.1979 15.6193C21.3446 15.5304 21.4848 15.4249 21.6336 15.3155V15.3153C21.8269 15.1642 22.0307 15.0274 22.2433 14.9059C23.1491 14.4154 23.9409 14.5068 24.4726 15.1651L24.5481 15.259C24.8044 15.5758 25.0222 15.85 25.3636 15.9839C25.871 16.1829 26.5021 16.0959 27.3495 15.7104H27.3497C27.4275 15.6739 27.5163 15.6704 27.5966 15.7007C27.6769 15.731 27.7419 15.7924 27.7769 15.8715C27.8121 15.9504 27.8144 16.0404 27.7835 16.1211C27.7526 16.2019 27.6911 16.2669 27.6124 16.3014C26.9717 16.5915 26.0223 16.9377 25.1318 16.5878C24.6321 16.3935 24.336 16.0228 24.0505 15.6672L23.9768 15.5751C23.8558 15.4254 23.486 14.9693 22.5457 15.4793C22.3599 15.5859 22.1819 15.706 22.0133 15.8388C21.8588 15.9536 21.6994 16.0728 21.5257 16.1776C21.1512 16.4164 20.7453 16.601 20.3202 16.7264C19.4329 16.9648 18.552 16.9344 17.8544 16.6695V16.6693C17.379 16.99 16.7928 17.0955 16.2373 16.9601C15.8049 16.8539 15.4686 16.6045 15.138 16.3634C14.7401 16.0712 14.3962 15.8178 13.9489 15.8606C13.3165 15.9203 12.9496 16.5085 12.7876 16.8544V16.8546C12.7345 16.9673 12.6221 17.0393 12.4988 17.0393L12.4989 17.0393ZM17.8302 14.1783H17.83C17.8039 14.1783 17.7778 14.1804 17.752 14.1841C17.4957 14.2243 17.2907 14.4504 17.1844 14.806C17.0741 15.176 17.2555 15.4675 17.4271 15.6483C17.5285 15.7524 17.6435 15.8419 17.7691 15.9139C17.9101 15.7755 18.0313 15.618 18.1293 15.4456C18.3681 15.0291 18.4086 14.648 18.2407 14.4C18.1494 14.2605 17.9954 14.1765 17.83 14.1758L17.8302 14.1783Z" fill="white"/>
</svg>
