<svg width="40" height="40" viewBox="0 0 40 40" fill="none" xmlns="http://www.w3.org/2000/svg">
<circle cx="20" cy="20" r="20" fill="#E1EBF9"/>
<path d="M25.6417 17.564H24.3596C24.3591 17.0541 24.1563 16.5653 23.7958 16.2048C23.4352 15.8442 22.9464 15.6414 22.4365 15.6409V14.3589C23.2863 14.3599 24.1009 14.6979 24.7018 15.2988C25.3026 15.8996 25.6406 16.7143 25.6417 17.564Z" fill="#1D61B1" fill-opacity="0.71"/>
<path d="M28.2058 17.5642H26.9237C26.9223 16.3745 26.4492 15.234 25.6079 14.3927C24.7667 13.5515 23.6262 13.0783 22.4365 13.077V11.7949C23.9661 11.7966 25.4325 12.405 26.5141 13.4866C27.5957 14.5681 28.2041 16.0346 28.2058 17.5642Z" fill="#1D61B1" fill-opacity="0.71"/>
<path d="M26.9241 27.8205H26.8151C14.2189 27.0961 12.4305 16.4679 12.1805 13.2243C12.1414 12.7158 12.3059 12.2126 12.6378 11.8254C12.9697 11.4382 13.4418 11.1987 13.9503 11.1596C14.0012 11.1557 14.0523 11.1538 14.1035 11.1538H17.4817C17.7385 11.1536 17.9894 11.2304 18.202 11.3744C18.4146 11.5184 18.579 11.723 18.6741 11.9615L19.6484 14.3589C19.7422 14.592 19.7655 14.8474 19.7154 15.0936C19.6652 15.3398 19.5439 15.5658 19.3664 15.7436L18.001 17.1218C18.2134 18.3341 18.7935 19.4519 19.6627 20.3234C20.5319 21.1949 21.6481 21.7779 22.8599 21.9936L24.251 20.6153C24.4314 20.4398 24.6596 20.3213 24.9069 20.2745C25.1543 20.2278 25.4099 20.2549 25.642 20.3525L28.0587 21.3205C28.2936 21.4185 28.4941 21.5842 28.6345 21.7965C28.7749 22.0089 28.8489 22.2582 28.8471 22.5128V25.8974C28.8471 26.4074 28.6445 26.8966 28.2839 27.2572C27.9232 27.6179 27.4341 27.8205 26.9241 27.8205ZM14.1035 12.4359C14.0194 12.4356 13.936 12.4519 13.8581 12.4839C13.7802 12.5159 13.7094 12.5629 13.6497 12.6223C13.59 12.6816 13.5426 12.7521 13.5101 12.8298C13.4777 12.9075 13.4608 12.9908 13.4606 13.075C13.4606 13.0929 13.4612 13.1106 13.4625 13.1282C13.7574 16.923 15.6484 25.8974 26.8856 26.5384C27.0553 26.5486 27.222 26.491 27.3492 26.3782C27.4764 26.2654 27.5536 26.1068 27.5638 25.9371L27.5651 25.8974V22.5128L25.1484 21.5448L23.3087 23.3718L23.001 23.3333C17.4241 22.6346 16.6676 17.0577 16.6676 17L16.6292 16.6923L18.4497 14.8525L17.4882 12.4359H14.1035Z" fill="#1D61B1" fill-opacity="0.71"/>
</svg>
