<svg width="32" height="25" viewBox="0 0 32 25" fill="none" xmlns="http://www.w3.org/2000/svg">
<path d="M10.334 18.4387C10.5497 18.4385 10.7605 18.3753 10.9397 18.257C11.119 18.1386 11.2587 17.9705 11.3412 17.7738C11.4236 17.5771 11.4451 17.3607 11.4029 17.152C11.3608 16.9432 11.2569 16.7515 11.1043 16.601C10.9517 16.4506 10.7574 16.3481 10.5459 16.3067C10.3343 16.2652 10.115 16.2865 9.91578 16.368C9.71653 16.4495 9.54623 16.5875 9.42641 16.7644C9.3066 16.9414 9.24265 17.1495 9.24265 17.3623C9.243 17.6478 9.35812 17.9215 9.56273 18.1233C9.76733 18.3251 10.0447 18.4385 10.334 18.4387ZM10.334 16.9439C10.4178 16.9441 10.4997 16.9687 10.5694 17.0148C10.639 17.0608 10.6932 17.1262 10.7252 17.2027C10.7572 17.2791 10.7655 17.3633 10.7491 17.4444C10.7327 17.5255 10.6922 17.6 10.6329 17.6584C10.5736 17.7169 10.498 17.7567 10.4158 17.7728C10.3336 17.7889 10.2483 17.7805 10.1709 17.7489C10.0935 17.7172 10.0273 17.6635 9.98073 17.5947C9.93417 17.5259 9.90932 17.4451 9.90932 17.3623C9.90967 17.2514 9.95455 17.145 10.0341 17.0666C10.1137 16.9882 10.2215 16.9441 10.334 16.9439ZM23.6153 16.286C23.3996 16.286 23.1887 16.3492 23.0094 16.4674C22.83 16.5857 22.6902 16.7538 22.6077 16.9505C22.5251 17.1471 22.5035 17.3635 22.5456 17.5723C22.5877 17.7811 22.6916 17.9729 22.8441 18.1234C22.9966 18.2739 23.191 18.3765 23.4025 18.418C23.6141 18.4595 23.8334 18.4382 24.0327 18.3567C24.232 18.2753 24.4023 18.1373 24.5222 17.9603C24.642 17.7833 24.706 17.5752 24.706 17.3623C24.7058 17.2208 24.6774 17.0807 24.6223 16.9501C24.5673 16.8194 24.4867 16.7007 24.3852 16.6007C24.2837 16.5008 24.1632 16.4216 24.0306 16.3676C23.8981 16.3136 23.7561 16.2859 23.6126 16.286H23.6153ZM23.6153 17.7808C23.5315 17.7808 23.4495 17.7562 23.3798 17.7103C23.31 17.6643 23.2557 17.5989 23.2236 17.5225C23.1915 17.446 23.1831 17.3619 23.1995 17.2807C23.2158 17.1996 23.2562 17.125 23.3155 17.0665C23.3748 17.008 23.4504 16.9681 23.5326 16.952C23.6148 16.9358 23.7001 16.9441 23.7776 16.9758C23.855 17.0074 23.9213 17.0611 23.9679 17.1299C24.0144 17.1987 24.0393 17.2796 24.0393 17.3623C24.0393 17.4175 24.0283 17.4721 24.0068 17.5231C23.9853 17.574 23.9538 17.6203 23.9142 17.6591C23.8745 17.698 23.8275 17.7288 23.7757 17.7497C23.724 17.7705 23.6686 17.7811 23.6126 17.7808H23.6153ZM5.81865 14.0308C5.81865 14.118 5.78353 14.2017 5.72102 14.2634C5.65851 14.3251 5.57372 14.3597 5.48532 14.3597H4.81198C4.72358 14.3597 4.63879 14.3251 4.57628 14.2634C4.51377 14.2017 4.47865 14.118 4.47865 14.0308C4.47865 13.9435 4.51377 13.8599 4.57628 13.7982C4.63879 13.7365 4.72358 13.7018 4.81198 13.7018H5.48265C5.57083 13.7018 5.65541 13.7363 5.71788 13.7977C5.78036 13.8591 5.81563 13.9424 5.81598 14.0295L5.81865 14.0308ZM29.334 19.5262H25.3946C25.9697 19.0658 26.3381 18.4005 26.42 17.6742C26.9348 17.6307 27.4146 17.399 27.7652 17.0245C28.1158 16.65 28.312 16.1597 28.3153 15.6498L28.34 12.9084C28.3445 12.8929 28.3476 12.8771 28.3493 12.861C28.3475 12.8466 28.3446 12.8323 28.3406 12.8183L28.35 11.7722C28.3569 11.3659 28.2347 10.9677 28.0007 10.6334C27.962 10.5546 27.9112 10.4823 27.85 10.4189L23.6107 5.53669C23.4162 5.30941 23.1737 5.12687 22.9002 5.00186C22.6267 4.87684 22.3287 4.81239 22.0273 4.81301H13.534C13.2017 4.81167 12.874 4.88943 12.5786 5.03969C12.2833 5.18995 12.029 5.40828 11.8373 5.67616L8.36065 10.4959L4.53398 11.6834C4.16735 11.7966 3.83985 12.0083 3.58814 12.2947C3.33642 12.5811 3.1704 12.9309 3.10865 13.3051L2.76732 15.2998C2.71804 15.594 2.73415 15.8952 2.81452 16.1826C2.89489 16.47 3.0376 16.7368 3.23278 16.9644C3.42796 17.192 3.67093 17.375 3.94488 17.5007C4.21882 17.6265 4.51719 17.6919 4.81932 17.6926H7.52532C7.61166 18.4121 7.97904 19.0699 8.54932 19.5262H2.66732C2.57891 19.5262 2.49413 19.5608 2.43162 19.6225C2.3691 19.6842 2.33398 19.7679 2.33398 19.8551C2.33398 19.9424 2.3691 20.026 2.43162 20.0877C2.49413 20.1494 2.57891 20.1841 2.66732 20.1841H29.334C29.4224 20.1841 29.5072 20.1494 29.5697 20.0877C29.6322 20.026 29.6673 19.9424 29.6673 19.8551C29.6673 19.7679 29.6322 19.6842 29.5697 19.6225C29.5072 19.5608 29.4224 19.5262 29.334 19.5262ZM23.6126 19.5064C23.0383 19.5059 22.4874 19.2811 22.0805 18.8811C21.6735 18.4811 21.4435 17.9384 21.4406 17.3716V17.3637V17.3551C21.4421 16.9313 21.5708 16.5175 21.8104 16.1658C22.0501 15.8142 22.3899 15.5405 22.7871 15.3793C23.1843 15.2182 23.6209 15.1768 24.0419 15.2604C24.4629 15.344 24.8493 15.5488 25.1524 15.849C25.4555 16.1493 25.6617 16.5314 25.7448 16.9471C25.828 17.3629 25.7845 17.7936 25.6197 18.185C25.4549 18.5763 25.1764 18.9107 24.8191 19.1459C24.4619 19.3811 24.0421 19.5066 23.6126 19.5064ZM27.0007 10.4512H22.0393V5.47551C22.2417 5.47607 22.4416 5.51995 22.6252 5.60411C22.8088 5.68827 22.9717 5.81072 23.1026 5.96301L27.0007 10.4512ZM15.1547 10.4512V5.47419H21.372V10.4512H15.1547ZM12.384 6.0584C12.5141 5.87666 12.6868 5.72864 12.8874 5.62692C13.088 5.52521 13.3105 5.47281 13.536 5.47419H14.488V10.4512H9.21665L12.384 6.0584ZM3.74532 16.5433C3.61161 16.3883 3.51372 16.2064 3.45846 16.0103C3.4032 15.8142 3.39189 15.6086 3.42532 15.4077L3.76665 13.4123C3.80847 13.1582 3.92109 12.9206 4.09192 12.7259C4.26274 12.5313 4.48505 12.3875 4.73398 12.3104L8.61932 11.1091H14.8026C14.8093 11.1091 14.814 11.1091 14.8207 11.1091C14.8273 11.1091 14.832 11.1091 14.8387 11.1091H21.688C21.694 11.1091 21.6993 11.1091 21.706 11.1091C21.7126 11.1091 21.7173 11.1091 21.7233 11.1091H27.5C27.6167 11.3095 27.6798 11.5359 27.6833 11.767L27.6766 12.5295H27.2526C27.1642 12.5295 27.0795 12.5641 27.0169 12.6258C26.9544 12.6875 26.9193 12.7712 26.9193 12.8584C26.9193 12.9456 26.9544 13.0293 27.0169 13.091C27.0795 13.1527 27.1642 13.1873 27.2526 13.1873H27.6707L27.6486 15.6439C27.6468 15.9809 27.5207 16.3057 27.294 16.5577C27.0673 16.8098 26.7555 16.9718 26.4167 17.0137C26.3342 16.3353 26.0021 15.7104 25.4834 15.2578C24.9648 14.8052 24.2957 14.5564 23.6033 14.5586C22.911 14.5609 22.2436 14.8141 21.728 15.2701C21.2124 15.7261 20.8845 16.3532 20.8067 17.0321H13.134C13.0558 16.3517 12.7265 15.7236 12.2089 15.2675C11.6914 14.8115 11.0218 14.5594 10.328 14.5594C9.63413 14.5594 8.96457 14.8115 8.44703 15.2675C7.92949 15.7236 7.6002 16.3517 7.52198 17.0321H4.81932C4.61508 17.0324 4.41322 16.9888 4.22776 16.9044C4.04229 16.82 3.87767 16.6968 3.74532 16.5433ZM8.15865 17.3696V17.3637V17.3571C8.15936 16.7884 8.38894 16.2434 8.7969 15.8418C8.99889 15.6429 9.2386 15.4853 9.50234 15.3778C9.76607 15.2704 10.0487 15.2153 10.334 15.2156C10.6193 15.216 10.9018 15.2718 11.1652 15.3799C11.4287 15.4879 11.668 15.6461 11.8695 15.8455C12.071 16.0448 12.2308 16.2814 12.3396 16.5416C12.4485 16.8019 12.5043 17.0808 12.504 17.3623C12.5043 17.6439 12.4485 17.9228 12.3396 18.1831C12.2308 18.4433 12.071 18.6799 11.8695 18.8792C11.668 19.0786 11.4287 19.2368 11.1652 19.3448C10.9018 19.4529 10.6193 19.5087 10.334 19.5091C10.0487 19.5094 9.76607 19.4543 9.50234 19.3469C9.2386 19.2394 8.99889 19.0818 8.7969 18.8829C8.5949 18.6841 8.43457 18.4479 8.32506 18.1879C8.21555 17.9279 8.159 17.6492 8.15865 17.3676V17.3696ZM13.1373 17.6926H20.804C20.8907 18.412 21.258 19.0697 21.828 19.5262H12.1133C12.6821 19.0691 13.0482 18.4115 13.134 17.6926H13.1373Z" fill="#0D4689"/>
</svg>
