<svg width="50" height="30" viewBox="0 0 50 30" fill="none" xmlns="http://www.w3.org/2000/svg">
<g clip-path="url(#clip0_597_3477)">
<path d="M49.2063 11.3452C49.2984 9.31063 49.3821 7.20904 49.1645 5.19955C49.0305 4.00223 48.8212 2.66257 48.2099 1.82529C47.5401 0.895897 46.2674 0.259559 44.8106 0.11722C43.923 0.0418644 42.9685 0 41.8047 0C40.9339 0 40.0464 0.0251186 39.1756 0.0418644C38.3048 0.066983 37.4341 0.0837287 36.5717 0.0837287C36.2786 0.0837287 35.9772 0.0837287 35.6841 0.0753558C33.189 0.0251186 30.5934 0 27.7466 0C24.6989 0 21.4419 0.0251186 17.1885 0.0921016C15.899 0.108847 14.6096 0.11722 13.3202 0.125593C11.1265 0.133966 8.85745 0.150712 6.62189 0.226068C4.17701 0.309796 2.46895 1.02149 1.41397 2.3779C0.141289 4.01061 0.149662 6.53084 0.149662 8.75802C0.149662 9.30226 0.149662 9.82975 0.132916 10.307C0.0659331 11.9481 0.0910517 13.6227 0.11617 15.2386C0.141289 16.9216 0.166408 18.6631 0.0910517 20.3796L0.0575602 21.1666C-0.0764057 24.2813 -0.277355 28.9785 3.55742 29.64C4.3361 29.7739 5.19013 29.8325 6.24511 29.8325C6.8982 29.8325 7.55965 29.8074 8.21274 29.7823C8.85745 29.7572 9.51053 29.7321 10.1469 29.7321C10.2976 29.7321 10.4483 29.7321 10.599 29.7404C11.9052 29.7656 13.203 29.7739 14.5091 29.7739C16.1335 29.7739 17.7578 29.7572 19.3821 29.7488C21.2995 29.7321 23.2253 29.6902 25.1511 29.6483C27.6797 29.5981 30.292 29.5395 32.8541 29.5395C34.7799 29.5395 36.5047 29.573 38.1206 29.6316C38.6565 29.6483 39.2845 29.7153 39.9627 29.7823C40.9674 29.8828 42.1145 29.9916 43.2281 29.9916C45.3046 29.9916 48.1513 29.6567 48.9133 26.7932C49.2565 25.487 49.2231 23.8208 49.1896 22.3639C49.1812 21.9285 49.1728 21.5099 49.1728 21.1164C49.1728 20.0865 49.1645 19.065 49.1561 18.0435C49.131 16.0424 49.1142 13.9659 49.1979 11.923L49.2063 11.3452ZM48.1513 22.8412C48.1764 24.4906 48.2016 26.5336 47.2303 27.664C46.4349 28.5766 45.2376 29.0036 43.4709 29.0036C42.6671 29.0036 41.8466 28.9199 41.0595 28.8362C40.5906 28.7859 40.1301 28.7441 39.7115 28.7189C38.129 28.6268 36.3958 28.5766 34.4282 28.5766C32.628 28.5766 30.8195 28.6101 29.0193 28.652C27.7048 28.6771 26.3902 28.7022 25.0757 28.7189C22.3127 28.7441 19.5496 28.7608 16.7866 28.7608C14.3501 28.7608 11.9219 28.7524 9.43518 28.7357C8.97467 28.7357 8.4388 28.7692 7.86108 28.8111C7.18287 28.8529 6.48793 28.9032 5.77623 28.9032C4.45332 28.9032 2.61129 28.7524 1.79074 27.4546C0.836237 25.9475 0.96183 23.2431 1.05393 21.2671C1.07068 20.9573 1.07905 20.6642 1.08742 20.3879C1.17952 18.3366 1.17115 16.2601 1.17115 14.2506V13.1873C2.15915 13.1789 3.15552 13.1705 4.14352 13.1705C7.42569 13.1705 10.7748 13.2124 13.9984 13.2626C17.2303 13.3045 20.5711 13.3547 23.8616 13.3547H24.7743C27.1438 13.3464 29.5049 13.3296 31.8745 13.3045C34.6794 13.2794 37.4843 13.2543 40.2892 13.2543C43.2448 13.2543 45.8404 13.2877 48.2351 13.3464C48.2267 15.6824 48.2099 18.7469 48.1597 21.8448C48.143 22.1546 48.1513 22.4895 48.1513 22.8412ZM2.97969 2.30254C4.03467 1.49037 5.16501 1.28942 6.63026 1.23081C8.30484 1.15546 10.0213 1.15546 11.6791 1.15546C12.709 1.15546 13.7388 1.15546 14.7603 1.13871C20.7218 1.03824 26.2395 0.996372 31.6065 0.996372C35.6674 0.996372 39.6612 1.02149 43.4876 1.0801C45.2627 1.10522 47.155 1.42339 47.808 3.57522C48.0425 4.33715 48.1681 5.19955 48.2183 6.27128C42.9685 6.48898 37.3001 6.58945 30.3925 6.58945C26.0721 6.58945 21.6847 6.54759 17.4396 6.51409C13.1946 6.4806 8.80721 6.43874 4.48681 6.43874C3.4402 6.43874 2.39359 6.43874 1.35536 6.44711C1.48095 4.79766 1.5898 3.36589 2.97969 2.30254ZM4.89708 7.44348H7.24148C5.27386 9.1348 3.18064 10.7508 1.31349 12.1909L1.36373 12.2663L1.22976 12.1825H1.17115C1.17115 11.5797 1.17952 10.9768 1.16278 10.4326C2.35173 9.37762 3.59928 8.38962 4.89708 7.44348ZM41.2102 12.2579C41.2102 12.2579 38.9244 12.2579 38.3048 12.2579C40.1217 10.868 42.1982 9.24365 44.1324 7.52721C44.1742 7.49372 44.2077 7.45186 44.2328 7.40162C45.2543 7.36813 46.2842 7.34301 47.3057 7.30114C45.3129 9.02596 43.2281 10.6335 41.2688 12.1323C41.227 12.1825 41.1767 12.2328 41.2102 12.2579ZM33.817 12.283C35.6506 10.8764 37.7439 9.24365 39.6612 7.51047L40.239 7.50209C41.0595 7.48535 41.8717 7.47697 42.6922 7.45186C40.7246 9.14318 38.6398 10.7508 36.8312 12.1407C36.781 12.1742 36.7475 12.216 36.714 12.2579L33.817 12.283ZM29.3124 12.3249C31.1544 10.9182 33.2476 9.27714 35.1399 7.57745C36.1363 7.56908 37.1326 7.55233 38.129 7.54396C36.1865 9.21016 34.1351 10.7926 32.3601 12.149C32.3015 12.1909 32.2596 12.2411 32.2261 12.3081L29.3124 12.3249ZM13.0941 7.48535L15.9242 7.51047C13.9733 9.18504 11.9135 10.7759 10.1218 12.1407C10.0799 12.1742 10.0548 12.2076 10.0883 12.216C10.0883 12.216 7.9783 12.1909 7.31684 12.1825C9.49379 10.5247 11.3023 9.08457 13.0941 7.48535ZM20.3032 7.54396C18.3607 9.20179 16.3177 10.7843 14.5426 12.1407C14.4924 12.1742 14.4589 12.216 14.4254 12.2663L11.6456 12.2328C13.4374 10.8596 15.4804 9.2604 17.448 7.51884L20.3032 7.54396ZM24.724 7.57745C22.7983 9.2269 20.7637 10.7926 19.0054 12.1407C18.9384 12.1909 18.8965 12.2495 18.8547 12.3249L15.9911 12.2914C17.8164 10.8931 19.8929 9.26877 21.827 7.5607L24.724 7.57745ZM29.1617 7.59419C27.2359 9.24365 25.2097 10.801 23.4597 12.1407C23.3928 12.1909 23.3425 12.2579 23.3007 12.3416C22.3294 12.3416 21.3581 12.3332 20.3869 12.3249C22.2122 10.9182 24.3054 9.29389 26.2563 7.57745C27.2192 7.58582 28.1904 7.59419 29.1617 7.59419ZM30.6604 7.59419C31.414 7.59419 32.1675 7.58582 32.9295 7.58582L33.6244 7.57745C31.6986 9.2269 29.664 10.7926 27.9057 12.1323C27.8387 12.1825 27.7885 12.2495 27.755 12.3249C27.755 12.3249 25.5278 12.3416 24.8161 12.3416C26.6582 10.9433 28.7598 9.30226 30.6604 7.59419ZM8.68162 7.52721C8.70674 7.50209 8.73185 7.47697 8.74023 7.45186C9.68636 7.46023 10.6409 7.46023 11.587 7.4686C9.61938 9.15992 7.54291 10.7591 5.73437 12.1825C5.73437 12.1825 3.55742 12.1825 2.93783 12.1825C5.11477 10.5163 6.93169 9.07619 8.68162 7.52721ZM1.22139 9.07619C1.23814 8.53196 1.26325 7.99609 1.29675 7.45186H3.24762C2.55268 7.97935 1.8661 8.52358 1.22139 9.07619ZM48.2686 10.3991C47.515 10.9852 46.7614 11.5629 45.9995 12.1407C45.9409 12.1825 45.899 12.2411 45.8572 12.3081L44.9445 12.2914C44.2161 12.2746 43.4876 12.2663 42.7676 12.2579C44.5594 10.8847 46.4516 9.40273 48.2434 7.83701L48.2351 9.8465L48.2686 10.3991ZM48.2351 11.6802V12.3416C48.0509 12.3416 47.3978 12.3249 47.3978 12.3249L48.2351 11.6802Z" fill="white"/>
<path d="M6.59716 20.0029L12.2572 19.9276C12.6173 19.9276 13.0108 19.9443 13.4127 19.9611C13.8397 19.9778 14.2835 19.9945 14.7189 19.9945C15.4975 19.9945 16.092 19.9276 16.5776 19.7936C16.7451 19.7434 16.8874 19.601 16.9293 19.4419C17.08 18.7972 17.0214 18.052 16.9544 17.332C16.9293 17.0557 16.9042 16.7877 16.8958 16.5366C16.8874 16.2602 16.6697 16.0342 16.3934 16.0342L5.21564 16.1765C5.12354 16.1765 5.03144 16.2016 4.96445 16.2519C4.797 16.3356 4.71327 16.4863 4.72164 16.6789C4.73839 17.1813 4.72164 17.6167 4.70489 17.9851C4.6714 18.7637 4.65466 19.2829 4.96445 19.6094C5.22401 19.8857 5.71801 20.0029 6.59716 20.0029ZM8.73225 19.04C8.24662 19.0903 7.70238 19.1489 7.2335 19.1489C6.8316 19.1489 6.54693 19.107 6.37947 19.0149C5.61754 18.613 5.65103 18.1023 5.70127 17.3906L5.71801 17.1729L11.6125 17.1059C11.9558 17.1059 12.3158 17.0892 12.6675 17.0724C13.0861 17.0557 13.5048 17.0389 13.9234 17.0389C14.2165 17.0389 14.5179 17.0473 14.8361 17.0724C14.9784 17.0306 15.1124 17.0138 15.238 17.0138C15.4975 17.0138 15.7403 17.0975 15.9245 17.2482L15.9832 18.4456C15.732 18.8977 14.7775 19.1238 13.1447 19.1238C12.3493 19.1238 11.512 19.0735 10.8422 19.0317C10.3733 19.0065 9.97143 18.9814 9.65326 18.9814H9.64489C9.41882 18.9647 9.09228 18.9982 8.73225 19.04Z" fill="white"/>
<path d="M37.0995 16.5449C37.0911 16.2685 36.8734 16.0425 36.5971 16.0425C33.8759 16.076 31.1547 16.0927 28.4252 16.1095C25.704 16.1262 22.9744 16.143 20.2533 16.1764C20.1612 16.1764 20.0774 16.2016 19.9937 16.2518C19.8262 16.3355 19.7425 16.4862 19.7509 16.6788C19.7593 16.9384 19.7258 17.2482 19.7006 17.5663C19.6085 18.546 19.4997 19.6512 20.4626 20.0028C20.6217 20.0615 20.831 20.0866 21.1073 20.0866C21.3836 20.0866 21.685 20.0615 21.9613 20.028C22.1874 20.0112 22.3967 19.9861 22.5642 19.9861L31.9836 19.9107C32.4023 19.9107 32.8544 19.9359 33.3233 19.961C33.8173 19.9861 34.3281 20.0112 34.8221 20.0112C35.6258 20.0112 36.2538 19.9442 36.7729 19.7935C36.9488 19.7433 37.0827 19.6009 37.1246 19.4419C37.2753 18.7888 37.2167 18.0436 37.1497 17.3235C37.133 17.064 37.1078 16.796 37.0995 16.5449ZM32.4358 18.9144L23.0414 18.9897C22.8823 18.9897 22.6898 19.0065 22.4972 19.0232C22.2711 19.0483 22.0283 19.0651 21.8022 19.0651C21.5929 19.0651 21.4338 19.0483 21.3082 19.0065C20.6552 18.7972 20.697 18.1022 20.7389 17.357L20.7473 17.1728C23.0498 17.1477 25.3523 17.131 27.6549 17.1142L33.7754 17.0723C33.9345 17.0723 34.1438 17.0556 34.3699 17.0305C34.6462 17.0054 34.956 16.9719 35.2323 16.9719C35.4835 16.9719 35.6761 16.997 35.8101 17.0472C35.9273 17.0891 35.9943 17.1058 36.0277 17.1058C36.0445 17.1058 36.0445 17.0975 36.0445 17.0975C36.0529 17.1142 36.078 17.1561 36.1366 17.2314C36.2789 17.4073 36.1952 18.5292 36.1031 18.6632C35.9524 18.8809 35.4165 18.9897 34.5206 18.9897C34.0601 18.9897 33.5829 18.9646 33.181 18.9395C32.8879 18.9311 32.6367 18.9144 32.4358 18.9144Z" fill="white"/>
<path d="M23.9281 21.8617C22.0945 21.8785 20.2608 21.8952 18.4272 21.9036L10.3473 21.9538C9.88683 21.9538 9.39283 21.9287 8.88209 21.9036C8.32948 21.8785 7.76012 21.845 7.19914 21.845C6.33674 21.845 5.67528 21.9203 5.1143 22.071C4.93847 22.1213 4.8045 22.2636 4.76264 22.4227C4.61192 23.0674 4.67053 23.8126 4.73752 24.5327C4.76264 24.809 4.78775 25.0769 4.79613 25.3281C4.8045 25.6044 5.02219 25.8305 5.29013 25.8305H5.2985C8.58904 25.7886 11.8712 25.7802 15.1617 25.7635C18.4607 25.7467 21.7596 25.7384 25.0669 25.6965C25.159 25.6965 25.2427 25.6714 25.3264 25.6211C25.4939 25.5374 25.5776 25.3867 25.5692 25.1941C25.5525 24.7587 25.5776 24.3568 25.6027 23.9968C25.6446 23.2265 25.6781 22.6236 25.3264 22.2469C25.0752 21.9873 24.6482 21.8617 23.9281 21.8617ZM22.3875 22.8497C22.6722 22.833 22.9569 22.8079 23.2416 22.8079C23.5011 22.8079 23.7272 22.8246 23.9114 22.8665C23.9867 22.8832 24.0537 22.8832 24.104 22.8832C24.1542 22.8832 24.1961 22.8832 24.3049 22.8748C24.3552 22.8748 24.4054 22.8748 24.5142 23.0423C24.7068 23.3353 24.6482 24.0052 24.598 24.5494L24.5896 24.6917C21.994 24.7252 19.4068 24.7336 16.8112 24.742L8.85697 24.7839L6.47907 24.8006L6.36185 24.8257C6.21114 24.8341 5.95158 24.8508 5.77575 24.8508C5.73389 24.8508 5.70877 24.8508 5.68365 24.8508C5.71714 24.6834 5.75063 24.3485 5.75063 23.6368V23.4693C5.75063 23.4526 5.75063 23.4358 5.74226 23.4107L5.80924 23.2097C5.83436 23.1428 5.85111 23.0842 5.90135 23.0674C5.9767 23.0674 6.1023 23.059 6.31999 23.0004C6.40372 22.9753 6.52094 22.9669 6.66328 22.9669C6.7805 22.9669 6.90609 22.9753 7.02331 22.9837C7.13216 22.9921 7.24101 23.0004 7.35823 23.0004L21.6591 22.9083C21.8852 22.8832 22.1363 22.8665 22.3875 22.8497Z" fill="white"/>
<path d="M45.4298 23.1511C45.2707 23.1511 45.1033 23.2265 45.0028 23.3521C44.9023 23.4693 44.8688 23.62 44.894 23.7707C44.9944 24.315 44.8605 24.8006 44.5172 25.2108C43.7887 26.0816 42.2063 26.4752 40.9587 26.4752C40.7159 26.4752 40.4898 26.4584 40.2889 26.4333L40.2052 26.4249C39.8954 26.4249 39.686 26.6845 39.6693 26.944C39.6526 27.1868 39.7949 27.371 40.0461 27.4045C40.3308 27.4464 40.6405 27.4715 40.9587 27.4715C42.3151 27.4715 44.266 27.0445 45.2875 25.8304C45.8317 25.1857 46.0243 24.4071 45.8736 23.5279C45.8234 23.2935 45.6559 23.1511 45.4298 23.1511Z" fill="white"/>
<path d="M45.3548 22.1295C45.5055 22.1295 45.6311 22.0709 45.7232 21.9704C45.7985 21.8783 45.8404 21.7611 45.8404 21.6271C45.8404 21.3759 45.6729 21.1248 45.3548 21.1248C45.2041 21.1248 45.0785 21.1834 44.9864 21.2838C44.911 21.3759 44.8691 21.4932 44.8691 21.6271C44.8691 21.8699 45.0366 22.1295 45.3548 22.1295Z" fill="white"/>
</g>
<defs>
<clipPath id="clip0_597_3477">
<rect width="49.3078" height="30" fill="white"/>
</clipPath>
</defs>
</svg>
