<svg width="42" height="42" viewBox="0 0 42 42" fill="none" xmlns="http://www.w3.org/2000/svg">
<g filter="url(#filter0_b_1022_4847)">
<path d="M21 42C15.4305 42 10.089 39.7875 6.15076 35.8492C2.2125 31.911 1.58188e-06 26.5695 9.17939e-07 21C2.53998e-07 15.4305 2.21249 10.089 6.15076 6.15076C10.089 2.21249 15.4305 1.66492e-07 21 -9.17939e-07L21 21L21 42Z" fill="#1B5AA3" fill-opacity="0.33"/>
</g>
<path d="M13.7231 26.5936C13.6826 26.6327 13.6347 26.6633 13.5823 26.6839C13.5299 26.7044 13.474 26.7144 13.4177 26.7133C13.3041 26.7111 13.1959 26.6638 13.1171 26.5819C13.0383 26.5 12.9953 26.3902 12.9975 26.2765C12.9997 26.1629 13.0469 26.0547 13.1288 25.9759L17.8574 21.4274L7.14142 21.4274C7.02775 21.4274 6.91874 21.3822 6.83837 21.3018C6.758 21.2215 6.71284 21.1125 6.71284 20.9988C6.71284 20.8851 6.758 20.7761 6.83837 20.6957C6.91874 20.6154 7.02775 20.5702 7.14142 20.5702L17.8563 20.5702L13.1283 16.0228C13.0877 15.9838 13.0552 15.9371 13.0327 15.8856C13.0102 15.834 12.998 15.7785 12.9969 15.7222C12.9958 15.6659 13.0058 15.61 13.0264 15.5576C13.0469 15.5052 13.0775 15.4574 13.1166 15.4168C13.1556 15.3762 13.2022 15.3438 13.2538 15.3212C13.3054 15.2987 13.3609 15.2865 13.4171 15.2854C13.4734 15.2843 13.5293 15.2943 13.5817 15.3149C13.6342 15.3354 13.682 15.3661 13.7226 15.4051L19.11 20.5874C19.1654 20.6407 19.2094 20.7046 19.2395 20.7754C19.2696 20.8461 19.2852 20.9222 19.2852 20.9991C19.2852 21.076 19.2696 21.152 19.2395 21.2228C19.2094 21.2935 19.1654 21.3575 19.11 21.4108L13.7226 26.5936L13.7231 26.5936Z" fill="white"/>
<defs>
<filter id="filter0_b_1022_4847" x="-4" y="-4" width="29" height="50" filterUnits="userSpaceOnUse" color-interpolation-filters="sRGB">
<feFlood flood-opacity="0" result="BackgroundImageFix"/>
<feGaussianBlur in="BackgroundImage" stdDeviation="2"/>
<feComposite in2="SourceAlpha" operator="in" result="effect1_backgroundBlur_1022_4847"/>
<feBlend mode="normal" in="SourceGraphic" in2="effect1_backgroundBlur_1022_4847" result="shape"/>
</filter>
</defs>
</svg>
