<svg width="42" height="42" viewBox="0 0 42 42" fill="none" xmlns="http://www.w3.org/2000/svg">
<g filter="url(#filter0_b_1022_4852)">
<path d="M21 42C26.5695 42 31.911 39.7875 35.8492 35.8492C39.7875 31.911 42 26.5695 42 21C42 15.4305 39.7875 10.089 35.8492 6.15076C31.911 2.21249 26.5695 1.66492e-07 21 -9.17939e-07L21 21L21 42Z" fill="#1B5AA3" fill-opacity="0.33"/>
</g>
<path d="M28.2769 26.5936C28.3174 26.6327 28.3653 26.6633 28.4177 26.6839C28.4701 26.7044 28.526 26.7144 28.5823 26.7133C28.6959 26.7111 28.8041 26.6638 28.8829 26.5819C28.9617 26.5 29.0047 26.3902 29.0025 26.2765C29.0003 26.1629 28.9531 26.0547 28.8712 25.9759L24.1426 21.4274L34.8586 21.4274C34.9722 21.4274 35.0813 21.3822 35.1616 21.3018C35.242 21.2215 35.2872 21.1125 35.2872 20.9988C35.2872 20.8851 35.242 20.7761 35.1616 20.6957C35.0813 20.6154 34.9722 20.5702 34.8586 20.5702L24.1437 20.5702L28.8717 16.0228C28.9123 15.9838 28.9448 15.9371 28.9673 15.8856C28.9898 15.834 29.002 15.7785 29.0031 15.7222C29.0042 15.6659 28.9942 15.61 28.9736 15.5576C28.9531 15.5052 28.9225 15.4574 28.8834 15.4168C28.8444 15.3762 28.7978 15.3438 28.7462 15.3212C28.6946 15.2987 28.6391 15.2865 28.5829 15.2854C28.5266 15.2843 28.4707 15.2943 28.4183 15.3149C28.3658 15.3354 28.318 15.3661 28.2774 15.4051L22.89 20.5874C22.8346 20.6407 22.7906 20.7046 22.7605 20.7754C22.7304 20.8461 22.7148 20.9222 22.7148 20.9991C22.7148 21.076 22.7304 21.152 22.7605 21.2228C22.7906 21.2935 22.8346 21.3575 22.89 21.4108L28.2774 26.5936L28.2769 26.5936Z" fill="white"/>
<defs>
<filter id="filter0_b_1022_4852" x="17" y="-4" width="29" height="50" filterUnits="userSpaceOnUse" color-interpolation-filters="sRGB">
<feFlood flood-opacity="0" result="BackgroundImageFix"/>
<feGaussianBlur in="BackgroundImage" stdDeviation="2"/>
<feComposite in2="SourceAlpha" operator="in" result="effect1_backgroundBlur_1022_4852"/>
<feBlend mode="normal" in="SourceGraphic" in2="effect1_backgroundBlur_1022_4852" result="shape"/>
</filter>
</defs>
</svg>
