<svg width="26" height="25" viewBox="0 0 26 25" fill="none" xmlns="http://www.w3.org/2000/svg">
<g clip-path="url(#clip0_703_2246)">
<path d="M8.03906 12.6405C8.03906 15.1782 10.1036 17.2427 12.6413 17.2427C15.1789 17.2427 17.2434 15.1782 17.2434 12.6405C17.2434 10.1028 15.1789 8.03833 12.6413 8.03833C10.1036 8.03833 8.03906 10.1028 8.03906 12.6405ZM16.6816 12.6405C16.6816 14.8684 14.8692 16.6809 12.6413 16.6809C10.4133 16.6809 8.60086 14.8684 8.60086 12.6405C8.60086 10.4127 10.4133 8.60013 12.6413 8.60013C14.8692 8.60013 16.6816 10.4127 16.6816 12.6405Z" fill="#0D4689"/>
<path d="M15.291 2.41797H9.98904C9.83378 2.41797 9.70814 2.54374 9.70814 2.69887V6.99201C7.66953 8.05453 6.27344 10.1869 6.27344 12.6403C6.27344 15.0938 7.66953 17.2261 9.70814 18.2887V22.5818C9.70814 22.7369 9.83378 22.8627 9.98904 22.8627H15.291C15.4463 22.8627 15.5719 22.7369 15.5719 22.5818V18.2887C17.6105 17.2261 19.0066 15.0938 19.0066 12.6403C19.0066 10.1869 17.6105 8.05453 15.5719 6.99201V2.69887C15.5719 2.54374 15.4463 2.41797 15.291 2.41797ZM10.2699 2.97977H15.0101V6.73326C14.277 6.43804 13.4775 6.27388 12.64 6.27388C11.8025 6.27388 11.0031 6.43804 10.2699 6.73326V2.97977ZM15.0101 22.3009H10.2699V18.5474C11.0031 18.8426 11.8025 19.0068 12.64 19.0068C13.4775 19.0068 14.277 18.8426 15.0101 18.5474V22.3009ZM18.4448 12.6403C18.4448 15.841 15.8407 18.445 12.64 18.445C9.43931 18.445 6.83524 15.841 6.83524 12.6403C6.83524 9.43962 9.43931 6.83568 12.64 6.83568C15.8407 6.83568 18.4448 9.43962 18.4448 12.6403Z" fill="#0D4689"/>
<path d="M12.1518 11.3616H10.7223C10.567 11.3616 10.4414 11.4873 10.4414 11.6425V13.6387C10.4414 13.7938 10.567 13.9196 10.7223 13.9196H12.1518C12.307 13.9196 12.4327 13.7938 12.4327 13.6387V11.6425C12.4327 11.4873 12.307 11.3616 12.1518 11.3616ZM11.8709 13.3578H11.0032V12.9215H11.8709V13.3578ZM11.8709 12.3597H11.0032V11.9234H11.8709V12.3597Z" fill="#0D4689"/>
<path d="M13.1286 13.9196H14.558C14.7133 13.9196 14.8389 13.7938 14.8389 13.6387V11.6425C14.8389 11.4873 14.7133 11.3616 14.558 11.3616H13.1286C12.9733 11.3616 12.8477 11.4873 12.8477 11.6425V13.6387C12.8477 13.7938 12.9733 13.9196 13.1286 13.9196ZM13.4095 11.9234H14.2771V12.3597H13.4095V11.9234ZM13.4095 12.9215H14.2771V13.3578H13.4095V12.9215Z" fill="#0D4689"/>
</g>
<defs>
<clipPath id="clip0_703_2246">
<rect width="25.2809" height="25" fill="white"/>
</clipPath>
</defs>
</svg>
