<svg width="14" height="14" viewBox="0 0 14 14" fill="none" xmlns="http://www.w3.org/2000/svg">
<path d="M2.18748 1.00907C2.03031 0.857275 1.81981 0.773279 1.60131 0.775178C1.38281 0.777077 1.1738 0.864718 1.0193 1.01922C0.864791 1.17373 0.77715 1.38274 0.775251 1.60124C0.773352 1.81974 0.857348 2.03024 1.00915 2.18741L5.82165 6.99991L1.00831 11.8124C0.928721 11.8893 0.865236 11.9812 0.821562 12.0829C0.777887 12.1846 0.754899 12.2939 0.753938 12.4046C0.752976 12.5152 0.774061 12.625 0.815962 12.7274C0.857862 12.8298 0.91974 12.9228 0.997984 13.0011C1.07623 13.0793 1.16927 13.1412 1.27168 13.1831C1.3741 13.225 1.48383 13.2461 1.59448 13.2451C1.70513 13.2442 1.81448 13.2212 1.91615 13.1775C2.01782 13.1338 2.10977 13.0703 2.18665 12.9907L6.99998 8.17824L11.8125 12.9907C11.9696 13.1425 12.1801 13.2265 12.3986 13.2246C12.6171 13.2227 12.8262 13.1351 12.9807 12.9806C13.1352 12.8261 13.2228 12.6171 13.2247 12.3986C13.2266 12.1801 13.1426 11.9696 12.9908 11.8124L8.17831 6.99991L12.9908 2.18741C13.1426 2.03024 13.2266 1.81974 13.2247 1.60124C13.2228 1.38274 13.1352 1.17373 12.9807 1.01922C12.8262 0.864718 12.6171 0.777077 12.3986 0.775178C12.1801 0.773279 11.9696 0.857275 11.8125 1.00907L6.99998 5.82157L2.18748 1.00824V1.00907Z" fill="#C83138"/>
</svg>
