<svg width="40" height="34" viewBox="0 0 40 34" fill="none" xmlns="http://www.w3.org/2000/svg">
<path d="M11.3484 20.062C11.3241 20.0618 11.3 20.0589 11.2766 20.0533C11.1915 20.0332 11.108 20.0075 11.0266 19.9763C9.97724 19.5763 9.82164 18.5731 10.1328 17.7568V17.7571C10.246 17.43 10.4544 17.1443 10.7315 16.9369C10.7969 16.8785 10.8841 16.8501 10.9714 16.859C11.0589 16.868 11.1384 16.9133 11.1908 16.9838C11.2431 17.0544 11.2634 17.1436 11.2464 17.23C11.2295 17.3162 11.1772 17.3914 11.102 17.4369C10.9221 17.5747 10.7879 17.7635 10.7172 17.9789C10.6228 18.2289 10.3821 19.0609 11.2498 19.3914H11.2495C11.3053 19.4129 11.3623 19.4305 11.4203 19.4446C11.575 19.4805 11.6783 19.6271 11.6598 19.785C11.6415 19.943 11.5074 20.062 11.3484 20.0613L11.3484 20.062Z" fill="white"/>
<path d="M15.8544 9.10484C14.948 9.09837 14.0502 8.92895 13.2037 8.60484C13.1241 8.57739 13.0589 8.51891 13.0229 8.44257C12.987 8.36623 12.9834 8.27873 13.0131 8.19972C13.0426 8.12092 13.1028 8.05731 13.1801 8.02338C13.2573 7.98946 13.345 7.98834 13.4232 8.02003C15.312 8.72808 16.7089 8.40686 16.7232 8.40373C16.891 8.36355 17.0595 8.46735 17.0997 8.6352C17.1397 8.80328 17.0361 8.97181 16.868 9.01176C16.5345 9.07917 16.1946 9.1102 15.8544 9.10484L15.8544 9.10484Z" fill="white"/>
<path d="M27.9604 21.5624C27.6386 21.5657 27.3254 21.4579 27.0736 21.2574L24.2948 19.0237V19.0235C24.2298 18.9717 24.1881 18.8963 24.1789 18.8135C24.1698 18.7309 24.1939 18.6478 24.2461 18.5831C24.2981 18.5184 24.374 18.4771 24.4568 18.4684C24.5394 18.4597 24.6222 18.4842 24.6867 18.5367L27.4655 20.7697C27.8468 21.0766 28.4562 20.9572 28.8236 20.4972V20.4974C29.0028 20.2815 29.0982 20.0083 29.0917 19.728C29.0899 19.4911 28.9841 19.2668 28.8024 19.1148L19.8915 11.8943C19.8248 11.8429 19.7817 11.7668 19.7717 11.6831C19.7618 11.5994 19.7862 11.5152 19.8393 11.4498C19.8922 11.3844 19.9694 11.3431 20.0534 11.3353C20.1371 11.3275 20.2206 11.3539 20.2848 11.4085L29.1946 18.6302C29.5182 18.895 29.7091 19.2885 29.7164 19.7066C29.728 20.1372 29.5843 20.5575 29.3115 20.891C28.985 21.3066 28.4888 21.5533 27.9602 21.5622L27.9604 21.5624Z" fill="white"/>
<path d="M25.5811 23.2125C25.2593 23.2154 24.9461 23.1076 24.6943 22.9069L20.83 19.7707V19.7705C20.7021 19.6602 20.6851 19.4683 20.7916 19.337C20.8981 19.206 21.0894 19.1832 21.2237 19.2857L25.0869 22.4207C25.4675 22.7269 26.0775 22.6044 26.445 22.147V22.1468C26.6237 21.9312 26.7188 21.6582 26.713 21.3781C26.711 21.141 26.605 20.9167 26.4231 20.7649L22.5543 17.625C22.4871 17.5736 22.4434 17.4975 22.4336 17.4136C22.4235 17.3297 22.4479 17.2451 22.5012 17.1794C22.5545 17.1138 22.632 17.0727 22.7162 17.0652C22.8005 17.0578 22.884 17.0848 22.9481 17.1399L26.8131 20.2788C27.1369 20.5433 27.3278 20.9368 27.3349 21.3549C27.3463 21.7855 27.2023 22.2058 26.9293 22.5388C26.6039 22.9545 26.1091 23.2018 25.5811 23.2125L25.5811 23.2125Z" fill="white"/>
<path d="M23.3298 24.8931C23.0074 24.8962 22.6938 24.7882 22.4416 24.5875L19.1066 21.9174C18.9718 21.8096 18.9499 21.6129 19.0579 21.4781C19.1657 21.3433 19.3624 21.3214 19.4972 21.4294L22.8322 24.1C23.2153 24.4076 23.8253 24.2875 24.1929 23.8288C24.5099 23.435 24.5516 22.9056 24.2929 22.5707L24.2927 22.5705C24.2572 22.5243 24.2163 22.4823 24.1708 22.4455L20.8315 19.7725C20.6967 19.6647 20.6748 19.4678 20.7828 19.333C20.8906 19.1984 21.0873 19.1765 21.2221 19.2843L24.5627 21.9587C24.6462 22.0261 24.7217 22.1029 24.7877 22.1875C25.2203 22.75 25.1752 23.6024 24.6802 24.2187C24.3547 24.6355 23.8585 24.8833 23.3297 24.8931L23.3298 24.8931Z" fill="white"/>
<path d="M12.5382 18.9917C12.4038 18.9917 12.2846 18.9057 12.242 18.7785C11.9382 17.8753 10.9094 17.3816 10.8989 17.3754L10.8902 17.3704L10.7571 17.3024C10.4277 17.1329 10.1165 16.9729 9.82517 16.8937L9.82495 16.8934C9.66022 16.8468 9.56379 16.6762 9.60865 16.5111C9.65352 16.3457 9.82294 16.2475 9.98878 16.2903C10.3432 16.3865 10.6832 16.5615 11.0432 16.7466L11.1682 16.8091C11.2727 16.8591 12.4551 17.4484 12.8321 18.5747H12.8319C12.8868 18.7383 12.7986 18.9155 12.635 18.9704C12.604 18.9827 12.5714 18.9898 12.5381 18.9916L12.5382 18.9917Z" fill="white"/>
<path d="M20.0763 25.813C19.7508 25.8112 19.4359 25.6989 19.1825 25.4949C19.012 25.3574 18.8307 25.2168 18.62 25.0536C18.4093 24.8904 18.1693 24.7042 17.8988 24.4911C17.8321 24.44 17.789 24.3643 17.7787 24.281C17.7684 24.1978 17.7921 24.1141 17.8443 24.0484C17.8968 23.9828 17.9731 23.9408 18.0566 23.9321C18.1401 23.9236 18.2234 23.9489 18.2881 24.0022C18.5555 24.2147 18.793 24.3998 19.0031 24.5647C19.2131 24.7297 19.3981 24.8717 19.5731 25.0116C19.7606 25.1647 20.2749 25.4415 20.9332 24.7279C21.2725 24.3004 21.2845 23.7198 20.96 23.4015V23.4018C20.9428 23.3846 20.9247 23.3685 20.9055 23.3536L19.1062 21.9205C18.975 21.8118 18.9549 21.618 19.0611 21.485C19.1671 21.3518 19.3604 21.3281 19.4957 21.4317L21.2964 22.8654H21.2962C21.333 22.8946 21.368 22.9261 21.4013 22.9591C21.96 23.506 21.9676 24.4397 21.4145 25.1272L21.4013 25.1422C20.9524 25.633 20.4875 25.8129 20.0763 25.8129L20.0763 25.813Z" fill="white"/>
<path d="M25.1653 15.125C24.8043 15.1227 24.4461 15.0645 24.1027 14.9524C23.511 14.7571 22.9637 14.4464 22.4929 14.0382L19.4072 11.5056L17.5534 12.0531C17.2115 12.8612 16.4753 13.9862 15.0291 13.9862C14.8521 13.985 14.6753 13.9687 14.501 13.9375C14.1309 13.875 13.9503 13.6768 13.8641 13.5232C13.644 13.1301 13.8242 12.652 13.8454 12.5989V12.5986C13.8492 12.5888 13.8536 12.5792 13.8585 12.5701C14.3029 11.7194 15.2884 9.45693 15.296 9.43436C15.3036 9.41182 15.3092 9.40758 15.3166 9.39441C15.334 9.36695 15.7471 8.70692 16.4616 8.48367C17.0648 8.29617 19.7116 7.41247 19.738 7.4031H19.7378C20.3011 7.23412 20.9018 7.23412 21.4652 7.4031C22.6669 7.78435 24.4027 8.45241 24.4221 8.45869L24.4391 8.46628C24.4509 8.47119 25.6891 9.01495 26.7841 8.4145L26.7839 8.41427C26.8567 8.37276 26.9431 8.36204 27.0239 8.38459C27.1045 8.40735 27.1728 8.46137 27.2132 8.53481C27.2536 8.60825 27.2627 8.69485 27.2388 8.77521C27.2147 8.85556 27.1594 8.92275 27.0853 8.96181C25.7558 9.69307 24.3353 9.10244 24.1902 9.03927C24.0652 8.99173 22.4207 8.36184 21.2763 7.99864C20.5951 7.78235 19.9438 7.99864 19.937 7.99864C19.9089 8.00802 17.2571 8.89104 16.6495 9.08304C16.2121 9.22188 15.9151 9.62746 15.8582 9.71116C15.7444 9.9712 14.8582 12.0025 14.4208 12.8449C14.3902 12.931 14.352 13.1205 14.4096 13.2199C14.4203 13.2386 14.4527 13.2962 14.6058 13.3223C15.7189 13.5143 16.5332 12.9623 17.027 11.683H17.0272C17.062 11.5924 17.137 11.5232 17.2303 11.4955L19.3866 10.8587C19.4857 10.8292 19.5933 10.8506 19.6734 10.9162L22.8921 13.5582L22.9064 13.5707C22.997 13.6544 25.1596 15.6064 27.1332 13.5814L27.1334 13.5812C27.1915 13.5218 27.2705 13.4879 27.3535 13.487C27.4366 13.4861 27.5165 13.5182 27.5759 13.5763C27.6995 13.697 27.7017 13.895 27.5808 14.0187C26.7609 14.8611 25.9078 15.1249 25.1652 15.1249L25.1653 15.125Z" fill="white"/>
<path d="M28.3132 18.6211C28.1406 18.6269 27.996 18.4916 27.9904 18.3191C27.9846 18.1463 28.1199 18.0019 28.2926 17.9961C28.3371 17.9916 29.1846 17.8974 29.7746 16.503H29.7744C29.8045 16.4235 29.8657 16.3597 29.9438 16.3264C30.0221 16.293 30.1103 16.293 30.1886 16.326C30.2668 16.3592 30.3281 16.4229 30.3585 16.5021C30.3889 16.5816 30.3855 16.67 30.3494 16.7467C29.5949 18.5305 28.3819 18.6169 28.3306 18.6217L28.3132 18.6211Z" fill="white"/>
<path d="M17.0299 25.0979C16.8159 25.0957 16.604 25.0544 16.4049 24.976C15.3562 24.576 15.2004 23.5729 15.5118 22.7566H15.5116C15.66 22.3495 15.948 22.0084 16.3241 21.7935C16.7308 21.5785 17.2105 21.5488 17.6404 21.7122C18.0705 21.8754 18.4096 22.2158 18.571 22.6466C18.7165 23.058 18.7091 23.5078 18.5504 23.914C18.3049 24.5623 17.7643 25.098 17.0299 25.098L17.0299 25.0979ZM17.0598 22.2285C16.9083 22.2283 16.7592 22.2671 16.6268 22.341C16.3806 22.4845 16.1931 22.7106 16.0973 22.9792C16.0029 23.2292 15.7623 24.0617 16.6293 24.3917C17.4962 24.7216 17.8724 23.9392 17.9668 23.6917C18.071 23.4256 18.0772 23.1312 17.9842 22.8609C17.892 22.5995 17.6873 22.393 17.4268 22.2984C17.3107 22.2535 17.1875 22.2296 17.063 22.2285L17.0598 22.2285Z" fill="white"/>
<path d="M14.7453 23.8125C14.5313 23.8105 14.3194 23.7692 14.1203 23.6907C13.071 23.2913 12.9154 22.2882 13.2265 21.4712C13.375 21.0643 13.6629 20.723 14.039 20.5081C14.446 20.292 14.9265 20.2619 15.3573 20.4255C15.7881 20.5889 16.1276 20.9302 16.289 21.3619C16.4344 21.7731 16.427 22.2226 16.2683 22.6289C16.0203 23.2744 15.479 23.8126 14.7453 23.8126L14.7453 23.8125ZM14.7748 20.9431C14.313 20.9431 13.9623 21.2949 13.813 21.6931C13.7185 21.9431 13.4773 22.7757 14.3449 23.1063C15.2123 23.4368 15.588 22.6538 15.6824 22.4056H15.6821C15.7864 22.1395 15.7926 21.8451 15.6996 21.575C15.6074 21.3134 15.4029 21.1069 15.1422 21.0125C15.025 20.967 14.9004 20.9435 14.7746 20.9431L14.7748 20.9431Z" fill="white"/>
<path d="M12.6985 21.8608C12.4844 21.8588 12.2726 21.8175 12.0734 21.739C11.0241 21.339 10.8685 20.3365 11.1797 19.5195C11.3283 19.1126 11.616 18.7715 11.9922 18.5564C12.3989 18.3412 12.8786 18.3115 13.3087 18.4749C13.7388 18.6383 14.0779 18.9791 14.239 19.4102C14.3848 19.8211 14.3774 20.2708 14.2185 20.6769C13.9741 21.3227 13.4328 21.8609 12.6984 21.8609L12.6985 21.8608ZM12.7284 18.9914C12.2665 18.9914 11.9159 19.3432 11.7659 19.7414C11.6714 19.9914 11.4308 20.824 12.2984 21.1545C13.1659 21.4851 13.5415 20.7021 13.6359 20.4539C13.7395 20.1876 13.7457 19.8934 13.6533 19.6233C13.5609 19.3619 13.3565 19.1554 13.096 19.0608C12.9788 19.0152 12.8542 18.9916 12.7283 18.9914L12.7284 18.9914Z" fill="white"/>
<path d="M22.5621 6.93764C22.5083 6.93764 22.4552 6.92358 22.4083 6.89701C20.6871 5.92444 18.8827 6.73384 18.8652 6.74255C18.7083 6.81487 18.5226 6.74612 18.4505 6.5892C18.3784 6.43228 18.4472 6.24657 18.6041 6.17447C18.6891 6.13519 20.7197 5.22516 22.7159 6.35327C22.8393 6.42313 22.9001 6.56755 22.8639 6.7046C22.8279 6.84188 22.7038 6.93741 22.5621 6.93764L22.5621 6.93764Z" fill="white"/>
<path d="M10.1055 16.994C10.0676 16.994 10.0298 16.9869 9.99435 16.9733L8.4763 16.3927C8.33255 16.3206 8.26692 16.1514 8.32452 16.0012C8.38233 15.8512 8.54438 15.7693 8.69929 15.8121L9.92563 16.2815L12.9031 8.49355L11.6767 8.0248H11.6769C11.518 7.96163 11.4397 7.78261 11.5006 7.62302C11.5615 7.46319 11.7394 7.38217 11.8999 7.4411L13.418 8.02167C13.4954 8.05136 13.5579 8.11051 13.5917 8.18618C13.6256 8.26207 13.6278 8.34801 13.5981 8.42546L10.3974 16.7935C10.351 16.9144 10.2349 16.9941 10.1055 16.9941L10.1055 16.994Z" fill="white"/>
<path d="M8.27074 17.0684C8.23257 17.0684 8.19485 17.0612 8.15936 17.0478L4.83194 15.7746C4.67256 15.713 4.59198 15.5349 4.65136 15.3746L8.48752 5.34149C8.51721 5.26403 8.57636 5.20154 8.65225 5.16783C8.72792 5.1339 8.81386 5.13167 8.89131 5.16136L12.2181 6.43701C12.2958 6.46648 12.3583 6.52563 12.3922 6.60152C12.4261 6.67719 12.4284 6.76335 12.3989 6.84081L8.5632 16.8671C8.517 16.9885 8.40048 17.0686 8.27079 17.0684L8.27074 17.0684ZM5.34686 15.3028L8.09063 16.3521L11.7031 6.90637L8.95937 5.85706L5.34686 15.3028Z" fill="white"/>
<path d="M30.0189 16.9942C29.8895 16.9942 29.7734 16.9145 29.7272 16.7935L26.5265 8.42554C26.4968 8.34808 26.4993 8.26192 26.533 8.18625C26.5669 8.11036 26.6296 8.05121 26.7071 8.02174L28.2245 7.44117C28.3022 7.41015 28.3893 7.41171 28.4658 7.44519C28.5424 7.4789 28.6022 7.54184 28.6321 7.61997C28.662 7.69809 28.6593 7.78492 28.6247 7.86104C28.5899 7.93716 28.5263 7.99609 28.4477 8.02488L27.2221 8.49363L30.1995 16.2788L31.4252 15.8125C31.5028 15.7814 31.5897 15.783 31.6665 15.8167C31.743 15.8502 31.8028 15.9131 31.8328 15.9913C31.8627 16.0694 31.86 16.1562 31.8252 16.2323C31.7906 16.3084 31.7269 16.3674 31.6484 16.3962L30.131 16.9767H30.1307C30.095 16.9897 30.0571 16.9955 30.0189 16.9944L30.0189 16.9942Z" fill="white"/>
<path d="M31.8533 17.0687C31.7236 17.0687 31.6075 16.9886 31.5613 16.8674L27.7258 6.83821C27.6961 6.76075 27.6984 6.67482 27.7321 6.59893C27.7658 6.52326 27.8283 6.4641 27.9057 6.43442L31.2332 5.16184C31.3106 5.13216 31.3968 5.13439 31.4725 5.16832C31.5481 5.20202 31.6073 5.26452 31.637 5.34198L35.4727 15.3751C35.5341 15.5361 35.4535 15.7164 35.2926 15.7783L31.9651 17.0515C31.9292 17.064 31.8912 17.07 31.8533 17.0689L31.8533 17.0687ZM28.4207 6.90698L32.0339 16.3527L34.7776 15.3034L31.1645 5.85766L28.4207 6.90698Z" fill="white"/>
<path d="M32.8475 14.7831C32.7151 14.7829 32.597 14.6992 32.553 14.5742L32.4075 14.1617C32.3798 14.0835 32.3845 13.9976 32.4202 13.9228C32.4559 13.848 32.52 13.7907 32.5981 13.763C32.7609 13.7056 32.9394 13.7909 32.9968 13.9536L33.1423 14.3661H33.1426C33.17 14.4442 33.1656 14.5302 33.1298 14.605C33.0941 14.6797 33.0301 14.7373 32.9519 14.7648C32.9185 14.7771 32.8832 14.7831 32.8475 14.7831H32.8475Z" fill="white"/>
<path d="M7.26271 14.7831C7.22722 14.7831 7.19218 14.7768 7.15892 14.7648C6.99731 14.7061 6.91361 14.528 6.97142 14.3661L7.11696 13.9536C7.17455 13.7909 7.35312 13.7056 7.51584 13.763C7.67857 13.8204 7.76383 13.9989 7.70647 14.1617L7.56093 14.5742H7.56071C7.51629 14.7005 7.39642 14.7844 7.26272 14.7831L7.26271 14.7831Z" fill="white"/>
<path d="M20 4.40446C19.8275 4.40446 19.6875 4.26451 19.6875 4.09196V0.937503C19.6875 0.76496 19.8275 0.625 20 0.625C20.1726 0.625 20.3125 0.764954 20.3125 0.937503V4.09196C20.3125 4.17477 20.2797 4.25423 20.221 4.31294C20.1623 4.37142 20.0828 4.40446 20 4.40446Z" fill="white"/>
<path d="M20 31.2502C19.8275 31.2502 19.6875 31.1102 19.6875 30.9377V27.7832C19.6875 27.6107 19.8275 27.4707 20 27.4707C20.1726 27.4707 20.3125 27.6107 20.3125 27.7832V30.9377C20.3125 31.0205 20.2797 31.1 20.221 31.1587C20.1623 31.2174 20.0828 31.2502 20 31.2502Z" fill="white"/>
<path d="M30.6069 26.8574C30.5239 26.8574 30.4442 26.8243 30.3857 26.7654L28.1551 24.5348H28.1549C28.0946 24.4766 28.0603 24.3967 28.0596 24.3128C28.0589 24.229 28.0919 24.1485 28.1511 24.0891C28.2105 24.0299 28.2911 23.9969 28.3748 23.9976C28.4587 23.9982 28.5386 24.0326 28.5969 24.0929L30.8275 26.3234V26.3237C30.917 26.413 30.944 26.5473 30.8955 26.6643C30.8473 26.781 30.7333 26.8574 30.6069 26.8574V26.8574Z" fill="white"/>
<path d="M9.39344 26.8574C9.26711 26.8574 9.15304 26.7811 9.10482 26.6643C9.05639 26.5474 9.0834 26.413 9.17291 26.3237L11.4035 24.0931V24.0929C11.4617 24.0326 11.5416 23.9982 11.6256 23.9976C11.7093 23.9969 11.7899 24.0299 11.8492 24.0891C11.9084 24.1485 11.9414 24.229 11.9408 24.3128C11.9401 24.3967 11.9057 24.4766 11.8454 24.5349L9.61464 26.7654C9.55616 26.8244 9.47647 26.8574 9.39344 26.8574L9.39344 26.8574Z" fill="white"/>
<path d="M15.5236 5.33886C15.3964 5.33863 15.2819 5.26162 15.2341 5.14377L14.5392 3.43753C14.506 3.36052 14.5051 3.27325 14.537 3.19557C14.5689 3.11789 14.6305 3.05628 14.7084 3.02459C14.7861 2.99289 14.8734 2.99378 14.9504 3.02726C15.0274 3.06052 15.0879 3.12347 15.1178 3.20182L15.8129 4.90805C15.8522 5.00448 15.841 5.11408 15.783 5.20046C15.7249 5.28707 15.6276 5.33886 15.5236 5.33886L15.5236 5.33886Z" fill="white"/>
<path d="M25.1743 29.0252C25.0471 29.0252 24.9328 28.9479 24.885 28.8301L24.1243 26.9651C24.0634 26.8064 24.1406 26.6278 24.2982 26.5637C24.4558 26.4995 24.6357 26.5731 24.7031 26.7296L25.4632 28.5946C25.4945 28.6714 25.494 28.7573 25.4619 28.8339C25.4297 28.9102 25.3686 28.9707 25.2918 29.0019C25.2545 29.0173 25.2148 29.0252 25.1744 29.0252L25.1743 29.0252Z" fill="white"/>
<path d="M7.1878 21.4742C7.04003 21.4731 6.91347 21.3684 6.88423 21.2238C6.85476 21.0789 6.93088 20.9334 7.06659 20.8749L8.93156 20.1124C9.00857 20.0791 9.09584 20.0785 9.17352 20.1102C9.2512 20.1421 9.31281 20.2039 9.34451 20.2816C9.3762 20.3593 9.37531 20.4465 9.34183 20.5236C9.30857 20.6006 9.24562 20.6611 9.16727 20.6912L7.30208 21.4513C7.26592 21.466 7.22708 21.4738 7.18779 21.4742H7.1878Z" fill="white"/>
<path d="M32.6214 21.6093C32.5801 21.6093 32.539 21.6006 32.5009 21.5843L30.6446 20.803C30.4855 20.7361 30.4107 20.5528 30.4777 20.3937C30.5446 20.2345 30.7281 20.1597 30.887 20.2267L32.7433 21.0086C32.8808 21.0664 32.9582 21.2129 32.9285 21.3588C32.8991 21.5048 32.7705 21.6097 32.6214 21.6093V21.6093Z" fill="white"/>
<path d="M24.5387 5.28459C24.4972 5.28482 24.4561 5.27633 24.418 5.26026C24.3414 5.22834 24.2805 5.16718 24.249 5.09039C24.2175 5.01361 24.2177 4.92745 24.2499 4.85089L24.9642 3.15403C24.9945 3.07479 25.0555 3.01117 25.1334 2.97792C25.2113 2.94443 25.2994 2.94421 25.3776 2.97725C25.4557 3.01006 25.5171 3.07345 25.5476 3.15247C25.5782 3.23149 25.5755 3.31966 25.5398 3.39644L24.8267 5.0933C24.778 5.20936 24.6644 5.28459 24.5387 5.28459H24.5387Z" fill="white"/>
<path d="M14.5629 28.9922C14.5214 28.992 14.4806 28.9837 14.4424 28.9676C14.3658 28.9355 14.3053 28.8743 14.2741 28.7975C14.2428 28.7208 14.2433 28.6348 14.2754 28.5583L15.0567 26.702C15.1236 26.5431 15.3069 26.4683 15.4661 26.5353C15.6252 26.6023 15.7 26.7855 15.633 26.9447L14.8511 28.8009C14.8022 28.9167 14.6886 28.9922 14.5629 28.9922L14.5629 28.9922Z" fill="white"/>
</svg>
