<svg width="247" height="195" viewBox="0 0 247 195" fill="none" xmlns="http://www.w3.org/2000/svg">
<path fill-rule="evenodd" clip-rule="evenodd" d="M243 8C240.791 8 239 6.20914 239 4C239 1.79086 240.791 0 243 0C245.209 0 247 1.79086 247 4C247 6.20914 245.209 8 243 8ZM9 33.5C9 34.8807 10.1193 36 11.5 36C12.8807 36 14 34.8807 14 33.5C14 32.1193 12.8807 31 11.5 31C10.1193 31 9 32.1193 9 33.5ZM2.5 57C1.11929 57 0 55.8807 0 54.5C0 53.1193 1.11929 52 2.5 52C3.88071 52 5 53.1193 5 54.5C5 55.8807 3.88071 57 2.5 57ZM0 74.5C0 75.8807 1.11929 77 2.5 77C3.88071 77 5 75.8807 5 74.5C5 73.1193 3.88071 72 2.5 72C1.11929 72 0 73.1193 0 74.5ZM2 96C0.895432 96 0 95.1046 0 94C0 92.8954 0.895432 92 2 92C3.10457 92 4 92.8954 4 94C4 95.1046 3.10457 96 2 96ZM0 114C0 115.105 0.895432 116 2 116C3.10457 116 4 115.105 4 114C4 112.895 3.10457 112 2 112C0.895432 112 0 112.895 0 114ZM2 136C0.895432 136 0 135.105 0 134C0 132.895 0.895432 132 2 132C3.10457 132 4 132.895 4 134C4 135.105 3.10457 136 2 136ZM0 154C0 155.105 0.895432 156 2 156C3.10457 156 4 155.105 4 154C4 152.895 3.10457 152 2 152C0.895432 152 0 152.895 0 154ZM1.5 175C0.67157 175 0 174.328 0 173.5C0 172.672 0.67157 172 1.5 172C2.32843 172 3 172.672 3 173.5C3 174.328 2.32843 175 1.5 175ZM0 193.5C0 194.328 0.67157 195 1.5 195C2.32843 195 3 194.328 3 193.5C3 192.672 2.32843 192 1.5 192C0.67157 192 0 192.672 0 193.5ZM32.5 31C31.1193 31 30 29.8807 30 28.5C30 27.1193 31.1193 26 32.5 26C33.8807 26 35 27.1193 35 28.5C35 29.8807 33.8807 31 32.5 31ZM51 28.5C51 29.8807 52.1193 31 53.5 31C54.8807 31 56 29.8807 56 28.5C56 27.1193 54.8807 26 53.5 26C52.1193 26 51 27.1193 51 28.5ZM74 32C72.3431 32 71 30.6569 71 29C71 27.3431 72.3431 26 74 26C75.6569 26 77 27.3431 77 29C77 30.6569 75.6569 32 74 32ZM92 29C92 30.6569 93.3431 32 95 32C96.6569 32 98 30.6569 98 29C98 27.3431 96.6569 26 95 26C93.3431 26 92 27.3431 92 29ZM116 32C114.343 32 113 30.6569 113 29C113 27.3431 114.343 26 116 26C117.657 26 119 27.3431 119 29C119 30.6569 117.657 32 116 32ZM134 29C134 30.6569 135.343 32 137 32C138.657 32 140 30.6569 140 29C140 27.3431 138.657 26 137 26C135.343 26 134 27.3431 134 29ZM158 32C156.343 32 155 30.6569 155 29C155 27.3431 156.343 26 158 26C159.657 26 161 27.3431 161 29C161 30.6569 159.657 32 158 32ZM175 28.5C175 30.433 176.567 32 178.5 32C180.433 32 182 30.433 182 28.5C182 26.567 180.433 25 178.5 25C176.567 25 175 26.567 175 28.5ZM198.5 32C196.567 32 195 30.433 195 28.5C195 26.567 196.567 25 198.5 25C200.433 25 202 26.567 202 28.5C202 30.433 200.433 32 198.5 32ZM216 28.5C216 30.433 217.567 32 219.5 32C221.433 32 223 30.433 223 28.5C223 26.567 221.433 25 219.5 25C217.567 25 216 26.567 216 28.5ZM240 29C237.791 29 236 27.2091 236 25C236 22.7909 237.791 21 240 21C242.209 21 244 22.7909 244 25C244 27.2091 242.209 29 240 29Z" fill="url(#paint0_linear_679_2325)"/>
<defs>
<linearGradient id="paint0_linear_679_2325" x1="242.27" y1="0.999933" x2="-20.83" y2="28.0669" gradientUnits="userSpaceOnUse">
<stop stop-color="#C6C3C3" stop-opacity="0.53"/>
<stop offset="1" stop-color="#70AAEF" stop-opacity="0.25"/>
</linearGradient>
</defs>
</svg>
