<svg width="23" height="20" viewBox="0 0 23 20" fill="none" xmlns="http://www.w3.org/2000/svg">
<path d="M22.3075 6.43549C22.3089 6.43549 19.0223 0.953669 19.0223 0.953669C18.8293 0.632078 18.3648 0.368896 17.9898 0.368896H4.82205C4.44705 0.368896 3.9825 0.632078 3.78955 0.953442L0.500458 6.43549C0.500458 6.43549 0.307958 6.7964 0.642276 7.17821L10.9539 18.9541C11.0775 19.0953 11.2402 19.1657 11.4032 19.1657C11.5661 19.1657 11.7291 19.0953 11.8525 18.9541L22.1509 7.1989C22.1561 7.19185 22.1598 7.18503 22.1659 7.17821C22.5 6.7964 22.3075 6.43549 22.3075 6.43549ZM8.22069 6.50185L9.52432 1.05094H13.2877L14.5927 6.50185H8.22069ZM14.6836 7.1864L11.4064 17.6453L8.12978 7.1864H14.6836ZM4.37409 1.30435C4.44387 1.18821 4.68659 1.05071 4.82205 1.05071H8.82319L7.51955 6.50162H1.25591L4.37409 1.30435ZM7.41523 7.1864L10.6798 17.6059L1.55591 7.1864H7.41523ZM12.1366 17.5948L15.3984 7.1864H21.2552L12.1366 17.5948ZM15.2939 6.50185L13.9889 1.05094H17.9898C18.1252 1.05094 18.368 1.18844 18.4377 1.30458L21.5555 6.50185H15.2939Z" fill="#0D4689"/>
</svg>
