<svg width="40" height="34" viewBox="0 0 40 34" fill="none" xmlns="http://www.w3.org/2000/svg">
<path d="M33.9119 25.2235H20.6079C20.3644 25.2235 20.1307 25.1256 19.9583 24.9508C19.7858 24.7761 19.6887 24.539 19.6885 24.2918V23.4936C19.6887 23.2465 19.7856 23.0099 19.9577 22.8354C20.1295 22.6609 20.3628 22.5627 20.6059 22.5625H33.9122C34.1555 22.5627 34.3885 22.6609 34.5606 22.8354C34.7327 23.0099 34.8294 23.2465 34.8298 23.4936V24.2918C34.8294 24.5388 34.7327 24.7757 34.5606 24.9502C34.3887 25.1249 34.1555 25.2231 33.9122 25.2235L33.9119 25.2235ZM20.6079 23.1971C20.4465 23.1971 20.3157 23.3297 20.3153 23.4935V24.2918C20.3157 24.4556 20.4465 24.5884 20.6079 24.5889H33.9119C34.0732 24.5884 34.2041 24.4556 34.2045 24.2918V23.4935C34.2041 23.3297 34.0732 23.1971 33.9119 23.1971H20.6079Z" fill="white"/>
<path d="M33.0049 31.7935H21.5747C21.3316 31.7932 21.0983 31.6949 20.9262 31.5201C20.7543 31.3456 20.6574 31.1088 20.6572 30.862V24.9062C20.6572 24.7308 20.7972 24.5889 20.9697 24.5889C21.1423 24.5889 21.2822 24.7307 21.2822 24.9062V30.862C21.2825 31.0258 21.4133 31.1584 21.5746 31.1589H33.0049C33.1661 31.1584 33.2967 31.0256 33.2967 30.862V24.9062C33.2967 24.7308 33.4366 24.5889 33.6092 24.5889C33.7817 24.5889 33.9217 24.7307 33.9217 24.9062V30.862C33.9215 31.1088 33.825 31.3456 33.6529 31.5201C33.4811 31.6949 33.248 31.7932 33.0049 31.7935H33.0049Z" fill="white"/>
<path d="M31.4922 30.2579C31.3196 30.2579 31.1797 30.1158 31.1797 29.9406V26.3178C31.1797 26.1424 31.3196 26.0005 31.4922 26.0005C31.665 26.0005 31.8047 26.1424 31.8047 26.3178V29.9406C31.8047 30.1158 31.665 30.2579 31.4922 30.2579Z" fill="white"/>
<path d="M23.0264 30.2579C22.8538 30.2579 22.7139 30.1158 22.7139 29.9406V26.3178C22.7139 26.1424 22.8538 26.0005 23.0264 26.0005C23.1989 26.0005 23.3389 26.1424 23.3389 26.3178V29.9406C23.3389 30.1158 23.1989 30.2579 23.0264 30.2579Z" fill="white"/>
<path d="M25.8682 30.2579C25.6956 30.2579 25.5557 30.1158 25.5557 29.9406V26.3178C25.5557 26.1424 25.6956 26.0005 25.8682 26.0005C26.0407 26.0005 26.1807 26.1424 26.1807 26.3178V29.9406C26.1807 30.1158 26.0407 30.2579 25.8682 30.2579Z" fill="white"/>
<path d="M28.6504 30.2579C28.4779 30.2579 28.3379 30.1158 28.3379 29.9406V26.3178C28.3379 26.1424 28.4778 26.0005 28.6504 26.0005C28.8229 26.0005 28.9629 26.1424 28.9629 26.3178V29.9406C28.9629 30.1158 28.8229 30.2579 28.6504 30.2579Z" fill="white"/>
<path d="M21.9677 23.1657C21.8333 23.1657 21.7139 23.0782 21.6713 22.9488C21.6289 22.8191 21.6726 22.6766 21.7802 22.5945L25.6507 19.6475H25.651C25.7889 19.5423 25.9849 19.5707 26.0884 19.711C26.192 19.851 26.1639 20.05 26.0259 20.1552L22.1554 23.1022H22.1552C22.1014 23.1437 22.0356 23.1659 21.9677 23.1657H21.9677Z" fill="white"/>
<path d="M32.6109 23.1657C32.5431 23.1659 32.4772 23.1437 32.4235 23.1022L28.5529 20.1552H28.5527C28.4148 20.05 28.3867 19.851 28.4902 19.711C28.5938 19.5707 28.7898 19.5423 28.9277 19.6475L32.7982 22.5945H32.7984C32.906 22.6766 32.9498 22.8191 32.9074 22.9488C32.8647 23.0782 32.7453 23.1657 32.6109 23.1657H32.6109Z" fill="white"/>
<path d="M32.4253 23.0359C32.3177 23.0359 32.2177 22.9797 32.1606 22.887C32.1034 22.7945 32.0972 22.6785 32.1441 22.5803L32.3396 22.1728H32.3398C33.5501 19.6107 33.955 16.7323 33.4992 13.9281C33.0436 11.1244 31.7494 8.53066 29.7925 6.49919C27.8354 4.46755 25.3102 3.09658 22.5594 2.5719C19.8087 2.04722 16.9656 2.39444 14.4159 3.56643C14.2599 3.6342 14.0789 3.56303 14.0086 3.4062C13.9383 3.24913 14.0043 3.06397 14.1572 2.98895C17.0653 1.64995 20.3315 1.34059 23.4338 2.11046C26.5353 2.88016 29.2932 4.68465 31.2647 7.23483C33.2363 9.78477 34.3082 12.9331 34.3087 16.1752C34.3142 18.3487 33.8334 20.495 32.9024 22.4519L32.7069 22.8598H32.7067C32.6535 22.9681 32.5446 23.0364 32.4254 23.0357L32.4253 23.0359Z" fill="white"/>
<path d="M20.0491 30.6511C17.1922 30.6529 14.4004 29.7828 12.0365 28.1539C9.67246 26.525 7.84498 24.2126 6.79121 21.5164C5.73744 18.8202 5.50595 15.8644 6.12669 13.0326C6.74767 10.2012 8.19212 7.62425 10.2731 5.63676C10.3985 5.51641 10.5965 5.52253 10.7148 5.6499C10.8334 5.7775 10.8273 5.97854 10.7017 6.09865C8.71395 7.99999 7.33447 10.4638 6.74184 13.1708C6.14944 15.8775 6.37108 18.7027 7.37824 21.2803C8.38561 23.8577 10.132 26.0683 12.3912 27.6266C14.6504 29.1843 17.3185 30.0172 20.0495 30.0174C20.3488 30.0174 20.652 30.0072 20.9495 29.9875C21.122 29.9762 21.2711 30.109 21.2823 30.2842C21.2935 30.4596 21.1627 30.6108 20.9901 30.6221C20.679 30.6425 20.3627 30.652 20.0495 30.652L20.0491 30.6511Z" fill="white"/>
<path d="M24.059 14.5957C23.9596 14.5957 23.8659 14.5487 23.8054 14.4687L22.1578 12.3643L22.1523 12.3562L21.9947 12.1418V12.1415C21.6208 11.6223 21.4498 10.9807 21.5143 10.3409C21.579 9.70086 21.8748 9.10795 22.3447 8.67662C22.8148 8.2451 23.4252 8.00579 24.059 8.0044C24.6924 8.00327 25.3038 8.24056 25.7753 8.6703C26.2467 9.10004 26.5447 9.69175 26.6117 10.3314C26.6786 10.9712 26.5099 11.6133 26.1378 12.1341L26.134 12.1397L25.967 12.3612L25.9632 12.3661L24.3181 14.4603L24.3183 14.4606C24.2666 14.5329 24.1878 14.5805 24.1003 14.5925C24.0866 14.5945 24.0728 14.5956 24.059 14.5956V14.5957ZM24.2933 14.0721V14.0753V14.0721ZM22.6503 11.9729L24.0596 13.7706L25.4722 11.9702L25.6347 11.7544C25.876 11.4188 26.0052 11.0138 26.0041 10.5983C26.0041 9.96689 25.7063 9.3738 25.2029 9.00323C24.6996 8.63244 24.0518 8.52909 23.4607 8.72514C22.8697 8.92118 22.407 9.39283 22.2163 9.99387C22.0257 10.5947 22.13 11.252 22.4971 11.7615L22.6503 11.9729Z" fill="white"/>
<path d="M32.7455 7.23475C32.6461 7.23475 32.5524 7.18783 32.4919 7.10783L30.8444 5.00278L30.8388 4.99463L30.6812 4.78022C30.3073 4.26076 30.1363 3.61912 30.2008 2.97933C30.2656 2.33953 30.5613 1.74639 31.0312 1.31507C31.5013 0.883538 32.1118 0.644233 32.7455 0.643072C33.379 0.641712 33.9903 0.879007 34.4618 1.30874C34.9332 1.73848 35.2312 2.33019 35.2982 2.97004C35.3651 3.6096 35.1964 4.25171 34.8243 4.77251L34.8205 4.77817L34.6535 4.9996L34.6497 5.00459L33.0046 7.09878L33.0049 7.09901C32.9531 7.1713 32.8743 7.21913 32.7868 7.23091C32.7732 7.23318 32.7593 7.23454 32.7455 7.23476V7.23475ZM31.3368 4.61202L32.7461 6.40973L34.1587 4.6093L34.3212 4.39353C34.5625 4.05787 34.6917 3.65284 34.6906 3.23741C34.6906 2.60598 34.3928 2.01289 33.8894 1.64231C33.3861 1.27153 32.7383 1.16818 32.1473 1.36422C31.5562 1.56027 31.0935 2.03192 30.9029 2.63296C30.7122 3.23376 30.8165 3.89107 31.1837 4.40055L31.3368 4.61202Z" fill="white"/>
<path d="M29.932 19.0376C29.8326 19.0376 29.7389 18.9906 29.6784 18.9106L28.0309 16.8062L28.0253 16.7981L27.8677 16.5837V16.5834C27.4938 16.0642 27.3228 15.4226 27.3874 14.7828C27.4521 14.1428 27.7479 13.5498 28.2177 13.1185C28.6878 12.687 29.2983 12.4477 29.932 12.4463C30.5654 12.4452 31.1768 12.6825 31.6482 13.1122C32.1197 13.5419 32.4177 14.1336 32.4846 14.7733C32.5516 15.4131 32.3828 16.0552 32.0107 16.576L32.007 16.5816L31.84 16.8031L31.8362 16.808L30.1911 18.9022L30.1913 18.9025C30.1396 18.9748 30.0608 19.0224 29.9733 19.0344C29.9597 19.0364 29.9458 19.0375 29.932 19.0375L29.932 19.0376ZM30.1664 18.514V18.5172V18.514ZM28.5233 16.4148L29.9326 18.2125L31.3451 16.4121L31.5076 16.1963C31.7489 15.8607 31.8782 15.4557 31.8771 15.0402C31.8771 14.4088 31.5793 13.8157 31.0759 13.4451C30.5726 13.0743 29.9248 12.971 29.3338 13.167C28.7427 13.3631 28.28 13.8347 28.0894 14.4358C27.8988 15.0366 28.003 15.6939 28.3702 16.2034L28.5233 16.4148Z" fill="white"/>
<path d="M15.184 24.5596C15.0846 24.5596 14.9909 24.5126 14.9304 24.4326L13.2828 22.3282L13.2773 22.3201L13.1197 22.1057V22.1054C12.7458 21.5862 12.5748 20.9446 12.6393 20.3048C12.704 19.6647 12.9998 19.0718 13.4697 18.6405C13.9398 18.209 14.5502 17.9697 15.184 17.9683C15.8174 17.9671 16.4288 18.2044 16.9002 18.6342C17.3717 19.0639 17.6697 19.6556 17.7366 20.2952C17.8036 20.935 17.6349 21.5772 17.2628 22.098L17.259 22.1036L17.092 22.325L17.0882 22.33L15.4431 24.4242L15.4433 24.4245C15.3916 24.4968 15.3128 24.5444 15.2253 24.5564C15.2116 24.5584 15.1978 24.5595 15.184 24.5595L15.184 24.5596ZM15.4183 24.036V24.0392V24.036ZM13.7752 21.9368L15.1846 23.7345L16.5971 21.9341L16.7596 21.7183C17.0009 21.3827 17.1302 20.9776 17.1291 20.5622C17.1291 19.9308 16.8313 19.3377 16.3279 18.9671C15.8246 18.5963 15.1768 18.493 14.5857 18.689C13.9947 18.8851 13.532 19.3567 13.3413 19.9577C13.1507 20.5586 13.255 21.2159 13.6221 21.7253L13.7752 21.9368Z" fill="white"/>
<path d="M12.433 8.6938C12.3337 8.6938 12.2399 8.64688 12.1794 8.56688L10.5319 6.46248L10.5263 6.45432L10.3687 6.23992V6.23969C9.99481 5.72045 9.82383 5.07882 9.88834 4.43903C9.95307 3.799 10.2488 3.20609 10.7187 2.77477C11.1888 2.34324 11.7993 2.10394 12.433 2.10254C13.0665 2.10141 13.6778 2.3387 14.1493 2.76844C14.6207 3.19818 14.9187 3.78989 14.9857 4.42951C15.0526 5.0693 14.8839 5.71141 14.5118 6.23221L14.508 6.23787L14.341 6.4593L14.3372 6.46429L12.6921 8.55848L12.6924 8.5587C12.6406 8.631 12.5618 8.6786 12.4743 8.69061C12.4607 8.69265 12.4468 8.69378 12.433 8.69378L12.433 8.6938ZM12.6674 8.17026V8.17343V8.17026ZM11.0243 6.07108L12.4336 7.86878L13.8462 6.06835L14.0087 5.85258C14.25 5.51692 14.3792 5.1119 14.3781 4.69647C14.3781 4.06503 14.0803 3.47195 13.5769 3.10137C13.0736 2.73059 12.4258 2.62723 11.8348 2.82328C11.2437 3.01933 10.781 3.49098 10.5904 4.09201C10.3997 4.69281 10.504 5.35013 10.8712 5.85961L11.0243 6.07108Z" fill="white"/>
<path d="M20 30.651C19.8275 30.651 19.6875 30.5089 19.6875 30.3337V2.03068C19.6875 1.85549 19.8275 1.71338 20 1.71338C20.1726 1.71338 20.3125 1.85548 20.3125 2.03068V30.3337C20.3125 30.4177 20.2797 30.4984 20.221 30.558C20.1623 30.6176 20.0828 30.651 20 30.651Z" fill="white"/>
<path d="M25.7396 19.0384H25.7233H25.7236C25.5512 19.0296 25.4186 18.8807 25.4271 18.706C25.4684 17.888 25.4896 17.0458 25.4896 16.2025C25.4896 14.8698 25.4378 13.5537 25.3358 12.2863H25.336C25.3291 12.2022 25.3555 12.1188 25.4093 12.0542C25.4631 11.9899 25.5398 11.95 25.6229 11.943C25.7954 11.9287 25.9468 12.059 25.9611 12.2342C26.0642 13.5186 26.1167 14.8537 26.1167 16.2023C26.1167 17.0565 26.0961 17.9094 26.0541 18.7375V18.7377C26.0454 18.9073 25.9068 19.0398 25.7396 19.0385L25.7396 19.0384Z" fill="white"/>
<path d="M25.1755 8.80736C25.0237 8.80714 24.894 8.69653 24.8679 8.54469C24.1974 4.6648 23.2154 2.63298 23.2054 2.61267C23.1286 2.45493 23.1924 2.26387 23.3476 2.1859C23.5029 2.10793 23.6911 2.17253 23.7679 2.33027C23.8098 2.41526 24.7998 4.46502 25.4859 8.43519H25.4862C25.5005 8.51792 25.4817 8.60336 25.4342 8.67226C25.3866 8.74116 25.3141 8.78807 25.2324 8.80258C25.2136 8.80598 25.1944 8.80756 25.1755 8.80756L25.1755 8.80736Z" fill="white"/>
<path d="M30.3745 21.3712C30.3535 21.3707 30.3325 21.3684 30.312 21.3641C30.1432 21.3276 30.0354 21.1592 30.0714 20.9879L30.1394 20.6597C30.3435 19.6339 30.4751 18.5948 30.5332 17.5502C30.543 17.375 30.691 17.241 30.8635 17.251C31.0361 17.261 31.168 17.411 31.1582 17.5864C31.0983 18.6618 30.9629 19.7314 30.7526 20.7873L30.6838 21.118C30.6537 21.2667 30.524 21.3727 30.3745 21.3711L30.3745 21.3712Z" fill="white"/>
<path d="M30.6256 13.0365C30.4714 13.036 30.3406 12.9213 30.3176 12.7668C29.4777 7.16396 26.7944 4.16233 26.7676 4.13216C26.6504 4.00319 26.6582 3.80239 26.785 3.6834C26.9118 3.56441 27.1098 3.57235 27.227 3.70131C27.3426 3.82823 30.0669 6.87816 30.935 12.6713C30.9607 12.8442 30.8435 13.0058 30.6732 13.0323C30.6574 13.0348 30.6415 13.0362 30.6257 13.0362L30.6256 13.0365Z" fill="white"/>
<path d="M16.7939 30.1969C16.6758 30.1971 16.5678 30.1296 16.5144 30.0224C16.4751 29.9431 15.5401 28.0297 14.8568 24.299H14.8571C14.8283 24.1281 14.9399 23.9654 15.108 23.9336C15.2758 23.9019 15.4376 24.013 15.4713 24.1829C16.1363 27.8147 17.0627 29.7184 17.0727 29.7375C17.1211 29.8358 17.116 29.9525 17.0593 30.0459C17.0026 30.1395 16.9021 30.1966 16.7939 30.1969L16.7939 30.1969Z" fill="white"/>
<path d="M14.519 18.5943C14.3513 18.5945 14.2136 18.4603 14.2065 18.2904C14.1783 17.6064 14.1641 16.9038 14.1641 16.2019C14.1641 7.2255 16.4172 2.52643 16.5134 2.3309C16.5487 2.2527 16.6136 2.19265 16.6933 2.16409C16.773 2.13553 16.8607 2.14097 16.9364 2.17905C17.0121 2.21735 17.0694 2.28511 17.0951 2.36694C17.1208 2.44876 17.1127 2.5376 17.0728 2.6133C17.0502 2.66021 14.789 7.39047 14.789 16.2017C14.789 16.8947 14.8033 17.5883 14.831 18.2635H14.8308C14.8344 18.3478 14.8049 18.4298 14.7486 18.4919C14.6926 18.5538 14.6143 18.5907 14.5314 18.5941L14.519 18.5943Z" fill="white"/>
<path d="M13.2831 28.8154C13.1958 28.8154 13.1123 28.7782 13.0532 28.7131C13.0126 28.6674 12.0389 27.5822 11.0588 25.49C10.1595 23.569 9.08691 20.3978 9.08691 16.1986C9.08691 11.9994 10.1588 8.79987 11.0581 6.85328C11.0878 6.76897 11.1512 6.70143 11.2327 6.66721C11.3141 6.63299 11.4061 6.63525 11.4858 6.67333C11.5655 6.71163 11.6255 6.78234 11.6512 6.86779C11.6769 6.95346 11.6659 7.04616 11.6206 7.12299C10.7494 9.01092 9.71193 12.1205 9.71193 16.1986C9.71193 23.9982 13.4751 28.2407 13.5132 28.2825V28.2823C13.5974 28.375 13.6195 28.5096 13.5697 28.6249C13.5197 28.7403 13.4072 28.8149 13.2831 28.8149L13.2831 28.8154Z" fill="white"/>
<path d="M26.364 11.1135C26.2015 11.1133 26.0663 10.9868 26.0529 10.8225C26.0393 10.6582 26.152 10.5109 26.312 10.4832C29.9995 9.84158 31.8283 8.80609 31.8464 8.79588C31.9964 8.70817 32.188 8.76075 32.2743 8.91305C32.3607 9.06535 32.3089 9.25981 32.1589 9.3473C32.0815 9.39172 30.2294 10.4465 26.4201 11.109H26.4203C26.4018 11.1121 26.3828 11.1137 26.364 11.1135L26.364 11.1135Z" fill="white"/>
<path d="M20.0247 11.6279C11.9201 11.6279 8.13553 9.31862 7.97838 9.22027V9.22005C7.90472 9.17767 7.85115 9.1065 7.83017 9.0231C7.80896 8.93969 7.82235 8.8513 7.86677 8.77787C7.91119 8.70466 7.98307 8.65276 8.06588 8.6344C8.14869 8.61582 8.2353 8.63236 8.30584 8.68018C8.35584 8.71123 12.1322 10.9933 20.0247 10.9933C20.6542 10.9933 21.2828 10.9792 21.8935 10.952C22.066 10.9443 22.2122 11.0801 22.2198 11.2553C22.2274 11.4305 22.0937 11.5789 21.9209 11.5866C21.3017 11.6138 20.6635 11.6279 20.0247 11.6279L20.0247 11.6279Z" fill="white"/>
<path d="M20.0412 7.00467C17.9387 7.00467 16.0412 6.61054 14.3988 5.83382H14.3986C14.2421 5.75971 14.1742 5.57092 14.247 5.41204C14.3198 5.25316 14.5059 5.18427 14.6624 5.25815C15.7336 5.76583 17.5374 6.37006 20.0412 6.37006C22.5762 6.37006 24.4106 5.7844 25.503 5.29123C26.6861 4.75884 27.2787 4.21878 27.285 4.21239C27.4131 4.10111 27.6051 4.11313 27.7187 4.23959C27.8323 4.36583 27.8267 4.5612 27.7062 4.68064C27.6042 4.77764 25.1511 7.00465 20.041 7.00465L20.0412 7.00467Z" fill="white"/>
<path d="M24.448 21.2773H24.4136C22.9554 21.1193 21.49 21.0416 20.0235 21.0446C19.1523 21.0446 18.2898 21.0717 17.461 21.1257C17.2884 21.1368 17.1395 21.004 17.1286 20.8288C17.1174 20.6534 17.2485 20.5022 17.421 20.4911C18.2641 20.4365 19.1397 20.4093 20.0241 20.4093C21.5134 20.4063 23.0016 20.4854 24.4824 20.6459C24.655 20.6554 24.7873 20.8052 24.778 20.9804C24.7686 21.1556 24.6213 21.29 24.4485 21.2805L24.448 21.2773Z" fill="white"/>
<path d="M8.01714 23.4021C7.87696 23.4024 7.75397 23.3076 7.7158 23.1707C7.67786 23.0338 7.73433 22.8879 7.8542 22.8138C7.92161 22.7719 9.54797 21.7819 12.9341 21.0807C13.1033 21.0457 13.2682 21.1564 13.3028 21.3281C13.3374 21.4999 13.2283 21.6677 13.0591 21.7026C9.7928 22.3784 8.1948 23.3462 8.17851 23.3564C8.12985 23.3863 8.07405 23.4019 8.01713 23.4021L8.01714 23.4021Z" fill="white"/>
<path d="M12.6454 28.0248C12.5188 28.0248 12.4048 27.9471 12.3565 27.8283C12.3083 27.7093 12.3356 27.5727 12.4255 27.4822C12.4981 27.4099 14.2293 25.7054 17.878 25.1812C18.0472 25.1598 18.2019 25.2802 18.2257 25.4515C18.2496 25.6231 18.1338 25.7822 17.9655 25.8094C16.1735 26.0678 14.8824 26.6312 14.1148 27.0589C13.2828 27.5221 12.8692 27.9301 12.8648 27.9339C12.8063 27.9924 12.7275 28.0248 12.6454 28.0248L12.6454 28.0248Z" fill="white"/>
<path d="M31.9082 16.4915C31.7357 16.4915 31.5957 16.3494 31.5957 16.1742C31.5957 15.9988 31.7357 15.8569 31.9082 15.8569H33.9995C34.1721 15.8569 34.312 15.9988 34.312 16.1742C34.312 16.3494 34.1721 16.4915 33.9995 16.4915H31.9082Z" fill="white"/>
<path d="M6.1045 16.4925C5.93195 16.4925 5.79199 16.3504 5.79199 16.1752C5.79199 16 5.93195 15.8579 6.1045 15.8579H27.9794C28.1519 15.8579 28.2919 16 28.2919 16.1752C28.2919 16.3504 28.1519 16.4925 27.9794 16.4925H6.1045Z" fill="white"/>
</svg>
