<svg width="247" height="263" viewBox="0 0 247 263" fill="none" xmlns="http://www.w3.org/2000/svg">
<path fill-rule="evenodd" clip-rule="evenodd" d="M243 8C240.791 8 239 6.20914 239 4C239 1.79086 240.791 0 243 0C245.209 0 247 1.79086 247 4C247 6.20914 245.209 8 243 8ZM9 33.5C9 34.8807 10.1193 36 11.5 36C12.8807 36 14 34.8807 14 33.5C14 32.1193 12.8807 31 11.5 31C10.1193 31 9 32.1193 9 33.5ZM2.5 57C1.11929 57 0 55.8807 0 54.5C0 53.1193 1.11929 52 2.5 52C3.88071 52 5 53.1193 5 54.5C5 55.8807 3.88071 57 2.5 57ZM0 74.5C0 75.8807 1.11929 77 2.5 77C3.88071 77 5 75.8807 5 74.5C5 73.1193 3.88071 72 2.5 72C1.11929 72 0 73.1193 0 74.5ZM2 96C0.895432 96 0 95.1046 0 94C0 92.8954 0.895432 92 2 92C3.10457 92 4 92.8954 4 94C4 95.1046 3.10457 96 2 96ZM0 114C0 115.105 0.895432 116 2 116C3.10457 116 4 115.105 4 114C4 112.895 3.10457 112 2 112C0.895432 112 0 112.895 0 114ZM2 136C0.895432 136 0 135.105 0 134C0 132.895 0.895432 132 2 132C3.10457 132 4 132.895 4 134C4 135.105 3.10457 136 2 136ZM0 154C0 155.105 0.895432 156 2 156C3.10457 156 4 155.105 4 154C4 152.895 3.10457 152 2 152C0.895432 152 0 152.895 0 154ZM1.5 175C0.67157 175 0 174.328 0 173.5C0 172.672 0.67157 172 1.5 172C2.32843 172 3 172.672 3 173.5C3 174.328 2.32843 175 1.5 175ZM0 193.5C0 194.328 0.67157 195 1.5 195C2.32843 195 3 194.328 3 193.5C3 192.672 2.32843 192 1.5 192C0.67157 192 0 192.672 0 193.5ZM1.5 215C0.67157 215 0 214.328 0 213.5C0 212.672 0.67157 212 1.5 212C2.32843 212 3 212.672 3 213.5C3 214.328 2.32843 215 1.5 215ZM3 233.5C3 234.328 3.67157 235 4.5 235C5.32843 235 6 234.328 6 233.5C6 232.672 5.32843 232 4.5 232C3.67157 232 3 232.672 3 233.5ZM11 251C10.4477 251 10 250.552 10 250C10 249.448 10.4477 249 11 249C11.5523 249 12 249.448 12 250C12 250.552 11.5523 251 11 251ZM30 28.5C30 29.8807 31.1193 31 32.5 31C33.8807 31 35 29.8807 35 28.5C35 27.1193 33.8807 26 32.5 26C31.1193 26 30 27.1193 30 28.5ZM53.5 31C52.1193 31 51 29.8807 51 28.5C51 27.1193 52.1193 26 53.5 26C54.8807 26 56 27.1193 56 28.5C56 29.8807 54.8807 31 53.5 31ZM71 29C71 30.6569 72.3431 32 74 32C75.6569 32 77 30.6569 77 29C77 27.3431 75.6569 26 74 26C72.3431 26 71 27.3431 71 29ZM95 32C93.3431 32 92 30.6569 92 29C92 27.3431 93.3431 26 95 26C96.6569 26 98 27.3431 98 29C98 30.6569 96.6569 32 95 32ZM113 29C113 30.6569 114.343 32 116 32C117.657 32 119 30.6569 119 29C119 27.3431 117.657 26 116 26C114.343 26 113 27.3431 113 29ZM137 32C135.343 32 134 30.6569 134 29C134 27.3431 135.343 26 137 26C138.657 26 140 27.3431 140 29C140 30.6569 138.657 32 137 32ZM155 29C155 30.6569 156.343 32 158 32C159.657 32 161 30.6569 161 29C161 27.3431 159.657 26 158 26C156.343 26 155 27.3431 155 29ZM178.5 32C176.567 32 175 30.433 175 28.5C175 26.567 176.567 25 178.5 25C180.433 25 182 26.567 182 28.5C182 30.433 180.433 32 178.5 32ZM195 28.5C195 30.433 196.567 32 198.5 32C200.433 32 202 30.433 202 28.5C202 26.567 200.433 25 198.5 25C196.567 25 195 26.567 195 28.5ZM219.5 32C217.567 32 216 30.433 216 28.5C216 26.567 217.567 25 219.5 25C221.433 25 223 26.567 223 28.5C223 30.433 221.433 32 219.5 32ZM236 25C236 27.2091 237.791 29 240 29C242.209 29 244 27.2091 244 25C244 22.7909 242.209 21 240 21C237.791 21 236 22.7909 236 25ZM19 263C18.4477 263 18 262.552 18 262C18 261.448 18.4477 261 19 261C19.5523 261 20 261.448 20 262C20 262.552 19.5523 263 19 263Z" fill="url(#paint0_linear_679_2298)"/>
<defs>
<linearGradient id="paint0_linear_679_2298" x1="242.27" y1="0.999933" x2="-20.83" y2="28.0669" gradientUnits="userSpaceOnUse">
<stop stop-color="#C6C3C3" stop-opacity="0.53"/>
<stop offset="1" stop-color="#70AAEF" stop-opacity="0.25"/>
</linearGradient>
</defs>
</svg>
