<svg width="464" height="114" viewBox="0 0 464 114" fill="none" xmlns="http://www.w3.org/2000/svg">
<path fill-rule="evenodd" clip-rule="evenodd" d="M464 5.57486C464 2.49595 461.504 0 458.425 0C455.346 0 452.85 2.49595 452.85 5.57486C452.85 8.65377 455.346 11.1497 458.425 11.1497C461.504 11.1497 464 8.65377 464 5.57486ZM464 39.8817C464 36.8028 461.504 34.3068 458.425 34.3068C455.346 34.3068 452.85 36.8028 452.85 39.8817C452.85 42.9606 455.346 45.4566 458.425 45.4566C461.504 45.4566 464 42.9606 464 39.8817ZM451.993 67.756C454.835 67.756 457.139 70.06 457.139 72.902C457.139 75.7441 454.835 78.0481 451.993 78.0481C449.151 78.0481 446.847 75.7441 446.847 72.902C446.847 70.06 449.151 67.756 451.993 67.756ZM427.121 87.4825C427.121 84.6404 424.817 82.3364 421.975 82.3364C419.133 82.3364 416.829 84.6404 416.829 87.4825C416.829 90.3245 419.133 92.6285 421.975 92.6285C424.817 92.6285 427.121 90.3245 427.121 87.4825ZM384.666 85.7671C387.271 85.7671 389.383 87.879 389.383 90.4843C389.383 93.0895 387.271 95.2015 384.666 95.2015C382.06 95.2015 379.948 93.0895 379.948 90.4843C379.948 87.879 382.06 85.7671 384.666 85.7671ZM346.927 85.7671C349.533 85.7671 351.645 87.879 351.645 90.4843C351.645 93.0895 349.533 95.2015 346.927 95.2015C344.322 95.2015 342.21 93.0895 342.21 90.4843C342.21 87.879 344.322 85.7671 346.927 85.7671ZM313.908 90.9131C313.908 88.5447 311.988 86.6248 309.62 86.6248C307.251 86.6248 305.331 88.5447 305.331 90.9131C305.331 93.2815 307.251 95.2015 309.62 95.2015C311.988 95.2015 313.908 93.2815 313.908 90.9131ZM271.882 86.6248C274.25 86.6248 276.17 88.5447 276.17 90.9131C276.17 93.2815 274.25 95.2015 271.882 95.2015C269.513 95.2015 267.593 93.2815 267.593 90.9131C267.593 88.5447 269.513 86.6248 271.882 86.6248ZM238.432 90.9131C238.432 88.5447 236.512 86.6248 234.143 86.6248C231.775 86.6248 229.855 88.5447 229.855 90.9131C229.855 93.2815 231.775 95.2015 234.143 95.2015C236.512 95.2015 238.432 93.2815 238.432 90.9131ZM196.836 86.6248C198.967 86.6248 200.695 88.3527 200.695 90.4843C200.695 92.6158 198.967 94.3438 196.836 94.3438C194.704 94.3438 192.976 92.6158 192.976 90.4843C192.976 88.3527 194.704 86.6248 196.836 86.6248ZM162.957 90.4843C162.957 88.3527 161.229 86.6248 159.098 86.6248C156.966 86.6248 155.238 88.3527 155.238 90.4843C155.238 92.6158 156.966 94.3438 159.098 94.3438C161.229 94.3438 162.957 92.6158 162.957 90.4843ZM121.361 86.6248C123.493 86.6248 125.221 88.3527 125.221 90.4843C125.221 92.6158 123.493 94.3438 121.361 94.3438C119.23 94.3438 117.502 92.6158 117.502 90.4843C117.502 88.3527 119.23 86.6248 121.361 86.6248ZM87.4824 90.0555C87.4824 88.1607 85.9464 86.6248 84.0517 86.6248C82.157 86.6248 80.6211 88.1607 80.6211 90.0555C80.6211 91.9502 82.157 93.4861 84.0517 93.4861C85.9464 93.4861 87.4824 91.9502 87.4824 90.0555ZM46.3134 87.4824C48.2082 87.4824 49.7441 89.0184 49.7441 90.9131C49.7441 92.8078 48.2082 94.3438 46.3134 94.3438C44.4187 94.3438 42.8828 92.8078 42.8828 90.9131C42.8828 89.0184 44.4187 87.4824 46.3134 87.4824ZM22.4375 92.1996C22.4375 90.5417 21.0935 89.1978 19.4356 89.1978C17.7778 89.1978 16.4338 90.5417 16.4338 92.1996C16.4338 93.8575 17.7778 95.2015 19.4356 95.2015C21.0935 95.2015 22.4375 93.8575 22.4375 92.1996ZM3.43091 108.067C4.85193 108.067 6.00391 109.219 6.00391 110.64C6.00391 112.061 4.85193 113.213 3.43091 113.213C2.00986 113.213 0.85788 112.061 0.85788 110.64C0.85788 109.219 2.00986 108.067 3.43091 108.067Z" fill="url(#paint0_linear_444_331)"/>
<defs>
<linearGradient id="paint0_linear_444_331" x1="453.299" y1="-1.88544e-05" x2="39.9219" y2="185.414" gradientUnits="userSpaceOnUse">
<stop stop-color="#C6C3C3" stop-opacity="0.53"/>
<stop offset="1" stop-color="#70AAEF" stop-opacity="0.25"/>
</linearGradient>
</defs>
</svg>
