<svg width="27" height="27" viewBox="0 0 27 27" fill="none" xmlns="http://www.w3.org/2000/svg">
<rect width="27" height="27" rx="3" fill="#4A8FE0"/>
<path d="M6.70696 13.814C6.66306 13.7684 6.62858 13.7146 6.60549 13.6556C6.58239 13.5966 6.57113 13.5337 6.57236 13.4704C6.57483 13.3426 6.62799 13.2209 6.72014 13.1323C6.81229 13.0436 6.93589 12.9952 7.06374 12.9977C7.1916 13.0001 7.31323 13.0533 7.40189 13.1454L12.519 18.4651V6.40958C12.519 6.28171 12.5698 6.15907 12.6602 6.06865C12.7507 5.97823 12.8733 5.92744 13.0012 5.92744C13.129 5.92744 13.2517 5.97823 13.3421 6.06865C13.4325 6.15907 13.4833 6.28171 13.4833 6.40958V18.4638L18.5992 13.1448C18.6431 13.0992 18.6955 13.0626 18.7536 13.0373C18.8116 13.0119 18.874 12.9982 18.9373 12.997C19.0006 12.9958 19.0636 13.007 19.1225 13.0301C19.1815 13.0532 19.2353 13.0877 19.2809 13.1316C19.3266 13.1755 19.3631 13.228 19.3884 13.286C19.4138 13.344 19.4275 13.4065 19.4287 13.4698C19.4299 13.5331 19.4187 13.596 19.3956 13.655C19.3725 13.7139 19.338 13.7677 19.2941 13.8134L13.464 19.8742C13.4041 19.9365 13.3321 19.9861 13.2525 20.02C13.1729 20.0538 13.0873 20.0713 13.0009 20.0713C12.9144 20.0713 12.8288 20.0538 12.7492 20.02C12.6696 19.9861 12.5977 19.9365 12.5377 19.8742L6.70696 13.8134V13.814Z" fill="white"/>
</svg>
