<svg width="20" height="20" viewBox="0 0 20 20" fill="none" xmlns="http://www.w3.org/2000/svg">
<path d="M10.9998 0.0297852C15.7298 0.499785 19.4998 4.24979 19.9498 8.99979C20.0816 10.3054 19.9545 11.6243 19.5757 12.8807C19.197 14.1372 18.5741 15.3065 17.7427 16.3219C16.9113 17.3372 15.8878 18.1785 14.7307 18.7976C13.5736 19.4167 12.3058 19.8015 10.9998 19.9298V17.9298C14.6398 17.4998 17.4998 14.6098 17.9598 10.9698C18.0893 9.92696 18.012 8.86883 17.7322 7.85592C17.4524 6.84301 16.9757 5.89521 16.3292 5.06673C15.6828 4.23825 14.8794 3.54535 13.9649 3.02767C13.0504 2.50999 12.0428 2.17769 10.9998 2.04979V0.0297852ZM8.9998 0.0597851V2.05979C7.5698 2.25979 6.2198 2.83979 5.0998 3.73978L3.6698 2.25979C5.18651 1.00998 7.04312 0.243646 8.9998 0.0597851ZM2.2598 3.66979L3.6898 5.09978C2.80379 6.22949 2.2374 7.57639 2.0498 8.99979H0.0498047C0.249805 7.03979 0.999805 5.18979 2.2598 3.66979ZM0.0598047 10.9998H2.0598C2.2398 12.4198 2.8098 13.7698 3.6898 14.8998L2.2698 16.3298C1.02748 14.8076 0.259078 12.9544 0.0598047 10.9998ZM5.0998 16.3698C6.2298 17.2498 7.5798 17.8198 8.9998 17.9998V19.9998C7.0398 19.7898 5.1798 18.9998 3.6698 17.7398L5.0998 16.3698ZM9.9998 14.4998L5.4998 9.99979H8.9998V5.99979H10.9998V9.99979H14.4998L9.9998 14.4998Z" fill="#0D4689"/>
</svg>
