<svg width="29" height="25" viewBox="0 0 29 25" fill="none" xmlns="http://www.w3.org/2000/svg">
<path d="M14.3043 5.39355C11.1863 5.39355 8.17363 6.70119 6.03877 8.98124C5.98463 9.03919 5.95443 9.11545 5.95443 9.19475V9.96646H4.79672C4.62423 9.96646 4.48438 10.1063 4.48438 10.2788V17.5794C4.48438 17.673 4.52647 17.7618 4.59891 17.8211L5.95443 18.9308V19.4647C5.95443 19.6372 6.09429 19.7771 6.26678 19.7771H6.36957V20.9089C6.36957 21.0814 6.50942 21.2212 6.68192 21.2212H24.4922C24.6647 21.2212 24.8046 21.0814 24.8046 20.9089V19.7771H24.9696C25.1122 19.7771 25.2366 19.6805 25.2722 19.5425C25.5081 18.6244 25.6277 17.6738 25.6277 16.7169C25.6277 10.4733 20.548 5.39355 14.3043 5.39355ZM5.95443 18.1235L5.10906 17.4314V10.5912H5.95443V18.1235ZM24.1799 20.5965H6.99426V19.7771H24.1799V20.5965ZM24.7245 19.1524H6.57912V9.3192C8.61744 7.18953 11.3559 6.01824 14.3043 6.01824C20.2036 6.01824 25.003 10.8176 25.003 16.7169C25.003 17.54 24.9093 18.3581 24.7245 19.1524Z" fill="#0D4689"/>
<path d="M14.3116 7.50903C11.8954 7.50903 9.5609 8.52232 7.90661 10.2892C7.85246 10.3471 7.82227 10.4234 7.82227 10.5027V11.2015C7.82227 11.374 7.96212 11.5138 8.13461 11.5138H21.0777C21.196 11.5138 21.3043 11.4469 21.3571 11.341C21.41 11.235 21.3984 11.1083 21.3273 11.0138C19.6515 8.78647 17.0945 7.50903 14.3116 7.50903ZM8.44695 10.8891V10.6274C9.99754 9.01829 12.0754 8.13372 14.3116 8.13372C16.6804 8.13372 18.873 9.13008 20.4209 10.8891H8.44695Z" fill="#0D4689"/>
<path d="M10.4232 12.6741C9.39942 12.6741 8.56641 13.5069 8.56641 14.5307C8.56641 15.5546 9.39942 16.3874 10.4232 16.3874C11.447 16.3874 12.2799 15.5546 12.2799 14.5307C12.2799 13.5069 11.447 12.6741 10.4232 12.6741ZM10.4232 15.7627C9.7438 15.7627 9.19109 15.21 9.19109 14.5307C9.19109 13.96 9.58318 13.4831 10.1109 13.3438V14.956C10.1109 15.1284 10.2507 15.2683 10.4232 15.2683C10.5957 15.2683 10.7356 15.1284 10.7356 14.956V13.3439C11.2632 13.4831 11.6552 13.96 11.6552 14.5307C11.6552 15.21 11.1025 15.7627 10.4232 15.7627Z" fill="#0D4689"/>
</svg>
