<svg width="26" height="26" viewBox="0 0 26 26" fill="none" xmlns="http://www.w3.org/2000/svg">
<rect width="26" height="26" rx="2" fill="#C83138"/>
<path d="M17.8235 15.2501L15.2378 17.6837C15.1112 17.8073 15.0382 17.9756 15.0345 18.1524C15.0308 18.3293 15.0966 18.5005 15.2179 18.6293C15.3391 18.7581 15.5061 18.8342 15.6828 18.8411C15.8596 18.8481 16.032 18.7854 16.163 18.6665L19.988 15.0665C20.055 15.0034 20.1084 14.9272 20.1449 14.8427C20.1814 14.7582 20.2002 14.6671 20.2002 14.5751C20.2002 14.483 20.1814 14.392 20.1449 14.3075C20.1084 14.223 20.055 14.1468 19.988 14.0837L16.163 10.4837C16.0988 10.421 16.0228 10.3718 15.9394 10.3389C15.856 10.3059 15.7668 10.2899 15.6772 10.2918C15.5875 10.2937 15.4991 10.3134 15.4172 10.3498C15.3352 10.3863 15.2614 10.4387 15.1999 10.504C15.1384 10.5693 15.0906 10.6462 15.0592 10.7301C15.0277 10.8141 15.0134 10.9036 15.0169 10.9932C15.0204 11.0828 15.0418 11.1708 15.0797 11.2521C15.1176 11.3333 15.1713 11.4062 15.2378 11.4665L17.8235 13.9001H8.72536C8.30764 13.9001 7.90704 13.7342 7.61167 13.4388C7.3163 13.1434 7.15036 12.7428 7.15036 12.3251V8.2751C7.15036 8.09608 7.07925 7.92439 6.95266 7.7978C6.82607 7.67121 6.65438 7.6001 6.47536 7.6001C6.29634 7.6001 6.12465 7.67121 5.99806 7.7978C5.87148 7.92439 5.80036 8.09608 5.80036 8.2751V12.3251C5.80036 13.1009 6.10853 13.8448 6.65707 14.3934C7.20562 14.9419 7.9496 15.2501 8.72536 15.2501H17.8235Z" fill="white"/>
</svg>
