<svg width="25" height="20" viewBox="0 0 25 20" fill="none" xmlns="http://www.w3.org/2000/svg">
<path d="M21.5989 5.94876L21.4404 5.02517C21.4181 4.89451 21.4615 4.76123 21.5564 4.66866L22.4002 3.84616V3.84602C22.5901 3.66102 22.7038 3.41165 22.7189 3.1469C22.7339 2.88227 22.6492 2.62148 22.4815 2.41613C22.3137 2.21077 22.0752 2.07584 21.8128 2.03775L20.6464 1.86815C20.5154 1.84931 20.4021 1.76733 20.3431 1.64905L19.8217 0.591475C19.7043 0.353661 19.502 0.168376 19.2548 0.0722494C19.0077 -0.0237576 18.7334 -0.0237576 18.4862 0.0722494C18.2389 0.168394 18.0367 0.353665 17.9194 0.591475L17.3979 1.64852H17.398C17.3782 1.68662 17.3526 1.72128 17.3219 1.75113H3.12897C2.80945 1.7514 2.50316 1.87849 2.27717 2.10447C2.05132 2.33046 1.92425 2.63676 1.92383 2.95627V14.3503C1.92424 14.6698 2.05133 14.9761 2.27717 15.2021C2.50316 15.4281 2.80946 15.5551 3.12897 15.5554H7.62087V16.5415C7.62087 16.803 7.72472 17.0538 7.90971 17.2387C8.09457 17.4237 8.34545 17.5275 8.60693 17.5275H13.7862C13.9677 17.5275 14.1147 17.3804 14.1147 17.1988C14.1147 17.0174 13.9677 16.8702 13.7862 16.8702H8.60693C8.42537 16.8702 8.2782 16.723 8.2782 16.5415V9.09149C8.2782 8.90993 8.42537 8.7629 8.60693 8.7629H16.7143C16.8959 8.7629 17.0431 8.90993 17.0431 9.09149V16.5415C17.0431 16.723 16.8959 16.8702 16.7143 16.8702H15.388C15.2064 16.8702 15.0594 17.0174 15.0594 17.1988C15.0594 17.3804 15.2064 17.5275 15.388 17.5275H16.7143C16.9758 17.5275 17.2267 17.4237 17.4115 17.2387C17.5965 17.0538 17.7004 16.803 17.7004 16.5415V15.5554H18.0291C18.3486 15.5551 18.6549 15.4281 18.8809 15.2021C19.1068 14.9761 19.2338 14.6698 19.2343 14.3503V6.84852L20.1015 7.30433C20.3834 7.45316 20.7175 7.46691 21.0109 7.34188C21.3042 7.21685 21.5256 6.96625 21.6133 6.65966C21.7692 6.76048 21.8633 6.93324 21.8637 7.11878V18.5128C21.8637 18.658 21.8059 18.7974 21.7032 18.9001C21.6004 19.0029 21.4611 19.0606 21.3158 19.0606H6.41583C6.27059 19.0606 6.13125 19.0029 6.02851 18.9001C5.92576 18.7974 5.86813 18.658 5.86813 18.5128V16.2073C5.86813 16.0257 5.72096 15.8785 5.5394 15.8785C5.35785 15.8785 5.21067 16.0257 5.21067 16.2073V18.5128C5.21109 18.8323 5.33818 19.1386 5.56402 19.3646C5.79 19.5906 6.09631 19.7175 6.41581 19.7179H21.3158C21.6353 19.7175 21.9416 19.5906 22.1676 19.3646C22.3935 19.1386 22.5205 18.8323 22.521 18.5128V7.11878C22.5207 6.84865 22.4296 6.58635 22.2624 6.37413C22.0951 6.16204 21.8614 6.01213 21.5988 5.94871L21.5989 5.94876ZM3.12879 2.40757H15.2679C15.0959 2.61223 15.0079 2.87426 15.0214 3.14109C15.035 3.40792 15.149 3.65975 15.3408 3.84588L15.439 3.94147H2.58088V2.95541C2.58088 2.81017 2.63865 2.67083 2.7414 2.56809C2.84414 2.46534 2.98348 2.40757 3.12872 2.40757L3.12879 2.40757ZM7.62069 9.09067V12.4921H4.88179C4.81851 12.492 4.76735 12.4407 4.76735 12.3776V6.68039C4.76735 6.61712 4.81851 6.56595 4.88179 6.56595H10.579C10.6092 6.56595 10.6384 6.57805 10.6598 6.59951C10.6813 6.62083 10.6933 6.64999 10.6933 6.68039V8.10465H8.60686C8.34539 8.10493 8.09478 8.20891 7.90992 8.39377C7.72506 8.57862 7.62108 8.82922 7.62081 9.09056L7.62069 9.09067ZM18.0288 14.8974H17.7002V9.09067C17.6999 8.82933 17.5959 8.57873 17.4111 8.39387C17.2262 8.20901 16.9756 8.10503 16.7141 8.10475H11.3409V6.68049C11.3405 6.47844 11.2602 6.28479 11.1173 6.14201C10.9745 5.9991 10.7808 5.91878 10.5788 5.9185H4.88159C4.67954 5.91877 4.48589 5.9991 4.34296 6.14201C4.20019 6.28478 4.11973 6.47844 4.11945 6.68049V12.3777C4.11973 12.5797 4.20006 12.7734 4.34296 12.9163C4.48574 13.0591 4.67954 13.1395 4.88159 13.1397H7.6205V14.8975H3.1286C2.98335 14.8975 2.84402 14.8399 2.74128 14.7371C2.63853 14.6344 2.58076 14.495 2.58076 14.3497V4.59895H16.0565C16.0737 4.59867 16.091 4.59702 16.1079 4.594L16.1847 4.66868C16.2797 4.76125 16.323 4.89467 16.3006 5.02534L16.1014 6.18661V6.18674C16.0565 6.44808 16.1112 6.71671 16.2547 6.93967C16.3981 7.16262 16.62 7.32368 16.8764 7.39122C17.1327 7.45875 17.4052 7.42767 17.6399 7.30415L18.5763 6.812V14.3497C18.5763 14.4951 18.5187 14.6344 18.4159 14.7371C18.3132 14.8399 18.1738 14.8975 18.0286 14.8975L18.0288 14.8974ZM20.8314 6.69172C20.7082 6.78388 20.5426 6.79584 20.4072 6.72239L19.3639 6.17454V6.17468C19.0553 6.01265 18.6867 6.01265 18.3779 6.17468L17.3349 6.72253V6.72239C17.1993 6.79378 17.0348 6.78181 16.9107 6.69172C16.7866 6.60163 16.7245 6.44896 16.7503 6.29778L16.9495 5.13651C17.0085 4.79251 16.8945 4.44151 16.6445 4.19792L15.8 3.37405C15.69 3.26717 15.6505 3.10707 15.6978 2.96112C15.7453 2.81533 15.8714 2.709 16.0233 2.68714L17.1894 2.51755H17.1895C17.5347 2.46748 17.8332 2.25057 17.9877 1.93779L18.5094 0.88075C18.577 0.742792 18.7173 0.655454 18.871 0.655454C19.0246 0.655454 19.1648 0.742795 19.2325 0.88075L19.7541 1.93779H19.7543C19.9082 2.25112 20.2064 2.46871 20.5518 2.51948L21.7178 2.68907L21.718 2.68921C21.8689 2.71163 21.9942 2.8174 22.0415 2.96251C22.0888 3.10762 22.05 3.26703 21.9412 3.37406L21.0966 4.19783C20.8468 4.44142 20.7329 4.7923 20.7918 5.13603L20.9909 6.2973V6.29744C21.0193 6.44874 20.957 6.60279 20.8314 6.69177L20.8314 6.69172Z" fill="#4A8FE0"/>
<path d="M3.26458 3.29947C3.27187 3.31955 3.28136 3.33867 3.29305 3.35641C3.30516 3.3747 3.31905 3.39148 3.33459 3.40689C3.39621 3.46851 3.47984 3.50317 3.5669 3.50331C3.58822 3.50345 3.60954 3.50111 3.63045 3.49671C3.65122 3.49217 3.67171 3.48625 3.69179 3.47924C3.71146 3.4703 3.73058 3.45998 3.74874 3.44857C3.76662 3.43577 3.7834 3.42188 3.79921 3.40689C3.9274 3.27856 3.9274 3.0706 3.79921 2.94242C3.7834 2.92729 3.76662 2.9134 3.74874 2.90074C3.73058 2.88919 3.71146 2.87901 3.69179 2.87007C3.67171 2.86292 3.65122 2.85701 3.63045 2.85247C3.52303 2.83128 3.41217 2.86498 3.3346 2.94242C3.3196 2.9581 3.30571 2.97502 3.29306 2.99276C3.28137 3.01064 3.27188 3.02976 3.26459 3.04971C3.25565 3.06937 3.24904 3.09 3.24478 3.11105C3.23611 3.153 3.23611 3.19619 3.24478 3.23814C3.24904 3.25932 3.25565 3.27982 3.26459 3.29949L3.26458 3.29947Z" fill="#4A8FE0"/>
<path d="M4.13931 3.29942C4.14825 3.31909 4.15843 3.33821 4.16998 3.35637C4.1946 3.39268 4.22582 3.4239 4.26199 3.44852C4.28029 3.45994 4.29927 3.47025 4.31894 3.47919C4.33902 3.48621 4.35951 3.49212 4.38028 3.49666C4.42223 3.50546 4.46556 3.50546 4.50737 3.49666C4.52828 3.49212 4.54877 3.48621 4.56885 3.47919C4.58852 3.47025 4.6075 3.45994 4.62579 3.44852C4.66197 3.4239 4.69319 3.39268 4.71781 3.35637C4.72936 3.33821 4.73954 3.31909 4.74848 3.29942C4.75563 3.27934 4.76141 3.25885 4.76595 3.23808C4.77475 3.19613 4.77475 3.15294 4.76595 3.11099C4.76141 3.09022 4.75563 3.06972 4.74848 3.04964C4.73954 3.02997 4.72936 3.01099 4.71781 2.9927C4.69319 2.95639 4.66197 2.92517 4.62579 2.90068C4.6075 2.88913 4.58852 2.87895 4.56885 2.87001C4.54877 2.86286 4.52828 2.85694 4.50737 2.85241C4.40009 2.83122 4.28909 2.86492 4.21166 2.94236C4.15031 3.00412 4.11565 3.08747 4.11524 3.17453C4.1151 3.19585 4.1173 3.21717 4.12184 3.23808C4.12638 3.25885 4.13216 3.27934 4.13931 3.29942L4.13931 3.29942Z" fill="#4A8FE0"/>
<path d="M5.31896 3.50332C5.50051 3.50332 5.64754 3.35615 5.64754 3.17459C5.64768 3.15327 5.64548 3.13196 5.64108 3.11105C5.63682 3.09 5.63021 3.06937 5.62127 3.0497C5.61398 3.02976 5.60449 3.01064 5.5928 2.99276C5.5807 2.9746 5.56681 2.95769 5.55113 2.94242C5.47369 2.86498 5.36283 2.83129 5.25542 2.85247C5.23465 2.857 5.21415 2.86292 5.19407 2.87007C5.1744 2.87901 5.15528 2.88919 5.13713 2.90074C5.11925 2.9134 5.10247 2.92729 5.08665 2.94242C5.07111 2.95769 5.05722 2.9746 5.04498 2.99276C5.03342 3.01064 5.02379 3.02976 5.0165 3.0497C5.0077 3.06937 5.0011 3.09 4.99684 3.11105C4.99244 3.13195 4.99023 3.15327 4.99023 3.17459C4.99023 3.35615 5.1374 3.50332 5.31896 3.50332L5.31896 3.50332Z" fill="#4A8FE0"/>
<path d="M10.9352 15.5549H14.4411C14.6226 15.5549 14.7698 15.4079 14.7698 15.2263V12.6702L15.263 12.8959C15.4149 12.9654 15.5948 12.9099 15.681 12.7669L16.4754 11.4521V11.4522C16.5228 11.3737 16.5353 11.2788 16.5099 11.1907C16.4843 11.1026 16.4231 11.0291 16.3411 10.988L14.5881 10.1116C14.5424 10.0887 14.4921 10.0769 14.4411 10.0769H10.9352C10.8842 10.0769 10.8339 10.0887 10.7882 10.1116L9.03519 10.988C8.95473 11.0283 8.89421 11.0998 8.86794 11.1858C8.84153 11.2719 8.85171 11.365 8.89586 11.4434L9.63544 12.7582L9.6353 12.7581C9.71741 12.9039 9.89581 12.9649 10.05 12.8996L10.6065 12.6639V15.2263C10.6065 15.4078 10.7537 15.5549 10.9352 15.5549L10.9352 15.5549ZM13.266 10.7341L13.2659 10.7343C13.1066 10.8754 12.901 10.9534 12.6881 10.9534C12.4751 10.9534 12.2696 10.8754 12.1102 10.7343L13.266 10.7341ZM10.0643 12.1802L9.63802 11.4224L11.0128 10.735H11.3035V10.7351C11.4698 11.0865 11.7636 11.3616 12.1252 11.5045C12.4869 11.6473 12.8893 11.6473 13.2509 11.5045C13.6126 11.3616 13.9064 11.0865 14.0727 10.7351H14.3635L15.7284 11.4159L15.2698 12.1752L14.5776 11.8588V11.8587C14.4759 11.8122 14.3575 11.8206 14.2633 11.8811C14.1692 11.9415 14.1122 12.0457 14.1122 12.1576V14.8966H11.2637V12.1677C11.2637 12.0574 11.2084 11.9544 11.1165 11.8935C11.0247 11.8327 10.9083 11.8218 10.8068 11.8649L10.0643 12.1802Z" fill="#4A8FE0"/>
<path d="M18.0145 3.29967C18.0217 3.32016 18.032 3.33942 18.0452 3.35661C18.0559 3.37532 18.0691 3.39223 18.0847 3.40709C18.1464 3.46843 18.2299 3.50296 18.317 3.50351C18.4041 3.50337 18.4877 3.46871 18.5492 3.40709C18.6105 3.34533 18.6452 3.26184 18.6456 3.17478C18.6456 3.08771 18.6109 3.00408 18.5492 2.9426C18.4186 2.81991 18.2152 2.81991 18.0847 2.9426C18.0231 3.00408 17.9884 3.08771 17.9883 3.17478C17.9881 3.1961 17.9904 3.21741 17.9949 3.23832C17.9992 3.2595 18.0058 3.28 18.0146 3.29967H18.0145Z" fill="#4A8FE0"/>
<path d="M19.5458 3.29927C19.553 3.31976 19.5633 3.33902 19.5765 3.35621C19.5871 3.37492 19.6004 3.39183 19.616 3.40669C19.6938 3.48467 19.8058 3.51851 19.9139 3.49651C19.9336 3.4921 19.9556 3.4855 19.9752 3.47904C19.9942 3.4701 20.0125 3.45978 20.03 3.44837C20.0663 3.42375 20.0975 3.39252 20.1221 3.35621C20.1336 3.33806 20.1439 3.31894 20.1528 3.29927C20.1598 3.27919 20.1657 3.25869 20.1703 3.23792C20.1747 3.21702 20.177 3.1957 20.1769 3.17438C20.1768 3.08731 20.1421 3.00369 20.0805 2.9422C20.0651 2.92652 20.0483 2.91263 20.03 2.90053C20.0129 2.88884 19.9946 2.87935 19.9752 2.87206C19.8525 2.81855 19.7095 2.84634 19.616 2.9422C19.5542 3.00369 19.5195 3.08731 19.5195 3.17438C19.5194 3.1957 19.5216 3.21702 19.526 3.23792C19.5303 3.25911 19.5369 3.2796 19.5458 3.29927L19.5458 3.29927Z" fill="#4A8FE0"/>
<path d="M20.1183 3.96607C20.0373 3.93733 19.9482 3.94187 19.8707 3.97887C19.7932 4.01587 19.7335 4.08216 19.7049 4.16331C19.6445 4.33607 19.5149 4.47582 19.3473 4.54913C19.1794 4.6223 18.9888 4.6223 18.8212 4.54913C18.6535 4.47582 18.5238 4.33607 18.4636 4.16331C18.4019 3.99716 18.2183 3.91133 18.0515 3.97075C17.8845 4.03003 17.7962 4.21242 17.8533 4.38022C17.9734 4.72244 18.2304 4.99917 18.5629 5.14413C18.8953 5.28911 19.2731 5.28911 19.6056 5.14413C19.938 4.99916 20.1951 4.72241 20.3151 4.38022C20.344 4.29921 20.3395 4.20994 20.3026 4.13237C20.2656 4.05466 20.1993 3.99482 20.1183 3.96607L20.1183 3.96607Z" fill="#4A8FE0"/>
</svg>
