<svg width="30" height="30" viewBox="0 0 30 30" fill="none" xmlns="http://www.w3.org/2000/svg">
<path d="M15 30C6.71571 30 0 23.2843 0 15C0 6.71571 6.71571 0 15 0C23.2843 0 30 6.71571 30 15C30 23.2843 23.2843 30 15 30Z" fill="white"/>
<path d="M15 29.75C6.85378 29.75 0.25 23.1462 0.25 15C0.25 6.85378 6.85378 0.25 15 0.25C23.1462 0.25 29.75 6.85378 29.75 15C29.75 23.1462 23.1462 29.75 15 29.75Z" stroke="#4A8FE0" stroke-opacity="0.26" stroke-width="0.5"/>
<path d="M18.6444 8.37012H16.5894C15.681 8.37012 14.8098 8.73096 14.1675 9.37328C13.5252 10.0156 13.1644 10.8868 13.1644 11.7951V13.8501H11.1094V16.5901H13.1644V22.0701H15.9044V16.5901H17.9594L18.6444 13.8501H15.9044V11.7951C15.9044 11.6134 15.9765 11.4392 16.105 11.3107C16.2335 11.1823 16.4077 11.1101 16.5894 11.1101H18.6444V8.37012Z" stroke="#4A8FE0" stroke-width="1.25" stroke-linecap="round" stroke-linejoin="round"/>
</svg>
