<svg width="30" height="30" viewBox="0 0 30 30" fill="none" xmlns="http://www.w3.org/2000/svg">
<path d="M15 30C6.71571 30 0 23.2843 0 15C0 6.71571 6.71571 0 15 0C23.2843 0 30 6.71571 30 15C30 23.2843 23.2843 30 15 30Z" fill="#4A8FE0"/>
<path d="M12.7141 24.0646H16.3636V14.9211H18.9174L19.1854 11.8628H16.3636C16.3636 11.8628 16.3636 10.7199 16.3636 10.1208C16.3636 9.39563 16.5055 9.11187 17.207 9.11187C17.7666 9.11187 19.1854 9.11187 19.1854 9.11187V5.9353C19.1854 5.9353 17.1045 5.9353 16.6552 5.9353C13.9358 5.9353 12.7141 7.13341 12.7141 9.41928C12.7141 11.4135 12.7141 11.8628 12.7141 11.8628H10.8145V14.9605H12.7141V24.0646Z" fill="white"/>
</svg>
