<svg width="25" height="20" viewBox="0 0 25 20" fill="none" xmlns="http://www.w3.org/2000/svg">
<g clip-path="url(#clip0_717_709)">
<path d="M20.6815 -8.65302e-05H3.70589C3.42142 0.000185682 3.14867 0.113426 2.94749 0.314589C2.74619 0.515753 2.63308 0.788527 2.63281 1.07313V13.7561C2.63308 14.0405 2.74619 14.3133 2.94749 14.5146C3.14865 14.7158 3.42143 14.8289 3.70589 14.8293H4.95261C5.11417 14.8293 5.24524 14.6982 5.24524 14.5365C5.24524 14.3749 5.11417 14.2439 4.95261 14.2439H3.70589C3.43653 14.2439 3.21808 14.0254 3.21808 13.7561V11.317H10.1163L12.3798 13.0146C12.4684 13.0811 12.5871 13.0917 12.6863 13.0422C12.7854 12.9927 12.848 12.8913 12.848 12.7805V11.3171H14.2182V14.2439H6.4328C6.27125 14.2439 6.14017 14.375 6.14017 14.5365C6.14017 14.6982 6.27125 14.8293 6.4328 14.8293H9.95893L9.38646 16.9755H8.0959C7.91488 16.9755 7.74106 17.0475 7.61301 17.1756C7.48493 17.3037 7.41307 17.4774 7.41307 17.6585V18.8293V18.8292C7.41307 19.0103 7.48493 19.184 7.61301 19.3121C7.74109 19.4402 7.9149 19.5121 8.0959 19.5121H16.291C16.3056 19.5119 16.3202 19.5104 16.3344 19.5078H19.5795C19.863 19.5075 20.1347 19.3948 20.335 19.1945C20.5354 18.9941 20.6481 18.7223 20.6485 18.4389V17.3117C20.6542 17.283 20.6542 17.2534 20.6485 17.2247V14.8258C20.6594 14.8276 20.6703 14.8287 20.6813 14.8292H20.7503C20.7755 14.8292 20.8005 14.826 20.8249 14.8196C21.0821 14.7845 21.318 14.6575 21.4888 14.4619C21.6598 14.2664 21.7541 14.0157 21.7544 13.756V1.07309C21.7541 0.788491 21.641 0.515739 21.4397 0.314554C21.2385 0.11339 20.9658 0.000149707 20.6813 -0.00012207L20.6815 -8.65302e-05ZM3.21808 1.07312C3.21808 0.803628 3.43653 0.585314 3.70589 0.585314H20.6815C20.8108 0.585314 20.9349 0.636628 21.0264 0.728227C21.1179 0.81969 21.1693 0.943684 21.1693 1.07312V10.7317H20.6487V9.26824C20.6486 9.00719 20.5525 8.75524 20.3787 8.56051C20.3851 8.53682 20.3885 8.51233 20.3887 8.48783V1.85368C20.3887 1.72438 20.3374 1.60025 20.2458 1.50879C20.1544 1.41732 20.0304 1.36588 19.9009 1.36588H17.2383C17.0767 1.36588 16.9457 1.49694 16.9457 1.65864C16.9457 1.8202 17.0767 1.95127 17.2383 1.95127H19.8033V3.31708H4.58383V1.95127H15.8371C15.9987 1.95127 16.1298 1.8202 16.1298 1.65864C16.1298 1.49694 15.9987 1.36588 15.8371 1.36588H4.48627C4.21678 1.36588 3.99847 1.58432 3.99847 1.85368V10.7317H3.21791L3.21808 1.07312ZM14.7951 11.0679C14.8008 11.0392 14.8008 11.0096 14.7951 10.9809V9.26831C14.7952 8.99664 15.0154 8.77643 15.2871 8.77615H19.5798C19.8516 8.77642 20.0717 8.99664 20.072 9.26831V10.9809C20.0662 11.0096 20.0662 11.0392 20.072 11.0679V16.9756H14.7949L14.7951 11.0679ZM13.0358 10.7317H12.5555C12.3938 10.7317 12.2627 10.8628 12.2627 11.0243V12.1951L10.3895 10.7903H10.3896C10.339 10.7523 10.2773 10.7317 10.214 10.7317H6.11646C6.06256 10.7317 6.01887 10.688 6.01887 10.6341V5.17073C6.01887 5.11697 6.06256 5.07328 6.11646 5.07328H13.1409C13.1667 5.07328 13.1915 5.08349 13.2099 5.10186C13.2281 5.1201 13.2383 5.14487 13.2383 5.17073V10.6341C13.2383 10.66 13.2281 10.6849 13.2099 10.7032C13.1915 10.7214 13.1667 10.7317 13.1409 10.7317L13.0358 10.7317ZM13.8132 10.7317C13.8189 10.6995 13.8222 10.6669 13.8231 10.6341V5.17071C13.8231 4.98969 13.7511 4.81587 13.6231 4.68782C13.495 4.55974 13.3213 4.48788 13.1402 4.48788H6.11578H6.11592C5.93476 4.48788 5.76107 4.55974 5.63302 4.68782C5.50495 4.81589 5.43295 4.9897 5.43295 5.17071V10.6341C5.4339 10.6669 5.4373 10.6995 5.44288 10.7317H4.58407V3.90244H19.8036V8.22335C19.7301 8.20756 19.6552 8.19953 19.58 8.1994H15.2873C15.0039 8.19967 14.7322 8.31236 14.5319 8.51271C14.3314 8.7132 14.2187 8.98487 14.2184 9.26825V10.7317L13.8132 10.7317ZM7.99857 18.8293V17.6585V17.6586C7.99857 17.6047 8.04226 17.561 8.09602 17.561H13.726C13.8877 17.561 14.0188 17.4299 14.0188 17.2684C14.0188 17.1067 13.8877 16.9756 13.726 16.9756H9.99254L10.5649 14.8292L13.8284 14.8294L14.2186 16.1546V17.2248C14.2129 17.2535 14.2129 17.2831 14.2186 17.3118V18.439C14.2186 18.6089 14.2595 18.7762 14.3376 18.9268H8.09613C8.04237 18.9268 7.99868 18.8832 7.99868 18.8293L7.99857 18.8293ZM19.5798 18.9311L16.3346 18.9312C16.3203 18.9286 16.3057 18.9273 16.2911 18.9269H15.2437C14.9904 18.9049 14.7958 18.6933 14.7949 18.4391V17.561H20.0719V18.4391C20.0717 18.7107 19.8516 18.9309 19.5798 18.9312L19.5798 18.9311ZM20.6814 14.244C20.6704 14.2445 20.6595 14.2456 20.6486 14.2472V11.3171H21.1692V13.7562C21.1692 13.8855 21.1177 14.0096 21.0263 14.1011C20.9348 14.1925 20.8107 14.244 20.6814 14.244L20.6814 14.244Z" fill="#4A8FE0"/>
<path d="M5.60878 2.52261C5.60088 2.50519 5.59177 2.48817 5.58156 2.47198C5.57026 2.45619 5.55787 2.44108 5.5444 2.42706C5.42817 2.31777 5.247 2.31777 5.13077 2.42706C5.11743 2.44108 5.10505 2.45619 5.09375 2.47198C5.08341 2.48817 5.07429 2.50519 5.06639 2.52261C5.06 2.54057 5.05482 2.55881 5.05074 2.57732C5.04298 2.61462 5.04298 2.65313 5.05074 2.69043C5.05482 2.70894 5.06 2.72731 5.06639 2.74514C5.07429 2.76256 5.08341 2.77958 5.09375 2.79577C5.1045 2.81197 5.11689 2.82708 5.13077 2.84069C5.2451 2.95488 5.43021 2.95488 5.5444 2.84069C5.55828 2.82708 5.57067 2.81197 5.58156 2.79577C5.59177 2.77957 5.60088 2.76256 5.60878 2.74514C5.61518 2.72731 5.62035 2.70894 5.62443 2.69043C5.63219 2.65313 5.63219 2.61462 5.62443 2.57732C5.62035 2.55881 5.61518 2.54057 5.60878 2.52261Z" fill="#4A8FE0"/>
<path d="M6.38613 2.52288C6.37973 2.50505 6.37116 2.48803 6.36081 2.47225C6.35006 2.45605 6.33768 2.44094 6.32379 2.42733C6.25479 2.35846 6.15598 2.32852 6.06029 2.3473C6.04151 2.35111 6.02314 2.35696 6.00572 2.36486C5.98789 2.37139 5.97087 2.37983 5.95495 2.39031C5.93916 2.40161 5.92419 2.41399 5.91003 2.42733C5.89629 2.44094 5.88376 2.45605 5.87301 2.47225C5.86267 2.48803 5.85409 2.50505 5.8477 2.52288C5.8398 2.54043 5.83381 2.55881 5.83014 2.57759C5.82225 2.61488 5.82225 2.6534 5.83014 2.6907C5.83381 2.70961 5.8398 2.72785 5.8477 2.74541C5.85409 2.76324 5.86267 2.78025 5.87301 2.79604C5.88376 2.81224 5.89629 2.82734 5.91003 2.84096C5.92419 2.85443 5.93916 2.86682 5.95495 2.87811C5.97128 2.88832 5.98816 2.89744 6.00572 2.90533C6.02355 2.91173 6.04178 2.9169 6.06029 2.92099C6.07894 2.92493 6.09786 2.92698 6.11691 2.92684C6.19449 2.92643 6.26867 2.89567 6.32379 2.84096C6.33768 2.82735 6.35006 2.81224 6.36081 2.79604C6.37116 2.78025 6.37973 2.76324 6.38613 2.74541C6.39402 2.72785 6.40001 2.70962 6.40369 2.6907C6.41158 2.6534 6.41158 2.61488 6.40369 2.57759C6.40001 2.55881 6.39402 2.54044 6.38613 2.52288V2.52288Z" fill="#4A8FE0"/>
<path d="M7.16737 2.52264C7.15948 2.50522 7.15036 2.4882 7.14001 2.47201C7.11824 2.43975 7.09047 2.41185 7.05808 2.39007C7.04229 2.37959 7.02528 2.37115 7.00745 2.36462C6.98989 2.35672 6.97152 2.35087 6.95273 2.34706C6.83146 2.32324 6.70829 2.37809 6.64487 2.48426C6.58158 2.59028 6.59165 2.72476 6.67018 2.8203C6.74871 2.91571 6.87883 2.95151 6.9952 2.90972C7.11143 2.86794 7.18901 2.75756 7.18888 2.63397C7.18901 2.61492 7.18697 2.59586 7.18302 2.57735C7.17894 2.55884 7.17377 2.5406 7.16737 2.52264V2.52264Z" fill="#4A8FE0"/>
<path d="M16.8493 9.75617H18.2151C18.3768 9.75617 18.5079 9.6251 18.5079 9.46354C18.5079 9.30185 18.3768 9.17078 18.2151 9.17078H16.8493C16.6876 9.17078 16.5566 9.30185 16.5566 9.46354C16.5566 9.6251 16.6876 9.75617 16.8493 9.75617Z" fill="#4A8FE0"/>
<path d="M16.4454 11.5257C16.4516 11.5439 16.4609 11.5611 16.4726 11.5763C16.4821 11.5929 16.4939 11.608 16.5077 11.6212C16.5628 11.6759 16.637 11.7067 16.7146 11.7071C16.7922 11.707 16.8666 11.6762 16.9214 11.6212C16.9352 11.6076 16.9477 11.5925 16.9585 11.5763C16.9687 11.5601 16.9778 11.5431 16.9858 11.5257C16.9921 11.5078 16.9974 11.4895 17.0013 11.471C17.0092 11.4337 17.0092 11.3951 17.0013 11.3578C16.9974 11.3393 16.9921 11.3211 16.9858 11.3031C16.9778 11.2857 16.9687 11.2687 16.9585 11.2525C16.9472 11.2367 16.9348 11.2216 16.9214 11.2076C16.8051 11.0983 16.6239 11.0983 16.5077 11.2076C16.4944 11.2212 16.4826 11.2362 16.4726 11.2525C16.4609 11.2679 16.4516 11.2849 16.4454 11.3031C16.4375 11.3207 16.4315 11.3391 16.4278 11.3578C16.4199 11.3951 16.4199 11.4337 16.4278 11.471C16.4315 11.4899 16.4375 11.5081 16.4454 11.5257Z" fill="#4A8FE0"/>
<path d="M18.3236 11.2524C18.3129 11.2362 18.3005 11.2211 18.2866 11.2075C18.1704 11.0982 17.9892 11.0982 17.8729 11.2075C17.8591 11.2207 17.8473 11.2358 17.8377 11.2524C17.826 11.2678 17.8169 11.2848 17.8105 11.303C17.8026 11.3206 17.7968 11.3389 17.793 11.3577C17.789 11.3762 17.787 11.3953 17.7871 11.4143C17.7871 11.4919 17.818 11.5662 17.8729 11.6211C17.928 11.6758 18.0021 11.7066 18.0797 11.707C18.2414 11.707 18.3725 11.5759 18.3725 11.4143C18.3725 11.3953 18.3706 11.3762 18.3666 11.3577C18.3625 11.3392 18.3574 11.321 18.351 11.303C18.3431 11.2856 18.3338 11.2686 18.3236 11.2524H18.3236Z" fill="#4A8FE0"/>
<path d="M18.3181 12.1185C18.246 12.0929 18.1667 12.0969 18.0976 12.1299C18.0286 12.1628 17.9754 12.2219 17.95 12.294C17.8962 12.4478 17.7808 12.5724 17.6315 12.6376C17.4822 12.7028 17.3123 12.7028 17.163 12.6376C17.0137 12.5724 16.8983 12.4478 16.8445 12.294C16.8198 12.2209 16.7667 12.1609 16.6971 12.1273C16.6277 12.0937 16.5477 12.0893 16.475 12.1152C16.4023 12.141 16.343 12.1949 16.3103 12.2648C16.2776 12.3347 16.2744 12.4149 16.3012 12.4872C16.408 12.7919 16.637 13.0384 16.933 13.1675C17.229 13.2966 17.5655 13.2966 17.8615 13.1675C18.1575 13.0384 18.3865 12.7919 18.4933 12.4872C18.519 12.415 18.5151 12.3357 18.4822 12.2665C18.4494 12.1973 18.3903 12.144 18.3181 12.1185L18.3181 12.1185Z" fill="#4A8FE0"/>
<path d="M8.51917 7.36676C8.68086 7.36676 8.81192 7.23569 8.81192 7.07413V6.829C8.81192 6.66731 8.68086 6.53638 8.51917 6.53638C8.35762 6.53638 8.22656 6.66731 8.22656 6.829V7.07413C8.22656 7.23569 8.35762 7.36676 8.51917 7.36676Z" fill="#4A8FE0"/>
<path d="M10.3338 7.36676C10.4955 7.36676 10.6264 7.23569 10.6264 7.07413V6.829C10.6264 6.66731 10.4955 6.53638 10.3338 6.53638C10.1721 6.53638 10.041 6.66731 10.041 6.829V7.07413C10.041 7.23569 10.1721 7.36676 10.3338 7.36676Z" fill="#4A8FE0"/>
<path d="M10.7118 7.82288H8.26151C8.09982 7.82288 7.96875 7.95395 7.96875 8.11564V8.23814C7.96875 8.78037 8.25811 9.28152 8.72767 9.55267C9.19736 9.82379 9.77597 9.82379 10.2455 9.55267C10.7152 9.28155 11.0044 8.7804 11.0044 8.23814V8.11564C11.0044 7.95395 10.8734 7.82288 10.7118 7.82288H10.7118ZM9.48661 9.17062C9.26884 9.17034 9.058 9.09413 8.89061 8.95489C8.7232 8.81565 8.60955 8.62238 8.56954 8.40827H10.4037C10.3637 8.62236 10.2501 8.81562 10.0827 8.95489C9.91524 9.09399 9.70443 9.17035 9.48666 9.17062H9.48661Z" fill="#4A8FE0"/>
</g>
<defs>
<clipPath id="clip0_717_709">
<rect width="24.3902" height="20" fill="white"/>
</clipPath>
</defs>
</svg>
