<svg width="19" height="16" viewBox="0 0 19 16" fill="none" xmlns="http://www.w3.org/2000/svg">
<path d="M9.45187 15.8388C9.20388 15.8388 8.96479 15.7479 8.77847 15.5828C8.07476 14.9604 7.39631 14.3754 6.79774 13.8594L6.79468 13.8567C5.03975 12.3439 3.5243 11.0374 2.46988 9.75037C1.29119 8.31159 0.742188 6.94741 0.742188 5.45714C0.742188 4.00921 1.23298 2.6734 2.12407 1.69562C3.02579 0.706266 4.26308 0.161377 5.60842 0.161377C6.61394 0.161377 7.5348 0.48296 8.34535 1.11712C8.75441 1.43722 9.1252 1.82898 9.45187 2.28595C9.77866 1.82898 10.1493 1.43722 10.5585 1.11712C11.3691 0.48296 12.2899 0.161377 13.2954 0.161377C14.6406 0.161377 15.8781 0.706266 16.7798 1.69562C17.6709 2.6734 18.1615 4.00921 18.1615 5.45714C18.1615 6.94741 17.6127 8.31159 16.434 9.75024C15.3796 11.0374 13.8642 12.3437 12.1096 13.8565C11.5099 14.3733 10.8304 14.9592 10.1251 15.5831C9.93894 15.7479 9.69972 15.8388 9.45187 15.8388ZM5.60842 1.19361C4.55148 1.19361 3.58051 1.62033 2.87416 2.39525C2.1573 3.18186 1.76245 4.26922 1.76245 5.45714C1.76245 6.71053 2.22295 7.8315 3.25544 9.09175C4.25338 10.3099 5.73773 11.5895 7.45638 13.0712L7.45957 13.0739C8.06041 13.5919 8.74152 14.1791 9.4504 14.8062C10.1635 14.1779 10.8457 13.5897 11.4477 13.0709C13.1663 11.5893 14.6505 10.3099 15.6484 9.09175C16.6808 7.8315 17.1413 6.71053 17.1413 5.45714C17.1413 4.26922 16.7464 3.18186 16.0296 2.39525C15.3233 1.62033 14.3523 1.19361 13.2954 1.19361C12.5212 1.19361 11.8103 1.4426 11.1826 1.93358C10.6232 2.37132 10.2336 2.92467 10.0051 3.31186C9.88764 3.51097 9.68085 3.62982 9.45187 3.62982C9.22288 3.62982 9.01609 3.51097 8.89861 3.31186C8.67029 2.92467 8.28063 2.37132 7.72112 1.93358C7.09344 1.4426 6.38256 1.19361 5.60842 1.19361Z" fill="white"/>
</svg>
