<svg width="25" height="20" viewBox="0 0 25 20" fill="none" xmlns="http://www.w3.org/2000/svg">
<path d="M20.6815 0H3.70589C3.42142 0.000272213 3.14867 0.113512 2.94749 0.314676C2.74619 0.51584 2.63308 0.788613 2.63281 1.07321V13.7561C2.63308 14.0406 2.74619 14.3134 2.94749 14.5147C3.14865 14.7158 3.42143 14.8289 3.70589 14.8294H9.9592L9.38672 16.9756H8.09616C7.91514 16.9756 7.74132 17.0476 7.61327 17.1757C7.4852 17.3038 7.41333 17.4774 7.41333 17.6586V18.8294V18.8293C7.41333 19.0104 7.4852 19.1841 7.61327 19.3121C7.74135 19.4402 7.91516 19.5122 8.09616 19.5122H16.2913C16.4723 19.5122 16.6461 19.4402 16.7742 19.3121C16.9023 19.1841 16.9741 19.0104 16.9741 18.8293V17.6585V17.6586C16.9741 17.4774 16.9023 17.3037 16.7742 17.1757C16.6461 17.0476 16.4723 16.9756 16.2913 16.9756H15.0007L14.4283 14.8294H20.6816C20.966 14.8289 21.2388 14.7158 21.44 14.5147C21.6413 14.3134 21.7544 14.0406 21.7546 13.7561V1.07321C21.7544 0.788613 21.6413 0.515861 21.44 0.314676C21.2388 0.113512 20.966 0.000271777 20.6816 0L20.6815 0ZM3.70589 0.585401H20.6815C20.8108 0.585401 20.9349 0.636714 21.0264 0.728314C21.1179 0.819777 21.1693 0.94377 21.1693 1.07321V10.7317H20.3887V1.85369C20.3885 1.76087 20.3614 1.67009 20.3108 1.59223C20.28 1.46021 20.1625 1.36657 20.027 1.36589C20.0064 1.36589 19.986 1.3682 19.966 1.37256C19.9445 1.36888 19.9227 1.36657 19.9009 1.36589H8.31975C8.1582 1.36589 8.02713 1.49696 8.02713 1.65865V2.63426C8.02713 2.87816 7.89701 3.1037 7.68563 3.22566C7.4744 3.34761 7.21403 3.34761 7.00278 3.22566C6.7914 3.1037 6.66129 2.87817 6.66129 2.63426V1.95126H7.14909C7.31065 1.95126 7.44172 1.8202 7.44172 1.65864C7.44172 1.49694 7.31065 1.36587 7.14909 1.36587H4.48644C4.4746 1.36587 4.46358 1.3686 4.45187 1.36941C4.36177 1.35431 4.27003 1.38602 4.20851 1.45366C4.07731 1.54458 3.99891 1.69403 3.99864 1.85366V4.79398C3.86022 4.8687 3.74439 4.97949 3.66354 5.11437C3.58283 5.24939 3.53982 5.40373 3.53928 5.56106V10.7318H3.21807V1.07326C3.21807 0.803765 3.43652 0.585452 3.70587 0.585452L3.70589 0.585401ZM8.61251 1.95122H9.97832V2.63422H9.97846C9.97846 2.87812 9.84834 3.10366 9.63697 3.22561C9.42573 3.34756 9.16537 3.34756 8.95411 3.22561C8.74274 3.10366 8.61262 2.87813 8.61262 2.63422L8.61251 1.95122ZM10.5637 1.95122H11.9295V2.63422H11.9297C11.9297 2.87812 11.7996 3.10366 11.5882 3.22561C11.377 3.34756 11.1166 3.34756 10.9053 3.22561C10.694 3.10366 10.5638 2.87813 10.5638 2.63422L10.5637 1.95122ZM12.5149 1.95122H13.8808V2.63422H13.8809C13.8809 2.87812 13.7508 3.10366 13.5394 3.22561C13.3282 3.34756 13.0678 3.34756 12.8566 3.22561C12.6452 3.10366 12.5151 2.87813 12.5151 2.63422L12.5149 1.95122ZM14.4662 1.95122H15.832V2.63422H15.8321C15.8321 2.87812 15.702 3.10366 15.4906 3.22561C15.2794 3.34756 15.019 3.34756 14.8078 3.22561C14.5964 3.10366 14.4663 2.87813 14.4663 2.63422L14.4662 1.95122ZM16.4174 1.95122H17.7832V2.63422H17.7833C17.7833 2.87812 17.6532 3.10366 17.4418 3.22561C17.2306 3.34756 16.9702 3.34756 16.759 3.22561C16.5476 3.10366 16.4175 2.87813 16.4175 2.63422L16.4174 1.95122ZM18.3686 1.95122H19.7344V2.63422H19.7346C19.7346 2.87812 19.6044 3.10366 19.3931 3.22561C19.1818 3.34756 18.9215 3.34756 18.7102 3.22561C18.4988 3.10366 18.3687 2.87813 18.3687 2.63422L18.3686 1.95122ZM4.71007 1.95122H6.07589V2.63422H6.07602C6.07602 2.87812 5.9459 3.10366 5.73453 3.22561C5.52329 3.34756 5.26293 3.34756 5.05167 3.22561C4.8403 3.10366 4.71018 2.87813 4.71018 2.63422L4.71007 1.95122ZM14.3951 16.9756H14.1257C13.964 16.9756 13.833 17.1067 13.833 17.2684C13.833 17.4299 13.964 17.561 14.1257 17.561H16.2916C16.3174 17.561 16.3422 17.5713 16.3605 17.5896C16.3788 17.6078 16.389 17.6327 16.389 17.6586V18.8294V18.8293C16.389 18.8553 16.3788 18.88 16.3605 18.8983C16.3422 18.9166 16.3174 18.9268 16.2916 18.9268H8.09646C8.0427 18.9268 7.99901 18.8832 7.99901 18.8293V17.6585V17.6586C7.99901 17.6047 8.0427 17.561 8.09646 17.561H12.5557C12.7174 17.561 12.8483 17.4299 12.8483 17.2684C12.8483 17.1067 12.7174 16.9756 12.5557 16.9756H9.9928L10.5651 14.8292H13.8237L14.3951 16.9756ZM20.6818 14.244H3.70623C3.43688 14.244 3.21843 14.0255 3.21843 13.7562V11.3171H3.53964V12.1952C3.53964 12.428 3.63219 12.6514 3.79688 12.8161C3.96144 12.9808 4.18479 13.0732 4.41765 13.0732H5.5989C5.7606 13.0732 5.89167 12.9421 5.89167 12.7805C5.89167 12.6188 5.7606 12.4878 5.5989 12.4878H4.41765C4.25609 12.4878 4.12502 12.3568 4.12502 12.1951V5.561C4.12502 5.39931 4.25609 5.26824 4.41765 5.26824H11.6372C11.7987 5.26824 11.9298 5.39931 11.9298 5.561V12.1951C11.9298 12.3568 11.7987 12.4878 11.6372 12.4878H7.02497C6.86327 12.4878 6.7322 12.6188 6.7322 12.7805C6.7322 12.9421 6.86327 13.0732 7.02497 13.0732H11.6372C11.8699 13.0729 12.0931 12.9803 12.2577 12.8158C12.4224 12.6511 12.5149 12.4279 12.5152 12.1952V11.3171H13.5314C13.6931 11.3171 13.824 11.1861 13.824 11.0244C13.824 10.8628 13.6931 10.7318 13.5314 10.7318H12.5152V5.56103C12.5149 5.32815 12.4224 5.10493 12.2577 4.9404C12.0931 4.77585 11.8699 4.68316 11.6372 4.68289H4.5842V3.60982C4.8428 3.8246 5.17625 3.9279 5.5111 3.8966C5.84592 3.86529 6.15448 3.7021 6.36869 3.44294C6.60933 3.73367 6.96702 3.90203 7.3443 3.90203C7.72172 3.90203 8.07943 3.73367 8.31991 3.44294C8.56055 3.73367 8.91824 3.90203 9.29552 3.90203C9.67294 3.90203 10.0306 3.73367 10.2711 3.44294C10.5118 3.73367 10.8695 3.90203 11.2467 3.90203C11.6242 3.90203 11.9819 3.73367 12.2224 3.44294C12.463 3.73367 12.8207 3.90203 13.198 3.90203C13.5754 3.90203 13.9331 3.73367 14.1736 3.44294C14.4142 3.73367 14.7719 3.90203 15.1492 3.90203C15.5266 3.90203 15.8843 3.73367 16.1248 3.44294C16.3654 3.73367 16.7231 3.90203 17.1004 3.90203C17.4778 3.90203 17.8355 3.73367 18.076 3.44294C18.2822 3.69283 18.5763 3.85399 18.8978 3.89305C19.2194 3.93211 19.5436 3.84622 19.8036 3.65309V10.7318H17.9786C18.8232 10.1308 19.3195 9.15368 19.3067 8.11696C19.2937 7.08037 18.7733 6.11591 17.9139 5.53598C17.0545 4.95616 15.9652 4.83462 14.9992 5.21069C14.0331 5.58675 13.3128 6.41264 13.0717 7.42107C12.8305 8.42937 13.099 9.49181 13.7904 10.2643C14.4819 11.0369 15.5081 11.4212 16.5369 11.293C16.5739 11.3091 16.6137 11.3173 16.654 11.3173H21.1696V13.7563C21.1696 13.8856 21.1182 14.0097 21.0267 14.1012C20.9353 14.1926 20.8111 14.2441 20.6818 14.2441V14.244ZM16.1655 10.7318C15.4928 10.7318 14.8476 10.4645 14.3718 9.98878C13.8962 9.5131 13.629 8.86794 13.629 8.19516C13.629 7.52237 13.8962 6.87725 14.3718 6.40153C14.8475 5.92582 15.4928 5.65854 16.1655 5.65854C16.8383 5.65854 17.4835 5.92585 17.9592 6.40153C18.4349 6.87721 18.7021 7.52237 18.7021 8.19516C18.7014 8.86767 18.4338 9.5124 17.9582 9.98794C17.4828 10.4635 16.8381 10.7309 16.1654 10.7318H16.1655Z" fill="#4A8FE0"/>
<path d="M16.1658 6.04858C15.5966 6.04858 15.0507 6.27466 14.6482 6.67712C14.2456 7.07973 14.0195 7.62566 14.0195 8.19485C14.0195 8.76419 14.2456 9.31012 14.6482 9.71259C15.0507 10.1151 15.5966 10.3413 16.1658 10.3413C16.7352 10.3413 17.2811 10.1151 17.6836 9.71259C18.0862 9.31012 18.3123 8.76419 18.3123 8.19485C18.3116 7.6258 18.0853 7.08029 17.6829 6.67796C17.2806 6.27562 16.7349 6.04928 16.1659 6.04862L16.1658 6.04858ZM16.1658 9.7559C15.7519 9.7559 15.3549 9.59148 15.0621 9.29872C14.7694 9.00596 14.6049 8.60893 14.6049 8.19489C14.6049 7.78085 14.7694 7.38384 15.0621 7.0912C15.3549 6.79843 15.7519 6.63388 16.1658 6.63388C16.5799 6.63388 16.9769 6.79843 17.2697 7.0912C17.5625 7.38382 17.7269 7.78085 17.7269 8.19489C17.7265 8.60879 17.5618 9.00555 17.2691 9.29817C16.9765 9.59079 16.5797 9.75548 16.1658 9.7559Z" fill="#4A8FE0"/>
<path d="M16.6534 8.00004H16.3608V7.31704C16.3608 7.15535 16.2297 7.02441 16.0682 7.02441C15.9065 7.02441 15.7754 7.15535 15.7754 7.31704V8.29265C15.7754 8.45435 15.9065 8.58528 16.0682 8.58528H16.6536H16.6534C16.8151 8.58528 16.9462 8.45435 16.9462 8.29265C16.9462 8.13096 16.8151 8.00002 16.6534 8.00002L16.6534 8.00004Z" fill="#4A8FE0"/>
</svg>
