<svg width="23" height="21" viewBox="0 0 23 21" fill="none" xmlns="http://www.w3.org/2000/svg">
<path d="M19.1827 7.80981V2.41608C19.1827 2.23199 19.0334 2.08279 18.8493 2.08262H16.9438C16.7597 2.08279 16.6105 2.232 16.6103 2.41608V5.23298L11.4805 0.0940407C11.3482 -0.0313469 11.1409 -0.0313469 11.0086 0.0940407L0.09961 11.0222C0.037171 11.0846 0.00195312 11.1695 0.00195312 11.258C0.00195312 11.3465 0.0371706 11.4312 0.09961 11.4938L1.7193 13.1097V13.1096C1.81321 13.2031 1.95357 13.2322 2.07691 13.1837V19.861C2.07691 19.9495 2.11213 20.0344 2.17474 20.0968C2.23735 20.1594 2.32225 20.1945 2.41072 20.1945H20.0784C20.2625 20.1943 20.4119 20.0451 20.4119 19.861V13.1837C20.5352 13.2326 20.6756 13.2036 20.7693 13.1097L22.389 11.4938V11.494C22.4516 11.4314 22.4868 11.3466 22.4868 11.2582C22.4868 11.1697 22.4516 11.0848 22.389 11.0223L19.1827 7.80981ZM17.2772 2.7497H18.5158V7.14169L17.2772 5.9011V2.7497ZM12.7306 19.5276H9.75908V14.7027H12.7306V19.5276ZM13.3975 19.5276V14.369C13.3975 14.2807 13.3625 14.1958 13.2999 14.1332C13.2374 14.0708 13.1525 14.0356 13.0641 14.0356H9.42562C9.33715 14.0356 9.25225 14.0708 9.18964 14.1332C9.1272 14.1958 9.09198 14.2807 9.09215 14.369V19.5276H2.74416V12.555L11.2446 4.0389L19.745 12.5563V19.5271L13.3975 19.5276ZM20.5347 12.4021L11.4803 3.33071C11.4177 3.26793 11.3328 3.23272 11.2441 3.23272C11.1555 3.23272 11.0706 3.26793 11.008 3.33071L2.17394 12.1822L1.9543 12.4018L0.806735 11.2577L11.244 0.801663L21.6813 11.2577L20.5347 12.4021Z" fill="#0D4689"/>
<path d="M7.47594 14.0354H4.48775C4.30367 14.0354 4.1543 14.1848 4.1543 14.3689V17.3569C4.1543 17.5411 4.30367 17.6903 4.48775 17.6903H7.47594C7.66019 17.6903 7.80939 17.5411 7.80939 17.3569V14.3689C7.80939 14.2806 7.77435 14.1957 7.71174 14.1332C7.6493 14.0706 7.5644 14.0354 7.47593 14.0354L7.47594 14.0354ZM7.14248 17.0234H4.82224V14.7023H7.14248V17.0234Z" fill="#0D4689"/>
<path d="M17.9994 14.0354H15.0112C14.8269 14.0354 14.6777 14.1848 14.6777 14.3689V17.3569C14.6777 17.5411 14.8269 17.6903 15.0112 17.6903H17.9994C18.1835 17.6903 18.3329 17.5411 18.3329 17.3569V14.3689C18.3329 14.2806 18.2977 14.1957 18.2352 14.1332C18.1726 14.0706 18.0877 14.0354 17.9994 14.0354L17.9994 14.0354ZM17.666 17.0234H15.3446V14.7023H17.666V17.0234Z" fill="#0D4689"/>
<path d="M11.245 6.92725C10.6739 6.92725 10.1262 7.15403 9.72246 7.55791C9.31857 7.96164 9.0918 8.50931 9.0918 9.08043C9.0918 9.65156 9.31858 10.1993 9.72246 10.603C10.1262 11.0069 10.6739 11.2336 11.245 11.2336C11.8161 11.2336 12.3638 11.0068 12.7675 10.603C13.1714 10.1992 13.3982 9.65156 13.3982 9.08043C13.3978 8.50948 13.1709 7.96196 12.7672 7.55826C12.3634 7.15453 11.8159 6.92759 11.245 6.92725ZM11.245 10.565C10.8508 10.565 10.4726 10.4083 10.1939 10.1296C9.91522 9.8508 9.75869 9.47259 9.75869 9.07838C9.75869 8.68417 9.91556 8.30617 10.1944 8.02746C10.4733 7.74879 10.8513 7.59226 11.2457 7.59243C11.6399 7.5926 12.0179 7.74947 12.2966 8.02832C12.5751 8.30717 12.7315 8.68538 12.7313 9.07976C12.7311 9.47362 12.5743 9.8515 12.2956 10.13C12.0169 10.4085 11.639 10.565 11.245 10.565L11.245 10.565Z" fill="#0D4689"/>
</svg>
