<svg width="70" height="70" viewBox="0 0 70 70" fill="none" xmlns="http://www.w3.org/2000/svg">
<g clip-path="url(#clip0_844_3379)">
<path d="M64.0817 49.028C62.8566 49.028 61.6322 49.028 60.4071 49.028C57.2963 49.028 54.1855 49.028 51.0747 49.028C46.9008 49.028 42.7268 49.028 38.5521 49.028C34.1242 49.028 29.6963 49.028 25.2691 49.028C21.4475 49.028 17.6258 49.028 13.8041 49.028C11.3696 49.028 8.93429 49.028 6.49975 49.028C6.07355 49.028 5.64106 49.0501 5.21564 49.028C5.08432 49.021 4.90897 49.01 4.8319 48.8826C4.84055 48.8967 4.83033 48.8889 4.81854 48.8181C4.77529 48.5649 4.81854 48.2645 4.81854 48.0082C4.81854 44.84 4.81854 41.6718 4.81854 38.5036C4.81854 34.1668 4.81854 29.8301 4.81854 25.4942C4.81854 22.8214 4.81854 20.1494 4.81854 17.4766C4.81854 17.1809 4.80674 17.1369 5.18497 17.1023C5.27147 17.0944 5.3619 17.1023 5.4484 17.1023C6.0822 17.1023 6.716 17.1023 7.34979 17.1023C10.0769 17.1023 12.8047 17.1023 15.5318 17.1023C19.5358 17.1023 23.5391 17.1023 27.5432 17.1023C31.9625 17.1023 36.3826 17.1023 40.8019 17.1023C44.8634 17.1023 48.9256 17.1023 52.9871 17.1023C55.8243 17.1023 58.6622 17.1023 61.4994 17.1023C62.2189 17.1023 62.9384 17.1023 63.6579 17.1023C63.7892 17.1023 63.9229 17.0952 64.055 17.1023C64.1761 17.1086 64.3908 17.1463 64.4466 17.2383C64.4332 17.2163 64.4442 17.2902 64.4482 17.3225C64.4804 17.6 64.4482 17.9012 64.4482 18.1804C64.4482 18.7049 64.4482 19.2294 64.4482 19.7531C64.4482 21.391 64.4482 23.0298 64.4482 24.6677C64.4482 28.9801 64.4482 33.2924 64.4482 37.6048C64.4482 40.9491 64.4482 44.2934 64.4482 47.6378C64.4482 47.9736 64.4482 48.3101 64.4482 48.6459C64.4482 48.7096 64.4678 48.8126 64.4482 48.8739C64.4246 48.9423 64.2303 49.0202 64.0817 49.028C63.3025 49.0705 63.3119 50.7211 64.0817 50.6794C65.1071 50.6236 65.5954 49.7106 65.6033 48.7764C65.6057 48.4713 65.6033 48.1662 65.6033 47.8611C65.6033 46.5455 65.6033 45.23 65.6033 43.9144C65.6033 39.7098 65.6033 35.5052 65.6033 31.3006C65.6033 27.4813 65.6033 23.6628 65.6033 19.8435C65.6033 19.0052 65.612 18.1654 65.6033 17.3272C65.5939 16.404 65.0906 15.4997 64.0809 15.4509C63.9897 15.4462 63.8969 15.4509 63.8057 15.4509C61.9688 15.4509 60.1311 15.4509 58.2942 15.4509C54.7486 15.4509 51.2037 15.4509 47.658 15.4509C43.2639 15.4509 38.869 15.4509 34.4749 15.4509C30.0902 15.4509 25.7063 15.4509 21.3216 15.4509C17.8145 15.4509 14.3066 15.4509 10.7995 15.4509C9.00584 15.4509 7.21218 15.4509 5.41852 15.4509C5.2699 15.4509 5.12993 15.4494 4.9821 15.473C4.05499 15.62 3.66732 16.5204 3.6626 17.3657C3.6571 18.2378 3.6626 19.1098 3.6626 19.9819C3.6626 23.8326 3.6626 27.6842 3.6626 31.5349C3.6626 35.7199 3.6626 39.9048 3.6626 44.0906C3.6626 45.3873 3.6626 46.6832 3.6626 47.9798C3.6626 48.259 3.65946 48.5389 3.6626 48.8181C3.6744 49.7389 4.18395 50.6298 5.18576 50.6794C6.47223 50.7431 7.77757 50.6794 9.06482 50.6794C12.2747 50.6794 15.4838 50.6794 18.6937 50.6794C22.9612 50.6794 27.2279 50.6794 31.4954 50.6794C35.9611 50.6794 40.4268 50.6794 44.8925 50.6794C48.6976 50.6794 52.5035 50.6794 56.3087 50.6794C58.5914 50.6794 60.8734 50.6794 63.1562 50.6794C63.4652 50.6794 63.7743 50.6794 64.0833 50.6794C64.8571 50.6794 64.8594 49.028 64.0817 49.028Z" fill="#4A8FE0"/>
<path d="M67.8172 52.7629C66.3491 52.7629 64.8802 52.7629 63.4121 52.7629C59.695 52.7629 55.9779 52.7629 52.2608 52.7629C47.3273 52.7629 42.3937 52.7629 37.4601 52.7629C32.367 52.7629 27.2738 52.7629 22.1806 52.7629C17.9044 52.7629 13.6274 52.7629 9.35127 52.7629C6.94976 52.7629 4.54904 52.7629 2.14752 52.7629C1.96273 52.7629 1.77715 52.766 1.59236 52.7629C1.5208 52.7621 1.45475 52.7645 1.38398 52.744C1.20233 52.6913 1.1866 52.6835 1.16223 52.5781C1.10325 52.3288 1.16223 51.9915 1.16223 51.7367C1.16223 51.1847 1.16223 50.6327 1.16223 50.0807C1.16223 45.928 1.16223 41.7745 1.16223 37.6218C1.16223 32.5883 1.16223 27.5549 1.16223 22.5215C1.16223 19.5326 1.16223 16.5445 1.16223 13.5555C1.16223 13.2339 1.11976 13.1687 1.52866 13.1309C1.63561 13.1215 1.74806 13.1309 1.855 13.1309C2.6154 13.1309 3.3758 13.1309 4.1362 13.1309C7.40506 13.1309 10.6747 13.1309 13.9436 13.1309C18.6522 13.1309 23.3609 13.1309 28.0703 13.1309C33.2382 13.1309 38.4069 13.1309 43.5748 13.1309C48.149 13.1309 52.7232 13.1309 57.2974 13.1309C60.236 13.1309 63.1754 13.1309 66.114 13.1309C66.662 13.1309 67.2156 13.1089 67.7629 13.1309C67.877 13.1356 67.9705 13.1522 68.0814 13.2009C68.2316 13.267 68.1608 13.219 68.1821 13.3228C68.2355 13.5854 68.1821 13.9165 68.1821 14.1831C68.1821 17.6862 68.1821 21.1902 68.1821 24.6934C68.1821 29.7567 68.1821 34.8208 68.1821 39.8841C68.1821 43.6507 68.1821 47.4181 68.1821 51.1847C68.1821 51.5692 68.1821 51.9538 68.1821 52.3375C68.1828 52.6512 68.2261 52.7409 67.8172 52.7629C67.0379 52.8054 67.0474 54.4559 67.8172 54.4142C68.8646 54.3576 69.3388 53.4116 69.3388 52.468C69.3388 52.1181 69.3388 51.7674 69.3388 51.4175C69.3388 49.9297 69.3388 48.4419 69.3388 46.9541C69.3388 44.7327 69.3388 42.5113 69.3388 40.2906C69.3388 37.7122 69.3388 35.133 69.3388 32.5545C69.3388 29.9942 69.3388 27.4346 69.3388 24.8743C69.3388 22.7094 69.3388 20.5438 69.3388 18.379C69.3388 16.9848 69.3388 15.5906 69.3388 14.1964C69.3388 13.9055 69.3427 13.6145 69.3388 13.3236C69.3254 12.4051 68.8001 11.5205 67.8046 11.4804C67.3344 11.4615 66.8586 11.4804 66.3876 11.4804C65.2246 11.4804 64.0616 11.4804 62.8994 11.4804C61.1694 11.4804 59.4386 11.4804 57.7087 11.4804C55.5619 11.4804 53.4144 11.4804 51.2677 11.4804C48.83 11.4804 46.3915 11.4804 43.9538 11.4804C41.3581 11.4804 38.7616 11.4804 36.1658 11.4804C33.5449 11.4804 30.9232 11.4804 28.3023 11.4804C25.7891 11.4804 23.2752 11.4804 20.762 11.4804C18.4894 11.4804 16.2169 11.4804 13.9443 11.4804C12.0453 11.4804 10.1463 11.4804 8.24803 11.4804C6.85619 11.4804 5.46356 11.4804 4.07172 11.4804C3.31918 11.4804 2.56665 11.4804 1.81411 11.4804C1.64976 11.4804 1.49092 11.4764 1.32736 11.5024C0.375089 11.6534 0.0062908 12.5844 0.0062908 13.4447C0.0062908 14.4441 0.0062908 15.4428 0.0062908 16.4422C0.0062908 18.3562 0.0062908 20.271 0.0062908 22.1849C0.0062908 24.6383 0.0062908 27.091 0.0062908 29.5444C0.0062908 32.1606 0.0062908 34.7767 0.0062908 37.3921C0.0062908 39.7944 0.0062908 42.1975 0.0062908 44.5998C0.0062908 46.4131 0.0062908 48.2265 0.0062908 50.039C0.0062908 50.8859 -0.0078635 51.7344 0.0062908 52.5813C0.0212315 53.4997 0.554377 54.3749 1.54596 54.4134C1.6938 54.419 1.84242 54.4134 1.99025 54.4134C2.83636 54.4134 3.68248 54.4134 4.52859 54.4134C6.00536 54.4134 7.48212 54.4134 8.9581 54.4134C10.9169 54.4134 12.8757 54.4134 14.8345 54.4134C17.1487 54.4134 19.463 54.4134 21.7772 54.4134C24.3139 54.4134 26.8499 54.4134 29.3867 54.4134C32.0123 54.4134 34.6379 54.4134 37.2636 54.4134C39.8459 54.4134 42.4275 54.4134 45.0099 54.4134C47.4153 54.4134 49.8208 54.4134 52.2262 54.4134C54.3218 54.4134 56.4183 54.4134 58.5139 54.4134C60.1676 54.4134 61.8205 54.4134 63.4742 54.4134C64.5523 54.4134 65.6296 54.4134 66.7076 54.4134C67.0772 54.4134 67.4476 54.4134 67.8172 54.4134C68.5925 54.4142 68.5949 52.7629 67.8172 52.7629Z" fill="#4A8FE0"/>
<path d="M26.8789 54.0357C26.886 56.8249 26.8923 59.6132 26.8994 62.4024C26.9001 62.7382 27.0771 63.221 27.4773 63.2281C27.8776 63.2351 28.0561 62.7224 28.0553 62.4024C28.0482 59.6132 28.0419 56.8249 28.0349 54.0357C28.0341 53.6999 27.8571 53.2171 27.4569 53.21C27.0566 53.203 26.8781 53.7157 26.8789 54.0357Z" fill="#4A8FE0"/>
<path d="M41.2425 54.3965C41.1371 57.1079 41.3392 59.8381 41.4375 62.5471C41.4501 62.882 41.6074 63.3656 42.0155 63.3727C42.4071 63.3798 42.6053 62.8671 42.5935 62.5471C42.4944 59.8373 42.2931 57.1071 42.3985 54.3965C42.4118 54.0616 42.2113 53.578 41.8205 53.5709C41.4108 53.5638 41.2551 54.0773 41.2425 54.3965Z" fill="#4A8FE0"/>
<path d="M53.1898 68.3328C51.6234 68.3328 50.057 68.3328 48.4914 68.3328C44.8907 68.3328 41.2892 68.3328 37.6885 68.3328C33.6994 68.3328 29.7102 68.3328 25.7211 68.3328C22.9909 68.3328 20.2599 68.3328 17.5297 68.3328C17.238 68.3328 16.9462 68.3328 16.6545 68.3328C16.4603 68.3328 16.2503 68.358 16.0867 68.2321C15.9932 68.1598 16.0451 68.2424 16.0231 68.17C15.9963 68.0796 16.0231 67.9373 16.0231 67.8437C16.0231 67.4151 16.0231 66.9866 16.0231 66.558C16.0231 65.7001 16.0231 64.8414 16.0231 63.9835C16.0231 63.7594 16.1009 63.7185 16.3887 63.6933C16.4178 63.691 16.4477 63.6933 16.4768 63.6933C16.697 63.6902 16.9171 63.6933 17.1373 63.6933C18.1234 63.6933 19.1103 63.6933 20.0963 63.6933C23.539 63.6933 26.9808 63.6933 30.4234 63.6933C34.4535 63.6933 38.4827 63.6933 42.5128 63.6933C45.4828 63.6933 48.4536 63.6933 51.4237 63.6933C51.9938 63.6933 52.5702 63.669 53.1403 63.6933C53.5956 63.713 53.5555 63.8294 53.5555 64.206C53.5555 65.1379 53.5555 66.0705 53.5555 67.0023C53.5555 67.3491 53.5555 67.6958 53.5555 68.0418C53.5555 68.2604 53.4862 68.3171 53.1898 68.3328C52.4105 68.3753 52.42 70.0258 53.1898 69.9841C54.1122 69.9338 54.6721 69.1443 54.7082 68.266C54.7177 68.0395 54.7114 67.8114 54.7114 67.585C54.7114 66.6178 54.7114 65.6514 54.7114 64.6841C54.7114 63.7366 54.7601 62.5547 53.6868 62.138C53.4273 62.0373 53.1764 62.042 52.9099 62.042C50.6365 62.042 48.364 62.042 46.0906 62.042C42.1141 62.042 38.1375 62.042 34.161 62.042C30.263 62.042 26.3651 62.042 22.4672 62.042C20.4699 62.042 18.4702 62.0145 16.4728 62.042C15.4899 62.0554 14.8954 62.874 14.8679 63.8113C14.8475 64.4915 14.8679 65.1756 14.8679 65.8558C14.8679 66.6351 14.8443 67.4191 14.8679 68.1983C14.8962 69.1215 15.4616 69.9668 16.4461 69.9841C18.3923 70.0179 20.3417 69.9841 22.2879 69.9841C26.1544 69.9841 30.0201 69.9841 33.8865 69.9841C37.8804 69.9841 41.8742 69.9841 45.8673 69.9841C48.1988 69.9841 50.5312 69.9841 52.8627 69.9841C52.972 69.9841 53.0813 69.9841 53.1906 69.9841C53.9651 69.9841 53.9675 68.3328 53.1898 68.3328Z" fill="#4A8FE0"/>
<path d="M59.4393 32.2792H26.967C25.8198 32.2792 24.8809 31.3403 24.8809 30.1931V9.67407C24.8809 8.52679 25.8198 7.58789 26.967 7.58789H59.4393C60.5866 7.58789 61.5255 8.52679 61.5255 9.67407V30.1939C61.5255 31.3411 60.5866 32.2792 59.4393 32.2792Z" fill="white"/>
<path d="M59.4407 31.4534C58.6363 31.4534 57.8326 31.4534 57.0282 31.4534C55.0065 31.4534 52.9856 31.4534 50.9639 31.4534C48.3516 31.4534 45.7386 31.4534 43.1263 31.4534C40.5078 31.4534 37.89 31.4534 35.2715 31.4534C33.2797 31.4534 31.2871 31.4534 29.2953 31.4534C28.4633 31.4534 27.5794 31.5407 26.7498 31.4416C26.1019 31.3645 25.4893 30.8495 25.461 30.1897C25.4563 30.0844 25.461 29.9782 25.461 29.8728C25.461 29.2241 25.461 28.5754 25.461 27.9266C25.461 25.5629 25.461 23.1991 25.461 20.8353C25.461 18.3033 25.461 15.772 25.461 13.24C25.461 12.0557 25.4083 10.8573 25.461 9.6731C25.5271 8.19555 27.3687 8.41258 28.3988 8.41258C30.1728 8.41258 31.9468 8.41258 33.7208 8.41258C36.2552 8.41258 38.7896 8.41258 41.3232 8.41258C43.9866 8.41258 46.65 8.41258 49.3133 8.41258C51.5214 8.41258 53.7287 8.41258 55.9368 8.41258C57.0612 8.41258 58.1857 8.40865 59.3102 8.41258C60.0761 8.41494 60.9128 8.83878 60.9489 9.67939C60.9647 10.0482 60.9489 10.4217 60.9489 10.7905C60.9489 12.894 60.9489 14.9967 60.9489 17.1002C60.9489 19.7297 60.9489 22.3593 60.9489 24.9888C60.9489 26.6402 60.9489 28.2923 60.9489 29.9436C60.9489 30.0262 60.9529 30.1103 60.9489 30.1929C60.9151 30.9556 60.1626 31.4345 59.4407 31.4534C58.663 31.4738 58.6662 33.1252 59.4407 33.1047C61.0748 33.0615 62.0962 31.6398 62.1049 30.0938C62.108 29.5662 62.1049 29.0377 62.1049 28.5101C62.1049 26.199 62.1049 23.8879 62.1049 21.5761C62.1049 18.9434 62.1049 16.3107 62.1049 13.678C62.1049 12.3475 62.1316 11.0138 62.1049 9.68411C62.0742 8.15387 61.0087 6.78956 59.4108 6.76282C59.0987 6.75732 58.7865 6.76282 58.4743 6.76282C56.8017 6.76282 55.1284 6.76282 53.4558 6.76282C50.9253 6.76282 48.3957 6.76282 45.8652 6.76282C43.1271 6.76282 40.3883 6.76282 37.6502 6.76282C35.3438 6.76282 33.0375 6.76282 30.7319 6.76282C29.5312 6.76282 28.3304 6.76282 27.1296 6.76282C25.9808 6.76282 24.9837 7.3919 24.5394 8.47234C24.2846 9.09199 24.3051 9.72736 24.3051 10.3769C24.3051 12.3687 24.3051 14.3605 24.3051 16.3523C24.3051 19.0558 24.3051 21.7593 24.3051 24.4635C24.3051 26.2564 24.3051 28.0493 24.3051 29.8414C24.3051 30.8809 24.5544 31.9252 25.4398 32.5834C26.0115 33.008 26.6492 33.1063 27.3294 33.1063C28.6992 33.1063 30.069 33.1063 31.4388 33.1063C33.8223 33.1063 36.2049 33.1063 38.5883 33.1063C41.3358 33.1063 44.0833 33.1063 46.8308 33.1063C49.2937 33.1063 51.7565 33.1063 54.2194 33.1063C55.748 33.1063 57.2775 33.1063 58.8061 33.1063C59.0177 33.1063 59.2292 33.1063 59.4415 33.1063C60.2161 33.1047 60.2184 31.4534 59.4407 31.4534Z" fill="#4A8FE0"/>
<path d="M28.3138 17.9766C28.2383 17.2689 28.1078 15.8173 29.0797 15.6726C29.4863 15.612 29.9329 15.6459 30.3434 15.6341C30.8128 15.6207 31.2823 15.6073 31.7517 15.594C32.1952 15.5814 32.6387 15.5688 33.0814 15.5562C33.4487 15.546 34.0699 15.4107 34.4064 15.5995C34.7878 15.8141 34.787 16.4723 34.7918 16.849C34.8012 17.6055 34.6817 18.3533 34.7092 19.1105C34.7485 20.2051 32.8731 19.9912 32.1842 19.9818C31.6975 19.9755 31.2107 19.9637 30.724 19.9629C30.3104 19.9622 29.8708 20.0109 29.469 19.8914C28.6236 19.6398 28.4058 18.7472 28.3138 17.9766C28.2871 17.7549 28.0811 17.5079 27.8396 17.5921C27.577 17.6841 27.544 18.0427 27.5707 18.2691C27.6745 19.1443 27.9427 20.0927 28.6818 20.6494C29.4422 21.2211 30.481 21.0599 31.3743 21.0725C32.6089 21.089 34.8075 21.4381 35.3697 19.9323C35.5262 19.5131 35.4617 19.0964 35.4664 18.6623C35.472 18.1394 35.5482 17.6204 35.5608 17.0975C35.5773 16.4141 35.5278 15.6419 35.1598 15.0459C34.6243 14.1793 33.4754 14.4443 32.6128 14.4687C31.4686 14.5009 30.3127 14.4899 29.1701 14.5662C27.4024 14.6849 27.4331 16.9748 27.5715 18.2691C27.5951 18.4917 27.8066 18.737 28.0457 18.6537C28.3099 18.5609 28.3382 18.2039 28.3138 17.9766Z" fill="#4A8FE0"/>
<path d="M30.9172 24.8473C30.325 24.2842 29.173 24.2638 28.6753 24.9448C28.1704 25.636 28.1523 26.7023 28.7492 27.3423C29.2815 27.914 30.2755 27.9927 30.8495 27.4249C31.4322 26.8477 31.5109 25.5699 30.9958 24.933C30.5696 24.4061 30.1371 25.3238 30.4509 25.7115C30.6522 25.96 30.568 26.4577 30.2841 26.6103C29.9531 26.788 29.4829 26.7534 29.2202 26.4742C28.9867 26.2265 29.0464 25.7854 29.3476 25.6053C29.6614 25.4174 30.2763 25.5573 30.5287 25.7972C30.7245 25.9835 30.9698 25.794 31.0556 25.5998C31.1633 25.356 31.1114 25.0321 30.9172 24.8473Z" fill="#4A8FE0"/>
<path d="M36.2648 24.8473C35.6727 24.2842 34.5207 24.2638 34.0229 24.9448C33.5181 25.636 33.5 26.7023 34.0968 27.3423C34.6292 27.914 35.6232 27.9927 36.1972 27.4249C36.7799 26.8477 36.8585 25.5699 36.3435 24.933C35.9173 24.4061 35.4848 25.3238 35.7985 25.7115C35.9998 25.96 35.9157 26.4577 35.6318 26.6103C35.3008 26.788 34.8305 26.7534 34.5679 26.4742C34.3343 26.2265 34.3941 25.7854 34.6953 25.6053C35.009 25.4174 35.6239 25.5573 35.8764 25.7972C36.0722 25.9835 36.3175 25.794 36.4032 25.5998C36.511 25.356 36.4591 25.0321 36.2648 24.8473Z" fill="#4A8FE0"/>
<path d="M41.4542 24.8473C40.8621 24.2842 39.7101 24.2638 39.2124 24.9448C38.7075 25.636 38.6895 26.7023 39.2863 27.3423C39.8186 27.914 40.8125 27.9927 41.3866 27.4249C41.9692 26.8477 42.0479 25.5699 41.5328 24.933C41.1066 24.4061 40.6742 25.3238 40.9879 25.7115C41.1892 25.96 41.1051 26.4577 40.8212 26.6103C40.4902 26.788 40.0199 26.7534 39.7573 26.4742C39.5238 26.2265 39.5835 25.7854 39.8847 25.6053C40.1984 25.4174 40.8133 25.5573 41.0657 25.7972C41.2615 25.9835 41.5069 25.794 41.5926 25.5998C41.7003 25.356 41.6484 25.0321 41.4542 24.8473Z" fill="#4A8FE0"/>
<path d="M46.88 24.8473C46.2879 24.2842 45.1359 24.2638 44.6382 24.9448C44.1333 25.636 44.1152 26.7023 44.7121 27.3423C45.2444 27.914 46.2384 27.9927 46.8124 27.4249C47.3951 26.8477 47.4737 25.5699 46.9587 24.933C46.5325 24.4061 46.1 25.3238 46.4137 25.7115C46.615 25.96 46.5309 26.4577 46.247 26.6103C45.916 26.788 45.4457 26.7534 45.1831 26.4742C44.9495 26.2265 45.0093 25.7854 45.3105 25.6053C45.6242 25.4174 46.2392 25.5573 46.4916 25.7972C46.6874 25.9835 46.9327 25.794 47.0184 25.5998C47.1262 25.356 47.0743 25.0321 46.88 24.8473Z" fill="#4A8FE0"/>
<path d="M52.3058 24.8473C51.7137 24.2842 50.5617 24.2638 50.0639 24.9448C49.5591 25.636 49.541 26.7023 50.1379 27.3423C50.6702 27.914 51.6642 27.9927 52.2382 27.4249C52.8209 26.8477 52.8995 25.5699 52.3844 24.933C51.9582 24.4061 51.5258 25.3238 51.8395 25.7115C52.0408 25.96 51.9567 26.4577 51.6728 26.6103C51.3418 26.788 50.8715 26.7534 50.6089 26.4742C50.3753 26.2265 50.4351 25.7854 50.7363 25.6053C51.05 25.4174 51.6649 25.5573 51.9174 25.7972C52.1132 25.9835 52.3585 25.794 52.4442 25.5998C52.5519 25.356 52.5 25.0321 52.3058 24.8473Z" fill="#4A8FE0"/>
<path d="M57.4172 24.8473C56.825 24.2842 55.673 24.2638 55.1753 24.9448C54.6704 25.636 54.6523 26.7023 55.2492 27.3423C55.7815 27.914 56.7755 27.9927 57.3495 27.4249C57.9322 26.8477 58.0108 25.5699 57.4958 24.933C57.0696 24.4061 56.6371 25.3238 56.9508 25.7115C57.1522 25.96 57.068 26.4577 56.7841 26.6103C56.4531 26.788 55.9828 26.7534 55.7202 26.4742C55.4867 26.2265 55.5464 25.7854 55.8476 25.6053C56.1613 25.4174 56.7763 25.5573 57.0287 25.7972C57.2245 25.9835 57.4698 25.794 57.5556 25.5998C57.6633 25.356 57.6114 25.0321 57.4172 24.8473Z" fill="#4A8FE0"/>
<path d="M52.224 6.08788C51.2906 5.98251 50.6332 7.04723 49.7163 7.25089C49.335 7.33582 48.9331 7.26347 48.5486 7.33031C48.2026 7.39008 47.8865 7.55835 47.5712 7.71405C46.4734 8.25427 45.3096 8.65846 44.1136 8.91402C43.4759 9.05006 42.8098 9.15228 42.2602 9.503C41.7105 9.85371 41.3087 10.5426 41.5218 11.159C41.6122 11.4209 41.7994 11.6371 42.0007 11.8274C42.3522 12.1601 42.7595 12.4337 43.1991 12.6342C44.8009 13.364 46.6606 13.0762 48.3945 12.7734C49.0881 12.6523 49.7808 12.532 50.4744 12.4109C51.0358 12.3134 51.5084 12.0964 52.0416 12.2466C52.64 12.4148 53.2423 12.915 53.8423 13.1446C55.1516 13.6455 56.556 13.8885 57.9557 13.9066C60.1842 13.9349 62.3947 13.408 64.4659 12.5863L63.9791 5.10731C62.997 5.22211 62.0188 4.9178 61.0759 4.6182C59.0605 3.97654 57.0137 3.32072 55.2617 2.13569C54.9707 1.9391 54.6814 1.72443 54.3448 1.62457C53.9312 1.50189 53.4877 1.56402 53.0575 1.52627C52.0872 1.44135 51.2316 0.857875 50.2817 0.641629C49.2375 0.404152 48.1311 0.626688 47.1536 1.06233C46.1762 1.49796 45.3049 2.13726 44.4415 2.77106C42.8209 3.96159 40.1575 5.23705 38.7617 6.68472" fill="white"/>
<path d="M52.225 5.53754C51.1918 5.46598 50.6295 6.44734 49.7126 6.69504C49.3824 6.78469 49.0317 6.72571 48.6951 6.76031C48.3908 6.79176 48.1038 6.88219 47.8262 7.0088C47.2333 7.2793 46.6561 7.56868 46.0435 7.79436C45.4255 8.02161 44.7925 8.20877 44.15 8.35267C43.5563 8.48556 42.9343 8.56734 42.3847 8.84413C41.3561 9.36155 40.7066 10.6268 41.3192 11.7057C41.8995 12.7279 43.1875 13.3224 44.2947 13.5292C45.545 13.7627 46.8197 13.5913 48.0605 13.3814C48.7423 13.2658 49.4233 13.1447 50.1042 13.0259C50.6924 12.9237 51.4096 12.6249 52.0001 12.7955C52.6048 12.9701 53.1034 13.4097 53.6805 13.6495C54.3002 13.9074 54.9631 14.0796 55.6205 14.2094C58.6424 14.8062 61.7351 14.2306 64.5691 13.1156C64.7586 13.0409 64.8648 12.7767 64.8522 12.5848C64.7099 10.4019 64.5683 8.2182 64.426 6.0353C64.4055 5.72547 64.3859 5.41565 64.3654 5.10662C64.3529 4.90924 64.2553 4.53022 63.9801 4.55617C62.9162 4.65761 61.916 4.32184 60.9165 4.00258C60.0382 3.72186 59.1606 3.43641 58.3019 3.09986C57.3984 2.74521 56.5059 2.33631 55.6873 1.81103C55.3256 1.57906 54.978 1.28968 54.5723 1.13556C54.106 0.958627 53.6169 1.01289 53.1309 0.979072C52.2046 0.915378 51.3994 0.372011 50.5147 0.141611C49.6049 -0.0950802 48.666 -0.0188044 47.7735 0.258777C46.0404 0.797426 44.6863 2.06188 43.1797 3.01414C41.6117 4.00494 39.8809 4.87229 38.5693 6.20908C38.379 6.40331 38.324 6.7092 38.4309 6.9624C38.5111 7.15113 38.7659 7.35558 38.9578 7.15978C40.0988 5.99677 41.5716 5.1939 42.9493 4.34936C43.6436 3.92395 44.3175 3.4773 44.9757 2.99842C45.7361 2.44483 46.5146 1.90303 47.3858 1.53738C48.2571 1.17094 49.2416 0.968064 50.1805 1.17251C51.0494 1.36124 51.8185 1.85271 52.6945 2.02177C53.1498 2.10984 53.6113 2.04615 54.0659 2.11692C54.5377 2.19084 54.9088 2.51245 55.2988 2.76251C56.0632 3.25319 56.8755 3.65974 57.7137 4.0073C58.6935 4.41306 59.7024 4.74254 60.7121 5.06494C61.7705 5.40307 62.8541 5.76558 63.9801 5.65785C63.8519 5.47463 63.723 5.29062 63.5948 5.1074C63.7371 7.29031 63.8787 9.474 64.021 11.6569C64.0415 11.9667 64.0611 12.2765 64.0816 12.5856C64.1759 12.4087 64.2703 12.2317 64.3646 12.0548C62.0536 12.9638 59.5821 13.5158 57.0886 13.3153C55.8957 13.2194 54.5927 12.985 53.5264 12.4157C53.02 12.1452 52.5396 11.7796 51.9632 11.6758C51.4096 11.5759 50.8678 11.7914 50.3283 11.8865C49.1252 12.0988 47.919 12.3465 46.7033 12.4763C45.5584 12.599 44.3702 12.5887 43.3039 12.1036C42.8219 11.8842 42.2589 11.5342 41.9593 11.0829C41.673 10.652 42.111 10.1864 42.4759 9.96704C42.9398 9.68789 43.5044 9.59352 44.0258 9.4858C44.6202 9.36234 45.2069 9.21136 45.7833 9.02028C46.4084 8.81347 47.0194 8.56419 47.6123 8.27639C47.9064 8.13328 48.2036 7.96185 48.5253 7.88951C48.8689 7.81166 49.2282 7.87299 49.575 7.82817C50.0814 7.76291 50.4974 7.50184 50.9063 7.21246C51.3105 6.92623 51.7045 6.60383 52.2266 6.64C52.7338 6.67381 52.7456 5.57371 52.225 5.53754Z" fill="#4A8FE0"/>
<path d="M47.9756 5.62966C47.8867 6.06845 47.7979 6.50802 47.709 6.9468C47.6626 7.17641 47.7295 7.53185 47.978 7.62385C48.232 7.71821 48.4089 7.45164 48.4521 7.23932C48.541 6.80054 48.6299 6.36097 48.7187 5.92219C48.7651 5.69257 48.6983 5.33714 48.4498 5.24514C48.1958 5.15078 48.0181 5.41735 47.9756 5.62966Z" fill="#4A8FE0"/>
<path d="M64.585 13.7378C64.6031 13.8832 64.644 14.0224 64.7431 14.127C64.8673 14.2591 65.056 14.3039 65.233 14.3425C65.8888 14.4856 66.5839 14.6271 67.2177 14.4069C67.6557 14.2544 68.0741 14.0326 68.4964 13.8408C68.5569 13.8133 68.6206 13.7842 68.6631 13.733C68.7181 13.6678 68.7307 13.5789 68.7417 13.494C69.0909 10.693 68.3941 7.88025 68.7692 5.08321C68.8023 4.83551 68.84 4.56422 68.711 4.35033C68.6151 4.19149 68.4445 4.09477 68.2738 4.02321C67.504 3.70081 66.6083 3.72046 65.7881 3.72361C65.4138 3.72518 65.0089 3.75742 64.7273 4.00276C64.3562 4.32595 64.3365 4.88583 64.3452 5.37809C64.3916 8.09099 64.4789 10.7984 64.5709 13.5097C64.5716 13.5844 64.5756 13.6623 64.585 13.7378Z" fill="white"/>
<path d="M64.214 13.884C64.2879 14.311 64.4931 14.6704 64.9178 14.8182C65.366 14.9747 65.9031 15.0541 66.3772 15.0691C66.8742 15.0848 67.3224 14.9543 67.7738 14.7553C68.1646 14.5831 68.7827 14.4101 68.9958 14.0099C69.2113 13.6057 69.1814 13.0427 69.2058 12.5929C69.2364 12.0173 69.2325 11.4409 69.212 10.8653C69.1743 9.78717 69.0799 8.71223 69.0493 7.63415C69.0343 7.10887 69.0343 6.5828 69.0634 6.0583C69.0925 5.53459 69.2553 4.95741 69.1617 4.43449C68.9887 3.46571 67.8737 3.26991 67.0488 3.2015C66.2907 3.1378 65.1615 2.99862 64.5317 3.52783C63.7988 4.14354 63.9561 5.31678 63.9726 6.16053C63.9977 7.41161 64.0308 8.66269 64.0677 9.91377C64.1055 11.1829 64.0842 12.4741 64.1998 13.7386C64.2203 13.9611 64.3044 14.2843 64.5852 14.289C64.8376 14.2937 64.9901 13.9517 64.9705 13.7386C64.8903 12.8618 64.9028 11.9669 64.8745 11.0862C64.8454 10.1741 64.8187 9.26268 64.7943 8.35051C64.7707 7.4643 64.7503 6.57808 64.7346 5.69186C64.7291 5.37654 64.6693 4.97865 64.792 4.67826C64.928 4.34485 65.2952 4.29216 65.6176 4.27801C66.371 4.24577 67.199 4.23161 67.924 4.46359C68.0482 4.5029 68.2834 4.5548 68.3706 4.66332C68.4611 4.77498 68.395 4.94719 68.3785 5.08795C68.3258 5.53459 68.2912 5.98439 68.2771 6.43418C68.2236 8.19009 68.4571 9.93815 68.4571 11.6933C68.4571 12.1698 68.443 12.6479 68.3958 13.1221C68.3675 13.4012 68.4076 13.3037 68.141 13.4295C67.9295 13.5294 67.7195 13.6324 67.5049 13.7244C67.0346 13.9257 66.6021 14.0036 66.0894 13.9485C65.841 13.9218 65.0058 13.8809 64.9563 13.5931C64.9186 13.3737 64.7306 13.1213 64.4821 13.2086C64.2289 13.2959 64.1755 13.6607 64.214 13.884Z" fill="#4A8FE0"/>
<path d="M37.6851 7.87951C38.5171 7.82525 39.3428 7.80795 40.1763 7.81974C40.6922 7.82682 40.6961 6.72593 40.1763 6.71886C39.3428 6.70706 38.5171 6.72436 37.6851 6.77862C37.1661 6.81243 37.174 7.91253 37.6851 7.87951Z" fill="#4A8FE0"/>
<path d="M7.47324 37.8981C7.28059 39.4071 7.17757 40.9272 7.18387 42.448C7.18701 43.2092 7.21611 43.9704 7.27115 44.73C7.31283 45.304 7.257 46.1596 7.74768 46.574C7.98987 46.7784 8.29105 46.7887 8.593 46.806C8.97989 46.8288 9.36756 46.8468 9.75523 46.8641C10.5298 46.8995 11.3051 46.9271 12.0805 46.9475C13.6571 46.9884 15.2345 46.997 16.8119 46.9774C17.3293 46.9711 17.3293 45.8702 16.8119 45.8765C14.0471 45.9119 11.276 45.8686 8.51594 45.7011C8.17781 45.6807 8.12827 45.6587 8.09289 45.3378C8.05357 44.9855 8.03391 44.6285 8.01268 44.2747C7.97415 43.6157 7.95449 42.956 7.95527 42.2962C7.95606 40.9232 8.04413 39.5526 8.21713 38.1907C8.24701 37.9563 8.20769 37.6111 7.9482 37.5136C7.70443 37.4224 7.50076 37.6827 7.47324 37.8981Z" fill="#4A8FE0"/>
<path d="M9.98924 39.2378C10.001 40.5487 9.74548 41.9208 10.0514 43.2159C10.1363 43.5761 10.3054 43.9237 10.6443 44.1029C11.0107 44.2972 11.4864 44.2539 11.8883 44.2657C12.9498 44.2972 14.0114 44.3153 15.0738 44.3208C15.5904 44.3231 15.5928 43.2222 15.0738 43.2199C14.1931 43.2152 13.3123 43.2026 12.4316 43.1806C12.0157 43.1696 11.5879 43.1829 11.1735 43.1389C10.763 43.0956 10.7638 42.8456 10.7308 42.4901C10.6278 41.4018 10.7693 40.3277 10.7591 39.2386C10.7567 39.0153 10.6419 38.6929 10.3738 38.6882C10.1088 38.6834 9.98689 39.0247 9.98924 39.2378Z" fill="#4A8FE0"/>
</g>
<defs>
<clipPath id="clip0_844_3379">
<rect width="69.3403" height="70" fill="white"/>
</clipPath>
</defs>
</svg>
