<svg width="31" height="30" viewBox="0 0 31 30" fill="none" xmlns="http://www.w3.org/2000/svg">
<path d="M15 30C6.71571 30 0 23.2843 0 15C0 6.71571 6.71571 0 15 0C23.2922 0 30.0079 6.71571 30.0079 15C30.0079 23.2843 23.2922 30 15 30Z" fill="#4A8FE0"/>
<path d="M15.0005 8.26068C17.1997 8.26068 17.4598 8.26856 18.3269 8.30797C19.1308 8.34738 19.5644 8.48138 19.856 8.59173C20.2422 8.7415 20.5102 8.92279 20.8019 9.20655C21.0935 9.4982 21.2669 9.7662 21.4167 10.1524C21.5271 10.4441 21.6611 10.8776 21.7005 11.6816C21.7399 12.5486 21.7478 12.8088 21.7478 15.0079C21.7478 17.2071 21.7399 17.4672 21.7005 18.3342C21.6611 19.1382 21.5271 19.5718 21.4167 19.8634C21.2669 20.2496 21.0857 20.5176 20.8019 20.8093C20.5102 21.093 20.2422 21.2743 19.856 21.4241C19.5644 21.5345 19.1308 21.6685 18.3269 21.7079C17.4598 21.7473 17.1997 21.7552 15.0005 21.7552C12.8014 21.7552 12.5412 21.7473 11.6742 21.7079C10.8702 21.6685 10.4367 21.5345 10.145 21.4241C9.7588 21.2743 9.4908 21.093 9.19916 20.8093C8.90751 20.5176 8.73411 20.2496 8.58434 19.8634C8.47399 19.5718 8.33999 19.1382 8.30058 18.3342C8.26117 17.4672 8.25328 17.2071 8.25328 15.0079C8.25328 12.8088 8.26117 12.5486 8.30058 11.6816C8.33999 10.8776 8.47399 10.4441 8.58434 10.1524C8.73411 9.7662 8.9154 9.4982 9.19916 9.20655C9.4908 8.91491 9.7588 8.7415 10.145 8.59173C10.4367 8.48138 10.8702 8.34738 11.6742 8.30797C12.5491 8.26856 12.8092 8.26068 15.0005 8.26068ZM15.0005 6.77881C12.7698 6.77881 12.4861 6.78669 11.6111 6.8261C10.7362 6.86551 10.1372 7.00739 9.61692 7.21233C9.07304 7.42516 8.61587 7.70104 8.1587 8.15821C7.70152 8.61538 7.41776 9.07255 7.21282 9.61643C7.00788 10.1367 6.87388 10.7357 6.82659 11.6107C6.78718 12.4856 6.7793 12.7693 6.7793 15C6.7793 17.2307 6.78718 17.5145 6.82659 18.3894C6.866 19.2644 7.00788 19.8634 7.21282 20.3836C7.42564 20.9275 7.70152 21.3847 8.1587 21.8419C8.61587 22.299 9.07304 22.5828 9.61692 22.7877C10.1372 22.9927 10.7362 23.1267 11.6111 23.174C12.4861 23.2134 12.7698 23.2213 15.0005 23.2213C17.2312 23.2213 17.515 23.2134 18.3899 23.174C19.2648 23.1346 19.8639 22.9927 20.3841 22.7877C20.928 22.5749 21.3852 22.299 21.8424 21.8419C22.2995 21.3847 22.5833 20.9275 22.7882 20.3836C22.9932 19.8634 23.1272 19.2644 23.1745 18.3894C23.2139 17.5145 23.2218 17.2307 23.2218 15C23.2218 12.7693 23.2139 12.4856 23.1745 11.6107C23.135 10.7357 22.9932 10.1367 22.7882 9.61643C22.5754 9.07255 22.2995 8.61538 21.8424 8.15821C21.3852 7.70104 20.928 7.41727 20.3841 7.21233C19.8639 7.00739 19.2648 6.8734 18.3899 6.8261C17.515 6.78669 17.2391 6.77881 15.0005 6.77881Z" fill="white"/>
<path d="M15.0003 10.7751C12.6671 10.7751 10.7754 12.6669 10.7754 15.0001C10.7754 17.3332 12.6671 19.225 15.0003 19.225C17.3335 19.225 19.2252 17.3332 19.2252 15.0001C19.2252 12.6669 17.3335 10.7751 15.0003 10.7751ZM15.0003 17.7431C13.4869 17.7431 12.2573 16.5135 12.2573 15.0001C12.2573 13.4867 13.4869 12.257 15.0003 12.257C16.5137 12.257 17.7433 13.4867 17.7433 15.0001C17.7433 16.5135 16.5216 17.7431 15.0003 17.7431Z" fill="white"/>
<path d="M20.3846 10.6096C20.3846 11.1534 19.9432 11.5948 19.3993 11.5948C18.8555 11.5948 18.4141 11.1534 18.4141 10.6096C18.4141 10.0657 18.8555 9.62427 19.3993 9.62427C19.9432 9.62427 20.3846 10.0657 20.3846 10.6096Z" fill="white"/>
</svg>
