<svg width="30" height="30" viewBox="0 0 30 30" fill="none" xmlns="http://www.w3.org/2000/svg">
<path fill-rule="evenodd" clip-rule="evenodd" d="M16.5 24C17.2956 24 18.0587 24.3161 18.6213 24.8787C19.1839 25.4413 19.5 26.2044 19.5 27C19.5 27.7956 19.1839 28.5587 18.6213 29.1213C18.0587 29.6839 17.2956 30 16.5 30C15.7044 30 14.9413 29.6839 14.3787 29.1213C13.8161 28.5587 13.5 27.7956 13.5 27C13.5 26.2044 13.8161 25.4413 14.3787 24.8787C14.9413 24.3161 15.7044 24 16.5 24ZM7.1115 19.5C8.10606 19.5 9.05989 19.8951 9.76315 20.5984C10.4664 21.3016 10.8615 22.2554 10.8615 23.25C10.8615 24.2446 10.4664 25.1984 9.76315 25.9016C9.05989 26.6049 8.10606 27 7.1115 27C6.11694 27 5.16311 26.6049 4.45985 25.9016C3.75659 25.1984 3.3615 24.2446 3.3615 23.25C3.3615 22.2554 3.75659 21.3016 4.45985 20.5984C5.16311 19.8951 6.11694 19.5 7.1115 19.5ZM24.4785 20.25C25.2741 20.25 26.0372 20.5661 26.5998 21.1287C27.1624 21.6913 27.4785 22.4544 27.4785 23.25C27.4785 24.0456 27.1624 24.8087 26.5998 25.3713C26.0372 25.9339 25.2741 26.25 24.4785 26.25C23.6829 26.25 22.9198 25.9339 22.3572 25.3713C21.7946 24.8087 21.4785 24.0456 21.4785 23.25C21.4785 22.4544 21.7946 21.6913 22.3572 21.1287C22.9198 20.5661 23.6829 20.25 24.4785 20.25ZM27.75 13.9785C28.3467 13.9785 28.919 14.2156 29.341 14.6375C29.7629 15.0595 30 15.6318 30 16.2285C30 16.8252 29.7629 17.3975 29.341 17.8195C28.919 18.2414 28.3467 18.4785 27.75 18.4785C27.1533 18.4785 26.581 18.2414 26.159 17.8195C25.7371 17.3975 25.5 16.8252 25.5 16.2285C25.5 15.6318 25.7371 15.0595 26.159 14.6375C26.581 14.2156 27.1533 13.9785 27.75 13.9785ZM3.75 9C4.74456 9 5.69839 9.39509 6.40165 10.0983C7.10491 10.8016 7.5 11.7554 7.5 12.75C7.5 13.7446 7.10491 14.6984 6.40165 15.4017C5.69839 16.1049 4.74456 16.5 3.75 16.5C2.75544 16.5 1.80161 16.1049 1.09835 15.4017C0.395088 14.6984 0 13.7446 0 12.75C0 11.7554 0.395088 10.8016 1.09835 10.0983C1.80161 9.39509 2.75544 9 3.75 9ZM26.679 7.8105C27.0768 7.8105 27.4584 7.96854 27.7397 8.24984C28.021 8.53114 28.179 8.91267 28.179 9.3105C28.179 9.70832 28.021 10.0899 27.7397 10.3712C27.4584 10.6525 27.0768 10.8105 26.679 10.8105C26.2812 10.8105 25.8996 10.6525 25.6183 10.3712C25.337 10.0899 25.179 9.70832 25.179 9.3105C25.179 8.91267 25.337 8.53114 25.6183 8.24984C25.8996 7.96854 26.2812 7.8105 26.679 7.8105ZM12 0C13.1935 0 14.3381 0.474106 15.182 1.31802C16.0259 2.16193 16.5 3.30653 16.5 4.5C16.5 5.69347 16.0259 6.83807 15.182 7.68198C14.3381 8.52589 13.1935 9 12 9C10.8065 9 9.66193 8.52589 8.81802 7.68198C7.97411 6.83807 7.5 5.69347 7.5 4.5C7.5 3.30653 7.97411 2.16193 8.81802 1.31802C9.66193 0.474106 10.8065 0 12 0V0ZM23.25 4.5C23.4489 4.5 23.6397 4.57902 23.7803 4.71967C23.921 4.86032 24 5.05109 24 5.25C24 5.44891 23.921 5.63968 23.7803 5.78033C23.6397 5.92098 23.4489 6 23.25 6C23.0511 6 22.8603 5.92098 22.7197 5.78033C22.579 5.63968 22.5 5.44891 22.5 5.25C22.5 5.05109 22.579 4.86032 22.7197 4.71967C22.8603 4.57902 23.0511 4.5 23.25 4.5Z" fill="#4A8FE0"/>
</svg>
