<svg width="20" height="30" viewBox="0 0 20 30" fill="none" xmlns="http://www.w3.org/2000/svg">
<ellipse cx="9.5" cy="28.5" rx="5.5" ry="1.5" fill="#8CBEFA" fill-opacity="0.72"/>
<path fill-rule="evenodd" clip-rule="evenodd" d="M16.5555 17.4643C18.1373 15.6095 19.1044 13.1252 19.1044 10.395C19.1044 4.65402 14.8277 0 9.55221 0C4.27667 0 0 4.65402 0 10.395C0 13.1164 0.960971 15.5936 2.53378 17.4465H2.5293L9.55155 29.2188L16.5555 17.4643Z" fill="#274784"/>
<path d="M13.9037 6.08865C13.9006 6.09016 13.8975 6.09167 13.8944 6.09318L11.7517 6.9581C11.7339 6.96486 11.7146 6.96852 11.6953 6.96833L7.44382 6.88942C7.42456 6.88923 7.40534 6.88519 7.38846 6.87809L5.27896 5.9327C5.22756 5.90985 5.19418 5.85713 5.19551 5.8009C5.19683 5.74467 5.23124 5.69339 5.28385 5.67156L7.42661 4.80664C7.4444 4.79988 7.46369 4.79622 7.48295 4.79641L11.7345 4.87532C11.7537 4.87551 11.7729 4.87956 11.7906 4.88821L13.9001 5.83358C13.9515 5.85643 13.9848 5.90916 13.9835 5.96539C13.9822 6.01777 13.9517 6.06524 13.9037 6.08865ZM11.6735 6.68381L13.4813 5.9535L11.7024 5.15546L7.50869 5.07712L5.70088 5.80743L7.47975 6.60547L11.6735 6.68381Z" fill="#FFFEFE" fill-opacity="0.8"/>
<path d="M9.47915 15.2506C9.45902 15.2605 9.43663 15.2656 9.41506 15.2646C9.36113 15.2641 9.31061 15.2313 9.28875 15.1825L6.4527 8.92366C6.4331 8.87955 6.43669 8.82797 6.46328 8.78816C6.48987 8.74836 6.53557 8.72415 6.58334 8.72386L12.4872 8.83448C12.5357 8.83572 12.5809 8.86159 12.6052 8.90344C12.631 8.94453 12.6328 8.9954 12.6108 9.04064L9.54294 15.1889C9.53036 15.2142 9.50703 15.237 9.47915 15.2506ZM6.80319 9.00956L9.42355 14.7947L12.2587 9.11268L6.80319 9.00956Z" fill="#FFFEFE" fill-opacity="0.8"/>
<path d="M12.5478 9.10186C12.5277 9.11168 12.5053 9.11685 12.4837 9.11587L6.57986 9.00525C6.53363 9.00479 6.48918 8.98047 6.46415 8.94093C6.43911 8.90139 6.4342 8.85203 6.45158 8.80905L7.3169 6.6926C7.33824 6.63811 7.39251 6.60397 7.45029 6.60454L11.7018 6.68345C11.7596 6.68402 11.8124 6.72153 11.8318 6.77719L12.6181 8.9238C12.6339 8.96787 12.6272 9.01712 12.6014 9.05462C12.5866 9.07527 12.5679 9.09204 12.5478 9.10186ZM6.79064 8.7261L12.2808 8.82956L11.5988 6.96752L7.54068 6.89205L6.79064 8.7261Z" fill="#FFFEFE" fill-opacity="0.8"/>
<path d="M12.5477 9.10191C12.5121 9.11928 12.4728 9.12121 12.4352 9.10697C12.3976 9.09273 12.3671 9.06161 12.352 9.02294L11.5657 6.87633C11.5403 6.80442 11.5742 6.72463 11.6453 6.69759L13.7881 5.83267C13.8476 5.80938 13.916 5.82777 13.9548 5.87978L15.1538 7.50499C15.1774 7.53758 15.1862 7.57927 15.1774 7.62002C15.1685 7.66077 15.1427 7.69441 15.1063 7.71409L12.5508 9.1004C12.5508 9.1004 12.5493 9.10116 12.5477 9.10191ZM11.8798 6.90716L12.5618 8.77306L14.8306 7.54187L13.7936 6.13476L11.8798 6.90716Z" fill="#FFFEFE" fill-opacity="0.8"/>
<path d="M9.4805 15.2501C9.43869 15.2704 9.38631 15.2692 9.34496 15.2433C9.28216 15.205 9.2606 15.1254 9.29206 15.0602L12.3599 8.91199C12.3725 8.88668 12.3943 8.86455 12.4183 8.85092L14.9738 7.46461C15.0303 7.43126 15.1049 7.44664 15.1483 7.49637C15.1918 7.54611 15.1949 7.61934 15.1543 7.67364L9.53175 15.2097C9.51694 15.2265 9.49908 15.241 9.4805 15.2501ZM12.5925 9.07839L10.2517 13.7699L14.543 8.01973L12.5925 9.07839Z" fill="#FFFEFE" fill-opacity="0.8"/>
<path d="M6.64448 8.99116C6.63829 8.99418 6.63364 8.99644 6.6267 8.99792C6.58727 9.0114 6.54493 9.00713 6.5097 8.98598L4.00793 7.50356C3.9727 7.48241 3.94838 7.44827 3.9403 7.40812C3.93222 7.36798 3.94265 7.32647 3.96916 7.29437L5.22675 5.71497C5.26731 5.66452 5.33605 5.64824 5.39511 5.67502L7.5046 6.6204C7.57363 6.6519 7.60675 6.73159 7.57831 6.80296L6.71299 8.91941C6.69959 8.95087 6.67545 8.97606 6.64448 8.99116ZM4.29228 7.34379L6.51293 8.65856L7.26456 6.8199L5.38059 5.97537L4.29228 7.34379Z" fill="#FFFEFE" fill-opacity="0.8"/>
<path d="M9.47821 15.2511C9.41627 15.2813 9.33941 15.2613 9.29992 15.2039L3.9621 7.46259C3.92411 7.40828 3.93024 7.33437 3.97541 7.28551C4.02058 7.23664 4.09388 7.22581 4.15132 7.26105L6.65308 8.74347C6.67759 8.75835 6.69818 8.7809 6.71026 8.80567L9.5463 15.0645C9.57723 15.1318 9.55026 15.2102 9.4875 15.2465C9.4844 15.248 9.4813 15.2496 9.47821 15.2511ZM4.56251 7.83295L8.63557 13.7395L6.47218 8.96204L4.56251 7.83295Z" fill="#FFFEFE" fill-opacity="0.8"/>
</svg>
