<svg width="163" height="60" viewBox="0 0 163 60" fill="none" xmlns="http://www.w3.org/2000/svg">
<g clip-path="url(#clip0_859_6925)">
<path d="M23.896 21.7996C23.896 21.7996 8.50634 30.6968 11.2468 42.449C14.4494 56.1815 53.1959 60.0001 53.1959 60.0001C53.1959 60.0001 24.8858 53.083 20.7528 39.2489C17.5502 28.9242 23.896 21.7996 23.896 21.7996Z" fill="#234D9C"/>
<path d="M5.03906 0C5.03906 0 23.2243 5.26509 28.5443 14.4546C32.5225 20.4419 26.5286 27.4628 26.5286 27.4628C26.5286 27.4628 38.9277 20.9587 36.6534 13.7303C34.3813 6.50406 15.06 1.13519 5.03906 0Z" fill="#234D9C"/>
<path d="M28.3885 58.4202C13.3337 58.4202 1.08518 46.1809 1.08518 31.1375C1.08518 19.9656 7.84213 10.3418 17.4879 6.12935C17.0852 5.90909 16.6825 5.6973 16.2798 5.48975C6.66793 10.039 0 19.8237 0 31.1375C0 46.7781 12.7339 59.5046 28.3885 59.5046C31.3812 59.5046 34.268 59.0386 36.9809 58.1767C36.2709 58.0093 35.5545 57.8336 34.836 57.6493C32.7653 58.1491 30.6076 58.4202 28.3885 58.4202Z" fill="#234D9C"/>
<path d="M28.3892 3.85674C43.444 3.85674 55.6926 16.0961 55.6926 31.1395C55.6926 41.4282 49.9614 50.3996 41.5237 55.0463C41.9497 55.2284 42.3736 55.4021 42.7912 55.5715C51.1547 50.6305 56.7756 41.5299 56.7756 31.1374C56.7756 15.4967 44.0417 2.77026 28.3871 2.77026C26.4774 2.77026 24.6123 2.96299 22.8086 3.32515C23.5017 3.57083 24.1841 3.82498 24.8581 4.08759C26.0154 3.93722 27.1917 3.85674 28.3892 3.85674Z" fill="#234D9C"/>
<path d="M76.821 10.3035V28.511H75.3034V11.6293H69.5045L69.2861 18.5569C69.1738 22.2675 68.8305 24.8534 68.2518 26.3169C67.6732 27.7804 66.6135 28.511 65.0705 28.511H64.5957V27.2106H65.0069C65.9925 27.2106 66.6771 26.6197 67.0586 25.4358C67.4401 24.2519 67.6817 21.9604 67.7855 18.559L68.0547 10.3056H76.821V10.3035Z" fill="#234D9C"/>
<path d="M91.1221 21.9709C91.1221 24.2137 90.6261 25.908 89.6363 27.0538C88.6465 28.1996 87.2689 28.7736 85.5033 28.7736C83.7717 28.7736 82.4237 28.1975 81.4593 27.0475C80.495 25.8975 80.0117 24.2053 80.0117 21.9709V16.8689C80.0117 14.6345 80.4928 12.9381 81.4593 11.7796C82.4237 10.6211 83.7717 10.0408 85.5033 10.0408C87.2604 10.0408 88.6359 10.6232 89.63 11.7859C90.624 12.9486 91.1221 14.643 91.1221 16.8689V21.9709ZM89.6046 16.8329C89.6046 15.0072 89.2548 13.6454 88.5554 12.7496C87.856 11.8537 86.8386 11.4047 85.5012 11.4047C84.2062 11.4047 83.2228 11.8537 82.5509 12.7496C81.8769 13.6454 81.542 15.0072 81.542 16.8329V21.973C81.542 23.8156 81.879 25.1858 82.5509 26.0881C83.2249 26.9882 84.2083 27.4393 85.5012 27.4393C86.8386 27.4393 87.856 26.9903 88.5554 26.0944C89.2548 25.1986 89.6046 23.824 89.6046 21.973V16.8329Z" fill="#234D9C"/>
<path d="M96.2102 10.3035L101.096 26.2978H101.146L106.032 10.3035H107.986V28.511H106.481V20.5202L106.636 13.0546L106.598 13.0419L101.621 28.511H100.619L95.6548 13.0419L95.6167 13.0546L95.7714 20.5202V28.511H94.2793V10.3035H96.2102Z" fill="#234D9C"/>
<path d="M120.288 11.6293H112.921V18.2075H116.56C118.145 18.2075 119.354 18.6649 120.187 19.5777C121.017 20.4906 121.435 21.7443 121.435 23.3349C121.435 24.936 121.017 26.1983 120.18 27.1238C119.345 28.0493 118.137 28.511 116.56 28.511H111.391V10.3035H120.288V11.6293ZM112.921 19.5206V27.2106H116.56C117.709 27.2106 118.555 26.8506 119.099 26.1284C119.644 25.4062 119.915 24.468 119.915 23.3074C119.915 22.1997 119.642 21.289 119.093 20.5816C118.544 19.8742 117.7 19.5184 116.56 19.5184H112.921V19.5206Z" fill="#234D9C"/>
<path d="M132.384 23.3963H126.02L124.502 28.511H122.934L128.552 10.3035H129.915L135.458 28.511H133.889L132.384 23.3963ZM126.418 22.0832H131.999L129.235 12.7285H129.197L126.418 22.0832Z" fill="#234D9C"/>
<path d="M139.395 20.9713V28.5131H137.877V10.3035H143.148C144.725 10.3035 145.931 10.7821 146.768 11.7415C147.603 12.7009 148.021 13.9971 148.021 15.63C148.021 17.2819 147.603 18.5844 146.768 19.5375C145.933 20.4927 144.725 20.9692 143.148 20.9692H139.395V20.9713ZM139.395 19.6582H143.148C144.288 19.6582 145.132 19.2833 145.681 18.5336C146.23 17.7839 146.503 16.8245 146.503 15.6575C146.503 14.4736 146.232 13.5057 145.687 12.756C145.143 12.0063 144.297 11.6314 143.148 11.6314H139.395V19.6582Z" fill="#234D9C"/>
<path d="M162.083 30.1164H160.566V28.511H149.674V30.1164H148.156V27.2106H149.25C149.782 26.552 150.297 25.4104 150.799 23.7839C151.302 22.1573 151.594 19.8615 151.681 16.8944L151.963 10.3035H160.348V27.2106H162.083V30.1164ZM153.211 16.8944C153.116 19.3215 152.855 21.4034 152.427 23.14C151.999 24.8788 151.467 26.2343 150.833 27.2106H158.817V11.6293H153.43L153.211 16.8944Z" fill="#234D9C"/>
<path d="M77.6093 54.6883H73.8917V39.3314H68.3026V54.6883H64.5723V36.4807H77.6093V54.6883Z" fill="#234D9C"/>
<path d="M95.6165 50.7998H90.8031L89.8536 54.6883H86.0957L91.2969 36.4807H95.1608L100.337 54.6883H96.5935L95.6165 50.7998ZM91.4983 47.9618H94.9213L93.2236 41.1083H93.1833L91.4983 47.9618Z" fill="#234D9C"/>
<path d="M112.533 48.1609V54.6883H108.803V36.4807H115.301C117.181 36.4807 118.654 37.0102 119.72 38.0691C120.786 39.1281 121.318 40.545 121.318 42.3219C121.318 44.1051 120.786 45.5262 119.72 46.5788C118.654 47.6336 117.181 48.1609 115.301 48.1609H112.533ZM112.533 45.3102H115.301C116.058 45.3102 116.63 45.0349 117.014 44.4842C117.397 43.9336 117.588 43.222 117.588 42.3452C117.588 41.4535 117.395 40.7271 117.014 40.1701C116.63 39.611 116.06 39.3314 115.301 39.3314H112.533V45.3102Z" fill="#234D9C"/>
<path d="M135.65 44.7469L135.677 44.8337H135.718L138.284 36.4807H142.188L137.053 51.1493C136.536 52.3925 135.968 53.3349 135.349 53.9809C134.73 54.6268 133.827 54.9509 132.64 54.9509C132.462 54.9509 132.259 54.9445 132.032 54.9318C131.805 54.9191 131.614 54.9085 131.464 54.9001L131.424 52.0621C131.496 52.0875 131.616 52.1023 131.792 52.1065C131.966 52.1108 132.115 52.1129 132.24 52.1129C132.801 52.1129 133.206 51.9689 133.456 51.6809C133.706 51.3928 133.91 50.9332 134.071 50.3L134.245 49.6879H134.217L128.814 36.4828H132.799L135.65 44.7469Z" fill="#234D9C"/>
<path d="M162.089 49.025C162.081 51.018 161.549 52.5047 160.498 53.4832C159.446 54.4638 157.92 54.953 155.924 54.953C153.972 54.953 152.471 54.3918 151.424 53.2714C150.377 52.151 149.854 50.497 149.854 48.3134V42.8725C149.854 40.7144 150.39 39.0646 151.464 37.9272C152.539 36.7899 154.025 36.2202 155.924 36.2202C157.956 36.2202 159.478 36.7137 160.491 37.7027C161.502 38.6897 162.041 40.2061 162.102 42.2478H158.372C158.416 41.0977 158.257 40.2802 157.897 39.7973C157.537 39.3145 156.878 39.0709 155.924 39.0709C155.112 39.0709 154.516 39.3738 154.139 39.9774C153.76 40.5831 153.571 41.5383 153.571 42.8471V48.3113C153.571 49.6625 153.749 50.6325 154.105 51.2255C154.461 51.8185 155.067 52.1129 155.924 52.1129C156.816 52.1129 157.454 51.8821 157.842 51.4183C158.23 50.9544 158.401 50.1581 158.357 49.0229H162.089V49.025Z" fill="#234D9C"/>
</g>
<defs>
<clipPath id="clip0_859_6925">
<rect width="162.105" height="60" fill="white"/>
</clipPath>
</defs>
</svg>
