<svg width="154" height="57" viewBox="0 0 154 57" fill="none" xmlns="http://www.w3.org/2000/svg">
<path d="M22.7003 20.7095C22.7003 20.7095 8.08015 29.1619 10.6836 40.3265C13.7261 53.3723 50.5352 56.9999 50.5352 56.9999C50.5352 56.9999 23.6406 50.4288 19.7143 37.2864C16.6718 27.4778 22.7003 20.7095 22.7003 20.7095Z" fill="white"/>
<path d="M4.78711 0C4.78711 0 22.0631 5.00184 27.117 13.7319C30.8964 19.4198 25.2022 26.0896 25.2022 26.0896C25.2022 26.0896 36.9813 19.9108 34.8208 13.0438C32.6623 6.17886 14.307 1.07843 4.78711 0Z" fill="white"/>
<path d="M26.9691 55.4993C12.6671 55.4993 1.03092 43.8719 1.03092 29.5807C1.03092 18.9674 7.45002 9.82483 16.6135 5.82296C16.231 5.61371 15.8484 5.41251 15.4658 5.21533C6.33453 9.53711 0 18.8326 0 29.5807C0 44.4393 12.0972 56.5294 26.9691 56.5294C29.8122 56.5294 32.5546 56.0868 35.1319 55.2679C34.4574 55.109 33.7768 54.942 33.0942 54.7669C31.127 55.2417 29.0772 55.4993 26.9691 55.4993Z" fill="white"/>
<path d="M26.9696 3.66399C41.2716 3.66399 52.9077 15.2913 52.9077 29.5826C52.9077 39.3569 47.4632 47.8797 39.4473 52.2941C39.8521 52.4671 40.2548 52.6321 40.6514 52.793C48.5968 48.099 53.9366 39.4535 53.9366 29.5806C53.9366 14.722 41.8394 2.63184 26.9676 2.63184C25.1534 2.63184 23.3815 2.81493 21.668 3.15898C22.3264 3.39237 22.9747 3.63381 23.615 3.8833C24.7144 3.74045 25.8319 3.66399 26.9696 3.66399Z" fill="white"/>
<path d="M72.9812 9.78857V27.0858H71.5395V11.0481H66.0305L65.8231 17.6293C65.7164 21.1544 65.3902 23.611 64.8405 25.0013C64.2908 26.3916 63.2841 27.0858 61.8182 27.0858H61.3672V25.8504H61.7578C62.6941 25.8504 63.3445 25.289 63.7069 24.1643C64.0693 23.0396 64.2989 20.8626 64.3975 17.6314L64.6533 9.79059H72.9812V9.78857Z" fill="white"/>
<path d="M86.5666 20.8727C86.5666 23.0034 86.0954 24.613 85.1551 25.7015C84.2148 26.79 82.906 27.3352 81.2287 27.3352C79.5837 27.3352 78.3031 26.788 77.3869 25.6954C76.4708 24.6029 76.0117 22.9953 76.0117 20.8727V16.0258C76.0117 13.9031 76.4688 12.2915 77.3869 11.1909C78.3031 10.0904 79.5837 9.53906 81.2287 9.53906C82.898 9.53906 84.2047 10.0924 85.1491 11.197C86.0934 12.3015 86.5666 13.9111 86.5666 16.0258V20.8727ZM85.1249 15.9916C85.1249 14.2572 84.7927 12.9635 84.1282 12.1124C83.4638 11.2613 82.4973 10.8348 81.2267 10.8348C79.9965 10.8348 79.0622 11.2613 78.4239 12.1124C77.7836 12.9635 77.4655 14.2572 77.4655 15.9916V20.8747C77.4655 22.6251 77.7856 23.9269 78.4239 24.784C79.0642 25.6391 79.9985 26.0677 81.2267 26.0677C82.4973 26.0677 83.4638 25.6411 84.1282 24.79C84.7927 23.939 85.1249 22.6332 85.1249 20.8747V15.9916Z" fill="white"/>
<path d="M91.4007 9.78857L96.0419 24.9832H96.0902L100.731 9.78857H102.588V27.0858H101.158V19.4945L101.305 12.4022L101.269 12.3901L96.5412 27.0858H95.5888L90.8732 12.3901L90.8369 12.4022L90.9839 19.4945V27.0858H89.5664V9.78857H91.4007Z" fill="white"/>
<path d="M114.273 11.0481H107.274V17.2974H110.731C112.237 17.2974 113.385 17.732 114.176 18.5991C114.966 19.4663 115.362 20.6574 115.362 22.1684C115.362 23.6895 114.966 24.8887 114.17 25.7679C113.377 26.6471 112.229 27.0858 110.731 27.0858H105.82V9.78857H114.273V11.0481ZM107.274 18.5448V25.8504H110.731C111.823 25.8504 112.626 25.5083 113.143 24.8223C113.661 24.1362 113.919 23.2448 113.919 22.1423C113.919 21.09 113.659 20.2248 113.137 19.5528C112.616 18.8808 111.815 18.5428 110.731 18.5428H107.274V18.5448Z" fill="white"/>
<path d="M125.767 22.2268H119.721L118.279 27.0858H116.789L122.127 9.78857H123.422L128.687 27.0858H127.197L125.767 22.2268ZM120.099 20.9793H125.401L122.775 12.0923H122.739L120.099 20.9793Z" fill="white"/>
<path d="M132.426 19.923V27.0878H130.984V9.78857H135.992C137.49 9.78857 138.636 10.2433 139.431 11.1547C140.224 12.0662 140.621 13.2975 140.621 14.8488C140.621 16.4181 140.224 17.6555 139.431 18.5609C138.638 19.4683 137.49 19.921 135.992 19.921H132.426V19.923ZM132.426 18.6756H135.992C137.075 18.6756 137.877 18.3195 138.398 17.6072C138.92 16.895 139.179 15.9835 139.179 14.8749C139.179 13.7502 138.922 12.8307 138.404 12.1185C137.887 11.4062 137.083 11.0501 135.992 11.0501H132.426V18.6756Z" fill="white"/>
<path d="M153.981 28.6108H152.539V27.0858H142.192V28.6108H140.75V25.8504H141.789C142.294 25.2246 142.784 24.1402 143.261 22.595C143.738 21.0497 144.016 18.8687 144.098 16.0499L144.366 9.78857H152.332V25.8504H153.981V28.6108ZM145.552 16.0499C145.462 18.3557 145.214 20.3335 144.807 21.9833C144.401 23.6352 143.895 24.9228 143.293 25.8504H150.878V11.0481H145.76L145.552 16.0499Z" fill="white"/>
<path d="M73.7289 51.9539H70.1972V37.3649H64.8875V51.9539H61.3438V34.6567H73.7289V51.9539Z" fill="white"/>
<path d="M90.8357 48.2599H86.263L85.361 51.9539H81.791L86.7322 34.6567H90.4028L95.3198 51.9539H91.764L90.8357 48.2599ZM86.9235 45.5638H90.1753L88.5625 39.053H88.5242L86.9235 45.5638Z" fill="white"/>
<path d="M106.907 45.7529V51.9539H103.363V34.6567H109.537C111.323 34.6567 112.722 35.1597 113.735 36.1657C114.748 37.1717 115.253 38.5178 115.253 40.2058C115.253 41.8999 114.748 43.25 113.735 44.25C112.722 45.2519 111.323 45.7529 109.537 45.7529H106.907ZM106.907 43.0448H109.537C110.256 43.0448 110.799 42.7832 111.164 42.2601C111.528 41.737 111.709 41.0609 111.709 40.228C111.709 39.3809 111.526 38.6908 111.164 38.1616C110.799 37.6305 110.258 37.3649 109.537 37.3649H106.907V43.0448Z" fill="white"/>
<path d="M128.869 42.5096L128.895 42.5921H128.933L131.371 34.6567H135.08L130.202 48.5919C129.71 49.7729 129.171 50.6682 128.583 51.2819C127.995 51.8956 127.137 52.2034 126.009 52.2034C125.84 52.2034 125.647 52.1974 125.432 52.1853C125.216 52.1732 125.035 52.1632 124.892 52.1551L124.854 49.459C124.922 49.4832 125.037 49.4973 125.204 49.5013C125.369 49.5053 125.51 49.5073 125.629 49.5073C126.162 49.5073 126.547 49.3705 126.785 49.0969C127.022 48.8232 127.215 48.3866 127.369 47.785L127.534 47.2036H127.507L122.375 34.6587H126.16L128.869 42.5096Z" fill="white"/>
<path d="M153.985 46.5737C153.977 48.467 153.472 49.8795 152.473 50.809C151.475 51.7406 150.025 52.2053 148.128 52.2053C146.274 52.2053 144.848 51.6722 143.853 50.6078C142.859 49.5435 142.361 47.9721 142.361 45.8977V40.7289C142.361 38.6786 142.871 37.1113 143.892 36.0309C144.912 34.9504 146.324 34.4092 148.128 34.4092C150.059 34.4092 151.505 34.878 152.467 35.8176C153.428 36.7552 153.939 38.1958 153.997 40.1353H150.454C150.496 39.0428 150.345 38.2662 150.003 37.8075C149.66 37.3487 149.034 37.1173 148.128 37.1173C147.357 37.1173 146.791 37.4051 146.433 37.9785C146.072 38.5539 145.893 39.4613 145.893 40.7047V45.8957C145.893 47.1794 146.062 48.1009 146.4 48.6642C146.739 49.2276 147.315 49.5072 148.128 49.5072C148.976 49.5072 149.582 49.2879 149.95 48.8473C150.319 48.4067 150.482 47.6502 150.44 46.5717H153.985V46.5737Z" fill="white"/>
</svg>
