<svg width="25" height="25" viewBox="0 0 25 25" fill="none" xmlns="http://www.w3.org/2000/svg">
<g clip-path="url(#clip0_703_2263)">
<path d="M21.2963 13.5938C21.3288 13.2527 21.3486 12.9072 21.3486 12.5628C21.3486 7.17377 17.379 2.78955 12.4997 2.78955C7.62039 2.78955 3.6508 7.17377 3.6508 12.5628C3.6508 12.9071 3.6705 13.2526 3.70298 13.5938C3.21911 13.9832 2.9082 14.5792 2.9082 15.2472V18.9688C2.9082 20.1393 3.86049 21.0914 5.03087 21.0914H6.05762V21.9329C6.05762 22.0864 6.18199 22.2107 6.33539 22.2107H9.03559C9.18899 22.2107 9.31337 22.0864 9.31337 21.9329V12.2828C9.31337 12.1293 9.18899 12.005 9.03559 12.005H6.33539C6.18199 12.005 6.05762 12.1293 6.05762 12.2828V13.1246H5.69954C5.68749 12.9362 5.6792 12.7481 5.6792 12.5628C5.6792 8.29221 8.73882 4.81782 12.4997 4.81782C16.2605 4.81782 19.3201 8.29221 19.3201 12.5628C19.3201 12.7501 19.312 12.9378 19.3002 13.1246H18.9417V12.2828C18.9417 12.1293 18.8174 12.005 18.664 12.005H15.9638C15.8104 12.005 15.686 12.1293 15.686 12.2828V21.9329C15.686 22.0864 15.8104 22.2107 15.9638 22.2107H18.664C18.8174 22.2107 18.9417 22.0864 18.9417 21.9329V21.0914H19.9685C21.1389 21.0914 22.0911 20.1393 22.0911 18.9688V15.2472C22.0911 14.5792 21.7802 13.9831 21.2963 13.5938ZM6.61317 12.5606H8.75781V21.6551H6.61317V12.5606ZM18.3862 21.6551H16.2415V12.5606H18.3862V21.6551ZM6.05762 13.6801V20.5359H5.03087C4.16675 20.5359 3.46376 19.8327 3.46376 18.9688V15.2472C3.46376 14.3832 4.16675 13.6801 5.03087 13.6801H6.05762ZM12.4997 4.26226C8.43256 4.26226 5.12364 7.98595 5.12364 12.5628C5.12364 12.7481 5.13148 12.9362 5.14285 13.1246H5.03087C4.74914 13.1246 4.48064 13.1809 4.23443 13.281C4.21776 13.0422 4.20635 12.8024 4.20635 12.5628C4.20635 7.48003 7.92678 3.34511 12.4997 3.34511C17.0726 3.34511 20.793 7.48003 20.793 12.5628C20.793 12.8024 20.7816 13.0422 20.7649 13.281C20.5187 13.1809 20.2502 13.1246 19.9685 13.1246H19.8569C19.8681 12.9377 19.8757 12.75 19.8757 12.5628C19.8757 7.98595 16.5668 4.26226 12.4997 4.26226ZM21.5356 18.9688C21.5356 19.8327 20.8326 20.5359 19.9685 20.5359H18.9417V13.6801H19.9685C20.8326 13.6801 21.5356 14.3832 21.5356 15.2472V18.9688Z" fill="#0D4689"/>
</g>
<defs>
<clipPath id="clip0_703_2263">
<rect width="25" height="25" fill="white"/>
</clipPath>
</defs>
</svg>
