<svg width="70" height="70" viewBox="0 0 70 70" fill="none" xmlns="http://www.w3.org/2000/svg">
<path d="M48.4568 33.5563C48.4473 32.9492 48.4283 32.3421 48.4188 31.735C48.3904 30.3596 48.3524 28.9273 48.3809 27.5234C48.3999 26.499 48.4283 25.1046 47.8687 23.9663C46.996 22.1925 45.004 22.0123 43.401 21.8795C42.1394 21.7657 40.7734 21.7182 39.104 21.7182C38.0606 21.7182 37.0266 21.7372 35.9832 21.7562L34.6363 21.7752C34.143 21.7846 33.6498 21.7846 33.1565 21.7846C31.4396 21.7846 29.7322 21.7467 28.0153 21.7088C26.4692 21.6708 24.923 21.6424 23.3768 21.6329C19.6585 21.6424 15.8832 21.7088 12.2313 21.7752C10.5997 21.8036 8.96821 21.8321 7.3272 21.8605H6.65373C4.7566 21.87 2.61286 21.87 1.31333 23.4446C0.0138013 25.0192 0.0802005 27.4476 0.137114 29.5818C0.1466 30.0845 0.165571 30.5588 0.156085 31.0047C0.108657 33.9736 0.118143 36.9996 0.127629 39.9211C0.137114 43.4403 0.137114 47.0733 0.0612293 50.6493C0.0138013 52.9164 -0.0336267 55.5534 0.0327725 58.143C0.0422581 58.5319 0.0422581 58.9587 0.0422581 59.3951C0.0327725 61.0456 0.0232869 62.9142 0.70625 64.3086C1.57893 66.1109 3.30531 66.2626 4.99374 66.2626H5.44905L5.43008 66.5662C5.36368 67.6001 5.25934 69.023 5.96128 69.5731C6.32173 69.8577 6.94778 70 7.93428 70C8.36113 70 8.79747 69.9715 9.1769 69.9525C9.46146 69.9336 9.72706 69.9241 9.9642 69.9146C10.1824 69.9146 10.4385 69.9241 10.7136 69.9431C11.0456 69.962 11.406 69.981 11.7665 69.981C12.715 69.981 13.3316 69.8387 13.7205 69.5352C14.043 69.2791 14.1094 68.9376 14.1568 68.6151C14.2138 68.1408 14.2043 67.6191 14.1853 67.1069C14.1758 66.8033 14.1663 66.5093 14.1758 66.2152H16.8507C20.0853 66.2342 23.3863 66.3385 26.583 66.4429C29.3054 66.5282 32.1226 66.6231 34.8924 66.6516L34.8829 66.7464C34.826 67.7139 34.7501 69.0419 35.4141 69.5731C35.7745 69.8577 36.4006 70 37.3871 70C37.8139 70 38.2503 69.9715 38.6297 69.9525C38.9143 69.9336 39.1799 69.9241 39.417 69.9146C39.6352 69.9146 39.8913 69.9241 40.1664 69.9431C40.4984 69.962 40.8588 69.981 41.2193 69.981C42.1678 69.981 42.7844 69.8387 43.1733 69.5352C43.4958 69.2791 43.5622 68.9281 43.6002 68.6151C43.6666 68.1408 43.6476 67.6096 43.6286 67.0974C43.6191 66.9172 43.6191 66.7369 43.6191 66.5662C45.7249 66.386 47.0339 65.8548 47.6505 64.9441C48.0394 64.356 48.0774 63.6446 48.1153 62.9617L48.1248 62.7814C48.2007 61.425 48.2102 60.0496 48.2102 58.7121C48.2102 58.0386 48.2102 57.3557 48.2291 56.6822C48.2576 54.7376 48.305 52.8026 48.343 50.858C48.4283 45.1856 48.5516 39.3235 48.4568 33.5563ZM47.0339 58.0766C47.0245 58.5983 47.0245 59.12 47.0245 59.6322C47.0245 60.6567 47.015 61.719 46.9581 62.753C46.8158 65.2287 43.9511 65.3331 41.8643 65.4184L41.2477 65.4469C40.0051 65.5133 38.7056 65.5417 37.2733 65.5417C34.5983 65.5417 31.8665 65.4279 29.2295 65.3236C27.1237 65.2382 24.942 65.1528 22.8077 65.1149C22.2006 65.1054 21.5841 65.1054 20.977 65.1054C19.0894 65.1054 17.1922 65.1433 15.3046 65.1813C13.4075 65.2192 11.5104 65.2572 9.61323 65.2572C7.61177 65.2572 5.85693 65.2192 4.25387 65.1244C1.3323 64.9631 1.2659 62.0416 1.20899 59.6891L1.19002 59.0346C1.1331 57.0142 1.08567 55.3163 1.11413 53.5994C1.20899 47.6139 1.25642 42.321 1.25642 37.4264C1.25642 34.7135 1.2659 31.5169 1.34179 28.3771C1.40819 25.6737 1.72121 23.4067 4.74712 23.0747C5.49648 22.9893 6.25533 22.9798 6.96675 22.9798H7.51691C7.51691 22.9798 8.49393 22.9798 8.70262 22.9798C10.0496 22.9609 11.3965 22.9324 12.7435 22.9039C16.2247 22.8375 19.8292 22.7711 23.3674 22.7617C25.549 22.7711 27.7402 22.7901 29.9219 22.8091C32.8055 22.8281 35.6892 22.8565 38.6487 22.8565C38.6487 22.8565 40.3845 22.847 40.7355 22.847C42.0825 22.847 43.5053 22.885 44.8428 23.1885C47.4608 23.7766 47.3565 26.4231 47.2616 28.766C47.2426 29.3257 47.2142 29.8664 47.2331 30.3691C47.4039 36.1269 47.2995 41.9795 47.2047 47.6424L47.0339 58.0766ZM39.3885 68.7668H39.3601C39.1799 68.7668 38.9902 68.7763 38.791 68.7763C38.5633 68.7858 38.3262 68.7953 38.089 68.7953C37.6337 68.7953 37.2827 68.7668 36.9887 68.691C35.9453 68.4443 35.9832 67.6191 36.0212 66.6516V66.6421C36.467 66.6421 36.9223 66.6421 37.3681 66.6421C38.2313 66.6421 39.104 66.6326 39.9672 66.6136C40.1474 66.6136 41.2288 66.6136 41.2288 66.6136C41.6177 66.6136 42.0445 66.6136 42.4714 66.5946V66.6136C42.4809 67.2586 42.4998 67.989 42.2058 68.3779C41.9307 68.7479 41.1718 68.7858 40.6312 68.7858C40.3845 68.7858 40.1379 68.7763 39.9103 68.7668C39.7111 68.7763 39.5403 68.7668 39.3885 68.7668ZM9.94523 68.7668H9.91677C9.73655 68.7668 9.53735 68.7763 9.33815 68.7858C9.10101 68.7953 8.86387 68.8048 8.62673 68.8048C8.17142 68.8048 7.82994 68.7763 7.53589 68.7005C6.78652 68.5202 6.7391 68.4159 6.59681 67.6286C6.53041 67.2586 6.54938 66.8318 6.56835 66.4239L6.57784 66.2437C8.72159 66.2247 10.8653 66.2152 13.0091 66.2057C13.0091 66.3385 13.0091 66.4808 13.0186 66.6231C13.0281 67.2681 13.047 67.9985 12.753 68.3874C12.4779 68.7574 11.719 68.7953 11.1784 68.7953C10.9317 68.7953 10.6851 68.7858 10.4575 68.7763C10.2677 68.7763 10.097 68.7668 9.94523 68.7668Z" fill="#4A8FE0"/>
<path d="M41.8833 38.474C41.8833 37.5349 41.8548 36.5958 41.8359 35.6567C41.8074 34.4521 41.779 33.2094 41.7979 31.9858L41.8074 31.6917C41.8264 30.6009 41.8643 29.2445 41.115 28.3244C40.1664 27.1481 38.146 27.0153 36.7042 27.0153C36.1825 27.0153 35.6702 27.0343 35.1959 27.0533C34.807 27.0723 34.4561 27.0817 34.143 27.0817H33.6972C31.9234 27.0817 30.1401 27.0628 28.3663 27.0438C26.5925 27.0248 24.8092 27.0059 22.969 27.0059C20.351 27.0059 17.695 27.0628 15.1244 27.1102C13.9672 27.1292 12.8099 27.1576 11.6527 27.1766C8.90185 27.224 6.38816 27.4896 5.94234 30.2025C5.43012 30.231 4.93686 30.3353 4.6523 30.8096C4.1875 31.5779 4.28236 33.0861 4.34876 34.177C4.36773 34.4615 4.37721 34.7177 4.3867 34.9358C4.3867 35.173 4.37721 35.4575 4.36773 35.7706C4.3203 36.814 4.2539 38.123 4.79458 38.787C4.99378 39.0336 5.33526 39.1854 5.81903 39.2518V40.7979C5.81903 43.5488 5.81903 46.3944 5.76211 49.2022C5.3732 49.2401 4.91789 49.3634 4.66178 49.7998C4.19699 50.5681 4.29184 52.0763 4.35824 53.1672C4.37721 53.4517 4.3867 53.7078 4.39619 53.926C4.39619 54.1632 4.3867 54.4477 4.37721 54.7607C4.32979 55.8042 4.26339 57.1132 4.80407 57.7772C5.02224 58.0428 5.41114 58.204 5.95182 58.2609C6.36919 60.7841 8.22837 61.1351 10.1729 61.1351C10.6282 61.1351 11.093 61.1161 11.5673 61.0971C11.9847 61.0782 12.402 61.0592 12.8099 61.0592C13.9292 61.0497 15.058 61.0497 16.1773 61.0497C19.9336 61.0497 23.7373 61.0971 27.4841 61.192C28.3189 61.211 29.1536 61.2489 29.9884 61.2774C31.4776 61.3343 33.0237 61.3912 34.5414 61.3912C34.5414 61.3912 35.177 61.3912 35.4615 61.4007C35.7746 61.4007 36.0971 61.4102 36.4386 61.4102C37.7286 61.4102 39.1894 61.3343 40.2613 60.8126C41.096 60.4047 41.3521 59.9114 41.5608 59.0862C41.9023 57.7203 41.8264 56.0887 41.76 54.5141C41.7315 53.8027 41.7031 53.1102 41.7126 52.4747C41.7315 51.2416 41.76 50.0085 41.779 48.7848C41.8169 45.37 41.8833 41.8983 41.8833 38.474ZM40.6027 53.1577C40.6407 54.5615 40.6786 56.0223 40.4699 57.3598C40.1759 59.238 39.6068 59.845 37.9088 60.0442C36.7326 60.1865 35.5754 60.2055 34.5889 60.2055H34.3612C32.0183 60.2055 29.6279 60.1296 27.3134 60.0442C25.4637 59.9873 23.6235 59.9209 21.7738 59.9019C19.8862 59.8735 17.9985 59.864 16.1109 59.864H15.1434C14.7829 59.864 14.3276 59.8925 13.8154 59.9209C13.1514 59.9589 12.402 60.0063 11.6337 60.0063C8.93979 60.0063 7.49798 59.4277 7.09958 58.185C7.18495 58.1756 7.26084 58.1661 7.33672 58.1566C8.02917 58.0523 8.17146 57.8341 8.2758 57.1985C8.39911 56.4587 8.36117 55.6239 8.32323 54.8177C8.31374 54.5426 8.29477 54.277 8.29477 54.0114C8.28528 53.6604 8.31374 53.2336 8.3422 52.7877C8.4086 51.8107 8.475 50.7104 8.19991 49.98C7.98174 49.3919 7.44106 49.2306 6.88141 49.1453C6.93833 46.347 6.93833 43.5013 6.93833 40.741V39.2233C7.0901 39.2044 7.2229 39.1949 7.33672 39.1759C8.02917 39.0716 8.17146 38.8534 8.2758 38.2178C8.39911 37.478 8.36117 36.6432 8.32323 35.837C8.31374 35.5619 8.29477 35.2963 8.29477 35.0307C8.28528 34.6797 8.31374 34.2529 8.3422 33.807C8.4086 32.83 8.475 31.7297 8.19991 30.9993C8.0102 30.4681 7.53592 30.2974 7.08061 30.2215C7.46952 28.5236 9.25282 28.2864 11.1405 28.2864L12.4305 28.2959L18.1219 28.201C19.6206 28.1726 21.1098 28.1631 22.6085 28.1631C24.0409 28.1631 25.4732 28.1726 26.9055 28.2105C27.5505 28.2295 28.1861 28.2295 28.8311 28.2295C29.6374 28.2295 30.4342 28.22 31.2405 28.2105C32.0372 28.201 32.8435 28.1916 33.6403 28.1916C34.8734 28.1916 35.8884 28.2105 36.837 28.2485C37.0172 28.258 37.2069 28.258 37.4061 28.258C38.108 28.2674 38.8953 28.2674 39.436 28.5425C40.6407 29.1591 40.6502 30.1361 40.6597 31.2744V31.5874C40.7071 33.7217 40.7261 35.8749 40.7355 38.0092C40.745 41.2912 40.6881 44.6396 40.6217 47.8742L40.5648 51.0708C40.5648 51.7538 40.5838 52.4557 40.6027 53.1577ZM6.18896 57.0752C6.06565 57.0752 5.7052 57.0752 5.61983 56.2879C5.47754 55.8136 5.49652 55.1497 5.51549 54.571C5.52497 54.3339 5.53446 54.1062 5.52497 53.907C5.52497 53.7173 5.506 53.4992 5.49652 53.2715C5.42063 51.9815 5.32577 50.3784 6.66325 50.2741C7.34621 50.3594 7.24187 52.6739 7.19444 53.6604C7.17547 53.9165 7.16598 54.1252 7.17547 54.258C7.17547 54.3813 7.19444 54.5995 7.21341 54.8461C7.27032 55.5196 7.36518 56.7622 7.2229 56.9614C7.03318 57.0183 6.83399 57.0468 6.63479 57.0468C6.57787 57.0468 6.51148 57.0468 6.41662 57.0373C6.34073 57.0657 6.25536 57.0752 6.18896 57.0752ZM7.19444 34.6892C7.17547 34.9453 7.16598 35.154 7.17547 35.2868C7.17547 35.4101 7.19444 35.6283 7.21341 35.8749C7.27032 36.5484 7.36518 37.791 7.2229 37.9902C7.03318 38.0471 6.83399 38.0756 6.63479 38.0756C6.57787 38.0756 6.51148 38.0756 6.41662 38.0661C6.33125 38.085 6.25536 38.0945 6.18896 38.0945C6.06565 38.0945 5.7052 38.0945 5.61983 37.3072C5.47754 36.8424 5.49652 36.1784 5.51549 35.5998C5.52497 35.3627 5.53446 35.135 5.52497 34.9358C5.52497 34.7461 5.506 34.5279 5.49652 34.3003C5.42063 33.0102 5.32577 31.4072 6.66325 31.3028C7.34621 31.3787 7.24187 33.6932 7.19444 34.6892Z" fill="#4A8FE0"/>
<path d="M33.8106 39.0295C33.4027 38.9441 32.9854 38.8967 32.568 38.8967C30.1966 38.8967 28.3279 40.2057 27.8157 42.2451C26.9999 45.4512 28.5461 48.2969 31.572 49.1601C32.1886 49.3403 32.7767 49.4257 33.3174 49.4257C35.6129 49.4257 37.197 47.8321 37.7756 44.9485C38.3447 42.1502 36.865 39.9401 33.8106 39.0295ZM36.6278 43.4213C36.4571 43.4213 36.3148 43.4877 36.2105 43.6015C36.1251 43.7059 36.0682 43.8387 36.0682 43.9904C36.0682 44.275 36.2579 44.5596 36.6183 44.5596H36.7132C36.5899 45.4322 36.2958 46.4946 35.9069 47.0163C35.167 48.0028 34.1236 48.24 33.3553 48.259V48.2495C33.3553 48.1736 33.3458 48.0977 33.3553 48.0218C33.3648 47.87 33.3174 47.7278 33.2225 47.6329C33.1182 47.5286 32.9759 47.4717 32.8146 47.4717C32.53 47.4717 32.236 47.6614 32.217 48.0218C32.217 48.0598 32.217 48.0977 32.217 48.1546C32.1032 48.1262 31.9894 48.1072 31.8755 48.0692C30.1397 47.557 29.0678 46.3049 28.8591 44.5501L28.9824 44.5311C29.2575 44.4837 29.4283 44.275 29.3998 43.9904C29.3808 43.7343 29.1911 43.4687 28.8307 43.4308V43.3739C28.8307 43.2695 28.8401 43.1652 28.8496 43.0608C29.0678 41.4009 30.3389 40.2247 32.1127 40.0634V40.2057C32.1127 40.5661 32.3972 40.7558 32.6818 40.7558C32.9664 40.7558 33.251 40.5661 33.251 40.2057V40.1013H33.2889C33.3648 40.1108 33.4407 40.1108 33.5071 40.1298C34.9015 40.5472 36.5804 41.4483 36.7511 43.4213H36.6278Z" fill="#4A8FE0"/>
<path d="M44.1136 24.9249C44.0567 24.9059 43.9903 24.8964 43.9334 24.8964C43.6678 24.8964 43.4591 25.0956 43.4117 25.3802C43.3738 25.6268 43.4781 25.9209 43.8006 26.0157C45.0717 26.4141 45.0907 28.5294 45.1002 29.9333C45.1002 30.2368 45.1096 30.5119 45.1191 30.7396C45.2045 32.115 45.2424 33.6042 45.214 35.2926C45.214 35.4444 45.2614 35.5867 45.3658 35.6816C45.4701 35.7859 45.6219 35.8428 45.7831 35.8428C46.0677 35.8428 46.3523 35.6531 46.3617 35.2926C46.4092 32.1909 46.2953 29.8289 45.9823 27.6283C45.7926 26.3003 45.4037 25.3233 44.1136 24.9249Z" fill="#4A8FE0"/>
<path d="M41.6537 25.5226H41.7011C42.0616 25.5226 42.2513 25.238 42.2513 24.9535C42.2513 24.6689 42.0616 24.3843 41.6537 24.3843C41.2932 24.3843 41.1035 24.6689 41.1035 24.9535C41.1035 25.1052 41.1509 25.238 41.2363 25.3424C41.3407 25.4657 41.4829 25.5226 41.6537 25.5226Z" fill="#4A8FE0"/>
<path d="M34.8348 42.8618C34.8727 42.6532 34.9107 42.454 34.9107 42.2358C34.9107 42.0935 34.8537 41.9417 34.7399 41.8279C34.6356 41.7141 34.4933 41.6572 34.351 41.6572C34.2941 41.6572 34.2372 41.6666 34.1803 41.6856C33.9811 41.7615 33.7724 41.7994 33.5732 41.8374C33.4214 41.8658 33.2696 41.8943 33.1748 41.9417C32.9661 41.8753 32.7479 41.8374 32.5393 41.8374C32.1219 41.8374 31.733 41.9702 31.3915 42.2358C30.9172 42.6057 30.5568 43.1654 30.424 43.744C30.3007 44.3036 30.4999 44.9202 31.031 45.5937C31.4674 46.1439 32.1314 46.4664 32.8238 46.4664C33.3266 46.4664 33.7914 46.2956 34.1803 45.9731C34.9391 45.3376 35.1668 44.3226 34.7873 43.3456C34.7779 43.1843 34.8063 43.0231 34.8348 42.8618ZM33.725 44.6641C33.5542 45.053 33.1463 45.3186 32.7385 45.3186C32.5013 45.3186 32.1693 45.2332 31.8658 44.8348C31.4484 44.2847 31.4769 43.725 31.9417 43.2602C32.1219 43.08 32.3495 42.9757 32.5867 42.9757C32.8997 42.9757 33.1938 43.1369 33.4024 43.4215L33.4688 43.5163L33.4783 43.5258C33.8008 43.8768 33.8862 44.2847 33.725 44.6641Z" fill="#4A8FE0"/>
<g clip-path="url(#clip0_844_3349)">
<path d="M59.0788 16.6155C59.0471 18.569 58.9034 20.5263 58.971 22.4793C58.988 22.9652 59.0069 23.4516 59.006 23.9381C59.005 24.3771 58.9341 24.8282 58.9625 25.2654C58.9904 25.6938 59.1658 26.127 59.6201 26.2087C60.0423 26.2841 60.5019 26.2527 60.9297 26.2605C62.011 26.2808 63.0927 26.2764 64.174 26.2909C64.6392 26.2972 64.6425 25.2818 64.174 25.2755C63.2932 25.2634 62.4128 25.2639 61.5321 25.2537C61.0995 25.2489 60.6669 25.2412 60.2343 25.2281C60.126 25.2247 60.0177 25.2214 59.9099 25.2175C59.8428 25.2151 59.7293 25.1827 59.6674 25.1986C59.6244 25.2097 59.6201 25.1246 59.657 25.2243C59.6499 25.2049 59.6537 25.0952 59.657 25.0405C59.7038 24.1677 59.6944 23.3056 59.6646 22.4324C59.6338 21.5291 59.6584 20.6341 59.691 19.7319C59.7284 18.6933 59.7577 17.6546 59.7743 16.6155C59.7776 16.4091 59.665 16.1122 59.4268 16.1078C59.1828 16.1035 59.0821 16.4187 59.0788 16.6155Z" fill="#4A8FE0"/>
<path d="M67.6776 11.7729C66.7874 12.1815 65.8966 12.5901 65.0064 12.9991C63.1077 13.8705 61.2095 14.7418 59.3108 15.6131C57.5407 16.4254 55.7711 17.2377 54.001 18.0501C53.5183 18.2715 53.036 18.493 52.5533 18.7144C52.4762 18.7497 52.4001 18.7874 52.3226 18.8203C52.0853 18.9209 51.7874 18.8987 51.6092 18.6878C51.4825 18.5384 51.4215 18.3015 51.3435 18.1231C51.2224 17.8465 51.1014 17.5704 50.9799 17.2943C50.5341 16.2779 50.0873 15.2616 49.6414 14.2452C49.4311 13.7655 49.2391 13.2709 49.0022 12.8043C48.8538 12.5117 48.6789 12.2521 48.3829 12.1012C48.0945 11.9542 47.7428 11.9151 47.4326 11.8421C46.9135 11.7197 46.3958 11.5911 45.88 11.4562C44.8233 11.1791 43.7742 10.8731 42.7313 10.5472C42.2079 10.3837 41.686 10.216 41.164 10.0487C41.1919 10.3581 41.2193 10.6671 41.2472 10.9765C41.5673 10.7299 41.9465 10.596 42.3195 10.4558C42.7464 10.2953 43.1676 10.1207 43.5842 9.93454C44.4262 9.55884 45.2493 9.14155 46.0743 8.72765C47.7631 7.881 49.4845 7.10494 51.2035 6.32404C54.7343 4.7197 58.2674 3.12116 61.7924 1.50327C61.9929 1.4114 62.1933 1.31905 62.3938 1.22718C62.5701 1.14643 62.7569 1.02555 62.9531 1.01056C63.1687 0.994603 63.3975 1.08986 63.5053 1.28859C63.5512 1.37369 63.5843 1.46894 63.623 1.55743C63.8608 2.09898 64.0982 2.64053 64.336 3.18208C65.092 4.9044 65.8475 6.62721 66.6034 8.34954C66.9126 9.05404 67.2218 9.75854 67.5306 10.4626C67.6573 10.7517 67.7996 11.0384 67.9126 11.3334C67.9769 11.505 67.8766 11.6723 67.6776 11.7729C67.4592 11.8832 67.3911 12.167 67.4351 12.3976C67.4686 12.5741 67.6421 12.8637 67.8625 12.7521C68.5612 12.3991 68.7986 11.5369 68.5102 10.8179C68.4695 10.7169 68.4222 10.6178 68.3787 10.5182C68.122 9.93357 67.8658 9.34899 67.609 8.7644C66.8214 6.96907 66.0337 5.17421 65.2461 3.37888C64.9501 2.70436 64.6542 2.02983 64.3582 1.3558C64.1393 0.857281 63.9559 0.284785 63.4065 0.0710656C62.9904 -0.090916 62.6325 0.0526916 62.2501 0.228212C61.7919 0.438546 61.3333 0.648881 60.8752 0.859215C59.9585 1.27988 59.0418 1.70055 58.125 2.12122C56.2859 2.96546 54.4416 3.79761 52.5968 4.62928C50.7823 5.44789 48.9616 6.2578 47.1655 7.11799C45.4578 7.93564 43.796 8.84854 42.023 9.51725C41.624 9.66763 41.2373 9.8359 40.8955 10.0989C40.6534 10.2856 40.6463 10.9205 40.9787 11.0268C43.0797 11.7013 45.1878 12.3391 47.3357 12.8415C47.6189 12.9077 47.9773 12.9372 48.2297 13.0978C48.1635 13.0557 48.3167 13.18 48.285 13.1476C48.2817 13.1442 48.3564 13.2448 48.3786 13.281C48.4637 13.4198 48.5474 13.6335 48.6231 13.8066C49.0807 14.8491 49.5379 15.8916 49.996 16.9341C50.2197 17.4428 50.4428 17.9519 50.666 18.4611C50.8532 18.888 51.0012 19.4112 51.4021 19.6829C51.7586 19.9247 52.1741 19.9484 52.5613 19.7738C52.9292 19.608 53.2951 19.4368 53.662 19.2685C55.3361 18.5002 57.0102 17.7319 58.6848 16.9636C60.644 16.0642 62.6037 15.1653 64.5629 14.266C65.6451 13.7694 66.7457 13.3013 67.8138 12.7738C67.8298 12.7661 67.8459 12.7588 67.862 12.7516C68.2672 12.5664 68.1315 11.5645 67.6776 11.7729Z" fill="#4A8FE0"/>
<path d="M43.5459 11.9412C44.1842 13.5373 44.8352 15.1233 45.6139 16.6546C45.8857 17.1894 46.1755 17.8731 46.8091 18.0312C47.358 18.1685 47.9546 18.0254 48.4822 17.8591C49.0411 17.6826 49.6061 17.4408 50.0892 17.0994C50.4471 16.8466 50.198 15.8979 49.7384 16.2228C49.4146 16.452 48.9725 16.6406 48.5711 16.7871C48.1002 16.9587 47.5778 17.1164 47.0719 17.0617C46.5769 17.0081 46.3878 16.4825 46.1855 16.0865C45.8281 15.3873 45.4957 14.676 45.1832 13.9546C44.822 13.1195 44.4839 12.2743 44.1464 11.4296C44.0684 11.2343 43.8547 11.0945 43.6707 11.2473C43.4831 11.4025 43.4599 11.7265 43.5459 11.9412Z" fill="#4A8FE0"/>
<path d="M65.8524 30.5349C66.6353 30.5349 67.4197 30.5475 68.2026 30.5349C68.9373 30.5228 69.5812 30.0577 69.8464 29.3546C69.9769 29.0089 69.9878 28.6569 69.9878 28.2947C69.9878 26.3684 69.9878 24.4415 69.9878 22.5151C69.9878 22.3116 69.9916 22.1075 69.9878 21.904C69.9741 21.1207 69.5637 20.3509 68.8243 20.0593C68.4219 19.9007 67.9638 19.9452 67.5407 19.9452C67.0395 19.9452 66.5384 19.9452 66.0372 19.9452C65.4411 19.9452 64.9163 20.1275 64.5253 20.6125C64.2019 21.0138 64.0922 21.5167 64.0922 22.0248C64.0922 22.8493 64.0922 23.6737 64.0922 24.4986C64.0922 25.5585 64.0922 26.6184 64.0922 27.6783C64.0922 27.9582 64.0913 28.2377 64.0922 28.5177C64.0946 29.1279 64.304 29.7265 64.7711 30.1263C65.0761 30.3884 65.4552 30.5257 65.8524 30.5349C66.3167 30.5461 66.3214 29.5306 65.8524 29.5195C65.3262 29.507 64.8056 29.1375 64.7867 28.5728C64.7801 28.3803 64.7867 28.1869 64.7867 27.9945C64.7867 27.0685 64.7867 26.1426 64.7867 25.2161C64.7867 24.2921 64.7867 23.3681 64.7867 22.4436C64.7867 22.2637 64.7801 22.0824 64.7867 21.9025C64.8075 21.3402 65.3295 20.9717 65.8533 20.9611C66.6192 20.9456 67.387 20.9582 68.1529 20.9611C68.6271 20.963 69.1311 21.198 69.2668 21.7033C69.3131 21.875 69.2919 22.0829 69.2919 22.2637C69.2919 24.1021 69.2919 25.9405 69.2919 27.7788C69.2919 28.0269 69.2933 28.2749 69.2919 28.523C69.29 28.9436 69.0266 29.2889 68.639 29.4417C68.3175 29.5684 67.9217 29.5195 67.5828 29.5195C67.1015 29.5195 66.6202 29.5195 66.1394 29.5195C66.0434 29.5195 65.9479 29.5195 65.8519 29.5195C65.3862 29.5195 65.3843 30.5349 65.8524 30.5349Z" fill="#4A8FE0"/>
<path d="M58.2056 5.43181C58.8945 5.03919 59.6311 4.75439 60.3658 4.46718C60.7223 4.32792 61.0844 4.19495 61.4314 4.03152C61.7217 3.89468 62.0011 3.66307 62.324 3.6152C62.6347 3.56878 62.6228 2.89378 62.324 2.93826C61.9794 2.98952 61.7061 3.17664 61.4012 3.3333C61.0565 3.51028 60.6859 3.64131 60.3261 3.78202C59.5635 4.08035 58.7976 4.37192 58.0827 4.77905C57.8255 4.92556 57.9234 5.59234 58.2056 5.43181Z" fill="#4A8FE0"/>
<path d="M59.7488 5.99244C60.649 5.62109 61.5496 5.24974 62.4498 4.87888C62.724 4.76573 62.6365 4.09847 62.3264 4.22612C61.4262 4.59747 60.5256 4.96881 59.6254 5.33968C59.3512 5.45283 59.4387 6.12009 59.7488 5.99244Z" fill="#4A8FE0"/>
</g>
<defs>
<clipPath id="clip0_844_3349">
<rect width="29.268" height="30.5406" fill="white" transform="translate(40.7207)"/>
</clipPath>
</defs>
</svg>
