<svg width="24" height="20" viewBox="0 0 24 20" fill="none" xmlns="http://www.w3.org/2000/svg">
<g clip-path="url(#clip0_717_732)">
<path d="M20.9162 2.25407C20.7586 2.25407 20.6311 2.3818 20.6311 2.53938V10.4582H19.8704V1.80627C19.8704 1.68027 19.8204 1.5593 19.7311 1.47016C19.642 1.38103 19.5211 1.33089 19.395 1.33089H7.34915C7.19158 1.33089 7.06398 1.45862 7.06398 1.6162C7.06398 1.77364 7.19158 1.90137 7.34915 1.90137H19.2999V9.18422C19.2174 9.14722 19.128 9.12785 19.0375 9.12719H17.5609V8.17642C17.5609 7.49704 17.1984 6.86926 16.6101 6.52957C16.0217 6.19001 15.2968 6.19001 14.7086 6.52957C14.1202 6.86926 13.7578 7.49704 13.7578 8.17642V9.12719H12.281C12.1201 9.12812 11.9648 9.18714 11.8437 9.29325C11.7227 9.39923 11.6438 9.5454 11.6217 9.70483L11.5998 9.88602C11.1715 9.69515 10.6929 9.6478 10.2356 9.75086C9.77807 9.85392 9.36622 10.1021 9.06116 10.4582H4.46795V1.90135H5.73678C5.89436 1.90135 6.02196 1.77362 6.02196 1.61617C6.02196 1.4586 5.89436 1.33087 5.73678 1.33087H4.37284C4.11022 1.33087 3.89746 1.54375 3.89746 1.80625V10.4582H3.13678V1.04564C3.13678 0.783009 3.34967 0.570255 3.61217 0.570255H20.1555C20.2815 0.570255 20.4024 0.620262 20.4916 0.709528C20.5807 0.798662 20.6308 0.919498 20.6308 1.04564C20.6308 1.20308 20.7584 1.33081 20.916 1.33081C21.0736 1.33081 21.2012 1.20308 21.2012 1.04564C21.2009 0.768286 21.0907 0.502479 20.8945 0.306418C20.6985 0.110377 20.4327 2.07151e-05 20.1554 -0.000244141H3.61215C3.33493 2.11395e-05 3.06913 0.110377 2.87307 0.306418C2.6769 0.502459 2.56667 0.768286 2.56641 1.04564V13.4056C2.56667 13.6828 2.6769 13.9486 2.87307 14.1448C3.06911 14.3408 3.33494 14.4511 3.61215 14.4514H7.19721V17.1135H6.53161H6.53174C6.26924 17.1135 6.05636 17.3264 6.05636 17.5889V18.5397C6.05636 18.6658 6.10636 18.7866 6.19563 18.8758C6.28477 18.9649 6.4056 19.0151 6.53174 19.0151H7.76767V19.0054C7.7991 19.0109 7.83094 19.0141 7.86277 19.0151H17.6074C17.765 19.0151 17.8927 18.8873 17.8927 18.7299C17.8927 18.5723 17.765 18.4446 17.6074 18.4446H14.4129C14.4185 18.4131 14.4217 18.3814 14.4226 18.3495V13.744C14.4377 13.7297 14.4513 13.7139 14.4629 13.6967C14.5189 13.6212 14.6072 13.5766 14.7011 13.5766C14.7951 13.5766 14.8835 13.6212 14.9395 13.6967C15.0278 13.8256 15.2036 13.8593 15.3335 13.7723C15.4633 13.6853 15.499 13.5099 15.4133 13.3791C15.3087 13.2213 15.1545 13.103 14.9751 13.0426C14.7956 12.9824 14.6013 12.9837 14.4226 13.0463V12.8351C14.4226 12.6585 14.3524 12.4892 14.2276 12.3645C14.1028 12.2396 13.9336 12.1695 13.757 12.1695H12.9014V11.8843C12.9011 11.2446 12.6202 10.6372 12.1329 10.223L12.1864 9.77917C12.1932 9.73222 12.2335 9.69733 12.2809 9.6976H13.7576V10.3632L13.7577 10.3631C13.7577 10.5206 13.8853 10.6484 14.0429 10.6484C14.2004 10.6484 14.328 10.5206 14.328 10.3631V9.69761H16.9901V10.3632L16.9902 10.3631C16.9902 10.5207 17.118 10.6484 17.2754 10.6484C17.433 10.6484 17.5607 10.5207 17.5607 10.3631V9.69761H19.0374C19.0826 9.69761 19.1215 9.72931 19.1305 9.77361L20.1637 18.3363C20.1675 18.3637 20.1593 18.3914 20.141 18.4123C20.1228 18.4331 20.0963 18.4449 20.0685 18.4446H18.7418C18.5842 18.4446 18.4564 18.5724 18.4564 18.7299C18.4564 18.8874 18.5842 19.0151 18.7418 19.0151H20.0696C20.2614 19.0151 20.4439 18.9323 20.5702 18.788C20.6966 18.6437 20.7545 18.4519 20.7292 18.2617L20.2696 14.4451C20.5255 14.4167 20.762 14.2949 20.9339 14.1033C21.1058 13.9115 21.201 13.6632 21.2013 13.4057V2.53951C21.2013 2.38193 21.0737 2.2542 20.9161 2.2542L20.9162 2.25407ZM9.09891 12.1695V11.8843C9.09891 11.5815 9.18473 11.2848 9.34615 11.0287H11.4618L11.3241 12.1697L9.09891 12.1695ZM10.7153 10.268C10.9802 10.268 11.2409 10.3333 11.4744 10.4582H9.95616C10.1897 10.3333 10.4504 10.268 10.7152 10.268H10.7153ZM3.61239 13.8809C3.34989 13.8809 3.13701 13.668 3.13701 13.4055V11.0286H8.70339C8.58786 11.2991 8.52844 11.5902 8.52871 11.8843V12.1694H7.8631C7.68656 12.1694 7.5173 12.2396 7.39251 12.3644C7.26769 12.4892 7.19753 12.6585 7.19753 12.835V13.8809L3.61239 13.8809ZM7.19745 18.4446H6.62696L6.62709 17.684H7.19758V18.4446H7.19745ZM13.7577 12.74H13.7579C13.7831 12.74 13.8072 12.7501 13.8251 12.7678C13.8429 12.7857 13.8528 12.8099 13.8528 12.8351V18.3495C13.8528 18.3749 13.8429 18.399 13.8251 18.4168C13.8072 18.4347 13.7831 18.4446 13.7579 18.4446H7.86312C7.81059 18.4446 7.76801 18.402 7.76801 18.3495V14.3529C7.86312 14.2465 7.86312 14.0856 7.76801 13.9791V12.835C7.76801 12.7825 7.81059 12.7399 7.86312 12.7399H8.52872V13.4055C8.52872 13.5629 8.65632 13.6907 8.81389 13.6907C8.97147 13.6907 9.09907 13.5629 9.09907 13.4055V12.7399H12.3316V13.4055H12.3318C12.3318 13.5629 12.4594 13.6907 12.6169 13.6907C12.7745 13.6907 12.9021 13.5629 12.9021 13.4055V12.7399L13.7577 12.74ZM12.3316 11.8843L12.3317 12.1695H11.8989L12.044 10.9661C12.2314 11.2356 12.3318 11.5561 12.3317 11.8843L12.3316 11.8843ZM14.3282 9.12714V8.17638C14.3282 7.70086 14.582 7.26144 14.9938 7.02361C15.4057 6.78579 15.913 6.78579 16.3249 7.02361C16.7367 7.26144 16.9905 7.70086 16.9905 8.17638V9.12714H14.3282ZM20.2002 13.8762L19.8567 11.0286H20.631V13.4055C20.6302 13.6499 20.4437 13.8538 20.2002 13.8762Z" fill="#4A8FE0"/>
<path d="M10.1446 15.5926C10.3021 15.5926 10.4299 15.4649 10.4299 15.3074V14.9272C10.4299 14.7696 10.3021 14.6418 10.1446 14.6418C9.98711 14.6418 9.85938 14.7696 9.85938 14.9272V15.3074C9.85938 15.4649 9.98711 15.5926 10.1446 15.5926Z" fill="#4A8FE0"/>
<path d="M11.4746 15.5926C11.6322 15.5926 11.7599 15.4649 11.7599 15.3074V14.9272C11.7599 14.7696 11.6322 14.6418 11.4746 14.6418C11.3172 14.6418 11.1895 14.7696 11.1895 14.9272V15.3074C11.1895 15.4649 11.3172 15.5926 11.4746 15.5926Z" fill="#4A8FE0"/>
<path d="M12.679 16.1561C12.6126 16.1199 12.5346 16.1115 12.4619 16.133C12.3893 16.1544 12.3283 16.2037 12.2921 16.2702C12.1095 16.606 11.8138 16.8663 11.4575 17.0046C11.1011 17.1431 10.7073 17.1508 10.3459 17.0263C9.98457 16.9019 9.67883 16.6534 9.48334 16.325C9.40257 16.1897 9.22748 16.1455 9.09217 16.2263C8.95701 16.3071 8.91271 16.4822 8.99349 16.6175C9.25811 17.0615 9.67169 17.3975 10.1605 17.5658C10.6493 17.734 11.182 17.7237 11.6639 17.5364C12.1459 17.3491 12.5459 16.9972 12.793 16.5431C12.8292 16.4766 12.8375 16.3986 12.8162 16.3261C12.7948 16.2535 12.7455 16.1924 12.679 16.1562L12.679 16.1561Z" fill="#4A8FE0"/>
<path d="M18.4626 13.3792C18.3038 13.141 18.0366 12.9979 17.7505 12.9979C17.4642 12.9979 17.197 13.141 17.0383 13.3792C16.9952 13.442 16.979 13.5194 16.9934 13.5942C17.0078 13.669 17.0515 13.7349 17.1147 13.7774C17.178 13.8198 17.2556 13.8351 17.3303 13.82C17.4049 13.8048 17.4705 13.7604 17.5121 13.6967C17.5681 13.6213 17.6566 13.5767 17.7505 13.5767C17.8444 13.5767 17.9327 13.6213 17.9887 13.6967C18.0305 13.7604 18.0958 13.8048 18.1705 13.82C18.2452 13.8351 18.3228 13.8198 18.3861 13.7774C18.4493 13.7349 18.4931 13.669 18.5074 13.5942C18.5217 13.5194 18.5056 13.442 18.4626 13.3792H18.4626Z" fill="#4A8FE0"/>
<path d="M17.4294 14.3944C17.3629 14.3582 17.2849 14.3498 17.2124 14.3712C17.1397 14.3926 17.0787 14.442 17.0425 14.5084C16.9311 14.713 16.7507 14.8715 16.5335 14.9558C16.3164 15.0402 16.0763 15.0448 15.856 14.9691C15.6357 14.8932 15.4493 14.7419 15.33 14.5419C15.292 14.4753 15.2289 14.4266 15.1548 14.4071C15.0806 14.3876 15.0017 14.3988 14.9359 14.4381C14.87 14.4774 14.8228 14.5416 14.8049 14.6162C14.7868 14.6907 14.7997 14.7694 14.8403 14.8343C15.0288 15.1502 15.3228 15.389 15.6706 15.5087C16.0184 15.6283 16.3972 15.6209 16.7399 15.4879C17.0828 15.3547 17.3674 15.1045 17.5433 14.7817C17.5797 14.7152 17.588 14.637 17.5667 14.5644C17.5453 14.4917 17.496 14.4306 17.4294 14.3944L17.4294 14.3944Z" fill="#4A8FE0"/>
</g>
<defs>
<clipPath id="clip0_717_732">
<rect width="23.7691" height="20" fill="white"/>
</clipPath>
</defs>
</svg>
