<svg width="30" height="30" viewBox="0 0 30 30" fill="none" xmlns="http://www.w3.org/2000/svg">
<g clip-path="url(#clip0_596_3447)">
<path d="M28.0723 16.2152C27.9441 16.2101 27.8365 16.205 27.7596 16.1999C26.9393 16.1283 26.0525 16.0924 24.9708 16.0924L24.412 16.0975L22.7203 16.1129C21.3618 16.1283 19.9981 16.1436 18.6396 16.1436L16.5942 16.1385C16.1687 16.1385 15.738 16.1385 15.3125 16.1436C15.2356 16.1436 15.1485 16.1487 15.0562 16.1538C14.9588 16.159 14.8563 16.1692 14.7589 16.1692C14.5282 16.1692 14.3847 16.1283 14.3078 16.0361C14.1898 15.8929 14.2462 15.2686 14.2821 14.8542C14.2975 14.67 14.3129 14.5164 14.3129 14.4192C14.277 9.34844 14.1898 4.76888 14.0309 0.419569C14.0309 0.368401 14.0155 0.332583 14.0002 0.296765C13.9592 0.184195 13.8618 0.117676 13.7233 0.117676C9.80673 0.301882 6.71548 1.84205 3.98821 4.9582L3.70625 5.28056C2.74248 6.37556 1.74282 7.5115 1.23018 8.86235C0.763669 10.0955 0.41507 11.3542 0.215138 12.5004C-0.835785 18.6201 2.01452 24.5506 7.64849 27.9737C9.79648 29.2785 12.3495 30 14.8307 30C15.2151 30 15.6047 29.9846 15.979 29.9488C19.6905 29.606 23.1253 28.3626 25.3963 26.5257C27.8672 24.5301 28.9643 21.2195 29.4462 18.789C29.4667 18.6969 29.4974 18.5741 29.5385 18.4257C29.7025 17.8117 29.9486 16.8907 29.6564 16.5274C29.441 16.2664 28.6157 16.2357 28.0723 16.2152ZM29.0463 17.6019C28.6772 19.9659 27.9903 21.9614 26.9598 23.7063C25.5501 26.0805 22.9561 27.7793 19.2548 28.7566C17.5784 29.1966 16.1071 29.4116 14.7538 29.4116C13.8618 29.4116 13.0261 29.3143 12.2674 29.125C9.95027 28.5417 7.93558 27.5797 6.11056 26.1931C1.99402 23.0667 0.0152065 18.0061 0.814933 12.6539C0.973853 11.5743 1.3327 10.469 1.68643 9.43031C2.15806 8.04365 3.07057 6.97423 4.03435 5.84853L4.13687 5.73084C5.23906 4.4414 6.47966 3.12126 8.03298 2.22069C9.5094 1.36618 11.2729 0.885201 13.4209 0.747046C13.5952 5.72061 13.6875 10.863 13.6977 16.466C13.6977 16.6348 13.8361 16.773 14.0053 16.773C14.8922 16.7576 15.779 16.7525 16.6659 16.7525C17.2555 16.7525 19.6085 16.7627 20.1981 16.7627C20.6646 16.7627 21.1362 16.7627 21.6027 16.7576C22.0948 16.7525 22.587 16.7423 23.0791 16.732C23.7199 16.7167 24.3659 16.7065 25.0067 16.7065C25.2066 16.7065 25.4014 16.7065 25.6013 16.7116C26.519 16.7269 27.2726 16.7627 27.9851 16.8344C28.2363 16.86 28.4414 16.8651 28.6003 16.8702C28.8413 16.8753 28.9899 16.8804 29.0463 16.9469C29.1181 17.0237 29.1027 17.2284 29.0463 17.6019Z" fill="white"/>
<path d="M28.585 7.74177C28.0775 6.40628 27.1291 5.09637 25.6014 3.62784C22.8075 0.931264 19.1472 0.168856 16.5481 0C16.4353 0 16.3481 0.0562852 16.302 0.153505C16.2712 0.204673 16.2559 0.255842 16.2559 0.312127C16.2712 2.50213 16.2917 4.69725 16.3174 6.88726C16.343 9.11308 16.3635 11.3338 16.3789 13.5596C16.3789 13.7233 16.5173 13.8666 16.6865 13.8666C17.3017 13.8359 17.963 13.8257 18.7063 13.8257C19.6137 13.8257 20.5262 13.8462 21.4336 13.8666C22.0026 13.882 22.5768 13.8922 23.1458 13.9024C23.4637 13.9076 23.7866 13.9076 24.1096 13.9076L25.627 13.9024C27.1547 13.9024 28.4261 13.9383 29.6872 14.102H29.7128C29.7846 14.102 29.8563 14.0662 29.9179 14.0048C29.9742 13.9434 30.005 13.8615 29.9999 13.7899C29.8358 11.8301 29.3488 9.73734 28.585 7.74177ZM17.4554 0.695889C17.2555 0.895446 17.0658 1.10524 16.8864 1.32526L16.8813 0.639604C17.071 0.654955 17.2658 0.675422 17.4554 0.695889ZM16.9838 2.19001C17.3273 1.69367 17.7425 1.22804 18.2193 0.803343C18.6499 0.874979 19.0805 0.961965 19.4907 1.0643C18.6397 1.98021 17.7682 2.94218 16.9069 3.93996L16.8915 2.27187C16.9274 2.25141 16.9582 2.22582 16.9838 2.19001ZM21.3567 1.6732C19.8239 3.19802 18.3372 4.82517 16.9274 6.49838L16.9223 5.74109L16.9018 4.87634C17.9527 3.65342 19.0447 2.43561 20.152 1.25362C20.5621 1.37643 20.9671 1.5197 21.3567 1.6732ZM24.6735 3.68924C24.2788 4.20604 23.7661 4.64609 23.2637 5.0759C23.0125 5.29081 22.7665 5.50571 22.5358 5.72574C21.8591 6.37046 21.1619 7.0817 20.4083 7.89528C20.2186 8.09995 20.0341 8.30462 19.8444 8.51441C19.4599 8.94423 19.0652 9.38427 18.6397 9.7885C18.3577 10.0546 18.0604 10.3104 17.7682 10.5509C17.5016 10.7761 17.2299 11.0063 16.9684 11.2519L16.9582 10.3462L16.9428 9.87037C17.6041 9.20518 18.2398 8.49395 18.8498 7.80829C19.3727 7.21985 19.9161 6.61607 20.4749 6.03786C20.8287 5.67457 21.2131 5.32151 21.5874 4.9838C22.3051 4.33908 23.0484 3.66877 23.5867 2.84496C23.9609 3.09568 24.3249 3.36688 24.6786 3.66365C24.6837 3.67389 24.6786 3.68412 24.6735 3.68924ZM21.0081 4.72795C20.5775 5.11683 20.1315 5.51595 19.7316 5.94064C19.2958 6.40628 18.8755 6.87702 18.45 7.34777C17.963 7.89016 17.4606 8.44789 16.9531 8.98516L16.9479 8.25857L16.9274 7.43988C16.9428 7.42964 16.9633 7.41429 16.9838 7.39383C18.5423 5.50571 20.2135 3.67389 21.9616 1.9444C22.341 2.11837 22.7152 2.31793 23.074 2.53283C22.5306 3.36176 21.7565 4.05765 21.0081 4.72795ZM17.5887 13.2884H17.5016C17.2811 13.2884 17.1991 13.2628 17.1684 13.2373C16.9172 13.0479 16.9428 12.7102 16.9684 12.3879C16.9736 12.2855 16.9838 12.1883 16.9684 12.132C17.3478 11.7124 17.7887 11.344 18.209 10.9858C18.4961 10.7454 18.7935 10.4946 19.0754 10.2286C19.547 9.77827 19.993 9.28194 20.4237 8.80095C20.6697 8.52465 20.9158 8.25345 21.167 7.98738C21.6796 7.44499 22.2589 6.92308 22.8177 6.42163C23.6328 5.68992 24.4787 4.93263 25.1451 4.07812C25.4476 4.35954 25.7142 4.63073 25.9602 4.91216L26.0679 5.04008C23.2945 7.9925 20.4442 10.7607 17.5887 13.2884ZM23.72 10.1313C22.6742 11.1956 21.5925 12.3009 20.4442 13.2424L20.2032 13.2373C19.6547 13.227 19.1062 13.2168 18.5576 13.2168C21.2439 10.8323 23.9045 8.2381 26.4729 5.50571C26.7958 5.91506 27.0727 6.32952 27.3341 6.76957C26.0218 7.7827 24.8529 8.98004 23.72 10.1313ZM24.0993 10.6021C25.2066 9.47126 26.3498 8.30462 27.6212 7.31196C27.816 7.6906 27.9852 8.0846 28.1492 8.51441C26.5805 10.1774 24.9349 11.7841 23.2894 13.2833L21.3464 13.2577C22.3205 12.4237 23.2227 11.4975 24.0993 10.6021ZM28.3799 9.16937C28.4773 9.46614 28.5696 9.76804 28.6567 10.0853C28.6773 10.1671 28.7285 10.3207 28.79 10.51L28.8259 10.6277L28.4978 10.9807C27.7545 11.7841 26.9855 12.613 26.155 13.3191L24.166 13.2935C25.6168 11.9734 27.0317 10.5816 28.3799 9.16937ZM29.3591 13.2833C29.2514 13.4112 28.99 13.4726 28.5747 13.4726C28.2261 13.4726 27.8263 13.4266 27.4777 13.3908C27.3136 13.3703 27.1598 13.3549 27.0317 13.3447C27.7391 12.7 28.3953 11.9939 29.031 11.3082C29.4616 12.7409 29.4462 13.1758 29.3591 13.2833Z" fill="white"/>
<path d="M5.20349 7.60864C5.1266 7.60864 5.05483 7.63934 4.99844 7.69563C3.42974 9.16928 2.51211 11.3849 2.4147 13.933C2.40958 14.0149 2.43521 14.0917 2.4916 14.1428C2.54799 14.1991 2.62489 14.2298 2.71204 14.2298C2.86583 14.2298 3.01962 14.1275 3.02988 13.933C3.0914 12.2496 3.56303 9.88052 5.43418 8.12544C5.52646 8.03846 5.55209 7.92589 5.51108 7.81332C5.45982 7.69563 5.33166 7.60864 5.20349 7.60864Z" fill="white"/>
<path d="M6.09421 6.71313C6.00193 6.71313 5.92504 6.74895 5.86865 6.81035C5.82251 6.86664 5.79688 6.93828 5.79688 7.02014C5.79688 7.17365 5.8994 7.32715 6.09421 7.32715C6.18649 7.32715 6.26338 7.29134 6.31977 7.22993C6.36591 7.17365 6.39154 7.10201 6.39154 7.02014C6.39154 6.86664 6.28901 6.71313 6.09421 6.71313Z" fill="white"/>
</g>
<defs>
<clipPath id="clip0_596_3447">
<rect width="30" height="30" fill="white"/>
</clipPath>
</defs>
</svg>
