<svg width="142" height="119" viewBox="0 0 142 119" fill="none" xmlns="http://www.w3.org/2000/svg">
<path d="M0 0H132C137.523 0 142 4.47715 142 10V109C142 114.523 137.523 119 132 119H0V0Z" fill="white"/>
<path d="M0.5 0.5H132C137.247 0.5 141.5 4.7533 141.5 10V109C141.5 114.247 137.247 118.5 132 118.5H0.5V0.5Z" stroke="#8CBEFA" stroke-opacity="0.72"/>
<g clip-path="url(#clip0_961_1298)">
<path d="M64.8623 42.2248C64.8623 46.2851 68.1655 49.5883 72.2258 49.5883C76.2861 49.5883 79.5893 46.2851 79.5893 42.2248C79.5893 38.1645 76.2861 34.8613 72.2258 34.8613C68.1655 34.8613 64.8623 38.1645 64.8623 42.2248ZM78.6904 42.2248C78.6904 45.7894 75.7906 48.6895 72.2258 48.6895C68.661 48.6895 65.7612 45.7894 65.7612 42.2248C65.7612 38.6603 68.661 35.7602 72.2258 35.7602C75.7906 35.7602 78.6904 38.6603 78.6904 42.2248Z" fill="#0D4689"/>
<path d="M76.4657 25.8687H67.9826C67.7341 25.8687 67.5331 26.0699 67.5331 26.3181V33.1871C64.2713 34.8872 62.0376 38.2989 62.0376 42.2244C62.0376 46.15 64.2713 49.5617 67.5331 51.2617V58.1308C67.5331 58.379 67.7341 58.5802 67.9826 58.5802H76.4657C76.7141 58.5802 76.9151 58.379 76.9151 58.1308V51.2617C80.1769 49.5617 82.4107 46.15 82.4107 42.2244C82.4107 38.2989 80.1769 34.8872 76.9151 33.1871V26.3181C76.9151 26.0699 76.7141 25.8687 76.4657 25.8687ZM68.432 26.7675H76.0163V32.7731C74.8433 32.3008 73.5641 32.0381 72.2241 32.0381C70.8841 32.0381 69.605 32.3008 68.432 32.7731V26.7675ZM76.0163 57.6813H68.432V51.6757C69.605 52.1481 70.8841 52.4107 72.2241 52.4107C73.5641 52.4107 74.8433 52.1481 76.0163 51.6757V57.6813ZM81.5118 42.2244C81.5118 47.3456 77.3453 51.5119 72.2241 51.5119C67.103 51.5119 62.9365 47.3456 62.9365 42.2244C62.9365 37.1033 67.103 32.937 72.2241 32.937C77.3453 32.937 81.5118 37.1033 81.5118 42.2244Z" fill="#0D4689"/>
<path d="M71.4426 40.1787H69.1555C68.9071 40.1787 68.7061 40.3799 68.7061 40.6281V43.8221C68.7061 44.0703 68.9071 44.2715 69.1555 44.2715H71.4426C71.691 44.2715 71.8921 44.0703 71.8921 43.8221V40.6281C71.8921 40.3799 71.691 40.1787 71.4426 40.1787ZM70.9932 43.3726H69.6049V42.6745H70.9932V43.3726ZM70.9932 41.7757H69.6049V41.0776H70.9932V41.7757Z" fill="#0D4689"/>
<path d="M73.0056 44.2715H75.2927C75.5411 44.2715 75.7422 44.0703 75.7422 43.8221V40.6281C75.7422 40.3799 75.5411 40.1787 75.2927 40.1787H73.0056C72.7572 40.1787 72.5562 40.3799 72.5562 40.6281V43.8221C72.5562 44.0703 72.7572 44.2715 73.0056 44.2715ZM73.455 41.0776H74.8433V41.7757H73.455V41.0776ZM73.455 42.6745H74.8433V43.3726H73.455V42.6745Z" fill="#0D4689"/>
</g>
<path d="M42.6432 70.004V70.732H37.9532V80H37.1412V70.004H42.6432ZM49.3009 76.276C49.3009 76.8547 49.2262 77.382 49.0769 77.858C48.9369 78.3247 48.7222 78.7307 48.4329 79.076C48.1529 79.412 47.8029 79.6733 47.3829 79.86C46.9629 80.0467 46.4822 80.14 45.9409 80.14C45.4275 80.14 44.9655 80.0513 44.5549 79.874C44.1535 79.6873 43.8082 79.426 43.5189 79.09C43.2295 78.7447 43.0102 78.334 42.8609 77.858C42.7115 77.382 42.6369 76.8547 42.6369 76.276C42.6369 75.464 42.7675 74.7733 43.0289 74.204C43.2995 73.6253 43.6869 73.182 44.1909 72.874C44.7042 72.566 45.3109 72.412 46.0109 72.412C46.7202 72.412 47.3175 72.5753 47.8029 72.902C48.2975 73.2193 48.6709 73.6673 48.9229 74.246C49.1749 74.8247 49.3009 75.5013 49.3009 76.276ZM43.4629 76.276C43.4629 76.9107 43.5515 77.4707 43.7289 77.956C43.9062 78.432 44.1815 78.8007 44.5549 79.062C44.9282 79.3233 45.3949 79.454 45.9549 79.454C46.5335 79.454 47.0095 79.3233 47.3829 79.062C47.7562 78.7913 48.0315 78.418 48.2089 77.942C48.3862 77.4567 48.4749 76.9013 48.4749 76.276C48.4749 75.6507 48.3909 75.1 48.2229 74.624C48.0549 74.148 47.7889 73.7747 47.4249 73.504C47.0609 73.2333 46.5849 73.098 45.9969 73.098C45.1475 73.098 44.5129 73.378 44.0929 73.938C43.6729 74.498 43.4629 75.2773 43.4629 76.276ZM56.4947 72.552V79.314H57.5167V82.534H56.7327V80H51.1467V82.534H50.3767V79.314H50.8947C51.3147 78.726 51.6647 78.0773 51.9447 77.368C52.2247 76.6587 52.4393 75.898 52.5887 75.086C52.738 74.274 52.8173 73.4293 52.8267 72.552H56.4947ZM53.5547 73.21C53.5173 73.994 53.424 74.7547 53.2747 75.492C53.1253 76.22 52.9247 76.906 52.6727 77.55C52.4207 78.194 52.1127 78.782 51.7487 79.314H55.7247V73.21H53.5547ZM59.823 77.746C59.823 77.8393 59.823 77.9467 59.823 78.068C59.823 78.1893 59.8183 78.3153 59.809 78.446C59.809 78.5673 59.8043 78.6887 59.795 78.81C59.7856 78.922 59.781 79.0293 59.781 79.132L64.135 72.552H65.115V80H64.359V74.806C64.359 74.666 64.359 74.512 64.359 74.344C64.359 74.176 64.3636 74.008 64.373 73.84C64.3823 73.672 64.387 73.5273 64.387 73.406L60.033 80H59.067V72.552H59.823V77.746ZM68.3825 72.552V75.786H72.9465V72.552H73.7445V80H72.9465V76.472H68.3825V80H67.5845V72.552H68.3825ZM77.0095 72.552V75.786H81.5735V72.552H82.3715V80H81.5735V76.472H77.0095V80H76.2115V72.552H77.0095ZM85.5944 77.746C85.5944 77.8393 85.5944 77.9467 85.5944 78.068C85.5944 78.1893 85.5898 78.3153 85.5804 78.446C85.5804 78.5673 85.5758 78.6887 85.5664 78.81C85.5571 78.922 85.5524 79.0293 85.5524 79.132L89.9064 72.552H90.8864V80H90.1304V74.806C90.1304 74.666 90.1304 74.512 90.1304 74.344C90.1304 74.176 90.1351 74.008 90.1444 73.84C90.1538 73.672 90.1584 73.5273 90.1584 73.406L85.8044 80H84.8384V72.552H85.5944V77.746ZM97.472 72.552H98.382L95.05 76.164L98.592 80H97.626L94.154 76.234V80H93.356V72.552H94.154V76.178L97.472 72.552ZM100.729 77.746C100.729 77.8393 100.729 77.9467 100.729 78.068C100.729 78.1893 100.725 78.3153 100.715 78.446C100.715 78.5673 100.711 78.6887 100.701 78.81C100.692 78.922 100.687 79.0293 100.687 79.132L105.041 72.552H106.021V80H105.265V74.806C105.265 74.666 105.265 74.512 105.265 74.344C105.265 74.176 105.27 74.008 105.279 73.84C105.289 73.672 105.293 73.5273 105.293 73.406L100.939 80H99.9732V72.552H100.729V77.746ZM48.0183 87.552V90.786H52.5823V87.552H53.3803V95H52.5823V91.472H48.0183V95H47.2203V87.552H48.0183ZM58.4792 87.426C59.3192 87.426 59.9446 87.6313 60.3552 88.042C60.7659 88.4527 60.9712 89.106 60.9712 90.002V95H60.3692L60.2292 93.74H60.1872C60.0099 94.02 59.8046 94.2673 59.5712 94.482C59.3472 94.6873 59.0719 94.8507 58.7452 94.972C58.4279 95.084 58.0359 95.14 57.5692 95.14C57.1026 95.14 56.6966 95.0607 56.3512 94.902C56.0059 94.734 55.7399 94.496 55.5532 94.188C55.3666 93.88 55.2732 93.502 55.2732 93.054C55.2732 92.3167 55.5766 91.7567 56.1832 91.374C56.7899 90.982 57.6719 90.758 58.8292 90.702L60.1872 90.646V90.114C60.1872 89.3767 60.0379 88.8587 59.7392 88.56C59.4499 88.252 59.0159 88.098 58.4372 88.098C58.0546 88.098 57.6859 88.1493 57.3312 88.252C56.9859 88.3453 56.6359 88.4807 56.2812 88.658L56.0292 88.028C56.3746 87.8507 56.7572 87.706 57.1772 87.594C57.5972 87.482 58.0312 87.426 58.4792 87.426ZM58.9132 91.29C57.9706 91.3367 57.2659 91.5047 56.7992 91.794C56.3326 92.074 56.0992 92.4987 56.0992 93.068C56.0992 93.5253 56.2439 93.8753 56.5332 94.118C56.8226 94.3513 57.2146 94.468 57.7092 94.468C58.5026 94.468 59.1092 94.2487 59.5292 93.81C59.9586 93.3713 60.1779 92.7553 60.1872 91.962V91.234L58.9132 91.29ZM66.6851 87.412C67.6371 87.412 68.3791 87.734 68.9111 88.378C69.4524 89.022 69.7231 89.974 69.7231 91.234C69.7231 92.074 69.5971 92.788 69.3451 93.376C69.0931 93.9547 68.7338 94.3933 68.2671 94.692C67.8098 94.9907 67.2591 95.14 66.6151 95.14C66.1764 95.14 65.7938 95.0747 65.4671 94.944C65.1404 94.8133 64.8698 94.6407 64.6551 94.426C64.4404 94.2113 64.2724 93.9733 64.1511 93.712H64.0951C64.1138 93.9453 64.1278 94.202 64.1371 94.482C64.1464 94.7527 64.1511 95.0047 64.1511 95.238V98.304H63.3531V87.552H64.0111L64.1091 88.952H64.1511C64.2724 88.6813 64.4451 88.4293 64.6691 88.196C64.8931 87.9627 65.1684 87.776 65.4951 87.636C65.8311 87.4867 66.2278 87.412 66.6851 87.412ZM66.5731 88.098C66.0224 88.098 65.5698 88.2147 65.2151 88.448C64.8604 88.6813 64.5944 89.0267 64.4171 89.484C64.2398 89.932 64.1511 90.4873 64.1511 91.15V91.29C64.1511 91.99 64.2351 92.578 64.4031 93.054C64.5804 93.5207 64.8418 93.8707 65.1871 94.104C65.5418 94.3373 65.9851 94.454 66.5171 94.454C67.0398 94.454 67.4738 94.328 67.8191 94.076C68.1738 93.8147 68.4398 93.446 68.6171 92.97C68.8038 92.4847 68.8971 91.906 68.8971 91.234C68.8971 90.2167 68.7058 89.442 68.3231 88.91C67.9404 88.3687 67.3571 88.098 66.5731 88.098ZM70.3652 87.552H71.2192L72.9832 92.186C73.0859 92.4567 73.1792 92.7087 73.2632 92.942C73.3472 93.1753 73.4219 93.3947 73.4872 93.6C73.5526 93.796 73.6086 93.978 73.6552 94.146H73.6972C73.7626 93.9313 73.8512 93.656 73.9632 93.32C74.0752 92.9747 74.2059 92.6013 74.3552 92.2L76.0912 87.552H76.9452L73.5852 96.33C73.4172 96.7593 73.2306 97.128 73.0252 97.436C72.8199 97.744 72.5772 97.9773 72.2972 98.136C72.0172 98.304 71.6812 98.388 71.2892 98.388C71.1119 98.388 70.9486 98.374 70.7992 98.346C70.6592 98.3273 70.5239 98.2993 70.3932 98.262V97.59C70.5146 97.618 70.6359 97.6413 70.7572 97.66C70.8879 97.688 71.0326 97.702 71.1912 97.702C71.4526 97.702 71.6812 97.646 71.8772 97.534C72.0732 97.4313 72.2459 97.268 72.3952 97.044C72.5446 96.8293 72.6799 96.5587 72.8012 96.232L73.2912 94.972L70.3652 87.552ZM78.8317 90.086C78.8317 90.6833 78.9764 91.1173 79.2657 91.388C79.5644 91.6587 80.0031 91.794 80.5817 91.794C81.0764 91.794 81.5244 91.7147 81.9257 91.556C82.3364 91.3973 82.7331 91.1873 83.1157 90.926V87.552H83.8997V95H83.1157V91.584C82.7051 91.864 82.2944 92.0833 81.8837 92.242C81.4824 92.3913 81.0017 92.466 80.4417 92.466C79.6577 92.466 79.0604 92.2653 78.6497 91.864C78.2391 91.4533 78.0337 90.8887 78.0337 90.17V87.552H78.8317V90.086ZM87.1609 87.552V90.786H91.7249V87.552H92.5229V95H91.7249V91.472H87.1609V95H86.3629V87.552H87.1609ZM95.7738 87.552V95H94.9898V87.552H95.7738ZM95.3818 84.794C95.5591 84.794 95.6945 84.85 95.7878 84.962C95.8811 85.0647 95.9278 85.2093 95.9278 85.396C95.9278 85.592 95.8811 85.746 95.7878 85.858C95.6945 85.9607 95.5591 86.012 95.3818 86.012C95.2138 86.012 95.0831 85.9607 94.9898 85.858C94.8965 85.746 94.8498 85.592 94.8498 85.396C94.8498 85.2093 94.8965 85.0647 94.9898 84.962C95.0831 84.85 95.2138 84.794 95.3818 84.794Z" fill="#0E0E0E"/>
<defs>
<clipPath id="clip0_961_1298">
<rect width="40.4494" height="40" fill="white" transform="translate(52 22)"/>
</clipPath>
</defs>
</svg>
