<svg width="142" height="119" viewBox="0 0 142 119" fill="none" xmlns="http://www.w3.org/2000/svg">
<path d="M0 0H132C137.523 0 142 4.47715 142 10V109C142 114.523 137.523 119 132 119H0V0Z" fill="white"/>
<path d="M0.5 0.5H132C137.247 0.5 141.5 4.7533 141.5 10V109C141.5 114.247 137.247 118.5 132 118.5H0.5V0.5Z" stroke="#8CBEFA" stroke-opacity="0.72"/>
<path d="M52.4764 87H51.6644V77.732H48.4444V77.004H55.6964V77.732H52.4764V87ZM58.8458 79.412C59.4898 79.412 60.0218 79.5613 60.4418 79.86C60.8711 80.1493 61.1931 80.5507 61.4078 81.064C61.6318 81.5773 61.7438 82.17 61.7438 82.842V83.374H56.4238C56.4238 84.3727 56.6525 85.1333 57.1098 85.656C57.5765 86.1787 58.2345 86.44 59.0838 86.44C59.5505 86.44 59.9565 86.4027 60.3018 86.328C60.6471 86.2533 61.0251 86.1227 61.4358 85.936V86.664C61.0625 86.832 60.6938 86.9533 60.3298 87.028C59.9658 87.1027 59.5411 87.14 59.0558 87.14C58.3185 87.14 57.6885 86.986 57.1658 86.678C56.6525 86.37 56.2605 85.9313 55.9898 85.362C55.7285 84.7833 55.5978 84.1113 55.5978 83.346C55.5978 82.5807 55.7238 81.904 55.9758 81.316C56.2278 80.728 56.5965 80.266 57.0818 79.93C57.5671 79.5847 58.1551 79.412 58.8458 79.412ZM58.8458 80.084C58.1551 80.084 57.5998 80.3127 57.1798 80.77C56.7598 81.218 56.5125 81.8667 56.4378 82.716H60.9178C60.9178 82.1933 60.8431 81.736 60.6938 81.344C60.5445 80.952 60.3158 80.644 60.0078 80.42C59.7091 80.196 59.3218 80.084 58.8458 80.084ZM65.5484 83.178L62.9584 79.552H63.8824L66.0244 82.632L68.1804 79.552H69.0904L66.5144 83.178L69.2444 87H68.3204L66.0244 83.724L63.7424 87H62.8324L65.5484 83.178ZM71.6091 79.552V82.786H76.1731V79.552H76.9711V87H76.1731V83.472H71.6091V87H70.8111V79.552H71.6091ZM80.2221 79.552V87H79.4381V79.552H80.2221ZM79.8301 76.794C80.0074 76.794 80.1427 76.85 80.2361 76.962C80.3294 77.0647 80.3761 77.2093 80.3761 77.396C80.3761 77.592 80.3294 77.746 80.2361 77.858C80.1427 77.9607 80.0074 78.012 79.8301 78.012C79.6621 78.012 79.5314 77.9607 79.4381 77.858C79.3447 77.746 79.2981 77.592 79.2981 77.396C79.2981 77.2093 79.3447 77.0647 79.4381 76.962C79.5314 76.85 79.6621 76.794 79.8301 76.794ZM86.808 79.552H87.718L84.386 83.164L87.928 87H86.962L83.49 83.234V87H82.692V79.552H83.49V83.178L86.808 79.552ZM88.0771 79.552H88.9311L90.6951 84.186C90.7978 84.4567 90.8911 84.7087 90.9751 84.942C91.0591 85.1753 91.1338 85.3947 91.1991 85.6C91.2645 85.796 91.3205 85.978 91.3671 86.146H91.4091C91.4745 85.9313 91.5631 85.656 91.6751 85.32C91.7871 84.9747 91.9178 84.6013 92.0671 84.2L93.8031 79.552H94.6571L91.2971 88.33C91.1291 88.7593 90.9425 89.128 90.7371 89.436C90.5318 89.744 90.2891 89.9773 90.0091 90.136C89.7291 90.304 89.3931 90.388 89.0011 90.388C88.8238 90.388 88.6605 90.374 88.5111 90.346C88.3711 90.3273 88.2358 90.2993 88.1051 90.262V89.59C88.2265 89.618 88.3478 89.6413 88.4691 89.66C88.5998 89.688 88.7445 89.702 88.9031 89.702C89.1645 89.702 89.3931 89.646 89.5891 89.534C89.7851 89.4313 89.9578 89.268 90.1071 89.044C90.2565 88.8293 90.3918 88.5587 90.5131 88.232L91.0031 86.972L88.0771 79.552Z" fill="#0E0E0E"/>
<path d="M89.8784 33.9199H51.8549C51.0427 33.9199 50.3823 34.5797 50.3823 35.3901V58.9157C50.3823 59.7265 51.0428 60.3858 51.8549 60.3858H65.1095V63.412H57.6121C57.0955 63.412 56.6749 63.8319 56.6749 64.3478V65.417C56.6749 65.9328 57.0955 66.3528 57.6121 66.3528H87.4418C88.0769 66.3528 88.5932 65.8396 88.5932 65.2086V60.3858L89.8783 60.3862C90.6904 60.3862 91.3508 59.7268 91.3508 58.916V35.3904C91.3508 34.58 90.69 33.9203 89.8783 33.9203L89.8784 33.9199ZM51.8549 59.5842C51.4858 59.5842 51.1854 59.2844 51.1854 58.9159V56.285H80.3142V59.5838H76.2315C76.2285 59.5838 76.2259 59.5823 76.2225 59.5823H65.5117C65.5083 59.5823 65.5057 59.5842 65.5027 59.5842L51.8549 59.5842ZM80.3142 60.3861V63.4122H76.6241V60.3861H80.3142ZM75.821 60.3861V63.4122H65.9134V60.3861H75.821ZM57.6125 65.5512C57.5374 65.5512 57.4788 65.4923 57.4788 65.4177V64.3484C57.4788 64.2757 57.5401 64.2149 57.6125 64.2149H65.5026C65.506 64.2149 65.5086 64.2168 65.5116 64.2168H76.2224C76.2258 64.2168 76.2284 64.2149 76.2314 64.2149H80.314V65.2092C80.314 65.3155 80.3334 65.4166 80.3607 65.5143C80.3641 65.5262 80.3626 65.5397 80.3663 65.5512L57.6125 65.5512ZM87.7903 55.8841V65.2088C87.7903 65.3975 87.6342 65.5512 87.4422 65.5512H81.4655C81.2735 65.5512 81.1174 65.3975 81.1174 65.2088V50.66C81.1174 50.4683 81.2735 50.3124 81.4655 50.3124H87.4422C87.6342 50.3124 87.7903 50.4683 87.7903 50.66V55.8841ZM90.5484 58.9159C90.5484 59.2844 90.248 59.5843 89.8789 59.5843H88.5938L88.5935 56.285H90.5483L90.5484 58.9159ZM90.5484 55.4832H88.5938V50.6605C88.5938 50.0264 88.0772 49.511 87.4425 49.511H81.4655C80.8304 49.511 80.3142 50.0268 80.3142 50.6605V55.4832H51.1854V35.39C51.1854 35.0215 51.4858 34.7217 51.8549 34.7217H89.8784C90.2474 34.7217 90.5478 35.0215 90.5478 35.39L90.5484 55.4832Z" fill="#0D4689"/>
<path d="M76.587 44.7416L65.5128 39.2133C65.3884 39.151 65.2405 39.1577 65.1217 39.2308C65.0036 39.3039 64.9312 39.4334 64.9312 39.5721V50.6341C64.9312 50.7728 65.0032 50.9022 65.1217 50.9753C65.1859 51.0149 65.2591 51.035 65.3327 51.035C65.3944 51.035 65.456 51.0208 65.5124 50.9929L76.5876 45.4585C76.724 45.3903 76.8095 45.2515 76.8095 45.0998C76.8095 44.948 76.7236 44.8092 76.5876 44.7413L76.587 44.7416ZM65.7347 49.9851V40.2206L75.5102 45.1003L65.7347 49.9851Z" fill="#0D4689"/>
<path d="M68.8234 59.0698H72.9067C73.5343 59.0698 74.0446 58.5604 74.0446 57.9338C74.0446 57.3073 73.5343 56.7979 72.9067 56.7979H68.8234C68.1958 56.7979 67.6855 57.3073 67.6855 57.9338C67.6855 58.56 68.1958 59.0698 68.8234 59.0698ZM68.8234 57.5993H72.9067C73.0913 57.5993 73.2415 57.7492 73.2415 57.9335C73.2415 58.1177 73.0913 58.2676 72.9067 58.2676H68.8234C68.6388 58.2676 68.4887 58.1177 68.4887 57.9335C68.4887 57.7492 68.6388 57.5993 68.8234 57.5993Z" fill="#0D4689"/>
<path d="M57.6583 56.7974C57.0308 56.7974 56.5205 57.3068 56.5205 57.9333C56.5205 58.5599 57.0308 59.0693 57.6583 59.0693C58.2859 59.0693 58.7962 58.5599 58.7962 57.9333C58.7966 57.3068 58.2859 56.7974 57.6583 56.7974ZM57.6583 58.2675C57.4738 58.2675 57.3236 58.1176 57.3236 57.9333C57.3236 57.7491 57.4738 57.5992 57.6583 57.5992C57.8429 57.5992 57.9931 57.7491 57.9931 57.9333C57.9931 58.1176 57.8429 58.2675 57.6583 58.2675Z" fill="#0D4689"/>
<path d="M54.5377 56.7974C53.9101 56.7974 53.3999 57.3068 53.3999 57.9333C53.3999 58.5599 53.9102 59.0693 54.5377 59.0693C55.1653 59.0693 55.6756 58.5599 55.6756 57.9333C55.676 57.3068 55.1653 56.7974 54.5377 56.7974ZM54.5377 58.2675C54.3532 58.2675 54.203 58.1176 54.203 57.9333C54.203 57.7491 54.3532 57.5992 54.5377 57.5992C54.7223 57.5992 54.8725 57.7491 54.8725 57.9333C54.8725 58.1176 54.7223 58.2675 54.5377 58.2675Z" fill="#0D4689"/>
<path d="M85.9433 53.6549C85.9433 52.8322 85.2754 52.1631 84.4547 52.1631C83.6306 52.1631 82.9604 52.8322 82.9604 53.6549C82.9604 54.4743 83.6306 55.1411 84.4547 55.1411C85.2754 55.1411 85.9433 54.4746 85.9433 53.6549ZM84.4547 54.3393C84.0737 54.3393 83.764 54.0324 83.764 53.6549C83.764 53.2745 84.074 52.9653 84.4547 52.9653C84.8324 52.9653 85.1402 53.2749 85.1402 53.6549C85.1398 54.0324 84.8324 54.3393 84.4547 54.3393Z" fill="#0D4689"/>
<path d="M83.0441 56.0342C82.3971 56.0342 81.8711 56.5593 81.8711 57.2049C81.8711 57.8509 82.3971 58.376 83.0441 58.376C83.6908 58.376 84.2168 57.8509 84.2168 57.2049C84.2171 56.5597 83.6908 56.0342 83.0441 56.0342ZM83.0441 57.5745C82.8402 57.5745 82.6743 57.4089 82.6743 57.2053C82.6743 56.9987 82.8368 56.8364 83.0441 56.8364C83.2477 56.8364 83.4136 57.002 83.4136 57.2053C83.414 57.4052 83.2447 57.5745 83.0441 57.5745Z" fill="#0D4689"/>
<path d="M85.8607 56.0342C85.214 56.0342 84.688 56.5593 84.688 57.2049C84.688 57.8509 85.214 58.376 85.8607 58.376C86.5074 58.376 87.0333 57.8509 87.0333 57.2049C87.0333 56.5597 86.5074 56.0342 85.8607 56.0342ZM85.8607 57.5745C85.6604 57.5745 85.4912 57.4052 85.4912 57.2053C85.4912 57.002 85.6571 56.8364 85.8607 56.8364C86.0643 56.8364 86.2301 57.002 86.2301 57.2053C86.2301 57.4052 86.0609 57.5745 85.8607 57.5745Z" fill="#0D4689"/>
<path d="M83.0442 58.6973C82.3971 58.6973 81.8711 59.2224 81.8711 59.8684C81.8711 59.9232 81.8778 59.9862 81.886 60.0437C81.9686 60.6113 82.4662 61.0395 83.0441 61.0395C83.6216 61.0395 84.1196 60.6113 84.2021 60.0419C84.21 59.9867 84.2167 59.9236 84.2167 59.8688C84.2171 59.2225 83.6907 58.6973 83.044 58.6973L83.0442 58.6973ZM83.4073 59.9281C83.3815 60.1041 83.2253 60.2372 83.0442 60.2372C82.8626 60.2372 82.7064 60.1045 82.681 59.9303C82.6784 59.9105 82.6747 59.8882 82.6743 59.8684C82.6743 59.6648 82.8402 59.4992 83.0442 59.4992C83.2444 59.4992 83.4136 59.6681 83.4136 59.8684C83.4136 59.8882 83.4095 59.9105 83.4073 59.9281L83.4073 59.9281Z" fill="#0D4689"/>
<path d="M85.8607 58.6973C85.214 58.6973 84.688 59.2224 84.688 59.8684C84.688 59.9243 84.6947 59.9881 84.7029 60.0437C84.7851 60.6109 85.2827 61.0391 85.8606 61.0391C86.4381 61.0391 86.9361 60.611 87.0186 60.0441C87.0269 59.9881 87.0336 59.9243 87.0336 59.8684C87.0332 59.2224 86.5072 58.6973 85.8605 58.6973L85.8607 58.6973ZM86.2234 59.9281C86.198 60.1045 86.0419 60.2372 85.8607 60.2372C85.6795 60.2372 85.5233 60.1045 85.4975 59.9277C85.4946 59.909 85.4912 59.887 85.4912 59.8684C85.4912 59.6685 85.6604 59.4992 85.8607 59.4992C86.0609 59.4992 86.2301 59.6685 86.2301 59.8684C86.2301 59.887 86.2264 59.9087 86.2234 59.9281Z" fill="#0D4689"/>
<path d="M83.0441 61.3604C82.3971 61.3604 81.8711 61.8855 81.8711 62.5311C81.8711 63.1767 82.3971 63.7018 83.0441 63.7018C83.6908 63.7018 84.2168 63.1767 84.2168 62.5311C84.2171 61.8855 83.6908 61.3604 83.0441 61.3604ZM83.0441 62.8999C82.8368 62.8999 82.6743 62.7377 82.6743 62.5311C82.6743 62.3278 82.8402 62.1622 83.0441 62.1622C83.2444 62.1622 83.4136 62.3312 83.4136 62.5311C83.414 62.7343 83.2481 62.8999 83.0441 62.8999Z" fill="#0D4689"/>
<path d="M85.8607 61.3604C85.214 61.3604 84.688 61.8855 84.688 62.5311C84.6876 63.1767 85.214 63.7022 85.8607 63.7022C86.5074 63.7022 87.0333 63.1771 87.0333 62.5315C87.0333 61.8855 86.5074 61.3604 85.8607 61.3604ZM85.8607 62.8999C85.6571 62.8999 85.4912 62.7343 85.4912 62.5311C85.4912 62.3312 85.6604 62.1622 85.8607 62.1622C86.0609 62.1622 86.2301 62.3312 86.2301 62.5311C86.2301 62.7343 86.0643 62.8999 85.8607 62.8999Z" fill="#0D4689"/>
</svg>
