<svg width="162" height="139" viewBox="0 0 162 139" fill="none" xmlns="http://www.w3.org/2000/svg">
<g filter="url(#filter0_d_961_1296)">
<path d="M10 6H142C147.523 6 152 10.4772 152 16V115C152 120.523 147.523 125 142 125H10V6Z" fill="white"/>
<path d="M10.5 6.5H142C147.247 6.5 151.5 10.7533 151.5 16V115C151.5 120.247 147.247 124.5 142 124.5H10.5V6.5Z" stroke="#8CBEFA" stroke-opacity="0.72"/>
</g>
<path d="M132 18C127.58 18 124 21.58 124 26C124 30.42 127.58 34 132 34C136.42 34 140 30.42 140 26C140 21.58 136.42 18 132 18ZM131.385 30.66H130.045L126.805 26.12L128.146 24.87L130.715 27.27L135.856 21.339L137.196 22.279L131.385 30.66Z" fill="#0D4689"/>
<path d="M54.8201 76.004C55.6508 76.004 56.3321 76.088 56.8641 76.256C57.3961 76.424 57.7881 76.69 58.0401 77.054C58.3014 77.4087 58.4321 77.8707 58.4321 78.44C58.4321 78.8227 58.3574 79.1727 58.2081 79.49C58.0681 79.8073 57.8534 80.0733 57.5641 80.288C57.2748 80.4933 56.9201 80.6333 56.5001 80.708V80.75C56.9854 80.834 57.3914 80.974 57.7181 81.17C58.0541 81.366 58.3061 81.632 58.4741 81.968C58.6421 82.2947 58.7261 82.6913 58.7261 83.158C58.7261 83.802 58.5768 84.3387 58.2781 84.768C57.9888 85.188 57.5781 85.5007 57.0461 85.706C56.5234 85.902 55.9121 86 55.2121 86H52.0621V76.004H54.8201ZM55.0161 80.414C55.9401 80.414 56.6028 80.2553 57.0041 79.938C57.4054 79.6207 57.6061 79.1493 57.6061 78.524C57.6061 77.88 57.3868 77.418 56.9481 77.138C56.5094 76.858 55.8048 76.718 54.8341 76.718H52.8741V80.414H55.0161ZM52.8741 81.114V85.3H55.1561C56.0708 85.3 56.7521 85.1133 57.2001 84.74C57.6481 84.3667 57.8721 83.8253 57.8721 83.116C57.8721 82.6493 57.7694 82.2713 57.5641 81.982C57.3588 81.6833 57.0461 81.464 56.6261 81.324C56.2061 81.184 55.6741 81.114 55.0301 81.114H52.8741ZM61.4821 83.746C61.4821 83.8393 61.4821 83.9467 61.4821 84.068C61.4821 84.1893 61.4775 84.3153 61.4681 84.446C61.4681 84.5673 61.4635 84.6887 61.4541 84.81C61.4448 84.922 61.4401 85.0293 61.4401 85.132L65.7941 78.552H66.7741V86H66.0181V80.806C66.0181 80.666 66.0181 80.512 66.0181 80.344C66.0181 80.176 66.0228 80.008 66.0321 79.84C66.0415 79.672 66.0461 79.5273 66.0461 79.406L61.6921 86H60.7261V78.552H61.4821V83.746ZM72.5757 78.412C73.5277 78.412 74.2697 78.734 74.8017 79.378C75.3431 80.022 75.6137 80.974 75.6137 82.234C75.6137 83.074 75.4877 83.788 75.2357 84.376C74.9837 84.9547 74.6244 85.3933 74.1577 85.692C73.7004 85.9907 73.1497 86.14 72.5057 86.14C72.0671 86.14 71.6844 86.0747 71.3577 85.944C71.0311 85.8133 70.7604 85.6407 70.5457 85.426C70.3311 85.2113 70.1631 84.9733 70.0417 84.712H69.9857C70.0044 84.9453 70.0184 85.202 70.0277 85.482C70.0371 85.7527 70.0417 86.0047 70.0417 86.238V89.304H69.2437V78.552H69.9017L69.9997 79.952H70.0417C70.1631 79.6813 70.3357 79.4293 70.5597 79.196C70.7837 78.9627 71.0591 78.776 71.3857 78.636C71.7217 78.4867 72.1184 78.412 72.5757 78.412ZM72.4637 79.098C71.9131 79.098 71.4604 79.2147 71.1057 79.448C70.7511 79.6813 70.4851 80.0267 70.3077 80.484C70.1304 80.932 70.0417 81.4873 70.0417 82.15V82.29C70.0417 82.99 70.1257 83.578 70.2937 84.054C70.4711 84.5207 70.7324 84.8707 71.0777 85.104C71.4324 85.3373 71.8757 85.454 72.4077 85.454C72.9304 85.454 73.3644 85.328 73.7097 85.076C74.0644 84.8147 74.3304 84.446 74.5077 83.97C74.6944 83.4847 74.7877 82.906 74.7877 82.234C74.7877 81.2167 74.5964 80.442 74.2137 79.91C73.8311 79.3687 73.2477 79.098 72.4637 79.098ZM83.8546 82.276C83.8546 82.8547 83.7799 83.382 83.6306 83.858C83.4906 84.3247 83.2759 84.7307 82.9866 85.076C82.7066 85.412 82.3566 85.6733 81.9366 85.86C81.5166 86.0467 81.0359 86.14 80.4946 86.14C79.9812 86.14 79.5192 86.0513 79.1086 85.874C78.7072 85.6873 78.3619 85.426 78.0726 85.09C77.7832 84.7447 77.5639 84.334 77.4146 83.858C77.2652 83.382 77.1906 82.8547 77.1906 82.276C77.1906 81.464 77.3212 80.7733 77.5826 80.204C77.8532 79.6253 78.2406 79.182 78.7446 78.874C79.2579 78.566 79.8646 78.412 80.5646 78.412C81.2739 78.412 81.8712 78.5753 82.3566 78.902C82.8512 79.2193 83.2246 79.6673 83.4766 80.246C83.7286 80.8247 83.8546 81.5013 83.8546 82.276ZM78.0166 82.276C78.0166 82.9107 78.1052 83.4707 78.2826 83.956C78.4599 84.432 78.7352 84.8007 79.1086 85.062C79.4819 85.3233 79.9486 85.454 80.5086 85.454C81.0872 85.454 81.5632 85.3233 81.9366 85.062C82.3099 84.7913 82.5852 84.418 82.7626 83.942C82.9399 83.4567 83.0286 82.9013 83.0286 82.276C83.0286 81.6507 82.9446 81.1 82.7766 80.624C82.6086 80.148 82.3426 79.7747 81.9786 79.504C81.6146 79.2333 81.1386 79.098 80.5506 79.098C79.7012 79.098 79.0666 79.378 78.6466 79.938C78.2266 80.498 78.0166 81.2773 78.0166 82.276ZM85.4764 81.534C85.4764 80.5633 85.5557 79.7327 85.7144 79.042C85.8731 78.3513 86.1157 77.7867 86.4424 77.348C86.7784 76.9 87.1937 76.5687 87.6884 76.354C88.1924 76.074 88.7757 75.8593 89.4384 75.71C90.1104 75.5513 90.8571 75.4207 91.6784 75.318L91.8044 76.018C91.3844 76.0647 90.9831 76.1207 90.6004 76.186C90.2177 76.2513 89.8584 76.326 89.5224 76.41C89.1957 76.4847 88.8971 76.5687 88.6264 76.662C88.3651 76.7553 88.1364 76.8627 87.9404 76.984C87.6977 77.1053 87.4784 77.2687 87.2824 77.474C87.0957 77.6793 86.9324 77.9313 86.7924 78.23C86.6617 78.5287 86.5544 78.874 86.4704 79.266C86.3864 79.658 86.3351 80.0967 86.3164 80.582H86.3724C86.5404 80.302 86.7551 80.05 87.0164 79.826C87.2777 79.5927 87.5811 79.4107 87.9264 79.28C88.2811 79.14 88.6684 79.07 89.0884 79.07C89.7137 79.07 90.2411 79.2053 90.6704 79.476C91.0997 79.7373 91.4217 80.12 91.6364 80.624C91.8604 81.1187 91.9724 81.7253 91.9724 82.444C91.9724 83.2 91.8464 83.858 91.5944 84.418C91.3517 84.9687 90.9877 85.3933 90.5024 85.692C90.0264 85.9907 89.4384 86.14 88.7384 86.14C88.1784 86.14 87.6931 86.028 87.2824 85.804C86.8717 85.5707 86.5311 85.2487 86.2604 84.838C85.9897 84.418 85.7891 83.928 85.6584 83.368C85.5371 82.808 85.4764 82.1967 85.4764 81.534ZM88.7944 85.454C89.3264 85.454 89.7604 85.342 90.0964 85.118C90.4417 84.8847 90.6984 84.5487 90.8664 84.11C91.0437 83.662 91.1324 83.1253 91.1324 82.5C91.1324 81.604 90.9504 80.9227 90.5864 80.456C90.2317 79.9893 89.6951 79.756 88.9764 79.756C88.5564 79.756 88.1737 79.8353 87.8284 79.994C87.4924 80.1527 87.1937 80.3673 86.9324 80.638C86.6711 80.8993 86.4564 81.184 86.2884 81.492C86.2884 81.996 86.3257 82.486 86.4004 82.962C86.4751 83.4287 86.6011 83.8533 86.7784 84.236C86.9651 84.6093 87.2217 84.908 87.5484 85.132C87.8844 85.3467 88.2997 85.454 88.7944 85.454ZM94.7458 83.746C94.7458 83.8393 94.7458 83.9467 94.7458 84.068C94.7458 84.1893 94.7411 84.3153 94.7318 84.446C94.7318 84.5673 94.7271 84.6887 94.7178 84.81C94.7085 84.922 94.7038 85.0293 94.7038 85.132L99.0578 78.552H100.038V86H99.2818V80.806C99.2818 80.666 99.2818 80.512 99.2818 80.344C99.2818 80.176 99.2865 80.008 99.2958 79.84C99.3051 79.672 99.3098 79.5273 99.3098 79.406L94.9558 86H93.9898V78.552H94.7458V83.746ZM107.894 78.412C108.417 78.412 108.865 78.4913 109.238 78.65C109.611 78.7993 109.896 79.0187 110.092 79.308C110.288 79.588 110.386 79.9333 110.386 80.344C110.386 80.7733 110.269 81.128 110.036 81.408C109.803 81.688 109.476 81.8887 109.056 82.01V82.038C109.392 82.122 109.677 82.248 109.91 82.416C110.153 82.584 110.335 82.794 110.456 83.046C110.587 83.2887 110.652 83.578 110.652 83.914C110.652 84.362 110.535 84.754 110.302 85.09C110.078 85.426 109.747 85.6873 109.308 85.874C108.879 86.0513 108.356 86.14 107.74 86.14C107.404 86.14 107.087 86.1167 106.788 86.07C106.489 86.0327 106.219 85.9767 105.976 85.902C105.743 85.8273 105.537 85.7433 105.36 85.65V84.894C105.696 85.062 106.06 85.202 106.452 85.314C106.844 85.4167 107.269 85.468 107.726 85.468C108.137 85.468 108.501 85.412 108.818 85.3C109.145 85.1787 109.397 85.0013 109.574 84.768C109.761 84.5347 109.854 84.236 109.854 83.872C109.854 83.5267 109.77 83.2467 109.602 83.032C109.434 82.8173 109.187 82.6633 108.86 82.57C108.543 82.4673 108.141 82.416 107.656 82.416H106.662V81.744H107.558C108.183 81.744 108.683 81.6367 109.056 81.422C109.429 81.2073 109.616 80.862 109.616 80.386C109.616 79.966 109.462 79.6487 109.154 79.434C108.855 79.21 108.421 79.098 107.852 79.098C107.451 79.098 107.091 79.1447 106.774 79.238C106.457 79.322 106.125 79.4433 105.78 79.602L105.5 78.944C105.855 78.776 106.223 78.6453 106.606 78.552C106.998 78.4587 107.427 78.412 107.894 78.412ZM49.2535 93.552V100.314H50.2755V103.534H49.4915V101H43.9055V103.534H43.1355V100.314H43.6535C44.0735 99.726 44.4235 99.0773 44.7035 98.368C44.9835 97.6587 45.1981 96.898 45.3475 96.086C45.4968 95.274 45.5761 94.4293 45.5855 93.552H49.2535ZM46.3135 94.21C46.2761 94.994 46.1828 95.7547 46.0335 96.492C45.8841 97.22 45.6835 97.906 45.4315 98.55C45.1795 99.194 44.8715 99.782 44.5075 100.314H48.4835V94.21H46.3135ZM52.6098 93.552V101H51.8258V93.552H52.6098ZM52.2178 90.794C52.3951 90.794 52.5304 90.85 52.6238 90.962C52.7171 91.0647 52.7638 91.2093 52.7638 91.396C52.7638 91.592 52.7171 91.746 52.6238 91.858C52.5304 91.9607 52.3951 92.012 52.2178 92.012C52.0498 92.012 51.9191 91.9607 51.8258 91.858C51.7324 91.746 51.6858 91.592 51.6858 91.396C51.6858 91.2093 51.7324 91.0647 51.8258 90.962C51.9191 90.85 52.0498 90.794 52.2178 90.794ZM57.7117 93.426C58.5517 93.426 59.177 93.6313 59.5877 94.042C59.9983 94.4527 60.2037 95.106 60.2037 96.002V101H59.6017L59.4617 99.74H59.4197C59.2423 100.02 59.037 100.267 58.8037 100.482C58.5797 100.687 58.3043 100.851 57.9777 100.972C57.6603 101.084 57.2683 101.14 56.8017 101.14C56.335 101.14 55.929 101.061 55.5837 100.902C55.2383 100.734 54.9723 100.496 54.7857 100.188C54.599 99.88 54.5057 99.502 54.5057 99.054C54.5057 98.3167 54.809 97.7567 55.4157 97.374C56.0223 96.982 56.9043 96.758 58.0617 96.702L59.4197 96.646V96.114C59.4197 95.3767 59.2703 94.8587 58.9717 94.56C58.6823 94.252 58.2483 94.098 57.6697 94.098C57.287 94.098 56.9183 94.1493 56.5637 94.252C56.2183 94.3453 55.8683 94.4807 55.5137 94.658L55.2617 94.028C55.607 93.8507 55.9897 93.706 56.4097 93.594C56.8297 93.482 57.2637 93.426 57.7117 93.426ZM58.1457 97.29C57.203 97.3367 56.4983 97.5047 56.0317 97.794C55.565 98.074 55.3317 98.4987 55.3317 99.068C55.3317 99.5253 55.4763 99.8753 55.7657 100.118C56.055 100.351 56.447 100.468 56.9417 100.468C57.735 100.468 58.3417 100.249 58.7617 99.81C59.191 99.3713 59.4103 98.7553 59.4197 97.962V97.234L58.1457 97.29ZM69.9775 93.552V101H69.2355V95.764C69.2355 95.568 69.2402 95.3767 69.2495 95.19C69.2588 94.994 69.2682 94.7933 69.2775 94.588H69.2495L66.6035 101H65.9175L63.2995 94.574H63.2575C63.2762 94.7793 63.2855 94.98 63.2855 95.176C63.2855 95.372 63.2855 95.582 63.2855 95.806V101H62.5575V93.552H63.6355L66.2535 100.02L68.8995 93.552H69.9775ZM74.8699 93.426C75.7099 93.426 76.3352 93.6313 76.7459 94.042C77.1565 94.4527 77.3619 95.106 77.3619 96.002V101H76.7599L76.6199 99.74H76.5779C76.4005 100.02 76.1952 100.267 75.9619 100.482C75.7379 100.687 75.4625 100.851 75.1359 100.972C74.8185 101.084 74.4265 101.14 73.9599 101.14C73.4932 101.14 73.0872 101.061 72.7419 100.902C72.3965 100.734 72.1305 100.496 71.9439 100.188C71.7572 99.88 71.6639 99.502 71.6639 99.054C71.6639 98.3167 71.9672 97.7567 72.5739 97.374C73.1805 96.982 74.0625 96.758 75.2199 96.702L76.5779 96.646V96.114C76.5779 95.3767 76.4285 94.8587 76.1299 94.56C75.8405 94.252 75.4065 94.098 74.8279 94.098C74.4452 94.098 74.0765 94.1493 73.7219 94.252C73.3765 94.3453 73.0265 94.4807 72.6719 94.658L72.4199 94.028C72.7652 93.8507 73.1479 93.706 73.5679 93.594C73.9879 93.482 74.4219 93.426 74.8699 93.426ZM75.3039 97.29C74.3612 97.3367 73.6565 97.5047 73.1899 97.794C72.7232 98.074 72.4899 98.4987 72.4899 99.068C72.4899 99.5253 72.6345 99.8753 72.9239 100.118C73.2132 100.351 73.6052 100.468 74.0999 100.468C74.8932 100.468 75.4999 100.249 75.9199 99.81C76.3492 99.3713 76.5685 98.7553 76.5779 97.962V97.234L75.3039 97.29ZM80.5417 93.552V96.786H85.1057V93.552H85.9037V101H85.1057V97.472H80.5417V101H79.7437V93.552H80.5417ZM93.1867 94.238H90.6807V101H89.8967V94.238H87.4047V93.552H93.1867V94.238ZM97.3328 93.426C98.1728 93.426 98.7981 93.6313 99.2088 94.042C99.6194 94.4527 99.8248 95.106 99.8248 96.002V101H99.2228L99.0828 99.74H99.0408C98.8634 100.02 98.6581 100.267 98.4248 100.482C98.2008 100.687 97.9254 100.851 97.5988 100.972C97.2814 101.084 96.8894 101.14 96.4228 101.14C95.9561 101.14 95.5501 101.061 95.2048 100.902C94.8594 100.734 94.5934 100.496 94.4068 100.188C94.2201 99.88 94.1268 99.502 94.1268 99.054C94.1268 98.3167 94.4301 97.7567 95.0368 97.374C95.6434 96.982 96.5254 96.758 97.6828 96.702L99.0408 96.646V96.114C99.0408 95.3767 98.8914 94.8587 98.5928 94.56C98.3034 94.252 97.8694 94.098 97.2908 94.098C96.9081 94.098 96.5394 94.1493 96.1848 94.252C95.8394 94.3453 95.4894 94.4807 95.1348 94.658L94.8828 94.028C95.2281 93.8507 95.6108 93.706 96.0308 93.594C96.4508 93.482 96.8848 93.426 97.3328 93.426ZM97.7668 97.29C96.8241 97.3367 96.1194 97.5047 95.6528 97.794C95.1861 98.074 94.9528 98.4987 94.9528 99.068C94.9528 99.5253 95.0974 99.8753 95.3868 100.118C95.6761 100.351 96.0681 100.468 96.5628 100.468C97.3561 100.468 97.9628 100.249 98.3828 99.81C98.8121 99.3713 99.0314 98.7553 99.0408 97.962V97.234L97.7668 97.29ZM109.599 93.552V101H108.857V95.764C108.857 95.568 108.861 95.3767 108.871 95.19C108.88 94.994 108.889 94.7933 108.899 94.588H108.871L106.225 101H105.539L102.921 94.574H102.879C102.897 94.7793 102.907 94.98 102.907 95.176C102.907 95.372 102.907 95.582 102.907 95.806V101H102.179V93.552H103.257L105.875 100.02L108.521 93.552H109.599ZM112.615 98.746C112.615 98.8393 112.615 98.9467 112.615 99.068C112.615 99.1893 112.61 99.3153 112.601 99.446C112.601 99.5673 112.596 99.6887 112.587 99.81C112.578 99.922 112.573 100.029 112.573 100.132L116.927 93.552H117.907V101H117.151V95.806C117.151 95.666 117.151 95.512 117.151 95.344C117.151 95.176 117.156 95.008 117.165 94.84C117.174 94.672 117.179 94.5273 117.179 94.406L112.825 101H111.859V93.552H112.615V98.746Z" fill="#0E0E0E"/>
<g clip-path="url(#clip0_961_1296)">
<path d="M98.6919 43.0967C98.6941 43.0967 93.4355 34.3258 93.4355 34.3258C93.1268 33.8112 92.3835 33.3901 91.7835 33.3901H70.7152C70.1152 33.3901 69.3719 33.8112 69.0632 34.3254L63.8006 43.0967C63.8006 43.0967 63.4926 43.6741 64.0275 44.285L80.5261 63.1265C80.7239 63.3523 80.9843 63.465 81.245 63.465C81.5057 63.465 81.7665 63.3523 81.9639 63.1265L98.4414 44.3181C98.4497 44.3069 98.4555 44.296 98.4654 44.285C98.9999 43.6741 98.6919 43.0967 98.6919 43.0967ZM76.153 43.2029L78.2388 34.4814H84.2603L86.3483 43.2029H76.153ZM86.4937 44.2981L81.2501 61.0323L76.0075 44.2981H86.4937ZM69.9985 34.8869C70.1101 34.701 70.4985 34.481 70.7152 34.481H77.117L75.0312 43.2025H65.0094L69.9985 34.8869ZM74.8643 44.2981L80.0875 60.9694L65.4894 44.2981H74.8643ZM82.4185 60.9516L87.6374 44.2981H97.0083L82.4185 60.9516ZM87.4701 43.2029L85.3821 34.4814H91.7835C92.0003 34.4814 92.3886 34.7014 92.5003 34.8872L97.4886 43.2029H87.4701Z" fill="#0D4689"/>
</g>
<defs>
<filter id="filter0_d_961_1296" x="0" y="0" width="162" height="139" filterUnits="userSpaceOnUse" color-interpolation-filters="sRGB">
<feFlood flood-opacity="0" result="BackgroundImageFix"/>
<feColorMatrix in="SourceAlpha" type="matrix" values="0 0 0 0 0 0 0 0 0 0 0 0 0 0 0 0 0 0 127 0" result="hardAlpha"/>
<feOffset dy="4"/>
<feGaussianBlur stdDeviation="5"/>
<feComposite in2="hardAlpha" operator="out"/>
<feColorMatrix type="matrix" values="0 0 0 0 0.548333 0 0 0 0 0.746378 0 0 0 0 0.979167 0 0 0 0.27 0"/>
<feBlend mode="normal" in2="BackgroundImageFix" result="effect1_dropShadow_961_1296"/>
<feBlend mode="normal" in="SourceGraphic" in2="effect1_dropShadow_961_1296" result="shape"/>
</filter>
<clipPath id="clip0_961_1296">
<rect width="36.3636" height="40" fill="white" transform="translate(63 28)"/>
</clipPath>
</defs>
</svg>
