<svg width="162" height="139" viewBox="0 0 162 139" fill="none" xmlns="http://www.w3.org/2000/svg">
<g filter="url(#filter0_d_961_1288)">
<path d="M10 6H142C147.523 6 152 10.4772 152 16V115C152 120.523 147.523 125 142 125H10V6Z" fill="white"/>
<path d="M10.5 6.5H142C147.247 6.5 151.5 10.7533 151.5 16V115C151.5 120.247 147.247 124.5 142 124.5H10.5V6.5Z" stroke="#8CBEFA" stroke-opacity="0.72"/>
</g>
<path d="M64.93 85.37C64.93 86.0607 64.734 86.602 64.342 86.994C63.9593 87.3767 63.46 87.6287 62.844 87.75V87.792C63.5813 87.9227 64.146 88.1887 64.538 88.59C64.93 88.9913 65.126 89.5373 65.126 90.228C65.126 90.816 64.986 91.3293 64.706 91.768C64.426 92.1973 64.0107 92.5333 63.46 92.776C62.9187 93.0187 62.242 93.14 61.43 93.14C60.8793 93.14 60.3567 93.0933 59.862 93C59.3767 92.8973 58.9427 92.748 58.56 92.552V91.782C58.8213 91.922 59.1107 92.0433 59.428 92.146C59.7547 92.2393 60.086 92.314 60.422 92.37C60.7673 92.426 61.1033 92.454 61.43 92.454C62.354 92.454 63.0587 92.258 63.544 91.866C64.0387 91.474 64.286 90.928 64.286 90.228C64.286 89.5093 64.02 88.9867 63.488 88.66C62.9653 88.324 62.2 88.156 61.192 88.156H59.722V87.47H61.22C61.864 87.47 62.396 87.3907 62.816 87.232C63.2453 87.064 63.5673 86.8307 63.782 86.532C63.9967 86.224 64.104 85.8553 64.104 85.426C64.104 84.838 63.8987 84.3807 63.488 84.054C63.0773 83.718 62.5267 83.55 61.836 83.55C61.22 83.55 60.702 83.6387 60.282 83.816C59.862 83.984 59.4513 84.2033 59.05 84.474L58.644 83.914C58.9147 83.7087 59.2087 83.5313 59.526 83.382C59.8433 83.2233 60.1933 83.0973 60.576 83.004C60.968 82.9107 61.3927 82.864 61.85 82.864C62.5033 82.864 63.0587 82.9713 63.516 83.186C63.9733 83.3913 64.3233 83.6807 64.566 84.054C64.8087 84.4273 64.93 84.866 64.93 85.37ZM73.378 89.276C73.378 89.8547 73.3033 90.382 73.154 90.858C73.014 91.3247 72.7993 91.7307 72.51 92.076C72.23 92.412 71.88 92.6733 71.46 92.86C71.04 93.0467 70.5593 93.14 70.018 93.14C69.5047 93.14 69.0427 93.0513 68.632 92.874C68.2307 92.6873 67.8853 92.426 67.596 92.09C67.3067 91.7447 67.0873 91.334 66.938 90.858C66.7887 90.382 66.714 89.8547 66.714 89.276C66.714 88.464 66.8447 87.7733 67.106 87.204C67.3767 86.6253 67.764 86.182 68.268 85.874C68.7813 85.566 69.388 85.412 70.088 85.412C70.7973 85.412 71.3947 85.5753 71.88 85.902C72.3747 86.2193 72.748 86.6673 73 87.246C73.252 87.8247 73.378 88.5013 73.378 89.276ZM67.54 89.276C67.54 89.9107 67.6287 90.4707 67.806 90.956C67.9833 91.432 68.2587 91.8007 68.632 92.062C69.0053 92.3233 69.472 92.454 70.032 92.454C70.6107 92.454 71.0867 92.3233 71.46 92.062C71.8333 91.7913 72.1087 91.418 72.286 90.942C72.4633 90.4567 72.552 89.9013 72.552 89.276C72.552 88.6507 72.468 88.1 72.3 87.624C72.132 87.148 71.866 86.7747 71.502 86.504C71.138 86.2333 70.662 86.098 70.074 86.098C69.2247 86.098 68.59 86.378 68.17 86.938C67.75 87.498 67.54 88.2773 67.54 89.276ZM80.6558 93H79.8578V86.238H77.3378C77.2445 87.414 77.1372 88.4313 77.0158 89.29C76.8945 90.1487 76.7358 90.858 76.5398 91.418C76.3532 91.978 76.1152 92.3933 75.8258 92.664C75.5458 92.9347 75.2052 93.07 74.8038 93.07C74.6825 93.07 74.5752 93.0653 74.4818 93.056C74.3885 93.0467 74.3092 93.0327 74.2438 93.014V92.37C74.2998 92.3887 74.3605 92.4027 74.4258 92.412C74.4912 92.4213 74.5752 92.426 74.6778 92.426C74.9018 92.426 75.1025 92.3373 75.2798 92.16C75.4665 91.9827 75.6298 91.7167 75.7698 91.362C75.9098 91.0073 76.0312 90.5593 76.1338 90.018C76.2458 89.4673 76.3392 88.8233 76.4138 88.086C76.4978 87.3393 76.5725 86.4947 76.6378 85.552H80.6558V93ZM89.3468 89.276C89.3468 89.8547 89.2721 90.382 89.1228 90.858C88.9828 91.3247 88.7681 91.7307 88.4788 92.076C88.1988 92.412 87.8488 92.6733 87.4288 92.86C87.0088 93.0467 86.5281 93.14 85.9868 93.14C85.4734 93.14 85.0114 93.0513 84.6008 92.874C84.1994 92.6873 83.8541 92.426 83.5648 92.09C83.2754 91.7447 83.0561 91.334 82.9068 90.858C82.7574 90.382 82.6828 89.8547 82.6828 89.276C82.6828 88.464 82.8134 87.7733 83.0748 87.204C83.3454 86.6253 83.7328 86.182 84.2368 85.874C84.7501 85.566 85.3568 85.412 86.0568 85.412C86.7661 85.412 87.3634 85.5753 87.8488 85.902C88.3434 86.2193 88.7168 86.6673 88.9688 87.246C89.2208 87.8247 89.3468 88.5013 89.3468 89.276ZM83.5088 89.276C83.5088 89.9107 83.5974 90.4707 83.7748 90.956C83.9521 91.432 84.2274 91.8007 84.6008 92.062C84.9741 92.3233 85.4408 92.454 86.0008 92.454C86.5794 92.454 87.0554 92.3233 87.4288 92.062C87.8021 91.7913 88.0774 91.418 88.2548 90.942C88.4321 90.4567 88.5208 89.9013 88.5208 89.276C88.5208 88.6507 88.4368 88.1 88.2688 87.624C88.1008 87.148 87.8348 86.7747 87.4708 86.504C87.1068 86.2333 86.6308 86.098 86.0428 86.098C85.1934 86.098 84.5588 86.378 84.1388 86.938C83.7188 87.498 83.5088 88.2773 83.5088 89.276ZM96.0539 86.238H93.5479V93H92.7639V86.238H90.2719V85.552H96.0539V86.238ZM103.661 89.276C103.661 89.8547 103.587 90.382 103.437 90.858C103.297 91.3247 103.083 91.7307 102.793 92.076C102.513 92.412 102.163 92.6733 101.743 92.86C101.323 93.0467 100.843 93.14 100.301 93.14C99.7879 93.14 99.3259 93.0513 98.9152 92.874C98.5139 92.6873 98.1686 92.426 97.8792 92.09C97.5899 91.7447 97.3706 91.334 97.2212 90.858C97.0719 90.382 96.9972 89.8547 96.9972 89.276C96.9972 88.464 97.1279 87.7733 97.3892 87.204C97.6599 86.6253 98.0472 86.182 98.5512 85.874C99.0646 85.566 99.6712 85.412 100.371 85.412C101.081 85.412 101.678 85.5753 102.163 85.902C102.658 86.2193 103.031 86.6673 103.283 87.246C103.535 87.8247 103.661 88.5013 103.661 89.276ZM97.8232 89.276C97.8232 89.9107 97.9119 90.4707 98.0892 90.956C98.2666 91.432 98.5419 91.8007 98.9152 92.062C99.2886 92.3233 99.7552 92.454 100.315 92.454C100.894 92.454 101.37 92.3233 101.743 92.062C102.117 91.7913 102.392 91.418 102.569 90.942C102.747 90.4567 102.835 89.9013 102.835 89.276C102.835 88.6507 102.751 88.1 102.583 87.624C102.415 87.148 102.149 86.7747 101.785 86.504C101.421 86.2333 100.945 86.098 100.357 86.098C99.5079 86.098 98.8732 86.378 98.4532 86.938C98.0332 87.498 97.8232 88.2773 97.8232 89.276Z" fill="#0E0E0E"/>
<g clip-path="url(#clip0_961_1288)">
<path d="M83.8172 51.7119L87.4085 47.5243L81.0383 42.5185L74.6669 47.5243L78.2582 51.7115C74.0814 52.9359 71.2031 56.738 71.2031 61.1388C71.2031 66.5616 75.6147 70.9736 81.0383 70.9736C86.4607 70.9736 90.8727 66.562 90.8727 61.1388C90.8723 56.7454 87.9915 52.9363 83.8172 51.7119ZM82.317 52.2825L83.7273 48.4858C84.589 48.4096 85.2859 48.3069 85.8089 48.2105L82.317 52.2825ZM79.1899 48.5475C79.7518 48.5802 80.3667 48.6009 81.0383 48.6009C81.71 48.6009 82.3244 48.5802 82.8859 48.5475L81.0383 53.5218L79.1899 48.5475ZM87.1439 61.1388C87.1439 64.5061 84.4044 67.2457 81.0379 67.2457C77.6706 67.2457 74.9311 64.5061 74.9311 61.1388C74.9311 57.7719 77.6706 55.0328 81.0379 55.0328C84.4048 55.0328 87.1439 57.7719 87.1439 61.1388ZM84.5762 46.2751L85.9953 47.3906C85.5394 47.4837 84.8818 47.5964 84.03 47.685L84.5762 46.2751ZM83.946 45.7794L83.4884 46.9608L82.1741 44.3864L83.946 45.7794ZM83.0391 47.7682C82.4387 47.808 81.7729 47.8336 81.0379 47.8336C80.3025 47.8336 79.6367 47.808 79.0358 47.7682L81.0379 43.8494L83.0391 47.7682ZM79.9021 44.3869L78.5874 46.9608L78.1302 45.7794L79.9021 44.3869ZM77.4996 46.2746L78.0454 47.6846C77.1936 47.596 76.5356 47.4833 76.0801 47.3902L77.4996 46.2746ZM76.2669 48.2105C76.7899 48.3065 77.4868 48.4096 78.3485 48.4858L79.7588 52.2821L76.2669 48.2105ZM81.0383 70.2063C76.0383 70.2063 71.9704 66.1388 71.9704 61.1388C71.9704 56.9645 74.7775 53.3707 78.8081 52.3521L80.4735 54.2937C76.9468 54.5823 74.1646 57.5388 74.1646 61.1384C74.1646 64.9285 77.2478 68.0125 81.0383 68.0125C84.828 68.0125 87.9116 64.9289 87.9116 61.1384C87.9116 57.5388 85.1294 54.5823 81.6031 54.2937L83.269 52.3508C87.2975 53.369 90.1054 56.9711 90.1054 61.1384C90.105 66.1388 86.0379 70.2063 81.0383 70.2063ZM87.069 41.9421C87.0897 42.7293 87.1567 43.4908 87.257 44.085C87.3688 44.7947 87.5282 45.268 87.5282 45.268C87.5282 45.268 87.6876 44.7947 87.7994 44.085C87.9 43.4904 87.9667 42.7285 87.9874 41.9409C88.7746 41.9181 89.536 41.8481 90.1302 41.7496C90.84 41.6386 91.3133 41.4829 91.3133 41.4829C91.3133 41.4829 90.84 41.3272 90.1302 41.2163C89.5356 41.1177 88.7737 41.0477 87.9861 41.0249C87.9634 40.2374 87.8938 39.4755 87.7948 38.8809C87.6839 38.1711 87.5282 37.6982 87.5282 37.6982C87.5282 37.6982 87.3725 38.1715 87.2615 38.8809C87.163 39.4751 87.093 40.2365 87.0702 41.0237C86.2826 41.0444 85.5207 41.1115 84.9261 41.2117C84.2164 41.3235 83.7431 41.4829 83.7431 41.4829C83.7431 41.4829 84.2164 41.6423 84.9261 41.7541C85.5199 41.8543 86.2818 41.9214 87.069 41.9421ZM73.2909 43.4403C73.322 43.7467 73.3721 44.0415 73.4536 44.2771C73.5654 44.6237 73.7249 44.8548 73.7249 44.8548C73.7249 44.8548 73.8839 44.6237 73.9961 44.2771C74.0777 44.0407 74.1278 43.745 74.1592 43.4378C74.4656 43.4047 74.7601 43.3529 74.9961 43.273C75.3427 43.162 75.5737 43.0063 75.5737 43.0063C75.5737 43.0063 75.3427 42.8506 74.9961 42.7396C74.7596 42.6593 74.464 42.6076 74.1572 42.5748C74.124 42.2676 74.0723 41.9719 73.9919 41.7359C73.881 41.3893 73.7253 41.1583 73.7253 41.1583C73.7253 41.1583 73.5696 41.3893 73.4586 41.7359C73.3783 41.9715 73.3269 42.2664 73.2938 42.5728C72.9866 42.6038 72.6909 42.6539 72.4545 42.7359C72.1079 42.8477 71.8768 43.0071 71.8768 43.0071C71.8768 43.0071 72.1079 43.1666 72.4545 43.2784C72.6901 43.3587 72.9845 43.4088 73.2909 43.4403Z" fill="#0D4689"/>
</g>
<path d="M132 18C127.58 18 124 21.58 124 26C124 30.42 127.58 34 132 34C136.42 34 140 30.42 140 26C140 21.58 136.42 18 132 18ZM131.385 30.66H130.045L126.805 26.12L128.146 24.87L130.715 27.27L135.856 21.339L137.196 22.279L131.385 30.66Z" fill="#0D4689"/>
<defs>
<filter id="filter0_d_961_1288" x="0" y="0" width="162" height="139" filterUnits="userSpaceOnUse" color-interpolation-filters="sRGB">
<feFlood flood-opacity="0" result="BackgroundImageFix"/>
<feColorMatrix in="SourceAlpha" type="matrix" values="0 0 0 0 0 0 0 0 0 0 0 0 0 0 0 0 0 0 127 0" result="hardAlpha"/>
<feOffset dy="4"/>
<feGaussianBlur stdDeviation="5"/>
<feComposite in2="hardAlpha" operator="out"/>
<feColorMatrix type="matrix" values="0 0 0 0 0.548333 0 0 0 0 0.746378 0 0 0 0 0.979167 0 0 0 0.27 0"/>
<feBlend mode="normal" in2="BackgroundImageFix" result="effect1_dropShadow_961_1288"/>
<feBlend mode="normal" in="SourceGraphic" in2="effect1_dropShadow_961_1288" result="shape"/>
</filter>
<clipPath id="clip0_961_1288">
<rect width="34.7826" height="40" fill="white" transform="translate(64 34)"/>
</clipPath>
</defs>
</svg>
