<svg width="162" height="139" viewBox="0 0 162 139" fill="none" xmlns="http://www.w3.org/2000/svg">
<g filter="url(#filter0_d_961_1295)">
<path d="M10 6H142C147.523 6 152 10.4772 152 16V115C152 120.523 147.523 125 142 125H10V6Z" fill="white"/>
<path d="M10.5 6.5H142C147.247 6.5 151.5 10.7533 151.5 16V115C151.5 120.247 147.247 124.5 142 124.5H10.5V6.5Z" stroke="#8CBEFA" stroke-opacity="0.72"/>
</g>
<path d="M64.656 83.592C64.04 83.592 63.4847 83.6993 62.99 83.914C62.5047 84.1193 62.094 84.418 61.758 84.81C61.422 85.1927 61.1653 85.6547 60.988 86.196C60.8107 86.728 60.722 87.3207 60.722 87.974C60.722 88.87 60.862 89.654 61.142 90.326C61.422 90.9887 61.842 91.502 62.402 91.866C62.9713 92.23 63.676 92.412 64.516 92.412C65.0013 92.412 65.4493 92.3747 65.86 92.3C66.2707 92.2253 66.6487 92.132 66.994 92.02V92.72C66.658 92.8507 66.28 92.9533 65.86 93.028C65.4493 93.1027 64.9687 93.14 64.418 93.14C63.4193 93.14 62.5793 92.9253 61.898 92.496C61.226 92.0667 60.7173 91.4647 60.372 90.69C60.036 89.9153 59.868 89.01 59.868 87.974C59.868 87.2367 59.9753 86.5553 60.19 85.93C60.4047 85.3047 60.7173 84.7633 61.128 84.306C61.5387 83.8487 62.038 83.494 62.626 83.242C63.2233 82.99 63.9047 82.864 64.67 82.864C65.146 82.864 65.6033 82.9107 66.042 83.004C66.49 83.0973 66.9053 83.2327 67.288 83.41L66.966 84.124C66.6113 83.9467 66.238 83.816 65.846 83.732C65.4633 83.6387 65.0667 83.592 64.656 83.592ZM72.2867 85.412C73.2387 85.412 73.9807 85.734 74.5127 86.378C75.054 87.022 75.3247 87.974 75.3247 89.234C75.3247 90.074 75.1987 90.788 74.9467 91.376C74.6947 91.9547 74.3353 92.3933 73.8687 92.692C73.4113 92.9907 72.8607 93.14 72.2167 93.14C71.778 93.14 71.3953 93.0747 71.0687 92.944C70.742 92.8133 70.4713 92.6407 70.2567 92.426C70.042 92.2113 69.874 91.9733 69.7527 91.712H69.6967C69.7153 91.9453 69.7293 92.202 69.7387 92.482C69.748 92.7527 69.7527 93.0047 69.7527 93.238V96.304H68.9547V85.552H69.6127L69.7107 86.952H69.7527C69.874 86.6813 70.0467 86.4293 70.2707 86.196C70.4947 85.9627 70.77 85.776 71.0967 85.636C71.4327 85.4867 71.8293 85.412 72.2867 85.412ZM72.1747 86.098C71.624 86.098 71.1713 86.2147 70.8167 86.448C70.462 86.6813 70.196 87.0267 70.0187 87.484C69.8413 87.932 69.7527 88.4873 69.7527 89.15V89.29C69.7527 89.99 69.8367 90.578 70.0047 91.054C70.182 91.5207 70.4433 91.8707 70.7887 92.104C71.1433 92.3373 71.5867 92.454 72.1187 92.454C72.6413 92.454 73.0753 92.328 73.4207 92.076C73.7753 91.8147 74.0413 91.446 74.2187 90.97C74.4053 90.4847 74.4987 89.906 74.4987 89.234C74.4987 88.2167 74.3073 87.442 73.9247 86.91C73.542 86.3687 72.9587 86.098 72.1747 86.098ZM78.1195 85.552V93H77.3355V85.552H78.1195ZM77.7275 82.794C77.9048 82.794 78.0402 82.85 78.1335 82.962C78.2268 83.0647 78.2735 83.2093 78.2735 83.396C78.2735 83.592 78.2268 83.746 78.1335 83.858C78.0402 83.9607 77.9048 84.012 77.7275 84.012C77.5595 84.012 77.4288 83.9607 77.3355 83.858C77.2422 83.746 77.1955 83.592 77.1955 83.396C77.1955 83.2093 77.2422 83.0647 77.3355 82.962C77.4288 82.85 77.5595 82.794 77.7275 82.794ZM80.1834 88.534C80.1834 87.5633 80.2628 86.7327 80.4214 86.042C80.5801 85.3513 80.8228 84.7867 81.1494 84.348C81.4854 83.9 81.9008 83.5687 82.3954 83.354C82.8994 83.074 83.4828 82.8593 84.1454 82.71C84.8174 82.5513 85.5641 82.4207 86.3854 82.318L86.5114 83.018C86.0914 83.0647 85.6901 83.1207 85.3074 83.186C84.9248 83.2513 84.5654 83.326 84.2294 83.41C83.9028 83.4847 83.6041 83.5687 83.3334 83.662C83.0721 83.7553 82.8434 83.8627 82.6474 83.984C82.4048 84.1053 82.1854 84.2687 81.9894 84.474C81.8028 84.6793 81.6394 84.9313 81.4994 85.23C81.3688 85.5287 81.2614 85.874 81.1774 86.266C81.0934 86.658 81.0421 87.0967 81.0234 87.582H81.0794C81.2474 87.302 81.4621 87.05 81.7234 86.826C81.9848 86.5927 82.2881 86.4107 82.6334 86.28C82.9881 86.14 83.3754 86.07 83.7954 86.07C84.4208 86.07 84.9481 86.2053 85.3774 86.476C85.8068 86.7373 86.1288 87.12 86.3434 87.624C86.5674 88.1187 86.6794 88.7253 86.6794 89.444C86.6794 90.2 86.5534 90.858 86.3014 91.418C86.0588 91.9687 85.6948 92.3933 85.2094 92.692C84.7334 92.9907 84.1454 93.14 83.4454 93.14C82.8854 93.14 82.4001 93.028 81.9894 92.804C81.5788 92.5707 81.2381 92.2487 80.9674 91.838C80.6968 91.418 80.4961 90.928 80.3654 90.368C80.2441 89.808 80.1834 89.1967 80.1834 88.534ZM83.5014 92.454C84.0334 92.454 84.4674 92.342 84.8034 92.118C85.1488 91.8847 85.4054 91.5487 85.5734 91.11C85.7508 90.662 85.8394 90.1253 85.8394 89.5C85.8394 88.604 85.6574 87.9227 85.2934 87.456C84.9388 86.9893 84.4021 86.756 83.6834 86.756C83.2634 86.756 82.8808 86.8353 82.5354 86.994C82.1994 87.1527 81.9008 87.3673 81.6394 87.638C81.3781 87.8993 81.1634 88.184 80.9954 88.492C80.9954 88.996 81.0328 89.486 81.1074 89.962C81.1821 90.4287 81.3081 90.8533 81.4854 91.236C81.6721 91.6093 81.9288 91.908 82.2554 92.132C82.5914 92.3467 83.0068 92.454 83.5014 92.454ZM93.9468 93H93.1488V86.238H90.6288C90.5355 87.414 90.4282 88.4313 90.3068 89.29C90.1855 90.1487 90.0268 90.858 89.8308 91.418C89.6442 91.978 89.4062 92.3933 89.1168 92.664C88.8368 92.9347 88.4962 93.07 88.0948 93.07C87.9735 93.07 87.8662 93.0653 87.7728 93.056C87.6795 93.0467 87.6002 93.0327 87.5348 93.014V92.37C87.5908 92.3887 87.6515 92.4027 87.7168 92.412C87.7822 92.4213 87.8662 92.426 87.9688 92.426C88.1928 92.426 88.3935 92.3373 88.5708 92.16C88.7575 91.9827 88.9208 91.7167 89.0608 91.362C89.2008 91.0073 89.3222 90.5593 89.4248 90.018C89.5368 89.4673 89.6302 88.8233 89.7048 88.086C89.7888 87.3393 89.8635 86.4947 89.9288 85.552H93.9468V93ZM102.638 89.276C102.638 89.8547 102.563 90.382 102.414 90.858C102.274 91.3247 102.059 91.7307 101.77 92.076C101.49 92.412 101.14 92.6733 100.72 92.86C100.3 93.0467 99.8191 93.14 99.2778 93.14C98.7644 93.14 98.3024 93.0513 97.8918 92.874C97.4904 92.6873 97.1451 92.426 96.8558 92.09C96.5664 91.7447 96.3471 91.334 96.1978 90.858C96.0484 90.382 95.9738 89.8547 95.9738 89.276C95.9738 88.464 96.1044 87.7733 96.3658 87.204C96.6364 86.6253 97.0238 86.182 97.5278 85.874C98.0411 85.566 98.6478 85.412 99.3478 85.412C100.057 85.412 100.654 85.5753 101.14 85.902C101.634 86.2193 102.008 86.6673 102.26 87.246C102.512 87.8247 102.638 88.5013 102.638 89.276ZM96.7998 89.276C96.7998 89.9107 96.8884 90.4707 97.0658 90.956C97.2431 91.432 97.5184 91.8007 97.8918 92.062C98.2651 92.3233 98.7318 92.454 99.2918 92.454C99.8704 92.454 100.346 92.3233 100.72 92.062C101.093 91.7913 101.368 91.418 101.546 90.942C101.723 90.4567 101.812 89.9013 101.812 89.276C101.812 88.6507 101.728 88.1 101.56 87.624C101.392 87.148 101.126 86.7747 100.762 86.504C100.398 86.2333 99.9218 86.098 99.3338 86.098C98.4844 86.098 97.8498 86.378 97.4298 86.938C97.0098 87.498 96.7998 88.2773 96.7998 89.276Z" fill="#0E0E0E"/>
<g clip-path="url(#clip0_961_1295)">
<path d="M90.5335 49.4667V45.6667C92.3335 45.3333 93.7335 43.8 93.7335 41.8667C93.7335 39.7333 92.0002 38 89.8669 38C87.7335 38 86.0002 39.7333 86.0002 41.8667C86.0002 43.8 87.4002 45.3333 89.2002 45.6667V49.4667C88.4002 50.8 83.2002 60.0667 83.2002 63.3333C83.2002 67 86.2002 70 89.8669 70C93.5335 70 96.5335 67 96.5335 63.3333C96.4669 60.0667 91.2669 50.8667 90.5335 49.4667ZM87.3335 41.8667C87.3335 40.4667 88.4669 39.3333 89.8669 39.3333C91.2669 39.3333 92.4002 40.4667 92.4002 41.8667C92.4002 43.2667 91.2669 44.4 89.8669 44.4C88.4669 44.4 87.3335 43.2667 87.3335 41.8667ZM89.8669 68.6667C86.9335 68.6667 84.5335 66.2667 84.5335 63.3333C84.5335 61.0667 87.9335 54.4 89.8669 51C91.7335 54.4 95.2002 61 95.2002 63.3333C95.1335 66.2667 92.8002 68.6667 89.8669 68.6667Z" fill="#0D4689"/>
<path d="M74.7992 45.6667C76.5992 45.3333 77.9992 43.7333 77.9992 41.8667C77.9992 39.7333 76.2658 38 74.1325 38C71.9992 38 70.2658 39.7333 70.2658 41.8667C70.2658 43.8 71.6658 45.3333 73.4658 45.6667V49.4667C72.6658 50.8 67.4658 60.0667 67.4658 63.3333C67.4658 67 70.4658 70 74.1325 70C77.7992 70 80.7992 67 80.7992 63.3333C80.7992 60.0667 75.5992 50.8 74.7992 49.4667V45.6667ZM71.5992 41.8667C71.5992 40.4667 72.7325 39.3333 74.1325 39.3333C75.5325 39.3333 76.6658 40.4667 76.6658 41.8667C76.6658 43.2667 75.5325 44.4 74.1325 44.4C72.7325 44.4 71.5992 43.2667 71.5992 41.8667ZM74.1325 68.6667C71.1992 68.6667 68.7992 66.2667 68.7992 63.3333C68.7992 61.0667 72.1992 54.4 74.1325 51C75.9992 54.4 79.4658 61 79.4658 63.3333C79.4658 66.2667 77.0658 68.6667 74.1325 68.6667Z" fill="#0D4689"/>
</g>
<path d="M132 18C127.58 18 124 21.58 124 26C124 30.42 127.58 34 132 34C136.42 34 140 30.42 140 26C140 21.58 136.42 18 132 18ZM131.385 30.66H130.045L126.805 26.12L128.146 24.87L130.715 27.27L135.856 21.339L137.196 22.279L131.385 30.66Z" fill="#0D4689"/>
<defs>
<filter id="filter0_d_961_1295" x="0" y="0" width="162" height="139" filterUnits="userSpaceOnUse" color-interpolation-filters="sRGB">
<feFlood flood-opacity="0" result="BackgroundImageFix"/>
<feColorMatrix in="SourceAlpha" type="matrix" values="0 0 0 0 0 0 0 0 0 0 0 0 0 0 0 0 0 0 127 0" result="hardAlpha"/>
<feOffset dy="4"/>
<feGaussianBlur stdDeviation="5"/>
<feComposite in2="hardAlpha" operator="out"/>
<feColorMatrix type="matrix" values="0 0 0 0 0.548333 0 0 0 0 0.746378 0 0 0 0 0.979167 0 0 0 0.27 0"/>
<feBlend mode="normal" in2="BackgroundImageFix" result="effect1_dropShadow_961_1295"/>
<feBlend mode="normal" in="SourceGraphic" in2="effect1_dropShadow_961_1295" result="shape"/>
</filter>
<clipPath id="clip0_961_1295">
<rect width="32" height="40" fill="white" transform="translate(66 34)"/>
</clipPath>
</defs>
</svg>
