<svg width="33" height="30" viewBox="0 0 33 30" fill="none" xmlns="http://www.w3.org/2000/svg">
<g clip-path="url(#clip0_597_3468)">
<path d="M24.7974 11.9467C25.825 10.1519 26.8582 8.35008 27.897 6.56228C28.0494 6.30287 28.2527 6.0014 28.4729 5.68591C29.2012 4.63426 30.1045 3.32321 29.89 2.1033C29.5286 0.0771208 26.9654 0.0350549 25.5878 0.021033L25.3225 0.014022C24.8257 0.00701098 24.3345 0 23.8376 0C22.8722 0 21.8729 0.021033 20.8679 0.0630989C19.5524 0.112176 18.5475 0.616967 17.7966 1.5985C17.1699 2.4258 16.5827 3.36527 16.0181 4.26969C15.6568 4.8516 15.2955 5.43351 14.9228 5.98738C13.9292 7.45969 12.9186 9.01612 11.8346 10.7478L11.5127 11.2596C10.1069 13.5032 8.65594 15.8238 7.43079 18.2636C7.013 19.0979 6.56133 19.9462 6.1266 20.7595C5.1781 22.5333 4.20136 24.3632 3.47869 26.3122C3.11736 27.2797 3.08348 28.065 3.36578 28.6469C3.7384 29.4181 4.65868 29.8458 6.17741 29.9509C6.60649 29.979 7.04123 29.993 7.47031 29.993C8.04619 29.993 8.62771 29.972 9.20359 29.9509C9.59315 29.9369 9.97707 29.9229 10.3666 29.9159C10.5021 29.9159 11.1401 29.9159 11.1401 29.9159C12.0265 29.9159 12.8903 29.8808 13.692 29.4952C15.4423 28.6469 16.4585 26.7118 17.4352 24.8469C17.7119 24.3211 17.9829 23.8023 18.2708 23.3045C19.9251 20.4581 21.5849 17.5485 23.194 14.7371L24.7974 11.9467ZM4.07151 26.7259C4.15055 26.5155 4.23524 26.3122 4.34251 26.0528C5.05389 24.3702 5.90641 22.7506 6.7307 21.1802C7.16543 20.3529 7.60016 19.5256 8.01231 18.6913C10.0561 14.6179 12.5008 10.8881 15.2616 6.77962C15.5326 6.38 15.8092 5.98738 16.0859 5.59477C16.4867 5.02688 16.9045 4.44496 17.2828 3.84202L17.5369 3.42837C18.2934 2.20846 18.9427 1.15681 20.3372 0.897406C20.7324 0.820285 21.1784 0.792241 21.7374 0.792241C22.0987 0.792241 22.4657 0.806263 22.827 0.820285C23.1827 0.834307 23.5328 0.848329 23.8715 0.848329L24.8313 0.841318C25.633 0.841318 26.4912 0.869362 27.3381 1.05165C27.4171 1.06567 27.5074 1.0867 27.6034 1.10072C27.9139 1.15681 28.2922 1.21991 28.5124 1.39519C28.8794 1.68264 29.0826 1.99813 29.1278 2.35569C29.2125 2.98668 28.789 3.65272 28.4503 4.18556C28.3713 4.31175 28.2979 4.43094 28.2301 4.54312C27.3494 6.05048 26.4742 7.55784 25.6048 9.07221C24.6337 10.7619 23.6626 12.4655 22.6915 14.1622L20.6251 17.7728C20.1057 18.6843 19.575 19.5817 19.0387 20.4861C17.9772 22.2879 16.8819 24.1458 15.8883 26.0458C14.4542 28.7871 12.6871 29.0325 10.3553 29.0816C9.97707 29.0886 9.5988 29.1026 9.22617 29.1166C8.64465 29.1376 8.06312 29.1587 7.4816 29.1587C7.17673 29.1587 6.8775 29.1517 6.57262 29.1376C6.51052 29.1376 6.44277 29.1306 6.36372 29.1306H5.88947C5.36441 29.1306 4.78853 29.0956 4.4893 28.8081C3.98117 28.3314 3.85697 27.3218 4.07151 26.7259Z" fill="white"/>
<path d="M4.76566 12.5078C7.4418 12.5078 9.58158 10.4395 9.97114 7.48791C10.2196 5.59495 10.3325 4.02449 9.38397 2.45403C8.51451 1.01677 7.43051 0.575082 6.10373 0.147412L6.08679 0.217522L6.01904 0.13339C5.82144 0.105347 5.62383 0.0913246 5.42623 0.0913246C2.82349 0.0843136 0.582089 2.38392 0.0908995 5.54587C-0.157518 7.1584 0.107837 8.82701 0.830506 10.117C1.51365 11.3369 2.55249 12.1502 3.7607 12.4026C4.08816 12.4727 4.42691 12.5078 4.76566 12.5078ZM1.25394 9.38088C0.638547 8.12591 0.508693 6.56246 0.886964 5.07613C1.53624 2.55919 3.32033 0.932643 5.44317 0.932643C5.61254 0.932643 5.78192 0.939654 5.94 0.960687C8.58226 1.82304 9.6832 3.5197 9.4122 6.31007C9.23718 8.1189 8.84197 9.92774 7.16515 10.9303C6.39167 11.393 5.54479 11.6384 4.7205 11.6384C4.43256 11.6384 4.13897 11.6104 3.85668 11.5473C2.7501 11.3159 1.82418 10.5447 1.25394 9.38088Z" fill="white"/>
<path d="M32.2377 19.0699C31.3682 17.6327 30.2842 17.191 28.9575 16.7633L28.9405 16.8264L28.8728 16.7423C28.6752 16.7142 28.4776 16.7002 28.28 16.7002C25.6829 16.7002 23.4415 18.9928 22.9503 22.1547C22.7019 23.7673 22.9672 25.4359 23.6899 26.7259C24.373 27.9528 25.4119 28.7661 26.6201 29.0185C26.9475 29.0886 27.2863 29.1237 27.625 29.1237C30.3012 29.1237 32.441 27.0624 32.8305 24.1038C33.0733 22.2108 33.1918 20.6334 32.2377 19.0699ZM32.2716 22.933C32.0966 24.7418 31.7013 26.5506 30.0245 27.5532C29.251 28.0159 28.4042 28.2613 27.5799 28.2613C27.2863 28.2613 26.9983 28.2333 26.7161 28.1702C25.6038 27.9318 24.6835 27.1606 24.1133 25.9968C23.4979 24.7418 23.3681 23.1713 23.7463 21.692C24.3956 19.1751 26.1853 17.5415 28.3025 17.5415C28.4719 17.5415 28.6356 17.5485 28.7994 17.5696C31.4416 18.4389 32.5426 20.1426 32.2716 22.933Z" fill="white"/>
<path d="M5.16545 7.53675C5.23885 7.53675 5.3066 7.52974 5.37999 7.5087C5.98974 7.35446 6.12524 6.41499 6.07443 5.82607C6.01233 5.16703 5.63406 4.72534 5.13722 4.72534C5.01301 4.72534 4.88316 4.75339 4.75895 4.80947C4.16613 5.03383 3.83303 5.73492 3.97982 6.44303C4.10403 7.05299 4.62909 7.53675 5.16545 7.53675ZM4.93962 5.61574C5.00737 5.58769 5.06947 5.56666 5.12593 5.56666C5.34047 5.56666 5.39693 5.79802 5.40257 5.99433C5.40822 6.10651 5.41951 6.66037 5.14851 6.68842C4.87186 6.68842 4.67426 6.41499 4.64039 6.15558C4.60651 5.90319 4.71943 5.69987 4.93962 5.61574Z" fill="white"/>
<path d="M28.0666 21.3696C27.9423 21.3696 27.8125 21.3977 27.6883 21.4538C27.1011 21.6851 26.7624 22.3862 26.9092 23.0943C27.0334 23.7043 27.5584 24.181 28.1004 24.181C28.1738 24.181 28.2416 24.174 28.315 24.153C28.9247 23.9987 29.0602 23.0593 29.0094 22.4704C28.9417 21.8113 28.569 21.3696 28.0666 21.3696ZM27.8746 22.26C27.9423 22.232 28.0044 22.2109 28.0609 22.2109C28.2754 22.2109 28.3319 22.4423 28.3376 22.6386C28.3432 22.7508 28.3488 23.2976 28.0778 23.3257C27.8012 23.3257 27.6036 23.0523 27.5697 22.7929C27.5415 22.5475 27.6544 22.3442 27.8746 22.26Z" fill="white"/>
<path d="M9.94898 28.4645H9.96592C12.5517 28.3313 14.5165 27.6652 15.7134 24.8468C15.7699 24.7066 15.7699 24.5664 15.7077 24.4402C15.64 24.307 15.5214 24.2158 15.3972 24.2158C15.2843 24.2158 15.1827 24.2929 15.1262 24.4261C14.0648 26.9361 12.4275 27.497 9.96027 27.6232C9.74008 27.6302 9.63281 27.8545 9.63281 28.0648C9.63846 28.2541 9.73444 28.4645 9.94898 28.4645Z" fill="white"/>
<path d="M16.0054 23.8584C16.107 23.8584 16.1917 23.8093 16.2538 23.7252C16.3046 23.6481 16.3385 23.5499 16.3385 23.4377C16.3385 23.2274 16.2256 23.0171 16.011 23.0171C15.9094 23.0171 15.8247 23.0662 15.7626 23.1503C15.7118 23.2274 15.6779 23.3256 15.6779 23.4377C15.6723 23.6481 15.7852 23.8584 16.0054 23.8584Z" fill="white"/>
</g>
<defs>
<clipPath id="clip0_597_3468">
<rect width="33" height="30" fill="white"/>
</clipPath>
</defs>
</svg>
