<svg width="32" height="32" viewBox="0 0 32 32" fill="none" xmlns="http://www.w3.org/2000/svg">
<circle cx="16" cy="16" r="16" fill="url(#paint0_diamond_372_10667)"/>
<path fill-rule="evenodd" clip-rule="evenodd" d="M16.8333 15.8333V21.6667C16.8333 21.8877 16.7455 22.0996 16.5893 22.2559C16.433 22.4122 16.221 22.5 16 22.5C15.779 22.5 15.567 22.4122 15.4107 22.2559C15.2545 22.0996 15.1667 21.8877 15.1667 21.6667V15.8333H9.33333C9.11232 15.8333 8.90036 15.7455 8.74408 15.5893C8.5878 15.433 8.5 15.221 8.5 15C8.5 14.779 8.5878 14.567 8.74408 14.4107C8.90036 14.2545 9.11232 14.1667 9.33333 14.1667H15.1667V8.33333C15.1667 8.11232 15.2545 7.90036 15.4107 7.74408C15.567 7.5878 15.779 7.5 16 7.5C16.221 7.5 16.433 7.5878 16.5893 7.74408C16.7455 7.90036 16.8333 8.11232 16.8333 8.33333V14.1667H22.6667C22.8877 14.1667 23.0996 14.2545 23.2559 14.4107C23.4122 14.567 23.5 14.779 23.5 15C23.5 15.221 23.4122 15.433 23.2559 15.5893C23.0996 15.7455 22.8877 15.8333 22.6667 15.8333H16.8333Z" fill="white"/>
<defs>
<radialGradient id="paint0_diamond_372_10667" cx="0" cy="0" r="1" gradientUnits="userSpaceOnUse" gradientTransform="translate(16 16) rotate(90) scale(16)">
<stop stop-color="#80B5F3"/>
<stop offset="0.857292" stop-color="#DDE9FE"/>
</radialGradient>
</defs>
</svg>
