<svg width="26" height="25" viewBox="0 0 26 25" fill="none" xmlns="http://www.w3.org/2000/svg">
<g clip-path="url(#clip0_703_2256)">
<path d="M19.223 20.413V2.59633C19.223 2.4412 19.0972 2.31543 18.9421 2.31543H6.33949C6.18437 2.31543 6.05859 2.4412 6.05859 2.59633V20.413C6.05859 20.5681 6.18437 20.6939 6.33949 20.6939H7.23788V22.0065C7.23788 22.5352 7.668 22.9653 8.19661 22.9653C8.72535 22.9653 9.15548 22.5352 9.15548 22.0065V20.6939H16.1261V22.0065C16.1261 22.5352 16.5562 22.9653 17.085 22.9653C17.6136 22.9653 18.0437 22.5352 18.0437 22.0065V20.6939H18.9421C19.0972 20.6939 19.223 20.5681 19.223 20.413ZM8.59368 22.0065C8.59368 22.2254 8.41551 22.4035 8.19661 22.4035C7.9777 22.4035 7.79967 22.2254 7.79967 22.0065V20.6939H8.59368V22.0065ZM17.4819 22.0065C17.4819 22.2254 17.3039 22.4035 17.085 22.4035C16.8661 22.4035 16.6879 22.2254 16.6879 22.0065V20.6939H17.4819V22.0065ZM18.6612 20.1321H6.62039V6.74014H18.6612V20.1321ZM18.6612 6.17834H6.62039V2.87723H18.6612V6.17834Z" fill="#0D4689"/>
<path d="M7.79652 14.6555H9.11241C9.26754 14.6555 9.39331 14.5297 9.39331 14.3746V10.3121C9.39331 10.157 9.26754 10.0312 9.11241 10.0312H7.79652C7.6414 10.0312 7.51562 10.157 7.51562 10.3121V14.3746C7.51562 14.5297 7.6414 14.6555 7.79652 14.6555ZM8.07742 10.593H8.83151V14.0937H8.07742V10.593Z" fill="#0D4689"/>
</g>
<defs>
<clipPath id="clip0_703_2256">
<rect width="25.2809" height="25" fill="white"/>
</clipPath>
</defs>
</svg>
