<svg width="64" height="70" viewBox="0 0 64 70" fill="none" xmlns="http://www.w3.org/2000/svg">
<g clip-path="url(#clip0_844_3024)">
<path d="M24.3652 13.8221C24.3652 17.102 24.3652 20.3819 24.3652 23.6609C24.3652 28.847 24.3652 34.0332 24.3652 39.2193C24.3652 40.4089 24.3652 41.5993 24.3652 42.7889C24.3652 43.5972 25.2823 43.6 25.2823 42.7889C25.2823 39.509 25.2823 36.2291 25.2823 32.9501C25.2823 27.764 25.2823 22.5778 25.2823 17.3917C25.2823 16.2021 25.2823 15.0117 25.2823 13.8221C25.2823 13.0138 24.3652 13.011 24.3652 13.8221Z" fill="#4A8FE0"/>
<path d="M28.9082 13.8221C28.9082 17.102 28.9082 20.3819 28.9082 23.6609C28.9082 28.847 28.9082 34.0332 28.9082 39.2193C28.9082 40.4089 28.9082 41.5993 28.9082 42.7889C28.9082 43.5972 29.8253 43.6 29.8253 42.7889C29.8253 39.509 29.8253 36.2291 29.8253 32.9501C29.8253 27.764 29.8253 22.5778 29.8253 17.3917C29.8253 16.2021 29.8253 15.0117 29.8253 13.8221C29.8253 13.0138 28.9082 13.011 28.9082 13.8221Z" fill="#4A8FE0"/>
<path d="M34.855 19.7316C32.5624 16.8143 28.6292 15.9256 25.136 16.8619C22.5204 17.5628 19.146 19.5279 20.006 22.7461C20.4935 24.5701 21.8289 26.4007 23.6378 27.0773C24.6128 27.4426 25.6656 27.5314 26.6866 27.6977C27.8348 27.8846 28.9643 28.1855 30.0591 28.5808C31.5835 29.1312 34.3095 30.1002 34.185 32.1363C34.0905 33.6828 32.4154 34.7799 31.1484 35.3555C29.113 36.2806 26.6332 36.4992 24.4678 35.9404C23.3767 35.6582 22.3782 35.1845 21.5631 34.3958C20.8164 33.6735 20.2717 32.7633 19.743 31.8784C19.5858 31.6149 19.262 31.6588 19.0945 31.8784C18.8942 32.1419 18.9345 32.5363 19.0945 32.8035C20.0546 34.4108 21.1401 35.9526 22.9032 36.745C24.8515 37.6196 27.117 37.7131 29.1898 37.3019C30.8218 36.9786 32.4576 36.2937 33.6638 35.1191C34.8981 33.9164 35.5475 32.0943 34.7699 30.4515C33.9052 28.6256 31.6874 27.7809 29.8972 27.1772C28.8033 26.8091 27.6766 26.5428 26.5359 26.3652C25.5206 26.2073 24.4781 26.1073 23.5339 25.6709C22.614 25.2448 21.9225 24.4328 21.4162 23.574C21.0475 22.9489 20.6844 22.1714 20.8248 21.4276C21.0718 20.1185 22.4867 19.2672 23.5994 18.7588C27.0899 17.1656 31.6996 17.4646 34.2075 20.6558C34.7034 21.2902 35.2209 20.1979 34.855 19.7316Z" fill="#4A8FE0"/>
<path d="M49.877 28.6331C49.8639 33.1577 48.4434 37.5869 45.7988 41.264C43.2217 44.8475 39.574 47.6069 35.4237 49.1198C31.0779 50.7037 26.2381 50.885 21.7865 49.6216C17.5306 48.4143 13.6657 45.925 10.8359 42.5245C7.9771 39.0886 6.17945 34.7976 5.84537 30.3338C5.50755 25.8158 6.57154 21.2529 8.94189 17.3833C11.2533 13.6091 14.6923 10.5685 18.7349 8.7547C22.9291 6.87367 27.7007 6.32982 32.2112 7.23997C36.6028 8.12675 40.6539 10.3545 43.7691 13.568C46.8563 16.7526 48.915 20.8744 49.6122 25.2495C49.7918 26.3699 49.8742 27.4987 49.877 28.6331C49.8779 28.8985 50.0174 29.2816 50.3355 29.2872C50.6528 29.2928 50.795 28.8863 50.7941 28.6331C50.78 23.8525 49.3183 19.1373 46.554 15.2266C43.8851 11.4506 40.0737 8.50333 35.7269 6.90637C31.2005 5.24306 26.181 5.06645 21.5432 6.38308C17.0692 7.65299 13.0594 10.3274 10.1098 13.911C7.09091 17.5786 5.30168 22.1425 4.93391 26.8679C4.56054 31.6663 5.7181 36.5263 8.19794 40.65C10.5683 44.5906 14.1402 47.777 18.3222 49.6954C22.7027 51.7054 27.6736 52.2427 32.3937 51.2989C36.9575 50.3869 41.2032 48.0228 44.4026 44.6504C47.6376 41.2397 49.804 36.8861 50.5171 32.2372C50.6995 31.0449 50.7903 29.8385 50.7941 28.6331C50.795 28.3677 50.6518 27.9846 50.3355 27.979C50.0174 27.9734 49.8779 28.3799 49.877 28.6331Z" fill="#4A8FE0"/>
<path d="M54.65 28.6339C54.6369 34.2583 52.9328 39.7977 49.7109 44.4185C46.5882 48.8973 42.1348 52.3986 37.0095 54.3095C31.7354 56.2756 25.8493 56.5027 20.4414 54.9338C15.186 53.4087 10.4696 50.2457 7.0362 45.9921C3.5429 41.6637 1.39995 36.3019 0.993814 30.7532C0.580196 25.1054 1.87345 19.3792 4.78375 14.5088C7.5724 9.8413 11.7329 6.02784 16.6785 3.74219C21.7786 1.38553 27.617 0.692173 33.1222 1.83687C38.5114 2.95726 43.443 5.76339 47.2124 9.76281C51.0061 13.7874 53.4934 18.9643 54.3318 24.4214C54.5471 25.8165 54.6472 27.2229 54.65 28.6339C54.6509 28.8993 54.7913 29.2824 55.1085 29.288C55.4258 29.2936 55.568 28.8871 55.5671 28.6339C55.554 22.7301 53.7919 16.8926 50.4296 12.026C47.218 7.37717 42.612 3.70949 37.3117 1.71913C31.8402 -0.335713 25.7463 -0.550635 20.1382 1.09025C14.7115 2.6788 9.88193 6.00261 6.35026 10.3982C2.6932 14.9499 0.538086 20.5771 0.0870359 26.3847C-0.373372 32.3184 1.0013 38.3343 4.00986 43.4719C6.86682 48.3497 11.1967 52.3379 16.3239 54.7356C21.6167 57.211 27.6497 57.8782 33.3665 56.6924C38.9026 55.543 44.0082 52.5958 47.8431 48.4562C51.7837 44.2026 54.3824 38.7997 55.2367 33.0659C55.4557 31.5998 55.5643 30.1168 55.5671 28.6339C55.568 28.3685 55.4258 27.9854 55.1085 27.9798C54.7904 27.9742 54.6509 28.3806 54.65 28.6339Z" fill="#4A8FE0"/>
<path d="M61.6747 68.674C58.2038 68.674 54.732 68.674 51.2612 68.674C46.7039 68.674 42.1476 68.674 37.5903 68.674C37.2721 68.674 36.9399 68.7011 36.6217 68.6694C36.2119 68.6282 35.8001 68.389 35.6233 68.0068C35.5185 67.7798 35.5409 67.5396 35.5409 67.2967C35.5409 66.8117 35.4043 66.0866 35.6485 65.6418C35.992 65.0166 36.6564 65.0306 37.2609 65.0306C37.9159 65.0306 38.5701 65.0306 39.2251 65.0306C44.2531 65.0306 49.282 65.0306 54.31 65.0306C56.3369 65.0306 58.3638 65.0306 60.3898 65.0306C60.8016 65.0306 61.2161 65.0204 61.6279 65.0306C62.122 65.0428 62.6357 65.2652 62.8275 65.7548C63.0091 66.2183 62.8846 66.8883 62.8846 67.3733C62.8856 68.1143 62.4738 68.6432 61.6747 68.674C61.057 68.6983 61.0617 70.0056 61.6747 69.9822C62.7545 69.9402 63.5827 69.1422 63.7661 68.0919C63.8691 67.5004 63.8026 66.8584 63.8026 66.2613C63.8026 64.926 63.0203 63.7364 61.5857 63.7215C60.1259 63.7065 58.6652 63.7215 57.2053 63.7215C51.8049 63.7215 46.4035 63.7215 41.0031 63.7215C39.606 63.7215 38.2051 63.6879 36.808 63.7215C36.2783 63.7346 35.7823 63.8953 35.3865 64.2579C34.7305 64.8587 34.6248 65.6539 34.6248 66.4902C34.6248 67.1425 34.5471 67.8676 34.7651 68.4937C35.0665 69.359 35.8329 69.9514 36.7546 69.9832C37.9571 70.0243 39.168 69.9832 40.3705 69.9832C43.0076 69.9832 45.6437 69.9832 48.2807 69.9832C52.6668 69.9832 57.0519 69.9832 61.4379 69.9832C61.5174 69.9832 61.596 69.9832 61.6756 69.9832C62.2904 69.9822 62.2923 68.674 61.6747 68.674Z" fill="#4A8FE0"/>
<path d="M61.6753 29.5209H36.7534C35.8354 29.5209 35.084 28.7705 35.084 27.8539V26.2354C35.084 25.3187 35.8354 24.5684 36.7534 24.5684H61.6753C62.5934 24.5684 63.3448 25.3187 63.3448 26.2354V27.8539C63.3448 28.7705 62.5943 29.5209 61.6753 29.5209Z" fill="white"/>
<path d="M61.6747 28.8669C58.2038 28.8669 54.732 28.8669 51.2612 28.8669C46.7039 28.8669 42.1476 28.8669 37.5903 28.8669C37.2721 28.8669 36.9399 28.894 36.6217 28.8622C36.2119 28.8211 35.8001 28.5819 35.6233 28.1997C35.5185 27.9726 35.5409 27.7325 35.5409 27.4895C35.5409 27.0046 35.4043 26.2794 35.6485 25.8346C35.992 25.2095 36.6564 25.2235 37.2609 25.2235C37.9159 25.2235 38.5701 25.2235 39.2251 25.2235C44.2531 25.2235 49.282 25.2235 54.31 25.2235C56.3369 25.2235 58.3638 25.2235 60.3898 25.2235C60.8016 25.2235 61.2161 25.2132 61.6279 25.2235C62.122 25.2357 62.6357 25.4581 62.8275 25.9477C63.0091 26.4112 62.8846 27.0812 62.8846 27.5662C62.8856 28.3072 62.4738 28.8361 61.6747 28.8669C61.057 28.8912 61.0617 30.1985 61.6747 30.1751C62.7545 30.1331 63.5827 29.3351 63.7661 28.2848C63.8691 27.6933 63.8026 27.0513 63.8026 26.4542C63.8026 25.1189 63.0203 23.9293 61.5857 23.9144C60.1259 23.8994 58.6652 23.9144 57.2053 23.9144C51.8049 23.9144 46.4035 23.9144 41.0031 23.9144C39.606 23.9144 38.2051 23.8807 36.808 23.9144C36.2783 23.9274 35.7823 24.0882 35.3865 24.4507C34.7305 25.0516 34.6248 25.8468 34.6248 26.6831C34.6248 27.3354 34.5471 28.0605 34.7651 28.6866C35.0665 29.5519 35.8329 30.1443 36.7546 30.1761C37.9571 30.2172 39.168 30.1761 40.3705 30.1761C43.0076 30.1761 45.6437 30.1761 48.2807 30.1761C52.6668 30.1761 57.0519 30.1761 61.4379 30.1761C61.5174 30.1761 61.596 30.1761 61.6756 30.1761C62.2904 30.1751 62.2923 28.8669 61.6747 28.8669Z" fill="#4A8FE0"/>
<path d="M60.6305 30.1752C60.6539 32.8337 60.5313 36.1117 59.9783 38.7197C59.6143 40.4391 59.0771 43.3228 57.5293 44.3768C56.9828 44.7487 56.3165 44.8889 55.683 45.0805C54.9297 45.3085 54.2017 45.6187 53.5157 46.0046C53.0319 46.2775 52.5322 46.6382 52.4031 47.1774C52.2019 48.0146 52.9964 48.7668 53.7927 49.0967C56.0021 50.0096 57.5331 50.9889 58.6233 53.2381C59.3906 54.8192 59.764 56.5573 60.1308 58.2748C60.5491 60.2306 60.9665 62.2611 60.5192 64.2104H38.1538C37.7056 62.2611 38.1239 59.6699 38.5422 57.7141C38.909 55.9957 39.2833 54.2586 40.0497 52.6775C41.1409 50.4283 42.6718 49.4499 44.8803 48.536C45.6766 48.2071 46.4711 47.4539 46.2699 46.6167C46.1408 46.0775 45.6411 45.7168 45.1573 45.444C44.4723 45.058 43.7433 44.7469 42.99 44.5198C42.3565 44.3282 41.6902 44.189 41.1437 43.8162C39.5959 42.7621 39.0597 39.8784 38.6947 38.159C38.1417 35.5501 38.0509 32.872 38.0743 30.2135" fill="white"/>
<path d="M60.1721 30.175C60.1936 33.0242 60.0925 35.8994 59.5048 38.6953C59.2784 39.7727 59.0557 40.8595 58.6458 41.8855C58.2069 42.9844 57.6052 43.8104 56.4439 44.1889C55.131 44.6178 53.5598 44.9607 52.5463 45.9746C51.5347 46.9866 51.8501 48.5163 52.9506 49.319C53.4503 49.6834 54.0483 49.874 54.6013 50.1375C55.1085 50.3796 55.6026 50.6477 56.0602 50.9757C57.0231 51.6654 57.7559 52.5774 58.264 53.6436C59.0126 55.2153 59.3663 56.9281 59.7257 58.6204C60.1037 60.4005 60.4696 62.2246 60.0775 64.0355C60.2245 63.8757 60.3723 63.715 60.5192 63.5552C58.002 63.5552 55.4847 63.5552 52.9674 63.5552C48.9529 63.5552 44.9393 63.5552 40.9248 63.5552C40.0002 63.5552 39.0766 63.5552 38.152 63.5552C38.299 63.715 38.4468 63.8757 38.5937 64.0355C38.3018 62.6974 38.4075 61.3004 38.604 59.9557C38.8155 58.5083 39.1271 57.0608 39.4977 55.6461C39.8524 54.2939 40.3343 52.9268 41.1802 51.7971C41.8578 50.8926 42.7748 50.2254 43.778 49.7189C44.8523 49.1769 46.1848 48.8424 46.635 47.5828C47.1571 46.1222 45.9996 45.1616 44.8317 44.5739C44.1383 44.2253 43.414 43.974 42.6691 43.759C42.0627 43.5843 41.461 43.3955 41.0015 42.9423C40.2491 42.2022 39.8851 41.0744 39.6165 40.082C38.7406 36.8498 38.5067 33.5484 38.532 30.2115C38.5338 29.9461 38.3888 29.563 38.0734 29.5574C37.7543 29.5518 37.6168 29.9582 37.6149 30.2115C37.5906 33.3194 37.8011 36.3704 38.4824 39.4083C38.7304 40.5165 39.0214 41.6481 39.5417 42.6639C40.1032 43.7581 40.863 44.5337 42.0571 44.9112C42.7851 45.1411 43.5104 45.3364 44.2075 45.6531C44.6586 45.8578 45.7141 46.2456 45.833 46.8137C45.9415 47.3295 45.0553 47.7753 44.6923 47.9304C44.127 48.1715 43.5665 48.4219 43.0322 48.7265C42.043 49.29 41.1709 50.002 40.4934 50.9234C39.6633 52.0522 39.1589 53.3885 38.7715 54.7238C38.3102 56.3151 37.9583 57.9672 37.7197 59.6072C37.4904 61.1798 37.3688 62.817 37.7094 64.3831C37.7553 64.5952 37.8994 64.8634 38.1511 64.8634C40.6684 64.8634 43.1856 64.8634 45.7029 64.8634C49.7174 64.8634 53.731 64.8634 57.7456 64.8634C58.6701 64.8634 59.5937 64.8634 60.5183 64.8634C60.771 64.8634 60.9141 64.5952 60.96 64.3831C61.3044 62.7918 61.1621 61.1658 60.8711 59.5782C60.5875 58.0298 60.2581 56.4731 59.8034 54.9658C59.4038 53.6436 58.8573 52.3176 57.9823 51.2336C57.2655 50.345 56.3671 49.6703 55.3621 49.1368C54.8203 48.8489 52.1907 48.0182 53.0095 47.1062C53.4662 46.5979 54.2307 46.3007 54.8493 46.0484C55.5427 45.7653 56.2773 45.6186 56.9735 45.3495C59.2045 44.4898 59.8137 41.7117 60.2619 39.6288C60.9319 36.5171 61.1097 33.3512 61.0854 30.175C61.0835 29.9097 60.945 29.5265 60.6268 29.5209C60.3143 29.5153 60.1702 29.9218 60.1721 30.175Z" fill="#4A8FE0"/>
<g clip-path="url(#clip1_844_3024)">
<path d="M55.2603 53.9856C55.9715 54.9533 56.5744 55.9701 57.0591 57.0342C57.2812 57.5222 57.4771 58.0176 57.6478 58.5204C57.7791 58.9066 58.1073 59.4409 58.0614 59.8493C58.0307 60.1271 58.0679 60.529 58.4356 60.6466C58.7649 60.7522 59.0669 60.4503 59.0954 60.1938C59.1632 59.5854 59.0057 59.0557 58.7912 58.4788C58.5691 57.8815 58.3754 57.2786 58.1216 56.6887C57.5767 55.4219 56.86 54.2125 56.0186 53.0689C55.8293 52.8114 55.4583 52.8485 55.2603 53.0689C55.0294 53.3263 55.0688 53.7245 55.2603 53.9856Z" fill="#4A8FE0"/>
<path d="M54.606 57.2226C54.9026 57.6309 55.1553 58.0569 55.3588 58.5042C55.5098 58.8348 55.7735 59.2932 55.7549 59.6497C55.7418 59.9127 55.9289 60.2924 56.2911 60.2979C56.6718 60.3035 56.8152 59.9007 56.8272 59.6497C56.8546 59.1024 56.5679 58.5079 56.3512 58.0004C56.0974 57.4059 55.7549 56.8429 55.3643 56.3049C55.1761 56.0465 54.8041 56.0854 54.606 56.3049C54.3741 56.5632 54.4156 56.9596 54.606 57.2226Z" fill="#4A8FE0"/>
</g>
</g>
<defs>
<clipPath id="clip0_844_3024">
<rect width="63.8235" height="70" fill="white"/>
</clipPath>
<clipPath id="clip1_844_3024">
<rect width="4.66667" height="7.77778" fill="white" transform="translate(54.4453 52.8889)"/>
</clipPath>
</defs>
</svg>
