<svg width="23" height="23" viewBox="0 0 23 23" fill="none" xmlns="http://www.w3.org/2000/svg">
<path d="M10.9535 3.69528V1.96697C10.9535 1.43793 10.5965 1.0541 10.105 1.0541C9.98588 1.0541 9.86382 1.07726 9.7425 1.12248L8.62963 1.53976C8.28588 1.24234 7.47522 0.735352 5.94397 0.735352C5.66529 0.735352 5.37044 0.752263 5.06787 0.785352C1.12375 1.21918 0.739559 4.61623 0.73625 4.65043C0.721912 4.79197 0.790662 4.92873 0.912721 5.00226C1.03441 5.07506 1.18772 5.07175 1.3061 4.99307C1.32007 4.98388 2.68662 4.08094 3.80353 4.08094C4.29912 4.08094 4.97338 4.23425 5.12154 5.54675V14.6986C4.89544 14.824 4.74029 15.0629 4.74029 15.3401V22.0589C4.74029 22.4644 5.0686 22.7942 5.47154 22.7942H7.03074C7.43404 22.7942 7.76199 22.4644 7.76199 22.0589V15.3398C7.76199 15.0626 7.60684 14.8236 7.38074 14.6982V5.54932C7.40904 5.37395 7.64066 4.12322 8.47632 4.06476L9.7425 4.5394C9.86382 4.58498 9.98588 4.60815 10.105 4.60815C10.3473 4.60815 10.5664 4.51256 10.723 4.33976C10.8741 4.17248 10.9535 3.94969 10.9535 3.69528ZM6.64581 14.6045H5.85684V5.88976H6.64581V14.6045ZM7.02596 22.0589H5.47559L5.47154 15.3398H5.48882H7.01309H7.02669L7.02596 22.0589ZM10.2182 3.69528C10.2182 3.76292 10.2032 3.81807 10.1774 3.84712C10.1708 3.8541 10.1543 3.87285 10.1054 3.87285C10.0749 3.87285 10.0388 3.86513 10.0006 3.85079L8.6664 3.35079C8.62522 3.33535 8.58147 3.32763 8.53735 3.32763C7.30978 3.32763 6.85868 4.5541 6.71162 5.15447H5.80574C5.50904 3.58976 4.44029 3.34528 3.80316 3.34528C3.05684 3.34528 2.25794 3.65484 1.68699 3.93572C2.03846 3.06734 2.93074 1.76035 5.14802 1.51623C5.42412 1.48609 5.69176 1.47065 5.94397 1.47065C7.65941 1.47065 8.23919 2.18204 8.2414 2.18462C8.33882 2.31697 8.51235 2.36881 8.66677 2.31145L10.001 1.81109C10.0388 1.79675 10.0749 1.7894 10.1054 1.7894C10.1333 1.7894 10.2186 1.7894 10.2186 1.96697V3.69528H10.2182Z" fill="#0D4689"/>
<path d="M14.2111 13.0206H13.1089V1.103C13.1089 0.900057 12.9442 0.735352 12.7412 0.735352C12.5383 0.735352 12.3736 0.900057 12.3736 1.103V13.0206H11.271C10.667 13.0206 10.1758 13.5155 10.1758 14.1236V14.2368C10.1758 14.8309 10.6449 15.317 11.2298 15.339V21.3236C11.2298 22.1346 11.8842 22.7942 12.6886 22.7942H12.7931C13.5975 22.7942 14.2519 22.1346 14.2519 21.3236V15.339C14.8368 15.317 15.3059 14.8309 15.3059 14.2368V14.1236C15.3063 13.5155 14.8151 13.0206 14.2111 13.0206ZM14.571 14.2368C14.571 14.4398 14.4096 14.6045 14.2111 14.6045H13.8842C13.6813 14.6045 13.5166 14.7688 13.5166 14.9721V21.3236C13.5166 21.7291 13.192 22.0589 12.7931 22.0589H12.6886C12.2898 22.0589 11.9651 21.7291 11.9651 21.3236V14.9721C11.9651 14.7688 11.8004 14.6045 11.5975 14.6045H11.2706C11.0721 14.6045 10.9107 14.4398 10.9107 14.2368V14.1236C10.9107 13.9206 11.0721 13.7559 11.2706 13.7559H14.2107C14.4092 13.7559 14.5706 13.9206 14.5706 14.1236V14.2368H14.571Z" fill="#0D4689"/>
<path d="M19.9125 0.74776C19.8019 0.718349 19.6842 0.741878 19.5938 0.811363C19.5033 0.880849 19.45 0.988569 19.45 1.10291V3.97791H18.0287V1.22791C18.0287 1.10622 17.9688 0.992981 17.8684 0.924231C17.768 0.855481 17.6405 0.840775 17.5272 0.88526C16.0261 1.47129 15.0566 2.89997 15.0566 4.5257C15.0566 6.0996 15.9927 7.51247 17.4122 8.12056V21.3235C17.4122 22.1345 18.0666 22.7941 18.871 22.7941H18.9754C19.7798 22.7941 20.4342 22.1345 20.4342 21.3235V8.12092C21.8552 7.51247 22.793 6.0996 22.793 4.5257C22.793 2.75364 21.6085 1.19997 19.9125 0.74776ZM19.9449 7.52239C19.7974 7.57386 19.6986 7.7132 19.6986 7.86945V21.3235C19.6986 21.729 19.3739 22.0588 18.975 22.0588H18.8706C18.4717 22.0588 18.1471 21.729 18.1471 21.3235V7.86945C18.1471 7.7132 18.0482 7.57386 17.9008 7.52239C16.6394 7.08122 15.7916 5.87681 15.7916 4.5257C15.7916 3.39703 16.3662 2.38526 17.293 1.81872V4.34555C17.293 4.5485 17.4577 4.7132 17.6607 4.7132H19.8173C20.0202 4.7132 20.1849 4.5485 20.1849 4.34555V1.62166C21.3081 2.12092 22.0577 3.25401 22.0577 4.5257C22.0577 5.87644 21.2085 7.08085 19.9449 7.52239Z" fill="#0D4689"/>
</svg>
