<svg width="22" height="25" viewBox="0 0 22 25" fill="none" xmlns="http://www.w3.org/2000/svg">
<g clip-path="url(#clip0_703_2322)">
<path d="M12.3858 11.0701L14.6303 8.45283L10.649 5.3242L6.66681 8.45283L8.91137 11.0698C6.30087 11.8351 4.50195 14.2114 4.50195 16.9619C4.50195 20.3511 7.2592 23.1086 10.649 23.1086C14.0379 23.1086 16.7954 20.3514 16.7954 16.9619C16.7952 14.216 14.9947 11.8353 12.3858 11.0701ZM11.4481 11.4267L12.3296 9.05376C12.8682 9.00614 13.3037 8.94196 13.6306 8.88166L11.4481 11.4267ZM9.49367 9.09232C9.84486 9.11277 10.2292 9.12571 10.649 9.12571C11.0687 9.12571 11.4528 9.11277 11.8037 9.09232L10.649 12.2013L9.49367 9.09232ZM14.4649 16.9619C14.4649 19.0664 12.7527 20.7787 10.6487 20.7787C8.54414 20.7787 6.83192 19.0664 6.83192 16.9619C6.83192 14.8576 8.54414 13.1456 10.6487 13.1456C12.753 13.1456 14.4649 14.8576 14.4649 16.9619ZM12.8601 7.67203L13.747 8.36924C13.4621 8.42747 13.0511 8.49786 12.5188 8.55324L12.8601 7.67203ZM12.4662 7.36225L12.1803 8.1006L11.3588 6.49165L12.4662 7.36225ZM11.8995 8.60526C11.5242 8.63011 11.1081 8.64615 10.6487 8.64615C10.1891 8.64615 9.77291 8.63011 9.3974 8.60526L10.6487 6.15599L11.8995 8.60526ZM9.9388 6.49191L9.11712 8.1006L8.8314 7.36225L9.9388 6.49191ZM8.43725 7.67177L8.77835 8.55298C8.246 8.4976 7.83477 8.42721 7.55009 8.36898L8.43725 7.67177ZM7.66681 8.88166C7.99367 8.9417 8.42923 9.00614 8.96779 9.05376L9.84926 11.4264L7.66681 8.88166ZM10.649 22.6291C7.52395 22.6291 4.98151 20.0869 4.98151 16.9619C4.98151 14.3529 6.73591 12.1068 9.25506 11.4702L10.2959 12.6837C8.09176 12.8641 6.35288 14.7119 6.35288 16.9616C6.35288 19.3304 8.2799 21.258 10.649 21.258C13.0175 21.258 14.9448 19.3307 14.9448 16.9616C14.9448 14.7119 13.2059 12.8641 11.002 12.6837L12.0431 11.4694C14.561 12.1058 16.3159 14.3571 16.3159 16.9616C16.3156 20.0869 13.7737 22.6291 10.649 22.6291ZM14.4181 4.96396C14.431 5.45593 14.473 5.93187 14.5356 6.30324C14.6055 6.74682 14.7051 7.04263 14.7051 7.04263C14.7051 7.04263 14.8047 6.74682 14.8746 6.30324C14.9375 5.93161 14.9792 5.45542 14.9921 4.96318C15.4841 4.94895 15.96 4.90521 16.3314 4.84361C16.775 4.77426 17.0708 4.67695 17.0708 4.67695C17.0708 4.67695 16.775 4.57964 16.3314 4.51028C15.9598 4.44869 15.4836 4.40495 14.9913 4.39072C14.9771 3.89848 14.9336 3.42229 14.8718 3.05065C14.8024 2.60707 14.7051 2.31152 14.7051 2.31152C14.7051 2.31152 14.6078 2.60733 14.5384 3.05065C14.4768 3.42203 14.4331 3.89796 14.4189 4.38994C13.9266 4.40288 13.4505 4.4448 13.0788 4.50743C12.6352 4.57731 12.3394 4.67695 12.3394 4.67695C12.3394 4.67695 12.6352 4.77659 13.0788 4.84646C13.4499 4.90909 13.9261 4.95102 14.4181 4.96396ZM5.80682 5.90029C5.82623 6.0918 5.85754 6.27607 5.90853 6.42332C5.9784 6.63994 6.07804 6.78435 6.07804 6.78435C6.07804 6.78435 6.17742 6.63994 6.24755 6.42332C6.29854 6.27555 6.32985 6.09077 6.34952 5.89874C6.54103 5.87803 6.72504 5.84569 6.87255 5.79574C7.08917 5.72638 7.23358 5.62907 7.23358 5.62907C7.23358 5.62907 7.08917 5.53176 6.87255 5.4624C6.72478 5.4122 6.54 5.37985 6.34823 5.3594C6.32752 5.16737 6.29517 4.98259 6.24496 4.83507C6.17561 4.61846 6.0783 4.47405 6.0783 4.47405C6.0783 4.47405 5.98099 4.61846 5.91163 4.83507C5.86142 4.98233 5.82933 5.1666 5.80863 5.35811C5.6166 5.37752 5.43182 5.40883 5.28404 5.46007C5.06743 5.52995 4.92302 5.62959 4.92302 5.62959C4.92302 5.62959 5.06743 5.72923 5.28404 5.7991C5.4313 5.84931 5.61531 5.88062 5.80682 5.90029Z" fill="#0D4689"/>
</g>
<defs>
<clipPath id="clip0_703_2322">
<rect width="21.7391" height="25" fill="white"/>
</clipPath>
</defs>
</svg>
