<svg width="40" height="34" viewBox="0 0 40 34" fill="none" xmlns="http://www.w3.org/2000/svg">
<path d="M18.2252 23.5709C18.1421 23.5709 18.0627 23.538 18.004 23.4793L11.9051 17.3599H11.9049C11.8446 17.3015 11.8103 17.221 11.8096 17.1371C11.8089 17.0528 11.8419 16.972 11.9011 16.9126C11.9605 16.8531 12.0411 16.8199 12.1248 16.8208C12.2087 16.8215 12.2886 16.856 12.3469 16.9165L18.4457 23.0359C18.5348 23.1257 18.5616 23.2603 18.5133 23.3772C18.4649 23.4941 18.3513 23.5707 18.2252 23.5709V23.5709Z" fill="white"/>
<path d="M17.0294 24.7713C16.9466 24.7717 16.8671 24.7386 16.8089 24.6797L10.71 18.5602H10.7097C10.5914 18.4371 10.593 18.2415 10.7135 18.1206C10.8341 17.9996 11.0289 17.9981 11.1517 18.1168L17.2477 24.2333C17.3388 24.3223 17.3669 24.458 17.319 24.5762C17.271 24.6945 17.1562 24.7715 17.029 24.7713L17.0294 24.7713Z" fill="white"/>
<path d="M24.4357 15.9923H14.8105C14.638 15.9923 14.498 15.8519 14.498 15.6788C14.498 15.5057 14.638 15.3652 14.8105 15.3652H24.4357C24.6082 15.3652 24.7482 15.5057 24.7482 15.6788C24.7482 15.8519 24.6082 15.9923 24.4357 15.9923Z" fill="white"/>
<path d="M19.6205 20.9765C18.9658 20.9765 18.3484 20.6712 17.95 20.1501C17.5513 19.6291 17.417 18.9516 17.5864 18.3171C17.7556 17.6829 18.2096 17.1634 18.8143 16.9119C19.419 16.6604 20.106 16.7056 20.6727 17.034C21.2397 17.3623 21.6223 17.9366 21.7078 18.5879C21.7932 19.2389 21.572 19.893 21.1093 20.3574C20.7153 20.755 20.1792 20.9778 19.6204 20.9765L19.6205 20.9765ZM19.6205 17.3782C19.1261 17.378 18.6641 17.6257 18.3893 18.0383C18.1145 18.4508 18.0631 18.9738 18.2524 19.4322C18.4417 19.8907 18.8466 20.224 19.3317 20.3209C19.8167 20.4177 20.3179 20.2652 20.6674 19.9142C20.9451 19.6356 21.1011 19.2578 21.1011 18.8638C21.1011 18.4698 20.9451 18.092 20.6674 17.8134C20.3897 17.5348 20.0132 17.3782 19.6205 17.3782L19.6205 17.3782Z" fill="white"/>
<path d="M19.62 14.7691C18.9656 14.7689 18.3486 14.4634 17.9504 13.9425C17.5522 13.4213 17.418 12.744 17.5874 12.11C17.7571 11.4757 18.2108 10.9568 18.8155 10.7055C19.4202 10.4544 20.1069 10.4996 20.6736 10.8282C21.2401 11.1565 21.6225 11.7308 21.7078 12.3819C21.793 13.0328 21.5716 13.6867 21.1089 14.1508C20.7149 14.5481 20.1788 14.771 19.62 14.7692L19.62 14.7691ZM19.62 11.1709C19.1256 11.1706 18.6636 11.4184 18.3888 11.8309C18.114 12.2435 18.0627 12.7664 18.2519 13.2249C18.4412 13.6833 18.8461 14.0166 19.3312 14.1136C19.8162 14.2103 20.3174 14.0578 20.6669 13.7068C20.9446 13.4282 21.1006 13.0504 21.1006 12.6565C21.1006 12.2625 20.9446 11.8847 20.6669 11.6061C20.3892 11.3275 20.0127 11.1709 19.6201 11.1709L19.62 11.1709Z" fill="white"/>
<path d="M25.1481 31.4184C24.8657 31.4184 24.5863 31.3616 24.3262 31.2509L18.4239 28.7544V28.7546C18.2648 28.6874 18.19 28.5033 18.257 28.3438C18.3239 28.1841 18.5072 28.1091 18.6663 28.1763L24.5686 30.6735C24.9436 30.8314 25.3662 30.8314 25.7412 30.6735C26.1198 30.5195 26.4218 30.2211 26.5811 29.8437L33.5731 13.2009C33.912 12.3958 33.7843 11.6996 33.0044 10.0986L30.7631 5.89516C30.7196 5.82171 30.7077 5.73346 30.7305 5.65104C30.7533 5.56862 30.8086 5.49919 30.8838 5.45865C30.9588 5.41834 31.047 5.41027 31.1283 5.4367C31.2093 5.46313 31.276 5.52159 31.3131 5.59863L33.5575 9.80786L33.5631 9.81794C34.3305 11.3934 34.6137 12.3376 34.1488 13.4451L27.1568 30.0845C26.988 30.4791 26.7079 30.8155 26.3509 31.0525C25.994 31.2896 25.576 31.4166 25.148 31.4184L25.1481 31.4184Z" fill="white"/>
<path d="M16.879 29.5048C16.2977 29.5089 15.7388 29.2793 15.3272 28.8672L6.22261 19.7319C5.37393 18.8822 5.38959 17.4851 6.25342 16.619L19.29 3.53735C20.1132 2.71092 20.8375 2.39288 22.9525 2.68942L27.9619 3.33221C28.0768 3.34408 29.6038 3.52415 30.6538 4.57771C31.6427 5.56921 31.8076 7.17391 31.8145 7.24157L32.3246 12.1017V12.1135C32.4496 13.9026 32.3527 14.9073 31.4877 15.7758L18.4505 28.8569C18.0365 29.2728 17.4742 29.506 16.888 29.5047L16.879 29.5048ZM21.624 3.20905C20.5691 3.20905 20.1866 3.52261 19.7316 3.98107L6.69507 17.0616C6.07519 17.6849 6.06136 18.6833 6.66516 19.2885L15.7692 28.4232C16.3736 29.0297 17.399 29.0252 18.0091 28.4131L31.0457 15.3326C31.6787 14.6974 31.8262 13.9857 31.7019 12.1619L31.1925 7.30425C31.1925 7.2879 31.0401 5.85183 30.212 5.02092C29.3044 4.11026 27.9088 3.95482 27.8945 3.95482H27.8865L22.8693 3.31095C22.457 3.24846 22.0407 3.21419 21.6237 3.20882L21.624 3.20905Z" fill="white"/>
<path d="M25.7328 11.6123C25.0138 11.6123 24.3357 11.277 23.898 10.7048C23.4602 10.1325 23.3127 9.38853 23.4986 8.69179C23.6846 7.99505 24.183 7.42456 24.8473 7.14844C25.5114 6.87229 26.2658 6.92179 26.8884 7.28237C27.5111 7.64295 27.9313 8.27364 28.0253 8.98878C28.1192 9.70415 27.8762 10.4224 27.3679 10.9326C26.9353 11.3691 26.3465 11.6139 25.7329 11.6123L25.7328 11.6123ZM25.7328 7.59881C25.1691 7.59858 24.6424 7.88078 24.329 8.35087C24.0158 8.8212 23.9571 9.41743 24.173 9.93992C24.3888 10.4627 24.8504 10.8425 25.4033 10.9527C25.9562 11.0629 26.5277 10.8886 26.9259 10.4884C27.2422 10.1708 27.4196 9.74036 27.4194 9.29154C27.4194 8.84271 27.2417 8.41224 26.9254 8.09489C26.6091 7.77753 26.1801 7.59903 25.7328 7.59881H25.7328Z" fill="white"/>
<path d="M27.7159 9.3644C27.0458 9.3644 26.4809 9.15611 26.0746 8.74805L26.0748 8.74782C25.7619 8.42733 25.5599 8.01456 25.4985 7.57022C25.4737 7.40067 25.5891 7.24256 25.7576 7.21523C25.9261 7.18768 26.0855 7.30123 26.1154 7.46988C26.1572 7.78388 26.2976 8.07614 26.5165 8.30462C26.9621 8.75166 27.7159 8.85647 28.6377 8.60003C29.6228 8.32545 30.6596 7.67751 31.5578 6.77648C33.3373 4.99169 34.0346 2.67524 33.081 1.7182C32.1273 0.761214 29.8185 1.46108 28.0397 3.24652C27.879 3.40778 27.7241 3.57575 27.5797 3.74821V3.74798C27.4679 3.8799 27.2705 3.8958 27.1391 3.78359C27.0076 3.67139 26.9915 3.47363 27.1034 3.34149C27.2589 3.15784 27.4252 2.97709 27.5978 2.80464C28.571 1.82816 29.7054 1.12334 30.7922 0.820555C31.9408 0.500733 32.9109 0.662436 33.5227 1.27655C34.1346 1.89044 34.2959 2.86175 33.9772 4.01385C33.6752 5.10499 32.9727 6.24321 31.9984 7.21969C31.0241 8.19617 29.8908 8.90099 28.804 9.20378C28.4502 9.30613 28.0841 9.36011 27.7158 9.36436L27.7159 9.3644Z" fill="white"/>
<path d="M29.5476 28.4677C29.5086 28.4677 29.4699 28.4603 29.4338 28.4457C29.2731 28.3826 29.194 28.2007 29.257 28.0394L29.2795 27.9812V27.981C29.3094 27.9033 29.369 27.8408 29.4452 27.8074C29.5213 27.7738 29.6074 27.772 29.6849 27.8025C29.7621 27.833 29.8244 27.893 29.8574 27.9696C29.8905 28.0459 29.892 28.1324 29.8612 28.2099L29.8387 28.2681L29.8389 28.2683C29.792 28.3886 29.6764 28.4679 29.5476 28.4677L29.5476 28.4677ZM30.0264 27.241C29.9231 27.2412 29.8264 27.1899 29.7682 27.1044C29.7099 27.0188 29.6974 26.91 29.7351 26.8134L29.7577 26.7552V26.755C29.8204 26.5937 30.0016 26.514 30.1626 26.5769C30.3235 26.6401 30.403 26.8219 30.34 26.9834L30.3168 27.0416H30.3171C30.2702 27.1617 30.1548 27.241 30.0264 27.241L30.0264 27.241ZM30.5046 26.015C30.4655 26.0147 30.4269 26.0074 30.3907 25.993C30.3135 25.9628 30.2512 25.903 30.2179 25.8268C30.1847 25.7507 30.1829 25.6642 30.2133 25.5867L30.2365 25.5285H30.2362C30.3023 25.372 30.4802 25.2967 30.638 25.3585C30.7956 25.4203 30.8755 25.5968 30.8182 25.7567L30.7956 25.8156C30.7487 25.9359 30.6331 26.0152 30.5045 26.015L30.5046 26.015ZM30.9827 24.7883V24.7885C30.9436 24.7885 30.905 24.7811 30.8688 24.7666C30.7083 24.7034 30.6289 24.522 30.6914 24.3607L30.7146 24.3018H30.7144C30.7445 24.2241 30.8041 24.1616 30.8802 24.128C30.9563 24.0944 31.0425 24.0929 31.12 24.1233C31.1972 24.1536 31.2592 24.2138 31.2925 24.2902C31.3255 24.3666 31.3269 24.4532 31.2963 24.5307L31.2737 24.589C31.2269 24.7092 31.1112 24.7885 30.9827 24.7885L30.9827 24.7883ZM31.4608 23.5616V23.5618C31.4217 23.5616 31.3834 23.5544 31.347 23.5405C31.1863 23.4771 31.107 23.2953 31.1702 23.134L31.1927 23.0758H31.1925C31.2211 22.9961 31.2807 22.9313 31.3575 22.8964C31.4342 22.8615 31.522 22.859 31.6003 22.8899C31.6789 22.9208 31.7418 22.9822 31.7747 23.0601C31.8075 23.1381 31.8072 23.2261 31.7744 23.304L31.7519 23.3623C31.705 23.4828 31.5894 23.5618 31.4608 23.5618L31.4608 23.5616ZM31.9376 22.3358C31.8985 22.3358 31.8599 22.3284 31.8238 22.3139C31.6633 22.2507 31.584 22.0686 31.647 21.9074L31.6695 21.8491C31.7325 21.6877 31.9139 21.6081 32.0749 21.6713C32.2356 21.7345 32.3151 21.9165 32.2519 22.078L32.2287 22.1363H32.2289C32.182 22.2568 32.0664 22.3358 31.9376 22.3358V22.3358ZM32.4164 21.1091C32.3773 21.1091 32.3385 21.1019 32.3019 21.0878C32.1414 21.0247 32.0622 20.8426 32.1251 20.6813L32.1483 20.6224C32.1782 20.5447 32.2378 20.4822 32.3139 20.4486C32.3901 20.4153 32.4762 20.4135 32.5537 20.4439C32.6309 20.4744 32.6932 20.5344 32.7262 20.6108C32.7593 20.6874 32.7608 20.7739 32.73 20.8513L32.7068 20.9096L32.707 20.9098C32.6604 21.0294 32.5456 21.1084 32.4175 21.1091L32.4164 21.1091ZM32.8957 19.88C32.7925 19.88 32.6959 19.8289 32.6376 19.7433C32.5794 19.6578 32.5669 19.5487 32.6046 19.4522L32.6278 19.394H32.6276C32.6934 19.2376 32.8715 19.1621 33.0291 19.224C33.1869 19.2858 33.2669 19.4625 33.2095 19.6222L33.1869 19.6804V19.6806C33.1401 19.8009 33.0244 19.88 32.8956 19.88L32.8957 19.88ZM33.3751 18.6564C33.3361 18.6564 33.2974 18.649 33.2613 18.6345C33.101 18.5713 33.022 18.3899 33.0845 18.2289L33.107 18.17V18.1697C33.1369 18.092 33.1968 18.0295 33.2727 17.9962C33.3488 17.9626 33.4352 17.9608 33.5124 17.9912C33.5898 18.0217 33.6519 18.0817 33.6849 18.1583C33.718 18.2347 33.7195 18.3211 33.689 18.3986L33.6664 18.4569V18.4571C33.6195 18.5774 33.5039 18.6567 33.3751 18.6564L33.3751 18.6564ZM33.8532 17.4297C33.8144 17.4297 33.7758 17.4226 33.7394 17.4085C33.5789 17.3453 33.4997 17.1634 33.5626 17.0022L33.5852 16.9439V16.9437C33.6479 16.7825 33.8294 16.7027 33.9901 16.7657C34.151 16.8288 34.2305 17.0107 34.1675 17.1722L34.1443 17.2304H34.1445C34.0974 17.3511 33.9811 17.4304 33.8519 17.4297L33.8532 17.4297Z" fill="white"/>
<path d="M27.795 22.5319C27.7497 22.5319 27.7048 22.5218 27.6637 22.5023L26.6805 22.0452C26.5238 21.9724 26.4555 21.7861 26.528 21.6288C26.6006 21.4716 26.7863 21.4031 26.943 21.4759L27.9262 21.9337C28.0597 21.9952 28.1323 22.1419 28.1006 22.2857C28.0691 22.4295 27.9419 22.5321 27.795 22.5319L27.795 22.5319Z" fill="white"/>
<path d="M27.1002 24.0754C27.0569 24.0751 27.0143 24.0657 26.9752 24.0478L24.1863 22.7999C24.0285 22.7291 23.9578 22.5436 24.0283 22.3853C24.0986 22.2269 24.2837 22.1559 24.4412 22.2265L27.2301 23.4751C27.3647 23.5351 27.4393 23.6811 27.4092 23.8258C27.379 23.9705 27.2525 24.0744 27.1051 24.0753L27.1002 24.0754Z" fill="white"/>
<path d="M26.407 25.6191C26.3637 25.6187 26.3211 25.609 26.282 25.5909L23.0914 24.1486C23.013 24.1161 22.951 24.0534 22.9197 23.9743C22.8882 23.8953 22.8903 23.807 22.9251 23.7295C22.9601 23.652 23.0246 23.592 23.1045 23.5633C23.1842 23.5347 23.2722 23.5396 23.3481 23.5772L26.5387 25.0196C26.6733 25.0803 26.7472 25.227 26.7161 25.3716C26.6851 25.5161 26.5574 25.6194 26.4101 25.6191H26.407Z" fill="white"/>
<path d="M25.7124 27.1619C25.6682 27.1619 25.6245 27.1525 25.5843 27.1344L21.6867 25.3705C21.5316 25.2981 21.4633 25.114 21.5334 24.9575C21.6035 24.8009 21.7861 24.7302 21.943 24.7985L25.8443 26.5624V26.5626C25.9787 26.6233 26.0526 26.77 26.0216 26.9145C25.9905 27.0591 25.8629 27.1624 25.7155 27.1619L25.7124 27.1619Z" fill="white"/>
<path d="M23.2522 27.9068C23.208 27.9068 23.1642 27.8974 23.1241 27.8792L21.6997 27.234C21.6227 27.2006 21.5622 27.1377 21.5319 27.0593C21.5015 26.9807 21.504 26.8933 21.5386 26.8167C21.5729 26.7399 21.6368 26.6805 21.7156 26.6514C21.7944 26.6225 21.8814 26.6266 21.9571 26.6626L23.3807 27.3072H23.381C23.5153 27.3679 23.5892 27.5146 23.5582 27.6593C23.5272 27.8039 23.3997 27.907 23.2522 27.9067L23.2522 27.9068Z" fill="white"/>
</svg>
