<svg width="23" height="22" viewBox="0 0 23 22" fill="none" xmlns="http://www.w3.org/2000/svg">
<path fill-rule="evenodd" clip-rule="evenodd" d="M13.9998 0.999917C13.9996 0.791366 14.0646 0.587975 14.1858 0.418207C14.3069 0.248439 14.4781 0.12079 14.6753 0.0531239C14.8726 -0.0145425 15.0861 -0.0188402 15.2859 0.0408324C15.4858 0.100505 15.6619 0.221162 15.7898 0.385917L22.7898 9.38592C22.9263 9.56146 23.0005 9.77752 23.0005 9.99992C23.0005 10.2223 22.9263 10.4384 22.7898 10.6139L15.7898 19.6139C15.6619 19.7787 15.4858 19.8993 15.2859 19.959C15.0861 20.0187 14.8726 20.0144 14.6753 19.9467C14.4781 19.879 14.3069 19.7514 14.1858 19.5816C14.0646 19.4119 13.9996 19.2085 13.9998 18.9999V15.0099C8.62079 15.1219 6.03679 16.1429 4.73879 17.2529C3.5048 18.3079 3.2788 19.5489 3.04379 20.8489L2.98279 21.1839C2.93792 21.4236 2.807 21.6387 2.61465 21.7886C2.42231 21.9385 2.18181 22.013 1.9384 21.998C1.69499 21.983 1.46544 21.8796 1.29295 21.7072C1.12046 21.5348 1.01692 21.3053 1.00179 21.0619C0.830795 18.3139 1.08779 14.3319 3.02879 11.0009C4.91279 7.76792 8.30579 5.28192 13.9998 5.02192V0.999917Z" fill="#FFFEFE"/>
</svg>
