<svg width="26" height="26" viewBox="0 0 26 26" fill="none" xmlns="http://www.w3.org/2000/svg">
<path d="M11.7932 3.6473C13.3576 3.64588 14.8873 4.10848 16.1888 4.97659C17.4903 5.8447 18.505 7.07931 19.1047 8.52424C19.7044 9.96917 19.862 11.5595 19.5577 13.094C19.2533 14.6286 18.5007 16.0384 17.395 17.1451C16.2893 18.2518 14.8802 19.0058 13.3459 19.3115C11.8116 19.6172 10.2212 19.461 8.7757 18.8627C7.33022 18.2643 6.09468 17.2507 5.22538 15.95C4.35608 14.6493 3.89208 13.1201 3.89208 11.5556C3.90156 9.46239 4.73682 7.45747 6.21631 5.97663C7.6958 4.49578 9.69995 3.6587 11.7932 3.6473ZM11.7932 2.16675C9.93624 2.16675 8.121 2.7174 6.577 3.74906C5.03301 4.78073 3.82961 6.24707 3.11899 7.96266C2.40837 9.67826 2.22243 11.5661 2.58471 13.3873C2.94698 15.2086 3.84118 16.8815 5.15424 18.1946C6.4673 19.5076 8.14024 20.4018 9.96151 20.7641C11.7828 21.1264 13.6706 20.9405 15.3862 20.2298C17.1018 19.5192 18.5681 18.3158 19.5998 16.7718C20.6314 15.2278 21.1821 13.4126 21.1821 11.5556C21.1821 9.06555 20.1929 6.67745 18.4321 4.91669C16.6714 3.15593 14.2833 2.16675 11.7932 2.16675Z" fill="#1B5AA3"/>
<path d="M25.278 24.0427L19.9552 18.6838L18.9297 19.7022L24.2525 25.0611C24.3193 25.1284 24.3988 25.1819 24.4863 25.2185C24.5739 25.2552 24.6678 25.2742 24.7627 25.2745C24.8576 25.2749 24.9516 25.2565 25.0394 25.2205C25.1272 25.1845 25.2071 25.1315 25.2744 25.0647C25.3417 24.9978 25.3953 24.9183 25.4319 24.8308C25.4685 24.7432 25.4875 24.6493 25.4879 24.5544C25.4882 24.4595 25.4698 24.3655 25.4338 24.2777C25.3978 24.1899 25.3449 24.1101 25.278 24.0427Z" fill="#1B5AA3"/>
</svg>
