<svg width="38" height="35" viewBox="0 0 38 35" fill="none" xmlns="http://www.w3.org/2000/svg">
<rect width="38" height="35" rx="3" fill="#0D4689"/>
<g clip-path="url(#clip0_372_10698)">
<path fill-rule="evenodd" clip-rule="evenodd" d="M20.9993 6.99992C20.9991 6.79137 21.0641 6.58797 21.1853 6.41821C21.3064 6.24844 21.4776 6.12079 21.6748 6.05312C21.8721 5.98546 22.0856 5.98116 22.2854 6.04083C22.4853 6.10051 22.6614 6.22116 22.7893 6.38592L29.7893 15.3859C29.9259 15.5615 30 15.7775 30 15.9999C30 16.2223 29.9259 16.4384 29.7893 16.6139L22.7893 25.6139C22.6614 25.7787 22.4853 25.8993 22.2854 25.959C22.0856 26.0187 21.8721 26.0144 21.6748 25.9467C21.4776 25.879 21.3064 25.7514 21.1853 25.5816C21.0641 25.4119 20.9991 25.2085 20.9993 24.9999V21.0099C15.6203 21.1219 13.0363 22.1429 11.7383 23.2529C10.5043 24.3079 10.2783 25.5489 10.0433 26.8489L9.98231 27.1839C9.93743 27.4236 9.80651 27.6387 9.61417 27.7886C9.42183 27.9385 9.18132 28.013 8.93791 27.998C8.6945 27.983 8.46496 27.8796 8.29247 27.7072C8.11997 27.5348 8.01643 27.3053 8.00131 27.0619C7.83031 24.3139 8.08731 20.3319 10.0283 17.0009C11.9123 13.7679 15.3053 11.2819 20.9993 11.0219V6.99992Z" fill="#FFFEFE"/>
</g>
<defs>
<clipPath id="clip0_372_10698">
<rect width="24" height="24" fill="white" transform="matrix(-1 0 0 1 31 6)"/>
</clipPath>
</defs>
</svg>
