<svg width="42" height="30" viewBox="0 0 42 30" fill="none" xmlns="http://www.w3.org/2000/svg">
<g clip-path="url(#clip0_597_3453)">
<path d="M9.36278 6.24704C10.8039 6.23994 22.2118 6.20445 22.2118 6.20445C22.4035 6.20445 22.6661 6.22575 22.9572 6.25414C23.9085 6.34643 25.2005 6.46711 25.6406 5.8637C25.7826 5.66493 25.8465 5.33838 25.8465 4.84146C25.8465 4.593 25.8323 4.33743 25.8181 4.11027C25.8039 3.9328 25.7968 3.76952 25.7968 3.64174L25.7258 3.60625L25.7968 3.56365L25.7258 3.51396C27.6141 3.49266 29.4953 3.46427 31.3836 3.42877C32.5549 3.40748 33.7262 3.38618 34.8976 3.37198C35.1744 3.37198 35.3164 3.15192 35.3164 2.93895C35.3164 2.81827 35.2738 2.70469 35.1957 2.6266C35.1176 2.55561 35.0183 2.52011 34.8976 2.52011C33.7262 2.53431 32.5549 2.55561 31.3836 2.5769C29.5237 2.6124 27.6567 2.64079 25.7968 2.66209C25.7968 2.48462 25.7968 2.30715 25.7968 2.12967C25.7968 1.82442 25.8039 1.51207 25.8181 1.19972C25.8181 1.13583 25.8181 1.06484 25.8181 0.993847L25.811 0.532418C25.811 0.383341 25.7471 0.269758 25.6264 0.198769C25.5554 0.141978 25.4773 0.113582 25.385 0.113582C18.563 -0.113583 12.4011 -1.00166e-06 6.55871 0.454329C6.35284 0.468527 6.13988 0.624703 6.13988 0.880264C6.16117 1.15712 6.16117 1.43398 6.16117 1.71794C6.16117 2.09418 6.14697 2.46332 6.13988 2.83956L6.13988 2.86796C4.23027 2.92475 2.32066 3.00284 0.411053 3.08093C0.141296 3.09512 -0.000682975 3.30809 -0.000682985 3.52106C-0.00068299 3.64174 0.0419119 3.75532 0.119999 3.82631C0.198086 3.8973 0.29747 3.9328 0.411053 3.9257C2.29937 3.84761 4.19477 3.76952 6.11148 3.71273L6.11148 3.96119C6.11148 4.12447 6.11148 4.29484 6.11858 4.45812L6.11858 4.5646C6.11858 4.5646 6.11148 4.99053 6.11148 5.08282C6.11148 5.50165 6.16117 5.97018 6.52322 6.19735C6.95625 6.47421 7.87911 6.38192 8.6174 6.30383C8.90845 6.27544 9.17111 6.25414 9.36278 6.24704ZM9.59705 1.06484C9.85971 1.06484 10.0798 1.07193 10.2218 1.06484C14.7864 0.823473 19.6065 0.787978 24.9662 0.951254L24.9662 0.965452C24.9662 1.02934 24.9662 1.09323 24.9591 1.16422C24.9378 1.46947 24.9378 1.78183 24.9378 2.08708C24.9378 2.30005 24.9449 3.14482 24.9449 3.35778C24.9449 3.49976 24.9449 3.64174 24.9378 3.79792C24.9378 3.86891 24.9449 3.98249 24.952 4.12447C24.9662 4.33743 24.9804 4.60719 24.9804 4.85566C24.9804 5.36678 24.9094 5.45906 24.8881 5.48036C24.7958 5.54425 24.0575 5.45196 23.7026 5.40227C23.4683 5.37388 23.2767 5.34548 23.1986 5.34548L21.5445 5.35258C20.1815 5.35968 18.8256 5.35258 17.4626 5.35258C14.4101 5.35258 11.2511 5.35258 8.14177 5.40937C7.99269 5.40937 7.85781 5.42357 7.73713 5.43067C7.3254 5.46616 7.15502 5.48036 6.97755 5.11831C6.92076 4.99763 6.89236 4.79886 6.89236 4.50071C6.89236 4.31614 6.89946 4.12447 6.91366 3.94699C6.92076 3.79792 6.92786 3.66304 6.92786 3.50686C6.92786 3.49976 6.92786 3.49976 6.92786 3.49266C6.92786 3.40748 6.92076 3.28679 6.91366 3.14482C6.89946 2.90345 6.88526 2.5982 6.88526 2.30715C6.88526 1.87411 6.92785 1.58306 7.00594 1.45528C7.2828 1.02934 8.73098 1.05064 9.59705 1.06484Z" fill="white"/>
<path d="M32.2221 13.5524C32.3498 13.3181 32.4066 12.9845 32.4066 12.4947C32.4066 12.1965 32.3853 11.8771 32.364 11.586L32.3498 11.373C34.2169 11.3517 36.0768 11.3233 37.9438 11.2878C39.1009 11.2666 40.2651 11.2453 41.4293 11.2311C41.692 11.224 41.834 11.011 41.834 10.798C41.834 10.6773 41.7914 10.5638 41.7133 10.4857C41.6352 10.4147 41.5358 10.3721 41.4222 10.3721C40.258 10.3863 39.1009 10.4076 37.9367 10.4289C36.0697 10.4644 34.2098 10.4928 32.3427 10.5141L32.3498 10.3792C32.364 10.1449 32.3782 9.88936 32.3782 9.6338C32.3782 9.03039 32.3001 8.19982 31.6045 7.90167C31.5406 7.86617 31.4767 7.85198 31.4057 7.84488C29.8297 7.80938 27.7497 7.78099 25.6627 7.87327C24.4913 7.92296 24.321 8.22822 24.25 9.41374C24.2287 9.73319 24.2287 10.0597 24.2287 10.3934L24.2287 10.5709C22.6456 10.6135 21.0626 10.6276 19.4795 10.6418C17.2859 10.6702 15.0143 10.6915 12.7852 10.7767C12.5155 10.7838 12.3735 11.0039 12.3735 11.2169C12.3735 11.3375 12.4161 11.4511 12.4942 11.5221C12.5723 11.5931 12.6717 11.6286 12.7852 11.6286C15.0143 11.5434 17.2859 11.515 19.4795 11.4937C21.0626 11.4795 22.6527 11.4582 24.2358 11.4227C24.2571 11.9835 24.2997 12.5373 24.3636 13.0555C24.4417 13.7086 24.5339 13.8861 25.2296 13.9641C26.1667 14.0706 27.1534 14.0422 28.1047 14.0138C28.6158 13.9996 29.1198 13.9854 29.6168 13.9925C29.7942 13.9925 29.993 14.0138 30.1989 14.0351C30.9514 14.1274 31.8671 14.2197 32.2221 13.5524ZM25.4497 13.1407C25.4071 13.1478 25.3148 13.1549 25.2296 13.1478C25.1941 12.9632 25.187 12.7644 25.187 12.5799L25.187 12.1113C25.1799 11.8061 25.1586 11.5008 25.1373 11.1956C25.1089 10.798 25.0806 10.3934 25.0806 9.99585C25.0806 9.91066 25.0806 9.82547 25.0806 9.74029C25.1018 9.15108 25.1302 8.88132 25.6769 8.73934C26.0034 8.65415 26.4009 8.67545 26.7843 8.68965C26.9547 8.69675 27.125 8.70384 27.2741 8.69675C28.5306 8.67545 29.8368 8.68255 31.2282 8.69675C31.4128 8.83163 31.5122 9.25046 31.5122 9.93906C31.5122 10.2372 31.4909 10.5354 31.4838 10.7625C31.4767 10.9045 31.4696 11.0181 31.4696 11.0891C31.4696 11.2098 31.4838 11.3872 31.498 11.5789C31.5193 11.8274 31.5406 12.1113 31.5406 12.374C31.5406 12.6934 31.5051 12.9135 31.4341 13.02C31.2069 13.3678 29.8581 13.2542 29.0488 13.1975C28.772 13.1762 28.5306 13.1549 28.3744 13.1549C28.0621 13.1549 27.7355 13.1407 27.409 13.1194C26.7559 13.091 26.0744 13.0555 25.4497 13.1407Z" fill="white"/>
<path d="M16.9246 29.9084C17.095 29.9084 17.2938 29.9297 17.5068 29.951C18.245 30.022 19.1608 30.1143 19.5157 29.447C19.6435 29.2127 19.7003 28.8791 19.7003 28.3893C19.7003 28.0911 19.679 27.7788 19.6577 27.4877L19.6435 27.2676L22.9871 27.2393C26.4017 27.2109 29.8163 27.1825 33.2308 27.1257C33.5006 27.1186 33.6426 26.9056 33.6426 26.6926C33.6426 26.572 33.6 26.4584 33.5219 26.3803C33.4438 26.3093 33.3444 26.2667 33.2308 26.2738C29.8163 26.3306 26.4017 26.359 22.9871 26.3874L19.6435 26.4158L19.6506 26.2809C19.6648 26.0466 19.679 25.7911 19.679 25.5355C19.679 24.9321 19.6009 24.1015 18.9052 23.8105C18.8413 23.775 18.7775 23.7537 18.7065 23.7537C17.1376 23.7182 15.0647 23.6898 12.9634 23.7821C11.7921 23.8318 11.6218 24.137 11.5508 25.3225C11.5295 25.6349 11.5295 25.9614 11.5295 26.288L11.5295 26.4797C10.0387 26.5223 8.54792 26.5862 7.05715 26.65L6.16979 26.6855C5.90003 26.6997 5.75805 26.9127 5.75805 27.1257C5.75805 27.2464 5.80064 27.3599 5.87873 27.4309C5.95682 27.5019 6.05621 27.5374 6.16979 27.5303L6.96487 27.4948C8.49113 27.4309 10.0103 27.367 11.5366 27.3173C11.565 27.8853 11.6005 28.439 11.6643 28.9501C11.7424 29.6032 11.8347 29.7807 12.5304 29.8588C13.4675 29.9652 14.4542 29.9368 15.4055 29.9084C15.9166 29.9155 16.4277 29.9013 16.9246 29.9084ZM12.7434 29.0353C12.7008 29.0424 12.6085 29.0495 12.5233 29.0424C12.4878 28.8578 12.4807 28.659 12.4807 28.4674L12.4807 28.0059C12.4736 27.7007 12.4523 27.3954 12.431 27.0902C12.4026 26.6926 12.3742 26.288 12.3742 25.8834C12.3742 25.7982 12.3742 25.713 12.3742 25.6278C12.3955 25.0386 12.4239 24.7688 12.9705 24.6269C13.2971 24.5417 13.6946 24.563 14.078 24.5772C14.2484 24.5843 14.4187 24.5914 14.5678 24.5843C15.8243 24.563 17.1305 24.5701 18.5148 24.5843C18.6994 24.7191 18.7988 25.138 18.7988 25.8266C18.7988 26.1247 18.7775 26.4229 18.7704 26.65C18.7633 26.792 18.7562 26.9127 18.7562 26.9837C18.7562 27.1044 18.7704 27.2818 18.7846 27.4735C18.8059 27.722 18.8271 28.0059 18.8271 28.2615C18.8271 28.5809 18.7917 28.801 18.7207 28.9075C18.4935 29.2553 17.1447 29.1418 16.3354 29.085C16.0586 29.0637 15.8172 29.0424 15.661 29.0424C15.3487 29.0424 15.0221 29.0282 14.6956 29.0069C14.0496 28.9856 13.3681 28.9501 12.7434 29.0353Z" fill="white"/>
<path d="M14.7943 21.9565L22.5818 21.9139C22.7593 21.9139 22.9865 21.9352 23.242 21.9565C24.1223 22.0346 25.2226 22.134 25.6344 21.5732C25.7764 21.3744 25.8402 21.055 25.8402 20.5509C25.8402 20.3025 25.826 20.0469 25.8118 19.8198C25.7977 19.6423 25.7906 19.479 25.7906 19.3512L25.7196 19.3157L25.7906 19.2731L25.7196 19.2234C29.411 19.1879 33.0953 19.1383 36.7797 19.0815C37.0494 19.0744 37.1914 18.8614 37.1914 18.6484C37.1914 18.5277 37.1488 18.4142 37.0707 18.3361C36.9926 18.2651 36.8933 18.2225 36.7797 18.2296C33.1166 18.2864 29.4536 18.3361 25.7835 18.3716C25.7835 18.1941 25.7835 18.0166 25.7835 17.8392C25.7835 17.5339 25.7906 17.2215 25.8047 16.9092C25.8118 16.8453 25.8118 16.7743 25.8118 16.7033L25.8047 16.2419C25.8047 16.0928 25.7409 15.9792 25.6202 15.9012C25.5492 15.8444 25.4711 15.816 25.3859 15.816C21.0911 15.674 16.7181 15.7876 12.0187 16.1638C11.8128 16.178 11.5998 16.3342 11.5998 16.5897C11.6211 16.8666 11.6211 17.1435 11.6211 17.4274C11.6211 17.8037 11.6069 18.1728 11.5998 18.549L11.5998 18.5703C10.3788 18.5987 9.1507 18.62 7.92259 18.6413C6.04138 18.6697 4.10337 18.7052 2.19376 18.7833C1.92401 18.7904 1.78203 19.0105 1.78203 19.2234C1.78203 19.3441 1.82462 19.4577 1.90271 19.5287C1.9808 19.5997 2.08018 19.6352 2.19376 19.6352C4.10337 19.5642 6.04138 19.5287 7.92259 19.4932C9.1294 19.4719 10.3433 19.4506 11.5785 19.4151L11.5785 19.6849C11.5785 19.841 11.5785 20.0043 11.5856 20.1605L11.5856 20.267L11.5785 20.7852C11.5785 21.204 11.6282 21.6726 11.9903 21.8997C12.4233 22.1766 13.332 22.0843 14.0631 22.0062C14.3471 21.9849 14.6027 21.9565 14.7943 21.9565ZM16.349 21.0905L16.3632 21.055C16.0437 20.6645 15.7243 20.2812 15.4048 19.8907C14.6169 18.9395 13.8005 17.9598 13.0764 16.9376C13.1474 16.9305 13.2255 16.9163 13.3178 16.9021C13.6869 16.8453 14.0773 16.824 14.4536 16.8027L14.8582 16.8027C15.1635 17.1648 15.4616 17.5197 15.7598 17.8817C16.6472 18.9395 17.5558 20.0398 18.5071 21.0763C18.0598 21.0763 16.349 21.0905 16.349 21.0905ZM24.9813 20.6929C24.9671 20.9769 24.9245 21.055 24.9032 21.0763C24.7612 21.2182 23.5828 21.1401 23.1285 21.126L23.093 21.0692L22.9865 20.9556C21.7229 19.5642 20.4096 18.1231 19.2454 16.6039C20.0404 16.5897 20.8426 16.5826 21.6377 16.5897C21.6519 16.6465 21.6803 16.6962 21.7158 16.7388C22.8019 18.0095 23.8738 19.3157 24.9174 20.629C24.9387 20.6645 24.96 20.6787 24.9813 20.6929ZM18.2373 16.6891C19.366 18.2083 20.6296 19.6281 21.9358 21.0692L20.1185 21.0763L19.65 21.0621C18.5213 19.8836 17.4564 18.6058 16.4271 17.3706L15.9018 16.7459C16.6684 16.7033 17.4351 16.6678 18.2018 16.6394C18.2089 16.6465 18.2231 16.6678 18.2373 16.6891ZM14.8511 20.558L15.2984 21.1047L14.8653 21.1047C14.5033 21.1047 14.1341 21.1118 13.7721 21.1189C13.7011 21.1189 13.5946 21.133 13.4668 21.1472C13.1616 21.1756 12.5866 21.2395 12.4588 21.1189C12.4375 21.0976 12.3807 20.9982 12.3807 20.558C12.3807 20.3309 12.3949 20.0824 12.4091 19.8765C12.4162 19.7275 12.4233 19.5997 12.4233 19.5216L12.4091 19.1241C12.402 18.9111 12.3878 18.691 12.3878 18.4781C12.3878 18.1089 12.4162 17.825 12.4801 17.5694C13.2255 18.5987 14.049 19.5926 14.8511 20.558ZM24.9671 16.6536L24.9671 16.6678C24.9671 16.7317 24.9671 16.7956 24.96 16.8666C24.9387 17.1719 24.9387 17.4842 24.9387 17.7895C24.9387 18.0024 24.9458 19.2305 24.9458 19.3228C24.1436 18.3219 23.4053 17.4274 22.7025 16.5897C23.455 16.611 24.2075 16.6323 24.9671 16.6536Z" fill="white"/>
</g>
<defs>
<clipPath id="clip0_597_3453">
<rect width="30" height="41.8339" fill="white" transform="translate(41.834) rotate(90)"/>
</clipPath>
</defs>
</svg>
