<svg width="19" height="18" viewBox="0 0 19 18" fill="none" xmlns="http://www.w3.org/2000/svg">
<g clip-path="url(#clip0_372_8779)">
<path d="M18.0187 6.74999H14.959L11.7445 1.39801C11.5851 1.13215 11.2392 1.04535 10.972 1.20521C10.7053 1.36506 10.6189 1.71056 10.779 1.97699L13.6457 6.74999H4.37305L7.23983 1.97695C7.39985 1.71052 7.31353 1.36502 7.04682 1.20517C6.77902 1.04531 6.43426 1.13211 6.27424 1.39797L3.05974 6.74995H0V7.87496H1.22213L2.65266 15.4978C2.80222 16.296 3.50057 16.875 4.31334 16.875H13.7054C14.5182 16.875 15.2165 16.296 15.3656 15.4984L16.7966 7.87496H18.0188C18.0187 7.87496 18.0187 6.74999 18.0187 6.74999ZM14.2586 15.2913C14.2091 15.5572 13.9765 15.75 13.7054 15.75H4.31334C4.04224 15.75 3.80966 15.5572 3.75962 15.2908L2.36757 7.87496H15.6512L14.2586 15.2913Z" fill="white"/>
</g>
<defs>
<clipPath id="clip0_372_8779">
<rect width="18.0187" height="18" fill="white"/>
</clipPath>
</defs>
</svg>
