<svg width="75" height="60" viewBox="0 0 75 60" fill="none" xmlns="http://www.w3.org/2000/svg">
<path d="M43.8623 29.2896C43.8623 29.1368 43.8016 28.9903 43.6936 28.8824C43.5852 28.7744 43.4388 28.7141 43.286 28.7141H31.9728C31.602 28.717 31.242 28.8393 30.9465 29.0632C30.6506 29.2867 30.4355 29.6001 30.3321 29.9563L28.1478 37.8651V37.8656C28.0633 38.1724 28.2432 38.4896 28.55 38.5746C28.8547 38.6562 29.1686 38.4766 29.2531 38.1724L31.434 30.2706H31.4336C31.5044 30.0316 31.7228 29.8675 31.9718 29.8663H43.2851C43.4383 29.8667 43.5852 29.806 43.6936 29.6976C43.8019 29.5896 43.8626 29.4427 43.8626 29.2895L43.8623 29.2896Z" fill="#0D4689"/>
<path d="M63.7674 53.3732L60.6456 42.0707C60.5117 41.6141 60.2342 41.2132 59.8541 40.9269C59.4741 40.641 59.0117 40.4849 58.5362 40.4828H50.7629C51.0395 39.9785 51.1048 39.385 50.9437 38.833L47.8218 27.5273H47.8214C47.6875 27.0711 47.4096 26.6702 47.03 26.3843C46.65 26.0985 46.1879 25.9428 45.712 25.9407H29.5484C29.0722 25.9436 28.6093 26.1006 28.2293 26.3877C27.8493 26.6748 27.5722 27.077 27.4391 27.5344L24.3161 38.8241C24.1525 39.3778 24.2161 39.9737 24.4919 40.481H16.7249C16.2482 40.484 15.7853 40.6409 15.4053 40.9284C15.0253 41.2155 14.7482 41.6182 14.6156 42.076L11.4926 53.3657C11.2996 54.0295 11.4306 54.7456 11.8454 55.2984C12.2601 55.8513 12.9105 56.1773 13.602 56.1782H36.0056C36.6237 56.1807 37.2138 55.9199 37.6286 55.4612C38.0454 55.9199 38.6376 56.1798 39.2575 56.1761H61.6535C62.3429 56.1744 62.9915 55.8501 63.4059 55.2993C63.8202 54.7485 63.9525 54.0353 63.7629 53.3728L63.7674 53.3732ZM25.5924 40.0639C25.3948 39.7994 25.3346 39.4571 25.4296 39.1407L28.548 27.8499C28.6802 27.4042 29.0887 27.0979 29.5533 27.0953H45.7104C46.1729 27.0979 46.5793 27.4017 46.7136 27.8441L49.8355 39.1412C49.9267 39.4572 49.8643 39.7979 49.6664 40.0607C49.4688 40.3236 49.1587 40.4784 48.8297 40.4784H26.4283C26.0998 40.4805 25.79 40.3269 25.5925 40.0645L25.5924 40.0639ZM37.6288 51.5979L34.9979 42.0705C34.9536 41.919 34.8925 41.7729 34.8163 41.6344H40.4413C40.3639 41.775 40.3023 41.9236 40.2571 42.0776L37.6288 51.5979ZM36.8411 54.6096C36.6453 54.8736 36.3347 55.0285 36.0058 55.0268H13.6043C13.2745 55.0264 12.964 54.8707 12.7664 54.6066C12.5689 54.3421 12.5078 54.0002 12.6011 53.6838L15.7195 42.393C15.8513 41.9469 16.2598 41.6397 16.7252 41.6372H32.8856C33.3481 41.6393 33.7557 41.9431 33.8896 42.3859L37.0115 53.6916C37.104 54.0072 37.0412 54.3483 36.8415 54.6103L36.8411 54.6096ZM62.4901 54.6096C62.2934 54.8736 61.9828 55.0285 61.6535 55.0268H39.2574C38.9272 55.0268 38.6162 54.8716 38.4186 54.607C38.2211 54.3425 38.1596 54.0006 38.2529 53.6838L41.3667 42.3898C41.4985 41.9437 41.907 41.6365 42.372 41.634H58.5334C58.9959 41.6365 59.4027 41.9399 59.5366 42.3827L62.6585 53.6884V53.688C62.7526 54.0048 62.6899 54.3476 62.4898 54.6105L62.4901 54.6096Z" fill="#0D4689"/>
<path d="M56.1095 43.2567H44.7974C44.4262 43.2592 44.0662 43.3818 43.7708 43.6061C43.4749 43.83 43.2597 44.1435 43.1568 44.4997L40.9725 52.4074L40.972 52.4078C40.8875 52.7146 41.0675 53.0318 41.3742 53.1168C41.424 53.1306 41.4759 53.1377 41.5278 53.1377C41.7869 53.1377 42.0142 52.9644 42.0832 52.7146L44.2654 44.8128H44.265C44.3353 44.5738 44.5542 44.4093 44.8032 44.4085H56.1089C56.2663 44.4156 56.4195 44.3583 56.5333 44.2494C56.6471 44.1406 56.7116 43.9899 56.7116 43.8326C56.7116 43.6752 56.6471 43.5246 56.5333 43.4157C56.4195 43.3069 56.2663 43.2496 56.1089 43.2567L56.1095 43.2567Z" fill="#0D4689"/>
<path d="M30.4617 43.2568H19.1484C18.7764 43.2581 18.4152 43.3803 18.1185 43.6042C17.8213 43.8285 17.6053 44.1429 17.502 44.4999L15.3189 52.408C15.234 52.7143 15.4135 53.0316 15.7203 53.1161C16.0267 53.2011 16.3439 53.0215 16.4284 52.7148L18.6119 44.813C18.6835 44.5765 18.9015 44.4145 19.1485 44.4145H30.4617C30.7697 44.4007 31.0125 44.1467 31.0125 43.8386C31.0125 43.5302 30.7697 43.2765 30.4617 43.2627L30.4617 43.2568Z" fill="#0D4689"/>
<path d="M15.1703 30.0192C15.1544 30.1846 15.2101 30.349 15.3227 30.4717C15.4373 30.5956 15.5989 30.6663 15.768 30.6659C15.932 30.6646 16.0882 30.5939 16.1974 30.4708C16.3062 30.3482 16.3581 30.1846 16.3397 30.0213C16.3246 29.8924 16.0258 26.8573 19.9386 25.7921C20.1893 25.7235 20.363 25.4958 20.363 25.2363C20.363 24.9764 20.1893 24.7487 19.9386 24.6801C16.0304 23.6254 16.3247 20.5878 16.3397 20.4508C16.3547 20.2859 16.2987 20.1223 16.1865 20.0009C16.0714 19.8825 15.914 19.8159 15.7491 19.8159C15.5847 19.8159 15.4269 19.8825 15.3122 20.0009C15.203 20.1244 15.1511 20.288 15.1691 20.4521C15.1841 20.581 15.4842 23.6161 11.5714 24.6813C11.3212 24.75 11.1475 24.9776 11.1475 25.2371C11.1475 25.497 11.3212 25.7247 11.5714 25.7934C15.4843 26.8526 15.1846 29.8924 15.1704 30.0192L15.1703 30.0192ZM15.7563 22.9503C16.1794 23.7647 16.9072 24.611 18.1561 25.2354C16.9068 25.8611 16.1789 26.7074 15.7563 27.5219C15.3331 26.7074 14.6045 25.8611 13.3565 25.2354C14.6033 24.6097 15.332 23.7647 15.7551 22.9503H15.7563Z" fill="#0D4689"/>
<path d="M39.1021 18.947C43.015 20.0088 42.7149 23.0485 42.701 23.1741H42.7006C42.6856 23.3398 42.7412 23.5043 42.8542 23.6265C42.9685 23.7512 43.1296 23.8224 43.2983 23.822C43.4628 23.8215 43.6193 23.7508 43.7285 23.6278C43.8378 23.5047 43.8892 23.3411 43.8704 23.1774C43.8562 23.0485 43.5565 20.0134 47.4693 18.947C47.7196 18.8784 47.8933 18.6507 47.8933 18.3912C47.8933 18.1313 47.7196 17.9036 47.4693 17.835C43.5611 16.7803 43.8554 13.7426 43.8704 13.607C43.885 13.4421 43.8294 13.2785 43.7168 13.1571C43.6021 13.0386 43.4443 12.9717 43.2799 12.9717C43.115 12.9717 42.9572 13.0386 42.8425 13.1571C42.7333 13.2797 42.6818 13.4438 42.7006 13.607C42.7149 13.7359 43.0145 16.771 39.1017 17.8363H39.1021C38.8514 17.9049 38.6777 18.1326 38.6777 18.3925C38.6777 18.652 38.8514 18.8796 39.1021 18.9483V18.947ZM43.2857 16.1064C43.7089 16.9209 44.4367 17.7671 45.6855 18.3915C44.4362 19.016 43.7084 19.8623 43.2857 20.6767C42.8626 19.8622 42.1348 19.016 40.8859 18.3915C42.1348 17.7671 42.8626 16.9208 43.2857 16.1064Z" fill="#0D4689"/>
<path d="M21.0676 13.3028C28.1717 15.2292 27.5949 20.7957 27.5669 21.0301C27.5539 21.1971 27.6125 21.3615 27.7288 21.4825C27.8464 21.6076 28.0113 21.6792 28.1834 21.6792C28.3478 21.6788 28.5044 21.608 28.6136 21.4846C28.722 21.3607 28.7735 21.1971 28.7551 21.0334C28.727 20.799 28.1503 15.2301 35.2531 13.299C35.5038 13.2303 35.6775 13.0027 35.6775 12.7432C35.6775 12.4833 35.5038 12.2556 35.2531 12.187C28.1502 10.2605 28.727 4.69285 28.7551 4.45253C28.7643 4.28889 28.7057 4.12901 28.5935 4.00973C28.4768 3.89045 28.3173 3.82349 28.1507 3.82349C27.9837 3.82349 27.8243 3.89045 27.7075 4.00973C27.5983 4.13319 27.5476 4.2981 27.5681 4.46175C27.5681 4.49439 27.587 4.62916 27.5916 4.84261V4.93887C27.5916 6.36601 27.0759 10.5639 21.0675 12.1903C20.8172 12.2589 20.6436 12.4866 20.6436 12.7465C20.6436 13.0064 20.8172 13.2341 21.0675 13.3027L21.0676 13.3028ZM28.1608 7.80799C28.83 9.53192 30.2643 11.5027 33.2982 12.7462C30.2643 13.9896 28.83 15.9618 28.1608 17.6857C27.4903 15.9618 26.0513 13.9897 23.0221 12.7462C26.0564 11.5028 27.4907 9.53149 28.1612 7.80756L28.1608 7.80799Z" fill="#0D4689"/>
</svg>
