<svg width="76" height="76" viewBox="0 0 76 76" fill="none" xmlns="http://www.w3.org/2000/svg">
<g filter="url(#filter0_b_372_10608)">
<path d="M38 76C27.9218 76 18.2563 71.9964 11.1299 64.8701C4.00356 57.7437 2.86245e-06 48.0782 1.66103e-06 38C4.59615e-07 27.9218 4.00356 18.2563 11.1299 11.1299C18.2563 4.00356 27.9218 3.01271e-07 38 -1.66103e-06L38 38L38 76Z" fill="#1B5AA3" fill-opacity="0.8"/>
</g>
<path d="M25.5163 45.9625C25.4555 46.021 25.3837 46.067 25.3051 46.0978C25.2265 46.1286 25.1426 46.1436 25.0582 46.142C24.8877 46.1387 24.7255 46.0678 24.6073 45.9449C24.4891 45.8221 24.4246 45.6573 24.4279 45.4868C24.4312 45.3163 24.502 45.1541 24.6249 45.0359L31.7178 38.2131L15.6438 38.2131C15.4733 38.2131 15.3098 38.1453 15.1892 38.0248C15.0686 37.9042 15.0009 37.7407 15.0009 37.5702C15.0009 37.3997 15.0686 37.2362 15.1892 37.1156C15.3098 36.9951 15.4733 36.9274 15.6438 36.9274L31.7161 36.9274L24.6241 30.1062C24.5632 30.0477 24.5145 29.9777 24.4807 29.9004C24.4469 29.823 24.4286 29.7398 24.427 29.6553C24.4254 29.5709 24.4404 29.487 24.4712 29.4084C24.502 29.3298 24.5479 29.258 24.6065 29.1972C24.665 29.1364 24.735 29.0877 24.8123 29.0538C24.8897 29.02 24.9729 29.0018 25.0573 29.0002C25.1417 28.9985 25.2257 29.0135 25.3043 29.0443C25.3829 29.0751 25.4546 29.1211 25.5155 29.1796L33.5966 36.9531C33.6797 37.033 33.7458 37.129 33.791 37.2351C33.8361 37.3412 33.8594 37.4553 33.8594 37.5706C33.8594 37.686 33.8361 37.8001 33.791 37.9062C33.7458 38.0123 33.6797 38.1082 33.5966 38.1882L25.5155 45.9625L25.5163 45.9625Z" fill="white"/>
<defs>
<filter id="filter0_b_372_10608" x="-4" y="-4" width="46" height="84" filterUnits="userSpaceOnUse" color-interpolation-filters="sRGB">
<feFlood flood-opacity="0" result="BackgroundImageFix"/>
<feGaussianBlur in="BackgroundImage" stdDeviation="2"/>
<feComposite in2="SourceAlpha" operator="in" result="effect1_backgroundBlur_372_10608"/>
<feBlend mode="normal" in="SourceGraphic" in2="effect1_backgroundBlur_372_10608" result="shape"/>
</filter>
</defs>
</svg>
