<svg width="76" height="76" viewBox="0 0 76 76" fill="none" xmlns="http://www.w3.org/2000/svg">
<g filter="url(#filter0_b_372_10613)">
<path d="M38 76C48.0782 76 57.7437 71.9964 64.8701 64.8701C71.9964 57.7437 76 48.0782 76 38C76 27.9218 71.9964 18.2563 64.8701 11.1299C57.7437 4.00356 48.0782 3.01271e-07 38 -1.66103e-06L38 38L38 76Z" fill="#1B5AA3" fill-opacity="0.8"/>
</g>
<path d="M50.9134 46.3905C50.9742 46.449 51.046 46.495 51.1246 46.5258C51.2032 46.5566 51.2871 46.5716 51.3715 46.5699C51.542 46.5667 51.7041 46.4958 51.8224 46.3729C51.9406 46.25 52.0051 46.0852 52.0018 45.9148C51.9985 45.7443 51.9277 45.5821 51.8048 45.4639L44.7119 38.641L60.7859 38.641C60.9564 38.641 61.1199 38.5733 61.2405 38.4528C61.3611 38.3322 61.4288 38.1687 61.4288 37.9982C61.4288 37.8277 61.3611 37.6642 61.2405 37.5436C61.1199 37.4231 60.9564 37.3553 60.7859 37.3553L44.7136 37.3553L51.8056 30.5342C51.8665 30.4757 51.9152 30.4057 51.949 30.3284C51.9828 30.251 52.0011 30.1677 52.0027 30.0833C52.0043 29.9989 51.9893 29.915 51.9585 29.8364C51.9277 29.7578 51.8817 29.686 51.8232 29.6252C51.7647 29.5643 51.6947 29.5156 51.6174 29.4818C51.54 29.448 51.4568 29.4298 51.3723 29.4281C51.2879 29.4265 51.204 29.4415 51.1254 29.4723C51.0468 29.5031 50.975 29.5491 50.9142 29.6076L42.8331 37.381C42.75 37.461 42.6839 37.5569 42.6387 37.663C42.5936 37.7692 42.5703 37.8833 42.5703 37.9986C42.5703 38.1139 42.5936 38.2281 42.6387 38.3342C42.6839 38.4403 42.75 38.5362 42.8331 38.6162L50.9142 46.3905L50.9134 46.3905Z" fill="white"/>
<defs>
<filter id="filter0_b_372_10613" x="34" y="-4" width="46" height="84" filterUnits="userSpaceOnUse" color-interpolation-filters="sRGB">
<feFlood flood-opacity="0" result="BackgroundImageFix"/>
<feGaussianBlur in="BackgroundImage" stdDeviation="2"/>
<feComposite in2="SourceAlpha" operator="in" result="effect1_backgroundBlur_372_10613"/>
<feBlend mode="normal" in="SourceGraphic" in2="effect1_backgroundBlur_372_10613" result="shape"/>
</filter>
</defs>
</svg>
