<svg width="26" height="25" viewBox="0 0 26 25" fill="none" xmlns="http://www.w3.org/2000/svg">
<g clip-path="url(#clip0_703_2277)">
<path d="M22.4768 14.8229H20.0679C21.3498 14.2636 22.2487 12.9854 22.2487 11.4999C22.2487 9.50103 20.6226 7.87491 18.6236 7.87491C18.055 7.87491 17.5187 8.01017 17.0393 8.24451L15.5977 5.76525L16.4529 3.0302H17.594C17.7336 3.0302 17.8466 2.91713 17.8466 2.77767C17.8466 2.63822 17.7336 2.52515 17.594 2.52515H14.849C14.7095 2.52515 14.5965 2.63822 14.5965 2.77767C14.5965 2.91713 14.7095 3.0302 14.849 3.0302H15.9239L15.1517 5.50009H9.36433L9.91765 3.21774C9.9359 3.1424 9.91864 3.063 9.8708 3.00208C9.82296 2.94117 9.74971 2.90566 9.67228 2.90566H7.0654C7.03726 2.90566 7.01136 2.9132 6.98612 2.92167C6.16775 2.95873 5.51276 3.63428 5.51276 4.46163C5.51276 5.31266 6.20524 6.00514 7.05628 6.00514C7.19586 6.00514 7.3088 5.89207 7.3088 5.75261C7.3088 5.61316 7.19586 5.50009 7.05628 5.50009C6.48366 5.50009 6.01782 5.03425 6.01782 4.46163C6.01782 3.889 6.48366 3.42316 7.05628 3.42316C7.07816 3.42316 7.09771 3.41594 7.11799 3.41071H9.3512L8.18302 8.22911C7.71169 8.00444 7.18661 7.87491 6.63063 7.87491C4.63164 7.87491 3.00551 9.50103 3.00551 11.4999C3.00551 12.9854 3.90449 14.2636 5.18635 14.8229H2.77987C2.64029 14.8229 2.52734 14.936 2.52734 15.0755C2.52734 15.2149 2.64029 15.328 2.77987 15.328H22.4768C22.6164 15.328 22.7294 15.2149 22.7294 15.0755C22.7294 14.936 22.6164 14.8229 22.4768 14.8229ZM18.6236 8.37996C20.3439 8.37996 21.7437 9.77958 21.7437 11.4999C21.7437 13.2202 20.3439 14.6198 18.6236 14.6198C17.1429 14.6198 15.9024 13.5819 15.5849 12.1961L17.6054 11.9044C17.767 12.3097 18.1615 12.5977 18.6236 12.5977C19.229 12.5977 19.7215 12.1052 19.7215 11.4999C19.7215 10.8946 19.229 10.4021 18.6236 10.4021C18.5181 10.4021 18.4181 10.4218 18.3215 10.4497L17.2936 8.68188C17.6977 8.49033 18.1475 8.37996 18.6236 8.37996ZM15.5038 11.4999C15.5038 10.436 16.0399 9.49584 16.8552 8.93244L17.881 10.6966C17.6864 10.8767 17.5602 11.1252 17.5356 11.4042L15.5137 11.6961C15.5096 11.6309 15.5038 11.5661 15.5038 11.4999ZM18.6236 10.9072C18.9506 10.9072 19.2165 11.173 19.2165 11.4999C19.2165 11.8268 18.9506 12.0926 18.6236 12.0926C18.2969 12.0926 18.031 11.8268 18.031 11.4999C18.031 11.173 18.2969 10.9072 18.6236 10.9072ZM16.6001 8.49374C15.6348 9.14566 14.9987 10.2499 14.9987 11.4999C14.9987 11.5905 15.0058 11.6795 15.0124 11.7685L14.3384 11.8657C14.2435 11.6358 14.0729 11.4475 13.8598 11.3236L15.3935 6.41851L16.6001 8.49374ZM13.2991 11.6731C13.6407 11.6731 13.9186 11.9511 13.9186 12.2926C13.9186 12.6342 13.6407 12.9121 13.2991 12.9121C12.9576 12.9121 12.6796 12.6342 12.6796 12.2926C12.6796 11.9511 12.9576 11.6731 13.2991 11.6731ZM14.9937 6.00514L13.3769 11.176C13.3508 11.1741 13.3258 11.1681 13.2991 11.1681C13.1348 11.1681 12.9798 11.2054 12.839 11.269L9.12266 6.49707L9.24189 6.00514H14.9937ZM3.51056 11.4999C3.51056 9.77958 4.9103 8.37996 6.63063 8.37996C7.14653 8.37996 7.63235 8.50789 8.06144 8.73051L7.91669 9.32767L7.06056 10.4902C6.92841 10.4337 6.78319 10.4021 6.63063 10.4021C6.02521 10.4021 5.53274 10.8946 5.53274 11.4999C5.53274 12.1052 6.02521 12.5977 6.63063 12.5977C7.23581 12.5977 7.72828 12.1052 7.72828 11.4999C7.72828 11.2298 7.62646 10.9853 7.46404 10.7939L8.35343 9.58636C8.3734 9.55936 8.38771 9.52865 8.3956 9.4961L8.51181 9.01681C9.2626 9.58708 9.75045 10.4865 9.75045 11.4999C9.75045 13.2202 8.35096 14.6198 6.63063 14.6198C4.9103 14.6198 3.51056 13.2202 3.51056 11.4999ZM7.22323 11.4999C7.22323 11.8268 6.95739 12.0926 6.63063 12.0926C6.30363 12.0926 6.03779 11.8268 6.03779 11.4999C6.03779 11.173 6.30363 10.9072 6.63063 10.9072C6.95739 10.9072 7.22323 11.173 7.22323 11.4999ZM10.2555 11.4999C10.2555 10.2442 9.61331 9.13627 8.6406 8.48551L8.97068 7.1239L12.4388 11.5772C12.2764 11.7722 12.1746 12.0195 12.1746 12.2926C12.1746 12.9127 12.6792 13.4171 13.2991 13.4171C13.8944 13.4171 14.3783 12.9507 14.4164 12.3647L15.0826 12.2686C15.3317 13.4167 16.1254 14.363 17.1795 14.8229H8.07476C9.35653 14.2636 10.2555 12.9854 10.2555 11.4999Z" fill="#0D4689"/>
<path d="M22.4768 22.2222H2.77987C2.64029 22.2222 2.52734 22.3352 2.52734 22.4747C2.52734 22.6141 2.64029 22.7272 2.77987 22.7272H22.4768C22.6164 22.7272 22.7294 22.6141 22.7294 22.4747C22.7294 22.3352 22.6164 22.2222 22.4768 22.2222Z" fill="#0D4689"/>
<path d="M22.4768 18.5227H2.77987C2.64029 18.5227 2.52734 18.6358 2.52734 18.7752C2.52734 18.9147 2.64029 19.0278 2.77987 19.0278H22.4768C22.6164 19.0278 22.7294 18.9147 22.7294 18.7752C22.7294 18.6358 22.6164 18.5227 22.4768 18.5227Z" fill="#0D4689"/>
</g>
<defs>
<clipPath id="clip0_703_2277">
<rect width="25.2525" height="25" fill="white"/>
</clipPath>
</defs>
</svg>
