<?xml version="1.0" encoding="utf-8"?><svg viewBox="0 0 81 81" xmlns="http://www.w3.org/2000/svg" xmlns:xlink="http://www.w3.org/1999/xlink"><style>:root>svg{display:none}:root>svg:target{display:block}</style><svg fill="none" viewBox="0 0 13 8" id="css--menu-arrow" xmlns="http://www.w3.org/2000/svg"><path d="M6.5 7a.875.875 0 01-.56-.201L.69 2.424a.876.876 0 011.12-1.348l4.69 3.92 4.69-3.78a.875.875 0 011.233.131.876.876 0 01-.123 1.278L7.05 6.85A.875.875 0 016.5 7z" fill="#0D4689" fill-opacity=".43"/></svg><svg viewBox="0 0 21 19" id="sprite--like" xmlns="http://www.w3.org/2000/svg"><path d="M2.306 2.277C4.468.031 8.146.1 10.349 2.304l.46.467.458-.458C13.471.1 17.148.03 19.311 2.277a5.563 5.563 0 01-.076 7.79l-.561.562-7.585 7.584a.397.397 0 01-.564 0l-8.144-8.146a5.563 5.563 0 01-.075-7.79z"/></svg><svg viewBox="0 0 20 20" id="sprite--part" xmlns="http://www.w3.org/2000/svg"><path d="M17.401 10.939a.794.794 0 01.189.61 8.482 8.482 0 01-8.427 7.507c-4.682 0-8.491-3.77-8.491-8.406 0-4.27 3.357-7.943 7.643-8.363a.765.765 0 01.842.76v7.622h7.675c.217 0 .425.107.57.27zm1.735-2.75C18.74 4.13 15.695 1.153 11.512.761a.76.76 0 00-.83.76v6.887c0 .42.337.735.758.735h6.964a.752.752 0 00.763-.75.668.668 0 00-.031-.204z"/></svg><svg viewBox="0 0 81 81" id="sprite--percent" xmlns="http://www.w3.org/2000/svg"><path d="M53.706 17.506l.535 10.537 10.424 1.634-5.761 8.84 7.472 7.448-9.856 3.765 1.667 10.419-10.186-2.747-4.776 9.408L36.6 58.6l-9.393 4.805-.536-10.537-10.423-1.634 5.76-8.84-7.472-7.448 9.856-3.765-1.667-10.419L32.91 23.51l4.774-9.408 6.627 8.21 9.394-4.805z"/><path d="M36.478 32.673c.974.261 1.665.813 2.073 1.655.41.83.451 1.86.122 3.09-.329 1.228-.865 2.115-1.608 2.662-.728.538-1.62.665-2.674.383-.95-.255-1.624-.802-2.02-1.641-.393-.85-.425-1.89-.096-3.12.33-1.228.856-2.105 1.581-2.632.728-.538 1.602-.67 2.622-.397zm9.377 2.7L35.644 45.941l-2.521-.676 10.211-10.57 2.521.676zm-9.896-.621c-.244-.066-.457.057-.64.369-.18.3-.345.733-.498 1.301-.149.557-.222 1.015-.22 1.376.004.361.127.575.37.64.243.065.455-.052.635-.352.182-.311.35-.75.502-1.319.152-.568.226-1.027.22-1.376-.003-.36-.126-.574-.37-.64zm8.637 5.389c.974.26 1.665.812 2.073 1.655.41.83.451 1.86.122 3.089-.33 1.228-.865 2.116-1.608 2.662-.728.538-1.62.666-2.674.383-.95-.255-1.624-.801-2.02-1.64-.393-.851-.425-1.891-.096-3.12.33-1.228.856-2.106 1.581-2.632.728-.538 1.602-.67 2.622-.397zm-.52 2.078c-.243-.065-.456.058-.639.37-.18.3-.345.733-.498 1.3-.149.557-.222 1.016-.22 1.377.003.36.127.574.37.64.243.064.455-.053.635-.352.182-.312.35-.751.502-1.32.155-.579.23-1.043.224-1.393-.006-.35-.13-.556-.373-.622z" fill="#fff"/></svg></svg>