<svg width="20" height="21" viewBox="0 0 20 21" fill="none" xmlns="http://www.w3.org/2000/svg">
<path d="M15.3333 7.66667V5.29167C16.4583 5.08333 17.3333 4.125 17.3333 2.91667C17.3333 1.58333 16.25 0.5 14.9167 0.5C13.5833 0.5 12.5 1.58333 12.5 2.91667C12.5 4.125 13.375 5.08333 14.5 5.29167V7.66667C14 8.5 10.75 14.2917 10.75 16.3333C10.75 18.625 12.625 20.5 14.9167 20.5C17.2083 20.5 19.0833 18.625 19.0833 16.3333C19.0417 14.2917 15.7917 8.54167 15.3333 7.66667ZM13.3333 2.91667C13.3333 2.04167 14.0417 1.33333 14.9167 1.33333C15.7917 1.33333 16.5 2.04167 16.5 2.91667C16.5 3.79167 15.7917 4.5 14.9167 4.5C14.0417 4.5 13.3333 3.79167 13.3333 2.91667ZM14.9167 19.6667C13.0833 19.6667 11.5833 18.1667 11.5833 16.3333C11.5833 14.9167 13.7083 10.75 14.9167 8.625C16.0833 10.75 18.25 14.875 18.25 16.3333C18.2083 18.1667 16.75 19.6667 14.9167 19.6667Z" fill="#0D4689"/>
<path d="M5.49935 5.29167C6.62435 5.08333 7.49935 4.08333 7.49935 2.91667C7.49935 1.58333 6.41602 0.5 5.08268 0.5C3.74935 0.5 2.66602 1.58333 2.66602 2.91667C2.66602 4.125 3.54102 5.08333 4.66602 5.29167V7.66667C4.16602 8.5 0.916016 14.2917 0.916016 16.3333C0.916016 18.625 2.79102 20.5 5.08268 20.5C7.37435 20.5 9.24935 18.625 9.24935 16.3333C9.24935 14.2917 5.99935 8.5 5.49935 7.66667V5.29167ZM3.49935 2.91667C3.49935 2.04167 4.20768 1.33333 5.08268 1.33333C5.95768 1.33333 6.66602 2.04167 6.66602 2.91667C6.66602 3.79167 5.95768 4.5 5.08268 4.5C4.20768 4.5 3.49935 3.79167 3.49935 2.91667ZM5.08268 19.6667C3.24935 19.6667 1.74935 18.1667 1.74935 16.3333C1.74935 14.9167 3.87435 10.75 5.08268 8.625C6.24935 10.75 8.41602 14.875 8.41602 16.3333C8.41602 18.1667 6.91602 19.6667 5.08268 19.6667Z" fill="#0D4689"/>
</svg>
