<svg width="23" height="21" viewBox="0 0 23 21" fill="none" xmlns="http://www.w3.org/2000/svg">
<path d="M1.21921 16.1085H9.12865L8.43919 18.3695H6.57476C6.39531 18.3695 6.25009 18.5149 6.25009 18.6942V19.7066C6.25009 19.8859 6.39531 20.0313 6.57476 20.0313H16.646C16.8255 20.0313 16.9707 19.8859 16.9707 19.7066V18.6942C16.9707 18.5149 16.8255 18.3695 16.646 18.3695H14.7816L14.0922 16.1085H22.0016C22.1811 16.1085 22.3263 15.9632 22.3263 15.7839V14.0693V0.91696C22.3263 0.73766 22.1811 0.592285 22.0016 0.592285H1.21921C1.03975 0.592285 0.894531 0.73766 0.894531 0.91696V14.0693V15.7839C0.894531 15.9632 1.03975 16.1085 1.21921 16.1085ZM14.5414 19.019C14.5417 19.019 14.5421 19.0189 14.5424 19.0189H16.3214V19.3819H6.89944V19.0189H8.6784C8.67875 19.0189 8.67909 19.019 8.67945 19.019C8.67978 19.019 8.6801 19.0189 8.68044 19.0189H14.5404C14.5407 19.0189 14.541 19.019 14.5414 19.019ZM14.1031 18.3695H9.11771L9.80717 16.1085H13.4136L14.1031 18.3695ZM1.54388 1.24164H21.6769V13.7446H1.54388V1.24164ZM1.54388 14.394H21.6769V15.4592H1.54388V14.394Z" fill="#0D4689"/>
</svg>
