<svg width="42" height="42" viewBox="0 0 42 42" fill="none" xmlns="http://www.w3.org/2000/svg">
<circle cx="21" cy="21" r="21" fill="#C83138"/>
<path fill-rule="evenodd" clip-rule="evenodd" d="M20.5002 33.1877C20.7405 33.1877 20.971 33.0922 21.141 32.9222C21.3109 32.7523 21.4064 32.5218 21.4064 32.2814V10.9066L27.1085 16.6105C27.2787 16.7807 27.5095 16.8763 27.7502 16.8763C27.9908 16.8763 28.2216 16.7807 28.3918 16.6105C28.562 16.4404 28.6576 16.2096 28.6576 15.9689C28.6576 15.7282 28.562 15.4974 28.3918 15.3273L21.1418 8.07728C21.0576 7.99288 20.9576 7.92593 20.8475 7.88024C20.7374 7.83455 20.6194 7.81104 20.5002 7.81104C20.381 7.81104 20.2629 7.83455 20.1528 7.88024C20.0427 7.92593 19.9427 7.99288 19.8585 8.07728L12.6085 15.3273C12.5243 15.4115 12.4574 15.5116 12.4118 15.6217C12.3662 15.7317 12.3428 15.8497 12.3428 15.9689C12.3428 16.2096 12.4384 16.4404 12.6085 16.6105C12.7787 16.7807 13.0095 16.8763 13.2502 16.8763C13.4908 16.8763 13.7216 16.7807 13.8918 16.6105L19.5939 10.9066V32.2814C19.5939 32.5218 19.6894 32.7523 19.8594 32.9222C20.0293 33.0922 20.2598 33.1877 20.5002 33.1877Z" fill="white"/>
</svg>
