<svg width="475" height="122" viewBox="0 0 475 122" fill="none" xmlns="http://www.w3.org/2000/svg">
<path fill-rule="evenodd" clip-rule="evenodd" d="M0.857422 5.57486C0.857422 2.49595 3.35337 0 6.43228 0C9.51119 0 12.0071 2.49595 12.0071 5.57486C12.0071 8.65377 9.51119 11.1497 6.43228 11.1497C3.35337 11.1497 0.857422 8.65377 0.857422 5.57486ZM0.857422 39.8817C0.857422 36.8028 3.35337 34.3068 6.43228 34.3068C9.51119 34.3068 12.0071 36.8028 12.0071 39.8817C12.0071 42.9606 9.51119 45.4566 6.43228 45.4566C3.35337 45.4566 0.857422 42.9606 0.857422 39.8817ZM12.8648 67.756C10.0227 67.756 7.71879 70.06 7.71879 72.902C7.71879 75.7441 10.0227 78.0481 12.8648 78.0481C15.7069 78.0481 18.0108 75.7441 18.0108 72.902C18.0108 70.06 15.7069 67.756 12.8648 67.756ZM37.7363 87.4825C37.7363 84.6404 40.0403 82.3364 42.8824 82.3364C45.7244 82.3364 48.0284 84.6404 48.0284 87.4825C48.0284 90.3245 45.7244 92.6285 42.8824 92.6285C40.0403 92.6285 37.7363 90.3245 37.7363 87.4825ZM80.1918 85.7671C77.5866 85.7671 75.4746 87.879 75.4746 90.4843C75.4746 93.0895 77.5866 95.2015 80.1918 95.2015C82.797 95.2015 84.909 93.0895 84.909 90.4843C84.909 87.879 82.797 85.7671 80.1918 85.7671ZM117.93 85.7671C115.325 85.7671 113.213 87.879 113.213 90.4843C113.213 93.0895 115.325 95.2015 117.93 95.2015C120.535 95.2015 122.647 93.0895 122.647 90.4843C122.647 87.879 120.535 85.7671 117.93 85.7671ZM150.949 90.9131C150.949 88.5447 152.869 86.6248 155.238 86.6248C157.606 86.6248 159.526 88.5447 159.526 90.9131C159.526 93.2815 157.606 95.2015 155.238 95.2015C152.869 95.2015 150.949 93.2815 150.949 90.9131ZM192.976 86.6248C190.607 86.6248 188.688 88.5447 188.688 90.9131C188.688 93.2815 190.607 95.2015 192.976 95.2015C195.344 95.2015 197.264 93.2815 197.264 90.9131C197.264 88.5447 195.344 86.6248 192.976 86.6248ZM226.426 90.9131C226.426 88.5447 228.346 86.6248 230.714 86.6248C233.083 86.6248 235.002 88.5447 235.002 90.9131C235.002 93.2815 233.083 95.2015 230.714 95.2015C228.346 95.2015 226.426 93.2815 226.426 90.9131ZM268.022 86.6248C265.89 86.6248 264.162 88.3527 264.162 90.4843C264.162 92.6158 265.89 94.3438 268.022 94.3438C270.153 94.3438 271.881 92.6158 271.881 90.4843C271.881 88.3527 270.153 86.6248 268.022 86.6248ZM301.9 90.4843C301.9 88.3527 303.628 86.6248 305.76 86.6248C307.891 86.6248 309.619 88.3527 309.619 90.4843C309.619 92.6158 307.891 94.3438 305.76 94.3438C303.628 94.3438 301.9 92.6158 301.9 90.4843ZM343.496 86.6248C341.365 86.6248 339.637 88.3527 339.637 90.4843C339.637 92.6158 341.365 94.3438 343.496 94.3438C345.628 94.3438 347.356 92.6158 347.356 90.4843C347.356 88.3527 345.628 86.6248 343.496 86.6248ZM377.375 90.0555C377.375 88.1607 378.911 86.6248 380.806 86.6248C382.7 86.6248 384.236 88.1607 384.236 90.0555C384.236 91.9502 382.7 93.4861 380.806 93.4861C378.911 93.4861 377.375 91.9502 377.375 90.0555ZM418.544 87.4824C416.649 87.4824 415.113 89.0184 415.113 90.9131C415.113 92.8078 416.649 94.3438 418.544 94.3438C420.439 94.3438 421.975 92.8078 421.975 90.9131C421.975 89.0184 420.439 87.4824 418.544 87.4824ZM449.42 92.1996C449.42 90.5417 450.764 89.1978 452.422 89.1978C454.08 89.1978 455.424 90.5417 455.424 92.1996C455.424 93.8575 454.08 95.2015 452.422 95.2015C450.764 95.2015 449.42 93.8575 449.42 92.1996ZM472.427 116.066C471.005 116.066 469.854 117.218 469.854 118.639C469.854 120.06 471.005 121.212 472.427 121.212C473.848 121.212 475 120.06 475 118.639C475 117.218 473.848 116.066 472.427 116.066Z" fill="url(#paint0_linear_444_349)"/>
<defs>
<linearGradient id="paint0_linear_444_349" x1="11.5585" y1="-2.05007e-05" x2="434.996" y2="175.94" gradientUnits="userSpaceOnUse">
<stop stop-color="#C6C3C3" stop-opacity="0.53"/>
<stop offset="1" stop-color="#70AAEF" stop-opacity="0.25"/>
</linearGradient>
</defs>
</svg>
