<svg width="27" height="21" viewBox="0 0 27 21" fill="none" xmlns="http://www.w3.org/2000/svg">
<path d="M25.6274 0.0749512H1.90127C1.39451 0.0749512 0.982422 0.487305 0.982422 0.9938V15.6973C0.982422 16.2041 1.39454 16.6162 1.90127 16.6162H10.172V18.5075H5.49372C5.17135 18.5075 4.90888 18.77 4.90888 19.0923V19.7606C4.90888 20.083 5.17134 20.3455 5.49372 20.3455H24.107C24.5033 20.3455 24.8254 20.0247 24.8254 19.6303V16.6161L25.6273 16.6164C26.1341 16.6164 26.5462 16.2042 26.5462 15.6975V0.99401C26.5462 0.487485 26.1338 0.0751601 25.6273 0.0751601L25.6274 0.0749512ZM1.90127 16.1151C1.67097 16.1151 1.48356 15.9277 1.48356 15.6974V14.0531H19.6594V16.1149H17.1119C17.1101 16.1149 17.1084 16.114 17.1063 16.114H10.4229C10.4208 16.114 10.4192 16.1151 10.4173 16.1151L1.90127 16.1151ZM19.6594 16.6163V18.5076H17.3569V16.6163H19.6594ZM16.8558 16.6163V18.5076H10.6736V16.6163H16.8558ZM5.49396 19.8445C5.44711 19.8445 5.41051 19.8077 5.41051 19.7611V19.0928C5.41051 19.0473 5.44874 19.0093 5.49396 19.0093H10.4172C10.4193 19.0093 10.421 19.0105 10.4228 19.0105H17.1063C17.1083 19.0105 17.11 19.0093 17.1118 19.0093H19.6594V19.6308C19.6594 19.6972 19.6715 19.7604 19.6885 19.8214C19.6906 19.8289 19.6897 19.8373 19.692 19.8445L5.49396 19.8445ZM24.3245 13.8026V19.6305C24.3245 19.7485 24.227 19.8445 24.1072 19.8445H20.3779C20.2581 19.8445 20.1606 19.7485 20.1606 19.6305V10.5375C20.1606 10.4177 20.2581 10.3202 20.3779 10.3202H24.1072C24.227 10.3202 24.3245 10.4177 24.3245 10.5375V13.8026ZM26.0454 15.6974C26.0454 15.9277 25.858 16.1152 25.6277 16.1152H24.8258L24.8256 14.0531H26.0454L26.0454 15.6974ZM26.0454 13.552H24.8258V10.5378C24.8258 10.1415 24.5035 9.81939 24.1074 9.81939H20.3779C19.9816 9.81939 19.6594 10.1418 19.6594 10.5378V13.552H1.48356V0.993765C1.48356 0.763462 1.67097 0.576052 1.90127 0.576052H25.6274C25.8577 0.576052 26.0451 0.763462 26.0451 0.993765L26.0454 13.552Z" fill="#0D4689"/>
<path d="M17.3336 6.8384L10.4235 3.3832C10.3459 3.34427 10.2535 3.34846 10.1794 3.39415C10.1058 3.43984 10.0605 3.52073 10.0605 3.60744V10.5212C10.0605 10.6079 10.1055 10.6888 10.1794 10.7345C10.2195 10.7592 10.2652 10.7718 10.3111 10.7718C10.3496 10.7718 10.3881 10.7629 10.4232 10.7454L17.334 7.28646C17.4191 7.2438 17.4725 7.15709 17.4725 7.06222C17.4725 6.96735 17.4189 6.88064 17.334 6.83821L17.3336 6.8384ZM10.5619 10.1155V4.01275L16.6617 7.06259L10.5619 10.1155Z" fill="#0D4689"/>
<path d="M12.4893 15.7935H15.0372C15.4289 15.7935 15.7472 15.4751 15.7472 15.0835C15.7472 14.6919 15.4288 14.3735 15.0372 14.3735H12.4893C12.0977 14.3735 11.7793 14.6919 11.7793 15.0835C11.7793 15.4749 12.0977 15.7935 12.4893 15.7935ZM12.4893 14.8744H15.0372C15.1524 14.8744 15.2461 14.9681 15.2461 15.0833C15.2461 15.1984 15.1524 15.2921 15.0372 15.2921H12.4893C12.3741 15.2921 12.2804 15.1984 12.2804 15.0833C12.2804 14.9681 12.3741 14.8744 12.4893 14.8744Z" fill="#0D4689"/>
<path d="M5.52249 14.3733C5.13089 14.3733 4.8125 14.6917 4.8125 15.0833C4.8125 15.4749 5.13091 15.7933 5.52249 15.7933C5.91408 15.7933 6.23249 15.4749 6.23249 15.0833C6.23272 14.6917 5.91408 14.3733 5.52249 14.3733ZM5.52249 15.2921C5.40734 15.2921 5.31364 15.1984 5.31364 15.0833C5.31364 14.9681 5.40734 14.8744 5.52249 14.8744C5.63765 14.8744 5.73135 14.9681 5.73135 15.0833C5.73135 15.1984 5.63765 15.2921 5.52249 15.2921Z" fill="#0D4689"/>
<path d="M3.57523 14.3733C3.18362 14.3733 2.86523 14.6917 2.86523 15.0833C2.86523 15.4749 3.18365 15.7933 3.57523 15.7933C3.96681 15.7933 4.28522 15.4749 4.28522 15.0833C4.28546 14.6917 3.96681 14.3733 3.57523 14.3733ZM3.57523 15.2921C3.46008 15.2921 3.36637 15.1984 3.36637 15.0833C3.36637 14.9681 3.46008 14.8744 3.57523 14.8744C3.69038 14.8744 3.78409 14.9681 3.78409 15.0833C3.78409 15.1984 3.69038 15.2921 3.57523 15.2921Z" fill="#0D4689"/>
<path d="M23.1718 12.4094C23.1718 11.8952 22.755 11.4771 22.2429 11.4771C21.7287 11.4771 21.3105 11.8952 21.3105 12.4094C21.3105 12.9216 21.7287 13.3383 22.2429 13.3383C22.7551 13.3383 23.1718 12.9218 23.1718 12.4094ZM22.2429 12.8372C22.0052 12.8372 21.8119 12.6453 21.8119 12.4094C21.8119 12.1717 22.0054 11.9784 22.2429 11.9784C22.4786 11.9784 22.6707 12.1719 22.6707 12.4094C22.6704 12.6453 22.4786 12.8372 22.2429 12.8372Z" fill="#0D4689"/>
<path d="M21.3628 13.8962C20.9591 13.8962 20.6309 14.2244 20.6309 14.628C20.6309 15.0317 20.9591 15.3599 21.3628 15.3599C21.7663 15.3599 22.0945 15.0317 22.0945 14.628C22.0948 14.2247 21.7663 13.8962 21.3628 13.8962ZM21.3628 14.859C21.2355 14.859 21.132 14.7555 21.132 14.6282C21.132 14.499 21.2334 14.3976 21.3628 14.3976C21.4899 14.3976 21.5933 14.5011 21.5933 14.6282C21.5936 14.7531 21.488 14.859 21.3628 14.859Z" fill="#0D4689"/>
<path d="M23.1204 13.8962C22.7169 13.8962 22.3887 14.2244 22.3887 14.628C22.3887 15.0317 22.7169 15.3599 23.1204 15.3599C23.5239 15.3599 23.8521 15.0317 23.8521 14.628C23.8521 14.2247 23.5239 13.8962 23.1204 13.8962ZM23.1204 14.859C22.9955 14.859 22.8899 14.7531 22.8899 14.6282C22.8899 14.5011 22.9934 14.3976 23.1204 14.3976C23.2474 14.3976 23.3509 14.5011 23.3509 14.6282C23.3509 14.7531 23.2454 14.859 23.1204 14.859Z" fill="#0D4689"/>
<path d="M21.3628 15.5608C20.9591 15.5608 20.6309 15.889 20.6309 16.2927C20.6309 16.327 20.6351 16.3664 20.6402 16.4023C20.6917 16.7571 21.0022 17.0247 21.3628 17.0247C21.7232 17.0247 22.0339 16.7571 22.0854 16.4012C22.0903 16.3667 22.0945 16.3273 22.0945 16.293C22.0947 15.889 21.7663 15.5608 21.3627 15.5608L21.3628 15.5608ZM21.5894 16.33C21.5733 16.4401 21.4759 16.5233 21.3628 16.5233C21.2495 16.5233 21.1521 16.4403 21.1363 16.3314C21.1346 16.3191 21.1323 16.3051 21.1321 16.2927C21.1321 16.1655 21.2356 16.062 21.3628 16.062C21.4878 16.062 21.5934 16.1676 21.5934 16.2927C21.5934 16.3051 21.5908 16.3191 21.5894 16.33L21.5894 16.33Z" fill="#0D4689"/>
<path d="M23.1204 15.5608C22.7169 15.5608 22.3887 15.889 22.3887 16.2927C22.3887 16.3277 22.3929 16.3676 22.398 16.4023C22.4493 16.7568 22.7598 17.0245 23.1204 17.0245C23.4807 17.0245 23.7915 16.7569 23.843 16.4025C23.8481 16.3676 23.8523 16.3277 23.8523 16.2927C23.8521 15.889 23.5238 15.5608 23.1203 15.5608L23.1204 15.5608ZM23.3468 16.33C23.3309 16.4403 23.2335 16.5233 23.1204 16.5233C23.0073 16.5233 22.9099 16.4403 22.8938 16.3298C22.892 16.3182 22.8899 16.3044 22.8899 16.2927C22.8899 16.1678 22.9955 16.062 23.1204 16.062C23.2454 16.062 23.3509 16.1678 23.3509 16.2927C23.3509 16.3044 23.3486 16.3179 23.3468 16.33Z" fill="#0D4689"/>
<path d="M21.3628 17.2251C20.9591 17.2251 20.6309 17.5533 20.6309 17.9568C20.6309 18.3603 20.9591 18.6885 21.3628 18.6885C21.7663 18.6885 22.0945 18.3603 22.0945 17.9568C22.0948 17.5533 21.7663 17.2251 21.3628 17.2251ZM21.3628 18.1873C21.2334 18.1873 21.132 18.0859 21.132 17.9568C21.132 17.8298 21.2355 17.7263 21.3628 17.7263C21.4878 17.7263 21.5933 17.8319 21.5933 17.9568C21.5936 18.0838 21.4901 18.1873 21.3628 18.1873Z" fill="#0D4689"/>
<path d="M23.1204 17.2251C22.7169 17.2251 22.3887 17.5533 22.3887 17.9568C22.3884 18.3603 22.7169 18.6888 23.1204 18.6888C23.5239 18.6888 23.8521 18.3606 23.8521 17.9571C23.8521 17.5533 23.5239 17.2251 23.1204 17.2251ZM23.1204 18.1873C22.9934 18.1873 22.8899 18.0838 22.8899 17.9568C22.8899 17.8319 22.9955 17.7263 23.1204 17.7263C23.2454 17.7263 23.3509 17.8319 23.3509 17.9568C23.3509 18.0838 23.2474 18.1873 23.1204 18.1873Z" fill="#0D4689"/>
</svg>
