<svg width="70" height="70" viewBox="0 0 70 70" fill="none" xmlns="http://www.w3.org/2000/svg">
<g clip-path="url(#clip0_844_2913)">
<path d="M5.73636 21.786C8.48353 20.7916 11.2299 19.7972 13.9771 18.8029C18.3483 17.2211 22.7187 15.6385 27.0899 14.0567C28.0831 13.6972 29.077 13.3378 30.0702 12.9775C30.5325 12.8102 30.3908 11.7365 29.8646 11.9271C27.1175 12.9215 24.3711 13.9159 21.6239 14.9102C17.2527 16.492 12.8823 18.0746 8.5111 19.6564C7.51793 20.0159 6.52397 20.3753 5.5308 20.7356C5.06926 20.9029 5.21024 21.9758 5.73636 21.786Z" fill="#4A8FE0"/>
<path d="M39.6055 9.88143C42.3527 8.88706 45.099 7.8927 47.8462 6.89833C52.2174 5.31653 56.5878 3.73395 60.9591 2.15215C61.9522 1.79268 62.9462 1.43322 63.9393 1.07297C64.4017 0.905691 64.2599 -0.168036 63.7338 0.0225894C60.9866 1.01695 58.2402 2.01132 55.4931 3.00568C51.1219 4.58749 46.7514 6.17007 42.3802 7.75187C41.3871 8.11134 40.3931 8.4708 39.3999 8.83104C38.9384 8.99833 39.0794 10.0713 39.6055 9.88143Z" fill="#4A8FE0"/>
<path d="M34.2496 16.3723C34.2496 18.1238 34.2496 19.8761 34.2496 21.6276C34.2496 25.8343 34.2496 30.0409 34.2496 34.2483C34.2496 39.3365 34.2496 44.4247 34.2496 49.5137C34.2496 53.91 34.2496 58.3071 34.2496 62.7034C34.2496 64.8335 34.1933 66.9683 34.2496 69.0977C34.2507 69.1265 34.2496 69.1552 34.2496 69.184C34.2496 69.5159 34.4821 69.9933 35.0024 70.0003C35.5247 70.0073 35.7551 69.5004 35.7551 69.184C35.7551 67.4325 35.7551 65.6802 35.7551 63.9286C35.7551 59.722 35.7551 55.5154 35.7551 51.308C35.7551 46.2198 35.7551 41.1316 35.7551 36.0426C35.7551 31.6462 35.7551 27.2492 35.7551 22.8528C35.7551 20.7227 35.8115 18.5879 35.7551 16.4586C35.7541 16.4298 35.7551 16.401 35.7551 16.3723C35.7551 16.0403 35.5226 15.563 35.0024 15.556C34.4801 15.549 34.2496 16.0566 34.2496 16.3723Z" fill="#4A8FE0"/>
<path d="M39.0264 11.2749C39.0059 12.9929 37.8576 14.4969 36.2304 15.0727C34.5709 15.6601 32.6232 15.1738 31.4772 13.8386C30.362 12.5385 30.1808 10.6501 31.1149 9.19905C32.0656 7.72384 33.8881 6.96368 35.6255 7.30836C37.537 7.68727 39.0036 9.33677 39.0264 11.2749C39.0288 11.4959 39.1438 11.8149 39.4123 11.8196C39.6778 11.8242 39.8006 11.4858 39.7983 11.2749C39.7738 9.17026 38.5145 7.19009 36.484 6.44471C34.4882 5.71177 32.2373 6.36612 30.8991 7.97983C29.5114 9.65266 29.3798 12.0927 30.4628 13.9476C31.515 15.7496 33.6636 16.712 35.7263 16.3121C38.1427 15.8437 39.7699 13.6581 39.7983 11.2741C39.8006 11.0532 39.6778 10.7342 39.4123 10.7295C39.143 10.7256 39.0288 11.0641 39.0264 11.2749Z" fill="#4A8FE0"/>
<path d="M33.6948 7.77785C32.5915 7.80357 31.8957 8.69738 31.4315 9.45799C30.8451 10.4225 31.1453 11.3604 31.7167 12.2653C31.8861 12.5326 32.2742 12.4738 32.4597 12.2653C32.6966 11.9979 32.6312 11.6277 32.4597 11.3558C32.33 11.151 32.1595 10.8864 32.1445 10.6494C32.1273 10.3922 32.2967 10.1727 32.4522 9.96322C32.7492 9.56455 33.0826 9.07768 33.6958 9.06299C34.4024 9.04829 34.3991 7.76223 33.6948 7.77785Z" fill="#4A8FE0"/>
<path d="M16.3926 69.9633C17.6039 69.9633 18.8145 69.9633 20.0258 69.9633C22.9344 69.9633 25.8431 69.9633 28.7525 69.9633C32.2723 69.9633 35.7921 69.9633 39.3127 69.9633C42.3576 69.9633 45.4017 69.9633 48.4466 69.9633C49.921 69.9633 51.4221 70.0458 52.895 69.9633C52.9162 69.9618 52.9375 69.9633 52.9596 69.9633C53.477 69.9633 53.4786 68.8741 52.9596 68.8741C51.7482 68.8741 50.5377 68.8741 49.3263 68.8741C46.4177 68.8741 43.5091 68.8741 40.5997 68.8741C37.0798 68.8741 33.56 68.8741 30.0394 68.8741C26.9946 68.8741 23.9505 68.8741 20.9056 68.8741C19.4312 68.8741 17.93 68.7916 16.4572 68.8741C16.4359 68.8756 16.4146 68.8741 16.3926 68.8741C15.8751 68.8741 15.8736 69.9633 16.3926 69.9633Z" fill="#4A8FE0"/>
<path d="M43.9414 37.7063C46.839 37.7063 49.7374 37.7063 52.635 37.7063C57.2181 37.7063 61.802 37.7063 66.385 37.7063C67.4357 37.7063 68.4864 37.7063 69.537 37.7063C70.0545 37.7063 70.0561 36.6171 69.537 36.6171C66.6394 36.6171 63.741 36.6171 60.8434 36.6171C56.2604 36.6171 51.6765 36.6171 47.0934 36.6171C46.0428 36.6171 44.9921 36.6171 43.9414 36.6171C43.424 36.6171 43.4224 37.7063 43.9414 37.7063Z" fill="#4A8FE0"/>
<path d="M12.9508 22.7014C12.668 22.7139 12.4034 22.8174 12.1222 22.8291C11.9607 22.8361 11.8465 22.9582 11.789 23.099C11.637 23.471 11.4472 23.825 11.2519 24.1759C11.0542 24.5315 10.9219 24.8614 10.7966 25.2488C10.5163 26.1171 10.213 26.9777 9.89327 27.8328C9.26712 29.5072 8.57639 31.1574 7.85179 32.7921C6.36086 36.1565 4.72815 39.4563 3.20807 42.8074C2.46851 44.4374 1.73604 46.0776 1.10438 47.7512C0.489258 49.3797 -0.0100842 51.0938 0.000154697 52.8467C0.0182696 56.0306 1.92112 58.809 4.5533 60.5262C5.90247 61.4062 7.39734 62.0434 8.93948 62.511C10.5856 63.0106 12.3278 63.3335 14.055 63.2105C17.3771 62.9748 20.0132 60.8787 22.3863 58.753C23.4826 57.7711 24.5341 56.6958 25.2382 55.3972C26.0006 53.9913 26.1904 52.4312 25.8596 50.8736C25.4926 49.1455 24.69 47.5084 24.0198 45.8807C23.3109 44.1597 22.6013 42.4378 21.8924 40.7167C20.4732 37.2746 19.0531 33.8324 17.6323 30.3918C16.9447 28.7268 16.2611 27.0586 15.4861 25.4301C15.3002 25.0403 15.1151 24.6505 14.9229 24.2638C14.7575 23.9308 14.5882 23.5355 14.296 23.2897C13.8785 22.9388 13.1752 22.5949 12.6184 22.5863C11.93 22.5762 11.6079 23.2453 11.3976 23.7993C11.3086 24.0327 11.3212 24.3766 11.5362 24.5447C11.7402 24.7042 11.982 24.5665 12.0639 24.3494C12.1403 24.1494 12.2592 23.7798 12.4664 23.6888C12.6924 23.5892 13.0626 23.7713 13.2619 23.8639C13.5052 23.9775 13.8124 24.1059 13.9809 24.3159C14.2361 24.6342 14.3818 25.0753 14.559 25.4395C15.2915 26.9466 15.95 28.484 16.5911 30.0308C17.9237 33.2481 19.2492 36.4685 20.5771 39.6881C21.8885 42.8688 23.2534 46.034 24.5057 49.2381C25.0681 50.6759 25.5312 52.2336 25.0499 53.7602C24.642 55.0549 23.7315 56.1473 22.773 57.0879C21.7436 58.0987 20.6228 59.0494 19.4603 59.9069C18.2316 60.8125 16.8833 61.5774 15.3797 61.9275C13.7817 62.2994 12.0734 62.171 10.4855 61.8139C8.98437 61.4762 7.50131 60.9643 6.13166 60.2663C3.56564 58.9584 1.2682 56.7106 0.84053 53.7788C0.605036 52.1651 0.9949 50.5141 1.52102 48.9938C2.07156 47.4034 2.75914 45.8558 3.44357 44.3184C6.2057 38.111 9.45851 32.0872 11.5283 25.6005C11.7481 24.9111 12.1836 24.3183 12.4577 23.6476C12.3467 23.7378 12.2356 23.8273 12.1246 23.9176C12.4073 23.9051 12.6719 23.8024 12.9531 23.79C13.4706 23.7682 13.4658 22.6797 12.9508 22.7014Z" fill="#4A8FE0"/>
<path d="M57.5877 7.24008C55.8101 6.63785 54.783 9.03896 54.2105 10.259C53.4583 11.8594 52.881 13.5315 52.3005 15.1973C51.7106 16.8919 51.116 18.5889 50.337 20.2104C49.5148 21.9206 48.5846 23.5732 47.8064 25.3051C47.018 27.0597 46.2777 28.8352 45.5208 30.603C44.7923 32.3038 43.8763 34.0319 43.5786 35.872C43.3344 37.3783 43.4927 38.9282 44.1 40.3358C44.6733 41.6639 45.5909 42.8108 46.6392 43.8051C47.7797 44.8874 49.0942 45.8476 50.4355 46.6723C51.1601 47.1181 51.9122 47.5251 52.7203 47.8021C53.5229 48.0775 54.3609 48.1942 55.206 48.2518C58.4706 48.4751 61.6982 47.6496 64.4218 45.8538C65.8024 44.9435 67.1539 43.7981 68.1251 42.4599C69.045 41.1924 69.8003 39.6036 69.972 38.0428C70.0681 37.1667 69.9043 36.3739 69.6704 35.5312C69.4199 34.6256 69.1261 33.7316 68.7977 32.8508C68.1448 31.0978 67.3658 29.3946 66.6026 27.6868C65.0251 24.1521 63.5058 20.587 62.155 16.9604C61.4989 15.1989 60.8484 13.4358 60.1829 11.6774C59.7576 10.5538 59.422 9.39298 58.7762 8.36593C58.4848 7.90065 58.1036 7.46494 57.5877 7.24008C56.8316 6.91095 56.6008 8.51921 57.2798 8.81565C57.6224 8.96504 57.8925 9.37741 58.0989 9.761C58.3643 10.2527 58.5643 10.7849 58.7557 11.3078C59.2354 12.6173 59.7434 13.9159 60.2215 15.2261C61.4824 18.6838 62.8182 22.1026 64.276 25.4841C65.6701 28.7169 67.2823 31.8953 68.3432 35.2558C68.559 35.9405 68.8575 36.7162 68.8552 37.4281C68.8528 38.0872 68.637 38.7384 68.3873 39.3422C67.8163 40.7217 66.9563 41.8787 65.8402 42.8769C63.568 44.91 60.8279 46.2864 57.7515 46.5852C56.2527 46.7307 54.5964 46.7353 53.1535 46.2669C51.6334 45.7736 50.3244 44.84 49.0556 43.904C47.0322 42.4116 44.9616 40.4758 44.6513 37.8615C44.478 36.3972 44.9829 35.0208 45.5492 33.6934C46.2777 31.9871 47.0102 30.2816 47.7403 28.5761C48.4405 26.9406 49.143 25.3051 49.955 23.7202C50.7466 22.1742 51.5633 20.6554 52.2021 19.0386C52.818 17.4786 53.3339 15.8836 53.9033 14.3072C54.4562 12.7744 55.0335 11.1887 55.8747 9.78279C56.144 9.33229 56.6552 8.60169 57.2798 8.81332C58.0752 9.08486 58.2879 7.47738 57.5877 7.24008Z" fill="#4A8FE0"/>
<path d="M61.6419 25.7528C60.5503 26.8312 59.4586 27.9096 58.367 28.988C56.6162 30.7176 54.8653 32.4472 53.1153 34.1761C52.7152 34.5713 52.315 34.9666 51.9149 35.3619C51.7228 35.5517 51.4707 35.3541 51.3872 35.1666C51.277 34.9199 51.3353 34.6095 51.5259 34.4212C52.6175 33.3428 53.7091 32.2644 54.8007 31.186C56.5516 29.4564 58.3024 27.7267 60.0525 25.9979C60.4526 25.6026 60.8527 25.2074 61.2528 24.8121C61.445 24.6222 61.697 24.8199 61.7805 25.0074C61.8908 25.2548 61.8325 25.5645 61.6419 25.7528Z" fill="#4A8FE0"/>
<path d="M0.503918 52.8361C3.29519 52.8361 6.08646 52.8361 8.87695 52.8361C13.3183 52.8361 17.7604 52.8361 22.2017 52.8361C23.2122 52.8361 24.2219 52.8361 25.2324 52.8361C25.7498 52.8361 25.7514 51.7468 25.2324 51.7468C22.4411 51.7468 19.6498 51.7468 16.8593 51.7468C12.418 51.7468 7.97593 51.7468 3.53462 51.7468C2.52413 51.7468 1.51442 51.7468 0.503918 51.7468C-0.0135389 51.7468 -0.0151141 52.8361 0.503918 52.8361Z" fill="#4A8FE0"/>
<path d="M52.0019 25.68C52.0499 27.3241 54.8861 27.3287 54.8861 25.68C54.8861 24.0321 52.0499 24.0352 52.0019 25.68C51.9956 25.901 51.8877 26.22 51.6159 26.2247C51.3529 26.2293 51.2237 25.8909 51.23 25.68C51.2576 24.7378 51.7569 23.8275 52.6776 23.4727C53.5653 23.1303 54.5584 23.4408 55.1436 24.1659C56.4022 25.7244 55.1507 28.4079 53.0242 27.9846C51.916 27.7637 51.2615 26.7499 51.23 25.6808C51.2237 25.4598 51.3537 25.1408 51.6159 25.1362C51.8877 25.1307 51.9956 25.4692 52.0019 25.68Z" fill="#4A8FE0"/>
<path d="M58.2265 35.5736C58.2745 37.2176 61.1107 37.2223 61.1107 35.5736C61.1107 33.9249 58.2745 33.9288 58.2265 35.5736C58.2202 35.7945 58.1123 36.1135 57.8405 36.1182C57.5775 36.1229 57.4483 35.7844 57.4546 35.5736C57.4822 34.6313 57.9815 33.721 58.9022 33.3662C59.7899 33.0239 60.783 33.3343 61.3682 34.0595C62.6268 35.6179 61.3753 38.3015 59.2488 37.8782C58.1406 37.6572 57.4861 36.6434 57.4546 35.5744C57.4483 35.3534 57.5783 35.0344 57.8405 35.0297C58.1123 35.0243 58.2202 35.3627 58.2265 35.5736Z" fill="#4A8FE0"/>
<path d="M11.4336 36.2835C11.4336 38.4675 11.4336 40.6515 11.4336 42.8355C11.4336 46.3143 11.4336 49.793 11.4336 53.2717C11.4336 54.0669 11.4336 54.8621 11.4336 55.6572C11.4336 56.3303 12.2054 56.3326 12.2054 55.6572C12.2054 53.4732 12.2054 51.2892 12.2054 49.1052C12.2054 45.6265 12.2054 42.1477 12.2054 38.669C12.2054 37.8738 12.2054 37.0787 12.2054 36.2835C12.2054 35.6105 11.4336 35.6081 11.4336 36.2835Z" fill="#4A8FE0"/>
<path d="M14.5039 36.2835C14.5039 38.4675 14.5039 40.6515 14.5039 42.8355C14.5039 46.3143 14.5039 49.793 14.5039 53.2717C14.5039 54.0669 14.5039 54.8621 14.5039 55.6572C14.5039 56.3303 15.2758 56.3326 15.2758 55.6572C15.2758 53.4732 15.2758 51.2892 15.2758 49.1052C15.2758 45.6265 15.2758 42.1477 15.2758 38.669C15.2758 37.8738 15.2758 37.0787 15.2758 36.2835C15.2758 35.6105 14.5039 35.6081 14.5039 36.2835Z" fill="#4A8FE0"/>
<path d="M18.6525 40.1611C17.1048 38.2214 14.4892 37.5943 12.1201 38.1856C10.3133 38.6369 8.08358 39.8841 8.43643 42.0456C8.63569 43.2687 9.55719 44.5595 10.678 45.1166C11.3017 45.4262 12.0137 45.5149 12.6958 45.6145C13.4574 45.7258 14.2041 45.8861 14.9365 46.1226C15.6328 46.3475 16.3464 46.6128 16.9749 46.9894C17.4679 47.285 17.998 47.713 18.0657 48.3175C18.1815 49.3531 17.0087 50.1397 16.1936 50.528C14.8263 51.1792 13.144 51.3481 11.6703 50.9925C10.945 50.8174 10.2676 50.5194 9.71708 50.0129C9.18623 49.5243 8.80582 48.8956 8.43722 48.2848C8.3049 48.0654 8.03239 48.102 7.89141 48.2848C7.72286 48.5043 7.75673 48.8326 7.89141 49.0551C8.54433 50.1366 9.28311 51.1668 10.4771 51.7083C11.7845 52.3012 13.3196 52.3689 14.716 52.1051C16.8087 51.7091 19.5803 50.0347 18.6824 47.5348C18.2287 46.272 16.7921 45.6643 15.6186 45.2356C14.8854 44.968 14.13 44.7703 13.3621 44.6311C12.6722 44.5058 11.9578 44.4638 11.2907 44.2342C10.6142 44.0016 10.1093 43.5449 9.7155 42.9621C9.4422 42.5575 9.12637 42.0144 9.17127 41.5064C9.24845 40.6287 10.2534 40.0374 10.9733 39.7075C13.3117 38.6345 16.4172 38.8127 18.1082 40.9314C18.5265 41.4573 18.9612 40.5478 18.6525 40.1611Z" fill="#4A8FE0"/>
</g>
<defs>
<clipPath id="clip0_844_2913">
<rect width="70" height="70" fill="white"/>
</clipPath>
</defs>
</svg>
