<svg width="464" height="123" viewBox="0 0 464 123" fill="none" xmlns="http://www.w3.org/2000/svg">
<path fill-rule="evenodd" clip-rule="evenodd" d="M0.857422 5.83731C0.857422 2.7584 3.35337 0.262451 6.43228 0.262451C9.51119 0.262451 12.0071 2.7584 12.0071 5.83731C12.0071 8.91622 9.51119 11.4122 6.43228 11.4122C3.35337 11.4122 0.857422 8.91622 0.857422 5.83731ZM0.857422 40.1441C0.857422 37.0652 3.35337 34.5693 6.43228 34.5693C9.51119 34.5693 12.0071 37.0652 12.0071 40.1441C12.0071 43.2231 9.51119 45.719 6.43228 45.719C3.35337 45.719 0.857422 43.2231 0.857422 40.1441ZM12.8648 68.0185C10.0227 68.0185 7.71879 70.3224 7.71879 73.1645C7.71879 76.0066 10.0227 78.3105 12.8648 78.3105C15.7069 78.3105 18.0108 76.0066 18.0108 73.1645C18.0108 70.3224 15.7069 68.0185 12.8648 68.0185ZM37.7363 87.7449C37.7363 84.9028 40.0403 82.5989 42.8824 82.5989C45.7244 82.5989 48.0284 84.9028 48.0284 87.7449C48.0284 90.587 45.7244 92.8909 42.8824 92.8909C40.0403 92.8909 37.7363 90.587 37.7363 87.7449ZM80.1918 86.0295C77.5866 86.0295 75.4746 88.1415 75.4746 90.7467C75.4746 93.352 77.5866 95.4639 80.1918 95.4639C82.797 95.4639 84.909 93.352 84.909 90.7467C84.909 88.1415 82.797 86.0295 80.1918 86.0295ZM117.93 86.0295C115.325 86.0295 113.213 88.1415 113.213 90.7467C113.213 93.352 115.325 95.4639 117.93 95.4639C120.535 95.4639 122.647 93.352 122.647 90.7467C122.647 88.1415 120.535 86.0295 117.93 86.0295ZM150.949 91.1756C150.949 88.8072 152.869 86.8872 155.238 86.8872C157.606 86.8872 159.526 88.8072 159.526 91.1756C159.526 93.544 157.606 95.4639 155.238 95.4639C152.869 95.4639 150.949 93.544 150.949 91.1756ZM192.976 86.8872C190.607 86.8872 188.688 88.8072 188.688 91.1756C188.688 93.544 190.607 95.4639 192.976 95.4639C195.344 95.4639 197.264 93.544 197.264 91.1756C197.264 88.8072 195.344 86.8872 192.976 86.8872ZM226.426 91.1756C226.426 88.8072 228.346 86.8872 230.714 86.8872C233.083 86.8872 235.002 88.8072 235.002 91.1756C235.002 93.544 233.083 95.4639 230.714 95.4639C228.346 95.4639 226.426 93.544 226.426 91.1756ZM268.022 86.8872C265.89 86.8872 264.162 88.6152 264.162 90.7467C264.162 92.8783 265.89 94.6062 268.022 94.6062C270.153 94.6062 271.881 92.8783 271.881 90.7467C271.881 88.6152 270.153 86.8872 268.022 86.8872ZM301.9 90.7467C301.9 88.6152 303.628 86.8872 305.76 86.8872C307.891 86.8872 309.619 88.6152 309.619 90.7467C309.619 92.8783 307.891 94.6062 305.76 94.6062C303.628 94.6062 301.9 92.8783 301.9 90.7467ZM343.496 86.8872C341.365 86.8872 339.637 88.6152 339.637 90.7467C339.637 92.8783 341.365 94.6062 343.496 94.6062C345.628 94.6062 347.356 92.8783 347.356 90.7467C347.356 88.6152 345.628 86.8872 343.496 86.8872ZM377.375 90.3179C377.375 88.4232 378.911 86.8872 380.806 86.8872C382.7 86.8872 384.236 88.4232 384.236 90.3179C384.236 92.2126 382.7 93.7486 380.806 93.7486C378.911 93.7486 377.375 92.2126 377.375 90.3179ZM418.544 87.7449C416.649 87.7449 415.113 89.2808 415.113 91.1756C415.113 93.0703 416.649 94.6062 418.544 94.6062C420.439 94.6062 421.975 93.0703 421.975 91.1756C421.975 89.2808 420.439 87.7449 418.544 87.7449ZM449.42 92.4621C449.42 90.8042 450.764 89.4602 452.422 89.4602C454.08 89.4602 455.424 90.8042 455.424 92.4621C455.424 94.1199 454.08 95.4639 452.422 95.4639C450.764 95.4639 449.42 94.1199 449.42 92.4621ZM461.427 117.329C460.005 117.329 458.854 118.481 458.854 119.902C458.854 121.323 460.005 122.475 461.427 122.475C462.848 122.475 464 121.323 464 119.902C464 118.481 462.848 117.329 461.427 117.329Z" fill="url(#paint0_linear_439_308)"/>
<defs>
<linearGradient id="paint0_linear_439_308" x1="11.5585" y1="0.262431" x2="434.996" y2="176.202" gradientUnits="userSpaceOnUse">
<stop stop-color="#C6C3C3" stop-opacity="0.53"/>
<stop offset="1" stop-color="#70AAEF" stop-opacity="0.25"/>
</linearGradient>
</defs>
</svg>
