<svg width="247" height="263" viewBox="0 0 247 263" fill="none" xmlns="http://www.w3.org/2000/svg">
<path fill-rule="evenodd" clip-rule="evenodd" d="M4 8C6.20914 8 8 6.20914 8 4C8 1.79086 6.20914 0 4 0C1.79086 0 0 1.79086 0 4C0 6.20914 1.79086 8 4 8ZM238 33.5C238 34.8807 236.881 36 235.5 36C234.119 36 233 34.8807 233 33.5C233 32.1193 234.119 31 235.5 31C236.881 31 238 32.1193 238 33.5ZM244.5 57C245.881 57 247 55.8807 247 54.5C247 53.1193 245.881 52 244.5 52C243.119 52 242 53.1193 242 54.5C242 55.8807 243.119 57 244.5 57ZM247 74.5C247 75.8807 245.881 77 244.5 77C243.119 77 242 75.8807 242 74.5C242 73.1193 243.119 72 244.5 72C245.881 72 247 73.1193 247 74.5ZM245 96C246.105 96 247 95.1046 247 94C247 92.8954 246.105 92 245 92C243.895 92 243 92.8954 243 94C243 95.1046 243.895 96 245 96ZM247 114C247 115.105 246.105 116 245 116C243.895 116 243 115.105 243 114C243 112.895 243.895 112 245 112C246.105 112 247 112.895 247 114ZM245 136C246.105 136 247 135.105 247 134C247 132.895 246.105 132 245 132C243.895 132 243 132.895 243 134C243 135.105 243.895 136 245 136ZM247 154C247 155.105 246.105 156 245 156C243.895 156 243 155.105 243 154C243 152.895 243.895 152 245 152C246.105 152 247 152.895 247 154ZM245.5 175C246.328 175 247 174.328 247 173.5C247 172.672 246.328 172 245.5 172C244.672 172 244 172.672 244 173.5C244 174.328 244.672 175 245.5 175ZM247 193.5C247 194.328 246.328 195 245.5 195C244.672 195 244 194.328 244 193.5C244 192.672 244.672 192 245.5 192C246.328 192 247 192.672 247 193.5ZM245.5 215C246.328 215 247 214.328 247 213.5C247 212.672 246.328 212 245.5 212C244.672 212 244 212.672 244 213.5C244 214.328 244.672 215 245.5 215ZM244 233.5C244 234.328 243.328 235 242.5 235C241.672 235 241 234.328 241 233.5C241 232.672 241.672 232 242.5 232C243.328 232 244 232.672 244 233.5ZM236 251C236.552 251 237 250.552 237 250C237 249.448 236.552 249 236 249C235.448 249 235 249.448 235 250C235 250.552 235.448 251 236 251ZM217 28.5C217 29.8807 215.881 31 214.5 31C213.119 31 212 29.8807 212 28.5C212 27.1193 213.119 26 214.5 26C215.881 26 217 27.1193 217 28.5ZM193.5 31C194.881 31 196 29.8807 196 28.5C196 27.1193 194.881 26 193.5 26C192.119 26 191 27.1193 191 28.5C191 29.8807 192.119 31 193.5 31ZM176 29C176 30.6569 174.657 32 173 32C171.343 32 170 30.6569 170 29C170 27.3431 171.343 26 173 26C174.657 26 176 27.3431 176 29ZM152 32C153.657 32 155 30.6569 155 29C155 27.3431 153.657 26 152 26C150.343 26 149 27.3431 149 29C149 30.6569 150.343 32 152 32ZM134 29C134 30.6569 132.657 32 131 32C129.343 32 128 30.6569 128 29C128 27.3431 129.343 26 131 26C132.657 26 134 27.3431 134 29ZM110 32C111.657 32 113 30.6569 113 29C113 27.3431 111.657 26 110 26C108.343 26 107 27.3431 107 29C107 30.6569 108.343 32 110 32ZM92 29C92 30.6569 90.6569 32 89 32C87.3431 32 86 30.6569 86 29C86 27.3431 87.3431 26 89 26C90.6569 26 92 27.3431 92 29ZM68.5 32C70.433 32 72 30.433 72 28.5C72 26.567 70.433 25 68.5 25C66.567 25 65 26.567 65 28.5C65 30.433 66.567 32 68.5 32ZM52 28.5C52 30.433 50.433 32 48.5 32C46.567 32 45 30.433 45 28.5C45 26.567 46.567 25 48.5 25C50.433 25 52 26.567 52 28.5ZM27.5 32C29.433 32 31 30.433 31 28.5C31 26.567 29.433 25 27.5 25C25.567 25 24 26.567 24 28.5C24 30.433 25.567 32 27.5 32ZM11 25C11 27.2091 9.20914 29 7 29C4.79086 29 3 27.2091 3 25C3 22.7909 4.79086 21 7 21C9.20914 21 11 22.7909 11 25ZM228 263C228.552 263 229 262.552 229 262C229 261.448 228.552 261 228 261C227.448 261 227 261.448 227 262C227 262.552 227.448 263 228 263Z" fill="url(#paint0_linear_679_2270)"/>
<defs>
<linearGradient id="paint0_linear_679_2270" x1="4.73014" y1="0.999933" x2="267.83" y2="28.0669" gradientUnits="userSpaceOnUse">
<stop stop-color="#C6C3C3" stop-opacity="0.53"/>
<stop offset="1" stop-color="#70AAEF" stop-opacity="0.25"/>
</linearGradient>
</defs>
</svg>
