<svg width="50" height="50" viewBox="0 0 50 50" fill="none" xmlns="http://www.w3.org/2000/svg">
<circle cx="25" cy="25" r="25" fill="#4A8FE0"/>
<path d="M30.9468 21.9426C31.6816 21.7853 32.3596 21.178 32.47 19.8307C32.5611 18.7281 32.2782 18.1599 31.8607 17.8706C33.0198 13.1461 29.8229 12.2211 29.8229 12.2211C29.8229 12.2211 27.4337 8.16787 22.7724 11.0123C22.1794 11.3739 21.2576 12.067 20.7085 12.7825C19.8267 13.7207 19.2264 15.2457 19.1324 17.7157C18.5631 17.9329 18.1158 18.4829 18.227 19.8301C18.3436 21.2387 19.0785 21.8382 19.8516 21.9608C20.8954 24.503 22.9563 26.5978 25.3951 26.5978C27.8394 26.5976 29.9047 24.4931 30.9466 21.9424L30.9468 21.9426ZM25.3953 25.4126C22.5752 25.4126 20.3042 21.5833 20.3042 18.4126C20.3042 17.978 20.3181 17.575 20.3448 17.2012C24.4696 17.3815 26.9092 15.7277 28.2374 14.2932C29.4967 15.5483 30.1508 17.1334 30.4852 18.3101C30.4852 18.3441 30.4858 18.3774 30.4858 18.412C30.4862 21.5834 28.2159 25.4125 25.3952 25.4125L25.3953 25.4126Z" fill="white"/>
<path d="M23.7794 30.207L24.1059 28.8554C24.1436 28.6994 24.2242 28.566 24.3335 28.4635C24.3 28.4399 24.2673 28.4149 24.2352 28.3888L21.3187 25.9741L19.5437 26.3893C16.5378 27.0963 14.4199 29.6348 14.4199 32.5467V36.37C14.4199 37.1224 15.0892 37.7227 15.8904 37.7227H23.4037L24.5495 31.1915C24.0348 31.1847 23.6579 30.7096 23.7793 30.207L23.7794 30.207Z" fill="white"/>
<path d="M31.14 26.3888L29.3892 25.9736L26.4756 28.3883C26.4435 28.4144 26.4118 28.4394 26.3785 28.463C26.4884 28.5655 26.569 28.6991 26.6073 28.855L26.9331 30.2065C27.0552 30.7083 26.6783 31.1842 26.1631 31.1914L27.3089 37.7226H34.8222C35.6232 37.7226 36.2325 37.123 36.2325 36.3699V32.5467C36.2339 29.6346 34.1458 27.0962 31.1399 26.3892L31.14 26.3888Z" fill="white"/>
</svg>
