<svg width="50" height="50" viewBox="0 0 50 50" fill="none" xmlns="http://www.w3.org/2000/svg">
<circle cx="25" cy="25" r="25" fill="#A1CCFF"/>
<path d="M36.2184 35.8093C36.1807 35.5871 36.1416 35.3652 36.101 35.1431C35.6358 32.6068 34.8752 28.5744 31.9722 26.3945C32.1864 24.9744 32.2961 22.767 32.2961 19.4839C32.2961 14.2422 28.8971 10.0002 24.7071 10.0002C21.8499 10.0002 20.033 12.0249 20.033 12.0249C18.2632 13.7633 17.1182 16.4543 17.1182 19.494C17.1182 22.768 17.2328 24.976 17.4413 26.391C14.5252 28.5496 13.7786 32.6146 13.313 35.1522C13.2725 35.3737 13.2334 35.5958 13.1958 35.8175C12.9966 36.9896 13.7853 38.1008 14.9572 38.3C15.0793 38.3208 15.2004 38.3308 15.3202 38.3308L22.8526 38.3289L22.8528 38.3275L34.0939 38.3225C34.2136 38.3225 34.335 38.3127 34.4567 38.2917C35.6286 38.0923 36.4173 36.9813 36.2183 35.8095L36.2184 35.8093ZM24.7092 30.8876L20.7074 28.8487L22.7831 25.5764C23.346 25.8633 24.0872 26.0261 24.7069 26.0261C25.3292 26.0261 26.0576 25.8601 26.6224 25.5706L28.6929 28.8495L24.7092 30.8876ZM24.707 24.6093C20.8979 24.6093 19.2579 19.4552 19.5852 17.8459C23.7727 14.204 27.4798 14.4556 27.4798 14.4556C27.4798 14.4556 28.1444 16.5197 29.854 19.0103C29.5536 21.4653 27.0664 24.6091 24.707 24.6091V24.6093Z" fill="white"/>
</svg>
