<svg width="18" height="18" viewBox="0 0 18 18" fill="none" xmlns="http://www.w3.org/2000/svg">
<g clip-path="url(#clip0_372_8795)">
<path d="M8.99924 9.02319C4.25574 9.02319 0.396484 12.8825 0.396484 17.626C0.396484 17.8324 0.564063 18 0.77053 18C0.976996 18 1.14457 17.8324 1.14457 17.626C1.14457 13.2946 4.66797 9.77125 8.99928 9.77125C13.3306 9.77125 16.854 13.2946 16.854 17.626C16.854 17.8324 17.0216 18 17.228 18C17.4345 18 17.6021 17.8324 17.6021 17.626C17.602 12.8817 13.7427 9.02319 8.99924 9.02319Z" fill="white" stroke="white" stroke-width="0.75"/>
<path d="M8.99912 0C6.73097 0 4.88477 1.84547 4.88477 4.11436C4.88477 6.38325 6.73101 8.22871 8.99912 8.22871C11.2672 8.22871 13.1135 6.38325 13.1135 4.11436C13.1135 1.84547 11.2673 0 8.99912 0ZM8.99912 7.48066C7.14317 7.48066 5.63282 5.97031 5.63282 4.11436C5.63282 2.2584 7.14317 0.748055 8.99912 0.748055C10.8551 0.748055 12.3654 2.2584 12.3654 4.11436C12.3654 5.97031 10.8551 7.48066 8.99912 7.48066Z" fill="white" stroke="white" stroke-width="0.75"/>
</g>
<defs>
<clipPath id="clip0_372_8795">
<rect width="18" height="18" fill="white"/>
</clipPath>
</defs>
</svg>
