<svg width="40" height="40" viewBox="0 0 40 40" fill="none" xmlns="http://www.w3.org/2000/svg">
<circle cx="20" cy="20" r="20" fill="#E1EBF9"/>
<g clip-path="url(#clip0_782_2342)">
<path d="M28.0462 11.2299C27.5373 10.7611 25.4781 9.26672 20.8867 9.24669C20.8867 9.24669 15.474 8.92217 12.8378 11.342C11.3715 12.8084 10.8547 14.9598 10.7986 17.6241C10.7425 20.2884 10.6744 25.2803 15.4861 26.6345H15.4901L15.4861 28.7018C15.4861 28.7018 15.454 29.5392 16.0069 29.7074C16.672 29.9158 17.0646 29.2787 17.7016 28.5936C18.0502 28.217 18.5309 27.6642 18.8955 27.2435C22.1888 27.5199 24.7168 26.8869 25.0053 26.7948C25.6704 26.5784 29.4324 26.0977 30.0414 21.1057C30.6744 15.9534 29.7369 12.7002 28.0462 11.2299ZM28.6031 20.7291C28.0862 24.8957 25.0373 25.1602 24.4765 25.3404C24.2361 25.4166 22.0125 25.9694 19.22 25.7892C19.22 25.7892 17.1367 28.3012 16.4877 28.9542C16.2753 29.1666 16.043 29.1465 16.047 28.7259C16.047 28.4494 16.063 25.2924 16.063 25.2924C16.059 25.2924 16.059 25.2924 16.063 25.2924C11.9845 24.1626 12.2249 19.9118 12.2689 17.6882C12.313 15.4646 12.7337 13.6417 13.9757 12.4158C16.2072 10.3925 20.8026 10.693 20.8026 10.693C24.6848 10.709 26.5438 11.8789 26.9765 12.2715C28.4067 13.4975 29.1359 16.4302 28.6031 20.7291ZM23.0341 17.4919C23.0502 17.8364 22.5333 17.8605 22.5173 17.5159C22.4732 16.6345 22.0606 16.2058 21.2112 16.1577C20.8667 16.1377 20.8987 15.6209 21.2393 15.6409C22.3571 15.701 22.9781 16.342 23.0341 17.4919ZM23.8474 17.9446C23.8875 16.2459 22.8258 14.9158 20.8106 14.7675C20.47 14.7435 20.5061 14.2267 20.8466 14.2507C23.1704 14.419 24.4083 16.0175 24.3643 17.9566C24.3603 18.3012 23.8394 18.2852 23.8474 17.9446ZM25.7305 18.4815C25.7345 18.826 25.2136 18.83 25.2136 18.4855C25.1896 15.2202 23.0141 13.4414 20.3739 13.4214C20.0333 13.4174 20.0333 12.9045 20.3739 12.9045C23.3266 12.9246 25.7024 14.9638 25.7305 18.4815ZM25.2777 22.4118V22.4198C24.845 23.181 24.0357 24.0223 23.2024 23.7539L23.1944 23.7419C22.349 23.5055 20.3579 22.4799 19.0998 21.4783C18.4508 20.9654 17.8579 20.3605 17.4011 19.7795C16.9885 19.2627 16.5718 18.6497 16.1672 17.9126C15.3138 16.3701 15.1255 15.681 15.1255 15.681C14.8571 14.8477 15.6944 14.0384 16.4596 13.6057H16.4676C16.8362 13.4134 17.1888 13.4775 17.4252 13.7619C17.4252 13.7619 17.922 14.3549 18.1343 14.6473C18.3346 14.9198 18.6031 15.3565 18.7433 15.6009C18.9877 16.0376 18.8354 16.4823 18.595 16.6666L18.1143 17.0512C17.8699 17.2475 17.9019 17.6121 17.9019 17.6121C17.9019 17.6121 18.6151 20.3084 21.2793 20.9895C21.2793 20.9895 21.6439 21.0215 21.8402 20.7771L22.2249 20.2964C22.4091 20.056 22.8539 19.9037 23.2906 20.1481C23.8795 20.4807 24.6287 20.9975 25.1255 21.4662C25.4059 21.6946 25.47 22.0432 25.2777 22.4118Z" fill="#1D61B1" fill-opacity="0.71"/>
</g>
<defs>
<clipPath id="clip0_782_2342">
<rect width="20.5128" height="20.5128" fill="white" transform="translate(10.2568 9.23071)"/>
</clipPath>
</defs>
</svg>
