<svg width="30" height="30" viewBox="0 0 30 30" fill="none" xmlns="http://www.w3.org/2000/svg">
<circle cx="15" cy="15" r="15" fill="#4A8FE0"/>
<g clip-path="url(#clip0_1124_1257)">
<path d="M21.0349 8.42209C20.6533 8.07053 19.1088 6.94974 15.6653 6.93471C15.6653 6.93471 11.6058 6.69132 9.62862 8.50623C8.52886 9.60599 8.14124 11.2196 8.09917 13.2178C8.0571 15.216 8.00602 18.96 11.6148 19.9756H11.6178L11.6148 21.5261C11.6148 21.5261 11.5908 22.1541 12.0054 22.2803C12.5042 22.4365 12.7987 21.9587 13.2765 21.4449C13.5379 21.1625 13.8984 20.7478 14.1719 20.4323C16.6418 20.6396 18.5379 20.1649 18.7542 20.0958C19.253 19.9335 22.0745 19.5729 22.5313 15.8289C23.006 11.9648 22.3029 9.52486 21.0349 8.42209ZM21.4525 15.5465C21.0649 18.6715 18.7783 18.8698 18.3576 19.005C18.1773 19.0621 16.5096 19.4768 14.4153 19.3416C14.4153 19.3416 12.8528 21.2256 12.366 21.7154C12.2067 21.8746 12.0325 21.8596 12.0355 21.5441C12.0355 21.3368 12.0475 18.969 12.0475 18.969C12.0445 18.969 12.0445 18.969 12.0475 18.969C8.98859 18.1216 9.16888 14.9335 9.20193 13.2658C9.23499 11.5982 9.55049 10.231 10.482 9.31152C12.1557 7.79409 15.6022 8.01945 15.6022 8.01945C18.5138 8.03147 19.9081 8.90887 20.2326 9.20334C21.3053 10.1228 21.8522 12.3223 21.4525 15.5465ZM17.2759 13.1186C17.2879 13.377 16.9003 13.3951 16.8882 13.1366C16.8552 12.4756 16.5457 12.1541 15.9087 12.118C15.6503 12.103 15.6743 11.7154 15.9297 11.7304C16.768 11.7755 17.2338 12.2562 17.2759 13.1186ZM17.8858 13.4582C17.9159 12.1841 17.1196 11.1865 15.6082 11.0753C15.3528 11.0573 15.3798 10.6697 15.6352 10.6877C17.378 10.8139 18.3065 12.0128 18.2734 13.4672C18.2704 13.7256 17.8798 13.7136 17.8858 13.4582ZM19.2981 13.8608C19.3011 14.1192 18.9105 14.1222 18.9105 13.8638C18.8924 11.4149 17.2608 10.0807 15.2807 10.0657C15.0253 10.0627 15.0253 9.6781 15.2807 9.6781C17.4952 9.69313 19.2771 11.2226 19.2981 13.8608ZM18.9585 16.8085V16.8145C18.634 17.3854 18.0271 18.0164 17.4021 17.8151L17.396 17.8061C16.762 17.6288 15.2686 16.8596 14.3251 16.1084C13.8384 15.7238 13.3936 15.27 13.0511 14.8344C12.7416 14.4467 12.4291 13.987 12.1256 13.4341C11.4856 12.2773 11.3444 11.7604 11.3444 11.7604C11.143 11.1354 11.771 10.5285 12.345 10.2039H12.351C12.6274 10.0597 12.8918 10.1078 13.0691 10.3211C13.0691 10.3211 13.4417 10.7658 13.601 10.9852C13.7512 11.1895 13.9525 11.517 14.0577 11.7003C14.241 12.0279 14.1268 12.3614 13.9465 12.4996L13.5859 12.7881C13.4027 12.9353 13.4267 13.2088 13.4267 13.2088C13.4267 13.2088 13.9615 15.231 15.9597 15.7418C15.9597 15.7418 16.2332 15.7658 16.3804 15.5825L16.6689 15.222C16.8071 15.0417 17.1406 14.9275 17.4682 15.1108C17.9099 15.3602 18.4718 15.7478 18.8444 16.0994C19.0547 16.2706 19.1028 16.5321 18.9585 16.8085Z" fill="white"/>
</g>
<defs>
<clipPath id="clip0_1124_1257">
<rect width="15.3846" height="15.3846" fill="white" transform="translate(7.69336 6.92285)"/>
</clipPath>
</defs>
</svg>
