<svg width="73" height="70" viewBox="0 0 73 70" fill="none" xmlns="http://www.w3.org/2000/svg">
<g clip-path="url(#clip0_844_3062)">
<path d="M47.6569 31.6375C47.2154 31.6375 46.7734 31.6375 46.332 31.6375C45.1343 31.6375 43.9372 31.6375 42.7395 31.6375C40.9981 31.6375 39.2568 31.6375 37.5155 31.6375C35.4272 31.6375 33.339 31.6375 31.2507 31.6375C29.0068 31.6375 26.7628 31.6375 24.5189 31.6375C22.3403 31.6375 20.1617 31.6375 17.9831 31.6375C16.0612 31.6375 14.1393 31.6375 12.2168 31.6375C10.7523 31.6375 9.28724 31.6375 7.82278 31.6375C7.0142 31.6375 6.20622 31.6375 5.39765 31.6375C5.18139 31.6375 4.92771 31.6688 4.76968 31.4894C4.68056 31.3885 4.6972 31.2882 4.6972 31.1643C4.6972 30.9613 4.6972 30.7583 4.6972 30.5553C4.6972 30.0283 4.6972 29.5019 4.6972 28.9749C4.6972 28.6208 4.62828 28.2473 5.11901 28.2148C5.1505 28.2125 5.18199 28.2148 5.21347 28.2148C5.43983 28.213 5.66677 28.2148 5.89372 28.2148C6.92746 28.2148 7.96121 28.2148 8.99495 28.2148C10.6222 28.2148 12.2494 28.2148 13.8761 28.2148C15.8984 28.2148 17.9214 28.2148 19.9437 28.2148C22.171 28.2148 24.3977 28.2148 26.625 28.2148C28.8356 28.2148 31.0463 28.2148 33.2564 28.2148C35.2591 28.2148 37.2618 28.2148 39.2645 28.2148C40.8585 28.2148 42.4525 28.2148 44.0465 28.2148C45.0333 28.2148 46.0207 28.2148 47.0075 28.2148C47.2059 28.2148 47.405 28.2119 47.6034 28.2148C47.7674 28.2172 47.9492 28.2508 48.0395 28.4054C48.0953 28.5004 48.0781 28.6126 48.0781 28.7194C48.0781 28.93 48.0781 29.1401 48.0781 29.3508C48.0781 29.8518 48.0781 30.3534 48.0781 30.8544C48.0787 31.2091 48.1577 31.611 47.6569 31.6375C47.2648 31.6588 47.2695 32.4844 47.6569 32.4637C48.9336 32.3947 48.6609 30.7293 48.6609 29.8672C48.6609 29.0221 48.9045 27.4488 47.6563 27.3886C47.1828 27.3656 46.7027 27.3886 46.2292 27.3886C44.9792 27.3886 43.7292 27.3886 42.4787 27.3886C40.6684 27.3886 38.8582 27.3886 37.0485 27.3886C34.8931 27.3886 32.7371 27.3886 30.5817 27.3886C28.295 27.3886 26.0077 27.3886 23.721 27.3886C21.5175 27.3886 19.3133 27.3886 17.1098 27.3886C15.2033 27.3886 13.2974 27.3886 11.391 27.3886C9.99661 27.3886 8.60224 27.3886 7.20788 27.3886C6.54011 27.3886 5.87174 27.3833 5.20397 27.3886C4.48926 27.3945 4.11497 27.9617 4.11497 28.6314C4.11497 29.5214 4.09359 30.4136 4.11497 31.3035C4.13102 31.968 4.55699 32.4602 5.23011 32.4637C5.47488 32.4649 5.72024 32.4637 5.96501 32.4637C7.04807 32.4637 8.13052 32.4637 9.21358 32.4637C10.908 32.4637 12.6029 32.4637 14.2973 32.4637C16.3892 32.4637 18.481 32.4637 20.5728 32.4637C22.8477 32.4637 25.1225 32.4637 27.3973 32.4637C29.6407 32.4637 31.884 32.4637 34.1279 32.4637C36.1253 32.4637 38.1233 32.4637 40.1207 32.4637C41.6582 32.4637 43.1957 32.4637 44.7333 32.4637C45.5959 32.4637 46.4592 32.4637 47.3218 32.4637C47.4335 32.4637 47.5452 32.4637 47.6569 32.4637C48.0472 32.4637 48.049 31.6375 47.6569 31.6375Z" fill="#4A8FE0"/>
<path d="M53.0542 39.0732C52.4844 39.0732 51.9153 39.0732 51.3455 39.0732C49.8163 39.0732 48.2877 39.0732 46.7585 39.0732C44.5484 39.0732 42.3383 39.0732 40.1288 39.0732C37.5005 39.0732 34.8728 39.0732 32.2445 39.0732C29.4552 39.0732 26.6658 39.0732 23.8765 39.0732C21.2042 39.0732 18.5326 39.0732 15.8603 39.0732C13.5819 39.0732 11.3041 39.0732 9.02571 39.0732C7.3943 39.0732 5.76229 39.0732 4.13088 39.0732C3.42449 39.0732 2.71751 39.0844 2.01112 39.0732C1.60594 39.0667 1.19482 38.8915 0.999954 38.5173C0.856775 38.2429 0.922721 37.8168 0.922721 37.5041C0.922721 36.3433 0.919156 35.1825 0.922721 34.0217C0.924503 33.385 1.49484 33.0539 2.10202 33.0539C2.39372 33.0539 2.68543 33.0539 2.97773 33.0539C4.29783 33.0539 5.61733 33.0539 6.93743 33.0539C9.01264 33.0539 11.0884 33.0539 13.1636 33.0539C15.7153 33.0539 18.267 33.0539 20.8187 33.0539C23.586 33.0539 26.3533 33.0539 29.1207 33.0539C31.8464 33.0539 34.5716 33.0539 37.2973 33.0539C39.7017 33.0539 42.106 33.0539 44.5104 33.0539C46.3188 33.0539 48.1279 33.0539 49.9363 33.0539C50.8934 33.0539 51.8505 33.0539 52.807 33.0539C53.29 33.0539 53.7938 33.1354 54.0386 33.6205C54.1848 33.909 54.1129 34.3646 54.1129 34.6921C54.1129 35.3531 54.1129 36.0146 54.1129 36.6755C54.1129 37.1488 54.1146 37.6221 54.1129 38.0954C54.1111 38.666 53.6406 39.0579 53.0542 39.0732C52.4666 39.0891 52.469 40.3284 53.0542 40.3125C54.205 40.2812 54.9601 39.2992 54.9862 38.2075C54.9951 37.8434 54.9862 37.4775 54.9862 37.1134C54.9862 36.0506 55.0112 34.9842 54.9862 33.9214C54.9589 32.7589 54.1372 31.8182 52.9431 31.8153C52.6508 31.8147 52.3591 31.8153 52.0668 31.8153C50.7253 31.8153 49.3838 31.8153 48.0423 31.8153C45.9184 31.8153 43.7945 31.8153 41.6705 31.8153C39.0707 31.8153 36.4709 31.8153 33.8705 31.8153C31.0408 31.8153 28.2111 31.8153 25.3808 31.8153C22.6313 31.8153 19.8818 31.8153 17.1317 31.8153C14.7339 31.8153 12.3361 31.8153 9.93825 31.8153C8.16842 31.8153 6.39917 31.8153 4.62934 31.8153C3.78214 31.8153 2.93495 31.8129 2.08835 31.8153C0.895392 31.8188 0.0761222 32.7612 0.0481993 33.9214C0.0232469 34.9842 0.0481993 36.0506 0.0481993 37.1134C0.0481993 37.4775 0.0392878 37.8434 0.0481993 38.2075C0.0743399 39.2951 0.829446 40.2871 1.98023 40.3125C2.13113 40.316 2.28262 40.3125 2.43353 40.3125C3.54331 40.3125 4.65369 40.3125 5.76348 40.3125C7.72402 40.3125 9.68457 40.3125 11.6451 40.3125C14.1606 40.3125 16.676 40.3125 19.1914 40.3125C21.9861 40.3125 24.7808 40.3125 27.5754 40.3125C30.3778 40.3125 33.1796 40.3125 35.982 40.3125C38.482 40.3125 40.9826 40.3125 43.4826 40.3125C45.433 40.3125 47.384 40.3125 49.3345 40.3125C50.4306 40.3125 51.5267 40.3125 52.6229 40.3125C52.766 40.3125 52.9086 40.3125 53.0518 40.3125C53.64 40.3125 53.6417 39.0732 53.0542 39.0732Z" fill="#4A8FE0"/>
<path d="M51.965 56.836C51.5622 56.836 51.1594 56.836 50.756 56.836C49.6593 56.836 48.5626 56.836 47.4664 56.836C45.8445 56.836 44.2226 56.836 42.6007 56.836C40.6218 56.836 38.6428 56.836 36.6638 56.836C34.496 56.836 32.3287 56.836 30.1608 56.836C27.9727 56.836 25.7846 56.836 23.5965 56.836C21.5564 56.836 19.5162 56.836 17.4761 56.836C15.752 56.836 14.0285 56.836 12.3044 56.836C11.0692 56.836 9.8341 56.836 8.59955 56.836C8.01436 56.836 7.41193 56.7941 6.82793 56.836C6.80357 56.8377 6.77803 56.836 6.75307 56.836C6.89863 57.0425 7.04418 57.249 7.18974 57.4556C7.18974 55.4427 7.18974 53.4303 7.18974 51.4174C7.18974 48.2373 7.18974 45.0565 7.18974 41.8763C7.18974 41.1487 7.18974 40.4211 7.18974 39.6934C7.04418 39.9 6.89863 40.1065 6.75307 40.3131C7.15588 40.3131 7.55868 40.3131 7.96207 40.3131C9.05879 40.3131 10.1555 40.3131 11.2516 40.3131C12.8735 40.3131 14.4954 40.3131 16.1173 40.3131C18.0963 40.3131 20.0753 40.3131 22.0542 40.3131C24.2221 40.3131 26.3894 40.3131 28.5573 40.3131C30.7454 40.3131 32.9335 40.3131 35.1215 40.3131C37.1617 40.3131 39.2019 40.3131 41.242 40.3131C42.9661 40.3131 44.6896 40.3131 46.4137 40.3131C47.6488 40.3131 48.884 40.3131 50.1185 40.3131C50.7037 40.3131 51.3061 40.355 51.8901 40.3131C51.9145 40.3113 51.94 40.3131 51.965 40.3131C51.8194 40.1065 51.6739 39.9 51.5283 39.6934C51.5283 41.7064 51.5283 43.7187 51.5283 45.7316C51.5283 48.9124 51.5283 52.0925 51.5283 55.2727C51.5283 56.0003 51.5283 56.728 51.5283 57.4556C51.5283 57.7076 51.6632 58.0699 51.965 58.0752C52.268 58.0805 52.4017 57.6958 52.4017 57.4556C52.4017 55.4427 52.4017 53.4303 52.4017 51.4174C52.4017 48.2373 52.4017 45.0565 52.4017 41.8763C52.4017 41.1487 52.4017 40.4211 52.4017 39.6934C52.4017 39.4474 52.268 39.0738 51.965 39.0738C51.5622 39.0738 51.1594 39.0738 50.756 39.0738C49.6593 39.0738 48.5626 39.0738 47.4664 39.0738C45.8445 39.0738 44.2226 39.0738 42.6007 39.0738C40.6218 39.0738 38.6428 39.0738 36.6638 39.0738C34.496 39.0738 32.3287 39.0738 30.1608 39.0738C27.9727 39.0738 25.7846 39.0738 23.5965 39.0738C21.5564 39.0738 19.5162 39.0738 17.4761 39.0738C15.752 39.0738 14.0285 39.0738 12.3044 39.0738C11.0692 39.0738 9.8341 39.0738 8.59955 39.0738C8.01079 39.0738 7.41669 39.0514 6.82793 39.0738C6.80298 39.075 6.77803 39.0738 6.75307 39.0738C6.45127 39.0738 6.31641 39.4503 6.31641 39.6934C6.31641 41.7064 6.31641 43.7187 6.31641 45.7316C6.31641 48.9124 6.31641 52.0925 6.31641 55.2727C6.31641 56.0003 6.31641 56.728 6.31641 57.4556C6.31641 57.7017 6.45008 58.0752 6.75307 58.0752C7.15588 58.0752 7.55868 58.0752 7.96207 58.0752C9.05879 58.0752 10.1555 58.0752 11.2516 58.0752C12.8735 58.0752 14.4954 58.0752 16.1173 58.0752C18.0963 58.0752 20.0753 58.0752 22.0542 58.0752C24.2221 58.0752 26.3894 58.0752 28.5573 58.0752C30.7454 58.0752 32.9335 58.0752 35.1215 58.0752C37.1617 58.0752 39.2019 58.0752 41.242 58.0752C42.9661 58.0752 44.6896 58.0752 46.4137 58.0752C47.6488 58.0752 48.884 58.0752 50.1185 58.0752C50.7073 58.0752 51.3014 58.0976 51.8901 58.0752C51.9151 58.074 51.94 58.0752 51.965 58.0752C52.5508 58.0752 52.5526 56.836 51.965 56.836Z" fill="#4A8FE0"/>
<path d="M56.7187 69.376H1.16996C0.777847 69.376 0.457031 69.0573 0.457031 68.6678V62.9436C0.457031 62.5541 0.777847 62.2355 1.16996 62.2355H56.7187C57.1108 62.2355 57.4316 62.5541 57.4316 62.9436V68.6678C57.4316 69.0573 57.1108 69.376 56.7187 69.376Z" fill="white"/>
<path d="M56.7175 68.7564C56.105 68.7564 55.4925 68.7564 54.88 68.7564C53.2343 68.7564 51.5886 68.7564 49.943 68.7564C47.5523 68.7564 45.1622 68.7564 42.7715 68.7564C39.9246 68.7564 37.077 68.7564 34.2301 68.7564C31.2144 68.7564 28.1987 68.7564 25.1825 68.7564C22.2862 68.7564 19.39 68.7564 16.4937 68.7564C14.005 68.7564 11.5169 68.7564 9.0282 68.7564C7.23579 68.7564 5.44337 68.7564 3.65037 68.7564C2.84239 68.7564 2.03322 68.7682 1.22523 68.7564C1.10879 68.7546 0.912141 68.7033 0.892536 68.6578C0.855701 68.5729 0.892536 68.3923 0.892536 68.3014C0.892536 68.0406 0.892536 67.7797 0.892536 67.5189C0.892536 66.1776 0.892536 64.8356 0.892536 63.4943C0.892536 63.342 0.86283 63.1561 0.892536 63.0062C0.894912 62.9932 0.897288 62.9431 0.89313 62.9502C0.910953 62.9183 1.09928 62.861 1.16939 62.8551C1.21276 62.8516 1.2585 62.8551 1.30187 62.8551C1.61615 62.8551 1.93103 62.8551 2.24531 62.8551C3.6676 62.8551 5.08988 62.8551 6.51217 62.8551C8.74897 62.8551 10.9858 62.8551 13.2226 62.8551C15.9858 62.8551 18.7489 62.8551 21.5121 62.8551C24.5135 62.8551 27.5149 62.8551 30.5164 62.8551C33.4679 62.8551 36.4194 62.8551 39.3709 62.8551C41.9843 62.8551 44.5978 62.8551 47.2113 62.8551C49.1985 62.8551 51.1858 62.8551 53.1731 62.8551C54.2461 62.8551 55.319 62.8551 56.3914 62.8551C56.4823 62.8551 56.5738 62.854 56.6652 62.8551C56.6819 62.8551 56.6985 62.8534 56.7152 62.8551C56.793 62.8622 56.8441 62.874 56.9177 62.9077C56.9659 62.9301 56.995 62.9614 56.9938 62.9596C57.0342 63.0558 56.9938 63.2553 56.9938 63.3568C56.9938 63.6182 56.9938 63.8796 56.9938 64.1404C56.9938 64.8515 56.9938 65.5626 56.9938 66.2737C56.9938 66.8881 56.9938 67.5024 56.9938 68.1161C56.9938 68.2695 57.0128 68.4371 56.9938 68.59C56.9789 68.7104 56.8958 68.747 56.7175 68.7564C56.1288 68.7883 56.1359 70.0269 56.7175 69.9957C57.5778 69.949 57.8671 69.1659 57.8671 68.4283C57.8671 67.863 57.8671 67.297 57.8671 66.7317C57.8671 65.503 57.8766 64.2738 57.8671 63.0446C57.8618 62.3429 57.4911 61.6525 56.714 61.6159C56.6593 61.6135 56.6041 61.6159 56.55 61.6159C56.2036 61.6159 55.8579 61.6159 55.5115 61.6159C54.0209 61.6159 52.5297 61.6159 51.0391 61.6159C48.7209 61.6159 46.4033 61.6159 44.0851 61.6159C41.2459 61.6159 38.4066 61.6159 35.5674 61.6159C32.5191 61.6159 29.4707 61.6159 26.4224 61.6159C23.4471 61.6159 20.4718 61.6159 17.4966 61.6159C14.9063 61.6159 12.3166 61.6159 9.72627 61.6159C7.8287 61.6159 5.93113 61.6159 4.03297 61.6159C3.11746 61.6159 2.20135 61.6106 1.28583 61.6159C1.20682 61.6165 1.13315 61.6159 1.05413 61.6259C0.241398 61.7298 0.0192026 62.5152 0.0192026 63.2092C0.0192026 64.5282 0.0192026 65.8471 0.0192026 67.1666C0.0192026 68.1309 -0.243391 69.9302 1.17355 69.9957C1.36663 70.0045 1.56269 69.9957 1.75577 69.9957C3.00576 69.9957 4.25576 69.9957 5.50575 69.9957C7.65285 69.9957 9.79935 69.9957 11.9464 69.9957C14.6781 69.9957 17.4098 69.9957 20.1421 69.9957C23.175 69.9957 26.2073 69.9957 29.2402 69.9957C32.263 69.9957 35.2858 69.9957 38.3092 69.9957C41.0118 69.9957 43.715 69.9957 46.4175 69.9957C48.5159 69.9957 50.6143 69.9957 52.7127 69.9957C53.8949 69.9957 55.0766 69.9957 56.2589 69.9957C56.4122 69.9957 56.5648 69.9957 56.7181 69.9957C57.3033 69.9957 57.3051 68.7564 56.7175 68.7564Z" fill="#4A8FE0"/>
<path d="M6.46755 56.8243C6.08732 56.8196 5.69046 56.8644 5.35657 57.0562C4.89376 57.3224 4.73157 57.7838 4.64305 58.2843C4.45175 59.3642 4.24738 60.443 4.17311 61.5388C4.15588 61.7902 4.31926 62.1537 4.60978 62.1585C4.92466 62.1638 5.03041 61.7778 5.04645 61.5388C5.10348 60.6997 5.26508 59.8705 5.41004 59.0426C5.45103 58.8071 5.43143 58.3775 5.64293 58.2223C5.86572 58.0583 6.20436 58.06 6.46755 58.0636C7.05155 58.0707 7.05571 56.8314 6.46755 56.8243Z" fill="#4A8FE0"/>
<path d="M51.9617 58.0638C52.2207 58.0608 52.5505 58.0585 52.7756 58.2131C52.999 58.3665 52.9776 58.8061 53.0192 59.0428C53.1642 59.8701 53.3258 60.6999 53.3828 61.539C53.4 61.7904 53.5058 62.1533 53.8195 62.1586C54.11 62.1634 54.2722 61.7786 54.2561 61.539C54.1819 60.4437 53.9775 59.3644 53.7862 58.2845C53.7024 57.8106 53.5545 57.3562 53.125 57.0877C52.7792 56.8711 52.3639 56.8198 51.9617 56.8245C51.3747 56.8316 51.3747 58.0708 51.9617 58.0638Z" fill="#4A8FE0"/>
<path d="M23.3639 57.2001C21.9155 60.9775 21.0196 64.9319 20.2876 68.8999C20.2395 69.1595 20.3072 69.5567 20.5924 69.6623C20.877 69.7674 21.0849 69.4699 21.1295 69.2298C21.843 65.3621 22.7056 61.5086 24.1178 57.8262C24.2206 57.5583 24.2016 57.173 23.961 56.9782C23.7316 56.7917 23.4572 56.957 23.3639 57.2001Z" fill="#4A8FE0"/>
<path d="M34.4117 57.8841C35.8233 61.5665 36.6866 65.42 37.4001 69.2877C37.4452 69.5314 37.6544 69.8223 37.9371 69.7202C38.2229 69.6175 38.2889 69.2115 38.2419 68.9578C37.51 64.9898 36.6141 61.0354 35.1657 57.258C35.073 57.0161 34.7955 56.8514 34.568 57.0355C34.3292 57.2309 34.3101 57.6186 34.4117 57.8841Z" fill="#4A8FE0"/>
<path d="M26.7228 60.9346C28.2467 61.0574 29.7766 61.052 31.2998 60.9175C31.702 60.8821 31.8821 60.4483 31.8821 60.0913C31.8821 59.7927 31.702 59.2297 31.2998 59.2651C29.7766 59.3991 28.2473 59.405 26.7228 59.2823C26.3224 59.2498 26.1406 59.8016 26.1406 60.1084C26.1406 60.4637 26.3189 60.9022 26.7228 60.9346Z" fill="#4A8FE0"/>
<path d="M25.5254 66.5797C27.9767 66.6635 30.4291 66.7726 32.8816 66.7951C33.6611 66.8021 33.6658 65.1498 32.8816 65.1427C30.4285 65.1197 27.9767 65.0111 25.5254 64.9273C24.7495 64.9008 24.7388 66.5525 25.5254 66.5797Z" fill="#4A8FE0"/>
<path d="M24.707 56.8136C24.707 54.6774 24.701 52.5417 24.6927 50.4055C24.6886 49.3161 24.6785 48.2267 24.6797 47.1373C24.6797 46.883 24.6814 46.6281 24.6862 46.3737C24.6898 46.1896 24.6666 45.9777 24.7171 45.7977C24.8115 45.4614 25.3433 45.5056 25.616 45.5027C27.7636 45.4791 29.9113 45.4631 32.0584 45.4431C32.5331 45.4389 33.0381 45.4035 33.4849 45.5906C33.8794 45.7558 33.9851 45.9966 33.9899 46.402C34.0029 47.4684 33.9792 48.5359 33.9679 49.6017C33.9417 52.0372 33.9126 54.4726 33.9827 56.9075C33.9899 57.1595 34.1122 57.5218 34.4194 57.5271C34.717 57.5324 34.8632 57.1477 34.8561 56.9075C34.7889 54.57 34.8133 52.2319 34.8382 49.8938C34.8507 48.7301 34.8763 47.5652 34.8632 46.4014C34.8567 45.8349 34.7658 45.2684 34.3635 44.8394C34.0231 44.4759 33.5663 44.3041 33.0791 44.2357C32.5325 44.159 31.964 44.2038 31.4138 44.2091C30.828 44.2144 30.2422 44.2197 29.6565 44.2251C28.5045 44.2357 27.3525 44.2463 26.2012 44.2569C25.717 44.2616 25.171 44.2074 24.7076 44.3814C24.2204 44.565 23.9507 45.0276 23.8675 45.5198C23.7748 46.0663 23.8057 46.6428 23.8057 47.1946C23.8057 47.7788 23.8099 48.363 23.8129 48.9478C23.8241 51.5692 23.8331 54.1911 23.8336 56.8125C23.8336 57.0644 23.9685 57.4268 24.2703 57.4321C24.5727 57.438 24.707 57.0532 24.707 56.8136Z" fill="#4A8FE0"/>
<path d="M12.675 52.413C12.5812 52.0914 12.6317 51.7568 12.6649 51.4293C12.7077 51.0073 12.7059 50.5824 12.7125 50.1581C12.7273 49.1992 12.7345 48.2402 12.7327 47.2807C12.7321 46.9272 12.7042 46.5707 12.7166 46.2178C12.7279 45.9092 12.8283 45.6779 13.1224 45.5392C13.5216 45.3509 14.0011 45.3934 14.43 45.3905C14.9214 45.3875 15.4121 45.3899 15.9034 45.394C16.3947 45.3981 16.8861 45.404 17.3774 45.4082C17.7962 45.4117 18.2905 45.3385 18.6957 45.4601C19.1745 45.6041 19.1312 45.9358 19.1312 46.3559C19.1312 46.8304 19.1312 47.3043 19.1312 47.7787C19.1312 48.7282 19.1716 49.6748 19.1852 50.6237C19.1912 51.0315 19.225 51.4712 19.1359 51.8718C19.0533 52.2424 18.8395 52.4012 18.4747 52.4844C18.0172 52.5883 17.5301 52.5375 17.0679 52.498C16.5771 52.4561 16.0929 52.4413 15.5998 52.4519C15.0645 52.4632 14.5292 52.4868 13.9934 52.495C13.7308 52.4992 13.4676 52.4903 13.205 52.4956C12.9816 52.5003 12.7416 52.5588 12.6465 52.3139C12.5818 52.148 12.4035 52.0495 12.2485 52.1657C12.0857 52.2873 12.0774 52.5599 12.1439 52.7311C12.3275 53.2038 12.6703 53.3365 13.1527 53.323C13.6993 53.3076 14.247 53.3177 14.7942 53.3005C15.3521 53.2834 15.9153 53.2522 16.4732 53.2793C16.9568 53.3029 17.4374 53.3761 17.9222 53.3678C18.3499 53.3601 18.871 53.3035 19.2102 53.0179C19.512 52.7635 19.6599 52.3504 19.7187 51.9728C19.8833 50.9206 19.7318 49.804 19.7158 48.7442C19.7069 48.1759 19.7128 47.6076 19.7128 47.0393C19.7128 46.5389 19.8049 45.9446 19.6463 45.4631C19.3076 44.4362 18.1901 44.5891 17.318 44.5814C16.1488 44.5714 14.9713 44.5212 13.8027 44.5726C13.3696 44.5914 12.9062 44.687 12.5836 44.9963C12.2871 45.2807 12.173 45.6714 12.1433 46.0691C12.1077 46.5454 12.1511 47.0328 12.1511 47.5102C12.1516 48.1405 12.1481 48.7701 12.141 49.4004C12.1338 50.0017 12.1534 50.6137 12.1041 51.2139C12.0655 51.686 11.9788 52.1675 12.1142 52.6331C12.2645 53.1501 12.8046 52.8568 12.675 52.413Z" fill="#4A8FE0"/>
<path d="M39.3665 52.413C39.2726 52.0914 39.3231 51.7568 39.3564 51.4293C39.3991 51.0073 39.3974 50.5824 39.4039 50.1581C39.4187 49.1992 39.4259 48.2402 39.4241 47.2807C39.4235 46.9272 39.3956 46.5707 39.408 46.2178C39.4193 45.9092 39.5197 45.6779 39.8138 45.5392C40.2131 45.3509 40.6925 45.3934 41.1214 45.3905C41.6128 45.3875 42.1035 45.3899 42.5948 45.394C43.0862 45.3981 43.5775 45.404 44.0688 45.4082C44.4877 45.4117 44.982 45.3385 45.3871 45.4601C45.866 45.6041 45.8226 45.9358 45.8226 46.3559C45.8226 46.8304 45.8226 47.3043 45.8226 47.7787C45.8226 48.7282 45.863 49.6748 45.8767 50.6237C45.8826 51.0315 45.9165 51.4712 45.8274 51.8718C45.7448 52.2424 45.5309 52.4012 45.1661 52.4844C44.7087 52.5883 44.2215 52.5375 43.7593 52.498C43.2685 52.4561 42.7843 52.4413 42.2912 52.4519C41.756 52.4632 41.2207 52.4868 40.6848 52.495C40.4222 52.4992 40.159 52.4903 39.8964 52.4956C39.673 52.5003 39.433 52.5588 39.3379 52.3139C39.2732 52.148 39.095 52.0495 38.9399 52.1657C38.7771 52.2873 38.7688 52.5599 38.8353 52.7311C39.0189 53.2038 39.3617 53.3365 39.8441 53.323C40.3907 53.3076 40.9385 53.3177 41.4856 53.3005C42.0435 53.2834 42.6067 53.2522 43.1646 53.2793C43.6482 53.3029 44.1288 53.3761 44.6136 53.3678C45.0414 53.3601 45.5624 53.3035 45.9016 53.0179C46.2034 52.7635 46.3514 52.3504 46.4102 51.9728C46.5747 50.9206 46.4233 49.804 46.4072 48.7442C46.3983 48.1759 46.4042 47.6076 46.4042 47.0393C46.4042 46.5389 46.4963 45.9446 46.3377 45.4631C45.9991 44.4362 44.8815 44.5891 44.0094 44.5814C42.8402 44.5714 41.6627 44.5212 40.4941 44.5726C40.061 44.5914 39.5976 44.687 39.275 44.9963C38.9785 45.2807 38.8644 45.6714 38.8347 46.0691C38.7991 46.5454 38.8425 47.0328 38.8425 47.5102C38.843 48.1405 38.8395 48.7701 38.8324 49.4004C38.8252 50.0017 38.8448 50.6137 38.7955 51.2139C38.7569 51.686 38.6702 52.1675 38.8056 52.6331C38.9559 53.1501 39.496 52.8568 39.3665 52.413Z" fill="#4A8FE0"/>
<path d="M8.90536 27.6899C9.989 26.6666 11.2194 25.8227 12.3939 24.9098C13.556 24.0063 14.5743 23.0125 15.4672 21.8447C16.293 20.7642 17.1224 19.5585 18.4681 19.0923C19.7115 18.6615 21.1261 18.8103 22.4212 18.779C25.8617 18.6969 29.3027 18.6309 32.7444 18.6214C33.5696 18.619 34.3942 18.6291 35.2194 18.6238C36.0001 18.619 36.7819 18.5636 37.562 18.612C38.2387 18.6545 38.9688 18.7766 39.5522 19.1413C40.0287 19.4387 40.4095 19.8731 40.7458 20.3151C41.1735 20.8769 41.5401 21.48 41.9334 22.066C42.3861 22.7411 42.8851 23.3878 43.3854 24.0287C44.4993 25.4556 45.6887 26.823 46.9387 28.133C47.1484 28.3532 47.4473 28.1224 47.5364 27.9106C47.6582 27.6196 47.594 27.2874 47.3795 27.0626C46.2531 25.8817 45.1837 24.6489 44.1732 23.369C43.6759 22.7387 43.1852 22.1002 42.7241 21.4428C42.3766 20.9471 42.0623 20.429 41.7183 19.9309C40.9757 18.8551 40.1125 17.8902 38.7947 17.5586C38.0485 17.3709 37.2816 17.3438 36.5152 17.3568C35.6929 17.3703 34.8725 17.3827 34.0502 17.381C30.5688 17.3745 27.0879 17.4329 23.6082 17.5114C22.8026 17.5297 21.997 17.5545 21.1908 17.5592C20.5219 17.5627 19.8488 17.5615 19.1869 17.6684C18.5203 17.7758 17.9054 17.9799 17.3315 18.337C16.6953 18.7324 16.179 19.2971 15.7055 19.8689C15.1981 20.4821 14.7454 21.1371 14.2333 21.7461C13.6986 22.3817 13.0748 22.9376 12.4308 23.461C11.1184 24.5268 9.69671 25.4562 8.46572 26.6188C8.24234 26.8295 8.19243 27.1877 8.30888 27.4668C8.40037 27.6887 8.68257 27.8999 8.90536 27.6899Z" fill="#4A8FE0"/>
<path d="M19.4672 27.4186C25.9967 27.4186 31.2899 22.1609 31.2899 15.6751C31.2899 9.18938 25.9967 3.93164 19.4672 3.93164C12.9377 3.93164 7.64453 9.18938 7.64453 15.6751C7.64453 22.1609 12.9377 27.4186 19.4672 27.4186Z" fill="white"/>
<path d="M30.8526 15.675C30.8449 17.9635 30.1201 20.2054 28.7726 22.0726C27.4395 23.9197 25.5502 25.3354 23.4019 26.1137C18.9378 27.7307 13.7311 26.3817 10.684 22.7441C9.229 21.0074 8.28972 18.8334 8.11565 16.5815C7.9386 14.2835 8.47033 11.9602 9.68765 9.98681C12.1704 5.96157 17.0462 3.83712 21.7141 4.76361C26.2899 5.6724 29.9781 9.37367 30.7195 13.9666C30.8104 14.5355 30.8508 15.0961 30.8526 15.675C30.8532 15.927 30.9869 16.2893 31.2893 16.2947C31.5911 16.3 31.7265 15.9152 31.7259 15.675C31.717 13.105 30.9316 10.5663 29.4351 8.46428C28.0051 6.45609 25.9625 4.88518 23.6336 4.0413C21.2352 3.17264 18.5855 3.08589 16.1307 3.77456C13.7329 4.44731 11.5941 5.88072 10.0162 7.78918C6.69633 11.805 6.3262 17.6596 8.98898 22.1068C10.2532 24.2188 12.1775 25.9267 14.4244 26.9511C16.7694 28.0198 19.4232 28.2895 21.9452 27.7814C26.9173 26.7794 30.808 22.5913 31.5727 17.6331C31.6725 16.9857 31.723 16.3295 31.7253 15.675C31.7259 15.423 31.5899 15.0607 31.2887 15.0554C30.9863 15.0507 30.8538 15.4354 30.8526 15.675Z" fill="#4A8FE0"/>
<path d="M17.7207 9.03603C17.7207 10.6925 17.7207 12.349 17.7207 14.0055C17.7207 16.6439 17.7207 19.2824 17.7207 21.9208C17.7207 22.5239 17.7207 23.127 17.7207 23.7301C17.7207 24.2406 18.3029 24.2424 18.3029 23.7301C18.3029 22.0737 18.3029 20.4172 18.3029 18.7607C18.3029 16.1223 18.3029 13.4838 18.3029 10.8454C18.3029 10.2422 18.3029 9.63914 18.3029 9.03603C18.3029 8.52558 17.7207 8.52381 17.7207 9.03603Z" fill="#4A8FE0"/>
<path d="M20.0371 9.0361C20.0371 10.6926 20.0371 12.3491 20.0371 14.0055C20.0371 16.644 20.0371 19.2824 20.0371 21.9209C20.0371 22.524 20.0371 23.1271 20.0371 23.7302C20.0371 24.2407 20.6193 24.2424 20.6193 23.7302C20.6193 22.0737 20.6193 20.4172 20.6193 18.7608C20.6193 16.1223 20.6193 13.4839 20.6193 10.8454C20.6193 10.2423 20.6193 9.6392 20.6193 9.0361C20.6193 8.52564 20.0371 8.52387 20.0371 9.0361Z" fill="#4A8FE0"/>
<path d="M23.1681 11.9767C22.0007 10.5055 20.0277 10.0299 18.2406 10.4784C16.8778 10.8207 15.1958 11.7666 15.462 13.406C15.6123 14.3337 16.3074 15.3127 17.1528 15.7352C17.6234 15.9701 18.1604 16.0374 18.6749 16.1129C19.2494 16.1973 19.8126 16.3189 20.3651 16.4983C20.8903 16.6688 21.4286 16.87 21.9027 17.1557C22.2746 17.3799 22.6744 17.7045 22.7255 18.163C22.8129 18.9485 21.9282 19.5451 21.3133 19.8395C20.282 20.3335 19.013 20.4615 17.9014 20.1918C17.3542 20.0591 16.8433 19.8331 16.428 19.4489C16.0276 19.0783 15.7406 18.6015 15.4626 18.1382C15.3628 17.9718 15.1572 17.9995 15.0509 18.1382C14.9237 18.3046 14.9493 18.5537 15.0509 18.7224C15.5434 19.5427 16.1007 20.324 17.0013 20.7348C17.9875 21.1844 19.1455 21.2358 20.1988 21.0357C21.7773 20.7354 23.868 19.4654 23.1907 17.5693C22.8485 16.6116 21.7649 16.1507 20.8796 15.8255C20.3265 15.6225 19.7568 15.4726 19.1775 15.367C18.6571 15.272 18.1182 15.2401 17.615 15.066C17.1047 14.8896 16.7239 14.5432 16.4268 14.1012C16.2207 13.7943 15.9824 13.3824 16.0163 12.9971C16.0745 12.3314 16.8326 11.8829 17.3756 11.6327C19.1395 10.8189 21.4821 10.954 22.7576 12.561C23.0731 12.9599 23.401 12.2706 23.1681 11.9767Z" fill="#4A8FE0"/>
<path d="M68.7013 42.8206H45.3269C43.4554 42.8206 41.9238 41.2992 41.9238 39.4403V4.00688C41.9238 2.14799 43.4554 0.626648 45.3269 0.626648H68.7013C70.5727 0.626648 72.1043 2.14799 72.1043 4.00688V39.4403C72.1043 41.2998 70.5733 42.8206 68.7013 42.8206Z" fill="white"/>
<path d="M68.7018 42.2008C67.3288 42.2008 65.9559 42.2008 64.5835 42.2008C61.6658 42.2008 58.7482 42.2008 55.83 42.2008C53.1369 42.2008 50.4438 42.2008 47.7507 42.2008C47.0402 42.2008 46.3296 42.2008 45.6191 42.2008C45.5217 42.2008 45.4242 42.202 45.3274 42.2008C44.3085 42.1902 43.352 41.6992 42.7894 40.8482C42.4139 40.2799 42.361 39.6792 42.361 39.033C42.361 38.4429 42.361 37.8527 42.361 37.262C42.361 35.0361 42.361 32.8101 42.361 30.5842C42.361 27.6206 42.361 24.6575 42.361 21.6939C42.361 18.7156 42.361 15.7372 42.361 12.7595C42.361 10.553 42.361 8.3465 42.361 6.14002C42.361 5.55993 42.361 4.98043 42.361 4.40034C42.361 3.71756 42.4383 3.08908 42.8553 2.5025C43.4221 1.70583 44.3536 1.25674 45.328 1.24612C45.4349 1.24494 45.5424 1.24612 45.6494 1.24612C46.3754 1.24612 47.1014 1.24612 47.8274 1.24612C50.5246 1.24612 53.2218 1.24612 55.9191 1.24612C58.8379 1.24612 61.7573 1.24612 64.6762 1.24612C66.0444 1.24612 67.418 1.21189 68.7856 1.2473C70.3207 1.28684 71.6628 2.50958 71.6682 4.05334C71.6694 4.4263 71.6682 4.79985 71.6682 5.1734C71.6682 7.09544 71.6682 9.01688 71.6682 10.9389C71.6682 13.7981 71.6682 16.6572 71.6682 19.5164C71.6682 22.565 71.6682 25.6136 71.6682 28.6621C71.6682 31.1159 71.6682 33.569 71.6682 36.0228C71.6682 37.1523 71.6765 38.2818 71.6682 39.4113C71.6569 40.9952 70.2572 42.1819 68.7018 42.2008C68.1154 42.2079 68.1154 43.4471 68.7018 43.44C70.8929 43.4135 72.5213 41.5569 72.5415 39.4337C72.5445 39.1268 72.5415 38.82 72.5415 38.5125C72.5415 36.6453 72.5415 34.7782 72.5415 32.911C72.5415 30.0342 72.5415 27.1579 72.5415 24.281C72.5415 21.1888 72.5415 18.096 72.5415 15.0037C72.5415 12.4892 72.5415 9.97466 72.5415 7.46013C72.5415 6.31765 72.551 5.17399 72.5415 4.03151C72.5261 2.11301 71.2232 0.375686 69.2757 0.0546583C68.7689 -0.0291394 68.2319 0.00626804 67.7198 0.00626804C65.3689 0.00626804 63.018 0.00626804 60.6672 0.00626804C57.6004 0.00626804 54.5336 0.00626804 51.4669 0.00626804C49.5152 0.00626804 47.5636 0.00626804 45.6126 0.00626804C45.4759 0.00626804 45.3393 0.00390754 45.2026 0.00862854C44.0804 0.0493471 43.0508 0.602294 42.3557 1.46978C41.701 2.28769 41.4883 3.28382 41.4883 4.30297C41.4883 5.80188 41.4883 7.30021 41.4883 8.79913C41.4883 11.5031 41.4883 14.2064 41.4883 16.9104C41.4883 20.0233 41.4883 23.1362 41.4883 26.2491C41.4883 28.9779 41.4883 31.706 41.4883 34.4347C41.4883 35.985 41.4883 37.5353 41.4883 39.0861C41.4883 40.0085 41.638 40.8948 42.1507 41.6909C42.907 42.8647 44.1802 43.4394 45.5508 43.4394C47.4436 43.4394 49.337 43.4394 51.2298 43.4394C54.2995 43.4394 57.3699 43.4394 60.4396 43.4394C62.8315 43.4394 65.2227 43.4394 67.6146 43.4394C67.977 43.4394 68.3394 43.4394 68.7018 43.4394C69.2876 43.44 69.2894 42.2008 68.7018 42.2008Z" fill="#4A8FE0"/>
<path d="M45.5218 27.9982C47.7966 27.9982 50.0714 27.9982 52.3463 27.9982C54.286 27.9982 56.2263 27.9982 58.1661 27.9982C58.6818 27.9982 59.1975 27.9982 59.7131 27.9982C60.1035 27.9982 60.1047 27.172 59.7131 27.172C58.3675 27.172 57.0219 27.172 55.6762 27.172C54.0721 27.172 52.4686 27.172 50.8646 27.172C49.0834 27.172 47.3023 27.172 45.5212 27.172C45.1315 27.172 45.1303 27.9982 45.5218 27.9982Z" fill="#4A8FE0"/>
<path d="M45.4123 31.8958C47.0871 31.8958 48.7613 31.8958 50.4361 31.8958C53.0941 31.8958 55.7521 31.8958 58.4102 31.8958C59.0227 31.8958 59.6358 31.8958 60.2483 31.8958C60.6386 31.8958 60.6398 31.0696 60.2483 31.0696C58.5735 31.0696 56.8994 31.0696 55.2246 31.0696C52.5665 31.0696 49.9085 31.0696 47.2505 31.0696C46.638 31.0696 46.0249 31.0696 45.4123 31.0696C45.022 31.0696 45.0208 31.8958 45.4123 31.8958Z" fill="#4A8FE0"/>
<path d="M45.7795 36.0087C47.9266 36.0087 50.0737 36.0087 52.2208 36.0087C55.644 36.0087 59.0673 36.0087 62.4905 36.0087C63.2777 36.0087 64.0649 36.0087 64.8521 36.0087C65.2424 36.0087 65.2436 35.1825 64.8521 35.1825C62.705 35.1825 60.5579 35.1825 58.4108 35.1825C54.9876 35.1825 51.5643 35.1825 48.1411 35.1825C47.3539 35.1825 46.5667 35.1825 45.7795 35.1825C45.3892 35.1825 45.388 36.0087 45.7795 36.0087Z" fill="#4A8FE0"/>
<path d="M45.8772 39.4727C46.5937 39.4727 47.3107 39.4727 48.0272 39.4727C49.7383 39.4727 51.4499 39.4727 53.1609 39.4727C55.2415 39.4727 57.3214 39.4727 59.402 39.4727C61.2009 39.4727 62.9999 39.4727 64.7994 39.4727C65.3899 39.4727 65.9805 39.4727 66.5716 39.4727C66.8497 39.4727 67.1443 39.501 67.4206 39.4727C67.4325 39.4715 67.4449 39.4727 67.4568 39.4727C67.8472 39.4727 67.8483 38.6465 67.4568 38.6465C66.7403 38.6465 66.0233 38.6465 65.3068 38.6465C63.5957 38.6465 61.8841 38.6465 60.1731 38.6465C58.0926 38.6465 56.0126 38.6465 53.932 38.6465C52.1331 38.6465 50.3341 38.6465 48.5346 38.6465C47.9441 38.6465 47.3535 38.6465 46.7624 38.6465C46.4844 38.6465 46.1897 38.6182 45.9134 38.6465C45.9015 38.6477 45.8891 38.6465 45.8772 38.6465C45.4868 38.6465 45.4857 39.4727 45.8772 39.4727Z" fill="#4A8FE0"/>
<path d="M62.6817 15.673C62.6443 14.8427 62.6098 13.9817 62.6164 13.1308C62.6199 12.576 62.6508 12.0078 62.6782 11.4595C62.7263 10.5 62.7774 9.50917 62.7019 8.53605L62.6883 8.3183C62.63 7.46734 62.551 6.30007 61.6741 5.93596C61.3111 5.78607 60.8929 5.7725 60.4919 5.75539C60.379 5.75184 60.2691 5.7483 60.1627 5.74181C59.4842 5.69755 58.8022 5.66038 58.1208 5.63264C57.5314 5.60903 56.7603 5.5813 55.9725 5.5813C55.2322 5.5813 54.571 5.6049 53.9508 5.65624C53.7624 5.6527 53.5741 5.64916 53.3852 5.64916C52.6075 5.64916 51.8191 5.67631 51.0587 5.70345C50.4966 5.72411 49.9316 5.74417 49.3696 5.7548H49.2633C49.0542 5.7548 48.8385 5.74476 48.6121 5.73768C48.3692 5.72765 48.1291 5.71703 47.8856 5.71703C47.3818 5.71703 46.7377 5.75421 46.2102 6.05399C45.4497 6.48301 45.3434 7.36407 45.2507 8.14008L45.2269 8.33423C45.0315 9.89629 45.0386 11.4997 45.0422 12.9189C45.0457 14.3382 45.1105 15.8831 45.2477 17.7756C45.2958 18.4667 45.3232 19.1713 45.3469 19.8517C45.357 20.1515 45.3677 20.4471 45.3814 20.7469C45.3986 21.1211 45.5287 22.3839 46.5393 22.8537C47.0603 23.095 47.7281 23.1257 48.2527 23.1257C48.51 23.1257 48.7666 23.1157 49.0132 23.1086C49.2425 23.1015 49.4623 23.095 49.6679 23.095H49.8223C50.4972 23.1086 51.1721 23.1157 51.8476 23.1157C52.3306 23.1157 52.8136 23.1121 53.2972 23.1121L54.2021 23.1086C54.6441 23.1086 55.0897 23.1121 55.5317 23.1151C55.9737 23.1186 56.4193 23.1222 56.8613 23.1222C57.2623 23.1222 57.6663 23.1186 58.0673 23.1121C58.1529 23.1121 58.2455 23.1121 58.3347 23.1121C58.4719 23.1121 59.2151 23.1157 59.2151 23.1157C60.0201 23.1157 60.8596 23.0814 61.5488 22.823C62.371 22.5167 62.5457 21.6929 62.6039 21.0054C62.7031 19.8417 62.7512 18.8001 62.7441 17.8199C62.7435 17.1023 62.709 16.3776 62.6817 15.673ZM62.267 11.109C62.2569 11.3167 62.2462 11.5244 62.2361 11.7316C62.1779 13.0487 62.2225 14.3895 62.2635 15.6831C62.3217 17.4257 62.3763 19.2262 62.1916 20.9959C62.106 21.8263 61.8488 22.4081 60.8792 22.5379C60.4235 22.5993 59.9643 22.6265 59.4575 22.6536C58.779 22.6908 58.0525 22.7049 57.0965 22.7049C56.7128 22.7049 56.329 22.7014 55.9452 22.7014H55.736C55.4342 22.6979 55.1295 22.6979 54.8283 22.6979C54.3625 22.6979 53.8961 22.6979 53.4303 22.7014C52.9645 22.7014 52.4982 22.7049 52.0324 22.7049C51.2137 22.7049 50.1342 22.7014 49.0345 22.6642C48.9389 22.6607 48.8391 22.6607 48.7399 22.6607L48.1778 22.6642C47.3111 22.6642 46.427 22.5893 45.9915 21.6876C45.6796 21.0443 45.6933 20.1869 45.707 19.356C45.7141 19.019 45.7171 18.7027 45.6998 18.4065C45.6761 17.9775 45.6416 17.5455 45.6107 17.1165C45.559 16.429 45.5079 15.7179 45.4842 15.0168C45.4497 13.9274 45.4396 12.7566 45.4569 11.4465C45.4604 11.2288 45.4604 11.004 45.4604 10.7726C45.4604 9.56759 45.4604 8.20617 45.8507 7.12743C46.1763 6.22217 47.2041 6.10651 48.0644 6.10651C48.349 6.10651 48.6365 6.12008 48.9038 6.13366C49.1439 6.14723 49.3732 6.15726 49.5752 6.15726H49.6916C50.1301 6.14723 50.5721 6.13011 51.0105 6.11654C51.7847 6.0894 52.5831 6.05871 53.3715 6.05871C53.5634 6.05871 53.7553 6.05871 53.9472 6.06579C54.6084 6.01445 55.297 5.9873 56.0616 5.9873C57.3294 5.9873 58.6074 6.05871 59.9126 6.14074C60.0362 6.14782 60.1764 6.15077 60.3172 6.15077C60.6974 6.15431 61.1293 6.1608 61.4377 6.28709C62.0888 6.55264 62.1779 7.45081 62.2427 8.10467L62.2599 8.26106C62.3633 9.20644 62.3152 10.1731 62.267 11.109Z" fill="#4A8FE0"/>
<path d="M50.745 12.9502C50.4741 12.5997 49.9501 12.559 49.5799 12.559C49.429 12.559 49.2781 12.566 49.1415 12.5725C49.0524 12.5761 48.9668 12.5826 48.8914 12.5826H48.8569C48.6514 12.5826 48.4422 12.5997 48.2438 12.6168C48.0656 12.6304 47.8873 12.6439 47.7061 12.6475H47.5214C47.3841 12.6475 47.2404 12.654 47.1002 12.7425C46.6682 13.0116 46.6546 13.7363 46.648 14.2196L46.6445 14.3795C46.6272 14.8935 46.6516 15.411 46.6754 15.8973C46.6789 15.938 46.6789 15.9858 46.6789 16.0301C46.6789 16.2242 46.6825 16.442 46.809 16.5948C46.9665 16.7854 47.2647 16.8775 47.7204 16.8775C47.9432 16.8775 48.1725 16.8568 48.3715 16.8403C48.5189 16.8267 48.6561 16.8167 48.7619 16.8132H48.8064C49.1522 16.8096 49.495 16.8031 49.8413 16.8031H50.1431C50.174 16.8031 50.2115 16.8067 50.2459 16.8067C50.2905 16.8102 50.3315 16.8102 50.376 16.8102C50.4788 16.8102 50.6054 16.8002 50.7016 16.7117C51.0236 16.419 50.9755 15.7008 50.938 15.1732C50.9279 15.0404 50.9208 14.9248 50.9208 14.8327C50.9208 14.707 50.9309 14.5571 50.9416 14.3972C50.9678 13.9068 51.0123 13.2943 50.745 12.9502ZM50.5121 15.3325C50.5329 15.8159 50.5531 16.2685 49.9881 16.3942C49.8479 16.4249 49.6797 16.4384 49.4706 16.4384C49.3061 16.4384 49.1415 16.4284 48.9769 16.4213C48.8195 16.4142 48.665 16.4042 48.5248 16.4042H48.4874C48.4155 16.4042 48.3264 16.4113 48.2337 16.4178C48.1101 16.4249 47.9765 16.4349 47.8398 16.4349C47.4216 16.4349 47.1851 16.3428 47.093 16.1422C46.9665 15.8666 47.0039 15.2877 47.0312 14.8658C47.0413 14.7294 47.0485 14.6073 47.052 14.5117C47.052 14.4539 47.052 14.3889 47.052 14.3246C47.052 13.8206 47.052 13.191 47.614 13.0482C47.8541 12.9868 48.1725 12.9803 48.3917 12.9803C48.5016 12.9803 48.611 12.9838 48.7102 12.9838L48.892 12.9874C48.9739 12.9874 49.0565 12.9809 49.1421 12.9774C49.255 12.9709 49.3714 12.9673 49.4813 12.9673C49.9471 12.9673 50.3891 13.0558 50.4954 13.7091C50.54 13.9983 50.5299 14.3217 50.5162 14.635C50.5097 14.7885 50.5026 14.9413 50.5061 15.0841C50.5055 15.1691 50.5085 15.2511 50.5121 15.3325Z" fill="#4A8FE0"/>
<path d="M49.5932 14.5295C49.374 14.5466 49.144 14.5566 48.8874 14.5637C48.8945 14.3253 48.9011 14.0769 48.8838 13.8355C48.8737 13.7063 48.7674 13.6414 48.6646 13.6414C48.6064 13.6414 48.5517 13.662 48.5173 13.6992C48.4828 13.7364 48.4691 13.7842 48.4727 13.8385C48.4899 14.0798 48.4864 14.3253 48.4798 14.5602C48.206 14.5537 47.9588 14.5395 47.7057 14.5195C47.5857 14.5195 47.531 14.608 47.5275 14.6965C47.5239 14.7986 47.5893 14.9143 47.7229 14.9278C47.9558 14.9485 48.2024 14.9621 48.4769 14.9685C48.4769 15.1727 48.484 15.4312 48.5315 15.6903C48.5488 15.7823 48.6171 15.8402 48.7098 15.8402C48.7751 15.8402 48.8434 15.8095 48.8844 15.7587C48.9254 15.7109 48.9391 15.6496 48.929 15.5888C48.8945 15.4082 48.8809 15.2176 48.8809 14.9727C49.1411 14.9691 49.3775 14.9591 49.5968 14.9385C49.7304 14.9284 49.7958 14.8128 49.7922 14.7107C49.7886 14.6044 49.7132 14.5295 49.5932 14.5295Z" fill="#4A8FE0"/>
<path d="M52.194 16.7518C52.3651 16.8368 52.6086 16.8775 52.9407 16.8775C53.1772 16.8775 53.4273 16.8568 53.6501 16.8403C53.8319 16.8267 53.9994 16.8132 54.1539 16.8096C54.2531 16.8096 54.3904 16.8197 54.5442 16.8332C54.7397 16.8503 54.9625 16.8675 55.171 16.8675C55.4657 16.8675 55.6641 16.8303 55.7841 16.7483C56.1406 16.5134 56.096 15.8088 56.0687 15.3426C56.0616 15.2405 56.0586 15.1484 56.055 15.077C56.055 14.9136 56.055 14.7501 56.055 14.5902C56.0586 14.2568 56.0586 13.9127 56.0449 13.5757L56.0414 13.5144C56.0343 13.3338 56.0277 13.1296 55.9113 12.9768C55.6404 12.6127 55.0409 12.5649 54.5442 12.5649C54.4278 12.5649 54.3179 12.5684 54.2151 12.5719L54.0268 12.5755C53.9276 12.5755 53.8111 12.569 53.684 12.5619C53.5265 12.5519 53.3519 12.5448 53.1736 12.5448C52.8308 12.5448 52.3478 12.5755 52.0912 12.8546C51.7175 13.2565 51.7448 14.0768 51.7656 14.6757C51.7692 14.7678 51.7721 14.8528 51.7721 14.9277C51.7721 15.0369 51.7656 15.159 51.7585 15.2918C51.7412 15.8294 51.7038 16.5069 52.194 16.7518ZM52.2967 13.4099C52.4922 13.0222 53.0097 12.9709 53.4344 12.9709C53.5509 12.9709 53.6673 12.9744 53.7737 12.978C53.8664 12.9815 53.9519 12.9844 54.0339 12.9844C54.1022 12.9844 54.1711 12.9809 54.243 12.9809C54.3357 12.9774 54.4314 12.9744 54.524 12.9744C55.0278 12.9744 55.5144 13.0494 55.6344 13.587C55.7027 13.8867 55.6825 14.2508 55.6617 14.6043C55.6516 14.7713 55.6445 14.9342 55.6445 15.0806C55.6445 15.1484 55.6481 15.2234 55.6511 15.3054C55.6718 15.7409 55.6956 16.2856 55.3017 16.3912C55.1888 16.4219 55.0445 16.4355 54.8698 16.4355C54.7296 16.4355 54.5852 16.4255 54.445 16.4184C54.3113 16.4113 54.1848 16.4013 54.0684 16.4013C54.0684 16.4013 53.6917 16.4048 53.5164 16.4048C53.3008 16.4048 53.0881 16.4048 52.8724 16.3977C52.2011 16.3841 52.2011 15.9722 52.2011 15.4482C52.2011 15.3668 52.2011 15.2812 52.1975 15.1962C52.194 15.1077 52.1904 15.0021 52.1839 14.89C52.1595 14.4102 52.1221 13.7534 52.2967 13.4099Z" fill="#4A8FE0"/>
<path d="M53.0156 14.9315C53.0191 14.9315 53.0191 14.9315 53.0156 14.9315C53.132 14.9244 53.2449 14.9214 53.3613 14.9214C53.5396 14.9214 53.7142 14.9279 53.8925 14.935C54.0707 14.9421 54.2489 14.9486 54.4272 14.9486C54.5507 14.9486 54.6737 14.945 54.7973 14.935C54.931 14.925 54.9963 14.8123 54.9927 14.7102C54.9892 14.6216 54.931 14.5266 54.7937 14.5266C54.6701 14.5367 54.5507 14.5402 54.4272 14.5402C54.2489 14.5402 54.0743 14.5331 53.896 14.5266C53.7178 14.5196 53.5396 14.5131 53.3613 14.5131C53.2449 14.5131 53.1284 14.5166 53.012 14.5231C52.8783 14.5331 52.813 14.6423 52.8165 14.7479C52.8201 14.8359 52.8783 14.9315 53.0156 14.9315Z" fill="#4A8FE0"/>
<path d="M50.7597 17.8584C50.5132 17.5008 50.0058 17.4536 49.5911 17.4536C49.4575 17.4536 49.3273 17.4607 49.2073 17.4636C49.101 17.4672 49.0018 17.4707 48.8919 17.4707H48.8336C48.5354 17.4707 48.2342 17.4914 47.9395 17.5114C47.8266 17.5185 47.7102 17.5286 47.5967 17.5351L47.504 17.5386C47.3638 17.5421 47.2302 17.5451 47.0929 17.6307C46.6372 17.9133 46.6337 18.7094 46.6337 19.2334L46.6265 19.591C46.6164 20.0779 46.6057 20.5848 46.6747 21.0546L46.6848 21.1431C46.6984 21.2723 46.7157 21.4051 46.822 21.5208C46.9729 21.6807 47.2022 21.7013 47.425 21.7013H47.6377C48.0797 21.7114 48.5253 21.7149 48.9673 21.7149H49.0047C49.4604 21.7149 49.8543 21.7084 50.2417 21.6942L50.3991 21.6978C50.4746 21.6978 50.5738 21.6907 50.6492 21.64C51.0021 21.3915 50.951 20.6462 50.9166 20.1493C50.9094 20.0336 50.9029 19.9315 50.8993 19.8531C50.8993 19.7138 50.9094 19.5533 50.9231 19.3768C50.9724 18.8658 51.017 18.229 50.7597 17.8584ZM50.506 20.3836C50.5161 20.7577 50.5233 21.1802 50.1769 21.2853C50.0504 21.3225 49.8787 21.3431 49.6594 21.3431C49.4883 21.3431 49.3101 21.3331 49.1384 21.3225C48.9946 21.3124 48.861 21.3054 48.7338 21.3054C48.621 21.3054 48.4801 21.3154 48.3292 21.329C48.1611 21.3425 47.9799 21.3561 47.8118 21.3561C47.6163 21.3561 47.4725 21.3355 47.3733 21.2947C46.9759 21.1248 47.0103 20.4644 47.0341 19.9811C47.0412 19.869 47.0442 19.7669 47.0442 19.6813C47.0442 19.6064 47.0406 19.525 47.0371 19.44C47.0198 18.8475 46.9961 18.1092 47.6092 17.9393C47.832 17.8779 48.1439 17.8679 48.3595 17.8679C48.4724 17.8679 48.5859 17.8714 48.6916 17.8714L48.8871 17.875C49.5448 17.8815 50.3641 17.885 50.4906 18.7153C50.5387 19.0422 50.5251 19.4028 50.5144 19.7498C50.5078 19.9097 50.5043 20.0696 50.5043 20.2195V20.3836H50.506Z" fill="#4A8FE0"/>
<path d="M49.8255 18.801C49.7946 18.716 49.7054 18.6582 49.6163 18.6582C49.5682 18.6582 49.5207 18.6753 49.4791 18.709C49.2527 18.9031 49.0163 19.1138 48.7186 19.3929C48.4685 19.1852 48.2457 18.9881 48.0473 18.7904C48.0063 18.7497 47.9582 18.729 47.91 18.729C47.8281 18.729 47.7455 18.7868 47.711 18.8653C47.6801 18.9403 47.6973 19.0188 47.7556 19.0766C47.951 19.2708 48.1703 19.4679 48.4168 19.672C48.1768 19.9034 47.9374 20.1382 47.7074 20.3831C47.6492 20.4445 47.6356 20.526 47.6665 20.6009C47.7009 20.6794 47.7793 20.7337 47.8619 20.7337C47.9136 20.7337 47.9611 20.713 47.9992 20.6688C48.2148 20.4439 48.4483 20.2091 48.7394 19.9299L48.7769 19.9606C49.0169 20.1441 49.2397 20.3147 49.4316 20.5425C49.4797 20.6003 49.5343 20.6139 49.5688 20.6139C49.6443 20.6139 49.7197 20.5625 49.7536 20.4882C49.791 20.4097 49.7773 20.3283 49.7262 20.2604C49.5308 20.0255 49.2878 19.842 49.0549 19.6614L49.0412 19.6514C49.2777 19.4301 49.5177 19.2123 49.7678 18.9981C49.832 18.9474 49.8528 18.876 49.8255 18.801Z" fill="#4A8FE0"/>
<path d="M55.915 17.8856C55.6577 17.5008 55.1099 17.4565 54.719 17.4565C54.5646 17.4565 54.4172 17.4636 54.2806 17.4701C54.1915 17.4737 54.1059 17.4801 54.0305 17.4801C53.9485 17.4801 53.8558 17.4766 53.753 17.4737C53.6128 17.4701 53.4583 17.4636 53.3009 17.4636C52.91 17.4636 52.3587 17.4943 52.0741 17.7563C51.6731 18.124 51.7247 18.8522 51.7657 19.4341C51.7758 19.5733 51.7865 19.7032 51.7865 19.8153C51.7901 19.9244 51.78 20.0501 51.7729 20.1865C51.7384 20.7376 51.6938 21.4251 52.1911 21.6535C52.3759 21.7385 52.6296 21.7792 52.9961 21.7792C53.1643 21.7792 53.3389 21.7721 53.4999 21.7621C53.6437 21.755 53.7809 21.7485 53.9009 21.7485H53.9526C54.0554 21.7521 54.1891 21.7621 54.3329 21.7721C54.5384 21.7892 54.7749 21.8064 55.0012 21.8064C55.3678 21.8064 55.625 21.755 55.7825 21.6529C56.1389 21.4216 56.0944 20.7134 56.067 20.2472C56.0605 20.1452 56.0569 20.0531 56.0534 19.9817C56.0534 19.8353 56.067 19.6618 56.0807 19.4712C56.1205 18.9372 56.1716 18.2703 55.915 17.8856ZM53.4067 21.3437C53.3247 21.3437 53.2456 21.3472 53.1637 21.3472C53.0128 21.3472 52.8179 21.3437 52.6426 21.303C52.1662 21.2009 52.1834 20.6869 52.1971 20.2307C52.2006 20.1357 52.2042 20.0401 52.2006 19.9551C52.1935 19.676 52.1905 19.3933 52.1935 19.1142V19.0635C52.1971 18.6923 52.1971 18.5902 52.4846 18.2668C52.7555 17.957 52.8102 17.9534 53.0775 17.9434C53.1357 17.9399 53.2011 17.9369 53.2795 17.9298L53.3722 17.9233C53.5849 17.9062 53.7869 17.8891 53.996 17.8891L54.2087 17.8856C54.3115 17.882 54.4143 17.8791 54.5135 17.8791C55.1509 17.8791 55.5621 18.0219 55.6339 18.73C55.6684 19.067 55.6613 19.4246 55.6512 19.7681C55.6476 19.9244 55.644 20.0814 55.644 20.2378C55.644 20.2921 55.6476 20.357 55.6512 20.4249C55.6577 20.5948 55.6684 20.789 55.6339 20.9253C55.5276 21.3337 55.4011 21.3372 55.1266 21.3407L55.0202 21.3443C54.8248 21.3514 54.6293 21.3543 54.4344 21.3543C54.2051 21.3543 53.9752 21.3508 53.7459 21.3443H53.6431C53.5641 21.3402 53.4857 21.3437 53.4067 21.3437Z" fill="#4A8FE0"/>
<path d="M54.1029 19.8731C54.2295 19.8666 54.3602 19.8559 54.4903 19.8559C54.6614 19.8559 54.7986 19.8695 54.9222 19.9037C54.943 19.9073 54.9596 19.9108 54.9769 19.9108C55.0897 19.9108 55.1616 19.8188 55.1759 19.7273C55.186 19.6423 55.145 19.5402 55.0321 19.5131C54.823 19.4588 54.583 19.4316 54.299 19.4316C53.9081 19.4316 53.494 19.483 53.1304 19.5267L52.8975 19.5538C52.7638 19.5709 52.6985 19.6866 52.7056 19.7922C52.7127 19.8943 52.7811 19.9657 52.8803 19.9657H52.9076C53.2195 19.9285 53.5415 19.9043 53.8908 19.8908C53.9556 19.8801 54.0275 19.8766 54.1029 19.8731Z" fill="#4A8FE0"/>
<path d="M53.9275 19.2126C53.9893 19.2126 54.0404 19.189 54.0784 19.1476C54.1093 19.1105 54.1295 19.0627 54.1295 19.0084C54.1295 18.9063 54.0612 18.8042 53.9305 18.8042C53.8687 18.8042 53.8176 18.8278 53.7796 18.8691C53.7487 18.9063 53.7285 18.9541 53.7285 19.0084C53.7291 19.1105 53.7974 19.2126 53.9275 19.2126Z" fill="#4A8FE0"/>
<path d="M53.9471 20.0536C53.8853 20.0536 53.8342 20.0772 53.7962 20.1185C53.7653 20.1557 53.748 20.2035 53.748 20.2584C53.748 20.3604 53.8164 20.4625 53.9471 20.4625C54.0089 20.4625 54.0599 20.4389 54.098 20.3976C54.1289 20.3604 54.1491 20.3126 54.1491 20.2584C54.1455 20.1557 54.0772 20.0536 53.9471 20.0536Z" fill="#4A8FE0"/>
<path d="M61.1295 19.5902L61.1431 16.6839L61.1467 15.7887C61.1502 15.1661 61.1568 14.5394 61.1538 13.9168C61.1538 13.869 61.1538 13.8182 61.1574 13.7669C61.1645 13.5013 61.171 13.2021 60.9964 12.9944C60.7189 12.661 60.126 12.6203 59.643 12.6203C59.5301 12.6203 59.4202 12.6238 59.321 12.6238L59.1392 12.6274C59.0192 12.6274 58.8962 12.6238 58.7691 12.6173C58.6354 12.6138 58.5017 12.6073 58.3716 12.6073C57.7241 12.6073 57.1074 12.7194 56.9737 13.5297C56.881 14.0879 56.881 14.6733 56.881 15.2416C56.881 15.4151 56.881 15.5857 56.8775 15.7521C56.8703 16.2147 56.8537 16.6845 56.8365 17.1578C56.7919 18.4478 56.7438 19.7785 56.8846 21.0414C56.9666 21.7631 57.6314 21.7731 58.2207 21.7832C58.3544 21.7867 58.4881 21.7867 58.6116 21.7967C58.7519 21.8068 58.8927 21.8103 59.0299 21.8103C59.3656 21.8103 59.7084 21.7832 60.0375 21.7595L60.1403 21.7525C60.1914 21.7489 60.2502 21.746 60.3084 21.746C60.5175 21.7424 60.7575 21.7359 60.9114 21.6032C61.2299 21.324 61.1788 20.5616 61.1407 20.0033C61.1366 19.8458 61.1295 19.703 61.1295 19.5902ZM59.5432 21.3943C59.5022 21.3943 59.4642 21.3943 59.4369 21.3978H59.4024C59.245 21.4049 59.015 21.4185 58.7685 21.4185C57.8809 21.4185 57.3878 21.265 57.2987 20.9694C57.2096 20.6666 57.2369 20.2447 57.2612 19.8735C57.2713 19.7 57.282 19.5365 57.282 19.3902C57.2785 18.587 57.2749 17.7839 57.282 16.9807C57.2856 16.1262 57.2921 15.2924 57.3266 14.4656C57.3302 14.3942 57.3302 14.3193 57.3302 14.2408C57.3302 14.0502 57.3266 13.8525 57.3747 13.6896C57.5322 13.1077 58.0532 13.0257 58.5909 13.0257C58.6901 13.0257 58.7899 13.0292 58.8891 13.0292C58.9782 13.0328 59.0638 13.0328 59.1493 13.0328L59.3311 13.0292C59.4131 13.0292 59.4957 13.0257 59.5777 13.0257C60.0571 13.0257 60.5853 13.0764 60.7528 13.6825C60.7837 13.7917 60.77 13.9445 60.7599 14.0808C60.7528 14.1487 60.7498 14.2136 60.7498 14.2679L60.7326 17.6033C60.7255 18.5085 60.7189 19.4103 60.7225 20.3126C60.7225 20.3704 60.7261 20.4383 60.729 20.5103C60.7463 20.81 60.7665 21.1806 60.5544 21.3134C60.4415 21.3848 60.126 21.3919 59.8967 21.3919L59.5432 21.3943Z" fill="#4A8FE0"/>
<path d="M58.125 17.1401C58.3543 17.1501 58.5842 17.1536 58.8136 17.1536C58.9983 17.1536 59.1837 17.1501 59.3685 17.1501C59.5503 17.1465 59.7285 17.1465 59.9097 17.1465C60.0398 17.1465 60.1087 17.0445 60.1087 16.9424C60.1087 16.8403 60.0404 16.7382 59.9097 16.7382C59.7279 16.7382 59.5497 16.7417 59.3685 16.7417C59.1837 16.7453 58.9983 16.7453 58.8165 16.7453C58.5872 16.7453 58.3609 16.7417 58.1208 16.7317C57.9943 16.7317 57.9325 16.8302 57.9325 16.9223C57.923 17.0279 57.9913 17.133 58.125 17.1401Z" fill="#4A8FE0"/>
<path d="M60.105 17.5583C60.1015 17.4527 60.026 17.3777 59.906 17.3777C59.906 17.3777 59.906 17.3777 59.9025 17.3777C59.6933 17.3948 59.4706 17.4049 59.2175 17.4049C58.9192 17.4049 58.618 17.3913 58.3198 17.3812L58.1178 17.3748C57.9877 17.3748 57.9295 17.4733 57.9259 17.5689C57.9223 17.671 57.9913 17.7802 58.1249 17.7831L58.3168 17.7896C58.6186 17.8032 58.9163 17.8132 59.2181 17.8132C59.4717 17.8132 59.6975 17.8032 59.9066 17.7861C60.0433 17.7731 60.108 17.6604 60.105 17.5583Z" fill="#4A8FE0"/>
<path d="M60.6088 7.48444C60.3824 7.38943 60.105 7.3788 59.862 7.36877L59.7319 7.36523C58.745 7.31743 57.7446 7.31094 56.7714 7.3074L56.2813 7.30032C54.9006 7.29028 53.5163 7.2832 52.135 7.2832C50.7609 7.2832 49.3903 7.29028 48.003 7.30386C47.9413 7.30386 47.8729 7.30032 47.7975 7.29678C47.7155 7.29324 47.6294 7.28969 47.5474 7.28969C47.3828 7.28969 47.2664 7.30681 47.1737 7.33749C46.7008 7.50745 46.6972 8.08636 46.6942 8.54902C46.6942 8.67177 46.6942 8.79038 46.6841 8.89306L46.677 8.93378C46.6223 9.52922 46.5332 10.523 46.7626 11.0984C46.9099 11.4695 47.3145 11.5203 47.7321 11.5203H47.8896L48.8354 11.5168C50.086 11.5168 51.3401 11.5203 52.5907 11.5268L54.8762 11.5339L59.2245 11.5439C59.3237 11.5439 59.4265 11.5474 59.5263 11.551C59.6326 11.5545 59.742 11.5581 59.8483 11.5581C59.9475 11.5581 60.0438 11.5545 60.1394 11.548C61.1743 11.4802 61.1607 10.5236 61.15 9.6797V9.55046C61.15 9.44837 61.1571 9.33271 61.1636 9.20996C61.1945 8.55669 61.2355 7.74999 60.6088 7.48444ZM60.7389 9.59472C60.746 10.3471 60.7525 11.0618 59.903 11.1397C59.8037 11.1497 59.7039 11.1532 59.6012 11.1532C59.4912 11.1532 59.3784 11.1497 59.269 11.1462C59.1627 11.1426 59.0599 11.1391 58.9536 11.1391L48.2532 11.1084H48.085C48.0304 11.1084 47.965 11.1119 47.8967 11.1184C47.8147 11.1249 47.7256 11.132 47.6365 11.132C47.3792 11.132 47.2254 11.0742 47.157 10.9485C47.078 10.8057 47.0816 10.4858 47.0852 10.2303C47.0852 10.1282 47.0887 10.0361 47.0816 9.97181C47.037 9.24714 47.0608 8.69891 47.1535 8.23626C47.2563 7.73229 47.4244 7.71222 47.7975 7.71222H47.9757C49.281 7.69865 50.5868 7.69511 51.8921 7.69511C52.8206 7.69511 53.7492 7.69865 54.6778 7.70219C56.0829 7.70927 57.3537 7.71577 58.6488 7.74291L58.8336 7.74645C59.1764 7.75353 59.5328 7.76002 59.8822 7.78068C59.9131 7.78422 59.9505 7.78422 59.9885 7.78422C60.0705 7.78422 60.1531 7.78422 60.2178 7.80487C60.8036 8.00257 60.7763 8.70363 60.7525 9.26838C60.749 9.36693 60.746 9.46253 60.746 9.55105L60.7389 9.59472Z" fill="#4A8FE0"/>
<path d="M48.266 8.09351C48.2523 8.09351 48.2351 8.09351 48.2214 8.09705C47.8857 8.16845 47.622 8.35257 47.5019 8.60396C47.3754 8.86952 47.4128 9.20294 47.4473 9.49564L47.4645 9.64553C47.4746 9.77123 47.5845 9.83968 47.6873 9.83968C47.7455 9.83968 47.8002 9.81903 47.8346 9.78185C47.8691 9.74467 47.8828 9.69687 47.8792 9.64258L47.8691 9.52338C47.8483 9.33277 47.8281 9.13567 47.8453 8.94801C47.8554 8.7096 48.0236 8.55675 48.3284 8.49538C48.4311 8.47473 48.4894 8.39683 48.4793 8.29474C48.4644 8.1956 48.3896 8.09351 48.266 8.09351Z" fill="#4A8FE0"/>
<path d="M48.9158 8.04932C48.7857 8.04932 48.7168 8.15141 48.7168 8.2535C48.7168 8.30779 48.734 8.35559 48.7685 8.39277C48.8059 8.43703 48.8576 8.45768 48.9194 8.45768C49.0495 8.45768 49.1184 8.35559 49.1184 8.2535C49.1184 8.19921 49.1012 8.15141 49.0703 8.11423C49.0287 8.07292 48.9776 8.04932 48.9158 8.04932Z" fill="#4A8FE0"/>
</g>
<defs>
<clipPath id="clip0_844_3062">
<rect width="72.5455" height="70" fill="white"/>
</clipPath>
</defs>
</svg>
