<svg width="36" height="36" viewBox="0 0 36 36" fill="none" xmlns="http://www.w3.org/2000/svg">
<circle cx="18" cy="18" r="18" fill="#E1EBF9" fill-opacity="0.3"/>
<path d="M24.2937 10.4975C24.0931 10.5121 23.8962 10.5592 23.7106 10.6369H23.7081C23.53 10.7075 22.6831 11.0638 21.3956 11.6038L16.7819 13.5469C13.4713 14.9407 10.2169 16.3132 10.2169 16.3132L10.2556 16.2982C10.2556 16.2982 10.0313 16.3719 9.79688 16.5325C9.65208 16.6247 9.52749 16.7452 9.43063 16.8869C9.31563 17.0557 9.22313 17.3138 9.2575 17.5807C9.31375 18.0319 9.60625 18.3025 9.81625 18.4519C10.0288 18.6032 10.2313 18.6738 10.2313 18.6738H10.2363L13.2881 19.7019C13.425 20.1413 14.2181 22.7488 14.4088 23.3494C14.5213 23.7082 14.6306 23.9325 14.7675 24.1038C14.8338 24.1913 14.9113 24.2644 15.0044 24.3232C15.0528 24.3513 15.1044 24.3736 15.1581 24.3894L15.1269 24.3819C15.1363 24.3844 15.1438 24.3919 15.1506 24.3944C15.1756 24.4013 15.1925 24.4038 15.2244 24.4088C15.7075 24.555 16.0956 24.255 16.0956 24.255L16.1175 24.2375L17.9194 22.5969L20.9394 24.9138L21.0081 24.9432C21.6375 25.2194 22.275 25.0657 22.6119 24.7944C22.9513 24.5213 23.0831 24.1719 23.0831 24.1719L23.105 24.1157L25.4387 12.16C25.505 11.865 25.5219 11.5888 25.4487 11.3207C25.3733 11.0493 25.1992 10.8159 24.9606 10.6663C24.7603 10.5445 24.5279 10.4857 24.2937 10.4975ZM24.2306 11.7788C24.2281 11.8182 24.2356 11.8138 24.2181 11.8894V11.8963L21.9062 23.7275C21.8962 23.7444 21.8794 23.7813 21.8331 23.8182C21.7844 23.8569 21.7456 23.8813 21.5425 23.8007L17.8488 20.9688L15.6175 23.0025L16.0863 20.0088L22.1213 14.3838C22.37 14.1525 22.2869 14.1038 22.2869 14.1038C22.3044 13.82 21.9113 14.0207 21.9113 14.0207L14.3013 18.735L14.2988 18.7225L10.6513 17.4944V17.4919L10.6419 17.49C10.6483 17.4879 10.6545 17.4854 10.6606 17.4825L10.6806 17.4725L10.7 17.4657C10.7 17.4657 13.9569 16.0932 17.2675 14.6994C18.925 14.0013 20.595 13.2982 21.8794 12.7557C22.6411 12.435 23.4036 12.1163 24.1669 11.7994C24.2181 11.7794 24.1938 11.7794 24.2306 11.7794V11.7788Z" fill="white"/>
</svg>
