<svg width="19" height="18" viewBox="0 0 19 18" fill="none" xmlns="http://www.w3.org/2000/svg">
<g clip-path="url(#clip0_2_219)">
<path d="M18.0187 6.62499H14.959L11.7445 1.27301C11.5851 1.00715 11.2392 0.920352 10.972 1.08021C10.7053 1.24006 10.6189 1.58556 10.779 1.85199L13.6457 6.62499H4.37305L7.23983 1.85195C7.39985 1.58552 7.31353 1.24002 7.04682 1.08017C6.77902 0.920314 6.43426 1.00711 6.27424 1.27297L3.05974 6.62495H0V7.74996H1.22213L2.65266 15.3728C2.80222 16.171 3.50057 16.75 4.31334 16.75H13.7054C14.5182 16.75 15.2165 16.171 15.3656 15.3734L16.7966 7.74996H18.0188C18.0187 7.74996 18.0187 6.62499 18.0187 6.62499ZM14.2586 15.1663C14.2091 15.4322 13.9765 15.625 13.7054 15.625H4.31334C4.04224 15.625 3.80966 15.4322 3.75962 15.1658L2.36757 7.74996H15.6512L14.2586 15.1663Z" fill="#4A8FE0"/>
</g>
<defs>
<clipPath id="clip0_2_219">
<rect width="18.0187" height="18" fill="white"/>
</clipPath>
</defs>
</svg>
