<svg width="71" height="70" fill="none" xmlns="http://www.w3.org/2000/svg"><g clip-path="url(#clip0_844_3442)" fill="#4A8FE0"><path d="M70.387 44.25c.052-3.44-.206-6.133-3.903-6.944 0-.593.013-1.198.026-1.804.077-3.49.167-7.11-1.971-9.339l-.116-.077.142-.077c.051-.812.051-1.598.051-2.397 0-1.043.013-2.125.116-3.207.168-1.61.245-3.672-.644-5.359-1.404-2.692-4.547-2.911-7.664-2.911h-1.61a785.158 785.158 0 00-4.909-7.73c-.18-.283-.386-.644-.592-1.043-.722-1.314-1.61-2.95-2.847-3.298A1.853 1.853 0 0045.989 0c-.708 0-1.378.425-1.97.786-.155.103-.31.193-.465.283-1.52.876-3.04 1.765-4.56 2.667l-.67.386c-.09-.154-.18-.335-.283-.515C37.23 2.1 36.096.026 34.499 0c-.928 0-1.843.631-2.641 1.185-.27.18-.528.36-.773.503-1.945 1.159-3.903 2.305-5.849 3.465a967.26 967.26 0 00-11.696 7.072c-.052-.013-.116-.039-.206-.039h-.413c-.502 0-1.017-.013-1.558-.025-.554 0-1.121-.013-1.7-.013-2.796 0-5.643.283-7.588 2.344C.967 15.664.259 17.52.245 19.336c-.399 3.903-.218 7.922-.038 11.812.064 1.443.129 2.886.168 4.316.064 2.64.012 5.32-.04 7.91-.128 6.234-.257 12.675 1.328 18.923 1.043 4.122 2.06 5.655 6.028 6.595 3.015.722 5.99.812 8.502.812 1.005 0 2.01-.013 3.015-.039h.193c1.056-.013 2.125-.026 3.182-.026 3.607 0 7.278.09 10.834.18 3.555.09 7.226.181 10.833.181 2.602 0 4.934-.052 7.137-.142.618-.026 1.262-.038 1.893-.051 3.878-.09 7.884-.18 10.744-3.028 2.035-2.035 1.97-5.629 1.906-8.798-.026-1.108-.038-2.164.026-3.091.142 0 .283.013.438.013.193.012.374.012.567.012.45 0 1.043-.038 1.52-.373 1.958-1.366 1.932-6.506 1.92-9.262-.014-.413-.026-.76-.014-1.03zM38.724 68.492c-2.68-.026-5.41-.116-8.038-.193-3.04-.103-6.17-.194-9.262-.206h-.168c-.889 0-1.765.012-2.64.025-.877.013-1.74.026-2.603.026-2.357 0-5.14-.09-7.935-.747-1.945-.464-3.26-1.469-4.11-3.143.258.064.516.103.8.103.489 0 .733-.387.746-.76 0-.387-.257-.773-.747-.786-.45 0-.824-.142-1.146-.438a.776.776 0 00-.4-.193 27.84 27.84 0 01-.476-2.036c-.606-2.885-.94-5.925-1.018-9.287-.051-2.242.039-4.51.129-6.712.09-2.37.193-4.83.103-7.265a272.477 272.477 0 00-.193-4.483c-.065-1.327-.13-2.654-.18-3.994.115.065.218.13.334.194.116.051.232.09.361.09.36 0 .709-.284.786-.657.077-.322-.065-.618-.387-.773-.412-.206-.811-.425-1.146-.593a88.126 88.126 0 010-3.697c1.12 1.108 3.13 1.675 5.951 1.675.361 0 .696-.013 1.018-.026 2.873-.09 5.243-.142 7.497-.142 2.474 0 4.74.065 6.93.207 1.92.116 4.007.18 6.351.18 2.512 0 5.076-.064 7.536-.129 2.474-.064 5.024-.129 7.536-.129.98 0 1.945.013 2.924.039 2.744.064 5.153.168 7.382.322.412.026.85.052 1.288.064 2.422.116 5.153.245 6.982 1.714 2.357 1.906 2.203 5.578 2.074 8.824-.026.58-.052 1.146-.052 1.687h-.58c-1.545 0-3.13.078-4.663.155-1.25.064-2.486.116-3.722.142-2.796.051-5.012.09-6.957 2.434-2.01 2.422-2.95 6.016-2.319 8.94.451 2.113 1.662 3.71 3.504 4.625 2.693 1.34 5.797 1.443 8.734 1.443h.85l1.211-.013v.064c0 .49.387.747.773.747.387 0 .773-.257.773-.747v-.09l1.868-.026c-.116 1.288-.167 2.602-.206 3.865-.039 1.172-.077 2.396-.18 3.58-.361 4.213-3.298 5.308-7.588 5.669-4.058.348-8.54.502-14.093.502-1.236-.025-2.434-.038-3.632-.051zM33.816 2.06c1.404 0 2.319 1.469 3.117 2.77l.052.077c-8.193 4.844-16.412 9.919-24.36 14.84l-.077.077c-1.7-.051-3.401-.116-5.101-.206-.245-.013-1.469-.077-2.628-.283A1655.663 1655.663 0 0120.715 9.66c2.821-1.7 5.642-3.388 8.476-5.062.36-.22.786-.515 1.237-.838.979-.695 2.087-1.494 2.976-1.661.154-.026.283-.039.412-.039zM59.72 17.738c.013.142.052.284.09.438.026.13.065.27.078.4.051.399.064.85.038 1.314-.051 0-.09-.013-.129-.013a.572.572 0 00-.167.026c-.296-.477-1.43-2.332-1.43-2.332.631.038 1.108.077 1.52.167zm3.414 3.015a21.504 21.504 0 00-.18 1.855 21.47 21.47 0 00.038 1.584l.039.683a7.44 7.44 0 00-1.224-.554c0-.232.039-.515.065-.812.102-1.043.231-2.318-.438-3.027a9.015 9.015 0 00-.026-2.203c-.078-.567-.168-1.352-.644-1.764-.4-.361-1.018-.4-1.52-.426l-.168-.012c-.438-.026-.863-.052-1.3-.052-.194 0-.4 0-.478.064l-1.494-2.408c3.44.025 7.24.154 7.497 4.534.039.863-.064 1.713-.167 2.538zm-36.507-.735c1.649-.888 3.53-1.906 5.346-2.988.644-.387 1.288-.799 1.932-1.198.528-.348 1.07-.683 1.61-1.018.27-.167.477-.296.631-.4.27-.18.374-.244.477-.244.09 0 .219.052.425.129l.67.245c1.83.644 3.143 1.107 4.521 1.107 1.018 0 2.049-.257 3.234-.824 1.095 1.842 2.435 3.478 3.826 5.14h-3.002c-3.388 0-6.776.013-10.176.039-3.118.025-6.248.038-9.366.038h-.128v-.026zM8.49 21.216c3.26.155 6.737.245 10.95.297 2.434.025 4.856.038 7.29.038 3.44 0 6.893-.025 10.332-.038l4.792-.026c1.932-.013 3.865-.013 5.784-.013 1.778 0 3.555 0 5.333.026 1.74.013 3.478.038 5.23.09 2.061.052 2.113.567 2.074 2.306-2.563-.58-5.397-.631-8.141-.67a141.39 141.39 0 01-2.422-.052 220.76 220.76 0 00-7.368-.141c-1.147 0-2.306.013-3.453.038-1.378.026-2.756.052-4.135.052-2.898 0-5.835-.065-8.67-.116-2.833-.052-5.77-.116-8.669-.116-.863 0-1.739 0-2.602.013-.824.013-1.79.103-2.821.193-1.288.116-2.628.245-3.929.245-1.958 0-3.414-.284-4.444-.889-.85-.49-1.43-1.16-1.7-1.997 1.249.709 3.065.773 4.817.773h.709a9.594 9.594 0 011.043-.013zM64.062 53.37h-.013c-.644.012-1.352.051-2.125.09-1.12.051-2.396.116-3.671.116-3.401 0-8.116-.413-9.7-3.994-.735-1.662-.709-3.478.09-5.72 1.12-3.143 3.079-4.663 6.17-4.766 1.07-.038 2.151-.09 3.234-.141 1.932-.103 3.941-.194 5.887-.194.721 0 1.43.013 2.125.04 3.375.76 2.976 5.23 2.705 8.192l-.064.696-.039.528c-.116 1.752-.309 4.405-2.048 5.101-.219.077-.515.129-.927.129-.284 0-.593-.026-.877-.039a6.885 6.885 0 00-.747-.038zM45.332 1.662l.026.129c1.649.064 3.35 3.156 4.483 5.204.296.528.554.992.76 1.314a654.866 654.866 0 017.2 11.568c-.283.013-.566.038-.837.051-.476.039-.901.065-1.288.065h-.013c-.979-.013-1.958-.013-2.937-.026l-1.378.051-.129.026.065-.154-.516-.606c-1.61-1.906-3.13-3.697-4.328-5.861a.769.769 0 00-1.056-.284c-1.301.709-2.641 1.083-3.852 1.083-1.597 0-2.95-.632-4.006-1.855a.765.765 0 00-.567-.232.654.654 0 00-.387.116c-3.684 2.499-7.754 4.908-12.83 7.574-.116.052-.193.129-.167.18h-.709c-2.074-.012-4.135-.012-6.209-.051l-1.3-.039a1853.22 1853.22 0 0123.61-14.311l3.221-1.92c.232-.141.541-.36.889-.618.734-.541 1.739-1.275 2.254-1.275v-.13zM5.798 14.092c1.3-.36 2.73-.412 3.839-.412.476 0 .953.013 1.43.026l-2.384 1.456-.94.592c-.85.026-3.465.361-5.269 1.057.786-1.327 2.023-2.358 3.324-2.718zM2.68 18.229c.09-.206.503-.58 2.268-.773l-2.062 1.262c-.27-.219-.244-.386-.206-.49z"/><path d="M56.578 41.815a.674.674 0 00-.297-.13.58.58 0 00-.232-.038h-.09a5.415 5.415 0 00-.644-.039c-2.28 0-4.25 1.379-4.895 3.44-.812 2.602.31 5.024 2.731 5.874.567.206 1.134.31 1.7.31 1.958 0 3.607-1.237 4.406-3.299.515-1.326.541-2.615.052-3.697-.477-1.082-1.43-1.932-2.731-2.421zm-1.727 7.87a3.81 3.81 0 01-1.275-.232c-1.404-.515-2.1-1.687-1.842-3.13.27-1.571 1.675-3.194 3.555-3.194.194 0 .387.012.554.051 1.018.348 1.74.953 2.061 1.778.348.85.232 1.88-.296 2.898-.605 1.185-1.597 1.83-2.757 1.83zM9.236 27.954c-.013-.335-.232-.709-.748-.709l-2.434.155c-.503.026-.747.45-.747.837.013.335.232.709.695.709l2.486-.155c.516-.026.76-.438.748-.837zm6.944-.129c-.013-.4-.297-.67-.748-.67l-2.86.258c-.502.038-.746.476-.734.863.013.399.297.682.683.682l2.937-.257c.49-.052.747-.477.722-.876zm6.003.373c0-.386-.245-.785-.748-.798-.244 0-.49-.013-.734-.013-.373 0-.76.013-1.134.026-.502.012-.747.425-.747.811 0 .348.232.734.722.734h.038a32.5 32.5 0 011.134-.025c.245 0 .747.012.747.012.464 0 .722-.373.722-.747zm7.046-.09c-.013-.348-.232-.721-.748-.721-.747.038-1.494.051-2.241.051h-.18c-.49 0-.747.387-.747.773 0 .387.257.773.747.773h.167c.76 0 1.507-.013 2.254-.051.503-.013.76-.425.748-.825zm6.751.271c.013-.387-.232-.825-.735-.876a24.047 24.047 0 00-2.357-.103h-.219c-.49 0-.747.399-.747.785 0 .374.257.76.747.76h.219c.773 0 1.559.04 2.332.104h.077c.45.012.67-.335.683-.67zm6.04.618h.038c.49 0 .709-.386.722-.734.013-.387-.245-.799-.747-.812-.245-.013-.49-.026-.735-.051-.309-.026-.618-.065-.94-.065-.31 0-.593.026-.85.09-.387.09-.593.413-.554.8.038.36.322.72.76.72a.993.993 0 00.193-.025c.168-.039.348-.065.554-.065.27 0 .554.039.837.065.245.038.49.064.722.077zm3.878-.193c.438.013.889.013 1.327.013.683 0 1.365-.013 2.048-.039.502-.026.747-.425.747-.824-.013-.348-.232-.722-.747-.722-.683.026-1.353.039-2.035.039-.438 0-.876 0-1.353-.013-.49 0-.721.387-.734.747-.013.387.245.786.747.799zm7.575-.014c.258-.012.515-.012.76-.012.605 0 1.224.026 1.83.09h.09c.437 0 .656-.335.67-.67.012-.386-.233-.824-.735-.876a17.856 17.856 0 00-1.855-.09c-.258 0-.515 0-.773.013-.502.026-.747.425-.747.812.013.347.245.734.76.734zm6.66 2.217c.128.244.36.386.618.386a.845.845 0 00.709-.412.71.71 0 000-.747 8.306 8.306 0 00-1.34-1.804.687.687 0 00-.515-.232c-.31 0-.606.206-.735.516a.718.718 0 00.168.811 6.4 6.4 0 011.095 1.482zm.798 2.486a.747.747 0 00-.554.219.699.699 0 00-.18.528l.09 2.19c.026.49.412.747.799.747a.747.747 0 00.554-.219.7.7 0 00.18-.528l-.09-2.19c-.026-.502-.425-.747-.799-.747zM10.873 63.842l-1.855-.103c-.477 0-.696.374-.709.722-.013.386.245.798.747.824l1.894.103c.477 0 .696-.373.708-.721a.784.784 0 00-.785-.825zm7.097-.064l-3.387-.116c-.49 0-.722.387-.722.734 0 .387.245.8.747.812l3.388.116c.49 0 .722-.387.722-.734.013-.4-.245-.8-.747-.812zm7.15-.116h-.014a12.65 12.65 0 01-1.559.09c-.425 0-.85-.026-1.365-.064-.438 0-.657.335-.67.67-.013.386.232.824.735.876.438.038.863.064 1.3.064.529 0 1.057-.026 1.585-.09.502-.064.747-.515.721-.902-.013-.386-.27-.644-.734-.644zm6.389-.09l-2.1.077c-.502.026-.747.425-.747.812 0 .348.232.734.722.734l2.138-.077c.502-.026.747-.425.747-.812-.013-.36-.245-.734-.76-.734zm7.072.245h-2.357c-.49 0-.747.386-.747.773 0 .386.257.772.747.772h2.357c.49 0 .747-.386.747-.772 0-.387-.257-.773-.747-.773zm6.635-.155a.76.76 0 00-.18.026 9.689 9.689 0 01-2.048.219c-.374 0-.735-.026-1.198-.064-.425 0-.645.334-.657.656-.026.387.231.838.734.89.373.038.747.064 1.134.064.811 0 1.636-.09 2.447-.27.386-.091.605-.4.554-.787-.065-.36-.348-.734-.786-.734zm6.054.103s-.013 0 0 0c-.167.013-.322.026-.477.026-.373 0-.734-.026-1.094-.064-.374-.026-.748-.065-1.121-.065-.168 0-.322 0-.49.026-.502.038-.747.477-.734.876.013.335.232.67.747.67h.013c.155-.013.31-.026.464-.026.373 0 .734.026 1.108.064.373.026.747.065 1.12.065.168 0 .322 0 .49-.026.502-.039.747-.477.734-.863-.026-.335-.245-.683-.76-.683zm5.37 1.198l.13.13c.49 0 .721-.387.721-.735 0-.387-.245-.799-.863-.812-.412 0-.812.078-1.211.142-.374.064-.773.142-1.16.142v.116h-.012l-.13-.13c-.489 0-.72.387-.72.735 0 .386.244.786.747.812h.116c.412 0 .811-.078 1.21-.142.374-.065.773-.142 1.16-.142v-.116h.013zm2.488-.322h.064c1.12-.09 2.035-.644 2.577-1.584.141-.245.154-.503.012-.735a.867.867 0 00-.721-.412.715.715 0 00-.631.374c-.284.49-.735.773-1.263.824-.502.039-.747.464-.734.85.026.4.31.683.696.683zm2.151-4.431c.373 0 .785-.245.837-.735l.193-1.764c.026-.206-.026-.4-.154-.528a.756.756 0 00-.554-.232c-.374 0-.786.244-.85.734l-.194 1.765c-.026.206.026.4.155.528a.778.778 0 00.567.232zm4.805-18.15c.245.463.31 1.043.36 1.61.026.283.052.566.104.824.064.348.322.567.67.567a.844.844 0 00.657-.31.726.726 0 00.154-.643c-.051-.271-.09-.554-.129-.838-.116-.863-.219-1.765-.85-2.486-.799-.915-1.984-1.03-2.924-1.03-.206 0-.412.012-.605.012-.503.026-.748.438-.748.825.013.347.232.721.709.721h.142c.193-.013.412-.026.618-.026.683 0 1.481.09 1.842.773zm.902 3.967c-.387 0-.773.258-.773.824 0 .49.386.747.773.747a.763.763 0 00.528-.193c.167-.142.245-.335.245-.631 0-.49-.387-.747-.773-.747zM39.457 8.824a.75.75 0 00-.644-.36.855.855 0 00-.734.424c-.13.232-.104.49.051.722.618.94 1.224 1.894 1.816 2.86.142.231.374.36.632.36a.855.855 0 00.734-.425c.129-.232.116-.49-.026-.734-.605-.94-1.21-1.894-1.83-2.847zm2.731-2.641c-.31 0-.606.103-.902.297l.077.103h-.219c-.876.747-.914 1.777-.116 2.988.451.67 1.16 1.572 2.113 1.572.258 0 .528-.065.786-.206.45-.232.734-.58.863-1.03.167-.593 0-1.366-.438-2.1-.296-.49-1.108-1.624-2.164-1.624zm-.039 2.229c-.206-.425-.206-.451-.038-.619.038-.025.077-.025.115-.025.297 0 .619.54.812.863.116.18.245.386.283.592.026.116.013.22-.154.322a.521.521 0 01-.245-.09c-.296-.219-.605-.708-.773-1.043zm2.538-3.852c-.876.747-.914 1.778-.116 2.976.451.67 1.16 1.571 2.113 1.571.258 0 .528-.077.786-.206.45-.232.734-.58.863-1.03.167-.593 0-1.366-.451-2.1-.296-.49-1.095-1.623-2.164-1.623-.31 0-.606.103-.902.283l-.129.13zm.966 1.211c.04-.026.078-.026.116-.026.297 0 .619.541.812.863.116.194.245.4.283.606.026.116.013.219-.154.322a.48.48 0 01-.232-.09c-.31-.22-.619-.709-.786-1.057-.219-.425-.219-.45-.039-.618z"/></g><defs><clipPath id="clip0_844_3442"><path fill="#fff" d="M0 0h70.386v70H0z"/></clipPath></defs></svg>