<svg width="41" height="34" fill="none" xmlns="http://www.w3.org/2000/svg"><path d="M7.015 12.624a.322.322 0 01-.32-.324V8.163c0-.179.143-.324.32-.324h17.649c.177 0 .32.145.32.324a.322.322 0 01-.32.324H7.335V12.3a.326.326 0 01-.094.229.319.319 0 01-.226.095zm3.811-6.21H7.751a.322.322 0 01-.32-.324V4.017c0-.179.143-.324.32-.324h3.075c.085 0 .166.034.226.095s.094.143.094.23V6.09a.326.326 0 01-.094.23.318.318 0 01-.226.094zm-2.755-.647h2.435V4.34H8.07v1.425z" fill="#fff"/><path d="M9.288 8.487a.322.322 0 01-.32-.324V6.09c0-.179.143-.324.32-.324.177 0 .32.145.32.324v2.073a.326.326 0 01-.093.23.318.318 0 01-.227.094zm12.813-2.073h-3.075a.322.322 0 01-.32-.324V4.017c0-.179.143-.324.32-.324h3.075c.085 0 .167.034.227.095s.094.143.094.23V6.09a.326.326 0 01-.094.23.318.318 0 01-.227.094zm-2.754-.647h2.434V4.34h-2.434v1.425z" fill="#fff"/><path d="M20.564 8.487a.322.322 0 01-.32-.324V6.09c0-.179.143-.324.32-.324.176 0 .32.145.32.324v2.073a.326.326 0 01-.094.23.318.318 0 01-.226.094zm-4.101-2.073h-3.075a.322.322 0 01-.32-.324V4.017c0-.179.143-.324.32-.324h3.075c.085 0 .166.034.226.095s.094.143.094.23V6.09a.326.326 0 01-.094.23.318.318 0 01-.226.094zm-2.755-.647h2.434V4.34h-2.434v1.425z" fill="#fff"/><path d="M14.925 8.487a.322.322 0 01-.32-.324V6.09c0-.179.143-.324.32-.324.177 0 .32.145.32.324v2.073a.326.326 0 01-.094.23.318.318 0 01-.226.094zM34.85 32.394H12.172a.322.322 0 01-.32-.324c0-.18.143-.324.32-.324H34.53V21.673c0-.179.143-.324.32-.324.177 0 .32.145.32.324V32.07a.326.326 0 01-.093.229.318.318 0 01-.227.095zM6.117 28.582a.322.322 0 01-.32-.324v-6.62c0-.178.143-.323.32-.323.177 0 .32.145.32.324v6.62a.32.32 0 01-.32.324z" fill="#fff"/><path d="M34.478 21.963c-.454 0-.89-.182-1.212-.507a1.746 1.746 0 01-.505-1.225c0-.18.144-.324.32-.324.178 0 .321.145.321.324.002.388.209.747.543.94.334.192.744.19 1.076-.006a1.09 1.09 0 00.534-.945v-5.867c0-.011.056-.742-.393-1.238-.288-.32-.74-.481-1.337-.481h-.748a.322.322 0 01-.32-.324c0-.18.143-.324.32-.324h.748c.788 0 1.399.234 1.815.697.601.667.565 1.57.555 1.712v5.825c0 .46-.18.904-.502 1.23a1.712 1.712 0 01-1.215.513zm-27.954 0c-.455 0-.892-.181-1.214-.506a1.746 1.746 0 01-.505-1.226v-5.836c-.01-.142-.046-1.045.555-1.712.416-.463 1.027-.697 1.815-.697h20.212c.177 0 .32.145.32.324a.322.322 0 01-.32.324H7.175c-.598 0-1.048.162-1.338.481-.449.496-.393 1.23-.393 1.239v5.876c-.005.293.106.576.31.785a1.071 1.071 0 001.541-.007c.202-.21.31-.495.302-.788 0-.18.144-.324.32-.324.177 0 .32.145.32.323.001.461-.179.904-.5 1.23a1.714 1.714 0 01-1.213.514z" fill="#fff"/><path d="M9.318 21.963c-.454 0-.89-.182-1.212-.507a1.746 1.746 0 01-.504-1.225c0-.18.143-.324.32-.324.177 0 .32.145.32.324-.005.293.106.576.31.785a1.071 1.071 0 001.541-.008c.202-.211.31-.495.302-.789 0-.178.144-.324.32-.324.178 0 .32.146.32.324.001.462-.18.904-.501 1.231a1.713 1.713 0 01-1.216.513z" fill="#fff"/><path d="M12.114 21.963c-.454 0-.89-.182-1.212-.507a1.746 1.746 0 01-.504-1.225c0-.18.143-.324.32-.324.177 0 .32.145.32.324.002.388.209.747.543.94.334.192.744.19 1.076-.006a1.09 1.09 0 00.534-.946c0-.178.143-.324.32-.324.177 0 .32.146.32.324 0 .462-.18.904-.502 1.231a1.713 1.713 0 01-1.215.513z" fill="#fff"/><path d="M14.91 21.963c-.455 0-.891-.182-1.213-.507a1.747 1.747 0 01-.505-1.225c0-.18.144-.324.32-.324.178 0 .321.145.321.324-.005.293.106.576.31.785a1.072 1.072 0 001.541-.008c.202-.211.31-.495.302-.789 0-.178.144-.324.32-.324.177 0 .32.146.32.324.001.462-.18.904-.501 1.231a1.714 1.714 0 01-1.215.513z" fill="#fff"/><path d="M17.705 21.963c-.454 0-.89-.182-1.212-.507a1.746 1.746 0 01-.505-1.225c0-.18.144-.324.32-.324.178 0 .32.145.32.324.003.388.21.747.544.94.334.192.744.19 1.076-.006a1.09 1.09 0 00.533-.946c0-.178.144-.324.32-.324.178 0 .321.146.321.324 0 .462-.18.904-.502 1.231a1.713 1.713 0 01-1.215.513z" fill="#fff"/><path d="M20.5 21.963c-.455 0-.891-.182-1.213-.507a1.747 1.747 0 01-.505-1.225c0-.18.144-.324.32-.324.177 0 .32.145.32.324a1.1 1.1 0 00.31.785 1.071 1.071 0 001.542-.008c.202-.211.31-.495.302-.789 0-.178.143-.324.32-.324.177 0 .32.146.32.324.001.462-.18.904-.501 1.231a1.712 1.712 0 01-1.215.513z" fill="#fff"/><path d="M23.296 21.963c-.455 0-.89-.182-1.213-.507a1.745 1.745 0 01-.504-1.225c0-.18.144-.324.32-.324.177 0 .32.145.32.324a1.1 1.1 0 00.31.785 1.072 1.072 0 001.542-.008 1.1 1.1 0 00.302-.789c0-.178.143-.324.32-.324.177 0 .32.146.32.324 0 .462-.18.904-.502 1.231a1.713 1.713 0 01-1.215.513z" fill="#fff"/><path d="M26.09 21.963c-.454 0-.89-.182-1.212-.507a1.747 1.747 0 01-.504-1.225c0-.18.143-.324.32-.324.177 0 .32.145.32.324.003.388.21.747.544.94.333.192.744.19 1.076-.006.332-.196.535-.557.533-.946 0-.178.144-.324.32-.324.177 0 .32.146.32.324.001.462-.179.904-.501 1.231a1.713 1.713 0 01-1.215.513z" fill="#fff"/><path d="M28.887 21.963a1.71 1.71 0 01-1.213-.507 1.746 1.746 0 01-.504-1.225c0-.18.143-.324.32-.324.177 0 .32.145.32.324a1.1 1.1 0 00.31.785 1.071 1.071 0 001.541-.008c.202-.211.311-.495.302-.789 0-.178.144-.324.32-.324.178 0 .321.146.321.324 0 .462-.18.904-.502 1.231a1.713 1.713 0 01-1.215.513z" fill="#fff"/><path d="M31.683 21.963c-.455 0-.891-.182-1.213-.507a1.746 1.746 0 01-.504-1.225c0-.18.143-.324.32-.324.177 0 .32.145.32.324.002.388.21.747.543.94.334.192.744.19 1.076-.006a1.09 1.09 0 00.534-.946c0-.178.143-.324.32-.324.177 0 .32.146.32.324.001.462-.18.904-.501 1.231a1.713 1.713 0 01-1.215.513zM8.136 27.081a.322.322 0 01-.32-.323v-5.702c0-.178.143-.324.32-.324.177 0 .32.146.32.324v5.702a.325.325 0 01-.094.229.318.318 0 01-.226.095z" fill="#fff"/><path d="M32.799 32.394a.322.322 0 01-.32-.324V21.056c0-.178.143-.324.32-.324.177 0 .32.146.32.324V32.07a.325.325 0 01-.094.23.318.318 0 01-.226.094zm-15.374-4.211h-7.047a.322.322 0 01-.32-.324c0-.18.143-.324.32-.324h7.047c.177 0 .32.145.32.324a.322.322 0 01-.32.323zm8.136 0h-1.986a.322.322 0 01-.32-.324c0-.18.143-.324.32-.324h1.986c.177 0 .32.145.32.324a.322.322 0 01-.32.323z" fill="#fff"/><path d="M32.8 28.183h-3.075a.322.322 0 01-.32-.324c0-.18.143-.324.32-.324H32.8c.177 0 .32.145.32.324a.322.322 0 01-.32.323zm-9.226 4.211h-6.15a.322.322 0 01-.32-.324V21.64c0-.179.143-.324.32-.324.177 0 .32.145.32.324v10.106h5.51V21.64c0-.179.143-.324.32-.324.177 0 .32.145.32.324v10.43a.325.325 0 01-.094.23.318.318 0 01-.226.094z" fill="#fff"/><path d="M22.166 26.822a.322.322 0 01-.32-.324v-1.425c0-.179.143-.324.32-.324.177 0 .32.145.32.324v1.425a.326.326 0 01-.094.23.318.318 0 01-.226.094zM5.06 30.32a.321.321 0 01-.315-.267c-.006-.035-.14-.854.304-1.442.209-.273.51-.458.844-.521.233-.721 1.01-1.75 2.72-1.59 1.464.135 2.098 1.127 2.285 1.807.22.03.433.09.635.18.619.278.961.815.961 1.51a.322.322 0 01-.32.324.322.322 0 01-.32-.324c0-.442-.193-.744-.577-.92a1.777 1.777 0 00-.64-.145.322.322 0 01-.32-.284c-.008-.054-.202-1.36-1.762-1.503-.755-.07-1.334.122-1.72.57a1.755 1.755 0 00-.37.723.322.322 0 01-.285.26c-.285.027-.489.129-.622.304-.272.36-.183.931-.182.937a.326.326 0 01-.316.382z" fill="#fff"/><path d="M12.17 32.394H5.06a.322.322 0 01-.32-.324v-2.073c0-.18.143-.324.32-.324h7.11a.325.325 0 01.321.324v2.073a.326.326 0 01-.094.229.318.318 0 01-.226.095zm-6.79-.648h6.47v-1.425H5.38v1.425zm24.282-1.491h-4.1a.322.322 0 01-.32-.324v-4.146c0-.179.143-.324.32-.324h4.1a.325.325 0 01.32.324v4.146a.326.326 0 01-.094.23.318.318 0 01-.227.094zm-3.78-.648h3.46V26.11h-3.46v3.498z" fill="#fff"/><path d="M25.561 32.394a.322.322 0 01-.32-.324v-2.46c0-.18.144-.324.32-.324.177 0 .32.145.32.324v2.461a.325.325 0 01-.093.23.318.318 0 01-.227.094zm4.1 0a.322.322 0 01-.32-.324v-2.46c0-.18.143-.324.32-.324.177 0 .32.145.32.324v2.461a.325.325 0 01-.093.23.318.318 0 01-.227.094zm.593-16.266a.344.344 0 01-.273-.139l-4.096-5.213-.006-.007-.392-.532a6.037 6.037 0 01.807-7.976 5.882 5.882 0 013.96-1.546 5.881 5.881 0 013.967 1.534 6.038 6.038 0 01.83 7.973l-.004.006-.415.549-.004.005-4.094 5.195a.34.34 0 01-.28.15zm-3.864-5.75l3.863 4.916 3.873-4.913.41-.543a5.384 5.384 0 00-.744-7.11 5.246 5.246 0 00-3.537-1.367 5.246 5.246 0 00-3.532 1.38 5.385 5.385 0 00-.72 7.112l.387.524z" fill="#fff"/><path d="M30.263 9.49a2.765 2.765 0 01-1.967-.823 2.83 2.83 0 01-.816-1.99c0-.746.293-1.462.815-1.99a2.766 2.766 0 011.967-.824c.738 0 1.446.296 1.968.824a2.83 2.83 0 010 3.978 2.77 2.77 0 01-1.967.825zm0-4.98v.001c-.568 0-1.113.228-1.514.634a2.177 2.177 0 00-.628 1.531c0 .575.226 1.126.627 1.532a2.129 2.129 0 003.029 0 2.178 2.178 0 000-3.062 2.132 2.132 0 00-1.514-.635zM8.2 9.524h-.064a.322.322 0 01-.32-.324c0-.179.143-.324.32-.324H8.2c.177 0 .32.145.32.324a.322.322 0 01-.32.324zm0 2.073h-.064a.322.322 0 01-.32-.324c0-.18.143-.324.32-.324H8.2c.177 0 .32.145.32.324a.322.322 0 01-.32.324zm17.489-1.037H10.313a.322.322 0 01-.32-.324c0-.178.144-.323.32-.323H25.69c.176 0 .32.145.32.323a.322.322 0 01-.32.324zm7.686 8.488h-.064a.322.322 0 01-.32-.324c0-.179.143-.324.32-.324h.064c.177 0 .32.145.32.324a.322.322 0 01-.32.324zm-1.345 0h-.065a.322.322 0 01-.32-.324c0-.179.144-.324.32-.324h.065c.176 0 .32.145.32.324a.322.322 0 01-.32.324zm-1.346 0h-.064a.322.322 0 01-.32-.324c0-.179.143-.324.32-.324h.064c.177 0 .32.145.32.324a.322.322 0 01-.32.324zm-1.345 0h-.064a.322.322 0 01-.32-.324c0-.179.143-.324.32-.324h.064c.177 0 .32.145.32.324a.322.322 0 01-.32.324zm-1.345 0h-.064a.322.322 0 01-.32-.324c0-.179.143-.324.32-.324h.064c.177 0 .32.145.32.324a.322.322 0 01-.32.324zm-1.346 0h-.064a.322.322 0 01-.32-.324c0-.179.143-.324.32-.324h.064c.177 0 .32.145.32.324a.322.322 0 01-.32.324zm-1.345 0h-.064a.322.322 0 01-.32-.324c0-.179.143-.324.32-.324h.064c.177 0 .32.145.32.324a.322.322 0 01-.32.324zm-1.345 0h-.064a.322.322 0 01-.32-.324c0-.179.143-.324.32-.324h.064c.177 0 .32.145.32.324a.322.322 0 01-.32.324zm-1.346 0h-.064a.322.322 0 01-.32-.324c0-.179.143-.324.32-.324h.064c.177 0 .32.145.32.324a.322.322 0 01-.32.324zm-1.345 0h-.064a.322.322 0 01-.32-.324c0-.179.143-.324.32-.324h.064c.177 0 .32.145.32.324a.322.322 0 01-.32.324zm-1.345 0h-.064a.322.322 0 01-.32-.324c0-.179.143-.324.32-.324h.064c.177 0 .32.145.32.324a.322.322 0 01-.32.324zm-1.346 0h-.064a.322.322 0 01-.32-.324c0-.179.143-.324.32-.324h.064c.177 0 .32.145.32.324a.322.322 0 01-.32.324zm-1.345 0h-.064a.322.322 0 01-.32-.324c0-.179.143-.324.32-.324h.064c.177 0 .32.145.32.324a.322.322 0 01-.32.324zm-1.345 0h-.064a.322.322 0 01-.32-.324c0-.179.143-.324.32-.324h.064c.177 0 .32.145.32.324a.322.322 0 01-.32.324zm-1.346 0h-.064a.322.322 0 01-.32-.324c0-.179.143-.324.32-.324h.064c.177 0 .32.145.32.324a.322.322 0 01-.32.324zm-1.345 0h-.064a.322.322 0 01-.32-.324c0-.179.143-.324.32-.324h.064c.177 0 .32.145.32.324a.322.322 0 01-.32.324zm-1.345 0h-.064a.322.322 0 01-.32-.324c0-.179.143-.324.32-.324h.064c.177 0 .32.145.32.324a.322.322 0 01-.32.324zm-1.346 0h-.064a.322.322 0 01-.32-.324c0-.179.143-.324.32-.324h.064c.177 0 .32.145.32.324a.322.322 0 01-.32.324zm-1.345 0h-.064a.322.322 0 01-.32-.324c0-.179.143-.324.32-.324h.064c.177 0 .32.145.32.324a.322.322 0 01-.32.324zm-1.345 0H7.75a.322.322 0 01-.32-.324c0-.179.143-.324.32-.324h.064c.177 0 .32.145.32.324a.322.322 0 01-.32.324zm-1.346 0h-.064a.322.322 0 01-.32-.324c0-.179.143-.324.32-.324h.064c.177 0 .32.145.32.324a.322.322 0 01-.32.324zm21.847 8.486h-1.41a.322.322 0 01-.32-.324c0-.179.143-.324.32-.324h1.41c.176 0 .32.145.32.324a.322.322 0 01-.32.324zm0 1.361h-1.41a.322.322 0 01-.32-.324c0-.179.143-.324.32-.324h1.41c.176 0 .32.145.32.324a.322.322 0 01-.32.324zM12.499 17.04a.323.323 0 01-.289-.463c.38-.812.977-1.297 1.68-1.361.688-.065 1.186.3 1.626.623.29.214.565.416.874.492.262.067.537.054.791-.038a2.025 2.025 0 01-.214-.194c-.405-.424-.55-.963-.396-1.479.178-.595.582-.996 1.083-1.075a1.121 1.121 0 011.115.486c.312.461.282 1.095-.085 1.735a2.88 2.88 0 01-.274.397c.467.11 1.056.119 1.745-.065.393-.105.748-.301 1.043-.479.147-.089.287-.194.436-.303.193-.152.397-.289.61-.41.905-.49 1.697-.4 2.229.26l.075.093c.256.317.474.591.816.725.507.199 1.138.112 1.985-.274a.317.317 0 01.428.161.327.327 0 01-.165.43c-.64.29-1.59.637-2.48.287-.5-.195-.796-.565-1.082-.92l-.073-.093c-.121-.15-.491-.606-1.431-.096a4.395 4.395 0 00-.533.36 6.16 6.16 0 01-.487.339c-.375.238-.78.423-1.206.548-.887.239-1.768.208-2.466-.056a2.03 2.03 0 01-1.617.29c-.432-.106-.768-.355-1.099-.597-.398-.292-.742-.545-1.19-.502-.632.06-.998.648-1.16.993a.32.32 0 01-.29.185zm5.331-2.862a.55.55 0 00-.078.006c-.256.04-.461.266-.568.622-.11.37.072.662.243.842.102.104.216.194.342.266.141-.139.262-.296.36-.468.24-.417.28-.798.112-1.046a.493.493 0 00-.411-.224v.002z" fill="#fff"/></svg>