<svg width="40" height="40" fill="none" xmlns="http://www.w3.org/2000/svg"><circle cx="20" cy="20" r="20" fill="#E1EBF9"/><path d="M25.642 17.564H24.36a1.925 1.925 0 00-1.924-1.923v-1.282a3.209 3.209 0 013.206 3.205z" fill="#1D61B1" fill-opacity=".71"/><path d="M28.206 17.564h-1.282a4.492 4.492 0 00-4.488-4.487v-1.282a5.776 5.776 0 015.77 5.77zM26.924 27.82h-.109C14.22 27.096 12.43 16.468 12.18 13.224a1.923 1.923 0 011.924-2.07h3.378a1.283 1.283 0 011.192.807l.974 2.398a1.283 1.283 0 01-.282 1.385l-1.365 1.378a6 6 0 004.859 4.872l1.391-1.379a1.283 1.283 0 011.391-.262l2.417.967a1.282 1.282 0 01.788 1.193v3.384a1.923 1.923 0 01-1.923 1.924zm-12.82-15.384a.64.64 0 00-.641.692c.294 3.795 2.185 12.77 13.423 13.41a.64.64 0 00.678-.6l.001-.04v-3.385l-2.417-.968-1.84 1.827-.307-.039c-5.577-.698-6.333-6.275-6.333-6.333l-.039-.308 1.82-1.84-.96-2.416h-3.386z" fill="#1D61B1" fill-opacity=".71"/></svg>