<svg width="32" height="25" fill="none" xmlns="http://www.w3.org/2000/svg"><path d="M10.334 18.439c.216 0 .427-.064.606-.182a1.063 1.063 0 00.165-1.656 1.095 1.095 0 00-1.19-.233c-.198.082-.369.22-.489.396a1.066 1.066 0 00.137 1.36 1.1 1.1 0 00.771.315zm0-1.495a.429.429 0 01.391.259.413.413 0 01-.092.455.426.426 0 01-.724-.296c0-.11.046-.217.125-.295a.428.428 0 01.3-.123zm13.281-.658c-.215 0-.426.063-.606.181a1.08 1.08 0 00-.401.484 1.062 1.062 0 00.236 1.172 1.095 1.095 0 001.189.234c.199-.082.37-.22.49-.397a1.067 1.067 0 00-.492-1.592 1.106 1.106 0 00-.418-.082h.002zm0 1.495a.429.429 0 01-.391-.258.413.413 0 01.091-.456.426.426 0 01.724.295.414.414 0 01-.263.388.43.43 0 01-.163.03h.002zM5.82 14.03c0 .087-.035.17-.098.232a.336.336 0 01-.236.097h-.673a.336.336 0 01-.236-.097.327.327 0 010-.465.336.336 0 01.236-.096h.67c.089 0 .173.034.236.096a.327.327 0 01.098.232h.003zm23.515 5.495h-3.94a2.771 2.771 0 001.026-1.852 2.083 2.083 0 001.345-.65 2.03 2.03 0 00.55-1.374l.025-2.742a.272.272 0 00.01-.047.284.284 0 00-.01-.043l.01-1.046a1.928 1.928 0 00-.35-1.139.845.845 0 00-.15-.214l-4.24-4.882a2.09 2.09 0 00-1.583-.724h-8.493a2.09 2.09 0 00-.955.227 2.06 2.06 0 00-.742.636l-3.476 4.82-3.827 1.187a2.073 2.073 0 00-.946.612 2.032 2.032 0 00-.48 1.01l-.34 1.995a2.031 2.031 0 00.465 1.664c.195.228.438.411.712.537.274.125.572.19.874.192h2.706c.087.72.454 1.377 1.024 1.833H2.667a.335.335 0 00-.235.096.327.327 0 000 .466.336.336 0 00.235.096h26.667a.336.336 0 00.236-.096.327.327 0 000-.466.335.335 0 00-.236-.096zm-5.721-.02a2.189 2.189 0 01-1.532-.625 2.132 2.132 0 01-.64-1.51v-.016a2.12 2.12 0 01.37-1.19c.24-.35.579-.624.976-.786a2.2 2.2 0 012.365.47 2.117 2.117 0 01.467 2.336 2.15 2.15 0 01-.8.96 2.18 2.18 0 01-1.206.361zM27 10.451h-4.962V5.476a1.416 1.416 0 011.064.487L27 10.451zm-11.846 0V5.474h6.217v4.977h-6.217zm-2.771-4.393a1.415 1.415 0 011.152-.584h.952v4.977h-5.27l3.167-4.393zM3.745 16.543a1.396 1.396 0 01-.32-1.135l.342-1.996a1.38 1.38 0 01.325-.686 1.4 1.4 0 01.642-.416l3.885-1.2H27.5c.117.2.18.426.183.657l-.006.763h-.424a.336.336 0 00-.236.096.327.327 0 000 .465.336.336 0 00.236.096h.418l-.022 2.457a1.377 1.377 0 01-.355.914 1.413 1.413 0 01-.877.456 2.776 2.776 0 00-.934-1.756 2.846 2.846 0 00-1.88-.7 2.846 2.846 0 00-1.875.712 2.775 2.775 0 00-.921 1.762h-7.673a2.775 2.775 0 00-.925-1.764 2.846 2.846 0 00-1.881-.709c-.694 0-1.363.253-1.881.709a2.775 2.775 0 00-.925 1.764H4.819a1.423 1.423 0 01-1.074-.489zm4.414.827v-.013c0-.569.23-1.114.638-1.515a2.175 2.175 0 011.537-.626 2.198 2.198 0 011.536.63 2.141 2.141 0 01.634 1.516 2.12 2.12 0 01-.634 1.517 2.172 2.172 0 01-1.536.63 2.2 2.2 0 01-1.537-.626 2.142 2.142 0 01-.638-1.515v.002zm4.978.323h7.667a2.775 2.775 0 001.024 1.833h-9.715a2.775 2.775 0 001.021-1.833h.003z" fill="#0D4689"/></svg>