<svg width="50" height="30" fill="none" xmlns="http://www.w3.org/2000/svg"><g clip-path="url(#clip0_597_3477)" fill="#fff"><path d="M49.206 11.345c.092-2.034.176-4.136-.042-6.145-.133-1.198-.343-2.537-.954-3.375-.67-.93-1.943-1.565-3.4-1.708A34.903 34.903 0 0041.806 0c-.871 0-1.759.025-2.63.042-.87.025-1.74.042-2.603.042-.293 0-.595 0-.888-.009C33.19.025 30.594 0 27.747 0c-3.048 0-6.305.025-10.558.092-1.29.017-2.58.025-3.869.034a225.34 225.34 0 00-6.698.1c-2.445.084-4.153.795-5.208 2.152C.141 4.01.15 6.53.15 8.758c0 .544 0 1.072-.017 1.549-.067 1.641-.042 3.316-.017 4.932.025 1.683.05 3.424-.025 5.14l-.033.788c-.134 3.114-.335 7.811 3.5 8.473.778.134 1.632.192 2.687.192.653 0 1.315-.025 1.968-.05.644-.025 1.298-.05 1.934-.05.15 0 .301 0 .452.008 1.306.026 2.604.034 3.91.034 1.625 0 3.249-.017 4.873-.025 1.917-.017 3.843-.059 5.77-.1 2.528-.05 5.14-.11 7.702-.11 1.926 0 3.65.034 5.267.093.535.016 1.163.083 1.842.15 1.004.1 2.151.21 3.265.21 2.077 0 4.923-.335 5.685-3.199.344-1.306.31-2.972.277-4.43a61.29 61.29 0 01-.017-1.247c0-1.03-.009-2.051-.017-3.072-.025-2.002-.042-4.078.042-6.121l.008-.578zm-1.055 11.496c.025 1.65.05 3.693-.92 4.823-.796.913-1.993 1.34-3.76 1.34-.804 0-1.624-.084-2.411-.168a29.54 29.54 0 00-1.349-.117 90.65 90.65 0 00-5.283-.142c-1.8 0-3.608.033-5.409.075-1.314.025-2.629.05-3.943.067a908.891 908.891 0 01-15.64.017c-.461 0-.997.033-1.575.075-.678.042-1.373.092-2.085.092-1.323 0-3.165-.15-3.985-1.448-.955-1.507-.83-4.212-.737-6.188.017-.31.025-.603.033-.88.093-2.05.084-4.127.084-6.136v-1.064c.988-.008 1.985-.016 2.973-.016 3.282 0 6.63.041 9.854.092 3.232.042 6.573.092 9.864.092h.912c2.37-.009 4.73-.025 7.1-.05 2.805-.026 5.61-.05 8.415-.05 2.956 0 5.551.033 7.946.091-.008 2.336-.025 5.4-.075 8.499-.017.31-.009.645-.009.996zM2.98 2.303C4.035 1.49 5.165 1.289 6.63 1.23c1.675-.076 3.391-.076 5.05-.076 1.029 0 2.059 0 3.08-.016 5.962-.1 11.48-.143 16.846-.143 4.061 0 8.055.025 11.882.084 1.775.025 3.667.343 4.32 2.495.234.762.36 1.625.41 2.696-5.25.218-10.918.318-17.826.318-4.32 0-8.707-.041-12.952-.075-4.245-.033-8.633-.075-12.953-.075-1.047 0-2.093 0-3.132.008.126-1.65.235-3.081 1.625-4.144zm1.917 5.14h2.344c-1.967 1.692-4.06 3.308-5.928 4.748l.05.075-.133-.084h-.06c0-.602.009-1.205-.008-1.75a49.878 49.878 0 013.734-2.989zm36.313 4.815h-2.905c1.817-1.39 3.893-3.014 5.827-4.73a.371.371 0 00.1-.126c1.022-.034 2.052-.059 3.074-.1-1.993 1.724-4.078 3.332-6.037 4.83-.042.05-.092.1-.059.126zm-7.393.025c1.834-1.407 3.927-3.04 5.844-4.773l.578-.008c.82-.017 1.633-.025 2.453-.05-1.967 1.691-4.052 3.299-5.86 4.689a.519.519 0 00-.118.117l-2.897.025zm-4.505.042c1.842-1.407 3.936-3.048 5.828-4.748.996-.008 1.993-.025 2.989-.033-1.942 1.666-3.994 3.249-5.769 4.605a.414.414 0 00-.134.16l-2.914.016zm-16.218-4.84l2.83.025c-1.95 1.675-4.01 3.266-5.802 4.63-.042.034-.067.068-.034.076l-2.771-.034c2.177-1.657 3.985-3.097 5.777-4.697zm7.21.059c-1.943 1.658-3.986 3.24-5.761 4.597a.42.42 0 00-.118.125l-2.78-.033c1.792-1.373 3.835-2.973 5.803-4.714l2.855.025zm4.42.033c-1.926 1.65-3.96 3.216-5.719 4.564a.539.539 0 00-.15.184l-2.864-.034c1.825-1.398 3.902-3.022 5.836-4.73l2.897.016zm4.438.017c-1.926 1.65-3.952 3.207-5.702 4.547a.548.548 0 00-.16.2c-.97 0-1.942-.008-2.913-.016 1.825-1.407 3.918-3.031 5.87-4.748.962.009 1.933.017 2.905.017zm1.498 0c.754 0 1.507-.008 2.27-.008l.694-.009c-1.925 1.65-3.96 3.216-5.718 4.555a.483.483 0 00-.151.193s-2.227.017-2.939.017c1.842-1.399 3.944-3.04 5.844-4.748zM8.682 7.527a.231.231 0 00.058-.075c.946.008 1.9.008 2.847.017-1.968 1.69-4.044 3.29-5.853 4.713H2.938c2.177-1.666 3.994-3.106 5.744-4.655zm-7.46 1.55c.016-.545.041-1.08.075-1.625h1.95a44.071 44.071 0 00-2.026 1.624zm47.047 1.322c-.754.586-1.508 1.164-2.27 1.742-.058.041-.1.1-.142.167l-.913-.017c-.728-.016-1.456-.025-2.176-.033 1.791-1.373 3.684-2.855 5.475-4.421l-.008 2.01.034.552zm-.034 1.281v.662c-.184 0-.837-.017-.837-.017l.837-.645z"/><path d="M6.597 20.003l5.66-.075c.36 0 .754.016 1.156.033.427.017.87.034 1.306.034.779 0 1.373-.067 1.859-.201a.528.528 0 00.351-.352c.151-.645.092-1.39.025-2.11-.025-.276-.05-.544-.058-.795a.51.51 0 00-.503-.503l-11.177.143a.424.424 0 00-.252.075.428.428 0 00-.242.427c.016.502 0 .938-.017 1.306-.034.779-.05 1.298.26 1.624.259.277.753.394 1.632.394zm2.135-.963c-.485.05-1.03.109-1.498.109-.402 0-.687-.042-.855-.134-.761-.402-.728-.913-.678-1.624l.017-.218 5.895-.067c.343 0 .703-.017 1.055-.034.418-.016.837-.033 1.255-.033.293 0 .595.008.913.033a1.44 1.44 0 01.402-.058c.26 0 .502.084.687.234l.058 1.198c-.251.452-1.206.678-2.838.678-.796 0-1.633-.05-2.303-.092-.469-.026-.87-.05-1.189-.05h-.008c-.226-.017-.553.016-.913.058zM37.1 16.545a.51.51 0 00-.503-.503c-2.721.034-5.442.05-8.172.067-2.721.017-5.45.034-8.172.067a.491.491 0 00-.26.076.428.428 0 00-.242.427c.008.26-.025.57-.05.887-.093.98-.201 2.085.762 2.437.159.058.368.084.644.084.277 0 .578-.026.854-.059.226-.017.436-.042.603-.042l9.42-.075c.418 0 .87.025 1.34.05.493.025 1.004.05 1.498.05.804 0 1.432-.067 1.95-.217a.512.512 0 00.353-.352c.15-.653.092-1.398.025-2.119-.017-.259-.042-.527-.05-.778zm-4.664 2.37l-9.395.075c-.159 0-.351.017-.544.033a6.454 6.454 0 01-.695.042c-.21 0-.368-.017-.494-.059-.653-.209-.611-.904-.57-1.649l.01-.184c2.302-.025 4.604-.042 6.907-.059l6.12-.042c.16 0 .369-.016.595-.041.276-.026.586-.06.862-.06.252 0 .444.026.578.076a.826.826 0 00.218.059c.017 0 .017-.009.017-.009a.947.947 0 00.092.134c.142.176.058 1.298-.034 1.432-.15.218-.687.327-1.582.327-.46 0-.938-.025-1.34-.05-.293-.009-.544-.026-.745-.026zm-8.508 2.947c-1.834.017-3.667.033-5.5.042l-8.08.05c-.461 0-.955-.025-1.466-.05-.553-.026-1.122-.059-1.683-.059-.862 0-1.524.075-2.085.226a.512.512 0 00-.351.352c-.151.644-.092 1.39-.025 2.11.025.276.05.544.058.795a.508.508 0 00.494.503h.008c3.291-.042 6.573-.05 9.864-.067 3.299-.017 6.598-.026 9.905-.067a.49.49 0 00.26-.076.428.428 0 00.242-.427 10.88 10.88 0 01.034-1.197c.042-.77.075-1.373-.277-1.75-.25-.26-.678-.385-1.398-.385zm-1.54.988c.284-.017.569-.042.854-.042.26 0 .485.017.67.058a.835.835 0 00.192.017c.05 0 .092 0 .2-.008.051 0 .101 0 .21.167.193.293.134.963.084 1.507l-.008.143c-2.596.033-5.183.042-7.779.05l-7.954.042-2.378.017-.117.025c-.15.008-.41.025-.586.025h-.092c.033-.168.067-.502.067-1.214v-.168c0-.016 0-.033-.009-.058l.067-.201c.025-.067.042-.126.092-.143.076 0 .201-.008.419-.067a1.28 1.28 0 01.343-.033c.117 0 .243.008.36.017.11.008.218.016.335.016l14.301-.092c.226-.025.477-.042.729-.058zm23.042.301a.562.562 0 00-.427.201.504.504 0 00-.109.419 1.68 1.68 0 01-.377 1.44c-.728.87-2.31 1.264-3.558 1.264a5.42 5.42 0 01-.67-.042l-.084-.008c-.31 0-.519.26-.536.519a.41.41 0 00.377.46c.285.042.595.067.913.067 1.356 0 3.307-.427 4.328-1.64.545-.645.737-1.424.587-2.303-.05-.234-.218-.377-.444-.377zm-.075-1.021c.15 0 .276-.06.368-.16a.533.533 0 00.117-.343c0-.251-.167-.502-.485-.502a.486.486 0 00-.369.159.532.532 0 00-.117.343c0 .243.168.503.486.503z"/></g><defs><clipPath id="clip0_597_3477"><path fill="#fff" d="M0 0h49.308v30H0z"/></clipPath></defs></svg>