<svg width="18" height="18" viewBox="0 0 18 18" fill="none" xmlns="http://www.w3.org/2000/svg">
<path d="M14.625 1.125H4.5C4.20163 1.125 3.91548 1.24353 3.7045 1.4545C3.49353 1.66548 3.375 1.95163 3.375 2.25V4.5H2.25V5.625H3.375V8.4375H2.25V9.5625H3.375V12.375H2.25V13.5H3.375V15.75C3.375 16.0484 3.49353 16.3345 3.7045 16.5455C3.91548 16.7565 4.20163 16.875 4.5 16.875H14.625C14.9234 16.875 15.2095 16.7565 15.4205 16.5455C15.6315 16.3345 15.75 16.0484 15.75 15.75V2.25C15.75 1.95163 15.6315 1.66548 15.4205 1.4545C15.2095 1.24353 14.9234 1.125 14.625 1.125ZM14.625 15.75H4.5V13.5H5.625V12.375H4.5V9.5625H5.625V8.4375H4.5V5.625H5.625V4.5H4.5V2.25H14.625V15.75Z" fill="#4A8FE0"/>
<path d="M7.875 4.5H12.375V5.625H7.875V4.5ZM7.875 8.4375H12.375V9.5625H7.875V8.4375ZM7.875 12.375H12.375V13.5H7.875V12.375Z" fill="#4A8FE0"/>
</svg>
