<svg width="26" height="25" fill="none" xmlns="http://www.w3.org/2000/svg"><g clip-path="url(#clip0_703_2246)" fill="#0D4689"><path d="M8.04 12.64a4.607 4.607 0 004.601 4.603 4.607 4.607 0 004.602-4.602 4.607 4.607 0 00-4.602-4.603A4.607 4.607 0 008.04 12.64zm8.642 0a4.045 4.045 0 01-4.04 4.04A4.045 4.045 0 018.6 12.64a4.045 4.045 0 014.04-4.04 4.045 4.045 0 014.04 4.04z"/><path d="M15.291 2.418H9.989a.28.28 0 00-.28.28v4.294a6.372 6.372 0 00-3.436 5.648 6.372 6.372 0 003.435 5.649v4.293c0 .155.126.28.281.28h5.302a.28.28 0 00.28-.28v-4.293a6.372 6.372 0 003.436-5.649 6.372 6.372 0 00-3.435-5.648V2.699a.28.28 0 00-.281-.281zm-5.021.562h4.74v3.753a6.33 6.33 0 00-4.74 0V2.98zm4.74 19.32h-4.74v-3.753a6.33 6.33 0 004.74 0v3.754zm3.435-9.66a5.811 5.811 0 01-5.805 5.805 5.811 5.811 0 01-5.805-5.805c0-3.2 2.604-5.804 5.805-5.804 3.2 0 5.805 2.604 5.805 5.804z"/><path d="M12.152 11.362h-1.43a.28.28 0 00-.28.28v1.997c0 .155.125.28.28.28h1.43a.28.28 0 00.28-.28v-1.996a.28.28 0 00-.28-.281zm-.281 1.996h-.868v-.437h.868v.437zm0-.998h-.868v-.437h.868v.437zm1.258 1.56h1.429a.28.28 0 00.28-.281v-1.996a.28.28 0 00-.28-.281h-1.43a.28.28 0 00-.28.28v1.997c0 .155.125.28.28.28zm.28-1.997h.868v.437h-.867v-.437zm0 .998h.868v.437h-.867v-.437z"/></g><defs><clipPath id="clip0_703_2246"><path fill="#fff" d="M0 0h25.281v25H0z"/></clipPath></defs></svg>