<svg width="40" height="34" fill="none" xmlns="http://www.w3.org/2000/svg"><path d="M11.348 20.062a.32.32 0 01-.071-.009 1.952 1.952 0 01-.25-.077c-1.05-.4-1.205-1.403-.894-2.22v.001c.113-.327.321-.613.599-.82a.313.313 0 11.37.5c-.18.138-.314.326-.385.542-.094.25-.335 1.082.533 1.412.055.022.112.04.17.054a.312.312 0 01-.072.616v.001zm4.506-10.957a7.564 7.564 0 01-2.65-.5.313.313 0 11.22-.585c1.888.708 3.285.387 3.3.384a.313.313 0 11.144.608 4.74 4.74 0 01-1.014.093zM27.96 21.562a1.4 1.4 0 01-.886-.305l-2.78-2.233a.312.312 0 11.393-.487l2.778 2.233c.382.307.991.187 1.359-.273.179-.215.274-.489.268-.769a.808.808 0 00-.29-.613l-8.91-7.22a.313.313 0 01.161-.56.313.313 0 01.232.073l8.91 7.222c.323.265.514.659.521 1.077.012.43-.132.85-.405 1.184a1.756 1.756 0 01-1.35.671z" fill="#fff"/><path d="M25.581 23.212a1.403 1.403 0 01-.887-.305L20.83 19.77a.312.312 0 01.394-.485l3.863 3.135c.38.306.99.183 1.358-.274.179-.216.274-.489.268-.769a.808.808 0 00-.29-.613l-3.869-3.14a.312.312 0 11.394-.485l3.865 3.139c.324.264.515.658.522 1.076.011.43-.133.85-.406 1.184-.325.415-.82.663-1.348.673z" fill="#fff"/><path d="M23.33 24.893a1.405 1.405 0 01-.888-.306l-3.335-2.67a.312.312 0 11.39-.488l3.335 2.671c.383.308.993.188 1.36-.271.318-.394.36-.923.1-1.258a.743.743 0 00-.121-.126l-3.34-2.672a.313.313 0 01.391-.489l3.34 2.675c.084.067.16.144.226.229.432.562.387 1.414-.108 2.03a1.755 1.755 0 01-1.35.675zm-10.792-5.901a.312.312 0 01-.296-.213c-.304-.904-1.333-1.397-1.343-1.404l-.009-.005-.133-.068c-.33-.17-.64-.33-.932-.408a.312.312 0 01.164-.604c.354.097.694.271 1.054.457l.125.062c.105.05 1.287.64 1.664 1.766a.313.313 0 01-.197.395.307.307 0 01-.097.022z" fill="#fff"/><path d="M20.076 25.813a1.438 1.438 0 01-.893-.318 34.118 34.118 0 00-.563-.441c-.21-.164-.45-.35-.721-.563a.313.313 0 11.39-.489c.266.213.504.398.714.563.21.165.395.307.57.447.188.153.702.43 1.36-.284.34-.428.352-1.008.027-1.327a.58.58 0 00-.055-.047l-1.799-1.433a.313.313 0 01.39-.49l1.8 1.434c.037.03.072.061.105.094.559.547.567 1.48.014 2.168l-.014.015c-.449.491-.913.67-1.325.67v.001zm5.089-10.688a3.495 3.495 0 01-1.062-.173 4.712 4.712 0 01-1.61-.914l-3.086-2.532-1.854.547c-.341.808-1.078 1.933-2.524 1.933a3.118 3.118 0 01-.528-.049c-.37-.062-.55-.26-.637-.414-.22-.393-.04-.871-.019-.924a.254.254 0 01.013-.029c.445-.85 1.43-3.113 1.438-3.136.008-.022.013-.026.02-.04.018-.027.431-.687 1.146-.91.603-.188 3.25-1.072 3.276-1.08a3.006 3.006 0 011.727 0c1.202.38 2.938 1.048 2.957 1.055l.017.007c.012.005 1.25.549 2.345-.051a.314.314 0 01.43.12.313.313 0 01-.129.427c-1.33.731-2.75.14-2.895.077-.125-.047-1.77-.677-2.914-1.04-.68-.217-1.332 0-1.339 0-.028.009-2.68.892-3.288 1.084-.437.139-.734.544-.79.628-.115.26-1 2.291-1.438 3.134-.03.086-.069.275-.011.375.01.019.043.076.196.102 1.113.192 1.927-.36 2.421-1.639.035-.09.11-.16.203-.188l2.157-.636a.31.31 0 01.286.057l3.22 2.642.013.013c.091.083 2.254 2.035 4.227.01a.312.312 0 11.448.438c-.82.842-1.673 1.106-2.416 1.106zm3.148 3.496a.312.312 0 11-.02-.625c.044-.004.892-.099 1.482-1.493a.312.312 0 11.574.244c-.754 1.784-1.967 1.87-2.018 1.875h-.018z" fill="#fff"/><path d="M17.03 25.098a1.755 1.755 0 01-.625-.122c-1.049-.4-1.205-1.403-.893-2.22.148-.407.436-.748.812-.962a1.6 1.6 0 012.247.853c.145.411.138.86-.02 1.267-.246.648-.787 1.184-1.521 1.184zm.03-2.87a.9.9 0 00-.433.113c-.246.143-.434.37-.53.638-.094.25-.335 1.083.532 1.413.867.33 1.243-.453 1.338-.7.104-.266.11-.56.017-.831a.927.927 0 00-.557-.563 1.034 1.034 0 00-.364-.07h-.003z" fill="#fff"/><path d="M14.745 23.813a1.749 1.749 0 01-.625-.122c-1.049-.4-1.205-1.403-.893-2.22a1.83 1.83 0 01.812-.963 1.6 1.6 0 012.25.854c.145.411.138.86-.02 1.267-.249.645-.79 1.184-1.524 1.184zm.03-2.87c-.462 0-.813.352-.962.75-.095.25-.336 1.083.532 1.413.867.33 1.243-.452 1.337-.7.104-.266.11-.56.018-.831a.925.925 0 00-.558-.563 1.025 1.025 0 00-.367-.069z" fill="#fff"/><path d="M12.698 21.86a1.75 1.75 0 01-.625-.121c-1.049-.4-1.205-1.402-.893-2.22.148-.406.436-.747.812-.963a1.6 1.6 0 012.247.854c.146.411.138.86-.02 1.267-.245.646-.786 1.184-1.52 1.184zm.03-2.869c-.461 0-.812.352-.962.75-.095.25-.335 1.083.532 1.413.868.331 1.243-.452 1.338-.7.104-.266.11-.56.017-.83a.927.927 0 00-.557-.563 1.018 1.018 0 00-.368-.07zm9.834-12.053a.312.312 0 01-.154-.041c-1.72-.973-3.525-.163-3.543-.154a.312.312 0 11-.26-.569c.084-.039 2.115-.949 4.11.18a.312.312 0 01-.153.584zM10.105 16.994a.31.31 0 01-.11-.02l-1.519-.581a.313.313 0 01.223-.58l1.227.469 2.977-7.788-1.226-.47a.312.312 0 01.223-.583l1.518.58a.313.313 0 01.18.404l-3.2 8.369a.313.313 0 01-.293.2z" fill="#fff"/><path d="M8.27 17.068a.316.316 0 01-.11-.02l-3.328-1.273a.313.313 0 01-.18-.4L8.487 5.34a.312.312 0 01.403-.18l3.327 1.276a.312.312 0 01.18.404L8.564 16.867a.312.312 0 01-.292.201zm-2.923-1.765l2.744 1.05 3.612-9.447L8.96 5.857l-3.612 9.446zm24.672 1.691a.312.312 0 01-.292-.2l-3.2-8.368a.313.313 0 01.18-.404l1.517-.58a.313.313 0 11.224.583l-1.226.469 2.977 7.785 1.226-.466a.312.312 0 11.223.583l-1.517.58a.301.301 0 01-.112.018z" fill="#fff"/><path d="M31.853 17.069a.312.312 0 01-.292-.202L27.726 6.838a.313.313 0 01.18-.404l3.327-1.272a.312.312 0 01.404.18l3.836 10.033a.313.313 0 01-.18.403l-3.328 1.274a.313.313 0 01-.112.017zM28.421 6.907l3.613 9.446 2.744-1.05-3.613-9.445-2.744 1.049z" fill="#fff"/><path d="M32.847 14.783a.313.313 0 01-.294-.209l-.145-.412a.312.312 0 11.589-.208l.145.412a.313.313 0 01-.295.417zm-25.584 0a.312.312 0 01-.291-.417l.145-.412a.313.313 0 01.59.208l-.146.412a.313.313 0 01-.298.21zM20 4.404a.313.313 0 01-.313-.312V.938a.313.313 0 01.625 0v3.154a.312.312 0 01-.312.312zm0 26.846a.313.313 0 01-.313-.312v-3.155a.313.313 0 01.625 0v3.155a.312.312 0 01-.312.312zm10.607-4.393a.312.312 0 01-.221-.092l-2.23-2.23h-.001a.312.312 0 11.442-.442l2.23 2.23a.312.312 0 01-.22.534zm-21.214 0a.312.312 0 01-.22-.533l2.23-2.23v-.001a.312.312 0 01.538.22.312.312 0 01-.096.222l-2.23 2.23a.311.311 0 01-.222.092zm6.131-21.518a.313.313 0 01-.29-.195l-.695-1.706a.312.312 0 11.579-.236l.695 1.706a.313.313 0 01-.29.43zm9.65 23.686a.312.312 0 01-.289-.195l-.76-1.865a.313.313 0 01.578-.235l.76 1.865a.313.313 0 01-.289.43zM7.188 21.474a.312.312 0 01-.121-.6l1.865-.762a.312.312 0 11.235.58l-1.865.76a.312.312 0 01-.114.022zm25.433.136a.307.307 0 01-.12-.026l-1.856-.781a.313.313 0 11.242-.576l1.856.782a.312.312 0 01-.122.6zM24.539 5.285a.313.313 0 01-.289-.434l.714-1.697a.313.313 0 11.576.242l-.713 1.697a.312.312 0 01-.288.192zm-9.976 23.707a.314.314 0 01-.288-.434l.782-1.856a.313.313 0 01.576.243l-.782 1.856a.313.313 0 01-.288.191z" fill="#fff"/></svg>