<svg width="23" height="20" fill="none" xmlns="http://www.w3.org/2000/svg"><path d="M22.308 6.435L19.021.954C18.83.632 18.365.369 17.99.369H4.822c-.375 0-.84.263-1.032.584L.5 6.435s-.192.361.142.743l10.312 11.776a.595.595 0 00.45.212c.162 0 .325-.07.448-.212L22.151 7.2c.005-.007.009-.014.015-.02.334-.383.142-.744.142-.744zM8.22 6.502L9.524 1.05h3.764l1.305 5.45H8.22zm6.463.684l-3.278 10.46L8.13 7.185h6.554zM4.374 1.304c.07-.116.313-.253.448-.253h4.001L7.52 6.5H1.256l3.118-5.197zm3.041 5.882l3.265 10.42-9.124-10.42h5.86zm4.722 10.409l3.261-10.409h5.857l-9.118 10.409zm3.157-11.093L13.989 1.05h4c.136 0 .379.137.449.254l3.117 5.197h-6.261z" fill="#0D4689"/></svg>