<svg width="40" height="34" fill="none" xmlns="http://www.w3.org/2000/svg"><path d="M33.912 25.224H20.608a.912.912 0 01-.65-.273.94.94 0 01-.27-.66v-.797c0-.247.098-.484.27-.659a.91.91 0 01.648-.273h13.306c.244 0 .477.099.649.273a.94.94 0 01.269.659v.798a.94.94 0 01-.27.658.912.912 0 01-.648.274zm-13.304-2.027a.295.295 0 00-.293.297v.798c0 .164.131.296.293.297h13.304a.296.296 0 00.293-.297v-.799a.295.295 0 00-.293-.296H20.608z" fill="#fff"/><path d="M33.005 31.794h-11.43a.912.912 0 01-.649-.274.94.94 0 01-.269-.658v-5.956c0-.175.14-.317.313-.317.172 0 .312.142.312.317v5.956c0 .164.131.296.293.297h11.43a.295.295 0 00.292-.297v-5.956c0-.175.14-.317.312-.317.173 0 .313.142.313.317v5.956a.938.938 0 01-.27.658.91.91 0 01-.647.274z" fill="#fff"/><path d="M31.492 30.258a.315.315 0 01-.312-.317v-3.623c0-.176.14-.318.312-.318.173 0 .313.142.313.318v3.623c0 .175-.14.317-.313.317zm-8.466 0a.315.315 0 01-.312-.317v-3.623c0-.176.14-.318.312-.318.173 0 .313.142.313.318v3.623c0 .175-.14.317-.313.317zm2.842 0a.315.315 0 01-.312-.317v-3.623c0-.176.14-.318.312-.318.173 0 .313.142.313.318v3.623c0 .175-.14.317-.313.317zm2.782 0a.315.315 0 01-.312-.317v-3.623c0-.176.14-.318.312-.318.173 0 .313.142.313.318v3.623c0 .175-.14.317-.313.317zm-6.682-7.092a.313.313 0 01-.297-.217.32.32 0 01.11-.355l3.87-2.947a.31.31 0 01.437.064.32.32 0 01-.062.444l-3.87 2.947a.305.305 0 01-.188.064zm10.642 0a.305.305 0 01-.187-.064l-3.87-2.947a.32.32 0 01-.063-.444.31.31 0 01.438-.063l3.87 2.947a.32.32 0 01.11.354.313.313 0 01-.297.217z" fill="#fff"/><path d="M32.425 23.036a.311.311 0 01-.264-.149.321.321 0 01-.017-.307l.196-.407a14.04 14.04 0 001.16-8.245A13.927 13.927 0 0029.792 6.5a13.578 13.578 0 00-7.234-3.927 13.452 13.452 0 00-8.143.994.31.31 0 01-.407-.16.32.32 0 01.148-.417 14.063 14.063 0 019.277-.879 14.24 14.24 0 017.83 5.125 14.624 14.624 0 013.045 8.94 14.528 14.528 0 01-1.407 6.277l-.195.408a.312.312 0 01-.282.176zM20.05 30.651a14.102 14.102 0 01-8.014-2.497 14.435 14.435 0 01-5.245-6.638 14.683 14.683 0 01-.664-8.483 14.528 14.528 0 014.146-7.396.31.31 0 01.442.013.32.32 0 01-.013.449 13.896 13.896 0 00-3.96 7.072 14.045 14.045 0 00.636 8.11 13.81 13.81 0 005.013 6.346 13.49 13.49 0 008.559 2.36.315.315 0 01.332.297.316.316 0 01-.292.338c-.311.02-.627.03-.94.03z" fill="#fff"/><path d="M24.059 14.596a.318.318 0 01-.254-.127l-1.647-2.105-.006-.008-.157-.214a2.631 2.631 0 01.35-3.465 2.542 2.542 0 011.714-.673 2.54 2.54 0 011.716.666 2.632 2.632 0 01.362 3.464l-.003.006-.167.221-.004.005-1.645 2.094a.322.322 0 01-.259.136zm.234-.524v.003-.003zm-1.643-2.1l1.41 1.799 1.412-1.8.163-.217c.241-.335.37-.74.37-1.156a1.98 1.98 0 00-.802-1.595 1.916 1.916 0 00-1.742-.278 1.956 1.956 0 00-1.245 1.269 2 2 0 00.281 1.768l.153.21zm10.095-4.737a.318.318 0 01-.253-.127l-1.648-2.105-.005-.008-.158-.215a2.633 2.633 0 01.35-3.465 2.54 2.54 0 013.43-.006 2.631 2.631 0 01.363 3.464l-.004.005-.166.222-.004.005-1.645 2.094a.321.321 0 01-.26.136zm-1.408-2.623l1.41 1.798 1.412-1.8.162-.216c.242-.336.37-.741.37-1.157a1.98 1.98 0 00-.802-1.595 1.916 1.916 0 00-1.742-.278 1.955 1.955 0 00-1.244 1.269c-.19.6-.086 1.258.28 1.768l.154.211zm-1.405 14.426a.318.318 0 01-.254-.127l-1.647-2.105-.006-.008-.157-.214a2.63 2.63 0 01.35-3.466c.47-.431 1.08-.67 1.714-.672a2.54 2.54 0 011.716.666 2.631 2.631 0 01.363 3.464l-.004.006-.167.221-.004.005-1.645 2.094a.322.322 0 01-.259.136zm.234-.524v.003-.003zm-1.643-2.1l1.41 1.798 1.412-1.8.163-.216c.24-.335.37-.74.37-1.156a1.98 1.98 0 00-.802-1.595 1.916 1.916 0 00-1.742-.278 1.955 1.955 0 00-1.245 1.269c-.19.6-.086 1.258.281 1.767l.153.212zM15.184 24.56a.318.318 0 01-.254-.127l-1.647-2.105-.006-.008-.157-.214a2.631 2.631 0 01.35-3.466c.47-.431 1.08-.67 1.714-.672a2.54 2.54 0 011.716.666 2.631 2.631 0 01.363 3.464l-.004.006-.167.221-.004.005-1.645 2.094a.322.322 0 01-.259.136zm.234-.524v.003-.003zm-1.643-2.1l1.41 1.799 1.412-1.8.163-.217c.24-.335.37-.74.37-1.156a1.98 1.98 0 00-.802-1.595 1.916 1.916 0 00-1.742-.278 1.956 1.956 0 00-1.245 1.269c-.19.6-.086 1.258.281 1.767l.153.212zM12.433 8.694a.318.318 0 01-.254-.127l-1.647-2.105-.006-.008-.157-.214a2.632 2.632 0 01.35-3.465 2.537 2.537 0 011.714-.672 2.54 2.54 0 011.716.665 2.632 2.632 0 01.362 3.464l-.003.006-.167.221-.004.005-1.645 2.094a.322.322 0 01-.259.136zm.234-.524v.003-.003zm-1.643-2.099l1.41 1.798 1.412-1.8.163-.216c.241-.336.37-.741.37-1.157a1.98 1.98 0 00-.802-1.595 1.916 1.916 0 00-1.742-.278 1.955 1.955 0 00-1.245 1.269 2 2 0 00.281 1.768l.153.211zM20 30.651a.315.315 0 01-.313-.317V2.03c0-.176.14-.318.313-.318s.313.142.313.318v28.303a.32.32 0 01-.092.224.31.31 0 01-.221.093z" fill="#fff"/><path d="M25.74 19.038h-.017a.315.315 0 01-.296-.332 49.875 49.875 0 00-.091-6.42.322.322 0 01.073-.232.312.312 0 01.552.18c.103 1.285.156 2.62.156 3.968 0 .854-.02 1.707-.063 2.535a.315.315 0 01-.314.302zm-.565-10.231a.314.314 0 01-.307-.262c-.67-3.88-1.653-5.912-1.663-5.932a.32.32 0 01.143-.427.312.312 0 01.42.144c.042.085 1.032 2.135 1.718 6.105a.322.322 0 01-.052.237.312.312 0 01-.259.136zm5.2 12.564a.317.317 0 01-.303-.383l.067-.328c.204-1.026.336-2.065.394-3.11a.315.315 0 01.33-.299c.173.01.305.16.295.335a22.91 22.91 0 01-.405 3.201l-.07.331a.313.313 0 01-.308.253zm.251-8.334a.314.314 0 01-.308-.27c-.84-5.603-3.524-8.605-3.55-8.635a.321.321 0 01.017-.449.31.31 0 01.442.018c.116.127 2.84 3.177 3.708 8.97a.317.317 0 01-.31.365zm-13.832 17.16a.312.312 0 01-.28-.175c-.039-.079-.974-1.992-1.657-5.723a.317.317 0 01.251-.365.311.311 0 01.363.249c.665 3.632 1.592 5.535 1.602 5.555a.322.322 0 01-.014.308.312.312 0 01-.265.15zm-2.275-11.603a.315.315 0 01-.313-.304 50.937 50.937 0 01-.042-2.088c0-8.977 2.253-13.676 2.35-13.871a.309.309 0 01.423-.152.322.322 0 01.136.434c-.023.047-2.284 4.777-2.284 13.589 0 .693.014 1.386.042 2.061a.32.32 0 01-.082.229.31.31 0 01-.218.102h-.012zm-1.236 10.221a.31.31 0 01-.23-.102c-.04-.046-1.014-1.13-1.994-3.223-.9-1.921-1.972-5.092-1.972-9.291 0-4.2 1.072-7.4 1.971-9.346a.309.309 0 01.593.015.321.321 0 01-.03.255c-.872 1.888-1.91 4.997-1.91 9.076 0 7.8 3.764 12.042 3.802 12.083a.321.321 0 01.057.343.313.313 0 01-.287.19z" fill="#fff"/><path d="M26.364 11.114a.314.314 0 01-.311-.292.316.316 0 01.259-.339c3.688-.641 5.516-1.677 5.534-1.687a.31.31 0 01.428.117.32.32 0 01-.115.434c-.078.045-1.93 1.1-5.739 1.762a.322.322 0 01-.056.005zm-6.339.514c-8.105 0-11.89-2.31-12.047-2.408a.321.321 0 01-.112-.442.307.307 0 01.44-.098c.05.031 3.826 2.313 11.719 2.313.63 0 1.258-.014 1.869-.041a.315.315 0 01.326.303.316.316 0 01-.3.332c-.618.027-1.257.04-1.895.04zm.016-4.623c-2.102 0-4-.394-5.642-1.171a.32.32 0 01-.152-.422.31.31 0 01.415-.154c1.072.508 2.875 1.112 5.38 1.112 2.534 0 4.369-.586 5.461-1.079 1.183-.532 1.776-1.072 1.782-1.079a.31.31 0 01.434.028.321.321 0 01-.013.44c-.102.098-2.555 2.325-7.665 2.325zm4.407 14.272h-.034a39.992 39.992 0 00-4.39-.232c-.872 0-1.734.027-2.563.08a.315.315 0 01-.332-.296.316.316 0 01.292-.338 40.473 40.473 0 012.603-.082c1.49-.003 2.978.076 4.458.237.173.01.305.16.296.334a.315.315 0 01-.33.3v-.003zM8.017 23.402a.314.314 0 01-.301-.231.32.32 0 01.138-.357c.068-.042 1.694-1.032 5.08-1.733a.313.313 0 01.369.247.317.317 0 01-.244.375c-3.266.675-4.864 1.643-4.88 1.653a.31.31 0 01-.162.046zm4.628 4.623a.313.313 0 01-.288-.197.32.32 0 01.069-.346c.072-.072 1.803-1.777 5.452-2.3a.313.313 0 01.348.27.317.317 0 01-.26.357c-1.793.259-3.084.822-3.851 1.25-.832.463-1.246.871-1.25.875a.31.31 0 01-.22.09zm19.263-11.534a.315.315 0 01-.312-.317c0-.175.14-.317.312-.317H34c.173 0 .313.142.313.317 0 .175-.14.317-.313.317h-2.09zm-25.804.001a.315.315 0 01-.312-.317c0-.175.14-.317.313-.317h21.874c.173 0 .313.142.313.317 0 .175-.14.317-.313.317H6.105z" fill="#fff"/></svg>