<svg width="247" height="263" fill="none" xmlns="http://www.w3.org/2000/svg"><path fill-rule="evenodd" clip-rule="evenodd" d="M243 8a4 4 0 110-8 4 4 0 010 8zM9 33.5a2.5 2.5 0 105 0 2.5 2.5 0 00-5 0zM2.5 57a2.5 2.5 0 110-5 2.5 2.5 0 010 5zM0 74.5a2.5 2.5 0 105 0 2.5 2.5 0 00-5 0zM2 96a2 2 0 110-4 2 2 0 010 4zm-2 18a2 2 0 104 0 2 2 0 00-4 0zm2 22a2 2 0 110-4 2 2 0 010 4zm-2 18a2 2 0 104 0 2 2 0 00-4 0zm1.5 21a1.5 1.5 0 110-3 1.5 1.5 0 010 3zM0 193.5a1.5 1.5 0 103 0 1.5 1.5 0 00-3 0zM1.5 215a1.5 1.5 0 110-3 1.5 1.5 0 010 3zM3 233.5a1.5 1.5 0 103 0 1.5 1.5 0 00-3 0zm8 17.5a1 1 0 110-2 1 1 0 010 2zM30 28.5a2.5 2.5 0 105 0 2.5 2.5 0 00-5 0zM53.5 31a2.5 2.5 0 110-5 2.5 2.5 0 010 5zM71 29a3 3 0 106 0 3 3 0 00-6 0zm24 3a3 3 0 110-6 3 3 0 010 6zm18-3a3 3 0 106 0 3 3 0 00-6 0zm24 3a3 3 0 110-6 3 3 0 010 6zm18-3a3 3 0 106 0 3 3 0 00-6 0zm23.5 3a3.5 3.5 0 110-7 3.5 3.5 0 010 7zm16.5-3.5a3.5 3.5 0 107 0 3.5 3.5 0 00-7 0zm24.5 3.5a3.5 3.5 0 110-7 3.5 3.5 0 010 7zm16.5-7a4 4 0 108 0 4 4 0 00-8 0zM19 263a1 1 0 110-2 1 1 0 010 2z" fill="url(#paint0_linear_679_2298)"/><defs><linearGradient id="paint0_linear_679_2298" x1="242.27" y1="1" x2="-20.83" y2="28.067" gradientUnits="userSpaceOnUse"><stop stop-color="#C6C3C3" stop-opacity=".53"/><stop offset="1" stop-color="#70AAEF" stop-opacity=".25"/></linearGradient></defs></svg>