<svg width="464" height="114" fill="none" xmlns="http://www.w3.org/2000/svg"><path fill-rule="evenodd" clip-rule="evenodd" d="M464 5.575a5.575 5.575 0 10-11.15 0 5.575 5.575 0 0011.15 0zm0 34.307a5.575 5.575 0 10-11.15 0 5.575 5.575 0 0011.15 0zm-12.007 27.874a5.146 5.146 0 110 10.292 5.146 5.146 0 010-10.292zm-24.872 19.727a5.146 5.146 0 10-10.292 0 5.146 5.146 0 0010.292 0zm-42.455-1.716a4.717 4.717 0 110 9.434 4.717 4.717 0 010-9.434zm-37.739 0a4.717 4.717 0 11.001 9.435 4.717 4.717 0 01-.001-9.435zm-33.019 5.146a4.288 4.288 0 10-8.577 0 4.288 4.288 0 008.577 0zm-42.026-4.288a4.288 4.288 0 110 8.576 4.288 4.288 0 010-8.576zm-33.45 4.288a4.288 4.288 0 10-8.577 0 4.288 4.288 0 008.577 0zm-41.596-4.288a3.86 3.86 0 110 7.719 3.86 3.86 0 010-7.72zm-33.879 3.86a3.86 3.86 0 10-7.719 0 3.86 3.86 0 007.719 0zm-41.596-3.86a3.86 3.86 0 110 7.719 3.86 3.86 0 010-7.72zm-33.879 3.43a3.43 3.43 0 10-6.86 0 3.43 3.43 0 006.86 0zm-41.169-2.573a3.43 3.43 0 110 6.862 3.43 3.43 0 010-6.862zM22.437 92.2a3.002 3.002 0 10-6.003 0 3.002 3.002 0 006.003 0zM3.431 108.067a2.573 2.573 0 110 5.146 2.573 2.573 0 010-5.146z" fill="url(#paint0_linear_444_331)"/><defs><linearGradient id="paint0_linear_444_331" x1="453.299" y1="0" x2="39.922" y2="185.414" gradientUnits="userSpaceOnUse"><stop stop-color="#C6C3C3" stop-opacity=".53"/><stop offset="1" stop-color="#70AAEF" stop-opacity=".25"/></linearGradient></defs></svg>