<svg width="20" height="20" fill="none" xmlns="http://www.w3.org/2000/svg"><path d="M11 .03C15.73.5 19.5 4.25 19.95 9A9.974 9.974 0 0111 19.93v-2c3.64-.43 6.5-3.32 6.96-6.96A7.995 7.995 0 0011 2.05V.03zM9 .06v2c-1.43.2-2.78.78-3.9 1.68L3.67 2.26A9.827 9.827 0 019 .06zM2.26 3.67L3.69 5.1A8.017 8.017 0 002.05 9h-2c.2-1.96.95-3.81 2.21-5.33zM.06 11h2c.18 1.42.75 2.77 1.63 3.9l-1.42 1.43A10.04 10.04 0 01.06 11zm5.04 5.37c1.13.88 2.48 1.45 3.9 1.63v2c-1.96-.21-3.82-1-5.33-2.26l1.43-1.37zM10 14.5L5.5 10H9V6h2v4h3.5L10 14.5z" fill="#0D4689"/></svg>