<svg width="29" height="25" fill="none" xmlns="http://www.w3.org/2000/svg"><path d="M14.304 5.394c-3.118 0-6.13 1.307-8.265 3.587a.313.313 0 00-.085.214v.771H4.797a.312.312 0 00-.313.313v7.3a.31.31 0 00.115.242l1.355 1.11v.534c0 .172.14.312.313.312h.103v1.132c0 .172.14.312.312.312h17.81c.173 0 .313-.14.313-.312v-1.132h.165a.313.313 0 00.302-.235 11.35 11.35 0 00.356-2.825c0-6.244-5.08-11.323-11.324-11.323zm-8.35 12.73l-.845-.693v-6.84h.845v7.533zm18.226 2.473H6.994v-.82H24.18v.82zm.544-1.445H6.58V9.32a10.592 10.592 0 017.725-3.3c5.9 0 10.699 4.799 10.699 10.698 0 .823-.094 1.641-.279 2.435z" fill="#0D4689"/><path d="M14.312 7.509a8.807 8.807 0 00-6.405 2.78.313.313 0 00-.085.214v.698c0 .173.14.313.313.313h12.943a.312.312 0 00.25-.5 8.709 8.709 0 00-7.016-3.505zm-5.865 3.38v-.262a8.068 8.068 0 015.865-2.493c2.368 0 4.561.996 6.109 2.755H8.447zm1.976 1.785a1.859 1.859 0 00-1.857 1.857c0 1.024.833 1.856 1.857 1.856a1.859 1.859 0 001.857-1.856 1.859 1.859 0 00-1.857-1.857zm0 3.089a1.23 1.23 0 01-.312-2.419v1.612a.312.312 0 00.625 0v-1.612c.527.14.92.616.92 1.187 0 .679-.554 1.232-1.233 1.232z" fill="#0D4689"/></svg>