<svg width="21" height="18" viewBox="0 0 21 18" fill="none" xmlns="http://www.w3.org/2000/svg">
<path d="M10.4519 16.8387C10.2039 16.8387 9.96479 16.7478 9.77847 16.5827C9.07476 15.9602 8.39631 15.3753 7.79774 14.8593L7.79468 14.8566C6.03975 13.3437 4.5243 12.0373 3.46988 10.7503C2.29119 9.31146 1.74219 7.94729 1.74219 6.45702C1.74219 5.00909 2.23298 3.67328 3.12407 2.69549C4.02579 1.70614 5.26308 1.16125 6.60842 1.16125C7.61394 1.16125 8.5348 1.48284 9.34535 2.117C9.75441 2.4371 10.1252 2.82886 10.4519 3.28582C10.7787 2.82886 11.1493 2.4371 11.5585 2.117C12.3691 1.48284 13.2899 1.16125 14.2954 1.16125C15.6406 1.16125 16.8781 1.70614 17.7798 2.69549C18.6709 3.67328 19.1615 5.00909 19.1615 6.45702C19.1615 7.94729 18.6127 9.31146 17.434 10.7501C16.3796 12.0373 14.8642 13.3436 13.1096 14.8563C12.5099 15.3731 11.8304 15.959 11.1251 16.583C10.9389 16.7478 10.6997 16.8387 10.4519 16.8387V16.8387ZM6.60842 2.19349C5.55148 2.19349 4.58051 2.62021 3.87416 3.39512C3.1573 4.18174 2.76245 5.2691 2.76245 6.45702C2.76245 7.71041 3.22295 8.83138 4.25544 10.0916C5.25338 11.3098 6.73773 12.5894 8.45638 14.0711L8.45957 14.0738C9.06041 14.5918 9.74152 15.179 10.4504 15.806C11.1635 15.1778 11.8457 14.5896 12.4477 14.0708C14.1663 12.5891 15.6505 11.3098 16.6484 10.0916C17.6808 8.83138 18.1413 7.71041 18.1413 6.45702C18.1413 5.2691 17.7464 4.18174 17.0296 3.39512C16.3233 2.62021 15.3523 2.19349 14.2954 2.19349C13.5212 2.19349 12.8103 2.44248 12.1826 2.93345C11.6232 3.37119 11.2336 3.92455 11.0051 4.31174C10.8876 4.51085 10.6809 4.6297 10.4519 4.6297C10.2229 4.6297 10.0161 4.51085 9.89861 4.31174C9.67029 3.92455 9.28063 3.37119 8.72112 2.93345C8.09344 2.44248 7.38256 2.19349 6.60842 2.19349V2.19349Z" fill="#4A8FE0"/>
</svg>
