<svg width="25" height="20" fill="none" xmlns="http://www.w3.org/2000/svg"><path d="M21.599 5.949l-.159-.924a.403.403 0 01.116-.356l.844-.823a1.06 1.06 0 00-.587-1.808l-1.167-.17a.403.403 0 01-.303-.219L19.822.591a1.061 1.061 0 00-1.903 0l-.521 1.058a.4.4 0 01-.076.102H3.129a1.206 1.206 0 00-1.205 1.205V14.35a1.207 1.207 0 001.205 1.205h4.492v.986a.986.986 0 00.986.986h5.18a.329.329 0 000-.657h-5.18a.329.329 0 01-.329-.329v-7.45c0-.181.147-.328.329-.328h8.107a.33.33 0 01.33.328v7.45a.329.329 0 01-.33.33h-1.326a.329.329 0 100 .657h1.326a.985.985 0 00.986-.986v-.987h.33a1.206 1.206 0 001.204-1.205v-7.5l.867.455a1.059 1.059 0 001.512-.644c.156.1.25.273.25.459v11.394a.548.548 0 01-.547.548h-14.9a.548.548 0 01-.548-.548v-2.306a.329.329 0 10-.657 0v2.306a1.207 1.207 0 001.205 1.205h14.9a1.207 1.207 0 001.205-1.205V7.119a1.206 1.206 0 00-.922-1.17zM3.129 2.408h12.139a1.057 1.057 0 00.073 1.438l.098.095H2.581v-.986a.548.548 0 01.548-.547zM7.62 9.09v3.401H4.88a.115.115 0 01-.114-.114V6.68c0-.063.052-.114.115-.114h5.697a.114.114 0 01.114.114v1.425H8.607a.987.987 0 00-.986.986zm10.408 5.806H17.7V9.091a.987.987 0 00-.986-.986h-5.373V6.68a.763.763 0 00-.762-.761H4.882a.763.763 0 00-.763.761v5.698a.763.763 0 00.763.762H7.62v1.758H3.128a.547.547 0 01-.548-.548V4.599h13.476a.323.323 0 00.05-.005l.078.075a.403.403 0 01.116.356l-.2 1.162a1.06 1.06 0 001.539 1.117l.936-.492v7.538a.547.547 0 01-.547.548zm2.802-8.205a.394.394 0 01-.424.03l-1.043-.547a1.06 1.06 0 00-.986 0l-1.043.548a.403.403 0 01-.585-.425l.2-1.161a1.06 1.06 0 00-.305-.94l-.845-.823a.403.403 0 01.223-.687l1.166-.17a1.06 1.06 0 00.799-.58L18.508.88a.403.403 0 01.724 0l.521 1.057c.154.313.452.53.798.581l1.166.17a.402.402 0 01.223.685l-.844.824a1.06 1.06 0 00-.305.938l.199 1.161a.394.394 0 01-.16.395z" fill="#4A8FE0"/><path d="M3.265 3.3a.272.272 0 00.07.107.33.33 0 00.464 0 .329.329 0 10-.534-.108zm.875 0a.347.347 0 00.18.18l.06.017a.31.31 0 00.127 0 .522.522 0 00.062-.018.347.347 0 00.18-.18.503.503 0 00.017-.06.31.31 0 000-.128.503.503 0 00-.018-.061.345.345 0 00-.18-.18.328.328 0 00-.43.43h.001zm1.179.203a.329.329 0 100-.657.329.329 0 000 .657zm5.616 12.052h3.506a.329.329 0 00.329-.329V12.67l.493.226c.152.07.332.014.418-.13l.794-1.314a.33.33 0 00-.134-.464l-1.753-.876a.328.328 0 00-.147-.035h-3.506a.328.328 0 00-.147.035l-1.753.876a.329.329 0 00-.14.455l.74 1.315a.33.33 0 00.415.142l.556-.236v2.562a.33.33 0 00.33.329zm2.331-4.82a.872.872 0 01-1.156 0h1.156zm-3.202 1.445l-.426-.758 1.375-.687h.29a1.532 1.532 0 002.77 0h.29l1.365.68-.458.76-.692-.316a.329.329 0 00-.466.299v2.739h-2.848v-2.73a.329.329 0 00-.457-.302l-.743.315zm7.951-8.88c.007.02.017.04.03.057a.22.22 0 00.04.05.329.329 0 00.464-.464.34.34 0 00-.464 0 .329.329 0 00-.09.295c.004.022.01.042.02.062zm1.531 0c.007.02.017.039.03.056a.328.328 0 10-.03-.057zm.572.666a.324.324 0 00-.413.197.658.658 0 01-1.241 0 .324.324 0 00-.61.217 1.304 1.304 0 002.461 0 .324.324 0 00-.197-.414z" fill="#4A8FE0"/></svg>