<svg width="30" height="30" fill="none" xmlns="http://www.w3.org/2000/svg"><path d="M15 30C6.716 30 0 23.284 0 15 0 6.716 6.716 0 15 0c8.284 0 15 6.716 15 15 0 8.284-6.716 15-15 15z" fill="#fff"/><path d="M15 29.75C6.854 29.75.25 23.146.25 15S6.854.25 15 .25 29.75 6.854 29.75 15 23.146 29.75 15 29.75z" stroke="#4A8FE0" stroke-opacity=".26" stroke-width=".5"/><path d="M18.644 8.37H16.59a3.425 3.425 0 00-3.425 3.425v2.055H11.11v2.74h2.055v5.48h2.74v-5.48h2.055l.685-2.74h-2.74v-2.055a.685.685 0 01.685-.685h2.055V8.37z" stroke="#4A8FE0" stroke-width="1.25" stroke-linecap="round" stroke-linejoin="round"/></svg>