<svg width="20" height="20" viewBox="0 0 20 20" fill="none" xmlns="http://www.w3.org/2000/svg">
<path d="M20 10C20 4.47407 15.5259 0 10 0C4.47407 0 0 4.47407 0 10C0 14.9926 3.65926 19.1259 8.44444 19.8815V12.8889H5.8963V10H8.44444V7.79259C8.44444 5.28889 9.92593 3.91111 12.2074 3.91111C13.3037 3.91111 14.4444 4.1037 14.4444 4.1037V6.56296H13.1852C11.9407 6.56296 11.5556 7.33333 11.5556 8.11852V10H14.3259L13.8815 12.8889H11.5556V19.8815C16.3407 19.1259 20 14.9926 20 10Z" fill="#4676ED"/>
<path d="M13.8963 12.8889L14.3407 10H11.5556V8.11852C11.5556 7.33333 11.9407 6.56296 13.1852 6.56296H14.4444V4.1037C14.4444 4.1037 13.3037 3.91111 12.2074 3.91111C9.92593 3.91111 8.44445 5.28889 8.44445 7.79259V10H5.8963V12.8889H8.44445V19.8815C8.94815 19.9556 9.48149 20 10 20C10.5333 20 11.0519 19.9556 11.5556 19.8815V12.8889H13.8963Z" fill="white"/>
</svg>
