<svg width="21" height="18" viewBox="0 0 21 18" fill="none" xmlns="http://www.w3.org/2000/svg">
<path d="M20.0242 9.0953H16.4528M5.73847 0.761963C6.0542 0.761963 6.357 0.887388 6.58026 1.11065C6.80352 1.3339 6.92894 1.63671 6.92894 1.95244V4.33339C6.92894 4.64913 6.80352 4.95193 6.58026 5.17519C6.357 5.39844 6.0542 5.52387 5.73847 5.52387C5.42273 5.52387 5.11993 5.39844 4.89667 5.17519C4.67342 4.95193 4.54799 4.64913 4.54799 4.33339V1.95244C4.54799 1.63671 4.67342 1.3339 4.89667 1.11065C5.11993 0.887388 5.42273 0.761963 5.73847 0.761963V0.761963ZM20.0242 3.14292H6.92894H20.0242ZM4.54799 3.14292H0.976562H4.54799ZM5.73847 12.6667C6.0542 12.6667 6.357 12.7922 6.58026 13.0154C6.80352 13.2387 6.92894 13.5415 6.92894 13.8572V16.2382C6.92894 16.5539 6.80352 16.8567 6.58026 17.0799C6.357 17.3032 6.0542 17.4286 5.73847 17.4286C5.42273 17.4286 5.11993 17.3032 4.89667 17.0799C4.67342 16.8567 4.54799 16.5539 4.54799 16.2382V13.8572C4.54799 13.5415 4.67342 13.2387 4.89667 13.0154C5.11993 12.7922 5.42273 12.6667 5.73847 12.6667ZM20.0242 15.0477H6.92894H20.0242ZM4.54799 15.0477H0.976562H4.54799ZM15.2623 6.71434C15.578 6.71434 15.8808 6.83977 16.1041 7.06303C16.3273 7.28628 16.4528 7.58909 16.4528 7.90482V10.2858C16.4528 10.6015 16.3273 10.9043 16.1041 11.1276C15.8808 11.3508 15.578 11.4762 15.2623 11.4762C14.9465 11.4762 14.6437 11.3508 14.4205 11.1276C14.1972 10.9043 14.0718 10.6015 14.0718 10.2858V7.90482C14.0718 7.58909 14.1972 7.28628 14.4205 7.06303C14.6437 6.83977 14.9465 6.71434 15.2623 6.71434V6.71434ZM14.0718 9.0953H0.976562H14.0718Z" stroke="#C83138" stroke-linecap="round" stroke-linejoin="round"/>
</svg>
