<svg width="25" height="20" fill="none" xmlns="http://www.w3.org/2000/svg"><g clip-path="url(#clip0_717_709)" fill="#4A8FE0"><path d="M20.681 0H3.706a1.074 1.074 0 00-1.073 1.073v12.683a1.074 1.074 0 001.073 1.073h1.247a.293.293 0 000-.585H3.706a.488.488 0 01-.488-.488v-2.439h6.898l2.264 1.698a.293.293 0 00.468-.235v-1.463h1.37v2.927H6.433a.293.293 0 000 .585h3.526l-.573 2.146h-1.29a.683.683 0 00-.683.683v1.171a.683.683 0 00.683.683h8.195c.015 0 .03-.002.043-.004h3.245a1.07 1.07 0 001.07-1.07v-1.126a.223.223 0 000-.087v-2.4c.01.003.021.004.032.004h.07a.27.27 0 00.074-.01 1.074 1.074 0 00.93-1.063V1.073A1.074 1.074 0 0020.68 0zM3.218 1.073c0-.27.219-.488.488-.488h16.976a.487.487 0 01.487.488v9.659h-.52V9.268c0-.26-.097-.513-.27-.707a.288.288 0 00.01-.073V1.854a.487.487 0 00-.488-.488h-2.663a.293.293 0 000 .585h2.565v1.366H4.583V1.951h11.254a.293.293 0 000-.585H4.487a.488.488 0 00-.489.488v8.878h-.78V1.073zm11.577 9.995a.223.223 0 000-.087V9.268c0-.271.22-.492.492-.492h4.293c.272 0 .492.22.492.492v1.713a.22.22 0 000 .087v5.908h-5.277v-5.908zm-1.76-.336h-.48a.293.293 0 00-.292.292v1.171L10.39 10.79a.293.293 0 00-.176-.058H6.116a.098.098 0 01-.097-.098V5.171c0-.054.044-.098.097-.098h7.025a.098.098 0 01.097.098v5.463c0 .026-.01.05-.028.07a.098.098 0 01-.07.028h-.104zm.778 0a.664.664 0 00.01-.098V5.171a.683.683 0 00-.683-.683H6.116a.683.683 0 00-.683.683v5.463a.688.688 0 00.01.098h-.859v-6.83h15.22v4.321a1.073 1.073 0 00-.224-.024h-4.293a1.07 1.07 0 00-1.069 1.07v1.463h-.405zM8 18.829v-1.17c0-.054.043-.098.097-.098h5.63a.293.293 0 100-.585H9.993l.572-2.147h3.263l.39 1.326v1.07a.223.223 0 000 .087v1.127c0 .17.041.337.12.488H8.096A.097.097 0 018 18.829zm11.58.102h-3.244a.287.287 0 00-.044-.004h-1.047a.491.491 0 01-.45-.488v-.878h5.278v.878c0 .272-.22.492-.492.492zm1.102-4.687a.328.328 0 00-.032.003v-2.93h.52v2.44a.488.488 0 01-.488.487z"/><path d="M5.609 2.523a.421.421 0 00-.027-.051.405.405 0 00-.038-.045.302.302 0 00-.413 0 .419.419 0 00-.037.045.405.405 0 00-.028.05.455.455 0 00-.015.055.278.278 0 000 .113.494.494 0 00.015.055.279.279 0 00.064.096.293.293 0 00.479-.318zm.777 0a.24.24 0 00-.062-.096.293.293 0 00-.451.045.24.24 0 00-.025.05.273.273 0 000 .223.241.241 0 00.062.096.346.346 0 00.095.064.447.447 0 00.055.016.296.296 0 00.3-.125.241.241 0 00.026-.05.273.273 0 000-.223zm.781 0a.303.303 0 00-.11-.133.242.242 0 00-.05-.025.293.293 0 10.16.158zm9.683 7.233h1.365a.293.293 0 100-.585H16.85a.293.293 0 100 .585zm-.405 1.77a.177.177 0 00.028.05.17.17 0 00.035.045.292.292 0 10.414-.414.302.302 0 00-.414 0 .255.255 0 00-.035.045.18.18 0 00-.028.051.273.273 0 000 .223zm1.879-.274a.274.274 0 00-.037-.045.302.302 0 00-.414 0 .202.202 0 00-.035.045.185.185 0 00-.027.051.258.258 0 00-.024.111.292.292 0 10.537-.162zm-.006.866a.288.288 0 00-.368.176.586.586 0 01-1.105 0 .287.287 0 00-.37-.179.288.288 0 00-.174.372 1.161 1.161 0 002.192 0 .288.288 0 00-.175-.369zM8.52 7.367a.293.293 0 00.292-.293V6.83a.293.293 0 00-.585 0v.245c0 .162.13.293.292.293zm1.814 0a.293.293 0 00.292-.293V6.83a.292.292 0 10-.585 0v.245c0 .162.131.293.293.293zm.378.456h-2.45a.293.293 0 00-.293.293v.122a1.518 1.518 0 003.035 0v-.122a.293.293 0 00-.292-.293zM9.487 9.17a.934.934 0 01-.917-.763h1.834a.934.934 0 01-.917.763z"/></g><defs><clipPath id="clip0_717_709"><path fill="#fff" d="M0 0h24.39v20H0z"/></clipPath></defs></svg>