<svg width="19" height="16" fill="none" xmlns="http://www.w3.org/2000/svg"><path d="M9.452 15.839c-.248 0-.487-.091-.674-.256a203.782 203.782 0 00-1.98-1.724l-.003-.002c-1.755-1.513-3.27-2.82-4.325-4.107C1.29 8.312.742 6.947.742 5.457c0-1.448.491-2.784 1.382-3.761A4.66 4.66 0 015.608.16a4.35 4.35 0 012.737.956c.41.32.78.712 1.107 1.169a5.636 5.636 0 011.107-1.169A4.35 4.35 0 0113.295.16a4.66 4.66 0 013.485 1.535c.89.977 1.381 2.313 1.381 3.761 0 1.49-.548 2.855-1.727 4.293-1.054 1.287-2.57 2.594-4.324 4.107-.6.516-1.28 1.102-1.985 1.726a1.015 1.015 0 01-.673.256zM5.608 1.194a3.656 3.656 0 00-2.734 1.201c-.717.787-1.112 1.874-1.112 3.062 0 1.254.46 2.375 1.493 3.635.998 1.218 2.483 2.497 4.201 3.98l.004.002c.6.518 1.282 1.105 1.99 1.732.714-.628 1.396-1.216 1.998-1.735 1.718-1.482 3.202-2.761 4.2-3.98 1.033-1.26 1.493-2.38 1.493-3.634 0-1.188-.395-2.275-1.111-3.062a3.655 3.655 0 00-2.735-1.201 3.36 3.36 0 00-2.112.74c-.56.437-.95.99-1.178 1.378a.638.638 0 01-.553.318.638.638 0 01-.553-.318c-.229-.387-.618-.94-1.178-1.378a3.36 3.36 0 00-2.113-.74z" fill="#fff"/></svg>