<svg width="25" height="20" fill="none" xmlns="http://www.w3.org/2000/svg"><path d="M20.681 0H3.706a1.074 1.074 0 00-1.073 1.073v12.683a1.074 1.074 0 001.073 1.073h6.253l-.572 2.147h-1.29a.683.683 0 00-.684.683v1.17a.683.683 0 00.683.683h8.195a.683.683 0 00.683-.683v-1.17a.682.682 0 00-.683-.683h-1.29l-.573-2.147h6.254a1.076 1.076 0 001.073-1.073V1.073A1.073 1.073 0 0020.682 0zM3.706.585h16.976a.487.487 0 01.487.488v9.659h-.78V1.854a.482.482 0 00-.078-.262.293.293 0 00-.345-.22.474.474 0 00-.065-.006H8.32a.293.293 0 00-.293.293v.975a.683.683 0 11-1.366 0v-.683h.488a.293.293 0 000-.585H4.486c-.011 0-.022.003-.034.003a.269.269 0 00-.243.085.488.488 0 00-.21.4v2.94a.876.876 0 00-.46.767v5.17h-.32V1.074c0-.27.218-.488.487-.488zm4.907 1.366h1.365v.683a.683.683 0 11-1.365 0v-.683zm1.95 0h1.367v.683a.683.683 0 11-1.366 0v-.683zm1.952 0h1.366v.683a.683.683 0 11-1.366 0v-.683zm1.951 0h1.366v.683a.683.683 0 11-1.366 0v-.683zm1.951 0h1.366v.683a.683.683 0 11-1.366 0v-.683zm1.952 0h1.365v.683a.683.683 0 01-1.365 0v-.683zm-13.659 0h1.366v.683a.683.683 0 11-1.366 0v-.683zm9.685 15.025h-.27a.293.293 0 000 .585h2.167a.098.098 0 01.097.098v1.17a.097.097 0 01-.097.098H8.096A.097.097 0 018 18.829v-1.17c0-.054.044-.098.097-.098h4.46a.293.293 0 100-.585H9.993l.572-2.147h3.259l.571 2.147zm6.287-2.732H3.706a.488.488 0 01-.488-.488v-2.439h.322v.878a.878.878 0 00.878.878h1.18a.293.293 0 100-.585h-1.18a.293.293 0 01-.293-.293V5.561c0-.162.131-.293.293-.293h7.22c.16 0 .292.131.292.293v6.634a.293.293 0 01-.293.293H7.025a.293.293 0 100 .585h4.612a.88.88 0 00.878-.878v-.878h1.016a.293.293 0 100-.585h-1.016V5.56a.879.879 0 00-.878-.878H4.584V3.61a1.266 1.266 0 001.785-.167 1.267 1.267 0 001.95 0 1.267 1.267 0 001.952 0 1.267 1.267 0 001.951 0 1.266 1.266 0 001.952 0 1.266 1.266 0 001.95 0 1.266 1.266 0 001.952 0 1.263 1.263 0 001.728.21v7.079h-1.825a3.161 3.161 0 10-1.442.561.293.293 0 00.117.024h4.516v2.44a.488.488 0 01-.488.487zm-4.516-3.512a2.537 2.537 0 110-5.074 2.537 2.537 0 010 5.074z" fill="#4A8FE0"/><path d="M16.166 6.049a2.146 2.146 0 100 4.292 2.146 2.146 0 000-4.292zm0 3.707a1.561 1.561 0 110-3.122 1.561 1.561 0 010 3.122z" fill="#4A8FE0"/><path d="M16.653 8h-.292v-.683a.293.293 0 00-.586 0v.976c0 .161.131.292.293.292h.586a.293.293 0 100-.585z" fill="#4A8FE0"/></svg>