<svg width="23" height="21" fill="none" xmlns="http://www.w3.org/2000/svg"><path d="M19.183 7.81V2.416a.334.334 0 00-.334-.333h-1.905a.334.334 0 00-.334.333v2.817L11.48.094a.343.343 0 00-.471 0L.099 11.022a.334.334 0 000 .472l1.62 1.616a.334.334 0 00.358.074v6.677a.333.333 0 00.334.334h17.667c.184 0 .334-.15.334-.334v-6.677a.33.33 0 00.357-.074l1.62-1.616a.334.334 0 000-.472L19.183 7.81zm-1.906-5.06h1.239v4.392l-1.239-1.24V2.75zm-4.546 16.778H9.759v-4.825h2.972v4.825zm.667 0v-5.159a.333.333 0 00-.334-.333H9.426a.334.334 0 00-.334.333v5.159H2.744v-6.973l8.5-8.516 8.501 8.517v6.971h-6.348zm7.137-7.126L11.48 3.331a.333.333 0 00-.472 0l-8.834 8.851-.22.22-1.147-1.144L11.244.802l10.437 10.456-1.146 1.144z" fill="#0D4689"/><path d="M7.476 14.035H4.488a.334.334 0 00-.334.334v2.988c0 .184.15.333.334.333h2.988a.333.333 0 00.333-.333v-2.988a.333.333 0 00-.333-.334zm-.334 2.988h-2.32v-2.32h2.32v2.32zM18 14.035h-2.99a.333.333 0 00-.333.334v2.988c0 .184.149.333.333.333H18a.334.334 0 00.334-.333v-2.988a.334.334 0 00-.334-.334zm-.334 2.988h-2.321v-2.32h2.321v2.32zM11.245 6.927a2.153 2.153 0 100 4.306 2.153 2.153 0 000-4.306zm0 3.638a1.487 1.487 0 110-2.973 1.487 1.487 0 010 2.973z" fill="#0D4689"/></svg>