<svg width="70" height="70" fill="none" xmlns="http://www.w3.org/2000/svg"><g clip-path="url(#clip0_844_3379)"><path d="M64.082 49.028H6.5c-.426 0-.859.022-1.284 0-.132-.007-.307-.018-.384-.145.009.014-.002.006-.013-.065-.044-.253 0-.553 0-.81V17.477c0-.296-.012-.34.366-.375.086-.008.177 0 .263 0h58.21c.131 0 .265-.007.397 0 .121.007.336.044.392.136-.014-.022-.003.052.001.085.032.277 0 .578 0 .857v30.466c0 .064.02.167 0 .228-.023.068-.218.146-.366.154-.78.043-.77 1.693 0 1.651 1.025-.055 1.513-.968 1.521-1.903.003-.305 0-.61 0-.915V19.844c0-.839.009-1.679 0-2.517-.01-.923-.512-1.827-1.522-1.876-.091-.005-.184 0-.275 0H5.419c-.15 0-.29-.002-.437.022-.927.147-1.315 1.047-1.32 1.893-.005.872 0 1.744 0 2.616V47.98c0 .279-.003.559 0 .838.012.92.522 1.812 1.524 1.861 1.286.064 2.592 0 3.879 0h55.018c.774 0 .776-1.651-.001-1.651z" fill="#4A8FE0"/><path d="M67.817 52.763H2.148c-.185 0-.37.003-.556 0-.071 0-.137.002-.208-.019-.182-.053-.197-.06-.222-.166-.059-.25 0-.587 0-.841V13.554c0-.321-.042-.386.367-.424.107-.01.22 0 .326 0h64.259c.548 0 1.102-.022 1.649 0a.82.82 0 01.318.07c.15.066.08.018.101.122.053.262 0 .593 0 .86v38.155c0 .313.044.403-.365.425-.78.042-.77 1.693 0 1.651 1.048-.056 1.522-1.002 1.522-1.946V14.195c0-.29.004-.582 0-.872-.014-.919-.539-1.803-1.534-1.844-.47-.019-.946 0-1.417 0H1.814c-.164 0-.323-.004-.487.022-.952.151-1.32 1.082-1.32 1.943v36.594c0 .847-.015 1.695 0 2.542.014.919.547 1.794 1.539 1.832.148.006.296 0 .444 0h65.828c.775.001.777-1.65 0-1.65z" fill="#4A8FE0"/><path d="M26.879 54.036l.02 8.366c.001.336.178.819.578.826.4.007.58-.506.578-.826l-.02-8.366c0-.336-.178-.819-.578-.826-.4-.007-.579.506-.578.826zm14.363.361c-.105 2.71.097 5.441.196 8.15.012.335.17.819.578.826.391.007.59-.506.578-.826-.1-2.71-.3-5.44-.196-8.15.014-.335-.187-.819-.578-.826-.41-.007-.565.506-.578.826z" fill="#4A8FE0"/><path d="M53.19 68.333H16.654c-.194 0-.404.025-.567-.1-.094-.073-.042.01-.064-.063-.027-.09 0-.233 0-.326v-3.861c0-.224.078-.264.366-.29.029-.002.059 0 .088 0 .22-.003.44 0 .66 0h34.286c.57 0 1.147-.024 1.717 0 .456.02.416.136.416.513v3.836c0 .218-.07.275-.366.29-.78.043-.77 1.694 0 1.652.922-.05 1.482-.84 1.518-1.718.01-.227.003-.455.003-.681v-2.9c0-.948.05-2.13-1.024-2.547-.26-.1-.51-.096-.777-.096H22.467c-1.997 0-3.997-.028-5.994 0-.983.013-1.578.832-1.605 1.77-.02.68 0 1.364 0 2.044 0 .78-.024 1.563 0 2.342.028.924.594 1.769 1.578 1.786 1.946.034 3.896 0 5.842 0H53.19c.774 0 .776-1.651-.001-1.651z" fill="#4A8FE0"/><path d="M59.44 32.28H26.966a2.092 2.092 0 01-2.086-2.087V9.674c0-1.147.939-2.086 2.086-2.086h32.472c1.148 0 2.087.939 2.087 2.086v20.52a2.092 2.092 0 01-2.087 2.085z" fill="#fff"/><path d="M59.44 31.453H29.296c-.832 0-1.716.088-2.545-.011-.648-.078-1.26-.593-1.289-1.252-.005-.106 0-.212 0-.317V13.24c0-1.184-.053-2.383 0-3.567.066-1.477 1.908-1.26 2.938-1.26h27.538c1.124 0 2.249-.004 3.373 0 .766.002 1.603.426 1.639 1.266.016.37 0 .743 0 1.111v19.154c0 .082.004.166 0 .249-.034.763-.786 1.241-1.508 1.26-.778.02-.775 1.672 0 1.652 1.634-.043 2.655-1.465 2.664-3.011.003-.528 0-1.056 0-1.584V13.678c0-1.33.027-2.664 0-3.994-.03-1.53-1.096-2.894-2.694-2.921-.312-.006-.625 0-.937 0H27.13c-1.15 0-2.146.629-2.59 1.71-.255.619-.235 1.254-.235 1.904V29.84c0 1.04.25 2.084 1.135 2.742.572.425 1.21.523 1.89.523h32.112c.774-.001.776-1.653-.001-1.653z" fill="#4A8FE0"/><path d="M28.314 17.977c-.076-.708-.206-2.16.766-2.304.406-.061.853-.027 1.263-.039a6619.071 6619.071 0 012.738-.078c.368-.01.989-.145 1.325.044.382.214.381.872.386 1.249.01.756-.11 1.504-.083 2.261.04 1.095-1.836.881-2.525.872-.486-.006-.973-.018-1.46-.02-.414 0-.853.049-1.255-.07-.845-.252-1.063-1.145-1.155-1.915-.027-.222-.233-.47-.474-.385-.263.092-.296.45-.27.677.104.875.373 1.824 1.112 2.38.76.572 1.799.41 2.692.424 1.235.016 3.433.365 3.996-1.14.156-.42.092-.837.096-1.27.006-.524.082-1.043.095-1.566.016-.683-.033-1.455-.401-2.051-.536-.867-1.685-.602-2.547-.577-1.144.032-2.3.02-3.443.097-1.768.119-1.737 2.409-1.599 3.703.024.223.236.468.475.385.264-.093.292-.45.268-.677zm2.603 6.87c-.592-.563-1.744-.583-2.242.098-.505.691-.523 1.757.074 2.397.533.572 1.527.65 2.1.083.583-.577.662-1.855.147-2.492-.426-.527-.859.39-.545.779.201.248.117.746-.167.898-.33.178-.801.143-1.064-.136-.233-.247-.174-.689.128-.869.313-.188.928-.048 1.18.192.197.186.442-.003.528-.197a.692.692 0 00-.139-.753zm5.348 0c-.592-.563-1.744-.583-2.242.098-.505.691-.523 1.757.074 2.397.532.572 1.526.65 2.1.083.583-.577.661-1.855.146-2.492-.426-.527-.858.39-.545.779.202.248.118.746-.166.898-.331.178-.801.143-1.064-.136-.234-.247-.174-.689.127-.869.314-.188.929-.048 1.181.192.196.186.442-.003.527-.197a.692.692 0 00-.138-.753zm5.189 0c-.592-.563-1.744-.583-2.242.098-.505.691-.523 1.757.074 2.397.533.572 1.526.65 2.1.083.583-.577.662-1.855.147-2.492-.426-.527-.859.39-.545.779.201.248.117.746-.167.898-.33.178-.801.143-1.064-.136-.233-.247-.173-.689.128-.869.313-.188.928-.048 1.18.192.197.186.442-.003.528-.197a.692.692 0 00-.139-.753zm5.426 0c-.592-.563-1.744-.583-2.242.098-.505.691-.523 1.757.074 2.397.532.572 1.526.65 2.1.083.583-.577.662-1.855.147-2.492-.427-.527-.859.39-.545.779.201.248.117.746-.167.898-.331.178-.801.143-1.064-.136-.233-.247-.174-.689.127-.869.314-.188.93-.048 1.182.192.195.186.44-.003.526-.197a.692.692 0 00-.138-.753zm5.426 0c-.592-.563-1.744-.583-2.242.098-.505.691-.523 1.757.074 2.397.532.572 1.526.65 2.1.083.583-.577.662-1.855.146-2.492-.426-.527-.858.39-.544.779.2.248.117.746-.167.898-.331.178-.802.143-1.064-.136-.234-.247-.174-.689.127-.869.314-.188.929-.048 1.181.192.196.186.441-.003.527-.197a.692.692 0 00-.138-.753zm5.111 0c-.592-.563-1.744-.583-2.242.098-.505.691-.523 1.757.074 2.397.532.572 1.526.65 2.1.083.583-.577.662-1.855.147-2.492-.426-.527-.859.39-.545.779.201.248.117.746-.167.898-.33.178-.801.143-1.064-.136-.233-.247-.174-.689.128-.869.313-.188.928-.048 1.18.192.197.186.442-.003.528-.197a.692.692 0 00-.139-.753z" fill="#4A8FE0"/><path d="M52.224 6.088c-.933-.105-1.59.96-2.508 1.163-.381.085-.783.012-1.167.08-.346.06-.663.227-.978.383-1.098.54-2.261.944-3.457 1.2-.638.136-1.304.238-1.854.589-.55.35-.951 1.04-.738 1.656.09.262.277.478.479.668.351.333.759.607 1.198.807 1.602.73 3.462.442 5.196.14.693-.122 1.386-.242 2.08-.363.56-.098 1.033-.315 1.567-.164.598.168 1.2.668 1.8.898 1.31.5 2.714.744 4.114.762 2.228.028 4.439-.499 6.51-1.32l-.487-7.48c-.982.115-1.96-.19-2.903-.489-2.016-.641-4.062-1.297-5.814-2.482-.291-.197-.58-.412-.917-.511-.414-.123-.857-.061-1.288-.099-.97-.085-1.825-.668-2.775-.884-1.044-.238-2.15-.015-3.128.42-.978.436-1.85 1.075-2.713 1.71-1.62 1.19-4.284 2.465-5.68 3.913" fill="#fff"/><path d="M52.225 5.538c-1.033-.072-1.596.91-2.512 1.157-.33.09-.681.03-1.018.065a2.773 2.773 0 00-.869.249c-.593.27-1.17.56-1.782.785-.618.228-1.252.415-1.894.559-.594.133-1.216.214-1.765.491-1.029.518-1.678 1.783-1.066 2.862.58 1.022 1.868 1.616 2.976 1.823 1.25.234 2.525.062 3.765-.148.682-.115 1.363-.236 2.044-.355.588-.102 1.306-.401 1.896-.23.605.174 1.103.614 1.68.854.62.257 1.283.43 1.94.56 3.022.596 6.115.02 8.95-1.094.189-.075.295-.34.282-.531l-.426-6.55-.06-.928c-.013-.198-.11-.577-.386-.55-1.064.1-2.064-.235-3.063-.554a43.113 43.113 0 01-2.615-.903c-.904-.355-1.796-.764-2.615-1.289-.361-.232-.709-.521-1.115-.675-.466-.177-.955-.123-1.441-.157-.926-.064-1.732-.607-2.616-.837-.91-.237-1.849-.16-2.742.117-1.733.538-3.087 1.803-4.593 2.755-1.568.99-3.3 1.858-4.61 3.195a.702.702 0 00-.14.753c.081.19.336.394.528.198 1.14-1.163 2.614-1.966 3.991-2.81a30.658 30.658 0 002.027-1.352c.76-.553 1.539-1.095 2.41-1.46.871-.367 1.856-.57 2.794-.365.87.188 1.639.68 2.514.849.456.088.917.024 1.372.095.472.074.843.395 1.233.646.764.49 1.577.897 2.415 1.244.98.406 1.988.736 2.998 1.058 1.058.338 2.142.7 3.268.593l-.385-.55.426 6.549.06.929.284-.531c-2.311.909-4.783 1.46-7.276 1.26-1.193-.096-2.496-.33-3.563-.9-.506-.27-.986-.635-1.563-.74-.553-.1-1.095.116-1.635.211-1.203.213-2.409.46-3.625.59-1.145.123-2.333.113-3.4-.372-.481-.22-1.044-.57-1.344-1.021-.286-.431.152-.897.517-1.116.464-.28 1.028-.373 1.55-.481a14.927 14.927 0 003.587-1.21c.293-.143.59-.314.912-.386.344-.078.703-.017 1.05-.062.506-.065.922-.326 1.331-.616.404-.286.799-.608 1.32-.572.508.034.52-1.066-.001-1.102z" fill="#4A8FE0"/><path d="M47.976 5.63c-.09.438-.178.878-.267 1.317-.046.23.02.585.269.677.254.094.43-.172.474-.385l.267-1.317c.046-.23-.02-.585-.27-.677-.253-.094-.43.172-.473.385z" fill="#4A8FE0"/><path d="M64.585 13.738a.668.668 0 00.158.389c.124.132.313.177.49.215.656.144 1.35.285 1.985.065.438-.153.856-.374 1.278-.566a.448.448 0 00.167-.108c.055-.065.068-.154.079-.239.349-2.801-.348-5.614.027-8.41.033-.248.071-.52-.058-.734-.096-.159-.266-.255-.437-.327-.77-.322-1.666-.303-2.486-.3-.374.002-.78.034-1.06.28-.372.323-.391.883-.383 1.375.047 2.713.134 5.42.226 8.132 0 .074.005.152.014.228z" fill="#fff"/><path d="M64.214 13.884c.074.427.28.786.704.934.448.157.985.236 1.46.251.496.016.944-.115 1.396-.314.39-.172 1.009-.345 1.222-.745.215-.404.185-.967.21-1.417.03-.576.026-1.152.006-1.728-.038-1.078-.132-2.153-.163-3.23a18.778 18.778 0 01.014-1.577c.03-.523.192-1.1.099-1.624-.173-.968-1.288-1.164-2.113-1.233-.758-.063-1.888-.202-2.517.327-.733.616-.576 1.789-.56 2.633.026 1.25.059 2.502.096 3.753.038 1.269.016 2.56.132 3.825.02.222.104.545.385.55.253.005.405-.337.386-.55-.08-.877-.068-1.772-.097-2.653-.029-.912-.055-1.823-.08-2.735-.023-.887-.044-1.773-.06-2.66-.005-.314-.065-.712.058-1.013.136-.333.503-.386.826-.4.753-.032 1.581-.046 2.306.186.124.039.36.09.447.2.09.111.024.283.008.424-.053.447-.088.896-.102 1.346-.053 1.756.18 3.504.18 5.26 0 .476-.014.954-.061 1.428-.028.28.012.182-.255.308-.212.1-.422.202-.636.294-.47.202-.903.28-1.416.224-.248-.026-1.083-.067-1.133-.355-.037-.22-.225-.472-.474-.384-.253.087-.306.452-.268.675zM37.685 7.88a31.342 31.342 0 012.491-.06c.516.007.52-1.094 0-1.101a30.864 30.864 0 00-2.49.06c-.52.033-.512 1.134 0 1.1zM7.473 37.898a33.49 33.49 0 00-.202 6.832c.042.574-.014 1.43.477 1.844.242.204.543.215.845.232.387.023.775.04 1.162.058a120.15 120.15 0 007.057.113c.517-.006.517-1.107 0-1.1-2.765.035-5.536-.008-8.296-.176-.338-.02-.388-.042-.423-.363-.04-.352-.06-.71-.08-1.063a32.722 32.722 0 01.204-6.084c.03-.235-.01-.58-.269-.677-.244-.092-.447.169-.475.384z" fill="#4A8FE0"/><path d="M9.99 39.238c.011 1.31-.245 2.683.061 3.978.085.36.254.708.593.887.367.194.842.15 1.244.163 1.062.031 2.123.05 3.186.055.516.002.519-1.099 0-1.101a134.56 134.56 0 01-2.642-.04c-.416-.01-.844.003-1.258-.041-.411-.043-.41-.293-.443-.649-.103-1.088.038-2.162.028-3.251-.002-.224-.117-.546-.385-.55-.265-.006-.387.336-.385.549z" fill="#4A8FE0"/></g><defs><clipPath id="clip0_844_3379"><path fill="#fff" d="M0 0h69.34v70H0z"/></clipPath></defs></svg>