<svg width="31" height="30" fill="none" xmlns="http://www.w3.org/2000/svg"><path d="M15 30C6.716 30 0 23.284 0 15 0 6.716 6.716 0 15 0c8.292 0 15.008 6.716 15.008 15 0 8.284-6.716 15-15.008 15z" fill="#fff"/><path d="M15 29.75C6.854 29.75.25 23.146.25 15S6.854.25 15 .25C23.154.25 29.758 6.854 29.758 15S23.154 29.75 15 29.75z" stroke="#4A8FE0" stroke-opacity=".26" stroke-width=".5"/><path d="M15 8.26c2.2 0 2.46.009 3.327.048.804.04 1.237.173 1.529.284.386.15.654.33.946.615.291.291.465.56.615.945.11.292.244.726.284 1.53.039.867.047 1.127.047 3.326 0 2.2-.008 2.46-.047 3.326-.04.804-.174 1.238-.284 1.53a2.62 2.62 0 01-.615.945c-.292.284-.56.465-.946.615-.292.11-.725.245-1.53.284-.866.04-1.126.047-3.325.047-2.2 0-2.46-.008-3.327-.047-.804-.04-1.237-.173-1.529-.284a2.62 2.62 0 01-.946-.615 2.52 2.52 0 01-.615-.946c-.11-.291-.244-.725-.283-1.529-.04-.867-.048-1.127-.048-3.326 0-2.2.008-2.46.048-3.326.039-.804.173-1.238.283-1.53a2.62 2.62 0 01.615-.945 2.52 2.52 0 01.946-.615c.292-.11.725-.245 1.53-.284.874-.04 1.134-.047 3.325-.047zm0-1.481c-2.23 0-2.514.008-3.389.047-.875.04-1.474.181-1.994.386a4.038 4.038 0 00-1.458.946 3.945 3.945 0 00-.946 1.458c-.205.52-.34 1.12-.386 1.995-.04.875-.048 1.158-.048 3.389 0 2.23.008 2.515.048 3.39.039.874.18 1.473.386 1.994.213.543.489 1 .946 1.458.457.457.914.74 1.458.946.52.205 1.12.339 1.994.386.875.04 1.159.047 3.39.047 2.23 0 2.514-.008 3.389-.047.875-.04 1.474-.181 1.994-.386a4.039 4.039 0 001.458-.946c.457-.457.741-.915.946-1.458.205-.52.34-1.12.386-1.995.04-.874.048-1.158.048-3.389 0-2.23-.008-2.514-.048-3.39-.039-.874-.18-1.473-.386-1.994a4.038 4.038 0 00-.946-1.458 3.937 3.937 0 00-1.458-.946c-.52-.205-1.12-.339-1.994-.386-.875-.04-1.15-.047-3.39-.047z" fill="#4A8FE0"/><path d="M15 10.775a4.225 4.225 0 100 8.45 4.225 4.225 0 000-8.45zm0 6.968A2.745 2.745 0 0112.257 15 2.745 2.745 0 0115 12.257 2.745 2.745 0 0117.743 15 2.74 2.74 0 0115 17.743zm5.385-7.133a.986.986 0 11-1.972 0 .986.986 0 011.972 0z" fill="#4A8FE0"/></svg>