<svg width="36" height="36" viewBox="0 0 36 36" fill="none" xmlns="http://www.w3.org/2000/svg">
<circle cx="18" cy="18" r="18" fill="#E1EBF9" fill-opacity="0.3"/>
<path d="M18 13.9941C15.7832 13.9941 13.9941 15.7832 13.9941 18C13.9941 20.2168 15.7832 22.0059 18 22.0059C20.2168 22.0059 22.0058 20.2168 22.0058 18C22.0058 15.7832 20.2168 13.9941 18 13.9941ZM18 20.6035C16.5664 20.6035 15.3965 19.4336 15.3965 18C15.3965 16.5664 16.5664 15.3965 18 15.3965C19.4336 15.3965 20.6035 16.5664 20.6035 18C20.6035 19.4336 19.4336 20.6035 18 20.6035ZM22.1699 12.8965C21.6523 12.8965 21.2343 13.3145 21.2343 13.832C21.2343 14.3496 21.6523 14.7676 22.1699 14.7676C22.6875 14.7676 23.1054 14.3516 23.1054 13.832C23.1056 13.7091 23.0815 13.5874 23.0345 13.4738C22.9876 13.3603 22.9187 13.2571 22.8318 13.1702C22.7449 13.0833 22.6417 13.0143 22.5281 12.9674C22.4145 12.9204 22.2928 12.8963 22.1699 12.8965ZM25.8086 18C25.8086 16.9219 25.8183 15.8535 25.7578 14.7773C25.6972 13.5273 25.4121 12.418 24.498 11.5039C23.582 10.5879 22.4746 10.3047 21.2246 10.2441C20.1465 10.1836 19.0781 10.1934 18.0019 10.1934C16.9238 10.1934 15.8554 10.1836 14.7793 10.2441C13.5293 10.3047 12.4199 10.5898 11.5058 11.5039C10.5898 12.4199 10.3066 13.5273 10.2461 14.7773C10.1855 15.8555 10.1953 16.9238 10.1953 18C10.1953 19.0762 10.1855 20.1465 10.2461 21.2227C10.3066 22.4727 10.5918 23.582 11.5058 24.4961C12.4218 25.4121 13.5293 25.6953 14.7793 25.7559C15.8574 25.8164 16.9258 25.8066 18.0019 25.8066C19.08 25.8066 20.1484 25.8164 21.2246 25.7559C22.4746 25.6953 23.584 25.4102 24.498 24.4961C25.414 23.5801 25.6972 22.4727 25.7578 21.2227C25.8203 20.1465 25.8086 19.0781 25.8086 18ZM24.0898 22.6055C23.9472 22.9609 23.7754 23.2266 23.5 23.5C23.2246 23.7754 22.9609 23.9473 22.6054 24.0898C21.5781 24.498 19.1386 24.4063 18 24.4063C16.8613 24.4063 14.4199 24.498 13.3925 24.0918C13.0371 23.9492 12.7715 23.7773 12.498 23.502C12.2226 23.2266 12.0508 22.9629 11.9082 22.6074C11.5019 21.5781 11.5937 19.1387 11.5937 18C11.5937 16.8613 11.5019 14.4199 11.9082 13.3926C12.0508 13.0371 12.2226 12.7715 12.498 12.498C12.7734 12.2246 13.0371 12.0508 13.3925 11.9082C14.4199 11.502 16.8613 11.5938 18 11.5938C19.1386 11.5938 21.58 11.502 22.6074 11.9082C22.9629 12.0508 23.2285 12.2227 23.5019 12.498C23.7773 12.7734 23.9492 13.0371 24.0918 13.3926C24.498 14.4199 24.4062 16.8613 24.4062 18C24.4062 19.1387 24.498 21.5781 24.0898 22.6055Z" fill="white"/>
</svg>
