<svg width="20" height="30" fill="none" xmlns="http://www.w3.org/2000/svg"><ellipse cx="9.5" cy="28.5" rx="5.5" ry="1.5" fill="#8CBEFA" fill-opacity=".72"/><path fill-rule="evenodd" clip-rule="evenodd" d="M16.555 17.464c1.582-1.854 2.55-4.339 2.55-7.069C19.104 4.654 14.827 0 9.551 0 4.277 0 0 4.654 0 10.395c0 2.721.961 5.199 2.534 7.052h-.005l7.023 11.772 7.003-11.755z" fill="#274784"/><path d="M13.904 6.089l-.01.004-2.142.865a.155.155 0 01-.057.01L7.444 6.89a.148.148 0 01-.056-.01L5.28 5.932a.142.142 0 01.005-.261l2.143-.865a.155.155 0 01.056-.01l4.252.078a.13.13 0 01.056.013l2.11.946a.142.142 0 01.082.131.141.141 0 01-.08.124zm-2.23.595l1.807-.73-1.779-.799-4.193-.078-1.808.73 1.779.798 4.194.079zM9.48 15.25a.141.141 0 01-.19-.068L6.452 8.924a.141.141 0 01.13-.2l5.904.11a.14.14 0 01.118.07.14.14 0 01.006.137l-3.068 6.148a.141.141 0 01-.064.062zM6.802 9.01l2.62 5.785 2.836-5.682-5.456-.103z" fill="#FFFEFE" fill-opacity=".8"/><path d="M12.548 9.102a.134.134 0 01-.064.014l-5.904-.11a.14.14 0 01-.116-.065.145.145 0 01-.012-.132l.865-2.116a.141.141 0 01.133-.088l4.252.078a.14.14 0 01.13.094l.786 2.147a.146.146 0 01-.07.178zM6.79 8.726l5.49.104-.682-1.862-4.058-.076-.75 1.834z" fill="#FFFEFE" fill-opacity=".8"/><path d="M12.548 9.102a.14.14 0 01-.113.005.147.147 0 01-.083-.084l-.786-2.147a.14.14 0 01.08-.178l2.142-.865a.143.143 0 01.167.047l1.199 1.625a.145.145 0 01.023.115.14.14 0 01-.07.094L12.55 9.1l-.003.002zm-.668-2.195l.682 1.866 2.269-1.231-1.037-1.407-1.914.772z" fill="#FFFEFE" fill-opacity=".8"/><path d="M9.48 15.25a.142.142 0 01-.188-.19l3.068-6.148a.149.149 0 01.058-.061l2.556-1.386a.14.14 0 01.174.031.14.14 0 01.006.178L9.532 15.21a.17.17 0 01-.052.04zm3.112-6.172l-2.34 4.692 4.291-5.75-1.95 1.058zm-5.948-.087a.071.071 0 01-.017.007.139.139 0 01-.117-.012L4.008 7.504a.144.144 0 01-.068-.096.136.136 0 01.03-.114l1.257-1.579a.14.14 0 01.168-.04l2.11.945a.142.142 0 01.073.183l-.865 2.116a.141.141 0 01-.069.072zM4.292 7.344l2.22 1.315.753-1.84-1.884-.844-1.089 1.369z" fill="#FFFEFE" fill-opacity=".8"/><path d="M9.478 15.251a.142.142 0 01-.178-.047L3.962 7.463a.142.142 0 01.19-.202l2.501 1.482a.153.153 0 01.057.063l2.836 6.259a.142.142 0 01-.058.181l-.01.005zM4.563 7.833l4.073 5.906-2.164-4.777-1.91-1.129z" fill="#FFFEFE" fill-opacity=".8"/></svg>