<svg width="163" height="60" fill="none" xmlns="http://www.w3.org/2000/svg"><g clip-path="url(#clip0_859_6925)" fill="#234D9C"><path d="M23.896 21.8s-15.39 8.897-12.65 20.649C14.45 56.182 53.197 60 53.197 60s-28.31-6.917-32.443-20.751c-3.203-10.325 3.143-17.45 3.143-17.45z"/><path d="M5.04 0s18.184 5.265 23.504 14.455c3.979 5.987-2.015 13.008-2.015 13.008s12.399-6.504 10.124-13.733C34.381 6.504 15.06 1.135 5.04 0z"/><path d="M28.389 58.42c-15.055 0-27.304-12.24-27.304-27.283 0-11.171 6.757-20.795 16.403-25.008a58.75 58.75 0 00-1.208-.64C6.668 10.04 0 19.825 0 31.138c0 15.641 12.734 28.368 28.389 28.368a28.33 28.33 0 008.592-1.328 113.08 113.08 0 01-2.145-.528c-2.07.5-4.228.771-6.447.771zm.001-54.563c15.054 0 27.303 12.24 27.303 27.283 0 10.288-5.732 19.26-14.17 23.906.427.182.85.356 1.268.526 8.364-4.942 13.985-14.042 13.985-24.435 0-15.64-12.734-28.367-28.389-28.367-1.91 0-3.775.193-5.578.555.693.246 1.375.5 2.05.763a27.407 27.407 0 013.53-.231zm48.431 6.446v18.208h-1.518V11.629h-5.799l-.218 6.928c-.112 3.71-.456 6.296-1.034 7.76-.579 1.463-1.638 2.194-3.181 2.194h-.475v-1.3h.41c.987 0 1.671-.591 2.053-1.775.381-1.184.623-3.476.727-6.877l.269-8.253h8.766v-.002zM91.122 21.97c0 2.244-.496 3.938-1.486 5.084-.99 1.146-2.367 1.72-4.133 1.72-1.731 0-3.08-.576-4.044-1.727-.964-1.15-1.447-2.842-1.447-5.076v-5.102c0-2.235.48-3.93 1.447-5.09.965-1.158 2.313-1.738 4.044-1.738 1.757 0 3.133.582 4.127 1.745.994 1.163 1.492 2.857 1.492 5.083v5.102zm-1.517-5.137c0-1.826-.35-3.188-1.05-4.083-.699-.896-1.716-1.345-3.054-1.345-1.295 0-2.278.449-2.95 1.345-.674.895-1.009 2.257-1.009 4.083v5.14c0 1.843.337 3.213 1.009 4.115.674.9 1.657 1.351 2.95 1.351 1.338 0 2.355-.449 3.054-1.345.7-.895 1.05-2.27 1.05-4.121v-5.14zm6.605-6.53l4.886 15.995h.05l4.886-15.994h1.954V28.51h-1.505v-7.99l.155-7.466-.038-.013-4.977 15.469h-1.002l-4.964-15.47-.038.014.154 7.465v7.991H94.28V10.304h1.931zm24.078 1.327h-7.367v6.577h3.639c1.585 0 2.794.458 3.627 1.37.83.914 1.248 2.167 1.248 3.758 0 1.601-.418 2.863-1.255 3.789-.835.925-2.043 1.387-3.62 1.387h-5.169V10.304h8.897v1.325zm-7.367 7.89v7.69h3.639c1.149 0 1.995-.36 2.539-1.082.545-.722.816-1.66.816-2.82 0-1.108-.273-2.019-.822-2.726-.549-.708-1.393-1.064-2.533-1.064h-3.639v.003zm19.463 3.876h-6.364l-1.518 5.115h-1.568l5.618-18.207h1.363l5.543 18.207h-1.569l-1.505-5.115zm-5.966-1.313h5.581l-2.764-9.354h-.038l-2.779 9.354zm12.977-1.112v7.542h-1.518v-18.21h5.271c1.577 0 2.783.48 3.62 1.438.835.96 1.253 2.256 1.253 3.889 0 1.652-.418 2.954-1.253 3.908-.835.955-2.043 1.431-3.62 1.431h-3.753v.002zm0-1.313h3.753c1.14 0 1.984-.375 2.533-1.124.549-.75.822-1.71.822-2.876 0-1.184-.271-2.152-.816-2.902-.544-.75-1.39-1.125-2.539-1.125h-3.753v8.027zm22.688 10.458h-1.517v-1.605h-10.892v1.605h-1.518v-2.905h1.094c.532-.659 1.047-1.8 1.549-3.427.503-1.627.795-3.922.882-6.89l.282-6.59h8.385V27.21h1.735v2.905zm-8.872-13.222c-.095 2.428-.356 4.51-.784 6.246-.428 1.739-.96 3.094-1.594 4.07h7.984V11.63h-5.387l-.219 5.264zM77.61 54.688h-3.718V39.331h-5.59v15.357h-3.73V36.481H77.61v18.207zM95.617 50.8h-4.814l-.95 3.888h-3.757l5.2-18.207h3.865l5.176 18.207h-3.743l-.977-3.888zm-4.119-2.838h3.423l-1.697-6.854h-.04l-1.686 6.854zm21.035.198v6.528h-3.73V36.481h6.498c1.88 0 3.353.53 4.419 1.588 1.066 1.06 1.598 2.476 1.598 4.253 0 1.783-.532 3.204-1.598 4.257-1.066 1.055-2.539 1.582-4.419 1.582h-2.768zm0-2.85h2.768c.757 0 1.329-.275 1.713-.826.383-.55.574-1.262.574-2.139 0-.892-.193-1.618-.574-2.175-.384-.559-.954-.839-1.713-.839h-2.768v5.98zm23.117-.563l.027.087h.041l2.566-8.353h3.904l-5.135 14.668c-.517 1.243-1.085 2.186-1.704 2.832-.619.646-1.522.97-2.709.97a10.8 10.8 0 01-.608-.02l-.568-.03-.04-2.839c.072.026.192.04.368.044.174.005.323.007.448.007.561 0 .966-.144 1.216-.432.25-.288.454-.748.615-1.381l.174-.612h-.028l-5.403-13.205h3.985l2.851 8.264zm26.439 4.278c-.008 1.993-.54 3.48-1.591 4.458-1.052.98-2.578 1.47-4.574 1.47-1.952 0-3.453-.561-4.5-1.682-1.047-1.12-1.57-2.774-1.57-4.958v-5.44c0-2.159.536-3.808 1.61-4.946 1.075-1.137 2.561-1.707 4.46-1.707 2.032 0 3.554.494 4.567 1.483 1.011.987 1.55 2.503 1.611 4.545h-3.73c.044-1.15-.115-1.968-.475-2.45-.36-.483-1.019-.727-1.973-.727-.812 0-1.408.303-1.785.906-.379.606-.568 1.561-.568 2.87v5.464c0 1.352.178 2.322.534 2.914.356.593.962.888 1.819.888.892 0 1.53-.23 1.918-.695.388-.464.559-1.26.515-2.395h3.732v.002z"/></g><defs><clipPath id="clip0_859_6925"><path fill="#fff" d="M0 0h162.105v60H0z"/></clipPath></defs></svg>