<svg width="25" height="25" fill="none" xmlns="http://www.w3.org/2000/svg"><g clip-path="url(#clip0_703_2263)"><path d="M21.296 13.594c.033-.341.053-.687.053-1.031 0-5.39-3.97-9.773-8.85-9.773-4.879 0-8.848 4.384-8.848 9.773 0 .344.02.69.052 1.03a2.12 2.12 0 00-.795 1.654v3.722c0 1.17.952 2.122 2.123 2.122h1.027v.842c0 .153.124.278.277.278h2.7a.278.278 0 00.278-.278v-9.65a.278.278 0 00-.277-.278h-2.7a.278.278 0 00-.278.278v.842H5.7a8.832 8.832 0 01-.02-.562c0-4.27 3.059-7.745 6.82-7.745 3.76 0 6.82 3.474 6.82 7.745 0 .187-.008.375-.02.562h-.358v-.842a.278.278 0 00-.278-.278h-2.7a.278.278 0 00-.278.278v9.65c0 .153.124.278.278.278h2.7a.278.278 0 00.278-.278v-.842h1.026c1.17 0 2.123-.952 2.123-2.122v-3.722c0-.668-.31-1.264-.795-1.653zM6.613 12.56h2.145v9.094H6.613V12.56zm11.773 9.094h-2.145V12.56h2.145v9.094zM6.058 13.68v6.856H5.03a1.569 1.569 0 01-1.567-1.567v-3.722c0-.864.703-1.567 1.567-1.567h1.027zM12.5 4.262c-4.067 0-7.376 3.724-7.376 8.3 0 .186.007.374.019.563H5.03c-.282 0-.55.056-.797.156a10.322 10.322 0 01-.028-.718c0-5.083 3.72-9.218 8.294-9.218 4.573 0 8.293 4.135 8.293 9.218 0 .24-.011.48-.028.718a2.11 2.11 0 00-.797-.156h-.111a9.59 9.59 0 00.019-.562c0-4.577-3.31-8.3-7.376-8.3zm9.036 14.707c0 .864-.703 1.567-1.568 1.567h-1.026V13.68h1.026c.865 0 1.568.703 1.568 1.567v3.722z" fill="#0D4689"/></g><defs><clipPath id="clip0_703_2263"><path fill="#fff" d="M0 0h25v25H0z"/></clipPath></defs></svg>