<svg width="70" height="70" fill="none" xmlns="http://www.w3.org/2000/svg"><path d="M48.457 33.556c-.01-.607-.029-1.214-.038-1.821-.029-1.375-.067-2.808-.038-4.212.019-1.024.047-2.418-.512-3.557-.873-1.774-2.865-1.954-4.468-2.087-1.262-.113-2.628-.16-4.297-.16-1.043 0-2.077.018-3.12.037l-1.348.02c-.493.009-.986.009-1.48.009-1.716 0-3.424-.038-5.14-.076a251.737 251.737 0 00-4.64-.076c-3.718.01-7.493.076-11.145.142l-4.904.085h-.673c-1.897.01-4.041.01-5.34 1.585C.013 25.019.08 27.448.136 29.582c.01.502.029.977.02 1.423C.108 33.974.117 37 .126 39.92c.01 3.52.01 7.152-.066 10.728-.047 2.267-.095 4.904-.028 7.494.01.389.01.816.01 1.252-.01 1.65-.02 3.52.663 4.914.873 1.802 2.6 1.954 4.288 1.954h.455l-.019.303c-.066 1.034-.17 2.457.531 3.007.36.285.987.427 1.973.427.427 0 .863-.028 1.243-.047.284-.02.55-.029.787-.038.218 0 .474.01.75.028.332.019.692.038 1.053.038.948 0 1.565-.142 1.954-.446.322-.256.388-.597.436-.92.057-.474.047-.996.028-1.508-.01-.304-.019-.598-.01-.892h2.676c3.234.02 6.535.123 9.732.228 2.722.085 5.54.18 8.31.209l-.01.094c-.057.968-.133 2.296.531 2.827.36.285.987.427 1.973.427.427 0 .863-.028 1.243-.047.284-.02.55-.029.787-.038.218 0 .474.01.75.028.331.019.692.038 1.052.038.949 0 1.565-.142 1.954-.446.323-.256.39-.607.427-.92.067-.474.048-1.005.029-1.518-.01-.18-.01-.36-.01-.53 2.106-.181 3.415-.712 4.032-1.623.388-.588.426-1.3.464-1.982l.01-.18c.076-1.357.085-2.732.085-4.07 0-.673 0-1.356.02-2.03.028-1.944.075-3.88.113-5.824.085-5.672.209-11.534.114-17.302zm-1.423 24.52c-.01.522-.01 1.044-.01 1.556 0 1.025-.009 2.087-.066 3.121-.142 2.476-3.007 2.58-5.094 2.665l-.616.029a74.22 74.22 0 01-3.975.095c-2.675 0-5.407-.114-8.044-.218a287.088 287.088 0 00-6.421-.21c-.607-.009-1.224-.009-1.831-.009-1.888 0-3.785.038-5.672.076-1.897.038-3.795.076-5.692.076a91.16 91.16 0 01-5.36-.133c-2.92-.16-2.987-3.082-3.044-5.435l-.019-.654c-.057-2.02-.104-3.719-.076-5.436.095-5.985.142-11.278.142-16.173 0-2.712.01-5.91.086-9.049.066-2.703.38-4.97 3.405-5.302.75-.086 1.508-.095 2.22-.095h1.736c1.347-.02 2.694-.048 4.04-.076 3.482-.067 7.086-.133 10.624-.142 2.182.01 4.373.028 6.555.047 2.884.02 5.767.047 8.727.047 0 0 1.736-.009 2.087-.009 1.347 0 2.77.038 4.107.341 2.618.589 2.513 3.235 2.419 5.578-.02.56-.048 1.1-.029 1.603.17 5.758.067 11.61-.028 17.273l-.171 10.435zm-7.645 10.69h-.029c-.18 0-.37.01-.569.01-.228.01-.465.02-.702.02-.455 0-.806-.03-1.1-.105-1.044-.247-1.006-1.072-.968-2.04v-.009h1.347c.863 0 1.736-.01 2.6-.028h1.26c.39 0 .816 0 1.243-.02v.02c.01.645.029 1.375-.265 1.764-.275.37-1.034.408-1.575.408-.246 0-.493-.01-.72-.02-.2.01-.37 0-.523 0zm-29.444 0h-.028c-.18 0-.38.01-.579.02-.237.01-.474.019-.711.019-.456 0-.797-.029-1.091-.105-.75-.18-.797-.284-.94-1.071-.066-.37-.047-.797-.028-1.205l.01-.18a1451.3 1451.3 0 016.431-.038c0 .132 0 .275.01.417.01.645.028 1.376-.266 1.764-.275.37-1.034.408-1.575.408-.246 0-.493-.01-.72-.019-.19 0-.361-.01-.513-.01z" fill="#4A8FE0"/><path d="M41.883 38.474c0-.94-.028-1.878-.047-2.817a94.396 94.396 0 01-.038-3.671l.01-.294c.018-1.091.056-2.448-.693-3.368-.949-1.176-2.969-1.309-4.41-1.309-.523 0-1.035.02-1.51.038-.388.02-.739.029-1.052.029h-.446c-1.774 0-3.557-.02-5.33-.038a498.824 498.824 0 00-5.398-.038c-2.618 0-5.274.057-7.845.104-1.157.02-2.314.048-3.471.067-2.751.047-5.265.313-5.71 3.026-.513.028-1.006.132-1.29.607-.465.768-.37 2.276-.304 3.367.019.285.028.54.038.759 0 .237-.01.522-.02.835-.047 1.043-.113 2.352.428 3.016.199.247.54.398 1.024.465v1.546c0 2.75 0 5.596-.057 8.404-.389.038-.844.161-1.1.598-.465.768-.37 2.276-.304 3.367.02.285.029.54.038.759 0 .237-.01.522-.019.835-.047 1.043-.114 2.352.427 3.016.218.266.607.427 1.148.484.417 2.523 2.276 2.874 4.22 2.874.456 0 .921-.019 1.395-.038.418-.019.835-.038 1.243-.038 1.12-.01 2.248-.01 3.367-.01 3.757 0 7.56.048 11.307.143.835.019 1.67.057 2.504.085 1.49.057 3.036.114 4.553.114 0 0 .636 0 .92.01.314 0 .636.01.978.01 1.29 0 2.75-.077 3.822-.598.835-.408 1.091-.902 1.3-1.727.341-1.366.265-2.997.199-4.572a37.226 37.226 0 01-.047-2.04c.018-1.232.047-2.465.066-3.69.038-3.414.104-6.886.104-10.31zm-1.28 14.684c.038 1.404.076 2.864-.133 4.202-.294 1.878-.863 2.485-2.561 2.684-1.176.143-2.334.162-3.32.162h-.228c-2.343 0-4.733-.076-7.048-.162-1.85-.057-3.69-.123-5.54-.142a376.42 376.42 0 00-5.662-.038h-.968c-.36 0-.815.029-1.328.057-.664.038-1.413.085-2.181.085-2.694 0-4.136-.578-4.534-1.821l.237-.028c.692-.105.834-.323.939-.958.123-.74.085-1.575.047-2.381-.01-.275-.028-.541-.028-.807-.01-.35.019-.777.047-1.223.067-.977.133-2.078-.142-2.808-.218-.588-.759-.75-1.319-.835.057-2.798.057-5.644.057-8.404v-1.518c.152-.019.285-.028.399-.047.692-.104.834-.323.939-.958.123-.74.085-1.575.047-2.381-.01-.275-.028-.54-.028-.806-.01-.351.019-.778.047-1.224.067-.977.133-2.077-.142-2.808-.19-.53-.664-.702-1.12-.777.39-1.698 2.173-1.936 4.06-1.936l1.29.01 5.692-.095c1.499-.028 2.988-.038 4.486-.038 1.433 0 2.865.01 4.297.047.645.02 1.281.02 1.926.02.806 0 1.603-.01 2.41-.02.796-.009 1.602-.018 2.4-.018 1.232 0 2.247.018 3.196.056.18.01.37.01.57.01.701.01 1.488.01 2.029.285 1.205.616 1.214 1.593 1.224 2.731v.313c.047 2.135.066 4.288.076 6.422.009 3.282-.048 6.63-.114 9.865l-.057 3.197c0 .683.019 1.385.038 2.087zM6.189 57.075c-.123 0-.484 0-.57-.787-.141-.474-.122-1.138-.104-1.717.01-.237.02-.465.01-.664 0-.19-.019-.408-.028-.635-.076-1.29-.171-2.894 1.166-2.998.683.085.579 2.4.531 3.386a4.744 4.744 0 00-.019.598c0 .123.02.341.038.588.057.674.152 1.916.01 2.115a2.05 2.05 0 01-.588.086c-.057 0-.124 0-.218-.01a.675.675 0 01-.228.038zM7.194 34.69c-.019.256-.028.465-.019.598 0 .123.02.341.038.588.057.673.152 1.916.01 2.115a2.05 2.05 0 01-.588.086c-.057 0-.124 0-.218-.01a1.067 1.067 0 01-.228.028c-.123 0-.484 0-.57-.787-.141-.465-.122-1.129-.104-1.707.01-.237.02-.465.01-.664 0-.19-.019-.408-.028-.636-.076-1.29-.171-2.893 1.166-2.997.683.076.579 2.39.531 3.386z" fill="#4A8FE0"/><path d="M33.81 39.03a6.074 6.074 0 00-1.242-.133c-2.371 0-4.24 1.309-4.752 3.348-.816 3.206.73 6.052 3.756 6.915.617.18 1.205.266 1.745.266 2.296 0 3.88-1.594 4.459-4.477.569-2.799-.911-5.009-3.965-5.92zm2.818 4.391a.55.55 0 00-.417.18.61.61 0 00-.143.39c0 .284.19.569.55.569h.095c-.123.872-.417 1.935-.806 2.456-.74.987-1.783 1.224-2.552 1.243v-.01c0-.075-.01-.151 0-.227a.502.502 0 00-.133-.39.565.565 0 00-.407-.16c-.285 0-.579.19-.598.55v.133c-.114-.029-.228-.048-.341-.086-1.736-.512-2.808-1.764-3.017-3.519l.123-.019c.276-.047.446-.256.418-.54a.609.609 0 00-.57-.56v-.057c0-.105.01-.209.02-.313.218-1.66 1.489-2.836 3.263-2.998v.143c0 .36.284.55.569.55.284 0 .569-.19.569-.55V40.1h.038c.076.01.152.01.218.029 1.395.417 3.073 1.318 3.244 3.291h-.123zm7.486-18.496a.595.595 0 00-.18-.029c-.266 0-.475.2-.522.484-.038.247.066.54.389.636 1.27.398 1.29 2.513 1.3 3.917 0 .304.009.579.018.807.086 1.375.123 2.864.095 4.553 0 .151.047.294.152.389a.588.588 0 00.417.16c.285 0 .57-.189.579-.55.047-3.101-.067-5.463-.38-7.664-.19-1.328-.578-2.305-1.868-2.703zm-2.46.598h.047c.36 0 .55-.285.55-.57 0-.284-.19-.569-.597-.569-.36 0-.55.285-.55.57 0 .151.047.284.132.388a.52.52 0 00.418.18z" fill="#4A8FE0"/><path d="M34.835 42.862c.038-.209.076-.408.076-.626a.583.583 0 00-.171-.408.525.525 0 00-.56-.142c-.199.075-.408.113-.607.151-.152.029-.303.057-.398.105a2.122 2.122 0 00-.636-.105c-.417 0-.806.133-1.148.399a2.75 2.75 0 00-.967 1.508c-.123.56.076 1.176.607 1.85.436.55 1.1.872 1.793.872.503 0 .967-.17 1.356-.493.76-.635.987-1.65.607-2.627-.01-.162.02-.323.048-.484zm-1.11 1.802c-.17.389-.579.655-.986.655-.238 0-.57-.086-.873-.484-.418-.55-.39-1.11.076-1.575a.917.917 0 01.645-.284c.313 0 .607.16.815.446l.067.094.01.01c.322.35.407.759.246 1.138z" fill="#4A8FE0"/><g clip-path="url(#clip0_844_3349)" fill="#4A8FE0"><path d="M59.079 16.616c-.032 1.953-.176 3.91-.108 5.863.017.486.036.973.035 1.46-.001.438-.072.89-.044 1.326.028.429.204.862.658.944.422.075.882.044 1.31.052 1.081.02 2.163.015 3.244.03.465.006.468-1.01 0-1.015-.88-.013-1.761-.012-2.642-.022a67.683 67.683 0 01-1.298-.026l-.324-.01c-.067-.003-.18-.035-.243-.02-.043.012-.047-.073-.01.026a1.062 1.062 0 010-.183c.047-.873.037-1.735.008-2.609a37.98 37.98 0 01.026-2.7c.037-1.039.067-2.077.083-3.116.004-.207-.109-.504-.347-.508-.244-.005-.345.31-.348.508z"/><path d="M67.678 11.773l-2.672 1.226-5.695 2.614L54 18.05l-1.448.664c-.077.036-.153.073-.23.106-.238.1-.536.079-.714-.132-.127-.15-.188-.386-.266-.565-.12-.277-.242-.553-.363-.829l-1.339-3.049c-.21-.48-.402-.974-.639-1.44-.148-.293-.323-.553-.62-.704-.288-.147-.64-.186-.95-.259a66.001 66.001 0 01-1.552-.386 70.607 70.607 0 01-3.149-.909c-.523-.163-1.045-.331-1.567-.498l.083.928c.32-.247.7-.381 1.072-.521.427-.16.849-.335 1.265-.521.842-.376 1.665-.793 2.49-1.207 1.69-.847 3.41-1.623 5.13-2.404 3.53-1.604 7.063-3.203 10.588-4.82l.602-.277c.176-.08.363-.201.56-.216.215-.016.444.079.551.278.046.085.08.18.118.268l.713 1.625 2.267 5.168.928 2.113c.126.289.269.575.382.87.064.172-.036.34-.235.44-.219.11-.287.394-.243.625.034.176.207.466.427.354.7-.353.937-1.215.648-1.934-.04-.101-.088-.2-.131-.3l-.77-1.754-2.363-5.385-.888-2.023C64.14.857 63.956.285 63.406.07c-.416-.162-.773-.018-1.156.157L60.875.86l-2.75 1.262a883.39 883.39 0 01-5.528 2.508c-1.815.819-3.635 1.629-5.431 2.489-1.708.818-3.37 1.73-5.143 2.4-.399.15-.786.318-1.128.58-.242.188-.249.822.084.929 2.1.674 4.209 1.312 6.357 1.815.283.066.641.095.894.256-.066-.042.087.082.055.05-.003-.004.071.097.094.133.085.139.168.352.244.526l1.373 3.127.67 1.527c.187.427.335.95.736 1.222.357.242.772.265 1.16.09.367-.165.733-.336 1.1-.505l5.023-2.304 5.878-2.698c1.082-.497 2.183-.965 3.25-1.492l.049-.022c.405-.186.27-1.188-.184-.98z"/><path d="M43.546 11.941c.638 1.596 1.29 3.182 2.068 4.714.272.534.562 1.218 1.195 1.376.549.138 1.146-.006 1.673-.172.56-.176 1.124-.418 1.607-.76.358-.252.109-1.201-.35-.876-.324.229-.767.418-1.168.564-.47.172-.993.33-1.5.275-.494-.054-.683-.58-.886-.976-.357-.699-.69-1.41-1.002-2.131a97.13 97.13 0 01-1.037-2.525c-.078-.196-.291-.335-.475-.183-.188.155-.211.48-.125.694zm22.306 18.594c.783 0 1.568.012 2.35 0a1.791 1.791 0 001.644-1.18c.13-.346.142-.698.142-1.06v-5.78c0-.203.004-.407 0-.611-.014-.783-.424-1.553-1.164-1.845-.402-.158-.86-.114-1.283-.114h-1.504c-.596 0-1.12.183-1.512.668-.323.4-.433.904-.433 1.412v6.493c.003.61.212 1.209.68 1.608a1.7 1.7 0 001.08.409c.465.011.47-1.004 0-1.015-.526-.013-1.046-.383-1.065-.947-.007-.193 0-.386 0-.579v-5.55c0-.18-.007-.362 0-.541.02-.563.542-.931 1.066-.942.766-.015 1.534-.003 2.3 0 .474.002.978.237 1.114.742.046.172.025.38.025.56v6.26c-.002.42-.265.766-.653.919-.322.126-.717.078-1.056.078h-1.731c-.466 0-.468 1.015 0 1.015zM58.206 5.432c.688-.393 1.425-.678 2.16-.965.356-.14.718-.272 1.065-.435.29-.137.57-.369.893-.417.31-.046.299-.721 0-.677-.345.052-.618.239-.923.395-.345.177-.715.308-1.075.449-.763.298-1.528.59-2.243.997-.258.147-.16.813.123.653zm1.543.56l2.7-1.113c.275-.113.188-.78-.123-.653l-2.7 1.114c-.275.113-.187.78.123.652z"/></g><defs><clipPath id="clip0_844_3349"><path fill="#fff" transform="translate(40.72)" d="M0 0h29.268v30.541H0z"/></clipPath></defs></svg>