<svg width="24" height="20" fill="none" xmlns="http://www.w3.org/2000/svg"><g clip-path="url(#clip0_717_732)" fill="#4A8FE0"><path d="M20.916 2.254a.285.285 0 00-.285.285v7.92h-.76V1.805a.475.475 0 00-.476-.475H7.349a.285.285 0 000 .57H19.3v7.283a.653.653 0 00-.261-.057H17.56v-.95a1.902 1.902 0 00-3.803 0v.95H12.28a.67.67 0 00-.66.578l-.021.181a2.176 2.176 0 00-2.539.572H4.468V1.901h1.269a.285.285 0 100-.57H4.373a.475.475 0 00-.476.475v8.652h-.76V1.046c0-.263.213-.476.475-.476h16.544a.475.475 0 01.475.476.285.285 0 10.57 0A1.046 1.046 0 0020.155 0H3.612a1.047 1.047 0 00-1.046 1.046v12.36a1.047 1.047 0 001.046 1.045h3.585v2.662h-.665a.475.475 0 00-.476.476v.95a.475.475 0 00.476.476h1.236v-.01a.675.675 0 00.095.01h9.744a.285.285 0 000-.57h-3.194a.647.647 0 00.01-.096v-4.605a.284.284 0 00.04-.047.297.297 0 01.477 0 .285.285 0 00.473-.318.852.852 0 00-.99-.333v-.21a.665.665 0 00-.666-.667h-.856v-.285c0-.64-.28-1.247-.768-1.661l.053-.444a.095.095 0 01.095-.081h1.477v.665a.285.285 0 10.57 0v-.665h2.662v.665a.285.285 0 00.57 0v-.665h1.477c.046 0 .085.031.094.076l1.033 8.562a.095.095 0 01-.096.109h-1.326a.285.285 0 000 .57h1.328a.665.665 0 00.66-.753l-.46-3.817a1.048 1.048 0 00.931-1.04V2.54a.285.285 0 00-.285-.286zM9.1 12.17v-.285c0-.303.086-.6.247-.855h2.116l-.138 1.14H9.1zm1.616-1.901c.265 0 .526.065.76.19H9.955a1.61 1.61 0 01.76-.19zm-7.103 3.613a.475.475 0 01-.475-.476V11.03h5.566c-.115.27-.175.561-.174.855v.285h-.666a.666.666 0 00-.665.666v1.046H3.612zm3.585 4.564h-.57v-.761h.57v.76zm6.56-5.705a.095.095 0 01.095.095v5.514a.095.095 0 01-.094.096H7.863a.095.095 0 01-.095-.096v-3.996a.28.28 0 000-.374v-1.144c0-.053.043-.095.095-.095h.666v.665a.285.285 0 00.57 0v-.665h3.233v.665a.285.285 0 10.57 0v-.665h.856zm-1.425-.856v.285H11.9l.145-1.203c.187.27.288.59.288.918zm1.996-2.757v-.95a1.331 1.331 0 012.663 0v.95h-2.663zm5.872 4.75l-.343-2.848h.774v2.377a.474.474 0 01-.43.47z"/><path d="M10.145 15.593a.285.285 0 00.285-.286v-.38a.285.285 0 00-.57 0v.38c0 .158.127.286.285.286zm1.33 0a.285.285 0 00.285-.286v-.38a.285.285 0 10-.57 0v.38c0 .158.127.286.285.286zm1.204.563a.285.285 0 00-.387.114 1.616 1.616 0 01-2.809.055.285.285 0 10-.49.293 2.188 2.188 0 003.8-.075.285.285 0 00-.114-.387zm5.784-2.776a.856.856 0 00-1.425 0 .285.285 0 10.474.317.297.297 0 01.477 0 .285.285 0 10.474-.318zm-1.033 1.014a.285.285 0 00-.387.114.986.986 0 01-1.713.034.286.286 0 10-.49.292 1.557 1.557 0 002.703-.052.285.285 0 00-.114-.388z"/></g><defs><clipPath id="clip0_717_732"><path fill="#fff" d="M0 0h23.769v20H0z"/></clipPath></defs></svg>