<svg width="30" height="30" fill="none" xmlns="http://www.w3.org/2000/svg"><g clip-path="url(#clip0_596_3447)" fill="#fff"><path d="M28.072 16.215c-.128-.005-.235-.01-.312-.015a31.674 31.674 0 00-2.79-.108l-.558.006-1.692.015c-1.358.015-2.722.03-4.08.03l-2.046-.005c-.425 0-.856 0-1.282.006-.076 0-.163.005-.256.01-.097.005-.2.015-.297.015-.23 0-.374-.04-.451-.133-.118-.143-.062-.767-.026-1.182.015-.184.03-.338.03-.435a471.5 471.5 0 00-.281-14c0-.05-.016-.086-.03-.122-.042-.113-.14-.18-.278-.18-3.916.185-7.008 1.725-9.735 4.841l-.282.323C2.742 6.376 1.743 7.51 1.23 8.862A20.398 20.398 0 00.215 12.5c-1.05 6.12 1.8 12.05 7.433 15.474C9.796 29.279 12.35 30 14.831 30c.384 0 .774-.015 1.148-.051 3.712-.343 7.146-1.586 9.417-3.423 2.471-1.996 3.568-5.306 4.05-7.737.02-.092.051-.215.092-.363.165-.614.41-1.535.118-1.899-.215-.26-1.04-.291-1.584-.312zm.974 1.387c-.369 2.364-1.056 4.36-2.086 6.104-1.41 2.375-4.004 4.073-7.705 5.05-1.677.44-3.148.656-4.501.656-.892 0-1.728-.098-2.487-.287-2.317-.583-4.331-1.545-6.156-2.932C1.994 23.067.015 18.006.815 12.653c.159-1.079.518-2.184.871-3.223.472-1.386 1.385-2.456 2.348-3.581l.103-.118C5.239 4.44 6.48 3.12 8.033 2.22c1.476-.855 3.24-1.336 5.388-1.474.174 4.974.267 10.116.277 15.719 0 .169.138.307.307.307.887-.015 1.774-.02 2.66-.02.59 0 2.944.01 3.533.01.467 0 .938 0 1.405-.005.492-.005.984-.016 1.476-.026.64-.015 1.287-.026 1.928-.026.2 0 .394 0 .594.006.918.015 1.672.05 2.384.122.251.026.456.031.615.036.241.005.39.01.446.077.072.077.057.281 0 .655z"/><path d="M28.585 7.742c-.508-1.336-1.456-2.646-2.984-4.114C22.808.93 19.147.168 16.548 0a.26.26 0 00-.246.154.3.3 0 00-.046.158c.015 2.19.036 4.385.061 6.575.026 2.226.046 4.447.062 6.673 0 .163.138.307.307.307a40.45 40.45 0 012.02-.041c.908 0 1.82.02 2.728.04.569.016 1.143.026 1.712.036.318.006.64.006.964.006l1.517-.006c1.528 0 2.8.036 4.06.2h.026a.297.297 0 00.205-.097.3.3 0 00.082-.215c-.164-1.96-.651-4.053-1.415-6.048zM17.455.696c-.2.2-.39.41-.569.63L16.881.64c.19.015.385.035.574.056zm-.471 1.494A7.838 7.838 0 0118.219.803c.43.072.861.159 1.272.261a105.86 105.86 0 00-2.584 2.876l-.015-1.668a.28.28 0 00.092-.082zm4.373-.517a74.922 74.922 0 00-4.43 4.825l-.005-.757-.02-.865c1.05-1.223 2.143-2.44 3.25-3.622.41.122.815.266 1.205.42zm3.317 2.016c-.395.517-.908.957-1.41 1.387-.252.215-.497.43-.728.65a48.526 48.526 0 00-2.128 2.17c-.19.204-.374.409-.564.618-.384.43-.779.87-1.204 1.275a17.6 17.6 0 01-.872.762c-.266.225-.538.455-.8.7l-.01-.905-.015-.476a51.008 51.008 0 001.907-2.062 57.703 57.703 0 011.625-1.77c.354-.363.738-.716 1.112-1.054.718-.645 1.461-1.315 2-2.139.374.25.738.522 1.092.819.005.01 0 .02-.005.025zm-3.666 1.039c-.43.389-.877.788-1.276 1.213-.436.465-.857.936-1.282 1.407-.487.542-.99 1.1-1.497 1.637l-.005-.726-.02-.82a.373.373 0 00.056-.045 73.57 73.57 0 014.978-5.45c.379.174.753.374 1.112.589-.543.829-1.318 1.525-2.066 2.195zm-3.42 8.56h-.086c-.22 0-.303-.025-.334-.05-.25-.19-.225-.528-.2-.85.006-.102.016-.2 0-.256.38-.42.82-.788 1.241-1.146.287-.24.585-.491.866-.757.472-.45.918-.947 1.349-1.428.246-.276.492-.548.743-.814.513-.542 1.092-1.064 1.65-1.565.816-.732 1.662-1.49 2.328-2.344.303.282.57.553.815.834l.108.128a129.001 129.001 0 01-8.48 8.248zm6.132-3.157c-1.046 1.065-2.127 2.17-3.276 3.111l-.24-.005a87.65 87.65 0 00-1.646-.02 122.85 122.85 0 007.915-7.711c.323.41.6.824.861 1.264-1.312 1.013-2.481 2.21-3.614 3.361zm.38.471c1.107-1.13 2.25-2.297 3.521-3.29.195.379.364.773.528 1.202a90.56 90.56 0 01-4.86 4.77l-1.943-.026c.974-.834 1.877-1.76 2.753-2.656zm4.28-1.433c.097.297.19.599.277.916.02.082.072.236.133.425l.036.118-.328.353c-.744.803-1.513 1.632-2.343 2.338l-1.989-.026A84.24 84.24 0 0028.38 9.17zm.98 4.114c-.109.128-.37.19-.785.19-.349 0-.749-.046-1.097-.082-.164-.02-.318-.036-.446-.046.707-.645 1.363-1.351 1.999-2.037.43 1.433.415 1.868.328 1.975zM5.203 7.609a.288.288 0 00-.205.087c-1.568 1.473-2.486 3.689-2.583 6.237a.256.256 0 00.077.21.306.306 0 00.22.087c.154 0 .308-.103.318-.297.061-1.683.533-4.052 2.404-5.808a.28.28 0 00.077-.312.35.35 0 00-.308-.204zm.891-.896a.298.298 0 00-.225.097.325.325 0 00-.072.21c0 .154.102.307.297.307a.3.3 0 00.226-.097.325.325 0 00.072-.21c0-.153-.103-.307-.298-.307z"/></g><defs><clipPath id="clip0_596_3447"><path fill="#fff" d="M0 0h30v30H0z"/></clipPath></defs></svg>