<svg width="142" height="119" fill="none" xmlns="http://www.w3.org/2000/svg"><path d="M0 0h132c5.523 0 10 4.477 10 10v99c0 5.523-4.477 10-10 10H0V0z" fill="#fff"/><path d="M.5.5H132a9.5 9.5 0 019.5 9.5v99a9.5 9.5 0 01-9.5 9.5H.5V.5z" stroke="#8CBEFA" stroke-opacity=".72"/><g clip-path="url(#clip0_961_1298)" fill="#0D4689"><path d="M64.862 42.225c0 4.06 3.303 7.363 7.364 7.363 4.06 0 7.363-3.303 7.363-7.363 0-4.06-3.303-7.364-7.363-7.364-4.06 0-7.364 3.303-7.364 7.364zm13.828 0c0 3.564-2.9 6.465-6.464 6.465a6.472 6.472 0 01-6.465-6.465c0-3.565 2.9-6.465 6.465-6.465s6.464 2.9 6.464 6.465z"/><path d="M76.466 25.869h-8.483a.45.45 0 00-.45.45v6.868c-3.262 1.7-5.495 5.112-5.495 9.037 0 3.926 2.233 7.338 5.495 9.038v6.869c0 .248.201.45.45.45h8.483a.45.45 0 00.45-.45v-6.87c3.26-1.7 5.495-5.111 5.495-9.037 0-3.925-2.234-7.337-5.496-9.037v-6.869a.45.45 0 00-.45-.45zm-8.034.898h7.584v6.006a10.13 10.13 0 00-3.792-.735c-1.34 0-2.619.263-3.792.735v-6.006zm7.584 30.914h-7.584v-6.005a10.134 10.134 0 007.584 0v6.005zm5.496-15.457c0 5.122-4.167 9.288-9.288 9.288s-9.288-4.166-9.288-9.288c0-5.12 4.167-9.287 9.288-9.287s9.288 4.166 9.288 9.287z"/><path d="M71.443 40.179h-2.287a.45.45 0 00-.45.45v3.193c0 .248.201.45.45.45h2.287a.45.45 0 00.45-.45v-3.194a.45.45 0 00-.45-.45zm-.45 3.194h-1.388v-.698h1.388v.698zm0-1.597h-1.388v-.698h1.388v.698zm2.013 2.496h2.287a.45.45 0 00.45-.45v-3.194a.45.45 0 00-.45-.45h-2.287a.45.45 0 00-.45.45v3.194c0 .248.201.45.45.45zm.449-3.194h1.388v.698h-1.388v-.698zm0 1.596h1.388v.699h-1.388v-.698z"/></g><path d="M42.643 70.004v.728h-4.69V80h-.812v-9.996h5.502zm6.658 6.272c0 .579-.075 1.106-.224 1.582-.14.467-.355.873-.644 1.218-.28.336-.63.597-1.05.784-.42.187-.9.28-1.442.28-.514 0-.976-.089-1.386-.266a3.049 3.049 0 01-1.036-.784 3.544 3.544 0 01-.658-1.232 5.265 5.265 0 01-.224-1.582c0-.812.13-1.503.392-2.072.27-.579.658-1.022 1.162-1.33.513-.308 1.12-.462 1.82-.462.71 0 1.306.163 1.792.49a2.95 2.95 0 011.12 1.344c.252.579.378 1.255.378 2.03zm-5.838 0c0 .635.088 1.195.266 1.68.177.476.453.845.826 1.106.373.261.84.392 1.4.392.578 0 1.055-.13 1.428-.392a2.36 2.36 0 00.826-1.12c.177-.485.266-1.04.266-1.666 0-.625-.084-1.176-.252-1.652-.168-.476-.434-.85-.798-1.12-.364-.27-.84-.406-1.428-.406-.85 0-1.484.28-1.904.84-.42.56-.63 1.34-.63 2.338zm13.032-3.724v6.762h1.022v3.22h-.784V80h-5.586v2.534h-.77v-3.22h.518c.42-.588.77-1.237 1.05-1.946.28-.71.494-1.47.644-2.282a14.97 14.97 0 00.238-2.534h3.668zm-2.94.658a15.223 15.223 0 01-.28 2.282c-.15.728-.35 1.414-.602 2.058a8.769 8.769 0 01-.924 1.764h3.976V73.21h-2.17zm6.268 4.536v.322c0 .121-.005.247-.014.378 0 .121-.005.243-.014.364-.01.112-.014.22-.014.322l4.354-6.58h.98V80h-.756v-5.656c0-.168.005-.336.014-.504.01-.168.014-.313.014-.434L60.033 80h-.966v-7.448h.756v5.194zm8.56-5.194v3.234h4.564v-3.234h.797V80h-.797v-3.528h-4.565V80h-.797v-7.448h.797zm8.627 0v3.234h4.563v-3.234h.799V80h-.799v-3.528H77.01V80h-.799v-7.448h.799zm8.584 5.194v.322c0 .121-.004.247-.014.378 0 .121-.004.243-.014.364-.009.112-.014.22-.014.322l4.354-6.58h.98V80h-.756v-5.656c0-.168.005-.336.014-.504.01-.168.014-.313.014-.434L85.804 80h-.966v-7.448h.756v5.194zm11.878-5.194h.91l-3.332 3.612L98.592 80h-.966l-3.472-3.766V80h-.798v-7.448h.798v3.626l3.318-3.626zm3.257 5.194v.322c0 .121-.004.247-.014.378 0 .121-.004.243-.014.364-.009.112-.014.22-.014.322l4.354-6.58h.98V80h-.756v-5.656c0-.168.005-.336.014-.504.01-.168.014-.313.014-.434L100.939 80h-.966v-7.448h.756v5.194zm-52.71 9.806v3.234h4.563v-3.234h.798V95h-.798v-3.528h-4.564V95h-.798v-7.448h.798zm10.46-.126c.84 0 1.466.205 1.876.616.41.41.616 1.064.616 1.96V95h-.602l-.14-1.26h-.042c-.177.28-.382.527-.616.742-.224.205-.5.369-.826.49-.317.112-.71.168-1.176.168-.466 0-.872-.08-1.218-.238a1.858 1.858 0 01-.798-.714c-.186-.308-.28-.686-.28-1.134 0-.737.304-1.297.91-1.68.607-.392 1.489-.616 2.646-.672l1.358-.056v-.532c0-.737-.15-1.255-.448-1.554-.29-.308-.723-.462-1.302-.462a3.95 3.95 0 00-1.106.154 5.646 5.646 0 00-1.05.406l-.252-.63a5.752 5.752 0 011.148-.434c.42-.112.854-.168 1.302-.168zm.434 3.864c-.942.047-1.647.215-2.114.504-.466.28-.7.705-.7 1.274 0 .457.145.807.434 1.05.29.233.682.35 1.176.35.794 0 1.4-.22 1.82-.658.43-.439.649-1.055.658-1.848v-.728l-1.274.056zm7.772-3.878c.952 0 1.694.322 2.226.966.541.644.812 1.596.812 2.856 0 .84-.126 1.554-.378 2.142-.252.579-.611 1.017-1.078 1.316-.457.299-1.008.448-1.652.448a3.08 3.08 0 01-1.148-.196 2.38 2.38 0 01-1.316-1.232h-.056a22.116 22.116 0 01.056 1.526v3.066h-.798V87.552h.658l.098 1.4h.042c.121-.27.294-.523.518-.756.224-.233.5-.42.826-.56.336-.15.733-.224 1.19-.224zm-.112.686c-.55 0-1.003.117-1.358.35-.355.233-.62.579-.798 1.036-.177.448-.266 1.003-.266 1.666v.14c0 .7.084 1.288.252 1.764.177.467.439.817.784 1.05.355.233.798.35 1.33.35.523 0 .957-.126 1.302-.378.355-.261.62-.63.798-1.106.187-.485.28-1.064.28-1.736 0-1.017-.191-1.792-.574-2.324-.383-.541-.966-.812-1.75-.812zm3.792-.546h.854l1.764 4.634c.103.27.196.523.28.756.084.233.159.453.224.658.066.196.122.378.168.546h.042c.066-.215.154-.49.266-.826.112-.345.243-.719.392-1.12l1.736-4.648h.854l-3.36 8.778a5.81 5.81 0 01-.56 1.106 2.16 2.16 0 01-.728.7c-.28.168-.616.252-1.008.252-.177 0-.34-.014-.49-.042a2.854 2.854 0 01-.406-.084v-.672c.122.028.243.051.364.07.13.028.276.042.434.042.262 0 .49-.056.686-.168.196-.103.369-.266.518-.49a3.61 3.61 0 00.406-.812l.49-1.26-2.926-7.42zm8.467 2.534c0 .597.144 1.031.434 1.302.298.27.737.406 1.316.406.494 0 .942-.08 1.344-.238a5.84 5.84 0 001.19-.63v-3.374h.784V95h-.784v-3.416c-.41.28-.822.5-1.232.658-.402.15-.882.224-1.442.224-.784 0-1.382-.2-1.792-.602-.41-.41-.616-.975-.616-1.694v-2.618h.798v2.534zm8.329-2.534v3.234h4.564v-3.234h.798V95h-.798v-3.528H87.16V95h-.798v-7.448h.798zm8.613 0V95h-.784v-7.448h.784zm-.392-2.758c.177 0 .313.056.406.168.093.103.14.247.14.434 0 .196-.047.35-.14.462-.093.103-.229.154-.406.154a.503.503 0 01-.392-.154c-.093-.112-.14-.266-.14-.462 0-.187.047-.331.14-.434a.482.482 0 01.392-.168z" fill="#0E0E0E"/><defs><clipPath id="clip0_961_1298"><path fill="#fff" transform="translate(52 22)" d="M0 0h40.449v40H0z"/></clipPath></defs></svg>