<svg width="162" height="139" fill="none" xmlns="http://www.w3.org/2000/svg"><g filter="url(#filter0_d_961_1288)"><path d="M10 6h132c5.523 0 10 4.477 10 10v99c0 5.523-4.477 10-10 10H10V6z" fill="#fff"/><path d="M10.5 6.5H142a9.5 9.5 0 019.5 9.5v99a9.5 9.5 0 01-9.5 9.5H10.5V6.5z" stroke="#8CBEFA" stroke-opacity=".72"/></g><path d="M64.93 85.37c0 .69-.196 1.232-.588 1.624-.383.383-.882.635-1.498.756v.042c.737.13 1.302.397 1.694.798.392.401.588.947.588 1.638 0 .588-.14 1.101-.42 1.54-.28.43-.695.765-1.246 1.008-.541.243-1.218.364-2.03.364-.55 0-1.073-.047-1.568-.14a5.213 5.213 0 01-1.302-.448v-.77c.261.14.55.261.868.364.327.093.658.168.994.224.345.056.681.084 1.008.084.924 0 1.629-.196 2.114-.588.495-.392.742-.938.742-1.638 0-.719-.266-1.241-.798-1.568-.523-.336-1.288-.504-2.296-.504h-1.47v-.686h1.498c.644 0 1.176-.08 1.596-.238.43-.168.751-.401.966-.7.215-.308.322-.677.322-1.106 0-.588-.205-1.045-.616-1.372-.41-.336-.961-.504-1.652-.504-.616 0-1.134.089-1.554.266-.42.168-.83.387-1.232.658l-.406-.56a4.91 4.91 0 01.882-.532 4.973 4.973 0 011.05-.378c.392-.093.817-.14 1.274-.14.653 0 1.209.107 1.666.322.457.205.807.495 1.05.868s.364.812.364 1.316zm8.448 3.906c0 .579-.075 1.106-.224 1.582-.14.467-.355.873-.644 1.218-.28.336-.63.597-1.05.784-.42.187-.9.28-1.442.28-.513 0-.975-.089-1.386-.266a3.05 3.05 0 01-1.036-.784 3.546 3.546 0 01-.658-1.232 5.269 5.269 0 01-.224-1.582c0-.812.13-1.503.392-2.072.27-.579.658-1.022 1.162-1.33.513-.308 1.12-.462 1.82-.462.71 0 1.307.163 1.792.49.495.317.868.765 1.12 1.344.252.579.378 1.255.378 2.03zm-5.838 0c0 .635.089 1.195.266 1.68.177.476.453.845.826 1.106.373.261.84.392 1.4.392.579 0 1.055-.13 1.428-.392a2.36 2.36 0 00.826-1.12c.177-.485.266-1.04.266-1.666 0-.625-.084-1.176-.252-1.652-.168-.476-.434-.85-.798-1.12-.364-.27-.84-.406-1.428-.406-.85 0-1.484.28-1.904.84-.42.56-.63 1.34-.63 2.338zM80.656 93h-.798v-6.762h-2.52a50.98 50.98 0 01-.322 3.052c-.122.859-.28 1.568-.476 2.128-.187.56-.425.975-.714 1.246-.28.27-.62.406-1.022.406a3.38 3.38 0 01-.322-.014 1.374 1.374 0 01-.238-.042v-.644a.99.99 0 00.182.042c.065.01.15.014.252.014a.83.83 0 00.602-.266c.186-.177.35-.443.49-.798.14-.355.261-.803.364-1.344.112-.55.205-1.195.28-1.932.084-.747.159-1.591.224-2.534h4.018V93zm8.69-3.724c0 .579-.074 1.106-.223 1.582-.14.467-.355.873-.644 1.218-.28.336-.63.597-1.05.784-.42.187-.9.28-1.442.28-.514 0-.976-.089-1.386-.266a3.049 3.049 0 01-1.036-.784 3.544 3.544 0 01-.658-1.232 5.265 5.265 0 01-.224-1.582c0-.812.13-1.503.392-2.072.27-.579.658-1.022 1.162-1.33.513-.308 1.12-.462 1.82-.462.71 0 1.306.163 1.792.49a2.95 2.95 0 011.12 1.344c.252.579.378 1.255.378 2.03zm-5.837 0c0 .635.088 1.195.266 1.68.177.476.452.845.826 1.106.373.261.84.392 1.4.392.578 0 1.054-.13 1.428-.392a2.36 2.36 0 00.826-1.12c.177-.485.266-1.04.266-1.666 0-.625-.084-1.176-.252-1.652-.168-.476-.434-.85-.798-1.12-.364-.27-.84-.406-1.428-.406-.85 0-1.484.28-1.904.84-.42.56-.63 1.34-.63 2.338zm12.545-3.038h-2.506V93h-.784v-6.762h-2.492v-.686h5.782v.686zm7.607 3.038c0 .579-.074 1.106-.224 1.582a3.37 3.37 0 01-.644 1.218c-.28.336-.63.597-1.05.784-.42.187-.9.28-1.442.28-.513 0-.975-.089-1.386-.266a3.05 3.05 0 01-1.036-.784 3.548 3.548 0 01-.658-1.232 5.269 5.269 0 01-.224-1.582c0-.812.13-1.503.392-2.072.27-.579.658-1.022 1.162-1.33.514-.308 1.12-.462 1.82-.462.71 0 1.307.163 1.792.49.495.317.868.765 1.12 1.344.252.579.378 1.255.378 2.03zm-5.838 0c0 .635.089 1.195.266 1.68.178.476.453.845.826 1.106.374.261.84.392 1.4.392.579 0 1.055-.13 1.428-.392.374-.27.649-.644.826-1.12.178-.485.266-1.04.266-1.666 0-.625-.084-1.176-.252-1.652-.168-.476-.434-.85-.798-1.12-.364-.27-.84-.406-1.428-.406-.85 0-1.484.28-1.904.84-.42.56-.63 1.34-.63 2.338z" fill="#0E0E0E"/><g clip-path="url(#clip0_961_1288)"><path d="M83.817 51.712l3.592-4.188-6.37-5.005-6.372 5.005 3.591 4.188a9.792 9.792 0 00-7.055 9.427c0 5.423 4.412 9.835 9.835 9.835 5.423 0 9.835-4.412 9.835-9.835a9.801 9.801 0 00-7.056-9.427zm-1.5.57l1.41-3.796a22.498 22.498 0 002.082-.275l-3.492 4.072zm-3.127-3.734a31.735 31.735 0 003.696 0l-1.848 4.974-1.848-4.974zm7.954 12.59a6.114 6.114 0 01-6.106 6.108 6.114 6.114 0 01-6.107-6.107 6.113 6.113 0 016.107-6.106 6.113 6.113 0 016.106 6.106zm-2.568-14.863l1.42 1.116a20.42 20.42 0 01-1.966.294l.546-1.41zm-.63-.496l-.458 1.182-1.314-2.575 1.772 1.393zm-.907 1.99a30.184 30.184 0 01-4.003 0l2.002-3.92 2.001 3.92zm-3.137-3.382l-1.315 2.574-.457-1.182 1.772-1.392zM77.5 46.275l.545 1.41a20.4 20.4 0 01-1.965-.295l1.42-1.115zm-1.233 1.936c.523.096 1.22.199 2.082.275l1.41 3.796-3.492-4.071zm4.771 21.995c-5 0-9.068-4.067-9.068-9.067a9.032 9.032 0 016.838-8.787l1.665 1.942c-3.526.288-6.308 3.245-6.308 6.844a6.882 6.882 0 006.873 6.875 6.882 6.882 0 006.874-6.875c0-3.6-2.783-6.556-6.309-6.844l1.666-1.943a9.04 9.04 0 016.836 8.787c0 5-4.067 9.068-9.067 9.068zm6.031-28.264c.02.787.088 1.549.188 2.143.112.71.271 1.183.271 1.183s.16-.473.271-1.183c.101-.595.168-1.357.188-2.144a16.615 16.615 0 002.143-.191 8.254 8.254 0 001.183-.267s-.473-.156-1.183-.267a16.617 16.617 0 00-2.144-.191 16.53 16.53 0 00-.191-2.144c-.111-.71-.267-1.183-.267-1.183s-.156.474-.267 1.183a16.615 16.615 0 00-.19 2.143c-.788.02-1.55.087-2.145.188-.71.111-1.183.27-1.183.27s.473.16 1.183.272c.594.1 1.356.167 2.143.188zM73.291 43.44c.031.307.081.602.163.837.111.347.27.578.27.578s.16-.231.272-.578c.082-.236.132-.532.163-.84.307-.032.601-.084.837-.164.347-.111.578-.267.578-.267s-.231-.155-.578-.266a4.05 4.05 0 00-.839-.165 4.056 4.056 0 00-.165-.84c-.111-.346-.267-.577-.267-.577s-.155.231-.266.578c-.08.236-.132.53-.165.837a3.835 3.835 0 00-.84.163c-.346.112-.577.271-.577.271s.23.16.578.271c.235.08.53.13.836.162z" fill="#0D4689"/></g><path d="M132 18c-4.42 0-8 3.58-8 8s3.58 8 8 8 8-3.58 8-8-3.58-8-8-8zm-.615 12.66h-1.34l-3.24-4.54 1.341-1.25 2.569 2.4 5.141-5.931 1.34.94-5.811 8.381z" fill="#0D4689"/><defs><clipPath id="clip0_961_1288"><path fill="#fff" transform="translate(64 34)" d="M0 0h34.783v40H0z"/></clipPath><filter id="filter0_d_961_1288" x="0" y="0" width="162" height="139" filterUnits="userSpaceOnUse" color-interpolation-filters="sRGB"><feFlood flood-opacity="0" result="BackgroundImageFix"/><feColorMatrix in="SourceAlpha" values="0 0 0 0 0 0 0 0 0 0 0 0 0 0 0 0 0 0 127 0" result="hardAlpha"/><feOffset dy="4"/><feGaussianBlur stdDeviation="5"/><feComposite in2="hardAlpha" operator="out"/><feColorMatrix values="0 0 0 0 0.548333 0 0 0 0 0.746378 0 0 0 0 0.979167 0 0 0 0.27 0"/><feBlend in2="BackgroundImageFix" result="effect1_dropShadow_961_1288"/><feBlend in="SourceGraphic" in2="effect1_dropShadow_961_1288" result="shape"/></filter></defs></svg>