<svg width="162" height="139" fill="none" xmlns="http://www.w3.org/2000/svg"><g filter="url(#filter0_d_961_1295)"><path d="M10 6h132c5.523 0 10 4.477 10 10v99c0 5.523-4.477 10-10 10H10V6z" fill="#fff"/><path d="M10.5 6.5H142a9.5 9.5 0 019.5 9.5v99a9.5 9.5 0 01-9.5 9.5H10.5V6.5z" stroke="#8CBEFA" stroke-opacity=".72"/></g><path d="M64.656 83.592a4.14 4.14 0 00-1.666.322 3.284 3.284 0 00-1.232.896 3.921 3.921 0 00-.77 1.386 5.601 5.601 0 00-.266 1.778c0 .896.14 1.68.42 2.352.28.663.7 1.176 1.26 1.54.57.364 1.274.546 2.114.546a7.5 7.5 0 001.344-.112 8.83 8.83 0 001.134-.28v.7c-.336.13-.714.233-1.134.308a8.15 8.15 0 01-1.442.112c-.999 0-1.839-.215-2.52-.644-.672-.43-1.18-1.031-1.526-1.806-.336-.775-.504-1.68-.504-2.716 0-.737.107-1.419.322-2.044a4.666 4.666 0 01.938-1.624c.41-.457.91-.812 1.498-1.064.597-.252 1.279-.378 2.044-.378.476 0 .933.047 1.372.14a5.74 5.74 0 011.246.406l-.322.714a4.694 4.694 0 00-1.12-.392 5.006 5.006 0 00-1.19-.14zm7.63 1.82c.953 0 1.695.322 2.227.966.541.644.812 1.596.812 2.856 0 .84-.126 1.554-.378 2.142-.252.579-.612 1.017-1.078 1.316-.458.299-1.008.448-1.652.448-.439 0-.822-.065-1.148-.196a2.38 2.38 0 01-1.316-1.232h-.056a22.116 22.116 0 01.056 1.526v3.066h-.798V85.552h.658l.098 1.4h.042c.121-.27.294-.523.518-.756.224-.233.499-.42.826-.56.336-.15.732-.224 1.19-.224zm-.111.686c-.551 0-1.004.117-1.358.35-.355.233-.621.579-.798 1.036-.178.448-.266 1.003-.266 1.666v.14c0 .7.084 1.288.252 1.764.177.467.438.817.784 1.05.354.233.798.35 1.33.35.522 0 .956-.126 1.302-.378.354-.261.62-.63.798-1.106.186-.485.28-1.064.28-1.736 0-1.017-.192-1.792-.574-2.324-.383-.541-.966-.812-1.75-.812zm5.945-.546V93h-.785v-7.448h.785zm-.392-2.758c.177 0 .312.056.406.168.093.103.14.247.14.434 0 .196-.047.35-.14.462-.094.103-.23.154-.406.154a.503.503 0 01-.392-.154c-.094-.112-.14-.266-.14-.462 0-.187.046-.331.14-.434a.482.482 0 01.392-.168zm2.455 5.74c0-.97.08-1.801.238-2.492.16-.69.402-1.255.728-1.694.336-.448.752-.78 1.246-.994a6.555 6.555 0 011.75-.644 21.28 21.28 0 012.24-.392l.126.7c-.42.047-.82.103-1.204.168-.382.065-.742.14-1.078.224a8.733 8.733 0 00-.896.252c-.26.093-.49.2-.686.322a2.374 2.374 0 00-.658.49 3.02 3.02 0 00-.49.756c-.13.299-.238.644-.322 1.036-.084.392-.135.83-.154 1.316h.056c.168-.28.383-.532.644-.756a3.137 3.137 0 012.072-.756c.626 0 1.153.135 1.582.406.43.261.752.644.966 1.148.224.495.336 1.101.336 1.82 0 .756-.126 1.414-.378 1.974-.242.55-.606.975-1.092 1.274-.476.299-1.064.448-1.764.448-.56 0-1.045-.112-1.456-.336a2.971 2.971 0 01-1.022-.966 4.68 4.68 0 01-.602-1.47 8.666 8.666 0 01-.182-1.834zm3.318 3.92c.532 0 .966-.112 1.302-.336.346-.233.602-.57.77-1.008.178-.448.266-.985.266-1.61 0-.896-.182-1.577-.546-2.044-.354-.467-.89-.7-1.61-.7-.42 0-.802.08-1.148.238a3.043 3.043 0 00-.896.644 3.735 3.735 0 00-.644.854c0 .504.038.994.112 1.47.075.467.201.891.378 1.274.187.373.444.672.77.896.336.215.752.322 1.246.322zM93.947 93h-.798v-6.762h-2.52a50.98 50.98 0 01-.322 3.052c-.121.859-.28 1.568-.476 2.128-.187.56-.425.975-.714 1.246-.28.27-.62.406-1.022.406a3.38 3.38 0 01-.322-.014 1.374 1.374 0 01-.238-.042v-.644a.99.99 0 00.182.042c.065.01.15.014.252.014a.83.83 0 00.602-.266c.186-.177.35-.443.49-.798.14-.355.261-.803.364-1.344.112-.55.205-1.195.28-1.932.084-.747.159-1.591.224-2.534h4.018V93zm8.691-3.724c0 .579-.075 1.106-.224 1.582-.14.467-.355.873-.644 1.218-.28.336-.63.597-1.05.784-.42.187-.9.28-1.442.28-.514 0-.976-.089-1.386-.266a3.049 3.049 0 01-1.036-.784 3.544 3.544 0 01-.658-1.232 5.265 5.265 0 01-.224-1.582c0-.812.13-1.503.392-2.072.27-.579.658-1.022 1.162-1.33.513-.308 1.12-.462 1.82-.462.709 0 1.306.163 1.792.49a2.95 2.95 0 011.12 1.344c.252.579.378 1.255.378 2.03zm-5.838 0c0 .635.088 1.195.266 1.68.177.476.452.845.826 1.106.373.261.84.392 1.4.392.578 0 1.054-.13 1.428-.392.373-.27.648-.644.826-1.12.177-.485.266-1.04.266-1.666 0-.625-.084-1.176-.252-1.652-.168-.476-.434-.85-.798-1.12-.364-.27-.84-.406-1.428-.406-.85 0-1.484.28-1.904.84-.42.56-.63 1.34-.63 2.338z" fill="#0E0E0E"/><g clip-path="url(#clip0_961_1295)" fill="#0D4689"><path d="M90.534 49.467v-3.8c1.8-.334 3.2-1.867 3.2-3.8A3.87 3.87 0 0089.867 38 3.87 3.87 0 0086 41.867c0 1.933 1.4 3.466 3.2 3.8v3.8c-.8 1.333-6 10.6-6 13.866C83.2 67 86.2 70 89.867 70c3.666 0 6.666-3 6.666-6.667-.066-3.266-5.266-12.466-6-13.866zm-3.2-7.6a2.532 2.532 0 115.066 0c0 1.4-1.133 2.533-2.533 2.533a2.532 2.532 0 01-2.534-2.533zm2.533 26.8c-2.934 0-5.334-2.4-5.334-5.334 0-2.266 3.4-8.933 5.334-12.333 1.867 3.4 5.333 10 5.333 12.333-.067 2.934-2.4 5.334-5.333 5.334zm-15.067-23c1.8-.334 3.2-1.934 3.2-3.8A3.87 3.87 0 0074.131 38a3.87 3.87 0 00-3.866 3.867c0 1.933 1.4 3.466 3.2 3.8v3.8c-.8 1.333-6 10.6-6 13.866 0 3.667 3 6.667 6.666 6.667 3.667 0 6.667-3 6.667-6.667 0-3.266-5.2-12.533-6-13.866v-3.8zm-3.2-3.8a2.532 2.532 0 115.067 0 2.534 2.534 0 01-2.535 2.533 2.532 2.532 0 01-2.533-2.533zm2.532 26.8c-2.933 0-5.333-2.4-5.333-5.334 0-2.266 3.4-8.933 5.333-12.333 1.867 3.4 5.334 10 5.334 12.333 0 2.934-2.4 5.334-5.334 5.334z"/></g><path d="M132 18c-4.42 0-8 3.58-8 8s3.58 8 8 8 8-3.58 8-8-3.58-8-8-8zm-.615 12.66h-1.34l-3.24-4.54 1.341-1.25 2.569 2.4 5.141-5.931 1.34.94-5.811 8.381z" fill="#0D4689"/><defs><clipPath id="clip0_961_1295"><path fill="#fff" transform="translate(66 34)" d="M0 0h32v40H0z"/></clipPath><filter id="filter0_d_961_1295" x="0" y="0" width="162" height="139" filterUnits="userSpaceOnUse" color-interpolation-filters="sRGB"><feFlood flood-opacity="0" result="BackgroundImageFix"/><feColorMatrix in="SourceAlpha" values="0 0 0 0 0 0 0 0 0 0 0 0 0 0 0 0 0 0 127 0" result="hardAlpha"/><feOffset dy="4"/><feGaussianBlur stdDeviation="5"/><feComposite in2="hardAlpha" operator="out"/><feColorMatrix values="0 0 0 0 0.548333 0 0 0 0 0.746378 0 0 0 0 0.979167 0 0 0 0.27 0"/><feBlend in2="BackgroundImageFix" result="effect1_dropShadow_961_1295"/><feBlend in="SourceGraphic" in2="effect1_dropShadow_961_1295" result="shape"/></filter></defs></svg>