<svg width="162" height="139" fill="none" xmlns="http://www.w3.org/2000/svg"><g filter="url(#filter0_d_961_1296)"><path d="M10 6h132c5.523 0 10 4.477 10 10v99c0 5.523-4.477 10-10 10H10V6z" fill="#fff"/><path d="M10.5 6.5H142a9.5 9.5 0 019.5 9.5v99a9.5 9.5 0 01-9.5 9.5H10.5V6.5z" stroke="#8CBEFA" stroke-opacity=".72"/></g><path d="M132 18c-4.42 0-8 3.58-8 8s3.58 8 8 8 8-3.58 8-8-3.58-8-8-8zm-.615 12.66h-1.34l-3.24-4.54 1.341-1.25 2.569 2.4 5.141-5.931 1.34.94-5.811 8.381z" fill="#0D4689"/><path d="M54.82 76.004c.83 0 1.512.084 2.044.252.532.168.924.434 1.176.798.261.355.392.817.392 1.386 0 .383-.075.733-.224 1.05a1.98 1.98 0 01-.644.798 2.6 2.6 0 01-1.064.42v.042c.485.084.891.224 1.218.42.336.196.588.462.756.798.168.327.252.723.252 1.19 0 .644-.15 1.18-.448 1.61-.29.42-.7.733-1.232.938-.523.196-1.134.294-1.834.294h-3.15v-9.996h2.758zm.196 4.41c.924 0 1.587-.159 1.988-.476.401-.317.602-.789.602-1.414 0-.644-.22-1.106-.658-1.386-.439-.28-1.143-.42-2.114-.42h-1.96v3.696h2.142zm-2.142.7V85.3h2.282c.915 0 1.596-.187 2.044-.56.448-.373.672-.915.672-1.624 0-.467-.103-.845-.308-1.134-.205-.299-.518-.518-.938-.658-.42-.14-.952-.21-1.596-.21h-2.156zm8.608 2.632v.322c0 .121-.005.247-.014.378 0 .121-.005.243-.014.364-.01.112-.014.22-.014.322l4.354-6.58h.98V86h-.756v-5.656c0-.168.005-.336.014-.504.01-.168.014-.313.014-.434L61.692 86h-.966v-7.448h.756v5.194zm11.094-5.334c.952 0 1.694.322 2.226.966.541.644.812 1.596.812 2.856 0 .84-.126 1.554-.378 2.142-.252.579-.612 1.017-1.078 1.316-.458.299-1.008.448-1.652.448a3.08 3.08 0 01-1.148-.196 2.382 2.382 0 01-1.316-1.232h-.056a21.862 21.862 0 01.056 1.526v3.066h-.798V78.552h.658l.098 1.4h.042c.121-.27.294-.523.518-.756.224-.233.5-.42.826-.56.336-.15.732-.224 1.19-.224zm-.112.686c-.55 0-1.004.117-1.358.35-.355.233-.62.579-.798 1.036-.178.448-.266 1.003-.266 1.666v.14c0 .7.084 1.288.252 1.764.177.467.438.817.784 1.05.354.233.798.35 1.33.35.522 0 .956-.126 1.302-.378.354-.261.62-.63.798-1.106.186-.485.28-1.064.28-1.736 0-1.017-.192-1.792-.574-2.324-.383-.541-.966-.812-1.75-.812zm11.39 3.178c0 .579-.074 1.106-.223 1.582-.14.467-.355.873-.644 1.218-.28.336-.63.597-1.05.784-.42.187-.901.28-1.442.28-.514 0-.976-.089-1.386-.266a3.049 3.049 0 01-1.036-.784 3.544 3.544 0 01-.658-1.232 5.265 5.265 0 01-.224-1.582c0-.812.13-1.503.392-2.072.27-.579.658-1.022 1.162-1.33.513-.308 1.12-.462 1.82-.462.709 0 1.306.163 1.792.49a2.95 2.95 0 011.12 1.344c.252.579.378 1.255.378 2.03zm-5.837 0c0 .635.088 1.195.266 1.68.177.476.452.845.826 1.106.373.261.84.392 1.4.392.578 0 1.054-.13 1.428-.392a2.36 2.36 0 00.826-1.12c.177-.485.266-1.04.266-1.666 0-.625-.084-1.176-.252-1.652-.168-.476-.434-.85-.798-1.12-.364-.27-.84-.406-1.428-.406-.85 0-1.484.28-1.904.84-.42.56-.63 1.34-.63 2.338zm7.46-.742c0-.97.079-1.801.237-2.492.16-.69.402-1.255.728-1.694.336-.448.752-.78 1.246-.994a6.553 6.553 0 011.75-.644 21.28 21.28 0 012.24-.392l.126.7c-.42.047-.82.103-1.204.168-.382.065-.742.14-1.078.224a8.726 8.726 0 00-.896.252c-.26.093-.49.2-.686.322a2.373 2.373 0 00-.658.49c-.186.205-.35.457-.49.756-.13.299-.238.644-.322 1.036-.084.392-.135.83-.154 1.316h.056c.168-.28.383-.532.644-.756a3.137 3.137 0 012.072-.756c.626 0 1.153.135 1.582.406.43.261.752.644.966 1.148.224.495.336 1.101.336 1.82 0 .756-.126 1.414-.378 1.974a2.76 2.76 0 01-1.092 1.274c-.476.299-1.064.448-1.764.448-.56 0-1.045-.112-1.456-.336a2.97 2.97 0 01-1.022-.966 4.68 4.68 0 01-.602-1.47 8.666 8.666 0 01-.182-1.834zm3.317 3.92c.532 0 .966-.112 1.302-.336.346-.233.602-.57.77-1.008.178-.448.266-.985.266-1.61 0-.896-.182-1.577-.546-2.044-.354-.467-.89-.7-1.61-.7-.42 0-.802.08-1.148.238a3.042 3.042 0 00-.896.644 3.735 3.735 0 00-.644.854c0 .504.038.994.112 1.47.075.467.201.891.378 1.274.187.373.444.672.77.896.336.215.752.322 1.246.322zm5.952-1.708v.322c0 .121-.005.247-.014.378 0 .121-.005.243-.014.364-.01.112-.014.22-.014.322l4.354-6.58h.98V86h-.756v-5.656c0-.168.005-.336.014-.504.01-.168.014-.313.014-.434L94.956 86h-.966v-7.448h.756v5.194zm13.148-5.334c.523 0 .971.08 1.344.238.373.15.658.369.854.658.196.28.294.625.294 1.036 0 .43-.117.784-.35 1.064-.233.28-.56.48-.98.602v.028c.336.084.621.21.854.378.243.168.425.378.546.63.131.243.196.532.196.868 0 .448-.117.84-.35 1.176-.224.336-.555.597-.994.784-.429.177-.952.266-1.568.266a6.13 6.13 0 01-.952-.07 4.778 4.778 0 01-.812-.168 3.84 3.84 0 01-.616-.252v-.756c.336.168.7.308 1.092.42.392.103.817.154 1.274.154a3.27 3.27 0 001.092-.168c.327-.121.579-.299.756-.532.187-.233.28-.532.28-.896 0-.345-.084-.625-.252-.84-.168-.215-.415-.369-.742-.462-.317-.103-.719-.154-1.204-.154h-.994v-.672h.896c.625 0 1.125-.107 1.498-.322.373-.215.56-.56.56-1.036 0-.42-.154-.737-.462-.952-.299-.224-.733-.336-1.302-.336-.401 0-.761.047-1.078.14a6.175 6.175 0 00-.994.364l-.28-.658a5.77 5.77 0 011.106-.392c.392-.093.821-.14 1.288-.14zm-58.64 15.14v6.762h1.022v3.22h-.785V101h-5.585v2.534h-.77v-3.22h.517c.42-.588.77-1.237 1.05-1.946.28-.71.495-1.47.644-2.282.15-.812.23-1.657.239-2.534h3.668zm-2.94.658a15.223 15.223 0 01-.28 2.282c-.15.728-.35 1.414-.602 2.058a8.769 8.769 0 01-.925 1.764h3.977V94.21h-2.17zm6.296-.658V101h-.784v-7.448h.784zm-.392-2.758c.177 0 .312.056.406.168.093.103.14.247.14.434 0 .196-.047.35-.14.462-.094.103-.229.154-.406.154a.503.503 0 01-.392-.154c-.094-.112-.14-.266-.14-.462 0-.187.046-.331.14-.434a.482.482 0 01.392-.168zm5.494 2.632c.84 0 1.465.205 1.876.616.41.41.616 1.064.616 1.96V101h-.602l-.14-1.26h-.042c-.178.28-.383.527-.616.742-.224.205-.5.369-.826.49-.318.112-.71.168-1.176.168-.467 0-.873-.079-1.218-.238a1.857 1.857 0 01-.798-.714c-.187-.308-.28-.686-.28-1.134 0-.737.303-1.297.91-1.68.606-.392 1.488-.616 2.646-.672l1.358-.056v-.532c0-.737-.15-1.255-.448-1.554-.29-.308-.724-.462-1.302-.462a3.94 3.94 0 00-1.106.154 5.64 5.64 0 00-1.05.406l-.252-.63a5.75 5.75 0 011.148-.434c.42-.112.854-.168 1.302-.168zm.434 3.864c-.943.047-1.648.215-2.114.504-.467.28-.7.705-.7 1.274 0 .457.144.807.434 1.05.289.233.681.35 1.176.35.793 0 1.4-.219 1.82-.658.429-.439.648-1.055.658-1.848v-.728l-1.274.056zm11.832-3.738V101h-.742v-5.236c0-.196.004-.387.013-.574l.029-.602h-.029L66.605 101h-.686L63.3 94.574h-.041c.018.205.027.406.027.602V101h-.727v-7.448h1.078l2.617 6.468 2.647-6.468h1.078zm4.892-.126c.84 0 1.465.205 1.876.616.41.41.616 1.064.616 1.96V101h-.602l-.14-1.26h-.042c-.178.28-.383.527-.616.742-.224.205-.5.369-.826.49-.317.112-.71.168-1.176.168-.467 0-.873-.079-1.218-.238a1.857 1.857 0 01-.798-.714c-.187-.308-.28-.686-.28-1.134 0-.737.303-1.297.91-1.68.606-.392 1.489-.616 2.646-.672l1.358-.056v-.532c0-.737-.15-1.255-.448-1.554-.29-.308-.724-.462-1.302-.462a3.94 3.94 0 00-1.106.154 5.64 5.64 0 00-1.05.406l-.252-.63a5.75 5.75 0 011.148-.434c.42-.112.854-.168 1.302-.168zm.434 3.864c-.943.047-1.648.215-2.114.504-.467.28-.7.705-.7 1.274 0 .457.145.807.434 1.05.29.233.681.35 1.176.35.793 0 1.4-.219 1.82-.658.43-.439.648-1.055.658-1.848v-.728l-1.274.056zm5.238-3.738v3.234h4.564v-3.234h.798V101h-.798v-3.528h-4.564V101h-.798v-7.448h.798zm12.645.686H90.68V101h-.784v-6.762h-2.492v-.686h5.782v.686zm4.146-.812c.84 0 1.465.205 1.876.616.41.41.616 1.064.616 1.96V101h-.602l-.14-1.26h-.042c-.178.28-.383.527-.616.742-.224.205-.5.369-.826.49-.318.112-.71.168-1.176.168-.467 0-.873-.079-1.218-.238a1.857 1.857 0 01-.798-.714c-.187-.308-.28-.686-.28-1.134 0-.737.303-1.297.91-1.68.606-.392 1.488-.616 2.646-.672l1.358-.056v-.532c0-.737-.15-1.255-.448-1.554-.29-.308-.724-.462-1.302-.462a3.94 3.94 0 00-1.106.154 5.64 5.64 0 00-1.05.406l-.252-.63a5.75 5.75 0 011.148-.434c.42-.112.854-.168 1.302-.168zm.434 3.864c-.943.047-1.648.215-2.114.504-.467.28-.7.705-.7 1.274 0 .457.144.807.434 1.05.29.233.681.35 1.176.35.793 0 1.4-.219 1.82-.658.43-.439.648-1.055.658-1.848v-.728l-1.274.056zm11.832-3.738V101h-.742v-5.236c0-.196.004-.387.014-.574l.028-.602h-.028L106.225 101h-.686l-2.618-6.426h-.042c.018.205.028.406.028.602V101h-.728v-7.448h1.078l2.618 6.468 2.646-6.468h1.078zm3.016 5.194v.322c0 .121-.005.247-.014.378 0 .121-.005.243-.014.364a4.026 4.026 0 00-.014.322l4.354-6.58h.98V101h-.756v-5.656c0-.168.005-.336.014-.504.009-.168.014-.313.014-.434L112.825 101h-.966v-7.448h.756v5.194z" fill="#0E0E0E"/><g clip-path="url(#clip0_961_1296)"><path d="M98.692 43.097c.002 0-5.256-8.771-5.256-8.771-.31-.515-1.053-.936-1.653-.936H70.716c-.6 0-1.343.421-1.652.935l-5.262 8.772s-.308.577.227 1.188l16.498 18.842a.953.953 0 00.719.338c.26 0 .521-.113.719-.339L98.44 44.319c.009-.011.014-.022.024-.033.535-.61.227-1.188.227-1.188zm-22.539.106l2.086-8.722h6.021l2.088 8.722H76.153zm10.34 1.095L81.25 61.032l-5.243-16.734h10.487zM70 34.887c.111-.186.5-.406.716-.406h6.402l-2.086 8.721H65.01L70 34.888zm4.865 9.411l5.224 16.671-14.6-16.669h9.375zm7.554 16.654l5.22-16.654h9.37l-14.59 16.654zm5.052-17.75l-2.088-8.72h6.401c.217 0 .606.22.717.405l4.989 8.316H87.47z" fill="#0D4689"/></g><defs><clipPath id="clip0_961_1296"><path fill="#fff" transform="translate(63 28)" d="M0 0h36.364v40H0z"/></clipPath><filter id="filter0_d_961_1296" x="0" y="0" width="162" height="139" filterUnits="userSpaceOnUse" color-interpolation-filters="sRGB"><feFlood flood-opacity="0" result="BackgroundImageFix"/><feColorMatrix in="SourceAlpha" values="0 0 0 0 0 0 0 0 0 0 0 0 0 0 0 0 0 0 127 0" result="hardAlpha"/><feOffset dy="4"/><feGaussianBlur stdDeviation="5"/><feComposite in2="hardAlpha" operator="out"/><feColorMatrix values="0 0 0 0 0.548333 0 0 0 0 0.746378 0 0 0 0 0.979167 0 0 0 0.27 0"/><feBlend in2="BackgroundImageFix" result="effect1_dropShadow_961_1296"/><feBlend in="SourceGraphic" in2="effect1_dropShadow_961_1296" result="shape"/></filter></defs></svg>