<svg width="142" height="119" fill="none" xmlns="http://www.w3.org/2000/svg"><path d="M0 0h132c5.523 0 10 4.477 10 10v99c0 5.523-4.477 10-10 10H0V0z" fill="#fff"/><path d="M.5.5H132a9.5 9.5 0 019.5 9.5v99a9.5 9.5 0 01-9.5 9.5H.5V.5z" stroke="#8CBEFA" stroke-opacity=".72"/><path d="M52.476 87h-.812v-9.268h-3.22v-.728h7.252v.728h-3.22V87zm6.37-7.588c.644 0 1.176.15 1.596.448.43.29.751.69.966 1.204.224.513.336 1.106.336 1.778v.532h-5.32c0 .999.229 1.76.686 2.282.467.523 1.124.784 1.974.784a5.82 5.82 0 001.218-.112 5.674 5.674 0 001.134-.392v.728c-.373.168-.742.29-1.106.364a6.399 6.399 0 01-1.274.112c-.737 0-1.367-.154-1.89-.462a2.99 2.99 0 01-1.176-1.316c-.262-.579-.392-1.25-.392-2.016 0-.765.126-1.442.378-2.03.252-.588.62-1.05 1.106-1.386.485-.345 1.073-.518 1.764-.518zm0 .672c-.69 0-1.246.229-1.666.686-.42.448-.667 1.097-.742 1.946h4.48c0-.523-.075-.98-.224-1.372-.15-.392-.378-.7-.686-.924-.299-.224-.686-.336-1.162-.336zm6.702 3.094l-2.59-3.626h.924l2.142 3.08 2.156-3.08h.91l-2.576 3.626L69.244 87h-.924l-2.296-3.276L63.742 87h-.91l2.716-3.822zm6.061-3.626v3.234h4.564v-3.234h.798V87h-.798v-3.528H71.61V87h-.798v-7.448h.798zm8.613 0V87h-.784v-7.448h.784zm-.392-2.758c.177 0 .313.056.406.168.093.103.14.247.14.434 0 .196-.047.35-.14.462-.093.103-.229.154-.406.154a.503.503 0 01-.392-.154c-.093-.112-.14-.266-.14-.462 0-.187.047-.331.14-.434a.482.482 0 01.392-.168zm6.978 2.758h.91l-3.332 3.612L87.928 87h-.966l-3.472-3.766V87h-.798v-7.448h.798v3.626l3.318-3.626zm1.27 0h.853l1.764 4.634c.103.27.196.523.28.756.084.233.159.453.224.658.066.196.121.378.168.546h.042c.066-.215.154-.49.266-.826.112-.345.243-.719.392-1.12l1.736-4.648h.854l-3.36 8.778a5.81 5.81 0 01-.56 1.106 2.16 2.16 0 01-.728.7c-.28.168-.616.252-1.008.252-.177 0-.34-.014-.49-.042a2.854 2.854 0 01-.406-.084v-.672c.121.028.243.051.364.07.13.028.276.042.434.042.261 0 .49-.056.686-.168.196-.103.369-.266.518-.49a3.61 3.61 0 00.406-.812l.49-1.26-2.926-7.42z" fill="#0E0E0E"/><path d="M89.878 33.92H51.855c-.812 0-1.473.66-1.473 1.47v23.526c0 .81.66 1.47 1.473 1.47H65.11v3.026h-7.498a.938.938 0 00-.937.936v1.069c0 .516.42.936.937.936h29.83c.635 0 1.151-.513 1.151-1.144v-4.823h1.285c.812 0 1.473-.66 1.473-1.47V35.39c0-.81-.661-1.47-1.473-1.47zM51.855 59.584a.67.67 0 01-.67-.668v-2.631h29.13v3.299H76.23l-.008-.002H65.511l-.01.002H51.856zm28.46.802v3.026h-3.69v-3.026h3.69zm-4.494 0v3.026h-9.908v-3.026h9.908zm-18.209 5.165a.132.132 0 01-.133-.133v-1.07c0-.072.061-.133.133-.133h7.89l.01.002h10.71l.01-.002h4.082v.994c0 .106.02.208.047.305.003.012.002.026.005.037H57.612zm30.178-9.667v9.325a.346.346 0 01-.348.342h-5.976a.346.346 0 01-.349-.342V50.66c0-.192.156-.348.349-.348h5.976c.192 0 .348.156.348.348v5.224zm2.758 3.032a.67.67 0 01-.67.668h-1.284v-3.299h1.954v2.63zm0-3.433h-1.954v-4.822c0-.635-.517-1.15-1.151-1.15h-5.977c-.636 0-1.152.516-1.152 1.15v4.822H51.185V35.39c0-.368.3-.668.67-.668h38.023c.37 0 .67.3.67.668v20.093z" fill="#0D4689"/><path d="M76.587 44.742l-11.074-5.529a.402.402 0 00-.582.36v11.061a.401.401 0 00.581.359l11.076-5.535a.4.4 0 000-.717h-.001zm-10.852 5.243v-9.764l9.775 4.88-9.775 4.884zm3.088 9.085h4.084c.627 0 1.138-.51 1.138-1.136 0-.627-.51-1.136-1.138-1.136h-4.084c-.627 0-1.137.51-1.137 1.136 0 .626.51 1.136 1.137 1.136zm0-1.47h4.084a.335.335 0 010 .668h-4.084a.335.335 0 010-.669zm-11.165-.803c-.627 0-1.138.51-1.138 1.136a1.138 1.138 0 002.276 0c0-.626-.51-1.136-1.138-1.136zm0 1.47a.335.335 0 110-.67.335.335 0 010 .67zm-3.12-1.47c-.628 0-1.138.51-1.138 1.136a1.138 1.138 0 002.276 0c0-.626-.51-1.136-1.138-1.136zm0 1.47a.335.335 0 110-.67.335.335 0 010 .67zm31.405-4.612a1.492 1.492 0 00-2.983 0 1.492 1.492 0 002.983 0zm-1.488.684a.688.688 0 01-.691-.684.689.689 0 111.376 0 .686.686 0 01-.685.684zm-1.411 1.695c-.647 0-1.173.525-1.173 1.17a1.173 1.173 0 002.346 0c0-.644-.526-1.17-1.173-1.17zm0 1.54a.37.37 0 11.37-.369c0 .2-.17.37-.37.37zm2.816-1.54c-.646 0-1.172.525-1.172 1.17a1.173 1.173 0 002.345 0c0-.644-.526-1.17-1.172-1.17zm0 1.54a.374.374 0 01-.369-.369.37.37 0 01.74 0c0 .2-.17.37-.37.37zm-2.816 1.123a1.173 1.173 0 00-1.158 1.347c.083.567.58.995 1.158.995a1.174 1.174 0 001.173-1.17c0-.647-.526-1.172-1.173-1.172zm.363 1.231a.367.367 0 01-.363.31.366.366 0 01-.363-.308.653.653 0 01-.007-.062.37.37 0 01.37-.369c.2 0 .37.17.37.37 0 .02-.005.041-.007.06zm2.453-1.231a1.173 1.173 0 00-1.157 1.347c.082.567.58.995 1.158.995a1.174 1.174 0 001.173-1.17c0-.647-.527-1.172-1.174-1.172zm.363 1.231a.366.366 0 01-.362.31.367.367 0 01-.37-.37c0-.2.17-.369.37-.369.2 0 .37.17.37.37 0 .018-.005.04-.008.06zm-3.179 1.432c-.647 0-1.173.526-1.173 1.171a1.173 1.173 0 002.346 0c0-.645-.526-1.17-1.173-1.17zm0 1.54a.366.366 0 01-.37-.369.37.37 0 01.37-.369c.2 0 .37.17.37.37a.37.37 0 01-.37.368zm2.816-1.54c-.646 0-1.172.526-1.172 1.171a1.173 1.173 0 002.345 0c0-.645-.526-1.17-1.172-1.17zm0 1.54a.37.37 0 01-.369-.369c0-.2.17-.369.37-.369.2 0 .37.17.37.37a.37.37 0 01-.37.368z" fill="#0D4689"/></svg>