<svg width="33" height="30" fill="none" xmlns="http://www.w3.org/2000/svg"><g clip-path="url(#clip0_597_3468)" fill="#fff"><path d="M24.797 11.947a974.82 974.82 0 013.1-5.385c.152-.26.356-.56.576-.876.728-1.052 1.632-2.363 1.417-3.583C29.529.077 26.965.035 25.588.021l-.265-.007C24.826.007 24.334 0 23.838 0c-.966 0-1.965.021-2.97.063-1.316.05-2.32.554-3.071 1.536-.627.827-1.214 1.766-1.779 2.67a56.037 56.037 0 01-1.095 1.718 164.123 164.123 0 00-3.088 4.76l-.322.513c-1.406 2.243-2.857 4.564-4.082 7.004-.418.834-.87 1.682-1.304 2.495-.949 1.774-1.926 3.604-2.648 5.553-.362.968-.396 1.753-.113 2.335.372.771 1.293 1.199 2.811 1.304.43.028.864.042 1.293.042.576 0 1.158-.021 1.734-.042.39-.014.773-.028 1.163-.035h.773c.886 0 1.75-.035 2.552-.42 1.75-.85 2.767-2.784 3.743-4.65.277-.525.548-1.044.836-1.541 1.654-2.847 3.314-5.756 4.923-8.568l1.603-2.79zM4.072 26.726c.079-.21.163-.414.27-.673.712-1.683 1.564-3.302 2.389-4.873.434-.827.87-1.654 1.281-2.489 2.044-4.073 4.489-7.803 7.25-11.911.27-.4.547-.793.824-1.185.4-.568.819-1.15 1.197-1.753l.254-.414c.756-1.22 1.406-2.271 2.8-2.53.395-.078.841-.106 1.4-.106.362 0 .729.014 1.09.028.356.014.706.028 1.044.028l.96-.007c.802 0 1.66.028 2.507.21.08.015.17.036.265.05.31.056.69.119.91.294.366.288.57.603.615.96.084.632-.339 1.298-.678 1.83l-.22.358a687.265 687.265 0 00-2.625 4.53c-.971 1.689-1.942 3.393-2.913 5.09l-2.067 3.61a181.2 181.2 0 01-1.586 2.713c-1.062 1.802-2.157 3.66-3.15 5.56-1.435 2.741-3.202 2.986-5.534 3.036-.378.007-.756.02-1.129.035-.581.02-1.163.042-1.744.042-.305 0-.604-.007-.91-.021-.061 0-.13-.007-.208-.007h-.475c-.525 0-1.1-.035-1.4-.323-.508-.477-.632-1.486-.417-2.082zm.694-14.218c2.676 0 4.816-2.068 5.205-5.02.249-1.893.361-3.464-.587-5.034C8.514 1.017 7.431.575 6.104.147l-.017.07-.068-.084a4.214 4.214 0 00-.593-.042C2.823.084.582 2.384.091 5.546c-.249 1.612.017 3.281.74 4.571.683 1.22 1.721 2.033 2.93 2.286.327.07.666.105 1.005.105zM1.254 9.38C.639 8.126.509 6.562.887 5.076 1.537 2.56 3.32.933 5.443.933c.17 0 .339.007.497.028 2.642.862 3.743 2.559 3.472 5.35-.175 1.808-.57 3.617-2.247 4.62-.773.462-1.62.707-2.444.707a4.05 4.05 0 01-.864-.09c-1.107-.232-2.033-1.003-2.603-2.167zm30.984 9.69c-.87-1.437-1.954-1.879-3.28-2.307l-.017.063-.068-.084a4.205 4.205 0 00-.593-.042c-2.597 0-4.838 2.293-5.33 5.455-.248 1.612.017 3.28.74 4.57.683 1.228 1.722 2.041 2.93 2.293.328.07.666.106 1.005.106 2.676 0 4.816-2.062 5.206-5.02.242-1.893.36-3.47-.593-5.034zm.034 3.863c-.175 1.809-.57 3.618-2.247 4.62-.774.463-1.62.708-2.445.708a4.01 4.01 0 01-.864-.09c-1.112-.24-2.033-1.01-2.603-2.174-.615-1.255-.745-2.826-.367-4.305.65-2.517 2.44-4.15 4.556-4.15.17 0 .334.006.497.028 2.643.869 3.744 2.573 3.473 5.363z"/><path d="M5.165 7.537a.752.752 0 00.215-.028c.61-.155.745-1.094.694-1.683-.062-.659-.44-1.1-.937-1.1a.924.924 0 00-.378.083c-.593.225-.926.926-.78 1.634.125.61.65 1.094 1.186 1.094zM4.94 5.616a.512.512 0 01.186-.05c.214 0 .27.232.277.428.005.113.017.666-.254.694-.277 0-.475-.273-.509-.532-.033-.253.08-.456.3-.54zM28.067 21.37a.924.924 0 00-.379.084c-.587.231-.926.932-.779 1.64.124.61.65 1.087 1.191 1.087a.754.754 0 00.215-.028c.61-.154.745-1.094.694-1.683-.067-.659-.44-1.1-.942-1.1zm-.192.89a.513.513 0 01.186-.05c.214 0 .27.232.277.429.005.112.01.659-.26.687-.277 0-.474-.274-.508-.533-.029-.245.084-.449.305-.533zM9.949 28.465h.017c2.586-.134 4.55-.8 5.747-3.618a.486.486 0 00-.005-.407c-.068-.133-.187-.224-.31-.224-.114 0-.215.077-.272.21-1.061 2.51-2.698 3.071-5.166 3.197-.22.007-.327.232-.327.442.005.19.101.4.316.4zm6.056-4.607a.303.303 0 00.249-.133.52.52 0 00.084-.287c0-.21-.112-.42-.327-.42a.303.303 0 00-.248.132.52.52 0 00-.085.288c-.006.21.107.42.327.42z"/></g><defs><clipPath id="clip0_597_3468"><path fill="#fff" d="M0 0h33v30H0z"/></clipPath></defs></svg>