<svg width="26" height="25" fill="none" xmlns="http://www.w3.org/2000/svg"><g clip-path="url(#clip0_703_2256)" fill="#0D4689"><path d="M19.223 20.413V2.596a.28.28 0 00-.28-.28H6.338a.28.28 0 00-.28.28v17.817c0 .155.125.28.28.28h.899v1.313a.96.96 0 001.917 0v-1.312h6.971v1.313a.96.96 0 001.918 0v-1.313h.898a.28.28 0 00.281-.281zm-10.63 1.593a.398.398 0 01-.793 0v-1.312h.794v1.313zm8.889 0a.397.397 0 01-.794 0v-1.312h.794v1.313zm1.18-1.874H6.62V6.74h12.041v13.392zm0-13.954H6.62v-3.3h12.041v3.3z"/><path d="M7.797 14.655h1.315a.28.28 0 00.281-.28v-4.063a.28.28 0 00-.28-.28H7.796a.28.28 0 00-.281.28v4.063c0 .155.125.28.28.28zm.28-4.062h.755v3.5h-.755v-3.5z"/></g><defs><clipPath id="clip0_703_2256"><path fill="#fff" d="M0 0h25.281v25H0z"/></clipPath></defs></svg>