<svg width="64" height="70" fill="none" xmlns="http://www.w3.org/2000/svg"><g clip-path="url(#clip0_844_3024)"><path d="M24.365 13.822V42.79c0 .808.917.811.917 0V13.822c0-.808-.917-.811-.917 0zm4.543 0V42.79c0 .808.917.811.917 0V13.822c0-.808-.917-.811-.917 0z" fill="#4A8FE0"/><path d="M34.855 19.732c-2.293-2.918-6.226-3.806-9.719-2.87-2.616.7-5.99 2.666-5.13 5.884.488 1.824 1.823 3.655 3.632 4.331.975.366 2.028.454 3.049.62 1.148.188 2.277.489 3.372.884 1.524.55 4.25 1.52 4.126 3.555-.095 1.547-1.77 2.644-3.037 3.22-2.035.925-4.515 1.143-6.68.584-1.091-.282-2.09-.755-2.905-1.544-.747-.723-1.291-1.633-1.82-2.518-.157-.263-.481-.22-.648 0-.2.264-.16.658 0 .925.96 1.608 2.045 3.15 3.808 3.942 1.949.875 4.214.968 6.287.557 1.632-.323 3.268-1.008 4.474-2.183 1.234-1.203 1.883-3.025 1.106-4.668-.865-1.825-3.083-2.67-4.873-3.274a20.356 20.356 0 00-3.361-.812c-1.015-.158-2.058-.258-3.002-.694-.92-.426-1.611-1.238-2.118-2.097-.369-.625-.732-1.403-.591-2.146.247-1.31 1.662-2.16 2.774-2.67 3.49-1.592 8.1-1.293 10.609 1.898.495.634 1.013-.458.647-.924z" fill="#4A8FE0"/><path d="M49.877 28.633a21.76 21.76 0 01-4.078 12.631 22.196 22.196 0 01-10.375 7.856 22.32 22.32 0 01-13.637.502c-4.256-1.208-8.121-3.697-10.951-7.097-2.859-3.436-4.657-7.727-4.99-12.191-.338-4.518.726-9.081 3.096-12.95a22.202 22.202 0 019.793-8.63A22.35 22.35 0 0132.21 7.24a22.306 22.306 0 0111.558 6.328 21.798 21.798 0 015.843 11.682c.18 1.12.262 2.249.265 3.383 0 .265.14.649.459.654.317.006.459-.4.458-.654-.014-4.78-1.476-9.496-4.24-13.406-2.669-3.776-6.48-6.724-10.827-8.32-4.526-1.664-9.546-1.84-14.184-.524-4.474 1.27-8.484 3.944-11.433 7.528-3.02 3.668-4.808 8.231-5.176 12.957A23.356 23.356 0 008.198 40.65a23.139 23.139 0 0010.124 9.045c4.38 2.01 9.352 2.548 14.072 1.604 4.564-.912 8.81-3.276 12.009-6.649 3.235-3.41 5.401-7.764 6.114-12.413.182-1.192.273-2.399.277-3.604.001-.265-.142-.648-.458-.654-.319-.006-.458.4-.459.654z" fill="#4A8FE0"/><path d="M54.65 28.634c-.013 5.624-1.717 11.164-4.94 15.785-3.122 4.478-7.575 7.98-12.7 9.89a26.561 26.561 0 01-16.569.625c-5.255-1.525-9.971-4.688-13.405-8.942C3.543 41.664 1.4 36.302.994 30.753c-.414-5.648.88-11.374 3.79-16.244C7.572 9.84 11.733 6.028 16.678 3.742c5.1-2.356 10.939-3.05 16.444-1.905 5.39 1.12 10.321 3.926 14.09 7.926 3.794 4.024 6.281 9.201 7.12 14.658.215 1.396.315 2.802.318 4.213 0 .265.141.648.459.654.317.006.459-.4.458-.654-.013-5.904-1.775-11.741-5.137-16.608-3.212-4.649-7.818-8.317-13.118-10.307C31.84-.336 25.746-.55 20.138 1.09 14.711 2.68 9.882 6.003 6.35 10.398 2.693 14.95.538 20.578.087 26.385A29.453 29.453 0 004.01 43.472c2.857 4.878 7.187 8.866 12.314 11.264 5.293 2.475 11.326 3.142 17.043 1.956 5.536-1.149 10.641-4.096 14.476-8.236a29.032 29.032 0 007.394-15.39c.219-1.466.327-2.95.33-4.432.001-.265-.141-.649-.459-.654-.318-.006-.457.4-.458.654zm7.025 40.04H37.59c-.319 0-.651.027-.97-.005-.41-.04-.82-.28-.998-.662-.104-.227-.082-.467-.082-.71 0-.485-.137-1.21.108-1.655.343-.625 1.007-.611 1.612-.611h23.13c.412 0 .826-.01 1.238 0 .494.012 1.008.234 1.2.724.181.463.057 1.133.057 1.618 0 .741-.411 1.27-1.21 1.301-.618.024-.613 1.332 0 1.308 1.08-.042 1.908-.84 2.091-1.89.103-.592.037-1.234.037-1.83 0-1.336-.783-2.526-2.217-2.54-1.46-.016-2.92 0-4.38 0H41.002c-1.397 0-2.798-.034-4.195 0-.53.013-1.026.173-1.422.536-.656.6-.761 1.396-.761 2.232 0 .653-.078 1.378.14 2.004.301.865 1.068 1.457 1.99 1.49 1.202.04 2.413 0 3.615 0h21.307c.614-.002.616-1.31-.001-1.31z" fill="#4A8FE0"/><path d="M61.675 29.52H36.753c-.918 0-1.669-.75-1.669-1.666v-1.619c0-.916.751-1.667 1.67-1.667h24.921c.918 0 1.67.75 1.67 1.667v1.619c0 .916-.75 1.667-1.67 1.667z" fill="#fff"/><path d="M61.675 28.867H37.59c-.319 0-.651.027-.97-.005-.41-.04-.82-.28-.998-.662-.104-.227-.082-.467-.082-.71 0-.485-.137-1.21.108-1.655.343-.626 1.007-.611 1.612-.611h23.13c.412 0 .826-.01 1.238 0 .494.012 1.008.234 1.2.724.181.463.057 1.133.057 1.618 0 .741-.411 1.27-1.21 1.3-.618.025-.613 1.332 0 1.31 1.08-.043 1.908-.84 2.091-1.891.103-.592.037-1.234.037-1.83 0-1.336-.783-2.526-2.217-2.54-1.46-.016-2.92 0-4.38 0H41.002c-1.397 0-2.798-.034-4.195 0-.53.012-1.026.173-1.422.536-.656.6-.761 1.396-.761 2.232 0 .652-.078 1.378.14 2.004.301.865 1.068 1.457 1.99 1.49 1.202.04 2.413 0 3.615 0h21.307c.614-.002.616-1.31-.001-1.31z" fill="#4A8FE0"/><path d="M60.63 30.175c.024 2.659-.099 5.937-.652 8.545-.364 1.72-.9 4.603-2.449 5.657-.546.372-1.213.512-1.846.703-.753.229-1.481.539-2.167.925-.484.273-.984.633-1.113 1.172-.201.838.593 1.59 1.39 1.92 2.21.913 3.74 1.892 4.83 4.141.768 1.581 1.141 3.32 1.508 5.037.418 1.956.836 3.986.388 5.935H38.154c-.448-1.949-.03-4.54.388-6.496.367-1.718.741-3.455 1.508-5.036 1.09-2.25 2.622-3.228 4.83-4.142.797-.329 1.591-1.082 1.39-1.92-.13-.538-.629-.9-1.113-1.172a10.731 10.731 0 00-2.167-.924c-.634-.192-1.3-.331-1.846-.704-1.548-1.054-2.084-3.938-2.45-5.657-.552-2.609-.643-5.287-.62-7.945" fill="#fff"/><path d="M60.172 30.175c.022 2.85-.08 5.724-.667 8.52-.227 1.078-.45 2.164-.86 3.19-.438 1.1-1.04 1.925-2.201 2.304-1.313.429-2.884.772-3.898 1.786-1.011 1.012-.696 2.541.405 3.344.5.364 1.097.555 1.65.819.508.242 1.002.51 1.46.838.962.69 1.695 1.601 2.203 2.668.749 1.571 1.102 3.284 1.462 4.976.378 1.78.744 3.605.352 5.416l.441-.48H38.152l.442.48c-.292-1.339-.187-2.736.01-4.08.212-1.448.523-2.895.894-4.31.354-1.352.836-2.72 1.682-3.849.678-.904 1.595-1.572 2.598-2.078 1.074-.542 2.407-.877 2.857-2.136.522-1.46-.635-2.421-1.803-3.01-.694-.348-1.418-.599-2.163-.814-.606-.175-1.208-.364-1.667-.817-.753-.74-1.117-1.868-1.386-2.86-.875-3.232-1.11-6.534-1.084-9.87.002-.266-.143-.649-.459-.655-.319-.005-.456.401-.458.655-.024 3.107.186 6.158.867 9.196.248 1.108.54 2.24 1.06 3.256.561 1.094 1.321 1.87 2.515 2.247.728.23 1.453.425 2.15.742.452.205 1.507.593 1.626 1.16.108.517-.778.962-1.14 1.117-.566.242-1.127.492-1.66.797-.99.563-1.862 1.275-2.54 2.196-.83 1.13-1.334 2.465-1.721 3.8a36.531 36.531 0 00-1.052 4.884c-.23 1.573-.351 3.21-.01 4.776.045.212.19.48.441.48h22.367c.253 0 .396-.268.442-.48.344-1.591.202-3.217-.089-4.805-.284-1.548-.613-3.105-1.068-4.612-.4-1.322-.946-2.648-1.82-3.732-.717-.889-1.616-1.564-2.62-2.097-.543-.288-3.172-1.119-2.353-2.03.456-.51 1.22-.806 1.84-1.059.693-.283 1.427-.43 2.123-.699 2.232-.86 2.84-3.637 3.289-5.72.67-3.112.848-6.278.823-9.454-.002-.265-.14-.649-.458-.654-.313-.006-.457.4-.455.654z" fill="#4A8FE0"/><g clip-path="url(#clip1_844_3024)" fill="#4A8FE0"><path d="M55.26 53.986a17.158 17.158 0 011.8 3.048c.221.488.417.984.588 1.486.131.387.46.92.413 1.33-.03.277.007.679.375.797.329.105.63-.197.66-.453.067-.609-.09-1.138-.305-1.715-.222-.597-.416-1.2-.67-1.79a18.414 18.414 0 00-2.102-3.62c-.19-.258-.56-.22-.759 0-.23.257-.191.655 0 .917zm-.654 3.237c.297.408.55.834.753 1.281.15.33.414.79.396 1.146-.013.263.174.642.536.648.38.005.524-.397.536-.648.028-.548-.26-1.142-.476-1.65a8.775 8.775 0 00-.987-1.695c-.188-.258-.56-.22-.758 0-.232.258-.19.655 0 .918z"/></g></g><defs><clipPath id="clip0_844_3024"><path fill="#fff" d="M0 0h63.824v70H0z"/></clipPath><clipPath id="clip1_844_3024"><path fill="#fff" transform="translate(54.445 52.889)" d="M0 0h4.667v7.778H0z"/></clipPath></defs></svg>