<svg width="23" height="23" fill="none" xmlns="http://www.w3.org/2000/svg"><path d="M10.954 3.695V1.967c0-.53-.357-.913-.849-.913-.12 0-.241.023-.363.068L8.63 1.54C8.286 1.242 7.475.735 5.944.735c-.279 0-.574.017-.876.05C1.124 1.22.74 4.616.736 4.65a.367.367 0 00.57.343c.014-.01 1.38-.912 2.498-.912.495 0 1.17.153 1.318 1.466v9.152a.733.733 0 00-.382.641v6.719c0 .405.329.735.732.735H7.03c.403 0 .731-.33.731-.735v-6.72a.734.734 0 00-.381-.64v-9.15c.028-.175.26-1.426 1.095-1.484l1.266.474c.122.046.244.07.363.07a.822.822 0 00.618-.27.941.941 0 00.23-.644zm-4.308 10.91h-.79V5.89h.79v8.715zm.38 7.454h-1.55l-.004-6.72h1.555l-.001 6.72zm3.192-18.364c0 .068-.015.123-.04.152-.007.007-.024.026-.073.026a.308.308 0 01-.104-.022l-1.335-.5a.368.368 0 00-.129-.023c-1.227 0-1.678 1.226-1.825 1.826h-.906C5.509 3.59 4.44 3.345 3.803 3.345c-.746 0-1.545.31-2.116.59.351-.868 1.244-2.175 3.461-2.419a7.41 7.41 0 01.796-.045c1.715 0 2.295.711 2.297.714a.369.369 0 00.426.126l1.334-.5a.303.303 0 01.104-.022c.028 0 .114 0 .114.178v1.728zm3.993 9.325H13.11V1.104a.368.368 0 00-.735 0v11.918H11.27a1.1 1.1 0 00-1.095 1.103v.113a1.1 1.1 0 001.054 1.102v5.985c0 .81.654 1.47 1.459 1.47h.104c.805 0 1.459-.66 1.459-1.47V15.34a1.101 1.101 0 001.054-1.102v-.113a1.1 1.1 0 00-1.095-1.103zm.36 1.217a.364.364 0 01-.36.367h-.327a.367.367 0 00-.367.368v6.352a.73.73 0 01-.724.735h-.104a.73.73 0 01-.724-.735v-6.352a.367.367 0 00-.367-.367h-.327a.364.364 0 01-.36-.368v-.113c0-.203.161-.368.36-.368h2.94c.198 0 .36.165.36.368v.113zM19.913.748a.368.368 0 00-.463.355v2.875h-1.421v-2.75a.368.368 0 00-.502-.343 3.876 3.876 0 00-2.47 3.64 3.91 3.91 0 002.355 3.596v13.202c0 .811.655 1.471 1.459 1.471h.104c.805 0 1.46-.66 1.46-1.47V8.12a3.91 3.91 0 002.358-3.595 3.904 3.904 0 00-2.88-3.778zm.032 6.774a.368.368 0 00-.246.347v13.454a.73.73 0 01-.724.736h-.104a.73.73 0 01-.724-.736V7.87a.368.368 0 00-.246-.347 3.17 3.17 0 01-2.11-2.996c0-1.129.575-2.14 1.502-2.707v2.527c0 .202.165.367.368.367h2.156a.368.368 0 00.368-.367V1.622a3.176 3.176 0 011.873 2.904 3.17 3.17 0 01-2.113 2.996z" fill="#0D4689"/></svg>