<svg width="22" height="25" fill="none" xmlns="http://www.w3.org/2000/svg"><g clip-path="url(#clip0_703_2322)"><path d="M12.386 11.07l2.244-2.617-3.981-3.129-3.982 3.129L8.91 11.07a6.12 6.12 0 00-4.409 5.892 6.154 6.154 0 006.147 6.147 6.154 6.154 0 006.146-6.147c0-2.746-1.8-5.127-4.41-5.892zm-.938.357l.882-2.373a14.04 14.04 0 001.3-.172l-2.182 2.545zM9.494 9.092a19.824 19.824 0 002.31 0l-1.155 3.11-1.155-3.11zm4.97 7.87a3.821 3.821 0 01-3.815 3.817 3.821 3.821 0 01-3.817-3.817 3.82 3.82 0 013.817-3.816 3.82 3.82 0 013.816 3.816zm-1.604-9.29l.887.697c-.285.058-.696.129-1.228.184l.341-.881zm-.394-.31l-.286.739-.821-1.61 1.107.871zM11.9 8.605a18.884 18.884 0 01-2.503 0l1.252-2.449 1.25 2.45zM9.938 6.492L9.117 8.1l-.286-.739 1.108-.87zm-1.502 1.18l.341.881a12.737 12.737 0 01-1.228-.184l.887-.697zm-.77 1.21c.327.06.762.124 1.3.172l.882 2.372-2.182-2.544zm2.982 13.747a5.674 5.674 0 01-5.667-5.667 5.645 5.645 0 014.273-5.492l1.04 1.214a4.299 4.299 0 00-3.942 4.278 4.301 4.301 0 004.296 4.296 4.301 4.301 0 004.296-4.296 4.299 4.299 0 00-3.943-4.278l1.041-1.215a5.65 5.65 0 014.273 5.493 5.674 5.674 0 01-5.667 5.667zm3.77-17.665c.012.492.054.968.117 1.34.07.443.17.739.17.739s.099-.296.169-.74c.063-.371.104-.848.117-1.34a10.28 10.28 0 001.34-.12c.443-.069.739-.166.739-.166s-.296-.097-.74-.167a10.389 10.389 0 00-1.34-.12 10.348 10.348 0 00-.12-1.34c-.069-.443-.166-.738-.166-.738s-.097.295-.167.739a10.37 10.37 0 00-.12 1.339c-.491.013-.967.055-1.34.117-.443.07-.739.17-.739.17s.296.1.74.17a10 10 0 001.34.117zM5.806 5.9c.02.192.05.376.102.523.07.217.169.361.169.361s.1-.144.17-.36a2.43 2.43 0 00.102-.525c.191-.021.375-.053.523-.103.216-.07.36-.167.36-.167s-.144-.097-.36-.167a2.526 2.526 0 00-.525-.103 2.535 2.535 0 00-.103-.524c-.07-.217-.167-.36-.167-.36s-.097.143-.166.36c-.05.147-.083.332-.103.523a2.4 2.4 0 00-.525.102c-.217.07-.361.17-.361.17s.144.1.361.17c.147.05.331.08.523.1z" fill="#0D4689"/></g><defs><clipPath id="clip0_703_2322"><path fill="#fff" d="M0 0h21.739v25H0z"/></clipPath></defs></svg>