<svg width="40" height="34" fill="none" xmlns="http://www.w3.org/2000/svg"><path d="M18.225 23.57a.312.312 0 01-.221-.09l-6.099-6.12a.314.314 0 01.22-.54.319.319 0 01.222.096l6.099 6.12a.314.314 0 01-.22.535zm-1.195 1.201a.308.308 0 01-.221-.091l-6.099-6.12a.315.315 0 01.003-.44.312.312 0 01.439-.003l6.096 6.116a.315.315 0 01-.219.538zm7.406-8.779H14.81a.313.313 0 010-.627h9.626a.313.313 0 010 .627zm-4.816 4.985a2.103 2.103 0 01-1.67-.827 2.118 2.118 0 01.864-3.238 2.098 2.098 0 011.859.122 2.117 2.117 0 01.437 3.323c-.395.398-.93.62-1.49.62zm0-3.599c-.494 0-.956.248-1.23.66a1.49 1.49 0 00.942 2.283c.485.097.986-.056 1.335-.407a1.488 1.488 0 00-1.047-2.536zm0-2.608a2.102 2.102 0 01-1.67-.827 2.119 2.119 0 01-.363-1.833 2.11 2.11 0 011.229-1.404 2.099 2.099 0 011.858.122 2.117 2.117 0 01.435 3.323c-.394.397-.93.62-1.489.618zm0-3.6c-.494 0-.956.248-1.231.66a1.49 1.49 0 00-.137 1.395 1.477 1.477 0 002.415.482 1.488 1.488 0 00-1.047-2.536zm5.528 20.248c-.282 0-.562-.056-.822-.167l-5.902-2.497a.314.314 0 01.242-.578l5.903 2.498a1.51 1.51 0 001.172 0c.379-.154.68-.453.84-.83L33.573 13.2c.339-.805.211-1.501-.569-3.102l-2.24-4.204a.315.315 0 01.12-.436.312.312 0 01.43.14l2.243 4.209.006.01c.767 1.575 1.05 2.52.586 3.627l-6.992 16.64a2.2 2.2 0 01-2.009 1.333z" fill="#fff"/><path d="M16.879 29.505a2.172 2.172 0 01-1.552-.638l-9.104-9.135c-.85-.85-.833-2.247.03-3.113L19.29 3.537c.823-.826 1.547-1.144 3.663-.848l5.009.643c.115.012 1.642.192 2.692 1.246.989.991 1.154 2.596 1.16 2.664l.51 4.86v.011c.126 1.79.029 2.794-.836 3.663L18.45 28.856c-.415.417-.977.65-1.563.649h-.009zm4.745-26.296c-1.055 0-1.437.314-1.892.772L6.695 17.061c-.62.624-.634 1.622-.03 2.227l9.104 9.135c.605.607 1.63.602 2.24-.01l13.037-13.08c.633-.636.78-1.347.656-3.171l-.51-4.858c0-.016-.152-1.452-.98-2.283-.908-.91-2.303-1.066-2.317-1.066h-.008l-5.018-.644a9.095 9.095 0 00-1.245-.102z" fill="#fff"/><path d="M25.733 11.612a2.31 2.31 0 01-1.835-.907 2.327 2.327 0 01.95-3.557 2.305 2.305 0 012.04.134 2.325 2.325 0 01.48 3.65 2.294 2.294 0 01-1.635.68zm0-4.013c-.564 0-1.09.282-1.404.752a1.698 1.698 0 00-.156 1.589 1.684 1.684 0 002.753.548 1.695 1.695 0 00-1.193-2.89z" fill="#fff"/><path d="M27.716 9.364c-.67 0-1.235-.208-1.641-.616a2.096 2.096 0 01-.576-1.178.313.313 0 01.616-.1c.042.314.183.606.402.835.445.447 1.199.551 2.12.295.986-.275 2.023-.922 2.92-1.824 1.78-1.784 2.478-4.1 1.524-5.058-.954-.957-3.263-.257-5.041 1.529a7.89 7.89 0 00-.46.501.312.312 0 01-.44.036.314.314 0 01-.037-.443c.156-.183.322-.364.495-.536.973-.977 2.107-1.682 3.194-1.984 1.149-.32 2.119-.159 2.73.456.613.613.774 1.585.455 2.737-.302 1.091-1.004 2.23-1.979 3.206-.974.976-2.107 1.681-3.194 1.984a4.09 4.09 0 01-1.088.16zm1.832 19.104a.314.314 0 01-.29-.428l.021-.059a.312.312 0 01.578-.011.313.313 0 01.004.24l-.022.058a.312.312 0 01-.291.2zm.478-1.227a.312.312 0 01-.29-.428l.022-.058a.312.312 0 11.582.228l-.023.059a.313.313 0 01-.29.199zm.479-1.226a.314.314 0 01-.292-.428l.023-.058a.312.312 0 01.582.228l-.022.059a.312.312 0 01-.291.199zm.478-1.227a.314.314 0 01-.291-.428l.023-.058a.314.314 0 01.405-.179.314.314 0 01.176.408l-.022.058a.313.313 0 01-.291.2zm.478-1.226a.314.314 0 01-.29-.428l.022-.058a.313.313 0 11.581.228l-.022.058a.312.312 0 01-.291.2zm.477-1.226a.314.314 0 01-.29-.428l.021-.059a.313.313 0 11.583.229l-.023.058a.313.313 0 01-.291.2zm.478-1.227a.314.314 0 01-.291-.428l.023-.059a.313.313 0 11.582.23l-.023.058a.313.313 0 01-.29.2zm.48-1.229a.312.312 0 01-.291-.428l.023-.058a.312.312 0 01.581.228l-.022.058a.313.313 0 01-.291.2zm.48-1.224a.314.314 0 01-.29-.428l.021-.058a.312.312 0 11.582.229l-.023.058a.312.312 0 01-.29.2zm.477-1.226a.314.314 0 01-.29-.428l.022-.058a.312.312 0 11.582.228l-.023.058a.313.313 0 01-.292.2h.001zm-6.058 5.102a.306.306 0 01-.131-.03l-.984-.457a.314.314 0 01.263-.57l.983.459a.313.313 0 01-.131.598zm-.695 1.543a.305.305 0 01-.125-.027L24.186 22.8a.314.314 0 01.255-.573l2.79 1.248a.314.314 0 01-.126.6H27.1zm-.693 1.545a.304.304 0 01-.125-.03l-3.19-1.441a.314.314 0 11.256-.572l3.19 1.443a.314.314 0 01-.128.6h-.003zm-.695 1.542a.312.312 0 01-.128-.028l-3.897-1.764a.314.314 0 01.256-.572l3.901 1.764a.314.314 0 01-.129.6h-.003zm-2.46.745a.31.31 0 01-.128-.028l-1.424-.645a.314.314 0 11.257-.571l1.424.644a.314.314 0 01-.129.6z" fill="#fff"/></svg>