<svg width="38" height="35" fill="none" xmlns="http://www.w3.org/2000/svg"><rect width="38" height="35" rx="3" fill="#0D4689"/><g clip-path="url(#clip0_372_10698)"><path fill-rule="evenodd" clip-rule="evenodd" d="M21 7a1 1 0 011.79-.614l7 9a1 1 0 010 1.228l-7 9A1 1 0 0121 25v-3.99c-5.38.112-7.964 1.133-9.262 2.243-1.234 1.055-1.46 2.296-1.695 3.596l-.06.335A1 1 0 018 27.062c-.17-2.748.086-6.73 2.027-10.061 1.884-3.233 5.277-5.72 10.971-5.98V7z" fill="#FFFEFE"/></g><defs><clipPath id="clip0_372_10698"><path fill="#fff" transform="matrix(-1 0 0 1 31 6)" d="M0 0h24v24H0z"/></clipPath></defs></svg>