<svg width="42" height="30" fill="none" xmlns="http://www.w3.org/2000/svg"><g clip-path="url(#clip0_597_3453)" fill="#fff"><path d="M9.363 6.247c1.44-.007 12.849-.043 12.849-.043.192 0 .454.022.745.05.951.092 2.244.213 2.684-.39.142-.2.206-.526.206-1.023 0-.248-.015-.504-.029-.73a6.11 6.11 0 01-.021-.47l-.071-.035.07-.042-.07-.05c1.888-.021 3.77-.05 5.658-.085 1.17-.022 2.342-.043 3.514-.057.276 0 .418-.22.418-.433a.44.44 0 00-.12-.312.426.426 0 00-.298-.107c-1.172.014-2.343.036-3.514.057-1.86.035-3.727.064-5.587.085V2.13c0-.306.007-.618.021-.93V.994l-.007-.462A.365.365 0 0025.626.2a.372.372 0 00-.241-.085C18.563-.114 12.401 0 6.559.454c-.206.015-.42.17-.42.426.022.277.022.554.022.838 0 .376-.014.745-.021 1.122v.028c-1.91.057-3.82.135-5.729.213-.27.014-.412.227-.412.44 0 .12.043.234.121.305a.385.385 0 00.291.1c1.888-.078 3.784-.156 5.7-.213v.248c0 .163 0 .334.008.497v.107s-.008.426-.008.518c0 .419.05.887.412 1.114.433.277 1.356.185 2.094.107.291-.029.554-.05.746-.057zm.234-5.182c.263 0 .483.007.625 0C14.786.823 19.607.788 24.966.95v.014c0 .064 0 .128-.007.2-.021.304-.021.617-.021.922 0 .213.007 1.058.007 1.27 0 .143 0 .285-.007.44 0 .072.007.185.014.327.014.213.028.483.028.732 0 .51-.07.603-.092.624-.092.064-.83-.028-1.185-.078-.235-.028-.426-.057-.504-.057l-1.655.008c-1.363.007-2.718 0-4.081 0-3.053 0-6.212 0-9.321.056-.15 0-.284.015-.405.022-.412.035-.582.05-.76-.313-.056-.12-.085-.32-.085-.617 0-.185.007-.377.022-.554.007-.15.014-.284.014-.44v-.014c0-.086-.007-.206-.014-.348a14.725 14.725 0 01-.029-.838c0-.433.043-.724.12-.852.278-.426 1.726-.404 2.592-.39zm22.625 12.487c.128-.234.185-.567.185-1.057 0-.298-.022-.618-.043-.909l-.014-.213c1.867-.021 3.727-.05 5.594-.085 1.157-.021 2.321-.043 3.485-.057.263-.007.405-.22.405-.433a.44.44 0 00-.12-.312.426.426 0 00-.292-.114c-1.164.014-2.321.036-3.485.057-1.867.035-3.727.064-5.594.085l.007-.135c.014-.234.028-.49.028-.745 0-.604-.078-1.434-.773-1.732a.492.492 0 00-.2-.057c-1.575-.036-3.655-.064-5.742.028-1.172.05-1.342.355-1.413 1.54-.021.32-.021.647-.021.98v.178c-1.583.043-3.166.057-4.75.07-2.193.03-4.465.05-6.694.136-.27.007-.412.227-.412.44 0 .12.043.234.121.305a.42.42 0 00.291.107c2.23-.086 4.5-.114 6.695-.135a354.15 354.15 0 004.756-.071c.021.56.064 1.114.128 1.633.078.653.17.83.866.908.937.107 1.923.078 2.875.05.51-.014 1.015-.029 1.512-.021.177 0 .376.02.582.042.752.092 1.668.185 2.023-.483zm-6.772-.411a1.02 1.02 0 01-.22.007 3.061 3.061 0 01-.043-.568v-.469c-.007-.305-.028-.61-.05-.915a16.958 16.958 0 01-.056-1.2V9.74c.02-.589.05-.859.596-1 .326-.086.724-.065 1.107-.05.17.007.341.014.49.007 1.257-.022 2.563-.014 3.954 0 .185.135.284.553.284 1.242 0 .298-.021.596-.028.823-.007.143-.014.256-.014.327 0 .12.014.298.028.49.021.248.043.532.043.795 0 .32-.036.54-.107.646-.227.348-1.576.234-2.385.178-.277-.022-.518-.043-.675-.043-.312 0-.639-.014-.965-.036-.653-.028-1.335-.063-1.96.022zm-8.525 16.767c.17 0 .369.022.582.043.738.071 1.654.163 2.009-.504.128-.234.184-.568.184-1.058 0-.298-.021-.61-.042-.901l-.015-.22 3.344-.029c3.415-.028 6.83-.056 10.244-.113.27-.007.412-.22.412-.433a.44.44 0 00-.121-.313.39.39 0 00-.291-.106c-3.415.057-6.83.085-10.244.113l-3.343.029.007-.135c.014-.234.028-.49.028-.745 0-.604-.078-1.434-.774-1.726a.401.401 0 00-.199-.056c-1.568-.036-3.641-.064-5.743.028-1.17.05-1.341.355-1.412 1.54-.021.313-.021.64-.021.966v.192c-1.491.042-2.982.106-4.473.17l-.887.036c-.27.014-.412.227-.412.44 0 .12.043.234.12.305a.385.385 0 00.292.1l.795-.036c1.526-.064 3.045-.128 4.572-.178a22.5 22.5 0 00.127 1.633c.078.653.17.83.866.909.938.106 1.924.078 2.876.05.51.007 1.022-.008 1.519 0zm-4.182-.873a1.02 1.02 0 01-.22.007 3.092 3.092 0 01-.042-.575v-.461c-.007-.305-.029-.61-.05-.916a16.959 16.959 0 01-.057-1.207v-.255c.021-.59.05-.86.596-1.001.327-.085.725-.064 1.108-.05.17.007.34.014.49.007a146.2 146.2 0 013.947 0c.184.135.284.554.284 1.243 0 .298-.021.596-.029.823-.007.142-.014.263-.014.334 0 .12.014.298.029.49.02.248.042.532.042.788 0 .319-.035.539-.106.645-.227.348-1.576.235-2.386.178-.276-.021-.518-.043-.674-.043-.312 0-.639-.014-.965-.035-.646-.021-1.328-.057-1.953.028zm2.051-7.079l7.788-.042c.177 0 .404.021.66.042.88.079 1.98.178 2.392-.383.142-.199.206-.518.206-1.022 0-.248-.014-.504-.028-.731a6.157 6.157 0 01-.021-.469l-.071-.035.07-.043-.07-.05c3.691-.035 7.375-.085 11.06-.142.27-.007.411-.22.411-.433a.44.44 0 00-.12-.312.39.39 0 00-.291-.106c-3.663.056-7.326.106-10.997.142v-.533c0-.305.008-.617.022-.93.007-.064.007-.135.007-.206l-.007-.461a.384.384 0 00-.185-.34.367.367 0 00-.234-.086c-4.295-.142-8.668-.028-13.367.348-.206.014-.42.17-.42.426.022.277.022.553.022.837 0 .377-.014.746-.021 1.122v.021c-1.221.029-2.45.05-3.677.071-1.882.029-3.82.064-5.73.142-.269.007-.411.227-.411.44 0 .121.043.235.12.306a.42.42 0 00.292.106c1.91-.07 3.847-.106 5.729-.142 1.206-.021 2.42-.042 3.655-.078v.27c0 .156 0 .32.008.476v.106l-.008.518c0 .419.05.888.412 1.115.433.277 1.342.184 2.073.106.284-.021.54-.05.731-.05zm1.555-.866l.014-.035c-.32-.39-.639-.774-.958-1.164-.788-.951-1.604-1.931-2.329-2.953.071-.008.15-.022.242-.036.369-.057.76-.078 1.136-.1h.404c.306.363.604.718.902 1.08.887 1.057 1.796 2.158 2.747 3.194-.447 0-2.158.014-2.158.014zm8.632-.397c-.014.284-.057.362-.078.383-.142.142-1.32.064-1.774.05l-.036-.057-.107-.113c-1.263-1.392-2.576-2.833-3.74-4.352a90.803 90.803 0 012.392-.014.376.376 0 00.078.149 141.3 141.3 0 013.201 3.89c.022.035.043.05.064.064zm-6.744-4.004c1.129 1.52 2.393 2.94 3.699 4.38l-1.817.007-.469-.014c-1.129-1.178-2.194-2.456-3.223-3.691l-.525-.625a124.54 124.54 0 012.3-.107c.007.008.021.029.035.05zm-3.386 3.869l.447.547h-.433c-.362 0-.73.007-1.093.014-.07 0-.177.014-.305.028-.305.029-.88.093-1.008-.028-.021-.021-.078-.12-.078-.561 0-.227.014-.476.028-.681.007-.15.014-.277.014-.355l-.014-.398c-.007-.213-.021-.433-.021-.646 0-.37.028-.653.092-.909.745 1.03 1.569 2.024 2.371 2.989zm10.116-3.904v.014c0 .064 0 .128-.007.199-.021.305-.021.617-.021.922l.007 1.534a146.9 146.9 0 00-2.244-2.733l2.265.064z"/></g><defs><clipPath id="clip0_597_3453"><path fill="#fff" transform="rotate(90 20.917 20.917)" d="M0 0h30v41.834H0z"/></clipPath></defs></svg>