<svg width="19" height="18" fill="none" xmlns="http://www.w3.org/2000/svg"><g clip-path="url(#clip0_372_8779)"><path d="M18.019 6.75h-3.06l-3.214-5.352a.564.564 0 00-.966.579l2.867 4.773H4.373L7.24 1.977a.562.562 0 10-.966-.579L3.06 6.75H0v1.125h1.222l1.43 7.623a1.69 1.69 0 001.661 1.377h9.392c.813 0 1.511-.579 1.66-1.377l1.432-7.623h1.222V6.75zm-3.76 8.541a.562.562 0 01-.554.459H4.313a.563.563 0 01-.553-.46L2.368 7.876H15.65l-1.392 7.416z" fill="#fff"/></g><defs><clipPath id="clip0_372_8779"><path fill="#fff" d="M0 0h18.019v18H0z"/></clipPath></defs></svg>