<svg width="75" height="60" fill="none" xmlns="http://www.w3.org/2000/svg"><path d="M43.862 29.29a.576.576 0 00-.576-.576H31.973a1.722 1.722 0 00-1.64 1.242l-2.185 7.91a.577.577 0 00.402.709.576.576 0 00.703-.403l2.181-7.901a.564.564 0 01.538-.405h11.313a.575.575 0 00.578-.576z" fill="#0D4689"/><path d="M63.767 53.373l-3.121-11.302a2.21 2.21 0 00-2.11-1.588h-7.773a2.168 2.168 0 00.18-1.65l-3.121-11.306a2.211 2.211 0 00-2.11-1.586H29.548a2.211 2.211 0 00-2.109 1.593l-3.123 11.29a2.18 2.18 0 00.176 1.657h-7.767a2.21 2.21 0 00-2.11 1.595l-3.122 11.29a2.198 2.198 0 002.109 2.812h22.404a2.177 2.177 0 001.623-.717 2.183 2.183 0 001.629.715h22.395a2.2 2.2 0 002.11-2.803h.004zm-38.175-13.31a1.041 1.041 0 01-.162-.922l3.118-11.291c.132-.446.54-.752 1.005-.755H45.71c.463.003.87.307 1.004.75l3.122 11.296a1.046 1.046 0 01-1.006 1.337H26.428a1.038 1.038 0 01-.835-.413v-.001zM37.63 51.599l-2.631-9.527a2.166 2.166 0 00-.182-.437h5.625c-.077.141-.139.29-.184.444l-2.628 9.52zm-.788 3.012a1.034 1.034 0 01-.835.417H13.604a1.048 1.048 0 01-1.003-1.343l3.118-11.291c.132-.446.54-.753 1.006-.756h16.16c.463.002.87.306 1.005.749l3.121 11.306c.093.315.03.656-.17.918zm25.65 0a1.037 1.037 0 01-.837.417H39.257a1.046 1.046 0 01-1.004-1.343l3.114-11.294c.132-.446.54-.754 1.005-.756h16.161c.463.002.87.306 1.004.749l3.121 11.305c.095.317.032.66-.168.922z" fill="#0D4689"/><path d="M56.11 43.257H44.796a1.716 1.716 0 00-1.64 1.243l-2.184 7.907h-.001a.577.577 0 001.111.308l2.182-7.902a.563.563 0 01.538-.405H56.11a.576.576 0 100-1.151zm-25.648 0H19.148a1.72 1.72 0 00-1.646 1.243l-2.183 7.908a.575.575 0 101.11.307l2.183-7.902a.561.561 0 01.537-.399h11.313a.577.577 0 000-1.151v-.006zM15.17 30.02a.585.585 0 00.153.452.605.605 0 00.445.194.58.58 0 00.572-.645c-.015-.129-.314-3.164 3.599-4.229a.576.576 0 000-1.112c-3.909-1.055-3.614-4.092-3.6-4.23a.585.585 0 00-.152-.45.61.61 0 00-.875 0 .584.584 0 00-.143.452c.015.129.315 3.164-3.598 4.23a.577.577 0 000 1.111c3.913 1.06 3.614 4.1 3.6 4.226zm.586-7.07c.423.815 1.151 1.661 2.4 2.285-1.25.626-1.977 1.472-2.4 2.287-.423-.815-1.152-1.66-2.4-2.287 1.247-.625 1.976-1.47 2.4-2.285zm23.346-4.003c3.913 1.062 3.613 4.102 3.599 4.227a.6.6 0 00.598.648.578.578 0 00.571-.645c-.014-.128-.313-3.164 3.6-4.23a.576.576 0 000-1.112c-3.909-1.055-3.615-4.092-3.6-4.228a.586.586 0 00-.153-.45.608.608 0 00-.874 0 .578.578 0 00-.142.45c.014.129.313 3.164-3.6 4.23h.001a.577.577 0 000 1.111v-.001zm4.184-2.84c.423.814 1.15 1.66 2.4 2.285-1.25.624-1.978 1.47-2.4 2.285-.423-.815-1.151-1.661-2.4-2.285 1.249-.625 1.977-1.471 2.4-2.286zm-22.218-2.804c7.104 1.926 6.527 7.493 6.499 7.727a.587.587 0 00.162.453.625.625 0 00.454.196.576.576 0 00.572-.646c-.028-.234-.605-5.803 6.498-7.734a.576.576 0 000-1.112c-7.103-1.926-6.526-7.494-6.498-7.734a.597.597 0 00-.162-.443.62.62 0 00-.886 0 .575.575 0 00-.139.452c0 .032.019.167.024.38v.097c0 1.427-.516 5.625-6.524 7.251a.577.577 0 000 1.113zm7.093-5.495c.669 1.724 2.103 3.695 5.137 4.938-3.034 1.244-4.468 3.216-5.137 4.94-.67-1.724-2.11-3.696-5.139-4.94 3.034-1.243 4.469-3.215 5.14-4.938h-.001z" fill="#0D4689"/></svg>