<svg width="17" height="17" viewBox="0 0 17 17" fill="none" xmlns="http://www.w3.org/2000/svg">
<path d="M0.353454 13.5064L0.354063 13.5059C0.286813 13.4163 0.254164 13.3054 0.262109 13.1936C0.270055 13.0818 0.318061 12.9766 0.397316 12.8973C0.476571 12.8181 0.581754 12.7701 0.693556 12.7621C0.805356 12.7542 0.916272 12.7868 1.00594 12.8541L1.01439 12.8604L1.01387 12.8609L3.34688 15.1847V0.6875C3.34688 0.564009 3.39593 0.445575 3.48325 0.358253C3.57058 0.270932 3.68901 0.221875 3.8125 0.221875C3.93599 0.221875 4.05443 0.270932 4.14175 0.358254M0.353454 13.5064L4.14175 0.358254M0.353454 13.5064L0.36103 13.514L3.48522 16.6381C3.48536 16.6383 3.48551 16.6384 3.48565 16.6386C3.52806 16.6822 3.57878 16.7169 3.6348 16.7406C3.69102 16.7644 3.75145 16.7767 3.8125 16.7767C3.87355 16.7767 3.93398 16.7644 3.9902 16.7406C4.04623 16.7169 4.09694 16.6822 4.13935 16.6386C4.13949 16.6384 4.13964 16.6383 4.13978 16.6381L7.26315 13.5148C7.26329 13.5146 7.26344 13.5145 7.26359 13.5144C7.30721 13.4719 7.34191 13.4212 7.36562 13.3652C7.38942 13.309 7.40168 13.2485 7.40168 13.1875C7.40168 13.1265 7.38942 13.066 7.36562 13.0098C7.34198 12.9539 7.30743 12.9034 7.264 12.861M0.353454 13.5064L4.27813 15.1847M4.14175 0.358254C4.22907 0.445575 4.27813 0.564009 4.27813 0.6875V15.1847M4.14175 0.358254L4.27813 15.1847M4.27813 15.1847L6.61022 12.8619C6.61037 12.8617 6.61053 12.8615 6.61069 12.8614C6.65309 12.8178 6.70379 12.7831 6.7598 12.7594C6.81602 12.7356 6.87645 12.7233 6.9375 12.7233C6.99855 12.7233 7.05898 12.7356 7.1152 12.7594C7.17107 12.783 7.22166 12.8176 7.264 12.861M7.264 12.861C7.26426 12.8613 7.26452 12.8616 7.26479 12.8619L7.21094 12.9141L7.26315 12.8602C7.26343 12.8605 7.26371 12.8608 7.264 12.861ZM9.73603 3.48603L9.73549 3.48549L9.72906 3.49406C9.66181 3.58373 9.62917 3.69464 9.63711 3.80644C9.64506 3.91825 9.69306 4.02343 9.77232 4.10268C9.85157 4.18194 9.95675 4.22995 10.0686 4.23789C10.1804 4.24584 10.2913 4.21319 10.3809 4.14594L10.3814 4.14653L10.3889 4.13908L12.7219 1.81532V16.3125C12.7219 16.436 12.7709 16.5544 12.8583 16.6417C12.9456 16.7291 13.064 16.7781 13.1875 16.7781C13.311 16.7781 13.4294 16.7291 13.5167 16.6417C13.6041 16.5544 13.6531 16.436 13.6531 16.3125V1.81532L15.9852 4.13814C15.9854 4.1383 15.9855 4.13846 15.9857 4.13862C16.0281 4.18223 16.0788 4.21691 16.1348 4.24062C16.191 4.26442 16.2515 4.27668 16.3125 4.27668C16.3736 4.27668 16.434 4.26442 16.4902 4.24062C16.5461 4.21697 16.5966 4.18242 16.639 4.13898C16.6824 4.09664 16.717 4.04606 16.7406 3.9902C16.7644 3.93398 16.7767 3.87355 16.7767 3.8125C16.7767 3.75145 16.7644 3.69102 16.7406 3.6348C16.7169 3.57877 16.6822 3.52806 16.6386 3.48565C16.6384 3.48551 16.6383 3.48536 16.6381 3.48522L13.5148 0.361855C13.5146 0.361706 13.5145 0.361557 13.5144 0.361409C13.4719 0.317788 13.4212 0.283096 13.3652 0.259379C13.309 0.235581 13.2486 0.223318 13.1875 0.223318C13.1265 0.223318 13.066 0.235581 13.0098 0.259379C12.9538 0.283096 12.9031 0.317788 12.8607 0.361409C12.8605 0.361557 12.8604 0.361706 12.8602 0.361855L9.73603 3.48603Z" fill="#C83138" stroke="#C83138" stroke-width="0.15"/>
</svg>
