<svg width="26" height="25" fill="none" xmlns="http://www.w3.org/2000/svg"><g clip-path="url(#clip0_703_2277)" fill="#0D4689"><path d="M22.477 14.823h-2.41A3.629 3.629 0 0022.25 11.5a3.629 3.629 0 00-3.625-3.625c-.569 0-1.105.135-1.585.37l-1.441-2.48.855-2.735h1.141a.253.253 0 100-.505H14.85a.252.252 0 100 .505h1.075l-.772 2.47H9.364l.554-2.282a.253.253 0 00-.246-.312H7.065a.247.247 0 00-.079.016 1.544 1.544 0 00-1.473 1.54c0 .85.692 1.543 1.543 1.543a.252.252 0 100-.505 1.04 1.04 0 010-2.077c.022 0 .042-.007.062-.012h2.233L8.183 8.229a3.597 3.597 0 00-1.552-.354A3.63 3.63 0 003.006 11.5c0 1.485.898 2.764 2.18 3.323H2.78a.252.252 0 100 .505h19.697a.253.253 0 100-.505zM18.624 8.38c1.72 0 3.12 1.4 3.12 3.12 0 1.72-1.4 3.12-3.12 3.12a3.123 3.123 0 01-3.04-2.424l2.021-.292a1.098 1.098 0 101.019-1.502c-.106 0-.206.02-.302.048l-1.028-1.768a3.096 3.096 0 011.33-.302zm-3.12 3.12a3.12 3.12 0 011.351-2.568l1.026 1.765a1.09 1.09 0 00-.345.707l-2.022.292c-.004-.065-.01-.13-.01-.196zm3.12-.593a.593.593 0 11-.001 1.187.593.593 0 010-1.187zM16.6 8.494A3.624 3.624 0 0015 11.5c0 .09.007.18.013.268l-.674.098a1.128 1.128 0 00-.478-.542l1.534-4.905L16.6 8.494zm-3.3 3.18a.62.62 0 11-.002 1.24.62.62 0 01.001-1.24zm1.694-5.669l-1.617 5.171c-.026-.002-.051-.008-.078-.008-.164 0-.32.037-.46.101L9.123 6.497l.119-.492h5.752zM3.51 11.5c0-1.72 1.4-3.12 3.12-3.12a3.1 3.1 0 011.43.35l-.144.598-.856 1.162a1.1 1.1 0 00-1.528 1.01 1.1 1.1 0 001.098 1.098c.605 0 1.097-.493 1.097-1.098 0-.27-.102-.515-.264-.706l.89-1.208a.251.251 0 00.042-.09l.116-.48A3.117 3.117 0 019.749 11.5c0 1.72-1.399 3.12-3.12 3.12-1.72 0-3.12-1.4-3.12-3.12zm3.712 0a.593.593 0 11-1.186-.001.593.593 0 011.186 0zm3.032 0A3.624 3.624 0 008.64 8.486l.33-1.362 3.468 4.453a1.114 1.114 0 00-.264.716 1.123 1.123 0 002.242.072l.666-.096a3.637 3.637 0 002.097 2.554H8.075a3.63 3.63 0 002.18-3.323zm12.223 10.722H2.78a.252.252 0 100 .505h19.697a.253.253 0 100-.505zm0-3.699H2.78a.252.252 0 100 .505h19.697a.253.253 0 100-.505z"/></g><defs><clipPath id="clip0_703_2277"><path fill="#fff" d="M0 0h25.253v25H0z"/></clipPath></defs></svg>