<svg viewBox="0 0 21 20" xmlns="http://www.w3.org/2000/svg" xmlns:xlink="http://www.w3.org/1999/xlink"><style>:root&gt;svg{display:none}:root&gt;svg:target{display:block}</style><svg viewBox="0 0 13 8" id="css--menu-arrow" xmlns="http://www.w3.org/2000/svg"><path d="M6.5 7a.875.875 0 01-.56-.201L.69 2.424a.876.876 0 011.12-1.348l4.69 3.92 4.69-3.78a.875.875 0 011.233.131.876.876 0 01-.123 1.278L7.05 6.85A.875.875 0 016.5 7z"/></svg><svg viewBox="0 0 21 19" id="sprite--like" xmlns="http://www.w3.org/2000/svg"><path d="M2.306 2.277C4.468.031 8.146.1 10.349 2.304l.46.467.458-.458C13.471.1 17.148.03 19.311 2.277a5.563 5.563 0 01-.076 7.79l-.561.562-7.585 7.584a.397.397 0 01-.564 0l-8.144-8.146a5.563 5.563 0 01-.075-7.79z"/></svg><svg viewBox="0 0 20 20" id="sprite--part" xmlns="http://www.w3.org/2000/svg"><path d="M17.401 10.939a.794.794 0 01.189.61 8.482 8.482 0 01-8.427 7.507c-4.682 0-8.491-3.77-8.491-8.406 0-4.27 3.357-7.943 7.643-8.363a.765.765 0 01.842.76v7.622h7.675c.217 0 .425.107.57.27zm1.735-2.75C18.74 4.13 15.695 1.153 11.512.761a.76.76 0 00-.83.76v6.887c0 .42.337.735.758.735h6.964a.752.752 0 00.763-.75.668.668 0 00-.031-.204z"/></svg></svg>