<svg width="20" height="21" fill="none" xmlns="http://www.w3.org/2000/svg"><path d="M15.333 7.667V5.292c1.125-.209 2-1.167 2-2.375A2.418 2.418 0 0014.917.5 2.418 2.418 0 0012.5 2.917c0 1.208.875 2.166 2 2.375v2.375c-.5.833-3.75 6.625-3.75 8.666a4.179 4.179 0 004.167 4.167 4.179 4.179 0 004.166-4.167c-.041-2.041-3.291-7.791-3.75-8.666zm-2-4.75a1.583 1.583 0 113.166-.002 1.583 1.583 0 01-3.166.002zm1.584 16.75a3.343 3.343 0 01-3.334-3.334c0-1.416 2.125-5.583 3.334-7.708 1.166 2.125 3.333 6.25 3.333 7.708-.042 1.834-1.5 3.334-3.333 3.334zM5.5 5.292c1.124-.209 2-1.209 2-2.375A2.418 2.418 0 005.082.5a2.418 2.418 0 00-2.417 2.417c0 1.208.875 2.166 2 2.375v2.375c-.5.833-3.75 6.625-3.75 8.666A4.179 4.179 0 005.083 20.5a4.179 4.179 0 004.166-4.167C9.25 14.292 6 8.5 5.5 7.667V5.292zm-2-2.375a1.583 1.583 0 113.165-.002 1.583 1.583 0 01-3.166.002zm1.583 16.75a3.343 3.343 0 01-3.334-3.334c0-1.416 2.125-5.583 3.334-7.708 1.166 2.125 3.333 6.25 3.333 7.708 0 1.834-1.5 3.334-3.333 3.334z" fill="#0D4689"/></svg>