<svg width="23" height="21" fill="none" xmlns="http://www.w3.org/2000/svg"><path d="M1.22 16.108h7.909l-.69 2.261H6.575a.325.325 0 00-.325.325v1.013c0 .179.145.324.325.324h10.071c.18 0 .325-.145.325-.324v-1.013a.325.325 0 00-.325-.325h-1.864l-.69-2.26h7.91c.18 0 .324-.146.324-.325V.917a.325.325 0 00-.324-.325H1.219a.325.325 0 00-.324.325v14.867c0 .18.145.324.324.324zm13.32 2.912h1.781v.363H6.898v-.363h7.642zm-.438-.65H9.118l.69-2.26h3.606l.69 2.26zM1.543 1.242h20.134v12.503H1.544V1.242zm0 13.152h20.134v1.065H1.544v-1.065z" fill="#0D4689"/></svg>