<svg width="247" height="263" fill="none" xmlns="http://www.w3.org/2000/svg"><path fill-rule="evenodd" clip-rule="evenodd" d="M4 8a4 4 0 100-8 4 4 0 000 8zm234 25.5a2.5 2.5 0 11-5 0 2.5 2.5 0 015 0zm6.5 23.5a2.5 2.5 0 100-5 2.5 2.5 0 000 5zm2.5 17.5a2.5 2.5 0 11-5 0 2.5 2.5 0 015 0zM245 96a2 2 0 100-4 2 2 0 000 4zm2 18a2 2 0 11-3.999.001A2 2 0 01247 114zm-2 22a2 2 0 10.001-3.999A2 2 0 00245 136zm2 18a2 2 0 11-3.999.001A2 2 0 01247 154zm-1.5 21a1.5 1.5 0 10-.001-3.001A1.5 1.5 0 00245.5 175zm1.5 18.5a1.5 1.5 0 11-3.001-.001 1.5 1.5 0 013.001.001zm-1.5 21.5a1.5 1.5 0 10-.001-3.001A1.5 1.5 0 00245.5 215zm-1.5 18.5a1.5 1.5 0 11-3.001-.001 1.5 1.5 0 013.001.001zm-8 17.5a1 1 0 100-2 1 1 0 000 2zM217 28.5a2.5 2.5 0 11-5 0 2.5 2.5 0 015 0zM193.5 31a2.5 2.5 0 100-5 2.5 2.5 0 000 5zM176 29a3 3 0 11-6 0 3 3 0 016 0zm-24 3a3 3 0 100-6 3 3 0 000 6zm-18-3a3 3 0 11-6 0 3 3 0 016 0zm-24 3a3 3 0 100-6 3 3 0 000 6zm-18-3a3 3 0 11-6 0 3 3 0 016 0zm-23.5 3a3.5 3.5 0 100-7 3.5 3.5 0 000 7zM52 28.5a3.5 3.5 0 11-7 0 3.5 3.5 0 017 0zM27.5 32a3.5 3.5 0 100-7 3.5 3.5 0 000 7zM11 25a4 4 0 11-8 0 4 4 0 018 0zm217 238a1 1 0 100-2 1 1 0 000 2z" fill="url(#paint0_linear_679_2271)"/><defs><linearGradient id="paint0_linear_679_2271" x1="4.73" y1="1" x2="267.83" y2="28.067" gradientUnits="userSpaceOnUse"><stop stop-color="#C6C3C3" stop-opacity=".53"/><stop offset="1" stop-color="#70AAEF" stop-opacity=".25"/></linearGradient></defs></svg>