<svg width="27" height="21" fill="none" xmlns="http://www.w3.org/2000/svg"><path d="M25.627.075H1.901a.92.92 0 00-.919.919v14.703a.92.92 0 00.92.92h8.27v1.89H5.494a.586.586 0 00-.585.585v.669c0 .322.262.585.585.585h18.613a.718.718 0 00.718-.716v-3.014h.802a.92.92 0 00.92-.918V.993a.92.92 0 00-.92-.919zM1.901 16.115a.418.418 0 01-.417-.418v-1.644h18.175v2.062h-2.547l-.006-.001h-6.683l-.006.001H1.901zm17.758.501v1.892h-2.302v-1.892h2.302zm-2.803 0v1.892h-6.182v-1.892h6.182zM5.494 19.845a.083.083 0 01-.083-.084v-.668c0-.046.038-.084.083-.084h4.923l.006.002h6.683l.006-.002h2.547v.622c0 .066.013.13.03.19.002.008 0 .016.003.023H5.494zm18.83-6.042v5.828a.216.216 0 01-.217.213h-3.73a.216.216 0 01-.216-.213v-9.094c0-.12.097-.217.217-.217h3.73c.119 0 .216.098.216.217v3.266zm1.721 1.894c0 .23-.187.418-.417.418h-.802v-2.062h1.22v1.644zm0-2.145h-1.22v-3.014a.72.72 0 00-.718-.719h-3.73a.72.72 0 00-.718.719v3.014H1.484V.994c0-.23.187-.418.417-.418h23.726c.23 0 .418.187.418.418v12.558z" fill="#0D4689"/><path d="M17.334 6.838l-6.91-3.455a.25.25 0 00-.364.224v6.914a.251.251 0 00.363.224l6.911-3.459a.25.25 0 000-.448zm-6.772 3.278V4.013l6.1 3.05-6.1 3.053zm1.928 5.677h2.547a.71.71 0 000-1.42H12.49a.71.71 0 000 1.42zm0-.919h2.547a.21.21 0 010 .418H12.49a.21.21 0 010-.418zm-6.968-.501a.71.71 0 10.002 1.422.71.71 0 00-.002-1.422zm0 .92a.21.21 0 11.001-.42.21.21 0 010 .42zm-1.947-.92a.71.71 0 10.002 1.422.71.71 0 00-.002-1.422zm0 .92a.21.21 0 110-.42.21.21 0 010 .42zm19.597-2.883a.932.932 0 10-1.861 0 .932.932 0 001.86 0zm-.93.427a.43.43 0 11-.001-.86.43.43 0 01.002.86zm-.879 1.059a.733.733 0 10.001 1.465.733.733 0 00-.001-1.465zm0 .963a.231.231 0 11.23-.23c0 .124-.105.23-.23.23zm1.757-.963a.732.732 0 10.002 1.465.732.732 0 00-.002-1.465zm0 .963a.234.234 0 01-.23-.23.23.23 0 01.46 0c0 .124-.105.23-.23.23zm-1.757.701a.733.733 0 000 1.465.733.733 0 000-1.464zm.226.77a.23.23 0 01-.226.193.228.228 0 01-.227-.192c-.001-.012-.004-.026-.004-.038 0-.127.104-.231.23-.231s.231.106.231.23a.222.222 0 01-.004.038zm1.531-.77a.733.733 0 000 1.464.733.733 0 000-1.463zm.227.77a.229.229 0 01-.453 0 .258.258 0 01-.004-.037c0-.125.105-.231.23-.231a.233.233 0 01.227.268zm-1.984.895a.733.733 0 10.001 1.465.733.733 0 00-.001-1.465zm0 .962a.231.231 0 010-.461c.125 0 .23.106.23.23a.23.23 0 01-.23.231zm1.757-.962a.732.732 0 10.002 1.465.732.732 0 00-.002-1.465zm0 .962a.23.23 0 01-.23-.23c0-.125.105-.23.23-.23s.23.105.23.23a.23.23 0 01-.23.23z" fill="#0D4689"/></svg>