<svg width="70" height="70" fill="none" xmlns="http://www.w3.org/2000/svg"><g clip-path="url(#clip0_844_2913)" fill="#4A8FE0"><path d="M5.736 21.786l8.241-2.983 13.113-4.746 2.98-1.08c.462-.167.32-1.24-.205-1.05l-8.241 2.983L8.51 19.656l-2.98 1.08c-.462.167-.32 1.24.205 1.05zM39.605 9.881l8.241-2.983L60.96 2.152l2.98-1.079c.463-.167.32-1.241-.205-1.05l-8.24 2.983C51.121 4.587 46.75 6.17 42.38 7.752L39.4 8.83c-.462.167-.32 1.24.206 1.05zm-5.355 6.491v46.332c0 2.13-.057 4.264 0 6.394v.086c0 .332.232.81.752.816.523.007.753-.5.753-.816V22.853c0-2.13.056-4.265 0-6.394v-.087c0-.332-.232-.809-.753-.816-.522-.007-.752.5-.752.816z"/><path d="M39.026 11.275c-.02 1.718-1.168 3.222-2.796 3.798-1.66.587-3.607.1-4.753-1.234-1.115-1.3-1.296-3.189-.362-4.64.95-1.475 2.773-2.235 4.51-1.89 1.912.378 3.379 2.028 3.401 3.966.003.22.118.54.386.545.266.004.389-.334.386-.545-.024-2.105-1.284-4.085-3.314-4.83-1.996-.733-4.247-.079-5.585 1.535-1.388 1.673-1.52 4.113-.436 5.968 1.052 1.802 3.2 2.764 5.263 2.364 2.417-.468 4.044-2.654 4.072-5.038.003-.22-.12-.54-.386-.544-.269-.004-.383.334-.386.545z"/><path d="M33.695 7.778c-1.103.026-1.8.92-2.264 1.68-.586.964-.286 1.902.286 2.807.17.268.557.209.743 0 .237-.267.171-.637 0-.91-.13-.204-.3-.469-.316-.706-.017-.257.153-.476.308-.686.297-.398.63-.885 1.244-.9.706-.015.703-1.3-.001-1.285zM16.393 69.963h32.054c1.474 0 2.975.083 4.448 0h.065c.517 0 .519-1.089 0-1.089H20.906c-1.475 0-2.976-.082-4.449 0-.021.002-.042 0-.064 0-.518 0-.52 1.09 0 1.09zm27.548-32.257h25.596c.517 0 .52-1.089 0-1.089H43.941c-.517 0-.519 1.09 0 1.09zM12.95 22.701c-.282.013-.547.116-.828.128-.161.007-.275.13-.333.27-.152.372-.342.726-.537 1.077-.198.356-.33.685-.455 1.073-.28.868-.584 1.729-.904 2.584a90.34 90.34 0 01-2.041 4.96c-1.491 3.364-3.124 6.663-4.644 10.014-.74 1.63-1.472 3.27-2.104 4.944C.49 49.38-.01 51.094 0 52.847c.018 3.184 1.921 5.962 4.553 7.68 1.35.88 2.844 1.516 4.386 1.984 1.647.5 3.389.822 5.116.7 3.322-.236 5.958-2.332 8.331-4.458 1.097-.982 2.148-2.057 2.852-3.356.763-1.406.952-2.966.622-4.523-.367-1.729-1.17-3.366-1.84-4.993l-2.128-5.164a15922.82 15922.82 0 00-4.26-10.325c-.687-1.665-1.37-3.333-2.146-4.962-.186-.39-.37-.78-.563-1.166-.165-.333-.335-.729-.627-.974-.417-.351-1.12-.695-1.678-.704-.688-.01-1.01.66-1.22 1.213-.09.234-.077.578.138.746.204.16.446.021.528-.196.076-.2.195-.57.402-.66.226-.1.597.082.796.175.243.113.55.242.719.452.255.318.4.76.578 1.123.732 1.508 1.391 3.045 2.032 4.592 1.333 3.217 2.658 6.438 3.986 9.657 1.311 3.18 2.676 6.346 3.929 9.55.562 1.438 1.025 2.996.544 4.522-.408 1.295-1.319 2.387-2.277 3.328a31.105 31.105 0 01-3.313 2.819c-1.228.906-2.577 1.67-4.08 2.02-1.598.372-3.307.244-4.895-.113a18.629 18.629 0 01-4.353-1.548C3.566 58.958 1.268 56.711.84 53.78c-.236-1.614.154-3.265.68-4.785.55-1.59 1.238-3.138 1.923-4.676 2.762-6.207 6.015-12.23 8.084-18.717.22-.69.656-1.283.93-1.953l-.333.27c.282-.013.547-.116.828-.128.518-.022.513-1.11-.002-1.089z"/><path d="M57.588 7.24c-1.778-.602-2.805 1.799-3.377 3.019-.753 1.6-1.33 3.272-1.91 4.938-.59 1.695-1.185 3.392-1.964 5.013-.822 1.71-1.752 3.363-2.53 5.095-.789 1.755-1.53 3.53-2.286 5.298-.729 1.7-1.645 3.429-1.942 5.269-.245 1.506-.086 3.056.521 4.464.573 1.328 1.49 2.475 2.54 3.47 1.14 1.081 2.454 2.042 3.795 2.866.725.446 1.477.853 2.285 1.13.803.276 1.64.392 2.486.45 3.265.223 6.492-.602 9.216-2.398 1.38-.91 2.732-2.056 3.703-3.394.92-1.268 1.675-2.856 1.847-4.417.096-.876-.068-1.67-.302-2.512a32.34 32.34 0 00-.872-2.68c-.653-1.753-1.432-3.456-2.195-5.164-1.578-3.535-3.097-7.1-4.448-10.727-.656-1.761-1.307-3.524-1.972-5.283-.425-1.123-.761-2.284-1.407-3.311-.291-.465-.672-.901-1.188-1.126-.756-.33-.987 1.28-.308 1.576.342.149.612.561.819.945.265.492.465 1.024.657 1.547.48 1.31.987 2.608 1.465 3.918a192.13 192.13 0 004.055 10.258c1.394 3.233 3.006 6.411 4.067 9.772.216.684.514 1.46.512 2.172-.002.66-.218 1.31-.468 1.914-.57 1.38-1.43 2.537-2.547 3.535-2.272 2.033-5.012 3.41-8.089 3.708-1.498.146-3.155.15-4.597-.318-1.52-.493-2.83-1.427-4.098-2.363-2.024-1.492-4.094-3.428-4.405-6.043-.173-1.464.332-2.84.898-4.168.729-1.706 1.461-3.411 2.191-5.117.7-1.635 1.403-3.27 2.215-4.856.792-1.546 1.608-3.065 2.247-4.681.616-1.56 1.132-3.155 1.701-4.732.553-1.533 1.13-3.118 1.972-4.524.269-.45.78-1.181 1.405-.97.795.272 1.008-1.336.308-1.573z"/><path d="M61.642 25.753l-3.275 3.235-5.252 5.188-1.2 1.186c-.192.19-.444-.008-.528-.195a.683.683 0 01.139-.746l3.275-3.235c1.75-1.73 3.501-3.46 5.252-5.188l1.2-1.186c.192-.19.444.008.528.195a.682.682 0 01-.14.746zM.504 52.836h24.728c.518 0 .52-1.09 0-1.09H.504c-.518 0-.52 1.09 0 1.09zM52.002 25.68c.048 1.644 2.884 1.649 2.884 0 0-1.648-2.836-1.645-2.884 0-.006.221-.114.54-.386.545-.263.004-.392-.334-.386-.545.028-.942.527-1.852 1.448-2.207.887-.343 1.88-.032 2.466.693 1.258 1.558.007 4.242-2.12 3.819-1.108-.221-1.763-1.235-1.794-2.304-.006-.221.124-.54.386-.545.272-.005.38.333.386.544zm6.225 9.894c.048 1.644 2.884 1.648 2.884 0 0-1.65-2.836-1.645-2.884 0-.007.22-.115.54-.386.544-.264.005-.393-.334-.386-.544.027-.943.526-1.853 1.447-2.208.888-.342 1.881-.032 2.466.694 1.259 1.558.007 4.241-2.12 3.818-1.107-.22-1.762-1.235-1.793-2.304-.007-.22.123-.54.386-.544.271-.006.38.333.386.544z"/><path d="M11.434 36.283v19.374c0 .673.771.676.771 0V36.284c0-.672-.771-.675-.771 0zm3.07 0v19.374c0 .673.772.676.772 0V36.284c0-.672-.772-.675-.772 0z"/><path d="M18.652 40.161c-1.547-1.94-4.163-2.567-6.532-1.975-1.807.45-4.036 1.698-3.684 3.86.2 1.223 1.121 2.514 2.242 3.07.624.31 1.336.399 2.018.498.761.112 1.508.272 2.24.509.697.224 1.41.49 2.039.866.493.296 1.023.724 1.09 1.329.116 1.035-1.056 1.822-1.871 2.21-1.368.651-3.05.82-4.524.465-.725-.176-1.402-.474-1.953-.98-.53-.489-.911-1.117-1.28-1.728-.132-.22-.405-.183-.546 0-.168.22-.134.548 0 .77.653 1.082 1.392 2.112 2.586 2.653 1.307.593 2.843.66 4.239.397 2.093-.396 4.864-2.07 3.966-4.57-.453-1.263-1.89-1.87-3.063-2.3a13.702 13.702 0 00-2.257-.604c-.69-.125-1.404-.167-2.071-.397-.677-.232-1.182-.69-1.575-1.272-.274-.405-.59-.948-.545-1.456.077-.877 1.082-1.469 1.802-1.798 2.339-1.073 5.444-.895 7.135 1.223.418.526.853-.383.544-.77z"/></g><defs><clipPath id="clip0_844_2913"><path fill="#fff" d="M0 0h70v70H0z"/></clipPath></defs></svg>