<svg width="464" height="123" fill="none" xmlns="http://www.w3.org/2000/svg"><path fill-rule="evenodd" clip-rule="evenodd" d="M.857 5.837a5.575 5.575 0 1111.15 0 5.575 5.575 0 01-11.15 0zm0 34.307a5.575 5.575 0 1111.15 0 5.575 5.575 0 01-11.15 0zM12.865 68.02a5.146 5.146 0 100 10.291 5.146 5.146 0 000-10.291zm24.871 19.726a5.146 5.146 0 1110.292 0 5.146 5.146 0 01-10.292 0zm42.456-1.716a4.717 4.717 0 100 9.435 4.717 4.717 0 000-9.434zm37.738 0a4.717 4.717 0 100 9.435 4.717 4.717 0 000-9.434zm33.019 5.147a4.289 4.289 0 118.577 0 4.289 4.289 0 01-8.577 0zm42.027-4.289a4.288 4.288 0 100 8.576 4.288 4.288 0 000-8.576zm33.45 4.289a4.288 4.288 0 118.577 0 4.288 4.288 0 01-8.577 0zm41.596-4.289a3.86 3.86 0 100 7.72 3.86 3.86 0 000-7.72zm33.878 3.86a3.86 3.86 0 117.72 0 3.86 3.86 0 01-7.72 0zm41.596-3.86a3.86 3.86 0 100 7.72 3.86 3.86 0 000-7.72zm33.879 3.43a3.43 3.43 0 116.862.001 3.43 3.43 0 01-6.862 0zm41.169-2.572a3.43 3.43 0 100 6.861 3.43 3.43 0 000-6.861zm30.876 4.717a3.002 3.002 0 116.004 0 3.002 3.002 0 01-6.004 0zm12.007 24.867a2.572 2.572 0 10-.001 5.145 2.572 2.572 0 00.001-5.145z" fill="url(#paint0_linear_439_308)"/><defs><linearGradient id="paint0_linear_439_308" x1="11.559" y1=".262" x2="434.996" y2="176.202" gradientUnits="userSpaceOnUse"><stop stop-color="#C6C3C3" stop-opacity=".53"/><stop offset="1" stop-color="#70AAEF" stop-opacity=".25"/></linearGradient></defs></svg>