<svg width="50" height="50" fill="none" xmlns="http://www.w3.org/2000/svg"><circle cx="25" cy="25" r="25" fill="#4A8FE0"/><path d="M30.947 21.943c.735-.158 1.413-.765 1.523-2.112.091-1.103-.192-1.671-.61-1.96 1.16-4.725-2.037-5.65-2.037-5.65s-2.39-4.053-7.05-1.209c-.594.362-1.515 1.055-2.064 1.77-.882.939-1.483 2.464-1.577 4.934-.569.217-1.016.767-.905 2.114.117 1.409.851 2.008 1.625 2.13 1.043 2.543 3.104 4.638 5.543 4.638 2.444 0 4.51-2.105 5.552-4.656zm-5.552 3.47c-2.82 0-5.09-3.83-5.09-7 0-.435.013-.838.04-1.212 4.125.18 6.564-1.473 7.892-2.908 1.26 1.255 1.914 2.84 2.248 4.017v.102c.001 3.171-2.27 7-5.09 7zm-1.615 4.794l.326-1.352a.788.788 0 01.227-.392 1.791 1.791 0 01-.098-.074l-2.916-2.415-1.775.415c-3.006.707-5.124 3.246-5.124 6.158v3.823c0 .752.67 1.353 1.47 1.353h7.514l1.145-6.531a.797.797 0 01-.77-.985zm7.36-3.818l-1.75-.415-2.914 2.414a1.844 1.844 0 01-.098.075.79.79 0 01.23.392l.325 1.351a.797.797 0 01-.77.985l1.146 6.532h7.513c.801 0 1.41-.6 1.41-1.353v-3.823c.002-2.912-2.086-5.45-5.092-6.158z" fill="#fff"/></svg>