<svg width="18" height="18" viewBox="0 0 18 18" fill="none" xmlns="http://www.w3.org/2000/svg">
<g clip-path="url(#clip0_2_201)">
<path d="M8.99998 9.02316C4.25647 9.02316 0.397217 12.8825 0.397217 17.6259C0.397217 17.8324 0.564796 18 0.771262 18C0.977729 18 1.14531 17.8324 1.14531 17.6259C1.14531 13.2946 4.6687 9.77122 9.00001 9.77122C13.3313 9.77122 16.8547 13.2946 16.8547 17.6259C16.8547 17.8324 17.0223 18 17.2288 18C17.4352 18 17.6028 17.8324 17.6028 17.6259C17.6028 12.8817 13.7435 9.02316 8.99998 9.02316Z" fill="#4A8FE0" stroke="#4A8FE0" stroke-width="0.5"/>
<path d="M8.99998 0C6.73183 0 4.88562 1.84547 4.88562 4.11436C4.88562 6.38325 6.73186 8.22871 8.99998 8.22871C11.2681 8.22871 13.1143 6.38325 13.1143 4.11436C13.1143 1.84547 11.2681 0 8.99998 0ZM8.99998 7.48066C7.14402 7.48066 5.63367 5.97031 5.63367 4.11436C5.63367 2.2584 7.14402 0.748055 8.99998 0.748055C10.8559 0.748055 12.3663 2.2584 12.3663 4.11436C12.3663 5.97031 10.8559 7.48066 8.99998 7.48066Z" fill="#4A8FE0" stroke="#4A8FE0" stroke-width="0.5"/>
</g>
<defs>
<clipPath id="clip0_2_201">
<rect width="18" height="18" fill="white"/>
</clipPath>
</defs>
</svg>
