<svg width="18" height="18" fill="none" xmlns="http://www.w3.org/2000/svg"><g clip-path="url(#clip0_372_8795)" fill="#fff" stroke="#fff" stroke-width=".75"><path d="M9 9.023c-4.744 0-8.604 3.86-8.604 8.603a.374.374 0 00.749 0c0-4.331 3.523-7.855 7.854-7.855 4.332 0 7.855 3.524 7.855 7.855a.374.374 0 00.748 0c0-4.744-3.86-8.603-8.603-8.603zM9 0a4.12 4.12 0 00-4.115 4.114A4.12 4.12 0 008.999 8.23a4.12 4.12 0 004.114-4.115A4.12 4.12 0 009 0zm0 7.48a3.37 3.37 0 01-3.367-3.366A3.37 3.37 0 018.999.748a3.37 3.37 0 013.366 3.366A3.37 3.37 0 019 7.481z"/></g><defs><clipPath id="clip0_372_8795"><path fill="#fff" d="M0 0h18v18H0z"/></clipPath></defs></svg>