<svg width="50" height="50" fill="none" xmlns="http://www.w3.org/2000/svg"><circle cx="25" cy="25" r="25" fill="#A1CCFF"/><path d="M36.218 35.81a53.087 53.087 0 00-.117-.667c-.465-2.536-1.226-6.569-4.129-8.748.214-1.42.324-3.628.324-6.911 0-5.242-3.399-9.484-7.589-9.484-2.857 0-4.674 2.025-4.674 2.025-1.77 1.738-2.915 4.43-2.915 7.469 0 3.274.115 5.482.323 6.897-2.916 2.159-3.662 6.224-4.128 8.761-.04.222-.08.444-.117.666a2.152 2.152 0 002.124 2.513l7.533-.002v-.002l11.24-.005a2.153 2.153 0 002.124-2.513h.001zM24.71 30.887l-4.002-2.04 2.076-3.272c.563.287 1.304.45 1.924.45.622 0 1.35-.166 1.915-.455l2.07 3.278-3.983 2.039zm-.002-6.279c-3.81 0-5.45-5.154-5.122-6.763 4.188-3.642 7.895-3.39 7.895-3.39s.664 2.064 2.374 4.554c-.3 2.455-2.788 5.6-5.147 5.6z" fill="#fff"/></svg>