<svg width="30" height="30" fill="none" xmlns="http://www.w3.org/2000/svg"><circle cx="15" cy="15" r="15" fill="#4A8FE0"/><g clip-path="url(#clip0_1124_1257)"><path d="M21.035 8.422c-.382-.351-1.926-1.472-5.37-1.487 0 0-4.06-.244-6.036 1.571-1.1 1.1-1.488 2.714-1.53 4.712-.042 1.998-.093 5.742 3.516 6.758h.003l-.003 1.55s-.024.628.39.754c.5.156.794-.321 1.271-.835.262-.282.622-.697.896-1.013 2.47.208 4.366-.267 4.582-.336.499-.163 3.32-.523 3.777-4.267.475-3.864-.228-6.304-1.496-7.407zm.418 7.124c-.388 3.126-2.675 3.324-3.095 3.459-.18.057-1.848.472-3.943.337 0 0-1.562 1.884-2.049 2.373-.16.16-.333.145-.33-.17l.011-2.576c-.003 0-.003 0 0 0-3.058-.847-2.878-4.036-2.845-5.703.033-1.668.348-3.035 1.28-3.954 1.674-1.518 5.12-1.293 5.12-1.293 2.912.012 4.306.89 4.63 1.184 1.073.92 1.62 3.12 1.22 6.344zm-4.177-2.427c.012.258-.376.276-.388.018-.033-.661-.342-.983-.98-1.019-.258-.015-.234-.403.022-.388.838.045 1.304.526 1.346 1.389zm.61.34c.03-1.275-.766-2.272-2.278-2.384-.255-.018-.228-.405.027-.387 1.743.126 2.671 1.325 2.638 2.78-.003.258-.393.246-.387-.01zm1.412.402c.003.258-.387.261-.387.003-.019-2.45-1.65-3.783-3.63-3.798-.256-.003-.256-.388 0-.388 2.214.015 3.996 1.545 4.017 4.183zm-.34 2.947v.006c-.324.571-.93 1.202-1.556 1.001l-.006-.009c-.634-.177-2.127-.946-3.07-1.698a7.86 7.86 0 01-1.275-1.274 9.756 9.756 0 01-.925-1.4c-.64-1.157-.782-1.674-.782-1.674-.201-.625.427-1.232 1.001-1.556h.006c.276-.144.54-.096.718.117 0 0 .373.445.532.664.15.205.351.532.457.715.183.328.069.661-.111.8l-.361.288c-.183.147-.16.42-.16.42s.535 2.023 2.534 2.534c0 0 .273.024.42-.16l.289-.36c.138-.18.472-.294.8-.111.44.25 1.003.637 1.375.988.21.172.259.433.114.71z" fill="#fff"/></g><defs><clipPath id="clip0_1124_1257"><path fill="#fff" transform="translate(7.693 6.923)" d="M0 0h15.385v15.385H0z"/></clipPath></defs></svg>