<svg width="40" height="40" fill="none" xmlns="http://www.w3.org/2000/svg"><circle cx="20" cy="20" r="20" fill="#E1EBF9"/><g clip-path="url(#clip0_782_2342)"><path d="M28.046 11.23c-.509-.469-2.568-1.963-7.16-1.983 0 0-5.412-.325-8.048 2.095-1.466 1.466-1.983 3.618-2.04 6.282-.056 2.664-.124 7.656 4.688 9.01h.004l-.004 2.068s-.032.837.52 1.005c.666.209 1.059-.428 1.696-1.113.348-.377.829-.93 1.193-1.35 3.294.276 5.822-.357 6.11-.45.665-.216 4.427-.696 5.036-5.688.633-5.153-.304-8.406-1.995-9.876zm.557 9.5c-.517 4.166-3.566 4.43-4.127 4.61-.24.077-2.463.63-5.256.45 0 0-2.083 2.511-2.732 3.164-.213.213-.445.192-.441-.228 0-.277.016-3.434.016-3.434-.004 0-.004 0 0 0-4.078-1.13-3.838-5.38-3.794-7.604.044-2.223.465-4.046 1.707-5.272 2.231-2.024 6.827-1.723 6.827-1.723 3.882.016 5.74 1.186 6.174 1.579 1.43 1.226 2.159 4.158 1.626 8.457zm-5.569-3.238c.016.344-.5.368-.517.024-.044-.881-.456-1.31-1.306-1.358-.344-.02-.312-.537.028-.517 1.118.06 1.74.701 1.795 1.85zm.813.453c.04-1.7-1.021-3.03-3.036-3.178-.341-.024-.305-.54.036-.516 2.323.168 3.561 1.766 3.517 3.706-.004.344-.525.328-.517-.012zm1.883.537c.005.344-.516.348-.516.003-.024-3.265-2.2-5.044-4.84-5.064-.34-.004-.34-.516 0-.516 2.953.02 5.328 2.059 5.357 5.577zm-.452 3.93v.008c-.433.761-1.242 1.602-2.076 1.334l-.008-.012c-.845-.236-2.836-1.262-4.094-2.264a10.479 10.479 0 01-1.7-1.698c-.413-.516-.83-1.13-1.234-1.866-.853-1.543-1.042-2.232-1.042-2.232-.268-.833.57-1.643 1.335-2.075h.008c.368-.193.72-.129.957.156 0 0 .497.593.71.885.2.273.468.71.608.954.245.437.092.881-.148 1.066l-.48.384c-.245.197-.213.561-.213.561s.713 2.696 3.377 3.378c0 0 .365.032.561-.213l.385-.48c.184-.241.629-.393 1.066-.149.588.333 1.338.85 1.834 1.318.28.229.345.577.153.946z" fill="#1D61B1" fill-opacity=".71"/></g><defs><clipPath id="clip0_782_2342"><path fill="#fff" transform="translate(10.257 9.23)" d="M0 0h20.513v20.513H0z"/></clipPath></defs></svg>