<svg width="36" height="36" viewBox="0 0 36 36" fill="none" xmlns="http://www.w3.org/2000/svg">
<circle cx="18" cy="18" r="18" fill="#E1EBF9" fill-opacity="0.3"/>
<g clip-path="url(#clip0_1011_127)">
<path d="M26.0462 10.2299C25.5373 9.76112 23.4781 8.26672 18.8867 8.24669C18.8867 8.24669 13.474 7.92217 10.8378 10.342C9.37148 11.8084 8.85466 13.9598 8.79857 16.6241C8.74248 19.2884 8.67437 24.2803 13.4861 25.6345H13.4901L13.4861 27.7018C13.4861 27.7018 13.454 28.5392 14.0069 28.7074C14.672 28.9158 15.0646 28.2787 15.7016 27.5936C16.0502 27.217 16.5309 26.6642 16.8955 26.2435C20.1888 26.5199 22.7168 25.8869 23.0053 25.7948C23.6704 25.5784 27.4324 25.0977 28.0414 20.1057C28.6744 14.9534 27.7369 11.7002 26.0462 10.2299V10.2299ZM26.6031 19.7291C26.0862 23.8957 23.0373 24.1602 22.4765 24.3404C22.2361 24.4166 20.0125 24.9694 17.22 24.7892C17.22 24.7892 15.1367 27.3012 14.4877 27.9542C14.2753 28.1666 14.043 28.1465 14.047 27.7259C14.047 27.4494 14.063 24.2924 14.063 24.2924C14.059 24.2924 14.059 24.2924 14.063 24.2924C9.98446 23.1626 10.2249 18.9118 10.2689 16.6882C10.313 14.4646 10.7337 12.6417 11.9757 11.4158C14.2072 9.39253 18.8026 9.69301 18.8026 9.69301C22.6848 9.70903 24.5438 10.8789 24.9765 11.2715C26.4067 12.4975 27.1359 15.4302 26.6031 19.7291V19.7291ZM21.0341 16.4919C21.0502 16.8364 20.5333 16.8605 20.5173 16.5159C20.4732 15.6345 20.0606 15.2058 19.2112 15.1577C18.8667 15.1377 18.8987 14.6209 19.2393 14.6409C20.3571 14.701 20.9781 15.342 21.0341 16.4919ZM21.8474 16.9446C21.8875 15.2459 20.8258 13.9158 18.8106 13.7675C18.47 13.7435 18.5061 13.2267 18.8466 13.2507C21.1704 13.419 22.4083 15.0175 22.3643 16.9566C22.3603 17.3012 21.8394 17.2852 21.8474 16.9446V16.9446ZM23.7305 17.4815C23.7345 17.826 23.2136 17.83 23.2136 17.4855C23.1896 14.2202 21.0141 12.4414 18.3739 12.4214C18.0333 12.4174 18.0333 11.9045 18.3739 11.9045C21.3266 11.9246 23.7024 13.9638 23.7305 17.4815V17.4815ZM23.2777 21.4118V21.4198C22.845 22.181 22.0357 23.0223 21.2024 22.7539L21.1944 22.7419C20.349 22.5055 18.3579 21.4799 17.0998 20.4783C16.4508 19.9654 15.8579 19.3605 15.4011 18.7795C14.9885 18.2627 14.5718 17.6497 14.1672 16.9126C13.3138 15.3701 13.1255 14.681 13.1255 14.681C12.8571 13.8477 13.6944 13.0384 14.4596 12.6057H14.4676C14.8362 12.4134 15.1888 12.4775 15.4252 12.7619C15.4252 12.7619 15.922 13.3549 16.1343 13.6473C16.3346 13.9198 16.6031 14.3565 16.7433 14.6009C16.9877 15.0376 16.8354 15.4823 16.595 15.6666L16.1143 16.0512C15.8699 16.2475 15.9019 16.6121 15.9019 16.6121C15.9019 16.6121 16.6151 19.3084 19.2793 19.9895C19.2793 19.9895 19.6439 20.0215 19.8402 19.7771L20.2249 19.2964C20.4091 19.056 20.8539 18.9037 21.2906 19.1481C21.8795 19.4807 22.6287 19.9975 23.1255 20.4662C23.4059 20.6946 23.47 21.0432 23.2777 21.4118Z" fill="white"/>
</g>
<defs>
<clipPath id="clip0_1011_127">
<rect width="20.5128" height="20.5128" fill="white" transform="translate(8.25684 8.23071)"/>
</clipPath>
</defs>
</svg>
