<svg width="73" height="70" fill="none" xmlns="http://www.w3.org/2000/svg"><g clip-path="url(#clip0_844_3062)"><path d="M47.657 31.637H5.398c-.217 0-.47.032-.628-.148-.09-.1-.073-.2-.073-.325v-2.189c0-.354-.069-.728.422-.76.032-.003.063 0 .094 0 .227-.002.454 0 .68 0h41.116c.198 0 .397-.003.595 0 .164.002.346.036.436.19.056.095.04.208.04.314v2.135c0 .355.079.757-.422.784-.392.02-.387.846 0 .826 1.277-.07 1.004-1.735 1.004-2.597 0-.845.243-2.418-1.005-2.478-.473-.023-.953 0-1.427 0H7.208c-.668 0-1.336-.006-2.004 0-.715.006-1.089.573-1.089 1.242 0 .89-.021 1.783 0 2.672.016.665.442 1.157 1.115 1.16.245.002.49 0 .735 0h41.692c.39 0 .392-.826 0-.826z" fill="#4A8FE0"/><path d="M53.054 39.073H4.131c-.707 0-1.413.011-2.12 0-.405-.006-.816-.181-1.011-.556-.143-.274-.077-.7-.077-1.013 0-1.16-.004-2.322 0-3.482.002-.637.572-.968 1.179-.968h50.705c.483 0 .987.081 1.232.566.146.289.074.745.074 1.072v1.983c0 .474.002.947 0 1.42-.002.571-.472.963-1.059.978-.587.016-.585 1.255 0 1.24 1.151-.032 1.906-1.014 1.932-2.105.01-.365 0-.73 0-1.095 0-1.062.025-2.129 0-3.192-.027-1.162-.849-2.103-2.043-2.106H4.63c-.847 0-1.694-.002-2.54 0-1.194.004-2.013.946-2.04 2.106-.026 1.063 0 2.13 0 3.192 0 .364-.01.73 0 1.095.025 1.087.78 2.08 1.931 2.105.151.003.303 0 .454 0h50.617c.588 0 .59-1.24.002-1.24z" fill="#4A8FE0"/><path d="M51.965 56.836H8.6c-.586 0-1.188-.042-1.772 0-.024.002-.05 0-.075 0l.437.62V39.693l-.437.62h43.365c.586 0 1.188.042 1.772 0 .024-.002.05 0 .075 0l-.437-.62v17.763c0 .252.135.614.437.62.303.005.437-.38.437-.62V39.693c0-.246-.134-.62-.437-.62H8.6c-.59 0-1.183-.022-1.772 0-.025.002-.05 0-.075 0-.302 0-.437.377-.437.62v17.763c0 .246.134.62.437.62h43.365c.59 0 1.183.022 1.772 0 .025-.002.05 0 .075 0 .586 0 .588-1.24 0-1.24z" fill="#4A8FE0"/><path d="M56.719 69.376H1.17a.713.713 0 01-.713-.708v-5.724c0-.39.32-.709.713-.709h55.549c.392 0 .713.32.713.709v5.724c0 .39-.321.708-.713.708z" fill="#fff"/><path d="M56.718 68.756H3.65c-.808 0-1.617.012-2.425 0-.116-.001-.313-.053-.332-.098-.037-.085 0-.266 0-.357v-4.807c0-.152-.03-.338 0-.488.002-.013.004-.063 0-.056.018-.032.206-.089.276-.095.044-.003.09 0 .133 0h55.363c.017 0 .034-.002.05 0a.55.55 0 01.203.053c.048.022.077.053.076.052.04.096 0 .295 0 .397v4.759c0 .153.019.321 0 .474-.015.12-.098.157-.276.166-.59.032-.582 1.27 0 1.24.86-.047 1.15-.83 1.15-1.568v-1.696c0-1.229.009-2.458 0-3.687-.006-.702-.377-1.392-1.154-1.43-.055-.002-.11 0-.164 0H4.033c-.916 0-1.832-.004-2.747 0-.08.002-.153 0-.232.01-.813.105-1.035.89-1.035 1.584v3.958c0 .964-.262 2.763 1.155 2.829.193.008.389 0 .582 0h54.963c.584 0 .586-1.24-.002-1.24z" fill="#4A8FE0"/><path d="M6.468 56.824c-.38-.004-.778.04-1.111.232-.463.266-.625.728-.714 1.228-.191 1.08-.396 2.159-.47 3.255-.017.251.146.615.437.62.315.005.42-.381.436-.62.057-.84.22-1.669.364-2.496.041-.236.021-.666.233-.82.223-.165.561-.163.825-.16.584.008.588-1.232 0-1.239zm45.494 1.24c.259-.003.588-.005.814.15.223.153.202.592.243.829.145.827.307 1.657.364 2.496.017.251.123.614.436.62.291.004.453-.38.437-.62-.074-1.095-.279-2.175-.47-3.255-.084-.473-.232-.928-.661-1.196-.346-.217-.761-.268-1.163-.264-.587.008-.587 1.247 0 1.24zM23.364 57.2c-1.448 3.777-2.344 7.732-3.076 11.7-.049.26.02.657.304.762.285.105.493-.192.538-.432.713-3.868 1.576-7.721 2.988-11.404.103-.268.084-.653-.157-.848-.23-.186-.504-.021-.597.222zm11.048.684c1.411 3.682 2.275 7.536 2.988 11.404.045.243.254.534.537.432.286-.102.352-.508.305-.762-.732-3.968-1.628-7.923-3.076-11.7-.093-.242-.37-.407-.598-.223-.239.196-.258.584-.156.85zm-7.689 3.051a27.22 27.22 0 004.577-.018c.402-.035.582-.469.582-.826 0-.298-.18-.861-.582-.826a27.22 27.22 0 01-4.577.017c-.4-.032-.582.52-.582.826 0 .356.178.794.582.827zm-1.198 5.645c2.452.084 4.904.193 7.357.215.78.007.784-1.645 0-1.652-2.453-.023-4.905-.132-7.357-.216-.775-.026-.786 1.625 0 1.653z" fill="#4A8FE0"/><path d="M24.707 56.814c0-2.137-.006-4.272-.014-6.408-.004-1.09-.015-2.18-.013-3.269 0-.254.001-.509.006-.763.004-.184-.02-.396.031-.576.095-.337.626-.292.899-.295 2.148-.024 4.295-.04 6.442-.06.475-.004.98-.04 1.427.148.394.165.5.406.505.811.013 1.066-.01 2.134-.022 3.2-.026 2.435-.055 4.87.015 7.306.007.252.13.614.436.62.298.004.444-.38.437-.62-.067-2.338-.043-4.676-.018-7.014.013-1.164.038-2.329.025-3.493-.006-.566-.097-1.133-.5-1.562-.34-.363-.797-.535-1.284-.603-.547-.077-1.115-.032-1.665-.027l-1.758.016-3.455.032c-.484.005-1.03-.05-1.493.124-.488.184-.757.647-.84 1.139-.093.546-.062 1.123-.062 1.675 0 .584.004 1.168.007 1.753.011 2.621.02 5.243.02 7.864 0 .252.136.615.437.62.303.006.437-.379.437-.618zm-12.032-4.401c-.094-.322-.043-.656-.01-.984.043-.422.04-.847.048-1.27.014-.96.022-1.919.02-2.878 0-.354-.029-.71-.016-1.063.01-.309.111-.54.405-.679.4-.188.88-.146 1.308-.148.491-.003.982-.001 1.473.003l1.474.014c.42.004.914-.07 1.319.052.478.144.435.476.435.896v1.423c0 .95.04 1.896.054 2.845.006.407.04.847-.05 1.248-.082.37-.296.53-.66.612-.458.104-.945.053-1.407.014a13.56 13.56 0 00-1.468-.046c-.535.011-1.07.035-1.607.043-.262.004-.525-.005-.788 0-.223.005-.463.064-.559-.181-.064-.166-.243-.264-.398-.148-.162.121-.17.394-.104.565.184.473.526.605 1.009.592.546-.015 1.094-.005 1.641-.023.558-.017 1.121-.048 1.68-.02.483.023.963.096 1.448.088.428-.008.949-.065 1.288-.35.302-.255.45-.668.509-1.045.164-1.052.013-2.169-.003-3.229-.01-.568-.003-1.136-.003-1.705 0-.5.092-1.094-.067-1.576-.338-1.027-1.456-.874-2.328-.882-1.17-.01-2.347-.06-3.515-.008-.433.018-.897.114-1.22.423-.296.285-.41.675-.44 1.073-.035.476.008.964.008 1.441 0 .63-.003 1.26-.01 1.89-.007.602.012 1.214-.037 1.814-.038.472-.125.953.01 1.42.15.516.69.223.561-.221zm26.692 0c-.094-.322-.044-.656-.01-.984.042-.422.04-.847.047-1.27.015-.96.022-1.919.02-2.878 0-.354-.028-.71-.016-1.063.011-.309.112-.54.406-.679.4-.188.879-.146 1.307-.148.492-.003.982-.001 1.474.003l1.474.014c.419.004.913-.07 1.318.052.479.144.436.476.436.896v1.423c0 .95.04 1.896.054 2.845.006.407.04.847-.05 1.248-.082.37-.296.53-.66.612-.458.104-.946.053-1.408.014a13.56 13.56 0 00-1.468-.046c-.535.011-1.07.035-1.606.043-.263.004-.526-.005-.789 0-.223.005-.463.064-.558-.181-.065-.166-.243-.264-.398-.148-.163.121-.171.394-.105.565.184.473.527.605 1.01.592.546-.015 1.093-.005 1.64-.023.559-.017 1.122-.048 1.68-.02.483.023.964.096 1.449.088.427-.008.948-.065 1.288-.35.301-.255.45-.668.508-1.045.165-1.052.013-2.169-.003-3.229-.009-.568-.003-1.136-.003-1.705 0-.5.092-1.094-.066-1.576-.339-1.027-1.456-.874-2.329-.882-1.169-.01-2.346-.06-3.515-.008-.433.018-.896.114-1.219.423-.297.285-.41.675-.44 1.073-.036.476.008.964.008 1.441 0 .63-.004 1.26-.01 1.89-.008.602.012 1.214-.038 1.814-.038.472-.125.953.01 1.42.15.516.691.223.562-.221zM8.905 27.69c1.084-1.023 2.314-1.867 3.489-2.78 1.162-.904 2.18-1.898 3.073-3.065.826-1.08 1.655-2.287 3.001-2.753 1.244-.43 2.658-.282 3.953-.313 3.44-.082 6.882-.148 10.323-.158.826-.002 1.65.008 2.475.003.781-.005 1.563-.06 2.343-.012.677.043 1.407.165 1.99.53.477.297.858.731 1.194 1.173.427.562.794 1.165 1.187 1.751a34.27 34.27 0 001.452 1.963 54.79 54.79 0 003.554 4.104c.21.22.508-.01.597-.222a.788.788 0 00-.157-.848 52.346 52.346 0 01-3.206-3.694 42.837 42.837 0 01-1.449-1.926c-.347-.496-.662-1.014-1.006-1.512-.742-1.076-1.606-2.04-2.923-2.372-.747-.188-1.513-.215-2.28-.202-.822.013-1.642.026-2.465.024-3.481-.006-6.962.052-10.442.13-.805.019-1.611.044-2.417.048-.67.004-1.342.002-2.004.11-.667.107-1.282.31-1.856.668-.636.395-1.152.96-1.625 1.532-.508.613-.96 1.268-1.473 1.877-.534.636-1.158 1.192-1.802 1.715-1.313 1.066-2.734 1.995-3.965 3.158-.224.21-.274.569-.157.848.091.222.374.433.596.223z" fill="#4A8FE0"/><path d="M19.467 27.419c6.53 0 11.823-5.258 11.823-11.744S25.997 3.932 19.467 3.932 7.645 9.189 7.645 15.675c0 6.486 5.293 11.744 11.822 11.744z" fill="#fff"/><path d="M30.853 15.675a11.005 11.005 0 01-2.08 6.398 11.455 11.455 0 01-5.371 4.04c-4.464 1.618-9.67.269-12.718-3.369-1.455-1.737-2.394-3.91-2.568-6.163-.177-2.297.354-4.62 1.572-6.594 2.482-4.025 7.358-6.15 12.026-5.223 4.576.908 8.264 4.61 9.006 9.203.09.569.13 1.13.133 1.708 0 .252.134.614.436.62.302.005.438-.38.437-.62-.009-2.57-.794-5.109-2.29-7.21a12.336 12.336 0 00-5.802-4.424 12.349 12.349 0 00-7.503-.266c-2.398.672-4.537 2.106-6.115 4.014-3.32 4.016-3.69 9.87-1.027 14.318a12.33 12.33 0 005.435 4.844c2.345 1.069 5 1.338 7.521.83 4.972-1.002 8.863-5.19 9.628-10.148.1-.647.15-1.303.152-1.958 0-.252-.135-.614-.436-.62-.303-.004-.435.38-.436.62z" fill="#4A8FE0"/><path d="M17.72 9.036v14.695c0 .51.583.511.583 0V9.036c0-.51-.582-.512-.582 0zm2.317 0v14.695c0 .51.582.511.582 0V9.036c0-.51-.582-.512-.582 0z" fill="#4A8FE0"/><path d="M23.168 11.977c-1.167-1.472-3.14-1.947-4.927-1.499-1.363.343-3.045 1.289-2.779 2.928.15.928.845 1.907 1.69 2.33.471.234 1.008.301 1.523.377.574.084 1.138.206 1.69.385.525.17 1.064.372 1.538.658.372.224.771.549.823 1.007.087.785-.798 1.382-1.413 1.677a5.251 5.251 0 01-3.412.352c-.547-.133-1.058-.359-1.473-.743-.4-.37-.687-.848-.965-1.31-.1-.167-.306-.14-.412 0-.127.166-.102.415 0 .583.492.82 1.05 1.602 1.95 2.013.986.45 2.144.5 3.198.3 1.578-.3 3.669-1.57 2.992-3.466-.342-.957-1.426-1.418-2.311-1.743a10.288 10.288 0 00-1.703-.459c-.52-.095-1.059-.127-1.562-.301-.51-.176-.891-.523-1.188-.965-.206-.307-.445-.719-.41-1.104.058-.666.816-1.114 1.359-1.364 1.764-.814 4.106-.679 5.382.928.315.399.643-.29.41-.584z" fill="#4A8FE0"/><path d="M68.701 42.82H45.327c-1.872 0-3.403-1.52-3.403-3.38V4.007c0-1.859 1.531-3.38 3.403-3.38H68.7c1.872 0 3.403 1.521 3.403 3.38V39.44c0 1.86-1.53 3.38-3.403 3.38z" fill="#fff"/><path d="M68.702 42.2H45.62c-.098 0-.196.002-.293 0-1.018-.01-1.975-.5-2.538-1.352-.375-.568-.428-1.169-.428-1.815V4.4c0-.682.077-1.31.494-1.898.567-.796 1.499-1.245 2.473-1.256h19.348c1.368 0 2.742-.034 4.11.001 1.535.04 2.877 1.263 2.882 2.806v31.969c0 1.13.008 2.26 0 3.39-.011 1.583-1.41 2.77-2.966 2.789-.587.007-.587 1.246 0 1.239 2.19-.026 3.82-1.883 3.84-4.006.002-.307 0-.614 0-.921V7.46c0-1.142.009-2.286 0-3.428-.016-1.919-1.319-3.656-3.266-3.977-.507-.084-1.044-.049-1.556-.049H45.613c-.137 0-.274-.002-.41.003-1.123.04-2.152.593-2.847 1.46-.655.819-.868 1.815-.868 2.834v34.783c0 .922.15 1.809.663 2.605.756 1.174 2.03 1.748 3.4 1.748h23.151c.586.001.587-1.238 0-1.238z" fill="#4A8FE0"/><path d="M45.522 27.998h14.191c.39 0 .392-.826 0-.826H45.521c-.39 0-.39.826 0 .826zm-.11 3.898h14.836c.39 0 .392-.826 0-.826H45.412c-.39 0-.391.826 0 .826zm.368 4.113h19.072c.39 0 .392-.827 0-.827H45.78c-.39 0-.392.827 0 .827zm.097 3.464h20.695c.278 0 .572.028.849 0 .011-.002.024 0 .036 0 .39 0 .391-.826 0-.826H46.762c-.278 0-.572-.029-.849 0h-.036c-.39 0-.391.826 0 .826zm16.805-23.8a48.433 48.433 0 01-.066-2.542c.004-.555.035-1.123.062-1.671.048-.96.1-1.95.024-2.924l-.014-.218c-.058-.85-.137-2.018-1.014-2.382-.363-.15-.781-.163-1.182-.18a11.287 11.287 0 01-.33-.014 83.706 83.706 0 00-2.041-.11c-.59-.023-1.36-.05-2.149-.05-.74 0-1.401.023-2.021.074-.189-.003-.377-.007-.566-.007-.777 0-1.566.027-2.326.054-.562.021-1.127.041-1.69.052h-.106c-.209 0-.424-.01-.65-.017-.244-.01-.484-.021-.727-.021-.504 0-1.148.037-1.676.337-.76.429-.867 1.31-.96 2.086l-.023.194c-.195 1.562-.188 3.166-.185 4.585.004 1.42.069 2.964.206 4.857.048.69.075 1.395.099 2.076.01.3.02.595.034.895.018.374.148 1.637 1.158 2.107.521.241 1.19.272 1.714.272.257 0 .514-.01.76-.017.23-.008.45-.014.655-.014h.154c.675.014 1.35.02 2.026.02.483 0 .966-.003 1.45-.003l.904-.003c.442 0 .888.003 1.33.006.442.004.887.007 1.33.007.4 0 .804-.003 1.205-.01h.268l.88.004c.805 0 1.645-.035 2.334-.293.822-.306.997-1.13 1.055-1.818.1-1.163.147-2.205.14-3.185 0-.718-.035-1.442-.062-2.147zm-.415-4.564l-.03.623c-.06 1.317-.015 2.658.026 3.951.059 1.743.113 3.543-.071 5.313-.086.83-.343 1.412-1.313 1.542-.456.061-.915.088-1.421.116a43.05 43.05 0 01-2.361.05l-1.152-.003h-.209c-.302-.003-.606-.003-.908-.003-.466 0-.932 0-1.398.003-.465 0-.932.004-1.398.004a89.32 89.32 0 01-2.997-.04c-.096-.004-.196-.004-.295-.004l-.562.003c-.867 0-1.751-.075-2.186-.976-.312-.644-.299-1.501-.285-2.332.007-.337.01-.653-.007-.95-.024-.428-.058-.86-.09-1.29a51.275 51.275 0 01-.126-2.1 79.286 79.286 0 01-.027-3.57c.003-.217.003-.442.003-.673 0-1.205 0-2.567.39-3.646.326-.905 1.354-1.02 2.214-1.02.285 0 .572.013.84.027.24.013.47.023.671.023h.117c.438-.01.88-.027 1.319-.04.774-.028 1.572-.058 2.36-.058.192 0 .384 0 .576.007.661-.052 1.35-.079 2.115-.079 1.267 0 2.545.072 3.85.154.124.007.264.01.405.01.38.003.812.01 1.12.136.652.266.74 1.164.806 1.818l.017.156c.103.945.055 1.912.007 2.848z" fill="#4A8FE0"/><path d="M50.745 12.95c-.27-.35-.795-.391-1.165-.391-.151 0-.302.007-.438.014-.09.003-.175.01-.25.01h-.035c-.206 0-.415.017-.613.034a9.523 9.523 0 01-.538.03h-.185c-.137 0-.28.007-.42.095-.433.27-.446.994-.453 1.478l-.004.16c-.017.513.008 1.031.031 1.517.004.041.004.089.004.133 0 .194.003.412.13.565.158.19.456.283.911.283.223 0 .453-.021.651-.038a7.05 7.05 0 01.39-.027h.045c.346-.003.689-.01 1.035-.01h.302c.031 0 .069.004.103.004.044.003.085.003.13.003.103 0 .23-.01.326-.098.322-.293.273-1.011.236-1.539a4.785 4.785 0 01-.017-.34c0-.126.01-.276.02-.436.027-.49.071-1.103-.196-1.447zm-.233 2.383c.02.483.041.935-.524 1.061-.14.03-.308.044-.517.044-.165 0-.33-.01-.494-.017-.157-.007-.312-.017-.452-.017h-.038c-.072 0-.16.007-.253.014-.124.007-.258.017-.394.017-.418 0-.655-.092-.747-.293-.127-.275-.09-.854-.062-1.276a9.92 9.92 0 00.021-.354v-.187c0-.504 0-1.134.562-1.277.24-.061.559-.068.778-.068.11 0 .219.004.318.004l.182.003c.082 0 .164-.006.25-.01.113-.006.23-.01.34-.01.465 0 .907.089 1.013.742.045.29.035.613.021.926-.006.154-.013.306-.01.45 0 .084.002.166.006.247z" fill="#4A8FE0"/><path d="M49.593 14.53c-.219.017-.449.027-.706.034a7.253 7.253 0 00-.003-.729c-.01-.129-.117-.194-.22-.194a.2.2 0 00-.147.058.18.18 0 00-.044.14c.017.24.013.486.007.721-.274-.006-.521-.02-.774-.04-.12 0-.175.088-.178.177-.004.102.061.217.195.23.233.021.48.035.754.042 0 .204.007.462.055.721.017.092.085.15.178.15a.23.23 0 00.174-.081.205.205 0 00.045-.17 3.22 3.22 0 01-.048-.616c.26-.004.496-.014.716-.035.133-.01.199-.125.195-.227-.003-.107-.079-.181-.199-.181zm2.601 2.222c.171.085.415.126.747.126.236 0 .486-.021.71-.038.18-.013.348-.027.503-.03.1 0 .236.01.39.023.196.017.419.035.627.035.295 0 .493-.038.613-.12.357-.235.312-.94.285-1.405-.007-.102-.01-.195-.014-.266v-.487c.004-.333.004-.677-.01-1.014l-.004-.062c-.007-.18-.013-.384-.13-.537-.27-.364-.87-.412-1.367-.412-.116 0-.226.003-.329.007l-.188.004c-.1 0-.216-.007-.343-.014a8.126 8.126 0 00-.51-.017c-.343 0-.826.03-1.083.31-.373.402-.346 1.222-.325 1.82.003.093.006.178.006.253 0 .109-.006.231-.014.364-.017.537-.054 1.215.436 1.46zm.103-3.342c.195-.388.713-.44 1.137-.44.117 0 .233.004.34.008.092.004.178.006.26.006.068 0 .137-.003.209-.003.093-.004.188-.007.281-.007.504 0 .99.075 1.11.613.069.3.048.664.028 1.017-.01.167-.017.33-.017.477 0 .067.003.142.006.224.02.436.045.98-.35 1.086-.112.03-.257.045-.431.045-.14 0-.285-.01-.425-.018-.134-.007-.26-.017-.377-.017 0 0-.376.004-.552.004-.215 0-.428 0-.644-.007-.67-.014-.67-.426-.67-.95 0-.081 0-.167-.005-.252a15.749 15.749 0 00-.013-.306c-.024-.48-.062-1.137.113-1.48z" fill="#4A8FE0"/><path d="M53.016 14.931c.003 0 .003 0 0 0 .116-.007.229-.01.345-.01.179 0 .353.007.532.014.178.007.356.014.534.014.124 0 .247-.004.37-.014.134-.01.2-.123.196-.225-.004-.088-.062-.183-.2-.183a4.46 4.46 0 01-.366.013c-.178 0-.353-.007-.531-.013a13.624 13.624 0 00-.535-.014c-.116 0-.233.004-.349.01-.134.01-.199.12-.196.225.004.088.062.184.2.184zm-2.256 2.927c-.247-.357-.754-.404-1.169-.404-.133 0-.264.007-.384.01-.106.003-.205.007-.315.007h-.058c-.299 0-.6.02-.895.04-.112.008-.229.018-.342.024l-.093.004c-.14.003-.274.006-.411.092-.456.282-.46 1.078-.46 1.602l-.007.358c-.01.487-.02.994.049 1.464l.01.088c.013.13.03.262.137.378.15.16.38.18.603.18h.213c.442.01.887.014 1.33.014h.037c.455 0 .85-.007 1.237-.02l.157.003a.453.453 0 00.25-.058c.353-.248.302-.994.268-1.49l-.018-.297c0-.14.01-.3.024-.476.05-.511.094-1.148-.163-1.519zm-.254 2.526c.01.374.017.796-.33.901a1.89 1.89 0 01-.517.058c-.17 0-.349-.01-.52-.02a5.818 5.818 0 00-.405-.018c-.113 0-.254.01-.405.024a6.64 6.64 0 01-.517.027c-.196 0-.34-.02-.439-.061-.397-.17-.363-.83-.339-1.314a4.88 4.88 0 00.003-.541c-.017-.593-.04-1.33.572-1.5.223-.062.535-.072.75-.072.113 0 .227.003.333.003l.195.004c.658.006 1.477.01 1.604.84.048.327.034.688.023 1.035-.006.16-.01.32-.01.47v.164h.002z" fill="#4A8FE0"/><path d="M49.825 18.801a.227.227 0 00-.209-.143.217.217 0 00-.137.051 22.08 22.08 0 00-.76.684 10.2 10.2 0 01-.672-.603.195.195 0 00-.137-.061.229.229 0 00-.199.136.188.188 0 00.045.212c.195.194.414.39.66.595-.24.231-.479.466-.709.711a.199.199 0 00-.04.218.22.22 0 00.195.133c.052 0 .1-.021.137-.065.216-.225.45-.46.74-.74l.038.032c.24.183.463.354.655.582a.18.18 0 00.137.07c.075 0 .15-.05.185-.125a.214.214 0 00-.028-.228c-.195-.235-.438-.418-.671-.599l-.014-.01c.237-.22.477-.439.727-.653a.166.166 0 00.057-.197zm6.09-.915c-.257-.385-.805-.43-1.196-.43-.154 0-.302.008-.438.014-.09.004-.175.01-.25.01-.082 0-.175-.003-.278-.006-.14-.004-.295-.01-.452-.01-.391 0-.942.03-1.227.292-.4.368-.35 1.096-.308 1.678.01.14.02.27.02.381.004.11-.006.235-.013.371-.035.552-.08 1.24.418 1.468.185.084.439.125.805.125.168 0 .343-.007.504-.017.144-.007.28-.014.4-.014h.053c.102.004.236.014.38.024.205.017.442.034.668.034.367 0 .624-.051.782-.153.356-.231.311-.94.284-1.406-.007-.102-.01-.194-.014-.265 0-.147.014-.32.028-.51.04-.535.09-1.202-.166-1.586zm-2.508 3.458c-.082 0-.161.003-.243.003a2.35 2.35 0 01-.521-.044c-.477-.102-.46-.616-.446-1.072.004-.095.007-.19.004-.276-.008-.279-.01-.562-.008-.84v-.051c.004-.372.004-.474.292-.797.27-.31.325-.314.593-.324.058-.003.123-.006.201-.013l.093-.007c.213-.017.415-.034.624-.034l.213-.003c.102-.004.205-.007.304-.007.638 0 1.05.143 1.12.851.035.337.028.695.018 1.038-.003.156-.007.313-.007.47 0 .054.004.119.007.187.007.17.017.364-.017.5-.106.409-.233.412-.507.416l-.107.003a22.549 22.549 0 01-1.274 0h-.103c-.079-.004-.157 0-.236 0z" fill="#4A8FE0"/><path d="M54.103 19.873c.127-.006.257-.017.387-.017.171 0 .309.013.432.048.021.003.038.007.055.007.113 0 .185-.092.199-.184.01-.085-.031-.187-.144-.214a2.911 2.911 0 00-.733-.081c-.39 0-.805.051-1.169.095l-.233.027a.22.22 0 00-.191.238c.007.102.075.174.174.174h.028c.311-.038.633-.062.983-.075a2.21 2.21 0 01.212-.018zm-.175-.66a.198.198 0 00.15-.065.216.216 0 00.051-.14c0-.102-.068-.204-.198-.204a.199.199 0 00-.151.065.217.217 0 00-.052.14c.001.101.07.204.2.204zm.019.841a.199.199 0 00-.15.065.215.215 0 00-.049.14c0 .101.068.203.2.203a.199.199 0 00.15-.064.217.217 0 00.051-.14c-.004-.102-.072-.204-.202-.204zm7.183-.464l.013-2.906.004-.895c.003-.623.01-1.25.007-1.872 0-.048 0-.099.003-.15.008-.266.014-.565-.16-.773-.278-.333-.871-.374-1.354-.374-.113 0-.223.004-.322.004l-.182.003c-.12 0-.243-.003-.37-.01-.134-.003-.267-.01-.397-.01-.648 0-1.265.112-1.398.923-.093.558-.093 1.143-.093 1.712 0 .173 0 .344-.004.51-.007.463-.023.932-.04 1.406-.045 1.29-.093 2.62.048 3.883.082.722.746.732 1.336.742.133.004.267.004.39.014.14.01.282.013.419.013.336 0 .678-.027 1.008-.05l.102-.008c.051-.003.11-.006.168-.006.21-.004.45-.01.603-.143.319-.279.268-1.041.23-1.6-.004-.157-.011-.3-.011-.413zm-1.587 1.804a.83.83 0 00-.106.004h-.035c-.157.007-.387.02-.633.02-.888 0-1.381-.153-1.47-.449-.09-.302-.062-.724-.038-1.096.01-.173.021-.337.021-.483-.003-.803-.007-1.606 0-2.41.004-.854.01-1.688.045-2.514.003-.072.003-.147.003-.225 0-.19-.003-.389.045-.551.157-.582.678-.664 1.216-.664.1 0 .199.003.298.003.09.004.175.004.26.004l.182-.004.247-.003c.48 0 1.007.05 1.175.656.03.11.017.262.007.399-.007.068-.01.133-.01.187l-.017 3.335c-.008.905-.014 1.807-.01 2.71 0 .057.003.125.006.197.017.3.038.67-.175.803-.113.072-.428.079-.657.079l-.354.002z" fill="#4A8FE0"/><path d="M58.125 17.14c.23.01.46.014.689.014.184 0 .37-.004.554-.004.182-.003.36-.003.542-.003.13 0 .199-.102.199-.205 0-.102-.069-.204-.2-.204-.181 0-.36.004-.54.004-.185.003-.37.003-.553.003-.229 0-.455-.003-.695-.013-.127 0-.189.098-.189.19a.196.196 0 00.193.218zm1.98.418c-.003-.105-.079-.18-.199-.18h-.003c-.21.017-.432.027-.685.027-.299 0-.6-.014-.898-.024l-.202-.006c-.13 0-.189.098-.192.194-.004.102.065.211.199.214l.192.007c.302.013.6.023.901.023.254 0 .48-.01.689-.027a.216.216 0 00.198-.228zm.504-10.074c-.227-.095-.504-.105-.747-.115l-.13-.004a66.455 66.455 0 00-2.96-.058l-.49-.007a439.925 439.925 0 00-8.279.003c-.062 0-.13-.003-.206-.006a5.898 5.898 0 00-.25-.007c-.164 0-.28.017-.373.047-.473.17-.477.75-.48 1.212 0 .123 0 .241-.01.344l-.007.04c-.055.596-.144 1.59.086 2.165.147.371.552.422.97.422h.157l.945-.003c1.251 0 2.505.003 3.756.01l2.285.007 4.349.01c.099 0 .201.003.301.007.107.004.216.007.322.007.1 0 .196-.003.291-.01 1.035-.068 1.022-1.024 1.011-1.868v-.13c0-.102.007-.217.014-.34.03-.653.072-1.46-.555-1.726zm.13 2.11c.007.753.014 1.468-.836 1.546-.1.01-.2.013-.302.013-.11 0-.223-.003-.332-.007-.106-.003-.21-.007-.315-.007l-10.7-.03h-.169c-.055 0-.12.003-.188.01-.082.006-.171.013-.26.013-.258 0-.412-.058-.48-.184-.079-.142-.075-.462-.072-.718 0-.102.004-.194-.003-.258-.045-.725-.021-1.273.072-1.736.102-.504.27-.524.643-.524h.179a376.78 376.78 0 013.916-.017c.929 0 1.857.004 2.786.007 1.405.007 2.676.014 3.97.04l.186.004c.342.008.699.014 1.048.035.031.003.069.003.107.003.082 0 .164 0 .229.02.586.199.558.9.534 1.464a8.148 8.148 0 00-.006.283l-.007.044z" fill="#4A8FE0"/><path d="M48.266 8.094c-.014 0-.03 0-.045.003-.335.071-.599.256-.72.507-.126.266-.088.599-.054.892l.017.15c.01.125.12.194.223.194a.2.2 0 00.148-.058.18.18 0 00.044-.14l-.01-.119a2.928 2.928 0 01-.024-.575c.01-.238.179-.391.483-.453.103-.02.161-.098.151-.2-.015-.1-.09-.201-.213-.201zm.65-.044c-.13 0-.2.101-.2.204a.2.2 0 00.053.139.188.188 0 00.15.065c.13 0 .2-.102.2-.204a.214.214 0 00-.049-.14.212.212 0 00-.154-.065z" fill="#4A8FE0"/></g><defs><clipPath id="clip0_844_3062"><path fill="#fff" d="M0 0h72.546v70H0z"/></clipPath></defs></svg>